<svg width="32" height="32" viewBox="0 0 32 32" fill="none" xmlns="http://www.w3.org/2000/svg">
<path d="M26.2627 19.0518C25.5423 15.8502 23.788 15.377 22.8639 11.7181C22.8639 11.7181 22.3 9.71513 22.8796 7.19172C20.7181 8.15377 18.9325 11.3869 18.9325 11.3869C18.9325 11.3869 19.3241 7.71217 18.165 4.63677C17.0216 1.56136 15.283 0.504682 14.4999 0C14.4999 0 15.2674 2.64958 13.7324 5.01528C12.1974 7.38098 9.29979 10.898 8.61062 14.0996C7.93712 17.2854 8.59496 19.1148 8.86123 20.1873C9.1275 21.2755 9.59739 22.5057 9.59739 22.5057C9.59739 22.5057 6.48046 21.0547 5.82262 16.0552C4.63223 18.8625 4.80453 22.6634 5.88527 25.0606C6.98167 27.4579 8.01543 29.1139 10.5058 30.4071C12.9962 31.7161 16.3011 30.549 16.0818 28.1045C15.8782 26.0227 13.936 24.1301 12.9806 22.1429C12.0095 20.1084 9.17449 13.9734 15.3927 8.87925C15.3927 8.87925 14.2493 12.7748 14.8288 15.0774C15.283 16.8911 15.9879 17.9478 17.2096 19.1779C18.4469 20.4239 23.835 24.5402 21.2976 28.9088C20.9843 27.3948 19.7313 24.0039 16.8963 23.0734C17.7578 24.5086 18.9482 26.3854 19.0108 28.136C19.0735 29.8866 18.3843 30.6279 17.6481 31.3691C20.2638 30.7856 23.0049 29.4766 24.6338 27.4421C26.2627 25.376 27.1085 22.8053 26.2627 19.0518ZM23.4121 24.9345C23.4121 24.9345 23.7097 23.7201 23.1772 22.3637C22.6446 21.0074 21.7362 20.1715 20.9843 19.1779C20.2325 18.1843 19.9193 17.238 19.9036 15.4243C19.8879 13.6106 21.188 12.0966 21.188 12.0966C21.188 12.0966 21.1566 12.1755 21.7205 14.5254C22.2844 16.8911 24.5242 18.342 24.6495 21.3386C24.7904 24.3509 23.4121 24.9345 23.4121 24.9345Z" fill="url(#paint0_linear_20_7014)"/>
<defs>
<linearGradient id="paint0_linear_20_7014" x1="25.8906" y1="25.515" x2="9.54651" y2="13.1729" gradientUnits="userSpaceOnUse">
<stop stop-color="#DE5E2F"/>
<stop offset="0.5915" stop-color="#E77F30"/>
<stop offset="0.8434" stop-color="#F8AC2D"/>
</linearGradient>
</defs>
</svg>
