<svg width="205" height="195" viewBox="0 0 205 195" fill="none" xmlns="http://www.w3.org/2000/svg">
<g filter="url(#filter0_d_5_6537)">
<path d="M137.134 83.0927C137.109 92.227 132.792 101.147 124.136 107.969C115.442 114.725 104.111 117.966 92.8116 117.802C81.4745 117.573 70.1688 113.938 61.4883 106.876C52.873 99.7769 48.5498 90.634 48.5744 81.4997C48.6367 72.4305 52.9165 63.4452 61.5725 56.6237C70.2285 49.8021 81.5971 46.6259 92.8966 46.7902C104.234 47.0196 115.539 50.6547 124.22 57.7162C132.873 64.8806 137.093 73.996 137.134 83.0927Z" fill="url(#paint0_linear_5_6537)"/>
<path d="M137.134 83.0928L137.032 85.3232C137.056 76.1889 132.771 67.1111 124.118 59.9468C115.503 52.8476 104.159 49.1474 92.7946 49.0207C81.4575 48.7913 70.1264 52.0326 61.4705 58.8542C53.1953 65.2822 48.8201 73.8014 48.4294 82.4522L48.5314 80.2218C48.9221 71.571 53.2322 63.0894 61.5725 56.6238C70.2661 49.8674 81.5971 46.6261 92.8966 46.7903C104.234 47.0198 115.539 50.6548 124.22 57.7164C132.873 64.8807 137.158 73.9585 137.134 83.0928Z" fill="url(#paint1_linear_5_6537)"/>
<path d="M137.074 84.3432L136.972 86.5736C136.979 86.135 137.024 85.7616 137.032 85.3231L137.134 83.0927C137.126 83.5312 137.081 83.9047 137.074 84.3432Z" fill="url(#paint2_linear_5_6537)"/>
<path d="M144.577 84.7018L144.092 95.1444C143.586 105.251 138.555 115.192 128.867 122.783C118.76 130.702 105.407 134.503 92.1854 134.319C78.9262 134.071 65.6581 129.745 55.5914 121.486C45.4872 113.161 40.4292 102.445 40.4659 91.8271C40.4356 91.3234 40.8914 82.635 40.8988 82.1965L41.0008 79.9661C40.9935 80.4047 40.9586 80.946 40.9888 81.4497C40.9521 92.0675 46.0101 102.784 56.1144 111.108C66.181 119.367 79.4491 123.693 92.7083 123.942C105.968 124.191 119.218 120.363 129.39 112.405C139.04 104.749 144.174 94.8361 144.577 84.7018Z" fill="url(#paint3_linear_5_6537)"/>
<path d="M129.566 53.5872C119.5 45.3282 106.232 41.0022 92.9724 40.7533C79.648 40.5421 66.3976 44.3704 56.1883 52.2625C46.0817 60.1822 40.9879 70.7666 40.9512 81.3844C40.9145 92.0023 45.9725 102.719 56.0768 111.043C66.1434 119.302 79.4115 123.628 92.6707 123.877C105.93 124.126 119.18 120.297 129.352 112.34C139.459 104.42 144.59 93.9011 144.627 83.2833C144.663 72.6654 139.633 61.8462 129.566 53.5872ZM137.134 83.0927C137.109 92.2271 132.792 101.147 124.136 107.969C115.442 114.725 104.111 117.967 92.8116 117.802C81.4745 117.573 70.1688 113.938 61.4884 106.876C52.873 99.777 48.5498 90.6341 48.5744 81.4997C48.6367 72.4306 52.9165 63.4453 61.5725 56.6237C70.2285 49.8022 81.5971 46.626 92.8966 46.7902C104.234 47.0197 115.539 50.6547 124.22 57.7163C132.873 64.8806 137.093 73.996 137.134 83.0927Z" fill="url(#paint4_linear_5_6537)"/>
<path d="M137.134 83.0927C137.109 92.227 132.792 101.147 124.136 107.969C115.442 114.725 104.111 117.966 92.8116 117.802C81.4745 117.573 70.1688 113.938 61.4883 106.876C52.873 99.777 48.5498 90.634 48.5744 81.4997C48.6367 72.4305 52.9165 63.4452 61.5725 56.6237C70.2285 49.8021 81.5971 46.6259 92.8966 46.7902C104.234 47.0196 115.539 50.6547 124.22 57.7162C132.873 64.8806 137.093 73.996 137.134 83.0927Z" stroke="url(#paint5_linear_5_6537)" stroke-miterlimit="10"/>
<path d="M74.3223 70.2823L74.2202 72.5126L69.1167 68.3368L69.1812 66.0413L74.3223 70.2823Z" fill="url(#paint6_linear_5_6537)"/>
<path d="M94.437 67.9627L94.335 70.1931C90.6715 70.9185 87.5419 72.1173 84.8435 73.7621L84.9455 71.5318C87.6439 69.887 90.7735 68.6881 94.437 67.9627Z" fill="url(#paint7_linear_5_6537)"/>
<path d="M80.4184 75.2747L80.3164 77.5051C79.5374 78.5629 79.1217 79.4977 79.0042 80.3473L79.1062 78.1169C79.2237 77.2674 79.6394 76.3325 80.4184 75.2747Z" fill="url(#paint8_linear_5_6537)"/>
<path d="M86.9733 80.6103L86.9089 82.9058L80.3164 77.5051L80.4184 75.2747L86.9733 80.6103Z" fill="url(#paint9_linear_5_6537)"/>
<path d="M107.168 85.8013L107.066 88.0316C107.081 87.1545 106.732 86.4003 105.918 85.7415C105.141 85.1479 104.243 84.7973 103.171 84.8954C102.126 84.8907 100.868 85.2695 99.4146 85.7612L99.5167 83.5308C100.932 82.974 102.228 82.6604 103.273 82.665C104.383 82.6321 105.243 82.9175 106.02 83.5112C106.834 84.17 107.183 84.9242 107.168 85.8013Z" fill="url(#paint10_linear_5_6537)"/>
<path d="M107.168 85.8013L107.066 88.0316C107.081 87.1545 106.732 86.4003 105.918 85.7415C105.141 85.1479 104.243 84.7973 103.171 84.8954C102.126 84.8907 100.868 85.2695 99.4146 85.7612L99.5167 83.5308C100.932 82.974 102.228 82.6604 103.273 82.665C104.383 82.6321 105.243 82.9175 106.02 83.5112C106.834 84.17 107.183 84.9242 107.168 85.8013Z" fill="url(#paint11_linear_5_6537)"/>
<path d="M107.178 85.9692L107.076 88.1996L107.066 88.0317L107.168 85.8013L107.178 85.9692Z" fill="url(#paint12_linear_5_6537)"/>
<path d="M93.7437 86.169L93.6417 88.3994C90.9231 89.7084 88.5202 90.6614 86.3677 91.2961C84.2153 91.9308 82.0051 92.1646 79.6995 91.9323C77.394 91.7 75.2811 90.7484 73.2582 89.05C70.739 86.9432 69.4777 84.4577 69.5019 81.4906C69.5294 81.3879 69.4918 81.3227 69.5193 81.22L69.6213 78.9896C69.5938 79.0924 69.6314 79.1575 69.6039 79.2603C69.5798 82.2274 70.8411 84.7129 73.3603 86.8196C75.3831 88.518 77.5611 89.432 79.8016 89.7019C82.1071 89.9342 84.2522 89.7381 86.4698 89.0658C88.6222 88.4311 91.0251 87.478 93.7437 86.169Z" fill="url(#paint13_linear_5_6537)"/>
<path d="M101.469 92.4791L101.367 94.7094L93.6793 88.4645L93.7437 86.169L101.469 92.4791Z" fill="url(#paint14_linear_5_6537)"/>
<path d="M116.588 84.9664L116.523 87.2619C116.424 90.0987 114.814 93.0262 111.86 96.0343L111.962 93.8039C114.981 90.7582 116.489 87.8032 116.588 84.9664Z" fill="url(#paint15_linear_5_6537)"/>
<path d="M112.528 101.555L112.361 103.823L107.398 99.7394L107.463 97.4439L112.528 101.555Z" fill="url(#paint16_linear_5_6537)"/>
<path d="M117.131 97.9421L117.066 100.238L112.361 103.823L112.528 101.555L117.131 97.9421Z" fill="url(#paint17_linear_5_6537)"/>
<path d="M107.463 97.444L107.398 99.7395C104.97 101.402 102.392 102.803 99.6911 103.842C96.9248 104.918 94.5017 105.535 92.2539 105.704L92.3559 103.473C94.6037 103.305 97.092 102.65 99.7931 101.611C102.522 100.47 105.072 99.1713 107.463 97.444Z" fill="url(#paint18_linear_5_6537)"/>
<path d="M106.52 74.4495C108.826 74.6818 110.939 75.6334 112.924 77.2667C115.443 79.3734 116.667 81.7938 116.643 84.7609C116.581 87.6628 115.008 90.6554 112.027 93.7663L117.168 98.0073L112.566 101.62L107.565 97.4716C105.138 99.1338 102.559 100.536 99.8582 101.574C97.092 102.65 94.6689 103.267 92.4211 103.436L89.3316 96.881C91.3739 96.6573 93.4337 96.163 95.6136 95.4255C97.7936 94.6881 99.758 93.7277 101.572 92.5067L93.8465 86.1966C91.1279 87.5056 88.725 88.4586 86.5725 89.0933C84.4201 89.728 82.2099 89.9618 79.9043 89.7295C77.5987 89.4971 75.4859 88.5455 73.463 86.8471C70.9438 84.7404 69.6825 82.2549 69.7066 79.2878C69.7307 76.3207 71.3035 73.3281 74.4526 70.2071L69.349 66.0313L73.9514 62.4187L78.9521 66.567C83.036 63.8617 87.1152 62.2014 91.1521 61.521L94.5398 67.9904C90.8763 68.7158 87.7467 69.9147 85.0483 71.5594L92.849 77.9998C95.5024 76.7284 97.9053 75.7754 100.02 75.0755C102.07 74.4133 104.28 74.1795 106.52 74.4495ZM86.9733 80.6104L80.4184 75.2748C79.5091 76.4078 79.0659 77.4454 79.1539 78.35C79.1767 79.2923 79.6281 80.074 80.4427 80.7328C81.2198 81.3265 82.117 81.677 83.1896 81.5789C84.2997 81.546 85.53 81.27 86.9733 80.6104ZM107.168 85.8014C107.183 84.9243 106.834 84.1701 106.02 83.5113C105.243 82.9176 104.345 82.567 103.273 82.6651C102.228 82.6604 100.97 83.0393 99.5166 83.5309L105.828 88.7463C106.775 87.6785 107.153 86.6785 107.168 85.8014Z" fill="url(#paint19_linear_5_6537)"/>
<path d="M92.3183 103.408L92.1512 105.676L89.1268 99.0838L89.2289 96.8534L92.3183 103.408Z" fill="url(#paint20_linear_5_6537)"/>
<path d="M106.52 74.4495C108.826 74.6818 110.939 75.6334 112.924 77.2667C115.443 79.3734 116.667 81.7938 116.643 84.7609C116.581 87.6628 115.008 90.6554 112.027 93.7663L117.168 98.0073L112.566 101.62L107.565 97.4716C105.138 99.1338 102.559 100.536 99.8582 101.574C97.092 102.65 94.6689 103.267 92.4211 103.436L89.3316 96.881C91.3739 96.6573 93.4337 96.163 95.6136 95.4255C97.7936 94.6881 99.758 93.7277 101.572 92.5067L93.8465 86.1966C91.1279 87.5056 88.725 88.4586 86.5725 89.0933C84.4201 89.728 82.2099 89.9618 79.9043 89.7295C77.5987 89.4971 75.4859 88.5455 73.463 86.8471C70.9438 84.7404 69.6825 82.2549 69.7066 79.2878C69.7307 76.3207 71.3035 73.3281 74.4526 70.2071L69.349 66.0313L73.9514 62.4187L78.9521 66.567C83.036 63.8617 87.1152 62.2014 91.1521 61.521L94.5398 67.9904C90.8763 68.7158 87.7467 69.9147 85.0483 71.5594L92.849 77.9998C95.5024 76.7284 97.9053 75.7754 100.02 75.0755C102.07 74.4133 104.28 74.1795 106.52 74.4495ZM86.9733 80.6104L80.4184 75.2748C79.5091 76.4078 79.0659 77.4454 79.1539 78.35C79.1767 79.2923 79.6281 80.074 80.4427 80.7328C81.2198 81.3265 82.117 81.677 83.1896 81.5789C84.2997 81.546 85.53 81.27 86.9733 80.6104ZM107.168 85.8014C107.183 84.9243 106.834 84.1701 106.02 83.5113C105.243 82.9176 104.345 82.567 103.273 82.6651C102.228 82.6604 100.97 83.0393 99.5166 83.5309L105.828 88.7463C106.775 87.6785 107.153 86.6785 107.168 85.8014Z" stroke="url(#paint21_linear_5_6537)" stroke-width="0.5" stroke-miterlimit="10"/>
</g>
<defs>
<filter id="filter0_d_5_6537" x="-17" y="-21" width="239.055" height="237.045" filterUnits="userSpaceOnUse" color-interpolation-filters="sRGB">
<feFlood flood-opacity="0" result="BackgroundImageFix"/>
<feColorMatrix in="SourceAlpha" type="matrix" values="0 0 0 0 0 0 0 0 0 0 0 0 0 0 0 0 0 0 127 0" result="hardAlpha"/>
<feOffset dx="10" dy="10"/>
<feGaussianBlur stdDeviation="25"/>
<feComposite in2="hardAlpha" operator="out"/>
<feColorMatrix type="matrix" values="0 0 0 0 0 0 0 0 0 0 0 0 0 0 0 0 0 0 0.75 0"/>
<feBlend mode="normal" in2="BackgroundImageFix" result="effect1_dropShadow_5_6537"/>
<feBlend mode="normal" in="SourceGraphic" in2="effect1_dropShadow_5_6537" result="shape"/>
</filter>
<linearGradient id="paint0_linear_5_6537" x1="160.899" y1="100.539" x2="27.6306" y2="64.83" gradientUnits="userSpaceOnUse">
<stop stop-color="#D7AC4C"/>
<stop offset="0.1816" stop-color="#FFFFB0"/>
<stop offset="0.3268" stop-color="#F4D174"/>
<stop offset="0.3659" stop-color="#FBED99"/>
<stop offset="0.3939" stop-color="#FAEC97"/>
<stop offset="0.433" stop-color="#DEB04D"/>
<stop offset="0.5275" stop-color="#DFB24F"/>
<stop offset="0.5615" stop-color="#E2B756"/>
<stop offset="0.5858" stop-color="#E7C161"/>
<stop offset="0.6053" stop-color="#EECF72"/>
<stop offset="0.6207" stop-color="#F6DF86"/>
<stop offset="0.7529" stop-color="#F2D87E"/>
<stop offset="0.7672" stop-color="#F1D77D"/>
<stop offset="0.7716" stop-color="#EBCD71"/>
<stop offset="0.7804" stop-color="#E2BE60"/>
<stop offset="0.7913" stop-color="#DCB455"/>
<stop offset="0.8066" stop-color="#D8AE4E"/>
<stop offset="0.8492" stop-color="#D7AC4C"/>
<stop offset="1" stop-color="#966424"/>
</linearGradient>
<linearGradient id="paint1_linear_5_6537" x1="136.787" y1="65.6224" x2="50.6363" y2="67.3181" gradientUnits="userSpaceOnUse">
<stop stop-color="#A16C0C"/>
<stop offset="0.2318" stop-color="#DFC072"/>
<stop offset="0.5559" stop-color="#A8700D"/>
<stop offset="0.7458" stop-color="#FADB85"/>
<stop offset="0.802" stop-color="#A16C0C"/>
<stop offset="0.9335" stop-color="#6C4405"/>
</linearGradient>
<linearGradient id="paint2_linear_5_6537" x1="136.251" y1="85.3072" x2="137.863" y2="84.3767" gradientUnits="userSpaceOnUse">
<stop stop-color="#A16C0C"/>
<stop offset="0.1816" stop-color="#C9BF70"/>
<stop offset="0.3268" stop-color="#BE9134"/>
<stop offset="0.433" stop-color="#A8700D"/>
<stop offset="0.7067" stop-color="#C09F46"/>
<stop offset="0.8492" stop-color="#A16C0C"/>
<stop offset="1" stop-color="#602400"/>
</linearGradient>
<linearGradient id="paint3_linear_5_6537" x1="12.5593" y1="97.5238" x2="145.791" y2="112.78" gradientUnits="userSpaceOnUse">
<stop stop-color="#B39200"/>
<stop offset="0.0568408" stop-color="#AD8C01"/>
<stop offset="0.1314" stop-color="#9D7C04"/>
<stop offset="0.2156" stop-color="#836108"/>
<stop offset="0.2585" stop-color="#73500B"/>
<stop offset="0.2799" stop-color="#795311"/>
<stop offset="0.3592" stop-color="#8B5D24"/>
<stop offset="0.4146" stop-color="#91612B"/>
<stop offset="0.4344" stop-color="#976707"/>
<stop offset="0.5299" stop-color="#D8B364"/>
<stop offset="0.5502" stop-color="#D4AE5D"/>
<stop offset="0.5792" stop-color="#CA9F4A"/>
<stop offset="0.6132" stop-color="#B9882C"/>
<stop offset="0.6414" stop-color="#A8700D"/>
<stop offset="0.6805" stop-color="#815400"/>
<stop offset="0.8029" stop-color="#B38136"/>
<stop offset="0.8189" stop-color="#A2712D"/>
<stop offset="0.8549" stop-color="#81511C"/>
<stop offset="0.8849" stop-color="#6C3D11"/>
<stop offset="0.9049" stop-color="#65360D"/>
<stop offset="0.9126" stop-color="#6F3F0D"/>
<stop offset="0.938" stop-color="#8A580C"/>
<stop offset="0.9603" stop-color="#9B670C"/>
<stop offset="0.9772" stop-color="#A16C0C"/>
<stop offset="1" stop-color="#B9924B"/>
</linearGradient>
<linearGradient id="paint4_linear_5_6537" x1="159.767" y1="93.5375" x2="11.1672" y2="68.5879" gradientUnits="userSpaceOnUse">
<stop stop-color="#D7AC4C"/>
<stop offset="0.1816" stop-color="#FFFFB0"/>
<stop offset="0.3268" stop-color="#F4D174"/>
<stop offset="0.3659" stop-color="#FBED99"/>
<stop offset="0.3939" stop-color="#FAEC97"/>
<stop offset="0.433" stop-color="#DEB04D"/>
<stop offset="0.5275" stop-color="#DFB24F"/>
<stop offset="0.5615" stop-color="#E2B756"/>
<stop offset="0.5858" stop-color="#E7C161"/>
<stop offset="0.6053" stop-color="#EECF72"/>
<stop offset="0.6207" stop-color="#F6DF86"/>
<stop offset="0.7529" stop-color="#F2D87E"/>
<stop offset="0.7672" stop-color="#F1D77D"/>
<stop offset="0.7716" stop-color="#EBCD71"/>
<stop offset="0.7804" stop-color="#E2BE60"/>
<stop offset="0.7913" stop-color="#DCB455"/>
<stop offset="0.8066" stop-color="#D8AE4E"/>
<stop offset="0.8492" stop-color="#D7AC4C"/>
<stop offset="1" stop-color="#966424"/>
</linearGradient>
<linearGradient id="paint5_linear_5_6537" x1="49.2646" y1="73.0914" x2="136.35" y2="91.4964" gradientUnits="userSpaceOnUse">
<stop stop-color="#D7AC4C"/>
<stop offset="0.1816" stop-color="#FFFFB0"/>
<stop offset="0.3268" stop-color="#F4D174"/>
<stop offset="0.433" stop-color="#DEB04D"/>
<stop offset="0.7067" stop-color="#F6DF86"/>
<stop offset="0.8492" stop-color="#D7AC4C"/>
<stop offset="1" stop-color="#966424"/>
</linearGradient>
<linearGradient id="paint6_linear_5_6537" x1="66.9627" y1="67.4827" x2="75.1722" y2="70.5601" gradientUnits="userSpaceOnUse">
<stop stop-color="#A16C0C"/>
<stop offset="0.2318" stop-color="#BE9134"/>
<stop offset="0.5559" stop-color="#A8700D"/>
<stop offset="1" stop-color="#432400"/>
</linearGradient>
<linearGradient id="paint7_linear_5_6537" x1="94.6399" y1="69.1889" x2="85.2763" y2="72.152" gradientUnits="userSpaceOnUse">
<stop stop-color="#A16C0C"/>
<stop offset="0.2318" stop-color="#BE9134"/>
<stop offset="0.5559" stop-color="#A8700D"/>
<stop offset="1" stop-color="#432400"/>
</linearGradient>
<linearGradient id="paint8_linear_5_6537" x1="77.3879" y1="81.0797" x2="81.0655" y2="76.025" gradientUnits="userSpaceOnUse">
<stop stop-color="#A16C0C"/>
<stop offset="0.2318" stop-color="#BE9134"/>
<stop offset="0.5559" stop-color="#A8700D"/>
<stop offset="1" stop-color="#432400"/>
</linearGradient>
<linearGradient id="paint9_linear_5_6537" x1="87.2026" y1="79.875" x2="79.8039" y2="78.2023" gradientUnits="userSpaceOnUse">
<stop stop-color="#A16C0C"/>
<stop offset="0.2318" stop-color="#BE9134"/>
<stop offset="0.5559" stop-color="#A8700D"/>
<stop offset="1" stop-color="#432400"/>
</linearGradient>
<linearGradient id="paint10_linear_5_6537" x1="100.411" y1="87.4682" x2="106.545" y2="83.9271" gradientUnits="userSpaceOnUse">
<stop stop-color="#A16C0C"/>
<stop offset="0.2318" stop-color="#BE9134"/>
<stop offset="0.5559" stop-color="#A8700D"/>
<stop offset="1" stop-color="#432400"/>
</linearGradient>
<linearGradient id="paint11_linear_5_6537" x1="112.932" y1="85.4427" x2="98.4199" y2="85.2712" gradientUnits="userSpaceOnUse">
<stop stop-color="#A16C0C"/>
<stop offset="0.2318" stop-color="#BE9134"/>
<stop offset="0.5559" stop-color="#A8700D"/>
<stop offset="1" stop-color="#432400"/>
</linearGradient>
<linearGradient id="paint12_linear_5_6537" x1="106.584" y1="87.3215" x2="107.698" y2="86.6786" gradientUnits="userSpaceOnUse">
<stop stop-color="#A16C0C"/>
<stop offset="0.1816" stop-color="#DBBF7D"/>
<stop offset="0.3268" stop-color="#BE9134"/>
<stop offset="0.433" stop-color="#A8700D"/>
<stop offset="0.7067" stop-color="#D9AA59"/>
<stop offset="0.8492" stop-color="#A16C0C"/>
<stop offset="1" stop-color="#602400"/>
</linearGradient>
<linearGradient id="paint13_linear_5_6537" x1="72.3691" y1="89.0703" x2="89.6631" y2="79.0856" gradientUnits="userSpaceOnUse">
<stop stop-color="#A16C0C"/>
<stop offset="0.2318" stop-color="#BE9134"/>
<stop offset="0.5559" stop-color="#A8700D"/>
<stop offset="1" stop-color="#432400"/>
</linearGradient>
<linearGradient id="paint14_linear_5_6537" x1="105.309" y1="92.1854" x2="90.0042" y2="88.8072" gradientUnits="userSpaceOnUse">
<stop stop-color="#A16C0C"/>
<stop offset="0.2318" stop-color="#BE9134"/>
<stop offset="0.5559" stop-color="#A8700D"/>
<stop offset="1" stop-color="#432400"/>
</linearGradient>
<linearGradient id="paint15_linear_5_6537" x1="121.083" y1="86.2062" x2="109.237" y2="93.6151" gradientUnits="userSpaceOnUse">
<stop stop-color="#A16C0C"/>
<stop offset="0.2318" stop-color="#BE9134"/>
<stop offset="0.5559" stop-color="#A8700D"/>
<stop offset="1" stop-color="#432400"/>
</linearGradient>
<linearGradient id="paint16_linear_5_6537" x1="115.966" y1="101.361" x2="104.16" y2="99.9532" gradientUnits="userSpaceOnUse">
<stop stop-color="#A16C0C"/>
<stop offset="0.2318" stop-color="#BE9134"/>
<stop offset="0.5559" stop-color="#A8700D"/>
<stop offset="1" stop-color="#432400"/>
</linearGradient>
<linearGradient id="paint17_linear_5_6537" x1="113.31" y1="98.7249" x2="115.635" y2="102.187" gradientUnits="userSpaceOnUse">
<stop stop-color="#A16C0C"/>
<stop offset="0.2318" stop-color="#BE9134"/>
<stop offset="0.5559" stop-color="#A8700D"/>
<stop offset="1" stop-color="#432400"/>
</linearGradient>
<linearGradient id="paint18_linear_5_6537" x1="92.3549" y1="105.968" x2="107.392" y2="97.2864" gradientUnits="userSpaceOnUse">
<stop stop-color="#A16C0C"/>
<stop offset="0.2318" stop-color="#BE9134"/>
<stop offset="0.5559" stop-color="#A8700D"/>
<stop offset="1" stop-color="#432400"/>
</linearGradient>
<linearGradient id="paint19_linear_5_6537" x1="117.702" y1="89.9224" x2="49.5521" y2="70.4227" gradientUnits="userSpaceOnUse">
<stop stop-color="#D7AC4C"/>
<stop offset="0.1816" stop-color="#FFFFB0"/>
<stop offset="0.3268" stop-color="#F4D174"/>
<stop offset="0.3659" stop-color="#FBED99"/>
<stop offset="0.3939" stop-color="#FAEC97"/>
<stop offset="0.433" stop-color="#DEB04D"/>
<stop offset="0.5275" stop-color="#DFB24F"/>
<stop offset="0.5615" stop-color="#E2B756"/>
<stop offset="0.5858" stop-color="#E7C161"/>
<stop offset="0.6053" stop-color="#EECF72"/>
<stop offset="0.6207" stop-color="#F6DF86"/>
<stop offset="0.7529" stop-color="#F2D87E"/>
<stop offset="0.7672" stop-color="#F1D77D"/>
<stop offset="0.7716" stop-color="#EBCD71"/>
<stop offset="0.7804" stop-color="#E2BE60"/>
<stop offset="0.7913" stop-color="#DCB455"/>
<stop offset="0.8066" stop-color="#D8AE4E"/>
<stop offset="0.8492" stop-color="#D7AC4C"/>
<stop offset="1" stop-color="#966424"/>
</linearGradient>
<linearGradient id="paint20_linear_5_6537" x1="101.005" y1="107.611" x2="81.7789" y2="95.7486" gradientUnits="userSpaceOnUse">
<stop stop-color="#A16C0C"/>
<stop offset="0.2318" stop-color="#BE9134"/>
<stop offset="0.5559" stop-color="#A8700D"/>
<stop offset="1" stop-color="#432400"/>
</linearGradient>
<linearGradient id="paint21_linear_5_6537" x1="66.5669" y1="77.1656" x2="119.467" y2="88.3457" gradientUnits="userSpaceOnUse">
<stop stop-color="#D7AC4C"/>
<stop offset="0.1816" stop-color="#FFFFB0"/>
<stop offset="0.3268" stop-color="#F4D174"/>
<stop offset="0.433" stop-color="#DEB04D"/>
<stop offset="0.7067" stop-color="#F6DF86"/>
<stop offset="0.8492" stop-color="#D7AC4C"/>
<stop offset="1" stop-color="#966424"/>
</linearGradient>
</defs>
</svg>
