<svg width="89" height="87" viewBox="0 0 89 87" fill="none" xmlns="http://www.w3.org/2000/svg">
<g filter="url(#filter0_f_92_3948)">
<path d="M67.2803 68.4251L67.4778 68.2275L71.6257 63.7485C71.9549 63.4191 72.2183 63.0898 72.5475 62.7605L72.745 62.5628C73.2717 61.97 73.7326 61.3114 74.1935 60.6527C73.6668 61.2455 73.14 61.8383 72.5475 62.4311L20.8633 19.2874L20.7975 19.3533C20.5341 19.6826 20.2708 20.012 20.0074 20.3413L15.0694 26.467C3.81085 42.1437 12.8967 59.9281 26.9206 69.1497C38.5084 77.5149 57.0093 79.2934 67.2803 68.4251Z" fill="url(#paint0_linear_92_3948)"/>
<path d="M47.2651 69.3476C55.2975 70.9285 63.3958 69.6111 69.6506 65.0662C75.7737 60.5871 78.934 53.671 78.9998 46.162C79.0656 38.653 76.037 30.5512 69.9139 23.635C63.8567 16.653 55.7584 12.2398 47.726 10.659C39.6935 9.07816 31.5952 10.3955 25.3405 14.9404C19.1515 19.4853 15.9912 26.4015 15.9254 33.9105C15.8595 41.4195 18.8882 49.5213 25.0113 56.4374C31.1343 63.3536 39.1668 67.7668 47.2651 69.3476Z" fill="url(#paint1_linear_92_3948)"/>
<path d="M28.3033 54C23.1019 48.0719 20.5342 41.1557 20.5342 34.7006C20.6 28.2456 23.2995 22.3833 28.5666 18.4971C33.8997 14.6108 40.747 13.4911 47.6602 14.8743C54.5733 16.2575 61.4865 20.012 66.6878 25.9402C71.8892 31.8683 74.4569 38.7845 74.4569 45.2396C74.3911 51.6947 71.6916 57.5569 66.4245 61.4432C61.0914 65.3294 54.2441 66.4491 47.331 65.0659C40.3519 63.7485 33.5046 59.9282 28.3033 54Z" fill="url(#paint2_linear_92_3948)"/>
<path d="M42.2612 32.5272C42.5246 32.3954 42.788 32.2637 43.0513 32.1978C43.1172 32.1319 43.2488 32.1319 43.3147 32.0661C43.5122 32.0002 43.7097 31.9343 43.9072 31.8685C44.0389 31.8026 44.1048 31.8026 44.2364 31.7367C44.4998 31.6709 44.7632 31.605 45.0265 31.5391C45.224 31.4733 45.4215 31.4733 45.6849 31.4074C45.8166 31.4074 46.0141 31.3415 46.1458 31.3415C46.3433 31.3415 46.475 31.2757 46.6725 31.2757C46.8042 31.2757 47.0017 31.2098 47.1334 31.2098C47.2651 31.2098 47.4626 31.2098 47.5943 31.2098C47.7918 31.2098 47.9235 31.2098 48.121 31.2098C48.3843 31.2098 48.6477 31.2098 48.9111 31.2098L49.767 30.09C49.5036 30.09 49.3061 30.09 49.0427 30.09C48.9769 30.09 48.9769 30.09 48.9111 30.09C48.7135 30.09 48.5819 30.09 48.3843 30.09C48.2527 30.09 48.121 30.09 48.0551 30.09C47.9893 30.09 47.9893 30.09 47.9235 30.09C47.7918 30.09 47.5943 30.09 47.4626 30.1559C47.3309 30.1559 47.1992 30.1559 47.0675 30.2218C47.0017 30.2218 47.0017 30.2218 46.9359 30.2218C46.8042 30.2218 46.6067 30.2876 46.475 30.2876C46.3433 30.2876 46.2116 30.3535 46.0799 30.3535C46.0141 30.3535 45.8824 30.4194 45.8166 30.4194C45.6191 30.4852 45.4215 30.4852 45.224 30.5511C45.1582 30.5511 45.0924 30.617 45.0265 30.617C44.8948 30.617 44.829 30.6828 44.6973 30.7487C44.6315 30.7487 44.5656 30.8146 44.434 30.8146C44.3023 30.8804 44.2364 30.8804 44.1048 30.9463C44.0389 31.0122 43.9072 31.0122 43.8414 31.0781C43.7756 31.0781 43.7756 31.0781 43.7097 31.1439C43.5122 31.2098 43.2488 31.3415 43.0513 31.4074C43.0513 31.4074 43.0513 31.4074 42.9855 31.4074C42.788 31.5391 42.5246 31.605 42.3271 31.7367C42.2612 31.7367 42.1954 31.8026 42.1296 31.8026L41.2736 32.9224C41.6687 32.8565 41.932 32.6589 42.2612 32.5272Z" fill="url(#paint3_linear_92_3948)"/>
<path d="M35.8749 29.8924L35.019 31.0122L31.9245 27.4553L32.7804 26.3356L35.8749 29.8924Z" fill="url(#paint4_linear_92_3948)"/>
<path d="M52.7298 17.7727C52.8615 17.8385 53.059 17.9044 53.1907 17.9703C53.2565 17.9703 53.3224 18.0361 53.3882 18.0361C53.7174 18.1679 53.9808 18.2996 54.31 18.4313C54.4416 18.4972 54.5733 18.5631 54.705 18.629C54.9684 18.7607 55.2317 18.8924 55.4951 19.0242C55.6268 19.09 55.7584 19.1559 55.8901 19.2218C56.2193 19.3535 56.4827 19.5511 56.8119 19.7487C56.8777 19.8146 56.9435 19.8146 57.0094 19.8805C57.4044 20.0781 57.7995 20.3415 58.1945 20.605C58.1945 20.605 58.2603 20.605 58.2603 20.6709C58.6554 20.8685 58.9846 21.1319 59.3138 21.3954C59.3796 21.4613 59.4455 21.4613 59.5113 21.5272C59.7747 21.7248 60.1039 21.9224 60.3672 22.12C60.4989 22.1858 60.5647 22.2517 60.6964 22.3834C60.8939 22.5152 61.0915 22.6469 61.2231 22.8445C61.5523 23.108 61.8815 23.3715 62.2107 23.6349C62.3424 23.7667 62.4741 23.8325 62.5399 23.9643C62.8691 24.2936 63.2642 24.623 63.5934 24.9523C63.6592 25.0182 63.6592 25.0182 63.725 25.084C64.1201 25.4134 64.4493 25.8086 64.8443 26.2038C65.1735 26.5331 65.5027 26.8625 65.7661 27.2577C65.9636 27.4553 66.0953 27.6529 66.2928 27.8505C66.4903 28.0481 66.6878 28.3116 66.8195 28.5092C66.9512 28.7068 67.0829 28.8385 67.2145 29.0361C67.3462 29.2337 67.5437 29.4313 67.6754 29.6948C67.8071 29.8924 67.9388 30.09 68.0705 30.2218C68.2021 30.4194 68.3338 30.617 68.5313 30.8805C68.663 31.0781 68.7947 31.2757 68.8605 31.4074C68.9922 31.605 69.1239 31.8685 69.2556 32.0661C69.3873 32.2637 69.4531 32.4613 69.5848 32.593C69.7165 32.7906 69.8481 33.0541 69.9798 33.3176C70.1115 33.5152 70.1773 33.7128 70.2432 33.8445C70.3748 34.108 70.5065 34.3715 70.6382 34.5691C70.704 34.7667 70.8357 34.8984 70.9016 35.096C71.0332 35.3595 71.1649 35.6888 71.2966 35.9523C71.3624 36.084 71.4283 36.2816 71.4941 36.4134C71.6916 36.8086 71.8233 37.2697 71.955 37.6649C71.955 37.7308 72.0208 37.7308 72.0208 37.7966C72.2184 38.3236 72.35 38.7846 72.4817 39.3116C72.5476 39.5751 72.6134 39.7727 72.6792 40.0361C72.6792 40.1679 72.7451 40.2337 72.7451 40.3655C72.9426 40.6948 73.0084 41.09 73.0743 41.4852C73.1401 41.8805 73.206 42.3415 73.2718 42.7367C73.2718 42.8026 73.2718 42.8026 73.2718 42.8685C73.3376 43.2637 73.3376 43.6589 73.4035 43.9882C73.4035 44.2517 73.4693 44.5152 73.4693 44.7787C73.4693 44.9104 73.4693 45.0421 73.4693 45.1739C73.4693 45.5691 73.4693 45.9643 73.4693 46.3595C73.4035 50.9703 72.0208 55.3176 69.3214 58.8086L70.1773 57.6888C73.0084 54.1978 74.3911 49.8505 74.4569 45.2397C74.4569 44.8445 74.4569 44.4493 74.4569 44.0541C74.4569 43.9224 74.4569 43.7906 74.4569 43.6589C74.4569 43.3954 74.4569 43.1319 74.3911 42.8685C74.3252 42.4733 74.3252 42.1439 74.2594 41.7487C74.2594 41.6828 74.2594 41.6828 74.2594 41.617C74.1936 41.2218 74.1277 40.7607 74.0619 40.3655C73.996 39.9703 73.9302 39.6409 73.7985 39.2457C73.7985 39.114 73.7327 39.0481 73.7327 38.9164C73.6668 38.7188 73.6668 38.5212 73.601 38.3894C73.601 38.3236 73.5352 38.2577 73.5352 38.1918C73.4035 37.6649 73.206 37.2038 73.0743 36.6769C73.0743 36.611 73.0743 36.611 73.0084 36.5451C72.8768 36.1499 72.6792 35.6888 72.5476 35.2936C72.5476 35.2278 72.4817 35.1619 72.4817 35.1619C72.4159 35.0302 72.35 34.9643 72.35 34.8325C72.2184 34.5691 72.0867 34.2397 71.955 33.9763C71.8892 33.9104 71.8892 33.8445 71.8233 33.7128C71.7575 33.6469 71.6916 33.5152 71.6916 33.4493C71.56 33.1858 71.4283 32.9224 71.2966 32.7248C71.2308 32.593 71.1649 32.5272 71.1649 32.3954C71.0991 32.3296 71.0991 32.2637 71.0332 32.1319C70.9016 31.9343 70.7699 31.6709 70.6382 31.4733C70.5724 31.3415 70.5065 31.2098 70.4407 31.1439C70.3748 31.0781 70.3748 31.0122 70.309 30.9463C70.1773 30.7487 70.0457 30.4852 69.914 30.2876C69.8481 30.1559 69.7823 30.0242 69.6506 29.8924C69.5848 29.8266 69.5848 29.7607 69.5189 29.6948C69.3873 29.4972 69.2556 29.2996 69.0581 29.0361C68.9922 28.9044 68.8605 28.7727 68.7947 28.6409C68.7289 28.5751 68.7289 28.5092 68.663 28.5092C68.5313 28.3116 68.3338 28.114 68.2021 27.9164C68.0705 27.7846 68.0046 27.6529 67.8729 27.5212C67.8071 27.3236 67.8071 27.2577 67.7413 27.2577C67.5437 27.0601 67.4121 26.7966 67.2145 26.599C67.0829 26.4673 67.017 26.3355 66.8853 26.2038C66.8195 26.1379 66.7537 26.0721 66.6878 26.0062C66.4245 25.6769 66.0953 25.3475 65.7661 25.0182L65.7002 24.9523C65.371 24.5571 64.976 24.2278 64.581 23.8325C64.5151 23.7667 64.5151 23.7667 64.4493 23.7008C64.1201 23.3715 63.725 23.0421 63.3958 22.7128C63.33 22.7128 63.33 22.6469 63.2642 22.5811C63.1983 22.5152 63.0666 22.4493 63.0008 22.3834C62.6716 22.12 62.3424 21.8565 62.0132 21.593C61.9474 21.5272 61.8815 21.4613 61.8157 21.3954C61.684 21.3296 61.6182 21.2637 61.4865 21.1319C61.3548 21.0661 61.289 21.0002 61.1573 20.8685C60.8939 20.6709 60.5647 20.4733 60.3014 20.2757C60.2355 20.2098 60.1697 20.2098 60.1039 20.1439C60.1039 20.1439 60.1039 20.1439 60.038 20.1439C59.7088 19.8805 59.3796 19.6828 58.9846 19.4852C58.9846 19.4852 58.9187 19.4852 58.9187 19.4194C58.5237 19.1559 58.1945 18.9583 57.7995 18.7607C57.7995 18.7607 57.7995 18.7607 57.7336 18.7607C57.6678 18.6948 57.6019 18.6948 57.5361 18.629C57.2069 18.4313 56.9436 18.2996 56.6144 18.102C56.4827 18.0361 56.351 17.9703 56.2193 17.9044C55.956 17.7727 55.6926 17.6409 55.4292 17.5092C55.2976 17.4433 55.1659 17.3775 55.0342 17.3116C54.705 17.1799 54.4416 17.0481 54.1124 16.9164C54.0466 16.9164 53.9808 16.8505 53.9149 16.8505L53.8491 16.8505C53.7174 16.7846 53.5857 16.7188 53.3882 16.6529C53.1248 16.5212 52.8615 16.4553 52.5981 16.3236C52.4006 16.2577 52.2689 16.1918 52.0714 16.126C51.8081 16.0601 51.5447 15.9284 51.2813 15.8625C51.0838 15.7966 50.8863 15.7307 50.6888 15.6649C50.4254 15.599 50.1621 15.5331 49.9645 15.4673C49.767 15.4014 49.5695 15.3355 49.372 15.3355C49.1086 15.2697 48.9111 15.2038 48.6478 15.1379C48.5819 15.1379 48.5161 15.1379 48.5161 15.0721C48.1869 15.0062 47.8577 14.9403 47.5285 14.8745C47.0676 14.8086 46.5409 14.6769 46.08 14.611C45.9483 14.611 45.7508 14.5451 45.6191 14.5451C45.2899 14.4793 44.9607 14.4793 44.6315 14.4134C44.5657 14.4134 44.4998 14.4134 44.3682 14.4134C44.2365 14.4134 44.1048 14.4134 43.9731 14.4134C43.7756 14.4134 43.5781 14.4134 43.3806 14.3475C43.1831 14.3475 42.9197 14.3475 42.7222 14.3475C42.5247 14.3475 42.3271 14.3475 42.1296 14.3475C42.0638 14.3475 41.9979 14.3475 41.8663 14.3475C41.8004 14.3475 41.7346 14.3475 41.6687 14.3475C41.142 14.3475 40.6153 14.3475 40.0227 14.4134C39.9569 14.4134 39.9569 14.4134 39.8911 14.4134C39.8911 14.4134 39.8911 14.4134 39.8252 14.4134C39.2985 14.4793 38.8376 14.4793 38.3109 14.611C38.2451 14.611 38.2451 14.611 38.1792 14.611C38.0476 14.611 37.9817 14.6769 37.85 14.6769C37.5208 14.7427 37.1916 14.8086 36.9283 14.8745C36.8624 14.8745 36.7308 14.8745 36.6649 14.9403C36.5991 14.9403 36.5332 15.0062 36.4016 15.0062C36.1382 15.0721 35.8748 15.1379 35.6115 15.2038C35.4798 15.2038 35.414 15.2697 35.2823 15.2697C35.2164 15.2697 35.1506 15.3355 35.0848 15.3355C34.8214 15.4014 34.5581 15.4673 34.3605 15.5331C34.2289 15.599 34.0972 15.599 33.9655 15.6649C33.8997 15.6649 33.8997 15.6649 33.8338 15.7307C33.5705 15.7966 33.3729 15.9284 33.1096 15.9942C32.9779 16.0601 32.8462 16.0601 32.7145 16.126C32.7145 16.126 32.6487 16.126 32.6487 16.1918C32.4512 16.2577 32.1878 16.3894 31.9903 16.5212C31.8586 16.587 31.7269 16.6529 31.5953 16.7188L31.5294 16.7188C31.3319 16.8505 31.0685 16.9164 30.871 17.0481C30.7394 17.114 30.6077 17.1799 30.476 17.2457C30.476 17.2457 30.476 17.2457 30.4102 17.2457C30.1468 17.3775 29.8834 17.5751 29.6201 17.7068C29.5542 17.7727 29.4226 17.8385 29.3567 17.9044C29.0275 18.102 28.6983 18.3655 28.3033 18.629C27.9741 18.8924 27.579 19.1559 27.2498 19.4194C27.0523 19.617 26.8548 19.7487 26.6573 19.9463C26.5256 20.0781 26.3939 20.2098 26.1964 20.3415C25.8672 20.605 25.6039 20.9343 25.3405 21.2637L25.2747 21.3296C25.2747 21.3296 25.2747 21.3295 25.2088 21.3954C24.9455 21.7248 24.6821 22.0541 24.4187 22.3834L23.5628 23.5032C23.8262 23.1739 24.0895 22.8445 24.4187 22.5152L24.4846 22.4493C24.7479 22.12 25.0771 21.8565 25.3405 21.5272C25.4722 21.3954 25.6038 21.2637 25.8014 21.1319C25.9989 20.9343 26.1964 20.8026 26.3939 20.605C26.7231 20.3415 27.1182 20.0122 27.4474 19.7487C27.7766 19.4852 28.1058 19.2876 28.5008 19.0242C28.6325 18.9583 28.6983 18.8924 28.83 18.8266C29.0934 18.6948 29.3567 18.4972 29.6201 18.3655C29.7518 18.2996 29.8834 18.2337 30.0809 18.1679C30.2785 18.0361 30.5418 17.9044 30.7393 17.8385C30.871 17.7727 31.0685 17.7068 31.2002 17.6409C31.3977 17.5092 31.6611 17.4433 31.8586 17.3116C31.9903 17.2457 32.1878 17.1798 32.3195 17.114C32.5829 17.0481 32.7804 16.9164 33.0437 16.8505C33.1754 16.7846 33.3729 16.7188 33.5046 16.7188C33.768 16.6529 33.9655 16.587 34.2289 16.5212C34.4264 16.4553 34.5581 16.4553 34.7556 16.3894C35.0189 16.3236 35.2823 16.2577 35.5456 16.1918C35.7432 16.126 35.8748 16.126 36.0724 16.0601C36.4016 15.9942 36.7308 15.9284 36.9941 15.8625C37.1258 15.8625 37.3233 15.7966 37.455 15.7966C37.9817 15.7307 38.4426 15.6649 38.9693 15.599C39.0352 15.599 39.101 15.599 39.1668 15.599C39.6935 15.5331 40.2203 15.5331 40.8128 15.5331C40.9445 15.5331 41.142 15.5331 41.2737 15.5331C41.4712 15.5331 41.6687 15.5331 41.8663 15.5331C42.0638 15.5331 42.3271 15.5331 42.5247 15.5331C42.7222 15.5331 42.9197 15.5331 43.1172 15.599C43.3147 15.599 43.5123 15.599 43.7098 15.6649C44.039 15.6649 44.3682 15.7307 44.6974 15.7966C44.829 15.7966 45.0266 15.8625 45.1582 15.8625C45.6191 15.9284 46.1458 15.9942 46.6067 16.126C47.0018 16.1918 47.331 16.2577 47.726 16.3894C47.9894 16.4553 48.1869 16.5212 48.4502 16.587C48.6477 16.6529 48.8453 16.7188 49.0428 16.7188C49.3061 16.7846 49.5695 16.8505 49.767 16.9164C49.9645 16.9822 50.1621 17.0481 50.3596 17.114C50.6229 17.1799 50.8863 17.3116 51.1497 17.3775C51.3472 17.4433 51.4789 17.5092 51.6764 17.5751C52.1373 17.5751 52.4006 17.7068 52.7298 17.7727Z" fill="url(#paint5_linear_92_3948)"/>
<path d="M39.5619 34.0419L38.706 35.1617L38.6401 35.2275L39.4961 34.1078L39.5619 34.0419Z" fill="#784E4A"/>
<path d="M50.8205 42.7364C51.018 42.6706 51.1497 42.6706 51.3472 42.6706C51.413 42.6706 51.413 42.6706 51.4789 42.6706C51.6106 42.6706 51.7422 42.6706 51.9398 42.6706L52.0056 42.6706C52.2031 42.6706 52.3348 42.6706 52.4665 42.6706C52.5982 42.6706 52.7298 42.7364 52.8615 42.7364C52.9274 42.7364 52.9932 42.8023 53.059 42.8023C53.1249 42.8682 53.2566 42.8682 53.3224 42.934C53.3224 42.934 53.3882 42.934 53.3882 42.9999C53.5199 43.0658 53.6516 43.1316 53.7833 43.2634C53.915 43.3951 54.0466 43.461 54.1125 43.5927C54.2442 43.7245 54.31 43.8562 54.4417 43.9879C54.5075 44.1197 54.5734 44.2514 54.6392 44.3831C54.705 44.5149 54.7709 44.6466 54.7709 44.8442C54.7709 44.8442 54.7709 44.8442 54.7709 44.9101C54.7709 45.0418 54.8367 45.2394 54.8367 45.3712C54.8367 46.0299 54.5734 46.6885 54.0466 47.4131L54.9026 46.2933C55.4293 45.5688 55.6926 44.9101 55.6926 44.2514C55.6926 44.1855 55.6926 44.1197 55.6926 44.1197C55.6926 44.0538 55.6926 43.9221 55.6268 43.8562C55.6268 43.8562 55.6268 43.8562 55.6268 43.7903C55.6268 43.7903 55.6268 43.7903 55.6268 43.7245C55.6268 43.6586 55.6268 43.6586 55.6268 43.5927C55.6268 43.5269 55.6268 43.461 55.5609 43.461L55.4951 43.3293L55.4293 43.1975L55.3634 43.0658L55.2976 42.934L55.2318 42.8682C55.2318 42.8023 55.1659 42.8023 55.1659 42.7364C55.1659 42.6706 55.1001 42.6706 55.1001 42.6047C55.0342 42.5388 55.0342 42.5388 54.9684 42.473L54.9026 42.4071C54.8367 42.3412 54.8367 42.3412 54.7709 42.2754C54.705 42.2095 54.705 42.2095 54.6392 42.2095L54.5734 42.1436C54.5734 42.1436 54.5734 42.1436 54.5075 42.1436C54.4417 42.0778 54.4417 42.0778 54.3758 42.0778C54.31 42.0119 54.2442 42.0119 54.2442 41.946C54.2442 41.946 54.2442 41.946 54.1783 41.946C54.1783 41.946 54.1125 41.946 54.1125 41.8802C54.0466 41.8802 53.9808 41.8143 53.915 41.8143C53.8491 41.8143 53.8491 41.8143 53.7833 41.7484C53.7174 41.7484 53.6516 41.6825 53.5858 41.6825C53.5199 41.6825 53.5199 41.6825 53.4541 41.6825C53.3882 41.6825 53.2566 41.6167 53.1907 41.6167L53.059 41.6167C52.9274 41.6167 52.7957 41.6167 52.7298 41.6167C52.7298 41.6167 52.7298 41.6167 52.664 41.6167L52.5982 41.6167C52.5323 41.6167 52.4665 41.6167 52.3348 41.6167C52.269 41.6167 52.2031 41.6167 52.1373 41.6167C52.0714 41.6167 52.0714 41.6167 52.0056 41.6167L51.9398 41.6167C51.8081 41.6167 51.6764 41.6825 51.5447 41.6825C51.4789 41.6825 51.4789 41.6825 51.413 41.6825C51.2814 41.6825 51.2155 41.7484 51.0838 41.7484C51.018 41.7484 50.9522 41.8143 50.8863 41.8143L50.0304 42.934C50.2279 42.8682 50.4255 42.8023 50.5571 42.8023C50.6888 42.7364 50.7547 42.7364 50.8205 42.7364Z" fill="url(#paint6_linear_92_3948)"/>
<path d="M43.3806 38.3895L42.5247 39.5093L38.706 35.162L39.5619 34.0422L43.3806 38.3895Z" fill="url(#paint7_linear_92_3948)"/>
<path d="M59.8405 49.1917L58.9845 50.3115C58.8529 50.5091 58.6553 50.7067 58.5237 50.9043L59.3796 49.7845C59.5113 49.5869 59.7088 49.3893 59.8405 49.1917Z" fill="#784E4A"/>
<path d="M59.3795 49.7846L58.5236 50.9044C58.3261 51.1678 58.0627 51.3654 57.8652 51.6289L58.7211 50.5091C58.9186 50.2457 59.1162 49.9822 59.3795 49.7846Z" fill="#7C514D"/>
<path d="M52.2031 48.4012L51.3472 49.521L46.6068 44.1857L47.4627 43.0659L52.2031 48.4012Z" fill="url(#paint8_linear_92_3948)"/>
<path d="M58.9187 56.0419L58.0628 57.1616L55.0342 53.7365L55.8901 52.6167L58.9187 56.0419Z" fill="url(#paint9_linear_92_3948)"/>
<path d="M61.7499 53.9999L60.894 55.1197L58.0629 57.1616L58.9188 56.0419L61.7499 53.9999Z" fill="#8A5A55"/>
<path d="M36.2699 44.2519C36.3357 44.3177 36.4016 44.3177 36.4674 44.3836C36.5333 44.4495 36.6649 44.5153 36.7308 44.5812C36.7308 44.5812 36.7308 44.5812 36.7966 44.5812C36.9941 44.7129 37.2575 44.8447 37.455 44.9106C37.455 44.9106 37.5209 44.9106 37.5209 44.9764L37.5867 44.9764C37.7842 45.0423 37.9817 45.1082 38.1792 45.174C38.3768 45.2399 38.5743 45.3058 38.7718 45.3058C38.9035 45.3058 39.0352 45.3716 39.101 45.3716C39.1668 45.3716 39.2327 45.3716 39.2985 45.3716C39.5619 45.4375 39.7594 45.4375 40.0228 45.4375C40.0886 45.4375 40.0886 45.4375 40.1544 45.4375C40.2203 45.4375 40.352 45.4375 40.4178 45.4375C40.5495 45.4375 40.6812 45.4375 40.747 45.4375C40.8787 45.4375 41.0104 45.4375 41.142 45.4375C41.2079 45.4375 41.2737 45.4375 41.2737 45.4375L41.3396 45.4375C41.5371 45.4375 41.7346 45.3716 41.8663 45.3716C41.9321 45.3716 42.0638 45.3716 42.1296 45.3058C42.2613 45.3058 42.4588 45.2399 42.5905 45.2399C42.788 45.174 42.9197 45.174 43.1172 45.1082C43.1172 45.1082 43.1172 45.1082 43.1831 45.1082C43.3806 45.0423 43.5781 44.9764 43.7756 44.9764C43.9073 44.9764 43.9731 44.9106 44.1048 44.9106C44.1707 44.9106 44.2365 44.8447 44.3023 44.8447C44.6315 44.7788 44.8949 44.6471 45.2241 44.5812L45.2899 44.5812C45.3558 44.5812 45.3558 44.5812 45.4216 44.5153C45.7508 44.3836 46.1459 44.2519 46.5409 44.1201L47.4626 43.0662C47.0676 43.198 46.7384 43.3297 46.3434 43.4615C46.2775 43.4615 46.2775 43.4615 46.2117 43.5273C45.8825 43.6591 45.5533 43.7249 45.2241 43.8567C45.1583 43.8567 45.0924 43.9225 45.0266 43.9225C44.6974 43.9884 44.434 44.1201 44.1048 44.186C44.1048 44.186 44.1048 44.186 44.039 44.186C43.7098 44.2519 43.3806 44.3177 43.0514 44.3836C42.7222 44.4495 42.4588 44.4495 42.1296 44.5153C42.0638 44.5153 41.998 44.5153 41.998 44.5153C41.7346 44.5153 41.5371 44.5153 41.2737 44.5153C41.2079 44.5153 41.0762 44.5153 41.0104 44.5153C40.747 44.5153 40.4178 44.4495 40.1544 44.3836C40.0886 44.3836 40.0228 44.3836 40.0228 44.3836C39.6936 44.3177 39.4302 44.2519 39.101 44.186C38.9035 44.1201 38.706 44.0543 38.5084 43.9884C38.4426 43.9884 38.3768 43.9225 38.3768 43.9225C38.1792 43.8567 37.9159 43.7249 37.7184 43.5932L37.6525 43.5932C37.5209 43.5273 37.455 43.4615 37.3233 43.3956C37.2575 43.3297 37.1917 43.3297 37.1258 43.2638C37.06 43.2638 37.06 43.198 36.9941 43.198C36.8625 43.1321 36.7308 43.0004 36.6649 42.9345C36.5991 42.8686 36.5991 42.8686 36.5333 42.8028C36.4016 42.7369 36.3357 42.6052 36.2041 42.5393C36.1382 42.4734 36.0724 42.4734 36.0724 42.4076C36.0065 42.3417 35.8749 42.21 35.809 42.1441C35.7432 42.0782 35.6773 42.0124 35.6773 42.0124C35.5457 41.8806 35.414 41.7489 35.2823 41.5513C35.0848 41.3537 34.9531 41.1561 34.8214 40.9585L34.7556 40.8926C34.6239 40.695 34.4922 40.4974 34.3605 40.2998L34.2947 40.2339C34.163 40.0363 34.0313 39.8387 33.9655 39.6411C33.9655 39.6411 33.9655 39.5752 33.8997 39.5752C33.768 39.3776 33.7021 39.18 33.6363 38.9824C33.6363 38.9165 33.6363 38.9165 33.5705 38.8507C33.5046 38.6531 33.4388 38.4555 33.3729 38.2579L33.3729 38.192C33.3071 37.9944 33.2413 37.7309 33.2413 37.5333C33.2413 37.4016 33.1754 37.2698 33.1754 37.1381C33.1754 37.0064 33.1096 36.8746 33.1096 36.7429C33.1096 36.4794 33.0438 36.2159 33.1096 35.8866C33.1096 35.0962 33.3071 34.3058 33.5705 33.5153C33.8997 32.7249 34.2947 32.0004 34.8873 31.21L34.0313 32.3297C32.8462 33.8447 32.2537 35.3597 32.2537 36.9405C32.2537 37.204 32.2537 37.4674 32.2537 37.7968L32.2537 37.8626C32.2537 37.9944 32.2537 38.0603 32.3195 38.192C32.3195 38.3237 32.3195 38.4555 32.3854 38.5872L32.3854 38.6531C32.4512 38.8507 32.4512 39.0483 32.517 39.18L32.517 39.2459C32.5829 39.3776 32.5829 39.5094 32.6487 39.6411C32.6487 39.707 32.7146 39.7728 32.7146 39.8387C32.7146 39.9046 32.7146 39.9046 32.7804 39.9704L32.7804 40.0363C32.8462 40.168 32.9121 40.2998 32.9779 40.4315C32.9779 40.4974 33.0438 40.4974 33.0438 40.5632C33.0438 40.5632 33.0438 40.6291 33.1096 40.6291C33.1096 40.695 33.1754 40.695 33.1754 40.7609C33.2413 40.8926 33.3071 41.0243 33.3729 41.0902C33.3729 41.1561 33.4388 41.1561 33.4388 41.2219L33.5046 41.2878C33.5046 41.3537 33.5705 41.3537 33.5705 41.4195C33.6363 41.5513 33.7022 41.683 33.8338 41.7489L33.8997 41.8147L33.9655 41.8806C34.0313 41.9465 34.0314 42.0124 34.0972 42.0782C34.163 42.21 34.2947 42.3417 34.4264 42.4734L34.4922 42.5393C34.6239 42.671 34.6897 42.8028 34.8214 42.8686L34.8873 42.9345C34.8214 43.0662 34.8873 43.0662 34.8873 43.1321C34.9531 43.198 35.0189 43.2638 35.0189 43.2638C35.0848 43.3297 35.0848 43.3297 35.1506 43.3956C35.2165 43.4615 35.2823 43.4615 35.2823 43.5273L35.3481 43.5932C35.414 43.6591 35.4798 43.7249 35.5457 43.7908C35.6115 43.8567 35.6115 43.8567 35.6773 43.9225C35.6773 43.9225 35.6773 43.9225 35.7432 43.9884C35.8749 44.0543 35.9407 44.1201 36.0724 44.2519C36.2041 44.2519 36.2041 44.2519 36.2699 44.2519Z" fill="url(#paint10_linear_92_3948)"/>
<path d="M39.1009 44.1198C37.7183 43.7246 36.4015 42.8024 35.2164 41.4192C33.7021 39.7066 32.9778 37.7964 32.9778 35.7545C33.0437 33.7126 33.9654 31.7366 35.8748 29.8922L32.7803 26.3354L35.6114 24.2934L38.6401 27.7186C40.0885 26.7964 41.6687 26.0719 43.3805 25.6108C45.0265 25.1497 46.5408 24.9521 47.9235 25.0839L49.767 30.0899C48.516 30.024 47.2651 30.1557 45.9483 30.4192C44.6315 30.7485 43.4464 31.2096 42.3271 31.8024L47.0017 37.0719C48.6477 36.4791 50.162 36.018 51.4788 35.8204C52.7956 35.5569 54.1124 35.6887 55.495 36.0839C56.8777 36.4791 58.1944 37.4012 59.4454 38.7845C60.9597 40.5629 61.7498 42.4731 61.684 44.515C61.6181 46.6228 60.6964 48.533 58.787 50.4431L61.8815 53.9342L59.0504 55.9761L56.0217 52.5509C53.5198 54.0659 51.0179 54.7904 48.5819 54.7904L46.5408 49.8503C48.7794 49.7186 50.6887 49.1916 52.3347 48.3354L47.5943 42.9342C45.9483 43.5928 44.4998 43.988 43.2488 44.2515C41.8004 44.5809 40.4836 44.515 39.1009 44.1198ZM51.0179 41.8144L54.9683 46.2934C55.495 45.5689 55.7584 44.9102 55.7584 44.2515C55.7584 43.5928 55.495 43 55.0341 42.4731C54.5733 41.9461 53.9807 41.6168 53.3223 41.5509C52.6639 41.4192 51.8738 41.5509 51.0179 41.8144ZM38.7717 36.018C38.7717 36.6767 38.9693 37.2036 39.4301 37.7306C39.891 38.2575 40.4177 38.5869 41.0761 38.6527C41.7345 38.7186 42.4588 38.6527 43.3805 38.4551L39.5618 34.1078C39.0351 34.7006 38.7717 35.3593 38.7717 36.018Z" fill="url(#paint11_linear_92_3948)"/>
<path d="M39.1009 44.1198C37.7183 43.7246 36.4015 42.8024 35.2164 41.4192C33.7021 39.7066 32.9778 37.7964 32.9778 35.7545C33.0437 33.7126 33.9654 31.7366 35.8748 29.8922L32.7803 26.3354L35.6114 24.2934L38.6401 27.7186C40.0885 26.7964 41.6687 26.0719 43.3805 25.6108C45.0265 25.1497 46.5408 24.9521 47.9235 25.0839L49.767 30.0899C48.516 30.024 47.2651 30.1557 45.9483 30.4192C44.6315 30.7485 43.4464 31.2096 42.3271 31.8024L47.0017 37.0719C48.6477 36.4791 50.162 36.018 51.4788 35.8204C52.7956 35.5569 54.1124 35.6887 55.495 36.0839C56.8777 36.4791 58.1944 37.4012 59.4454 38.7845C60.9597 40.5629 61.7498 42.4731 61.684 44.515C61.6181 46.6228 60.6964 48.533 58.787 50.4431L61.8815 53.9342L59.0504 55.9761L56.0217 52.5509C53.5198 54.0659 51.0179 54.7904 48.5819 54.7904L46.5408 49.8503C48.7794 49.7186 50.6887 49.1916 52.3347 48.3354L47.5943 42.9342C45.9483 43.5928 44.4998 43.988 43.2488 44.2515C41.8004 44.5809 40.4836 44.515 39.1009 44.1198ZM51.0179 41.8144L54.9683 46.2934C55.495 45.5689 55.7584 44.9102 55.7584 44.2515C55.7584 43.5928 55.495 43 55.0341 42.4731C54.5733 41.9461 53.9807 41.6168 53.3223 41.5509C52.6639 41.4192 51.8738 41.5509 51.0179 41.8144ZM38.7717 36.018C38.7717 36.6767 38.9693 37.2036 39.4301 37.7306C39.891 38.2575 40.4177 38.5869 41.0761 38.6527C41.7345 38.7186 42.4588 38.6527 43.3805 38.4551L39.5618 34.1078C39.0351 34.7006 38.7717 35.3593 38.7717 36.018Z" stroke="url(#paint12_linear_92_3948)" stroke-width="0.5" stroke-miterlimit="10"/>
<path d="M48.4502 54.8563L46.475 49.9162L45.5533 51.1018L47.5943 55.9761L48.4502 54.8563Z" fill="url(#paint13_linear_92_3948)"/>
<path d="M54.2441 53.4731C54.1125 53.539 53.9149 53.6049 53.7833 53.6707C53.6516 53.7366 53.4541 53.8025 53.3224 53.8683C53.1907 53.9342 53.059 54.0001 52.9273 54.0001C52.7298 54.0659 52.5981 54.1318 52.4006 54.1977C52.269 54.2635 52.1373 54.2635 52.0056 54.3294C51.8081 54.3953 51.6764 54.3953 51.4789 54.4612C51.3472 54.4612 51.2155 54.527 51.1497 54.527C50.9522 54.5929 50.7546 54.5929 50.623 54.6588C50.4913 54.6588 50.4254 54.7246 50.2938 54.7246C50.0962 54.7246 49.8987 54.7905 49.767 54.7905C49.6354 54.7905 49.5695 54.7905 49.4378 54.8564C49.1745 54.8564 48.8453 54.9222 48.5819 54.9222L47.726 56.042C47.9894 56.042 48.2527 56.042 48.5161 55.9761L48.5819 55.9761C48.7136 55.9761 48.7794 55.9761 48.9111 55.9103C49.0428 55.9103 49.2403 55.9103 49.372 55.8444L49.4378 55.8444C49.5695 55.8444 49.6354 55.7785 49.767 55.7785C49.8987 55.7785 50.0304 55.7127 50.1621 55.7127C50.2279 55.7127 50.2279 55.7127 50.2938 55.6468C50.4254 55.6468 50.5571 55.5809 50.623 55.5809C50.7546 55.5809 50.8205 55.515 50.9522 55.515C51.018 55.515 51.0838 55.4492 51.1497 55.4492C51.2814 55.3833 51.413 55.3833 51.5447 55.3174C51.6106 55.3174 51.7422 55.2516 51.8081 55.2516C51.8739 55.2516 52.0056 55.1857 52.0714 55.1857C52.2031 55.1198 52.3348 55.054 52.4665 55.054C52.5323 55.054 52.5982 54.9881 52.664 54.9881C52.7298 54.9222 52.8615 54.9222 52.9273 54.8564C53.059 54.7905 53.2565 54.7246 53.3882 54.6588C53.4541 54.6588 53.5199 54.5929 53.5857 54.5929C53.6516 54.527 53.7833 54.527 53.8491 54.4612C54.0466 54.3953 54.1783 54.2635 54.3758 54.1977C54.4417 54.1318 54.5075 54.1318 54.5733 54.0659C54.705 54.0001 54.9025 53.8683 55.0342 53.8025L55.8901 52.6827C55.6268 52.8144 55.4293 52.9462 55.1659 53.0779C54.9684 53.1438 54.8367 53.2755 54.6392 53.3414C54.5075 53.3414 54.3758 53.4073 54.2441 53.4731Z" fill="url(#paint14_linear_92_3948)"/>
<path d="M28.3033 54C23.1019 48.0719 20.5342 41.1557 20.5342 34.7006C20.6 28.2456 23.2995 22.3833 28.5666 18.4971C33.8997 14.6108 40.747 13.4911 47.6602 14.8743C54.5733 16.2575 61.4865 20.012 66.6878 25.9402C71.8892 31.8683 74.4569 38.7845 74.4569 45.2396C74.3911 51.6947 71.6916 57.5569 66.4245 61.4432C61.0915 65.3294 54.2441 66.4491 47.331 65.0659C40.3519 63.7485 33.5046 59.9282 28.3033 54Z" stroke="url(#paint15_linear_92_3948)" stroke-width="0.5" stroke-miterlimit="10"/>
</g>
<defs>
<filter id="filter0_f_92_3948" x="-0.00012207" y="0" width="89.001" height="86.0054" filterUnits="userSpaceOnUse" color-interpolation-filters="sRGB">
<feFlood flood-opacity="0" result="BackgroundImageFix"/>
<feBlend mode="normal" in="SourceGraphic" in2="BackgroundImageFix" result="shape"/>
<feGaussianBlur stdDeviation="5" result="effect1_foregroundBlur_92_3948"/>
</filter>
<linearGradient id="paint0_linear_92_3948" x1="63.0296" y1="74.3839" x2="9.38785" y2="33.1525" gradientUnits="userSpaceOnUse">
<stop offset="0.1136" stop-color="#D7AC4C"/>
<stop offset="0.1816" stop-color="#FFFFB0"/>
<stop offset="0.3268" stop-color="#F4D174"/>
<stop offset="0.3659" stop-color="#FBED99"/>
<stop offset="0.3939" stop-color="#FAEC97"/>
<stop offset="0.433" stop-color="#DEB04D"/>
<stop offset="0.5275" stop-color="#DFB24F"/>
<stop offset="0.5615" stop-color="#E2B756"/>
<stop offset="0.5858" stop-color="#E7C161"/>
<stop offset="0.6053" stop-color="#EECF72"/>
<stop offset="0.6207" stop-color="#F6DF86"/>
<stop offset="0.7529" stop-color="#F2D87E"/>
<stop offset="0.7672" stop-color="#F1D77D"/>
<stop offset="0.7716" stop-color="#EBCD71"/>
<stop offset="0.7804" stop-color="#E2BE60"/>
<stop offset="0.7913" stop-color="#DCB455"/>
<stop offset="0.8066" stop-color="#D8AE4E"/>
<stop offset="0.8492" stop-color="#D7AC4C"/>
<stop offset="1" stop-color="#966424"/>
</linearGradient>
<linearGradient id="paint1_linear_92_3948" x1="35.3762" y1="13.8371" x2="68.7824" y2="85.9294" gradientUnits="userSpaceOnUse">
<stop stop-color="#D2AB5A"/>
<stop offset="0.0610851" stop-color="#BA9443"/>
<stop offset="0.1898" stop-color="#7C5808"/>
<stop offset="0.2069" stop-color="#735000"/>
<stop offset="0.2274" stop-color="#775200"/>
<stop offset="0.3376" stop-color="#8A5D00"/>
<stop offset="0.4146" stop-color="#916100"/>
<stop offset="0.4344" stop-color="#976707"/>
<stop offset="0.4986" stop-color="#D8B364"/>
<stop offset="0.5246" stop-color="#D4AE5D"/>
<stop offset="0.5617" stop-color="#CA9F4A"/>
<stop offset="0.6053" stop-color="#B9882C"/>
<stop offset="0.6414" stop-color="#A8700D"/>
<stop offset="0.6805" stop-color="#815400"/>
<stop offset="0.8029" stop-color="#B38116"/>
<stop offset="0.8267" stop-color="#A27114"/>
<stop offset="0.8802" stop-color="#815110"/>
<stop offset="0.9247" stop-color="#6C3D0E"/>
<stop offset="0.9545" stop-color="#65360D"/>
<stop offset="0.9581" stop-color="#6F3F0D"/>
<stop offset="0.9701" stop-color="#8A580C"/>
<stop offset="0.9807" stop-color="#9B670C"/>
<stop offset="0.9886" stop-color="#A16C0C"/>
</linearGradient>
<linearGradient id="paint2_linear_92_3948" x1="28.2875" y1="-6.04381" x2="66.233" y2="84.8713" gradientUnits="userSpaceOnUse">
<stop stop-color="#D2AB5A"/>
<stop offset="0.0610851" stop-color="#BA9443"/>
<stop offset="0.1898" stop-color="#7C5808"/>
<stop offset="0.2069" stop-color="#735000"/>
<stop offset="0.2274" stop-color="#775200"/>
<stop offset="0.3376" stop-color="#8A5D00"/>
<stop offset="0.4146" stop-color="#916100"/>
<stop offset="0.4344" stop-color="#976707"/>
<stop offset="0.4986" stop-color="#D8B364"/>
<stop offset="0.5246" stop-color="#D4AE5D"/>
<stop offset="0.5617" stop-color="#CA9F4A"/>
<stop offset="0.6053" stop-color="#B9882C"/>
<stop offset="0.6414" stop-color="#A8700D"/>
<stop offset="0.6805" stop-color="#815400"/>
<stop offset="0.8029" stop-color="#B38116"/>
<stop offset="0.8267" stop-color="#A27114"/>
<stop offset="0.8802" stop-color="#815110"/>
<stop offset="0.9247" stop-color="#6C3D0E"/>
<stop offset="0.9545" stop-color="#65360D"/>
<stop offset="0.9581" stop-color="#6F3F0D"/>
<stop offset="0.9701" stop-color="#8A580C"/>
<stop offset="0.9807" stop-color="#9B670C"/>
<stop offset="0.9886" stop-color="#A16C0C"/>
</linearGradient>
<linearGradient id="paint3_linear_92_3948" x1="20.2212" y1="15.1138" x2="40.8015" y2="28.4441" gradientUnits="userSpaceOnUse">
<stop stop-color="#A16C0C"/>
<stop offset="0.2318" stop-color="#BE9134"/>
<stop offset="0.5559" stop-color="#A8700D"/>
<stop offset="1" stop-color="#432400"/>
</linearGradient>
<linearGradient id="paint4_linear_92_3948" x1="24.101" y1="19.3791" x2="33.981" y2="28.7611" gradientUnits="userSpaceOnUse">
<stop stop-color="#A16C0C"/>
<stop offset="0.2318" stop-color="#BE9134"/>
<stop offset="0.5559" stop-color="#A8700D"/>
<stop offset="1" stop-color="#432400"/>
</linearGradient>
<linearGradient id="paint5_linear_92_3948" x1="-5.36431" y1="8.22868" x2="71.0614" y2="41.9205" gradientUnits="userSpaceOnUse">
<stop stop-color="#A16C0C"/>
<stop offset="0.2318" stop-color="#BE9134"/>
<stop offset="0.5559" stop-color="#A8700D"/>
<stop offset="1" stop-color="#432400"/>
</linearGradient>
<linearGradient id="paint6_linear_92_3948" x1="29.8902" y1="35.147" x2="55.3237" y2="45.0199" gradientUnits="userSpaceOnUse">
<stop stop-color="#A16C0C"/>
<stop offset="0.2318" stop-color="#BE9134"/>
<stop offset="0.5559" stop-color="#A8700D"/>
<stop offset="1" stop-color="#432400"/>
</linearGradient>
<linearGradient id="paint7_linear_92_3948" x1="30.1824" y1="27.6592" x2="40.5558" y2="36.3822" gradientUnits="userSpaceOnUse">
<stop stop-color="#A16C0C"/>
<stop offset="0.2318" stop-color="#BE9134"/>
<stop offset="0.4314" stop-color="#A8700D"/>
<stop offset="1" stop-color="#432400"/>
</linearGradient>
<linearGradient id="paint8_linear_92_3948" x1="41.9702" y1="38.6012" x2="52.3579" y2="49.336" gradientUnits="userSpaceOnUse">
<stop stop-color="#A16C0C"/>
<stop offset="0.2318" stop-color="#BE9134"/>
<stop offset="0.5559" stop-color="#A8700D"/>
<stop offset="1" stop-color="#432400"/>
</linearGradient>
<linearGradient id="paint9_linear_92_3948" x1="31.2538" y1="45.6177" x2="55.9461" y2="54.5031" gradientUnits="userSpaceOnUse">
<stop stop-color="#A16C0C"/>
<stop offset="0.2318" stop-color="#BE9134"/>
<stop offset="0.5559" stop-color="#A8700D"/>
<stop offset="1" stop-color="#432400"/>
</linearGradient>
<linearGradient id="paint10_linear_92_3948" x1="22.0831" y1="29.1117" x2="39.3703" y2="40.1379" gradientUnits="userSpaceOnUse">
<stop stop-color="#A16C0C"/>
<stop offset="0.2318" stop-color="#BE9134"/>
<stop offset="0.5559" stop-color="#A8700D"/>
<stop offset="1" stop-color="#432400"/>
</linearGradient>
<linearGradient id="paint11_linear_92_3948" x1="71.6667" y1="84.5097" x2="30.6427" y2="9.91809" gradientUnits="userSpaceOnUse">
<stop stop-color="#D2AB5A"/>
<stop offset="0.0610851" stop-color="#BA9443"/>
<stop offset="0.1898" stop-color="#7C5808"/>
<stop offset="0.2069" stop-color="#735000"/>
<stop offset="0.2274" stop-color="#775200"/>
<stop offset="0.3376" stop-color="#8A5D00"/>
<stop offset="0.4146" stop-color="#916100"/>
<stop offset="0.4344" stop-color="#976707"/>
<stop offset="0.4986" stop-color="#D8B364"/>
<stop offset="0.5246" stop-color="#D4AE5D"/>
<stop offset="0.5617" stop-color="#CA9F4A"/>
<stop offset="0.6053" stop-color="#B9882C"/>
<stop offset="0.6414" stop-color="#A8700D"/>
<stop offset="0.6805" stop-color="#815400"/>
<stop offset="0.8029" stop-color="#B38116"/>
<stop offset="0.8267" stop-color="#A27114"/>
<stop offset="0.8802" stop-color="#815110"/>
<stop offset="0.9247" stop-color="#6C3D0E"/>
<stop offset="0.9545" stop-color="#65360D"/>
<stop offset="0.9581" stop-color="#6F3F0D"/>
<stop offset="0.9701" stop-color="#8A580C"/>
<stop offset="0.9807" stop-color="#9B670C"/>
<stop offset="0.9886" stop-color="#A16C0C"/>
</linearGradient>
<linearGradient id="paint12_linear_92_3948" x1="61.9982" y1="40.1627" x2="32.5216" y2="40.1627" gradientUnits="userSpaceOnUse">
<stop stop-color="#D2AB5A"/>
<stop offset="0.0610851" stop-color="#BA9443"/>
<stop offset="0.1898" stop-color="#7C5808"/>
<stop offset="0.2069" stop-color="#735000"/>
<stop offset="0.2274" stop-color="#775200"/>
<stop offset="0.3376" stop-color="#8A5D00"/>
<stop offset="0.4146" stop-color="#916100"/>
<stop offset="0.4344" stop-color="#976707"/>
<stop offset="0.4986" stop-color="#D8B364"/>
<stop offset="0.5246" stop-color="#D4AE5D"/>
<stop offset="0.5617" stop-color="#CA9F4A"/>
<stop offset="0.6053" stop-color="#B9882C"/>
<stop offset="0.6414" stop-color="#A8700D"/>
<stop offset="0.6805" stop-color="#815400"/>
<stop offset="0.8029" stop-color="#B38116"/>
<stop offset="0.8267" stop-color="#A27114"/>
<stop offset="0.8802" stop-color="#815110"/>
<stop offset="0.9247" stop-color="#6C3D0E"/>
<stop offset="0.9545" stop-color="#65360D"/>
<stop offset="0.9581" stop-color="#6F3F0D"/>
<stop offset="0.9701" stop-color="#8A580C"/>
<stop offset="0.9807" stop-color="#9B670C"/>
<stop offset="0.9886" stop-color="#A16C0C"/>
</linearGradient>
<linearGradient id="paint13_linear_92_3948" x1="20.6429" y1="39.0862" x2="46.6959" y2="52.7858" gradientUnits="userSpaceOnUse">
<stop stop-color="#A16C0C"/>
<stop offset="0.2318" stop-color="#BE9134"/>
<stop offset="0.5559" stop-color="#A8700D"/>
<stop offset="1" stop-color="#432400"/>
</linearGradient>
<linearGradient id="paint14_linear_92_3948" x1="30.8407" y1="46.766" x2="55.533" y2="55.6513" gradientUnits="userSpaceOnUse">
<stop stop-color="#A16C0C"/>
<stop offset="0.2318" stop-color="#BE9134"/>
<stop offset="0.5559" stop-color="#A8700D"/>
<stop offset="1" stop-color="#432400"/>
</linearGradient>
<linearGradient id="paint15_linear_92_3948" x1="36.7825" y1="14.3274" x2="58.2076" y2="65.6605" gradientUnits="userSpaceOnUse">
<stop stop-color="#D2AB5A"/>
<stop offset="0.0610851" stop-color="#BA9443"/>
<stop offset="0.1898" stop-color="#7C5808"/>
<stop offset="0.2069" stop-color="#735000"/>
<stop offset="0.2274" stop-color="#775200"/>
<stop offset="0.3376" stop-color="#8A5D00"/>
<stop offset="0.4146" stop-color="#916100"/>
<stop offset="0.4344" stop-color="#976707"/>
<stop offset="0.4986" stop-color="#D8B364"/>
<stop offset="0.5246" stop-color="#D4AE5D"/>
<stop offset="0.5617" stop-color="#CA9F4A"/>
<stop offset="0.6053" stop-color="#B9882C"/>
<stop offset="0.6414" stop-color="#A8700D"/>
<stop offset="0.6805" stop-color="#815400"/>
<stop offset="0.8029" stop-color="#B38116"/>
<stop offset="0.8267" stop-color="#A27114"/>
<stop offset="0.8802" stop-color="#815110"/>
<stop offset="0.9247" stop-color="#6C3D0E"/>
<stop offset="0.9545" stop-color="#65360D"/>
<stop offset="0.9581" stop-color="#6F3F0D"/>
<stop offset="0.9701" stop-color="#8A580C"/>
<stop offset="0.9807" stop-color="#9B670C"/>
<stop offset="0.9886" stop-color="#A16C0C"/>
</linearGradient>
</defs>
</svg>
