<svg width="79" height="76" viewBox="0 0 79 76" fill="none" xmlns="http://www.w3.org/2000/svg">
<g opacity="0.4" filter="url(#filter0_f_91_3930)">
<path d="M61.8217 47.8309C59.258 52.2494 54.6768 55.3634 48.5826 56.2471C42.4884 57.0888 36.1 55.4897 30.6783 52.2494C25.2565 48.9671 20.8014 44.0436 18.5739 38.1943C16.3884 32.3451 16.8507 26.7062 19.4145 22.2877C21.9783 17.9113 26.5594 14.7552 32.6536 13.8715C38.7478 12.9878 45.1362 14.6289 50.558 17.8692C55.9797 21.1515 60.4348 26.075 62.6623 31.9243C64.8478 37.8156 64.3435 43.4124 61.8217 47.8309Z" fill="url(#paint0_linear_91_3930)"/>
<path d="M61.8217 47.8309L61.1493 48.883C63.713 44.4644 64.1754 38.8677 61.9898 32.9763C59.8043 27.127 55.3493 22.1615 49.8855 18.9212C44.4638 15.6389 38.0753 14.0398 31.9811 14.9235C26.1811 15.723 21.684 18.6266 19.0782 22.7085L19.7507 21.6565C22.3565 17.5746 26.8116 14.671 32.6536 13.8715C38.7478 13.0299 45.1362 14.6289 50.558 17.8692C55.9797 21.1515 60.4348 26.075 62.6623 31.9243C64.8478 37.8156 64.3855 43.4124 61.8217 47.8309Z" fill="url(#paint1_linear_91_3930)"/>
<path d="M61.4435 48.4201L60.771 49.4721C60.8971 49.2617 61.0232 49.0934 61.1493 48.883L61.8217 47.8309C61.6956 48.0413 61.5696 48.2097 61.4435 48.4201Z" fill="url(#paint2_linear_91_3930)"/>
<path d="M64.9739 50.6925L61.8217 55.616C58.7536 60.3712 53.542 63.7798 46.7333 64.7476C39.6304 65.7576 32.1072 63.8639 25.7609 60.0766C19.4145 56.2472 14.2029 50.44 11.6391 43.6229C9.07535 36.7637 9.62173 30.157 12.6058 25.0231C12.7319 24.7706 15.3797 20.6887 15.5058 20.4783L16.1782 19.4263C16.0522 19.6367 15.884 19.8892 15.758 20.1416C12.7739 25.2755 12.2275 31.8823 14.7913 38.7415C17.3551 45.5586 22.5667 51.3658 28.913 55.1952C35.2594 59.0246 42.7406 60.8762 49.8855 59.8662C56.6942 58.8563 61.9478 55.4898 64.9739 50.6925Z" fill="url(#paint3_linear_91_3930)"/>
<path d="M66.4029 31.4193C63.8391 24.6022 58.6275 18.795 52.2812 14.9656C45.8927 11.1362 38.4116 9.28465 31.2667 10.2525C24.1638 11.2625 18.742 14.9656 15.758 20.0995C12.7739 25.2334 12.2275 31.8401 14.7913 38.6993C17.3551 45.5165 22.5667 51.3237 28.913 55.1531C35.2594 58.9824 42.7406 60.834 49.8855 59.8241C56.9884 58.8141 62.4101 55.1531 65.3942 50.0192C68.3783 44.8853 68.9667 38.2365 66.4029 31.4193ZM61.8217 47.8309C59.258 52.2495 54.6768 55.3635 48.5826 56.2472C42.4884 57.0888 36.1 55.4897 30.6783 52.2495C25.2565 48.9671 20.8014 44.0436 18.5739 38.1944C16.3884 32.3451 16.8507 26.7062 19.4145 22.2877C21.9782 17.9113 26.5594 14.7552 32.6536 13.8715C38.7478 12.9878 45.1362 14.629 50.558 17.8692C55.9797 21.1515 60.4348 26.075 62.6623 31.9243C64.8478 37.8156 64.3435 43.4124 61.8217 47.8309Z" fill="url(#paint4_linear_91_3930)"/>
<path d="M61.8217 47.8309C59.258 52.2494 54.6768 55.3634 48.5826 56.2471C42.4884 57.0888 36.1 55.4897 30.6783 52.2494C25.2565 48.9671 20.8014 44.0436 18.5739 38.1943C16.3884 32.3451 16.8507 26.7062 19.4145 22.2877C21.9783 17.9113 26.5594 14.7552 32.6536 13.8715C38.7478 12.9878 45.1362 14.6289 50.558 17.8692C55.9797 21.1515 60.4348 26.075 62.6623 31.9243C64.8478 37.8156 64.3435 43.4124 61.8217 47.8309Z" stroke="url(#paint5_linear_91_3930)" stroke-miterlimit="10"/>
<path d="M35.0072 24.0551L34.3348 25.1071L33.0319 21.6565L33.7043 20.5624L35.0072 24.0551Z" fill="url(#paint6_linear_91_3930)"/>
<path d="M45.3884 28.5578L44.7159 29.6098C42.7406 28.9365 40.8913 28.6419 39.1261 28.684L39.7985 27.632C41.5638 27.5899 43.413 27.8845 45.3884 28.5578Z" fill="url(#paint7_linear_91_3930)"/>
<path d="M36.5623 28.1791L35.8898 29.2311C35.2174 29.5257 34.7551 29.8623 34.4609 30.2411L35.1333 29.189C35.4275 28.8103 35.8898 28.4736 36.5623 28.1791Z" fill="url(#paint8_linear_91_3930)"/>
<path d="M38.2435 32.5976L37.571 33.6917L35.8898 29.2311L36.5623 28.1791L38.2435 32.5976Z" fill="url(#paint9_linear_91_3930)"/>
<path d="M46.5652 40.7614L45.8927 41.8134C46.1449 41.3926 46.1869 40.9297 45.9768 40.3826C45.7667 39.8777 45.4304 39.4568 44.8841 39.2044C44.3797 38.9098 43.6652 38.7415 42.8246 38.5731L43.4971 37.5211C44.3377 37.6474 45.0522 37.8578 45.5565 38.1523C46.1029 38.4469 46.4391 38.8256 46.6493 39.3306C46.8594 39.8777 46.8174 40.3406 46.5652 40.7614Z" fill="url(#paint10_linear_91_3930)"/>
<path d="M46.5652 40.7614L45.8927 41.8134C46.1449 41.3926 46.1869 40.9297 45.9768 40.3826C45.7667 39.8777 45.4304 39.4568 44.8841 39.2044C44.3797 38.9098 43.6652 38.7415 42.8246 38.5731L43.4971 37.5211C44.3377 37.6474 45.0522 37.8578 45.5565 38.1523C46.1029 38.4469 46.4391 38.8256 46.6493 39.3306C46.8594 39.8777 46.8174 40.3406 46.5652 40.7614Z" fill="url(#paint11_linear_91_3930)"/>
<path d="M46.5232 40.8455L45.8507 41.8975L45.8928 41.8134L46.5652 40.7614L46.5232 40.8455Z" fill="url(#paint12_linear_91_3930)"/>
<path d="M39.9667 37.1844L39.2942 38.2365C37.613 38.1102 36.184 37.8998 34.9652 37.6053C33.7464 37.3107 32.6116 36.8057 31.5609 36.0483C30.5101 35.2908 29.7536 34.2388 29.2493 32.8501C28.6188 31.1248 28.7029 29.5678 29.5435 28.137C29.5855 28.0949 29.5855 28.0528 29.6275 28.0108L30.3 26.9587C30.258 27.0008 30.258 27.0429 30.2159 27.085C29.3753 28.5157 29.2913 30.0727 29.9217 31.7981C30.4261 33.1867 31.2246 34.2388 32.2333 34.9962C33.284 35.7537 34.3768 36.2587 35.6377 36.5532C36.8565 36.8478 38.2855 37.0582 39.9667 37.1844Z" fill="url(#paint13_linear_91_3930)"/>
<path d="M41.942 42.4025L41.2696 43.4545L39.2942 38.2786L39.9667 37.1844L41.942 42.4025Z" fill="url(#paint14_linear_91_3930)"/>
<path d="M51.3565 42.9917L50.6841 44.0858C49.8435 45.4324 48.2464 46.4003 45.9768 47.0315L46.6493 45.9795C48.9609 45.3482 50.5159 44.3383 51.3565 42.9917Z" fill="url(#paint15_linear_91_3930)"/>
<path d="M44.758 49.8929L44.0435 50.945L42.7826 47.5785L43.4551 46.4844L44.758 49.8929Z" fill="url(#paint16_linear_91_3930)"/>
<path d="M47.9942 49.4301L47.3217 50.5242L44.0435 50.945L44.758 49.8929L47.9942 49.4301Z" fill="url(#paint17_linear_91_3930)"/>
<path d="M43.4551 46.4843L42.7826 47.5784C41.1435 47.7047 39.5043 47.6626 37.9072 47.4101C36.2681 47.1576 34.9232 46.7789 33.7884 46.2318L34.4609 45.1798C35.5956 45.7269 36.9826 46.1056 38.5797 46.3581C40.2188 46.5685 41.8159 46.6526 43.4551 46.4843Z" fill="url(#paint18_linear_91_3930)"/>
<path d="M49.4232 35.0804C50.4739 35.8379 51.2304 36.8899 51.7348 38.2365C52.3652 39.9618 52.2812 41.4767 51.4406 42.9075C50.6 44.2962 49.0029 45.3061 46.6913 45.9794L47.9942 49.4721L44.758 49.935L43.4971 46.5265C41.858 46.6527 40.2188 46.6106 38.6217 46.3581C36.9826 46.1056 35.6377 45.7269 34.5029 45.1799L34.8391 41.1401C35.8899 41.603 37.0246 41.9396 38.2855 42.1921C39.5464 42.4446 40.7652 42.5287 41.9841 42.4446L40.0087 37.2265C38.3275 37.1003 36.8986 36.8899 35.6797 36.5953C34.4609 36.3007 33.3261 35.7958 32.2754 35.0383C31.2246 34.2809 30.4681 33.2288 29.9638 31.8401C29.3333 30.1148 29.4174 28.5578 30.258 27.1271C31.0986 25.6963 32.6957 24.6864 35.0913 24.0551L33.7884 20.6045L37.0246 20.1416L38.2855 23.5502C41.0174 23.3818 43.4551 23.7185 45.5985 24.518L45.4304 28.5999C43.4551 27.9266 41.6058 27.632 39.8406 27.6741L41.8159 32.9763C43.4551 33.1026 44.8841 33.313 46.1029 33.5655C47.2797 33.818 48.4145 34.3229 49.4232 35.0804ZM38.2435 32.5976L36.5623 28.1791C35.8058 28.4737 35.3014 28.8524 35.0913 29.3153C34.8391 29.7782 34.8391 30.2831 35.0493 30.8302C35.2594 31.3352 35.5957 31.756 36.142 32.0085C36.6884 32.303 37.3609 32.5134 38.2435 32.5976ZM46.5652 40.7613C46.8174 40.3405 46.8594 39.8776 46.6493 39.3306C46.4391 38.8256 46.1029 38.4048 45.5565 38.1523C45.0522 37.8577 44.3377 37.6894 43.4971 37.5211L45.0942 41.8134C45.8507 41.5609 46.313 41.1822 46.5652 40.7613Z" fill="url(#paint19_linear_91_3930)"/>
<path d="M34.4609 45.1378L33.7464 46.1898L34.1246 42.1501L34.7971 41.098L34.4609 45.1378Z" fill="url(#paint20_linear_91_3930)"/>
<path d="M49.4232 35.0804C50.4739 35.8379 51.2304 36.8899 51.7348 38.2365C52.3652 39.9618 52.2812 41.4767 51.4406 42.9075C50.6 44.2962 49.0029 45.3061 46.6913 45.9794L47.9942 49.4721L44.758 49.935L43.4971 46.5265C41.858 46.6527 40.2188 46.6106 38.6217 46.3581C36.9826 46.1056 35.6377 45.7269 34.5029 45.1799L34.8391 41.1401C35.8899 41.603 37.0246 41.9396 38.2855 42.1921C39.5464 42.4446 40.7652 42.5287 41.9841 42.4446L40.0087 37.2265C38.3275 37.1003 36.8986 36.8899 35.6797 36.5953C34.4609 36.3007 33.3261 35.7958 32.2754 35.0383C31.2246 34.2809 30.4681 33.2288 29.9638 31.8401C29.3333 30.1148 29.4174 28.5578 30.258 27.1271C31.0986 25.6963 32.6957 24.6864 35.0913 24.0551L33.7884 20.6045L37.0246 20.1416L38.2855 23.5502C41.0174 23.3818 43.4551 23.7185 45.5985 24.518L45.4304 28.5999C43.4551 27.9266 41.6058 27.632 39.8406 27.6741L41.8159 32.9763C43.4551 33.1026 44.8841 33.313 46.1029 33.5655C47.2797 33.818 48.4145 34.3229 49.4232 35.0804ZM38.2435 32.5976L36.5623 28.1791C35.8058 28.4737 35.3014 28.8524 35.0913 29.3153C34.8391 29.7782 34.8391 30.2831 35.0493 30.8302C35.2594 31.3352 35.5957 31.756 36.142 32.0085C36.6884 32.303 37.3609 32.5134 38.2435 32.5976ZM46.5652 40.7613C46.8174 40.3405 46.8594 39.8776 46.6493 39.3306C46.4391 38.8256 46.1029 38.4048 45.5565 38.1523C45.0522 37.8577 44.3377 37.6894 43.4971 37.5211L45.0942 41.8134C45.8507 41.5609 46.313 41.1822 46.5652 40.7613Z" stroke="url(#paint21_linear_91_3930)" stroke-width="0.5" stroke-miterlimit="10"/>
</g>
<defs>
<filter id="filter0_f_91_3930" x="0" y="-0.00109863" width="78.0218" height="75.0177" filterUnits="userSpaceOnUse" color-interpolation-filters="sRGB">
<feFlood flood-opacity="0" result="BackgroundImageFix"/>
<feBlend mode="normal" in="SourceGraphic" in2="BackgroundImageFix" result="shape"/>
<feGaussianBlur stdDeviation="5" result="effect1_foregroundBlur_91_3930"/>
</filter>
<linearGradient id="paint0_linear_91_3930" x1="68.4471" y1="62.9307" x2="13.8696" y2="8.42085" gradientUnits="userSpaceOnUse">
<stop stop-color="#D7AC4C"/>
<stop offset="0.1816" stop-color="#FFFFB0"/>
<stop offset="0.3268" stop-color="#F4D174"/>
<stop offset="0.3659" stop-color="#FBED99"/>
<stop offset="0.3939" stop-color="#FAEC97"/>
<stop offset="0.433" stop-color="#DEB04D"/>
<stop offset="0.5275" stop-color="#DFB24F"/>
<stop offset="0.5615" stop-color="#E2B756"/>
<stop offset="0.5858" stop-color="#E7C161"/>
<stop offset="0.6053" stop-color="#EECF72"/>
<stop offset="0.6207" stop-color="#F6DF86"/>
<stop offset="0.7529" stop-color="#F2D87E"/>
<stop offset="0.7672" stop-color="#F1D77D"/>
<stop offset="0.7716" stop-color="#EBCD71"/>
<stop offset="0.7804" stop-color="#E2BE60"/>
<stop offset="0.7913" stop-color="#DCB455"/>
<stop offset="0.8066" stop-color="#D8AE4E"/>
<stop offset="0.8492" stop-color="#D7AC4C"/>
<stop offset="1" stop-color="#966424"/>
</linearGradient>
<linearGradient id="paint1_linear_91_3930" x1="66.5345" y1="39.2697" x2="24.3498" y2="16.0378" gradientUnits="userSpaceOnUse">
<stop stop-color="#A16C0C"/>
<stop offset="0.2318" stop-color="#DFC072"/>
<stop offset="0.5559" stop-color="#A8700D"/>
<stop offset="0.7458" stop-color="#FADB85"/>
<stop offset="0.802" stop-color="#A16C0C"/>
<stop offset="0.9335" stop-color="#6C4405"/>
</linearGradient>
<linearGradient id="paint2_linear_91_3930" x1="60.7759" y1="48.6569" x2="61.8157" y2="48.6569" gradientUnits="userSpaceOnUse">
<stop stop-color="#A16C0C"/>
<stop offset="0.1816" stop-color="#C9BF70"/>
<stop offset="0.3268" stop-color="#BE9134"/>
<stop offset="0.433" stop-color="#A8700D"/>
<stop offset="0.7067" stop-color="#C09F46"/>
<stop offset="0.8492" stop-color="#A16C0C"/>
<stop offset="1" stop-color="#602400"/>
</linearGradient>
<linearGradient id="paint3_linear_91_3930" x1="-2.48918" y1="19.9771" x2="57.7702" y2="64.5641" gradientUnits="userSpaceOnUse">
<stop stop-color="#B39200"/>
<stop offset="0.0568408" stop-color="#AD8C01"/>
<stop offset="0.1314" stop-color="#9D7C04"/>
<stop offset="0.2156" stop-color="#836108"/>
<stop offset="0.2585" stop-color="#73500B"/>
<stop offset="0.2799" stop-color="#795311"/>
<stop offset="0.3592" stop-color="#8B5D24"/>
<stop offset="0.4146" stop-color="#91612B"/>
<stop offset="0.4344" stop-color="#976707"/>
<stop offset="0.5299" stop-color="#D8B364"/>
<stop offset="0.5502" stop-color="#D4AE5D"/>
<stop offset="0.5792" stop-color="#CA9F4A"/>
<stop offset="0.6132" stop-color="#B9882C"/>
<stop offset="0.6414" stop-color="#A8700D"/>
<stop offset="0.6805" stop-color="#815400"/>
<stop offset="0.8029" stop-color="#B38136"/>
<stop offset="0.8189" stop-color="#A2712D"/>
<stop offset="0.8549" stop-color="#81511C"/>
<stop offset="0.8849" stop-color="#6C3D11"/>
<stop offset="0.9049" stop-color="#65360D"/>
<stop offset="0.9126" stop-color="#6F3F0D"/>
<stop offset="0.938" stop-color="#8A580C"/>
<stop offset="0.9603" stop-color="#9B670C"/>
<stop offset="0.9772" stop-color="#A16C0C"/>
<stop offset="1" stop-color="#B9924B"/>
</linearGradient>
<linearGradient id="paint4_linear_91_3930" x1="69.8558" y1="59.2222" x2="4.85581" y2="5.64785" gradientUnits="userSpaceOnUse">
<stop stop-color="#D7AC4C"/>
<stop offset="0.1816" stop-color="#FFFFB0"/>
<stop offset="0.3268" stop-color="#F4D174"/>
<stop offset="0.3659" stop-color="#FBED99"/>
<stop offset="0.3939" stop-color="#FAEC97"/>
<stop offset="0.433" stop-color="#DEB04D"/>
<stop offset="0.5275" stop-color="#DFB24F"/>
<stop offset="0.5615" stop-color="#E2B756"/>
<stop offset="0.5858" stop-color="#E7C161"/>
<stop offset="0.6053" stop-color="#EECF72"/>
<stop offset="0.6207" stop-color="#F6DF86"/>
<stop offset="0.7529" stop-color="#F2D87E"/>
<stop offset="0.7672" stop-color="#F1D77D"/>
<stop offset="0.7716" stop-color="#EBCD71"/>
<stop offset="0.7804" stop-color="#E2BE60"/>
<stop offset="0.7913" stop-color="#DCB455"/>
<stop offset="0.8066" stop-color="#D8AE4E"/>
<stop offset="0.8492" stop-color="#D7AC4C"/>
<stop offset="1" stop-color="#966424"/>
</linearGradient>
<linearGradient id="paint5_linear_91_3930" x1="22.0975" y1="18.4071" x2="59.1358" y2="51.6376" gradientUnits="userSpaceOnUse">
<stop stop-color="#D7AC4C"/>
<stop offset="0.1816" stop-color="#FFFFB0"/>
<stop offset="0.3268" stop-color="#F4D174"/>
<stop offset="0.433" stop-color="#DEB04D"/>
<stop offset="0.7067" stop-color="#F6DF86"/>
<stop offset="0.8492" stop-color="#D7AC4C"/>
<stop offset="1" stop-color="#966424"/>
</linearGradient>
<linearGradient id="paint6_linear_91_3930" x1="32.2282" y1="20.6402" x2="35.3455" y2="24.4237" gradientUnits="userSpaceOnUse">
<stop stop-color="#A16C0C"/>
<stop offset="0.2318" stop-color="#BE9134"/>
<stop offset="0.5559" stop-color="#A8700D"/>
<stop offset="1" stop-color="#432400"/>
</linearGradient>
<linearGradient id="paint7_linear_91_3930" x1="45.144" y1="29.2086" x2="39.7847" y2="28.0278" gradientUnits="userSpaceOnUse">
<stop stop-color="#A16C0C"/>
<stop offset="0.2318" stop-color="#BE9134"/>
<stop offset="0.5559" stop-color="#A8700D"/>
<stop offset="1" stop-color="#432400"/>
</linearGradient>
<linearGradient id="paint8_linear_91_3930" x1="33.4742" y1="30.1438" x2="36.6671" y2="28.7265" gradientUnits="userSpaceOnUse">
<stop stop-color="#A16C0C"/>
<stop offset="0.2318" stop-color="#BE9134"/>
<stop offset="0.5559" stop-color="#A8700D"/>
<stop offset="1" stop-color="#432400"/>
</linearGradient>
<linearGradient id="paint9_linear_91_3930" x1="38.5599" y1="32.3055" x2="35.4435" y2="29.4294" gradientUnits="userSpaceOnUse">
<stop stop-color="#A16C0C"/>
<stop offset="0.2318" stop-color="#BE9134"/>
<stop offset="0.5559" stop-color="#A8700D"/>
<stop offset="1" stop-color="#432400"/>
</linearGradient>
<linearGradient id="paint10_linear_91_3930" x1="42.8301" y1="39.679" x2="46.7871" y2="39.679" gradientUnits="userSpaceOnUse">
<stop stop-color="#A16C0C"/>
<stop offset="0.2318" stop-color="#BE9134"/>
<stop offset="0.5559" stop-color="#A8700D"/>
<stop offset="1" stop-color="#432400"/>
</linearGradient>
<linearGradient id="paint11_linear_91_3930" x1="49.4543" y1="42.1999" x2="42.4757" y2="38.0651" gradientUnits="userSpaceOnUse">
<stop stop-color="#A16C0C"/>
<stop offset="0.2318" stop-color="#BE9134"/>
<stop offset="0.5559" stop-color="#A8700D"/>
<stop offset="1" stop-color="#432400"/>
</linearGradient>
<linearGradient id="paint12_linear_91_3930" x1="45.8581" y1="41.3346" x2="46.5764" y2="41.3346" gradientUnits="userSpaceOnUse">
<stop stop-color="#A16C0C"/>
<stop offset="0.1816" stop-color="#DBBF7D"/>
<stop offset="0.3268" stop-color="#BE9134"/>
<stop offset="0.433" stop-color="#A8700D"/>
<stop offset="0.7067" stop-color="#D9AA59"/>
<stop offset="0.8492" stop-color="#A16C0C"/>
<stop offset="1" stop-color="#602400"/>
</linearGradient>
<linearGradient id="paint13_linear_91_3930" x1="28.8133" y1="32.6112" x2="39.971" y2="32.6112" gradientUnits="userSpaceOnUse">
<stop stop-color="#A16C0C"/>
<stop offset="0.2318" stop-color="#BE9134"/>
<stop offset="0.5559" stop-color="#A8700D"/>
<stop offset="1" stop-color="#432400"/>
</linearGradient>
<linearGradient id="paint14_linear_91_3930" x1="43.8821" y1="43.3343" x2="37.4128" y2="37.4246" gradientUnits="userSpaceOnUse">
<stop stop-color="#A16C0C"/>
<stop offset="0.2318" stop-color="#BE9134"/>
<stop offset="0.5559" stop-color="#A8700D"/>
<stop offset="1" stop-color="#432400"/>
</linearGradient>
<linearGradient id="paint15_linear_91_3930" x1="53.1851" y1="44.8496" x2="45.3834" y2="45.1251" gradientUnits="userSpaceOnUse">
<stop stop-color="#A16C0C"/>
<stop offset="0.2318" stop-color="#BE9134"/>
<stop offset="0.5559" stop-color="#A8700D"/>
<stop offset="1" stop-color="#432400"/>
</linearGradient>
<linearGradient id="paint16_linear_91_3930" x1="46.4752" y1="50.7608" x2="41.1511" y2="46.7825" gradientUnits="userSpaceOnUse">
<stop stop-color="#A16C0C"/>
<stop offset="0.2318" stop-color="#BE9134"/>
<stop offset="0.5559" stop-color="#A8700D"/>
<stop offset="1" stop-color="#432400"/>
</linearGradient>
<linearGradient id="paint17_linear_91_3930" x1="45.9267" y1="48.7406" x2="46.0847" y2="51.0681" gradientUnits="userSpaceOnUse">
<stop stop-color="#A16C0C"/>
<stop offset="0.2318" stop-color="#BE9134"/>
<stop offset="0.5559" stop-color="#A8700D"/>
<stop offset="1" stop-color="#432400"/>
</linearGradient>
<linearGradient id="paint18_linear_91_3930" x1="33.7634" y1="46.3881" x2="43.4648" y2="46.3881" gradientUnits="userSpaceOnUse">
<stop stop-color="#A16C0C"/>
<stop offset="0.2318" stop-color="#BE9134"/>
<stop offset="0.5559" stop-color="#A8700D"/>
<stop offset="1" stop-color="#432400"/>
</linearGradient>
<linearGradient id="paint19_linear_91_3930" x1="50.5111" y1="45.7044" x2="22.9469" y2="17.2287" gradientUnits="userSpaceOnUse">
<stop stop-color="#D7AC4C"/>
<stop offset="0.1816" stop-color="#FFFFB0"/>
<stop offset="0.3268" stop-color="#F4D174"/>
<stop offset="0.3659" stop-color="#FBED99"/>
<stop offset="0.3939" stop-color="#FAEC97"/>
<stop offset="0.433" stop-color="#DEB04D"/>
<stop offset="0.5275" stop-color="#DFB24F"/>
<stop offset="0.5615" stop-color="#E2B756"/>
<stop offset="0.5858" stop-color="#E7C161"/>
<stop offset="0.6053" stop-color="#EECF72"/>
<stop offset="0.6207" stop-color="#F6DF86"/>
<stop offset="0.7529" stop-color="#F2D87E"/>
<stop offset="0.7672" stop-color="#F1D77D"/>
<stop offset="0.7716" stop-color="#EBCD71"/>
<stop offset="0.7804" stop-color="#E2BE60"/>
<stop offset="0.7913" stop-color="#DCB455"/>
<stop offset="0.8066" stop-color="#D8AE4E"/>
<stop offset="0.8492" stop-color="#D7AC4C"/>
<stop offset="1" stop-color="#966424"/>
</linearGradient>
<linearGradient id="paint20_linear_91_3930" x1="37.49" y1="49.6041" x2="31.4893" y2="38.4851" gradientUnits="userSpaceOnUse">
<stop stop-color="#A16C0C"/>
<stop offset="0.2318" stop-color="#BE9134"/>
<stop offset="0.5559" stop-color="#A8700D"/>
<stop offset="1" stop-color="#432400"/>
</linearGradient>
<linearGradient id="paint21_linear_91_3930" x1="29.3316" y1="25.2207" x2="51.8305" y2="45.4065" gradientUnits="userSpaceOnUse">
<stop stop-color="#D7AC4C"/>
<stop offset="0.1816" stop-color="#FFFFB0"/>
<stop offset="0.3268" stop-color="#F4D174"/>
<stop offset="0.433" stop-color="#DEB04D"/>
<stop offset="0.7067" stop-color="#F6DF86"/>
<stop offset="0.8492" stop-color="#D7AC4C"/>
<stop offset="1" stop-color="#966424"/>
</linearGradient>
</defs>
</svg>
