<svg width="90" height="87" viewBox="0 0 90 87" fill="none" xmlns="http://www.w3.org/2000/svg">
<path d="M16.1164 10.8702L15.8616 11.1277L10.5115 16.964C10.0868 17.3932 9.74714 17.8223 9.32252 18.2515L9.06775 18.5089C8.38836 19.2814 7.7939 20.1397 7.19943 20.998C7.87882 20.2255 8.55821 19.453 9.32252 18.6806L75.9876 74.8982L76.0725 74.8123C76.4122 74.3832 76.7519 73.954 77.0916 73.5249L83.4609 65.5429C97.9828 45.1157 86.2634 21.9421 68.1746 9.9261C53.2281 -0.974098 29.3645 -3.29146 16.1164 10.8702Z" fill="url(#paint0_linear_91_3929)"/>
<path d="M41.9332 9.66864C31.5725 7.60876 21.1269 9.32533 13.0592 15.2475C5.16126 21.0838 1.08492 30.0958 0.999997 39.8802C0.915073 49.6646 4.82156 60.2215 12.7195 69.2335C20.5324 78.3313 30.978 84.0818 41.3387 86.1417C51.6994 88.2016 62.145 86.485 70.2128 80.5629C78.1956 74.6407 82.2719 65.6287 82.3569 55.8443C82.4418 46.0599 78.5353 35.503 70.6374 26.491C62.7395 17.479 52.3788 11.7285 41.9332 9.66864Z" fill="url(#paint1_linear_91_3929)"/>
<path d="M66.3912 29.6667C73.1002 37.3912 76.4122 46.4032 76.4122 54.8144C76.3273 63.2256 72.8454 70.8643 66.0515 75.9282C59.1727 80.992 50.3407 82.4511 41.4237 80.6487C32.5067 78.8463 23.5897 73.9541 16.8807 66.2296C10.1718 58.505 6.85974 49.493 6.85974 41.0819C6.94466 32.6707 10.4265 25.032 17.2204 19.9681C24.0992 14.9042 32.9313 13.4451 41.8483 15.2475C50.8502 16.9641 59.6823 21.9421 66.3912 29.6667Z" fill="url(#paint2_linear_91_3929)"/>
<path d="M48.3874 57.6467C48.0477 57.8183 47.708 57.99 47.3683 58.0758C47.2834 58.1617 47.1136 58.1617 47.0286 58.2475C46.7739 58.3333 46.5191 58.4191 46.2643 58.505C46.0945 58.5908 46.0095 58.5908 45.8397 58.6766C45.5 58.7624 45.1603 58.8483 44.8206 58.9341C44.5658 59.0199 44.3111 59.0199 43.9714 59.1058C43.8015 59.1058 43.5468 59.1916 43.3769 59.1916C43.1221 59.1916 42.9523 59.2774 42.6975 59.2774C42.5277 59.2774 42.2729 59.3632 42.1031 59.3632C41.9332 59.3632 41.6784 59.3632 41.5086 59.3632C41.2538 59.3632 41.084 59.3632 40.8292 59.3632C40.4895 59.3632 40.1498 59.3632 39.8101 59.3632L38.7061 60.8223C39.0458 60.8223 39.3006 60.8223 39.6403 60.8223C39.7252 60.8223 39.7252 60.8223 39.8101 60.8223C40.0649 60.8223 40.2347 60.8223 40.4895 60.8223C40.6594 60.8223 40.8292 60.8223 40.9141 60.8223C40.9991 60.8223 40.9991 60.8223 41.084 60.8223C41.2538 60.8223 41.5086 60.8223 41.6784 60.7365C41.8483 60.7365 42.0181 60.7365 42.188 60.6507C42.2729 60.6507 42.2729 60.6507 42.3578 60.6507C42.5277 60.6507 42.7825 60.5648 42.9523 60.5648C43.1221 60.5648 43.292 60.479 43.4618 60.479C43.5468 60.479 43.7166 60.3932 43.8015 60.3932C44.0563 60.3074 44.3111 60.3074 44.5658 60.2215C44.6508 60.2215 44.7357 60.1357 44.8206 60.1357C44.9905 60.1357 45.0754 60.0499 45.2452 59.964C45.3302 59.964 45.4151 59.8782 45.5849 59.8782C45.7548 59.7924 45.8397 59.7924 46.0096 59.7066C46.0945 59.6207 46.2643 59.6207 46.3492 59.5349C46.4342 59.5349 46.4342 59.5349 46.5191 59.4491C46.7739 59.3632 47.1136 59.1916 47.3683 59.1058C47.3683 59.1058 47.3683 59.1058 47.4533 59.1058C47.708 58.9341 48.0477 58.8483 48.3025 58.6766C48.3874 58.6766 48.4723 58.5908 48.5573 58.5908L49.6613 57.1317C49.1517 57.2175 48.812 57.475 48.3874 57.6467Z" fill="url(#paint3_linear_91_3929)"/>
<path d="M56.625 61.0798L57.729 59.6207L61.7204 64.2555L60.6164 65.7145L56.625 61.0798Z" fill="url(#paint4_linear_91_3929)"/>
<path d="M34.8846 76.8723C34.7147 76.7865 34.4599 76.7006 34.2901 76.6148C34.2052 76.6148 34.1202 76.529 34.0353 76.529C33.6107 76.3573 33.271 76.1857 32.8464 76.014C32.6765 75.9282 32.5067 75.8424 32.3368 75.7565C31.9971 75.5849 31.6575 75.4132 31.3178 75.2416C31.1479 75.1557 30.9781 75.0699 30.8082 74.9841C30.3836 74.8124 30.0439 74.5549 29.6193 74.2975C29.5344 74.2116 29.4494 74.2116 29.3645 74.1258C28.855 73.8683 28.3454 73.525 27.8359 73.1817C27.8359 73.1817 27.751 73.1817 27.751 73.0959C27.2414 72.8384 26.8168 72.4951 26.3922 72.1517C26.3073 72.0659 26.2223 72.0659 26.1374 71.9801C25.7977 71.7226 25.3731 71.4651 25.0334 71.2076C24.8636 71.1218 24.7786 71.036 24.6088 70.8643C24.354 70.6927 24.0992 70.521 23.9294 70.2635C23.5048 69.9202 23.0802 69.5769 22.6555 69.2336C22.4857 69.0619 22.3158 68.9761 22.2309 68.8044C21.8063 68.3753 21.2968 67.9462 20.8721 67.517C20.7872 67.4312 20.7872 67.4312 20.7023 67.3454C20.1928 66.9162 19.7681 66.4012 19.2586 65.8863C18.834 65.4571 18.4094 65.028 18.0697 64.513C17.8149 64.2555 17.645 63.9981 17.3903 63.7406C17.1355 63.4831 16.8807 63.1398 16.7109 62.8823C16.541 62.6248 16.3712 62.4531 16.2013 62.1957C16.0315 61.9382 15.7767 61.6807 15.6069 61.3374C15.437 61.0799 15.2672 60.8224 15.0973 60.6507C14.9275 60.3933 14.7576 60.1358 14.5029 59.7925C14.333 59.535 14.1632 59.2775 14.0783 59.1058C13.9084 58.8484 13.7386 58.505 13.5687 58.2476C13.3989 57.9901 13.3139 57.7326 13.1441 57.5609C12.9742 57.3034 12.8044 56.9601 12.6346 56.6168C12.4647 56.3593 12.3798 56.1018 12.2949 55.9302C12.125 55.5869 11.9552 55.2436 11.7853 54.9861C11.7004 54.7286 11.5305 54.5569 11.4456 54.2994C11.2758 53.9561 11.1059 53.527 10.9361 53.1837C10.8512 53.012 10.7662 52.7545 10.6813 52.5829C10.4265 52.0679 10.2567 51.4671 10.0868 50.9521C10.0868 50.8663 10.0019 50.8663 10.0019 50.7805C9.74715 50.0939 9.5773 49.4931 9.40745 48.8064C9.32253 48.4631 9.2376 48.2056 9.15268 47.8623C9.15268 47.6907 9.06776 47.6048 9.06776 47.4332C8.81299 47.004 8.72806 46.4891 8.64314 45.9741C8.55821 45.4591 8.47329 44.8583 8.38837 44.3434C8.38837 44.2575 8.38837 44.2575 8.38837 44.1717C8.30344 43.6567 8.30344 43.1418 8.21852 42.7126C8.21852 42.3693 8.1336 42.026 8.1336 41.6827C8.1336 41.511 8.1336 41.3394 8.1336 41.1677C8.1336 40.6527 8.1336 40.1378 8.1336 39.6228C8.21852 33.6148 10.0019 27.9501 13.4838 23.4012L12.3798 24.8603C8.72806 29.4092 6.94466 35.0739 6.85974 41.0819C6.85974 41.5969 6.85974 42.1118 6.85974 42.6268C6.85974 42.7985 6.85974 42.9701 6.85974 43.1418C6.85974 43.4851 6.85974 43.8284 6.94466 44.1717C7.02959 44.6867 7.02959 45.1158 7.11451 45.6308C7.11451 45.7166 7.11451 45.7166 7.11451 45.8024C7.19944 46.3174 7.28436 46.9182 7.36928 47.4332C7.45421 47.9482 7.53913 48.3773 7.70898 48.8923C7.70898 49.0639 7.7939 49.1497 7.7939 49.3214C7.87883 49.5789 7.87882 49.8364 7.96375 50.008C7.96375 50.0939 8.04867 50.1797 8.04867 50.2655C8.21852 50.9521 8.47329 51.5529 8.64314 52.2396C8.64314 52.3254 8.64314 52.3254 8.72806 52.4112C8.89791 52.9262 9.15268 53.527 9.32253 54.042C9.32253 54.1278 9.40745 54.2136 9.40745 54.2136C9.49237 54.3853 9.5773 54.4711 9.5773 54.6428C9.74715 54.9861 9.91699 55.4152 10.0868 55.7585C10.1718 55.8444 10.1718 55.9302 10.2567 56.1018C10.3416 56.1877 10.4265 56.3593 10.4265 56.4452C10.5964 56.7885 10.7662 57.1318 10.9361 57.3893C11.021 57.5609 11.1059 57.6468 11.1059 57.8184C11.1908 57.9042 11.1908 57.9901 11.2758 58.1617C11.4456 58.4192 11.6155 58.7625 11.7853 59.02C11.8702 59.1917 11.9552 59.3633 12.0401 59.4492C12.125 59.535 12.125 59.6208 12.2099 59.7066C12.3798 59.9641 12.5496 60.3074 12.7195 60.5649C12.8044 60.7366 12.8893 60.9082 13.0592 61.0799C13.1441 61.1657 13.1441 61.2515 13.229 61.3374C13.3989 61.5949 13.5687 61.8523 13.8235 62.1957C13.9084 62.3673 14.0783 62.539 14.1632 62.7106C14.2481 62.7965 14.2481 62.8823 14.333 62.8823C14.5029 63.1398 14.7576 63.3973 14.9275 63.6547C15.0973 63.8264 15.1823 63.9981 15.3521 64.1697C15.437 64.4272 15.437 64.513 15.522 64.513C15.7767 64.7705 15.9466 65.1138 16.2013 65.3713C16.3712 65.543 16.4561 65.7146 16.626 65.8863C16.7109 65.9721 16.7958 66.0579 16.8807 66.1438C17.2204 66.5729 17.645 67.002 18.0697 67.4312L18.1546 67.517C18.5792 68.032 19.0887 68.4611 19.5983 68.9761C19.6832 69.0619 19.6832 69.0619 19.7681 69.1478C20.1928 69.5769 20.7023 70.006 21.1269 70.4352C21.2118 70.4352 21.2118 70.521 21.2968 70.6068C21.3817 70.6927 21.5515 70.7785 21.6365 70.8643C22.0611 71.2076 22.4857 71.5509 22.9103 71.8943C22.9952 71.9801 23.0802 72.0659 23.1651 72.1517C23.3349 72.2376 23.4199 72.3234 23.5897 72.4951C23.7596 72.5809 23.8445 72.6667 24.0143 72.8384C24.354 73.0959 24.7786 73.3533 25.1183 73.6108C25.2033 73.6967 25.2882 73.6967 25.3731 73.7825C25.3731 73.7825 25.3731 73.7825 25.458 73.7825C25.8826 74.1258 26.3073 74.3833 26.8168 74.6408C26.8168 74.6408 26.9017 74.6408 26.9017 74.7266C27.4113 75.0699 27.8359 75.3274 28.3454 75.5849C28.3454 75.5849 28.3454 75.5849 28.4304 75.5849C28.5153 75.6707 28.6002 75.6707 28.6851 75.7565C29.1097 76.014 29.4494 76.1857 29.8741 76.4432C30.0439 76.529 30.2137 76.6148 30.3836 76.7006C30.7233 76.8723 31.063 77.044 31.4027 77.2156C31.5725 77.3014 31.7424 77.3873 31.9122 77.4731C32.3368 77.6448 32.6765 77.8164 33.1012 77.9881C33.1861 77.9881 33.271 78.0739 33.3559 78.0739H33.4408C33.6107 78.1597 33.7805 78.2456 34.0353 78.3314C34.375 78.503 34.7147 78.5889 35.0544 78.7605C35.3092 78.8464 35.479 78.9322 35.7338 79.018C36.0735 79.1038 36.4132 79.2755 36.7529 79.3613C37.0076 79.4472 37.2624 79.533 37.5172 79.6188C37.8569 79.7046 38.1966 79.7905 38.4513 79.8763C38.7061 79.9621 38.9609 80.048 39.2157 80.048C39.5554 80.1338 39.8101 80.2196 40.1498 80.3054C40.2347 80.3054 40.3197 80.3054 40.3197 80.3913C40.7443 80.4771 41.1689 80.5629 41.5935 80.6488C42.188 80.7346 42.8674 80.9062 43.4618 80.9921C43.6317 80.9921 43.8865 81.0779 44.0563 81.0779C44.4809 81.1637 44.9055 81.1637 45.3302 81.2495C45.4151 81.2495 45.5 81.2495 45.6699 81.2495C45.8397 81.2495 46.0096 81.2495 46.1794 81.2495C46.4342 81.2495 46.6889 81.2495 46.9437 81.3354C47.1985 81.3354 47.5382 81.3354 47.7929 81.3354C48.0477 81.3354 48.3025 81.3354 48.5573 81.3354C48.6422 81.3354 48.7271 81.3354 48.897 81.3354C48.9819 81.3354 49.0668 81.3354 49.1517 81.3354C49.8311 81.3354 50.5105 81.3354 51.2748 81.2495C51.3597 81.2495 51.3597 81.2495 51.4447 81.2495C51.4447 81.2495 51.4447 81.2495 51.5296 81.2495C52.209 81.1637 52.8034 81.1637 53.4828 80.9921C53.5678 80.9921 53.5678 80.9921 53.6527 80.9921C53.8225 80.9921 53.9075 80.9062 54.0773 80.9062C54.5019 80.8204 54.9265 80.7346 55.2662 80.6488C55.3512 80.6488 55.521 80.6488 55.6059 80.5629C55.6908 80.5629 55.7758 80.4771 55.9456 80.4771C56.2853 80.3913 56.625 80.3054 56.9647 80.2196C57.1346 80.2196 57.2195 80.1338 57.3893 80.1338C57.4742 80.1338 57.5592 80.048 57.6441 80.048C57.9838 79.9621 58.3235 79.8763 58.5783 79.7905C58.7481 79.7046 58.9179 79.7046 59.0878 79.6188C59.1727 79.6188 59.1727 79.6188 59.2576 79.533C59.5973 79.4472 59.8521 79.2755 60.1918 79.1897C60.3616 79.1038 60.5315 79.1038 60.7013 79.018C60.7013 79.018 60.7863 79.018 60.7863 78.9322C61.041 78.8464 61.3807 78.6747 61.6355 78.503C61.8054 78.4172 61.9752 78.3314 62.145 78.2456H62.23C62.4847 78.0739 62.8244 77.9881 63.0792 77.8164C63.2491 77.7306 63.4189 77.6448 63.5887 77.5589C63.5887 77.5589 63.5888 77.5589 63.6737 77.5589C64.0134 77.3873 64.3531 77.1298 64.6928 76.9581C64.7777 76.8723 64.9475 76.7865 65.0325 76.7006C65.4571 76.4432 65.8817 76.0998 66.3912 75.7565C66.8158 75.4132 67.3254 75.0699 67.75 74.7266C68.0048 74.4691 68.2596 74.2975 68.5143 74.04C68.6842 73.8683 68.854 73.6967 69.1088 73.525C69.5334 73.1817 69.8731 72.7525 70.2128 72.3234L70.2977 72.2376C70.2977 72.2376 70.2977 72.2376 70.3826 72.1517C70.7223 71.7226 71.062 71.2935 71.4017 70.8643L72.5057 69.4052C72.166 69.8344 71.8263 70.2635 71.4017 70.6927L71.3168 70.7785C70.9771 71.2076 70.5525 71.5509 70.2128 71.9801C70.0429 72.1517 69.8731 72.3234 69.6183 72.4951C69.3636 72.7525 69.1088 72.9242 68.854 73.1817C68.4294 73.525 67.9199 73.9541 67.4952 74.2975C67.0706 74.6408 66.646 74.8983 66.1365 75.2416C65.9666 75.3274 65.8817 75.4132 65.7118 75.4991C65.3721 75.6707 65.0325 75.9282 64.6928 76.0998C64.5229 76.1857 64.3531 76.2715 64.0983 76.3573C63.8435 76.529 63.5038 76.7007 63.2491 76.7865C63.0792 76.8723 62.8244 76.9581 62.6546 77.044C62.3998 77.2156 62.0601 77.3014 61.8054 77.4731C61.6355 77.5589 61.3807 77.6448 61.2109 77.7306C60.8712 77.8164 60.6164 77.9881 60.2767 78.0739C60.1069 78.1597 59.8521 78.2456 59.6823 78.2456C59.3426 78.3314 59.0878 78.4172 58.7481 78.503C58.4933 78.5889 58.3235 78.5889 58.0687 78.6747C57.729 78.7605 57.3893 78.8464 57.0496 78.9322C56.7949 79.018 56.625 79.018 56.3702 79.1038C55.9456 79.1897 55.521 79.2755 55.1813 79.3613C55.0115 79.3613 54.7567 79.4472 54.5868 79.4472C53.9075 79.533 53.313 79.6188 52.6336 79.7046C52.5487 79.7046 52.4637 79.7046 52.3788 79.7046C51.6994 79.7905 51.02 79.7905 50.2557 79.7905C50.0859 79.7905 49.8311 79.7905 49.6613 79.7905C49.4065 79.7905 49.1517 79.7905 48.897 79.7905C48.6422 79.7905 48.3025 79.7905 48.0477 79.7905C47.7929 79.7905 47.5382 79.7905 47.2834 79.7046C47.0286 79.7046 46.7739 79.7046 46.5191 79.6188C46.0945 79.6188 45.6699 79.533 45.2452 79.4472C45.0754 79.4472 44.8206 79.3613 44.6508 79.3613C44.0563 79.2755 43.3769 79.1897 42.7825 79.018C42.2729 78.9322 41.8483 78.8464 41.3387 78.6747C40.9991 78.5889 40.7443 78.503 40.4046 78.4172C40.1498 78.3314 39.895 78.2456 39.6403 78.2456C39.3006 78.1597 38.9609 78.0739 38.7061 77.9881C38.4513 77.9022 38.1966 77.8164 37.9418 77.7306C37.6021 77.6448 37.2624 77.4731 36.9227 77.3873C36.6679 77.3014 36.4981 77.2156 36.2433 77.1298C35.6489 77.1298 35.3092 76.9581 34.8846 76.8723Z" fill="url(#paint5_linear_91_3929)"/>
<path d="M51.8693 55.6726L52.9733 54.2135L53.0582 54.1277L51.9542 55.5868L51.8693 55.6726Z" fill="#784E4A"/>
<path d="M37.3473 44.3433C37.0926 44.4292 36.9227 44.4292 36.6679 44.4292C36.583 44.4292 36.583 44.4292 36.4981 44.4292C36.3283 44.4292 36.1584 44.4292 35.9036 44.4292H35.8187C35.5639 44.4292 35.3941 44.4292 35.2242 44.4292C35.0544 44.4292 34.8846 44.3433 34.7147 44.3433C34.6298 44.3433 34.5449 44.2575 34.4599 44.2575C34.375 44.1717 34.2052 44.1717 34.1202 44.0858C34.1202 44.0858 34.0353 44.0858 34.0353 44C33.8655 43.9142 33.6956 43.8284 33.5258 43.6567C33.3559 43.485 33.1861 43.3992 33.1012 43.2276C32.9313 43.0559 32.8464 42.8842 32.6765 42.7126C32.5916 42.5409 32.5067 42.3693 32.4218 42.1976C32.3368 42.026 32.2519 41.8543 32.2519 41.5968C32.2519 41.5968 32.2519 41.5968 32.2519 41.511C32.2519 41.3393 32.167 41.0818 32.167 40.9102C32.167 40.0519 32.5067 39.1936 33.1861 38.2495L32.0821 39.7086C31.4027 40.6527 31.063 41.511 31.063 42.3693C31.063 42.4551 31.063 42.5409 31.063 42.5409C31.063 42.6268 31.063 42.7984 31.1479 42.8842C31.1479 42.8842 31.1479 42.8842 31.1479 42.9701C31.1479 42.9701 31.1479 42.9701 31.1479 43.0559C31.1479 43.1417 31.1479 43.1417 31.1479 43.2276C31.1479 43.3134 31.1479 43.3992 31.2328 43.3992L31.3178 43.5709L31.4027 43.7425L31.4876 43.9142L31.5725 44.0858L31.6575 44.1717C31.6575 44.2575 31.7424 44.2575 31.7424 44.3433C31.7424 44.4292 31.8273 44.4292 31.8273 44.515C31.9122 44.6008 31.9122 44.6008 31.9971 44.6866L32.0821 44.7725C32.167 44.8583 32.167 44.8583 32.2519 44.9441C32.3368 45.03 32.3368 45.0299 32.4218 45.0299L32.5067 45.1158C32.5067 45.1158 32.5067 45.1158 32.5916 45.1158C32.6765 45.2016 32.6765 45.2016 32.7615 45.2016C32.8464 45.2874 32.9313 45.2874 32.9313 45.3733C32.9313 45.3733 32.9313 45.3733 33.0162 45.3733C33.0162 45.3733 33.1012 45.3733 33.1012 45.4591C33.1861 45.4591 33.271 45.5449 33.3559 45.5449C33.4408 45.5449 33.4408 45.5449 33.5258 45.6307C33.6107 45.6307 33.6956 45.7166 33.7805 45.7166C33.8655 45.7166 33.8655 45.7166 33.9504 45.7166C34.0353 45.7166 34.2052 45.8024 34.2901 45.8024H34.4599C34.6298 45.8024 34.7996 45.8024 34.8846 45.8024C34.8846 45.8024 34.8846 45.8024 34.9695 45.8024H35.0544C35.1393 45.8024 35.2242 45.8024 35.3941 45.8024C35.479 45.8024 35.5639 45.8024 35.6489 45.8024C35.7338 45.8024 35.7338 45.8024 35.8187 45.8024H35.9036C36.0735 45.8024 36.2433 45.7166 36.4132 45.7166C36.4981 45.7166 36.4981 45.7166 36.583 45.7166C36.7529 45.7166 36.8378 45.6307 37.0076 45.6307C37.0926 45.6307 37.1775 45.5449 37.2624 45.5449L38.3664 44.0858C38.1117 44.1717 37.8569 44.2575 37.687 44.2575C37.5172 44.3433 37.4323 44.3433 37.3473 44.3433Z" fill="url(#paint6_linear_91_3929)"/>
<path d="M46.9437 50.008L48.0477 48.549L52.9733 54.2136L51.8693 55.6727L46.9437 50.008Z" fill="url(#paint7_linear_91_3929)"/>
<path d="M25.7128 35.9321L26.8168 34.473C26.9867 34.2155 27.2414 33.958 27.4113 33.7006L26.3073 35.1596C26.1374 35.4171 25.8826 35.6746 25.7128 35.9321Z" fill="#784E4A"/>
<path d="M26.3073 35.1597L27.4113 33.7006C27.666 33.3573 28.0057 33.0998 28.2605 32.7565L27.1565 34.2156C26.9017 34.5589 26.647 34.9022 26.3073 35.1597Z" fill="#7C514D"/>
<path d="M35.5639 36.962L36.6679 35.5029L42.7824 42.455L41.6784 43.9141L35.5639 36.962Z" fill="url(#paint8_linear_91_3929)"/>
<path d="M26.9017 27.006L28.0057 25.5469L31.9122 30.0099L30.8082 31.469L26.9017 27.006Z" fill="url(#paint9_linear_91_3929)"/>
<path d="M23.25 29.6666L24.354 28.2076L28.0057 25.5469L26.9017 27.006L23.25 29.6666Z" fill="#8A5A55"/>
<path d="M56.1155 42.3693C56.0305 42.2834 55.9456 42.2834 55.8607 42.1976C55.7758 42.1118 55.6059 42.0259 55.521 41.9401C55.521 41.9401 55.521 41.9401 55.4361 41.9401C55.1813 41.7685 54.8416 41.5968 54.5868 41.511C54.5868 41.511 54.5019 41.511 54.5019 41.4251H54.417C54.1622 41.3393 53.9074 41.2535 53.6527 41.1677C53.3979 41.0818 53.1431 40.996 52.8884 40.996C52.7185 40.996 52.5487 40.9102 52.4637 40.9102C52.3788 40.9102 52.2939 40.9102 52.209 40.9102C51.8693 40.8243 51.6145 40.8243 51.2748 40.8243C51.1899 40.8243 51.1899 40.8243 51.105 40.8243C51.02 40.8243 50.8502 40.8243 50.7653 40.8243C50.5954 40.8243 50.4256 40.8243 50.3406 40.8243C50.1708 40.8243 50.001 40.8243 49.8311 40.8243C49.7462 40.8243 49.6613 40.8243 49.6613 40.8243H49.5763C49.3216 40.8243 49.0668 40.9102 48.8969 40.9102C48.812 40.9102 48.6422 40.9102 48.5573 40.996C48.3874 40.996 48.1326 41.0818 47.9628 41.0818C47.708 41.1677 47.5382 41.1677 47.2834 41.2535C47.2834 41.2535 47.2834 41.2535 47.1985 41.2535C46.9437 41.3393 46.6889 41.4251 46.4342 41.4251C46.2643 41.4251 46.1794 41.511 46.0095 41.511C45.9246 41.511 45.8397 41.5968 45.7548 41.5968C45.3302 41.6826 44.9905 41.8543 44.5658 41.9401H44.4809C44.396 41.9401 44.396 41.9401 44.3111 42.0259C43.8865 42.1976 43.3769 42.3693 42.8674 42.5409L41.6784 43.9142C42.188 43.7425 42.6126 43.5708 43.1221 43.3992C43.2071 43.3992 43.2071 43.3992 43.292 43.3134C43.7166 43.1417 44.1412 43.0559 44.5658 42.8842C44.6508 42.8842 44.7357 42.7984 44.8206 42.7984C45.2452 42.7126 45.5849 42.5409 46.0095 42.4551C46.0095 42.4551 46.0095 42.4551 46.0945 42.4551C46.5191 42.3692 46.9437 42.2834 47.3683 42.1976C47.7929 42.1118 48.1326 42.1118 48.5573 42.0259C48.6422 42.0259 48.7271 42.0259 48.7271 42.0259C49.0668 42.0259 49.3216 42.0259 49.6613 42.0259C49.7462 42.0259 49.916 42.0259 50.001 42.0259C50.3406 42.0259 50.7653 42.1118 51.105 42.1976C51.1899 42.1976 51.2748 42.1976 51.2748 42.1976C51.6994 42.2834 52.0391 42.3692 52.4637 42.4551C52.7185 42.5409 52.9733 42.6267 53.2281 42.7126C53.313 42.7126 53.3979 42.7984 53.3979 42.7984C53.6527 42.8842 53.9924 43.0559 54.2471 43.2275H54.3321C54.5019 43.3134 54.5868 43.3992 54.7567 43.485C54.8416 43.5708 54.9265 43.5708 55.0114 43.6567C55.0964 43.6567 55.0964 43.7425 55.1813 43.7425C55.3511 43.8283 55.521 44 55.6059 44.0858C55.6908 44.1716 55.6908 44.1716 55.7758 44.2575C55.9456 44.3433 56.0305 44.515 56.2004 44.6008C56.2853 44.6866 56.3702 44.6866 56.3702 44.7724C56.4551 44.8583 56.625 45.0299 56.7099 45.1158C56.7948 45.2016 56.8798 45.2874 56.8798 45.2874C57.0496 45.4591 57.2195 45.6307 57.3893 45.8882C57.6441 46.1457 57.8139 46.4032 57.9838 46.6607L58.0687 46.7465C58.2385 47.004 58.4084 47.2615 58.5782 47.519L58.6632 47.6048C58.833 47.8623 59.0029 48.1197 59.0878 48.3772C59.0878 48.3772 59.0878 48.4631 59.1727 48.4631C59.3426 48.7205 59.4275 48.978 59.5124 49.2355C59.5124 49.3213 59.5124 49.3213 59.5973 49.4072C59.6823 49.6647 59.7672 49.9221 59.8521 50.1796V50.2655C59.937 50.5229 60.0219 50.8663 60.0219 51.1237C60.0219 51.2954 60.1069 51.4671 60.1069 51.6387C60.1069 51.8104 60.1918 51.982 60.1918 52.1537C60.1918 52.497 60.2767 52.8403 60.1918 53.2695C60.1918 54.2994 59.937 55.3293 59.5973 56.3593C59.1727 57.3892 58.6632 58.3333 57.8989 59.3633L59.0029 57.9042C60.5315 55.9301 61.2958 53.9561 61.2958 51.8962C61.2958 51.5529 61.2958 51.2096 61.2958 50.7804V50.6946C61.2958 50.5229 61.2958 50.4371 61.2109 50.2655C61.2109 50.0938 61.2109 49.9221 61.126 49.7505V49.6647C61.041 49.4072 61.041 49.1497 60.9561 48.978V48.8922C60.8712 48.7205 60.8712 48.5489 60.7863 48.3772C60.7863 48.2914 60.7013 48.2056 60.7013 48.1198C60.7013 48.0339 60.7013 48.0339 60.6164 47.9481V47.8623C60.5315 47.6906 60.4466 47.519 60.3616 47.3473C60.3616 47.2615 60.2767 47.2615 60.2767 47.1756C60.2767 47.1756 60.2767 47.0898 60.1918 47.0898C60.1918 47.004 60.1069 47.004 60.1069 46.9182C60.0219 46.7465 59.937 46.5748 59.8521 46.489C59.8521 46.4032 59.7672 46.4032 59.7672 46.3174L59.6822 46.2315C59.6822 46.1457 59.5973 46.1457 59.5973 46.0599C59.5124 45.8882 59.4275 45.7166 59.2576 45.6307L59.1727 45.5449L59.0878 45.4591C59.0029 45.3732 59.0029 45.2874 58.9179 45.2016C58.833 45.0299 58.6632 44.8583 58.4933 44.6866L58.4084 44.6008C58.2385 44.4291 58.1536 44.2575 57.9838 44.1716L57.8989 44.0858C57.9838 43.9142 57.8989 43.9142 57.8989 43.8283C57.8139 43.7425 57.729 43.6567 57.729 43.6567C57.6441 43.5708 57.6441 43.5708 57.5592 43.485C57.4742 43.3992 57.3893 43.3992 57.3893 43.3134L57.3044 43.2275C57.2195 43.1417 57.1345 43.0559 57.0496 42.97C56.9647 42.8842 56.9647 42.8842 56.8798 42.7984C56.8798 42.7984 56.8798 42.7984 56.7948 42.7126C56.625 42.6267 56.5401 42.5409 56.3702 42.3693C56.2004 42.3693 56.2004 42.3693 56.1155 42.3693Z" fill="url(#paint10_linear_91_3929)"/>
<path d="M52.4637 42.5409C54.2471 43.0559 55.9456 44.2575 57.4742 46.0599C59.4275 48.2914 60.3616 50.7804 60.3616 53.4411C60.2767 56.1018 59.0878 58.6766 56.625 61.0798L60.6164 65.7146L56.9647 68.3752L53.0582 63.9122C51.1899 65.1138 49.1517 66.0579 46.9437 66.6587C44.8206 67.2595 42.8674 67.517 41.084 67.3453L38.7061 60.8223C40.3197 60.9082 41.9332 60.7365 43.6317 60.3932C45.3302 59.9641 46.8588 59.3633 48.3025 58.5908L42.2729 51.7245C40.1498 52.497 38.1966 53.0978 36.4981 53.3553C34.7996 53.6986 33.1011 53.5269 31.3177 53.012C29.5344 52.497 27.8359 51.2954 26.2223 49.493C24.2691 47.1756 23.25 44.6866 23.3349 42.0259C23.4198 39.2794 24.6088 36.7904 27.0716 34.3014L23.0802 29.7525L26.7319 27.0918L30.6384 31.5549C33.8655 29.5808 37.0926 28.6367 40.2347 28.6367L42.8674 35.0738C39.98 35.2455 37.5172 35.9321 35.3941 37.0479L41.5086 44.0858C43.6317 43.2275 45.5 42.7126 47.1136 42.3692C48.9819 41.9401 50.6803 42.0259 52.4637 42.5409ZM37.0926 45.5449L31.9971 39.7086C31.3177 40.6527 30.9781 41.511 30.9781 42.3692C30.9781 43.2275 31.3178 44 31.9122 44.6866C32.5067 45.3732 33.271 45.8024 34.1202 45.8882C34.9695 46.0599 35.9886 45.8882 37.0926 45.5449ZM52.8884 53.0978C52.8884 52.2395 52.6336 51.5529 52.0391 50.8662C51.4447 50.1796 50.7653 49.7505 49.916 49.6647C49.0668 49.5788 48.1326 49.6647 46.9437 49.9221L51.8693 55.5868C52.5487 54.8144 52.8884 53.9561 52.8884 53.0978Z" fill="url(#paint11_linear_91_3929)"/>
<path d="M52.4637 42.5409C54.2471 43.0559 55.9456 44.2575 57.4742 46.0599C59.4275 48.2914 60.3616 50.7804 60.3616 53.4411C60.2767 56.1018 59.0878 58.6766 56.625 61.0798L60.6164 65.7146L56.9647 68.3752L53.0582 63.9122C51.1899 65.1138 49.1517 66.0579 46.9437 66.6587C44.8206 67.2595 42.8674 67.517 41.084 67.3453L38.7061 60.8223C40.3197 60.9082 41.9332 60.7365 43.6317 60.3932C45.3302 59.9641 46.8588 59.3633 48.3025 58.5908L42.2729 51.7245C40.1498 52.497 38.1966 53.0978 36.4981 53.3553C34.7996 53.6986 33.1011 53.5269 31.3178 53.012C29.5344 52.497 27.8359 51.2954 26.2223 49.493C24.2691 47.1756 23.25 44.6866 23.3349 42.0259C23.4198 39.2794 24.6088 36.7904 27.0716 34.3014L23.0802 29.7525L26.7319 27.0918L30.6384 31.5549C33.8655 29.5808 37.0926 28.6367 40.2347 28.6367L42.8674 35.0738C39.98 35.2455 37.5172 35.9321 35.3941 37.0479L41.5086 44.0858C43.6317 43.2275 45.5 42.7126 47.1135 42.3692C48.9819 41.9401 50.6803 42.0259 52.4637 42.5409ZM37.0926 45.5449L31.9971 39.7086C31.3177 40.6527 30.9781 41.511 30.9781 42.3692C30.9781 43.2275 31.3178 44 31.9122 44.6866C32.5067 45.3732 33.271 45.8024 34.1202 45.8882C34.9695 46.0599 35.9886 45.8882 37.0926 45.5449ZM52.8884 53.0978C52.8884 52.2395 52.6336 51.5529 52.0391 50.8662C51.4447 50.1796 50.7653 49.7505 49.916 49.6647C49.0668 49.5788 48.1326 49.6647 46.9437 49.9221L51.8693 55.5868C52.5487 54.8144 52.8884 53.9561 52.8884 53.0978Z" stroke="url(#paint12_linear_91_3929)" stroke-width="0.5" stroke-miterlimit="10"/>
<path d="M40.4046 28.5509L42.9523 34.988L44.1412 33.4431L41.5086 27.0918L40.4046 28.5509Z" fill="url(#paint13_linear_91_3929)"/>
<path d="M32.9313 30.3533C33.1012 30.2675 33.3559 30.1816 33.5258 30.0958C33.6956 30.01 33.9504 29.9241 34.1202 29.8383C34.2901 29.7525 34.4599 29.6667 34.6298 29.6667C34.8845 29.5808 35.0544 29.495 35.3092 29.4092C35.479 29.3233 35.6489 29.3233 35.8187 29.2375C36.0735 29.1517 36.2433 29.1517 36.4981 29.0659C36.6679 29.0659 36.8378 28.98 36.9227 28.98C37.1775 28.8942 37.4323 28.8942 37.6021 28.8084C37.772 28.8084 37.8569 28.7225 38.0267 28.7225C38.2815 28.7225 38.5363 28.6367 38.7061 28.6367C38.876 28.6367 38.9609 28.6367 39.1307 28.5509C39.4704 28.5509 39.895 28.4651 40.2347 28.4651L41.3387 27.006C40.9991 27.006 40.6594 27.006 40.3197 27.0918H40.2347C40.0649 27.0918 39.98 27.0918 39.8101 27.1776C39.6403 27.1776 39.3855 27.1776 39.2157 27.2635H39.1307C38.9609 27.2635 38.876 27.3493 38.7061 27.3493C38.5363 27.3493 38.3664 27.4351 38.1966 27.4351C38.1116 27.4351 38.1116 27.4351 38.0267 27.521C37.8569 27.521 37.687 27.6068 37.6021 27.6068C37.4323 27.6068 37.3473 27.6926 37.1775 27.6926C37.0926 27.6926 37.0076 27.7784 36.9227 27.7784C36.7529 27.8643 36.583 27.8643 36.4132 27.9501C36.3283 27.9501 36.1584 28.0359 36.0735 28.0359C35.9886 28.0359 35.8187 28.1218 35.7338 28.1218C35.5639 28.2076 35.3941 28.2934 35.2242 28.2934C35.1393 28.2934 35.0544 28.3792 34.9695 28.3792C34.8845 28.4651 34.7147 28.4651 34.6298 28.5509C34.4599 28.6367 34.2052 28.7226 34.0353 28.8084C33.9504 28.8084 33.8655 28.8942 33.7805 28.8942C33.6956 28.98 33.5258 28.98 33.4408 29.0659C33.1861 29.1517 33.0162 29.3233 32.7615 29.4092C32.6765 29.495 32.5916 29.495 32.5067 29.5808C32.3368 29.6667 32.0821 29.8383 31.9122 29.9241L30.8082 31.3832C31.1479 31.2116 31.4027 31.0399 31.7424 30.8683C31.9971 30.7824 32.167 30.6108 32.4218 30.5249C32.5916 30.5249 32.7615 30.4391 32.9313 30.3533Z" fill="url(#paint14_linear_91_3929)"/>
<path d="M66.3912 29.6667C73.1002 37.3912 76.4122 46.4032 76.4122 54.8144C76.3273 63.2256 72.8454 70.8643 66.0515 75.9282C59.1727 80.992 50.3406 82.4511 41.4237 80.6487C32.5067 78.8463 23.5897 73.9541 16.8807 66.2296C10.1717 58.505 6.85973 49.493 6.85973 41.0819C6.94465 32.6707 10.4265 25.032 17.2204 19.9681C24.0992 14.9042 32.9313 13.4451 41.8483 15.2475C50.8502 16.9641 59.6822 21.9421 66.3912 29.6667Z" stroke="url(#paint15_linear_91_3929)" stroke-width="0.5" stroke-miterlimit="10"/>
<defs>
<linearGradient id="paint0_linear_91_3929" x1="21.5992" y1="3.10571" x2="91.3102" y2="56.1468" gradientUnits="userSpaceOnUse">
<stop offset="0.1136" stop-color="#D7AC4C"/>
<stop offset="0.1816" stop-color="#FFFFB0"/>
<stop offset="0.3268" stop-color="#F4D174"/>
<stop offset="0.3659" stop-color="#FBED99"/>
<stop offset="0.3939" stop-color="#FAEC97"/>
<stop offset="0.433" stop-color="#DEB04D"/>
<stop offset="0.5275" stop-color="#DFB24F"/>
<stop offset="0.5615" stop-color="#E2B756"/>
<stop offset="0.5858" stop-color="#E7C161"/>
<stop offset="0.6053" stop-color="#EECF72"/>
<stop offset="0.6207" stop-color="#F6DF86"/>
<stop offset="0.7529" stop-color="#F2D87E"/>
<stop offset="0.7672" stop-color="#F1D77D"/>
<stop offset="0.7716" stop-color="#EBCD71"/>
<stop offset="0.7804" stop-color="#E2BE60"/>
<stop offset="0.7913" stop-color="#DCB455"/>
<stop offset="0.8066" stop-color="#D8AE4E"/>
<stop offset="0.8492" stop-color="#D7AC4C"/>
<stop offset="1" stop-color="#966424"/>
</linearGradient>
<linearGradient id="paint1_linear_91_3929" x1="57.2681" y1="82.0005" x2="13.4532" y2="-11.5982" gradientUnits="userSpaceOnUse">
<stop stop-color="#D2AB5A"/>
<stop offset="0.0610851" stop-color="#BA9443"/>
<stop offset="0.1898" stop-color="#7C5808"/>
<stop offset="0.2069" stop-color="#735000"/>
<stop offset="0.2274" stop-color="#775200"/>
<stop offset="0.3376" stop-color="#8A5D00"/>
<stop offset="0.4146" stop-color="#916100"/>
<stop offset="0.4344" stop-color="#976707"/>
<stop offset="0.4986" stop-color="#D8B364"/>
<stop offset="0.5246" stop-color="#D4AE5D"/>
<stop offset="0.5617" stop-color="#CA9F4A"/>
<stop offset="0.6053" stop-color="#B9882C"/>
<stop offset="0.6414" stop-color="#A8700D"/>
<stop offset="0.6805" stop-color="#815400"/>
<stop offset="0.8029" stop-color="#B38116"/>
<stop offset="0.8267" stop-color="#A27114"/>
<stop offset="0.8802" stop-color="#815110"/>
<stop offset="0.9247" stop-color="#6C3D0E"/>
<stop offset="0.9545" stop-color="#65360D"/>
<stop offset="0.9581" stop-color="#6F3F0D"/>
<stop offset="0.9701" stop-color="#8A580C"/>
<stop offset="0.9807" stop-color="#9B670C"/>
<stop offset="0.9886" stop-color="#A16C0C"/>
</linearGradient>
<linearGradient id="paint2_linear_91_3929" x1="66.4115" y1="107.906" x2="16.6141" y2="-10.1997" gradientUnits="userSpaceOnUse">
<stop stop-color="#D2AB5A"/>
<stop offset="0.0610851" stop-color="#BA9443"/>
<stop offset="0.1898" stop-color="#7C5808"/>
<stop offset="0.2069" stop-color="#735000"/>
<stop offset="0.2274" stop-color="#775200"/>
<stop offset="0.3376" stop-color="#8A5D00"/>
<stop offset="0.4146" stop-color="#916100"/>
<stop offset="0.4344" stop-color="#976707"/>
<stop offset="0.4986" stop-color="#D8B364"/>
<stop offset="0.5246" stop-color="#D4AE5D"/>
<stop offset="0.5617" stop-color="#CA9F4A"/>
<stop offset="0.6053" stop-color="#B9882C"/>
<stop offset="0.6414" stop-color="#A8700D"/>
<stop offset="0.6805" stop-color="#815400"/>
<stop offset="0.8029" stop-color="#B38116"/>
<stop offset="0.8267" stop-color="#A27114"/>
<stop offset="0.8802" stop-color="#815110"/>
<stop offset="0.9247" stop-color="#6C3D0E"/>
<stop offset="0.9545" stop-color="#65360D"/>
<stop offset="0.9581" stop-color="#6F3F0D"/>
<stop offset="0.9701" stop-color="#8A580C"/>
<stop offset="0.9807" stop-color="#9B670C"/>
<stop offset="0.9886" stop-color="#A16C0C"/>
</linearGradient>
<linearGradient id="paint3_linear_91_3929" x1="76.8159" y1="80.3368" x2="50.1115" y2="63.2147" gradientUnits="userSpaceOnUse">
<stop stop-color="#A16C0C"/>
<stop offset="0.2318" stop-color="#BE9134"/>
<stop offset="0.5559" stop-color="#A8700D"/>
<stop offset="1" stop-color="#432400"/>
</linearGradient>
<linearGradient id="paint4_linear_91_3929" x1="71.8116" y1="74.779" x2="58.945" y2="62.6846" gradientUnits="userSpaceOnUse">
<stop stop-color="#A16C0C"/>
<stop offset="0.2318" stop-color="#BE9134"/>
<stop offset="0.5559" stop-color="#A8700D"/>
<stop offset="1" stop-color="#432400"/>
</linearGradient>
<linearGradient id="paint5_linear_91_3929" x1="109.818" y1="89.3084" x2="10.9156" y2="46.149" gradientUnits="userSpaceOnUse">
<stop stop-color="#A16C0C"/>
<stop offset="0.2318" stop-color="#BE9134"/>
<stop offset="0.5559" stop-color="#A8700D"/>
<stop offset="1" stop-color="#432400"/>
</linearGradient>
<linearGradient id="paint6_linear_91_3929" x1="64.3444" y1="54.2325" x2="31.4522" y2="41.5935" gradientUnits="userSpaceOnUse">
<stop stop-color="#A16C0C"/>
<stop offset="0.2318" stop-color="#BE9134"/>
<stop offset="0.5559" stop-color="#A8700D"/>
<stop offset="1" stop-color="#432400"/>
</linearGradient>
<linearGradient id="paint7_linear_91_3929" x1="63.9675" y1="63.9899" x2="50.4748" y2="52.7587" gradientUnits="userSpaceOnUse">
<stop stop-color="#A16C0C"/>
<stop offset="0.2318" stop-color="#BE9134"/>
<stop offset="0.4314" stop-color="#A8700D"/>
<stop offset="1" stop-color="#432400"/>
</linearGradient>
<linearGradient id="paint8_linear_91_3929" x1="48.7629" y1="49.7317" x2="35.2237" y2="35.8815" gradientUnits="userSpaceOnUse">
<stop stop-color="#A16C0C"/>
<stop offset="0.2318" stop-color="#BE9134"/>
<stop offset="0.5559" stop-color="#A8700D"/>
<stop offset="1" stop-color="#432400"/>
</linearGradient>
<linearGradient id="paint9_linear_91_3929" x1="62.5855" y1="40.589" x2="30.6623" y2="29.2178" gradientUnits="userSpaceOnUse">
<stop stop-color="#A16C0C"/>
<stop offset="0.2318" stop-color="#BE9134"/>
<stop offset="0.5559" stop-color="#A8700D"/>
<stop offset="1" stop-color="#432400"/>
</linearGradient>
<linearGradient id="paint10_linear_91_3929" x1="74.4144" y1="62.0973" x2="51.9859" y2="47.9366" gradientUnits="userSpaceOnUse">
<stop stop-color="#A16C0C"/>
<stop offset="0.2318" stop-color="#BE9134"/>
<stop offset="0.5559" stop-color="#A8700D"/>
<stop offset="1" stop-color="#432400"/>
</linearGradient>
<linearGradient id="paint11_linear_91_3929" x1="10.4586" y1="-10.0884" x2="64.204" y2="86.6455" gradientUnits="userSpaceOnUse">
<stop stop-color="#D2AB5A"/>
<stop offset="0.0610851" stop-color="#BA9443"/>
<stop offset="0.1898" stop-color="#7C5808"/>
<stop offset="0.2069" stop-color="#735000"/>
<stop offset="0.2274" stop-color="#775200"/>
<stop offset="0.3376" stop-color="#8A5D00"/>
<stop offset="0.4146" stop-color="#916100"/>
<stop offset="0.4344" stop-color="#976707"/>
<stop offset="0.4986" stop-color="#D8B364"/>
<stop offset="0.5246" stop-color="#D4AE5D"/>
<stop offset="0.5617" stop-color="#CA9F4A"/>
<stop offset="0.6053" stop-color="#B9882C"/>
<stop offset="0.6414" stop-color="#A8700D"/>
<stop offset="0.6805" stop-color="#815400"/>
<stop offset="0.8029" stop-color="#B38116"/>
<stop offset="0.8267" stop-color="#A27114"/>
<stop offset="0.8802" stop-color="#815110"/>
<stop offset="0.9247" stop-color="#6C3D0E"/>
<stop offset="0.9545" stop-color="#65360D"/>
<stop offset="0.9581" stop-color="#6F3F0D"/>
<stop offset="0.9701" stop-color="#8A580C"/>
<stop offset="0.9807" stop-color="#9B670C"/>
<stop offset="0.9886" stop-color="#A16C0C"/>
</linearGradient>
<linearGradient id="paint12_linear_91_3929" x1="22.9296" y1="47.6971" x2="60.9502" y2="47.6971" gradientUnits="userSpaceOnUse">
<stop stop-color="#D2AB5A"/>
<stop offset="0.0610851" stop-color="#BA9443"/>
<stop offset="0.1898" stop-color="#7C5808"/>
<stop offset="0.2069" stop-color="#735000"/>
<stop offset="0.2274" stop-color="#775200"/>
<stop offset="0.3376" stop-color="#8A5D00"/>
<stop offset="0.4146" stop-color="#916100"/>
<stop offset="0.4344" stop-color="#976707"/>
<stop offset="0.4986" stop-color="#D8B364"/>
<stop offset="0.5246" stop-color="#D4AE5D"/>
<stop offset="0.5617" stop-color="#CA9F4A"/>
<stop offset="0.6053" stop-color="#B9882C"/>
<stop offset="0.6414" stop-color="#A8700D"/>
<stop offset="0.6805" stop-color="#815400"/>
<stop offset="0.8029" stop-color="#B38116"/>
<stop offset="0.8267" stop-color="#A27114"/>
<stop offset="0.8802" stop-color="#815110"/>
<stop offset="0.9247" stop-color="#6C3D0E"/>
<stop offset="0.9545" stop-color="#65360D"/>
<stop offset="0.9581" stop-color="#6F3F0D"/>
<stop offset="0.9701" stop-color="#8A580C"/>
<stop offset="0.9807" stop-color="#9B670C"/>
<stop offset="0.9886" stop-color="#A16C0C"/>
</linearGradient>
<linearGradient id="paint13_linear_91_3929" x1="76.272" y1="49.0998" x2="42.5203" y2="31.5314" gradientUnits="userSpaceOnUse">
<stop stop-color="#A16C0C"/>
<stop offset="0.2318" stop-color="#BE9134"/>
<stop offset="0.5559" stop-color="#A8700D"/>
<stop offset="1" stop-color="#432400"/>
</linearGradient>
<linearGradient id="paint14_linear_91_3929" x1="63.1184" y1="39.0929" x2="31.1952" y2="27.7217" gradientUnits="userSpaceOnUse">
<stop stop-color="#A16C0C"/>
<stop offset="0.2318" stop-color="#BE9134"/>
<stop offset="0.5559" stop-color="#A8700D"/>
<stop offset="1" stop-color="#432400"/>
</linearGradient>
<linearGradient id="paint15_linear_91_3929" x1="55.4542" y1="81.3613" x2="27.3372" y2="14.6759" gradientUnits="userSpaceOnUse">
<stop stop-color="#D2AB5A"/>
<stop offset="0.0610851" stop-color="#BA9443"/>
<stop offset="0.1898" stop-color="#7C5808"/>
<stop offset="0.2069" stop-color="#735000"/>
<stop offset="0.2274" stop-color="#775200"/>
<stop offset="0.3376" stop-color="#8A5D00"/>
<stop offset="0.4146" stop-color="#916100"/>
<stop offset="0.4344" stop-color="#976707"/>
<stop offset="0.4986" stop-color="#D8B364"/>
<stop offset="0.5246" stop-color="#D4AE5D"/>
<stop offset="0.5617" stop-color="#CA9F4A"/>
<stop offset="0.6053" stop-color="#B9882C"/>
<stop offset="0.6414" stop-color="#A8700D"/>
<stop offset="0.6805" stop-color="#815400"/>
<stop offset="0.8029" stop-color="#B38116"/>
<stop offset="0.8267" stop-color="#A27114"/>
<stop offset="0.8802" stop-color="#815110"/>
<stop offset="0.9247" stop-color="#6C3D0E"/>
<stop offset="0.9545" stop-color="#65360D"/>
<stop offset="0.9581" stop-color="#6F3F0D"/>
<stop offset="0.9701" stop-color="#8A580C"/>
<stop offset="0.9807" stop-color="#9B670C"/>
<stop offset="0.9886" stop-color="#A16C0C"/>
</linearGradient>
</defs>
</svg>
