<svg width="79" height="73" viewBox="0 0 79 73" fill="none" xmlns="http://www.w3.org/2000/svg">
<g opacity="0.4" filter="url(#filter0_f_92_3937)">
<path d="M18.5603 55.773C18.8055 56.0911 19.0645 56.3415 19.405 56.5382C21.4962 57.8969 25.3085 57.3231 27.6639 56.5641C34.4038 54.5023 40.4231 50.5865 45.9563 46.2893C51.6643 41.6894 57.0392 36.4431 60.7013 30.0565C61.9582 27.7047 63.572 24.2977 62.5081 21.6403C62.3903 21.32 62.2049 20.9859 61.9975 20.6896C62.143 20.8745 62.9004 21.791 63.3369 22.3458C63.3449 22.3756 63.3827 22.3974 63.3907 22.4273C63.4365 22.479 63.4904 22.5605 63.5362 22.6122C63.574 22.634 63.59 22.6937 63.598 22.7236L63.606 22.7534C64.0468 23.5628 64.227 24.4741 64.2063 25.4711C64.1924 25.5388 64.2164 25.6283 64.2026 25.696C64.1887 25.7637 64.2047 25.8234 64.1909 25.8911C64.0301 27.9172 63.0418 30.197 61.7886 32.3239C61.7449 32.3996 61.6794 32.5131 61.6357 32.5887C60.148 35.0343 58.3278 37.3132 57.0202 38.8789C56.9249 39.0004 56.8295 39.122 56.7261 39.2136C56.5274 39.4268 56.3286 39.64 56.1378 39.883C55.9391 40.0962 55.7403 40.3093 55.5496 40.5524C55.3807 40.7575 55.2038 40.9329 55.0269 41.1082C52.2283 44.033 48.7136 47.1497 44.8722 50.0021C44.8205 50.0479 44.7907 50.0559 44.739 50.1018C41.0745 52.7788 37.1429 55.1756 33.2662 56.8221C32.9241 56.9777 32.6039 57.0955 32.2916 57.2431C32.0907 57.329 31.86 57.4228 31.6511 57.4787C29.3277 58.3571 27.0518 58.935 24.8967 59.1286C24.7694 59.1308 24.642 59.1329 24.5147 59.1351C24.3873 59.1372 24.2599 59.1393 24.1326 59.1415C22.2658 59.098 20.8781 58.5742 20.0291 57.5543L18.5603 55.773Z" fill="url(#paint0_linear_92_3937)"/>
<path d="M16.5762 60.7824C11.1714 52.6674 29.4952 35.3477 35.5752 30.5841C41.5299 25.95 60.7227 13.0672 67.3099 19.746L61.8961 12.4329C60.2157 10.1006 55.3861 10.3392 52.4397 11.1607C41.8699 14.0888 32.6519 20.7487 24.6207 28.0181C19.0151 33.3582 10.1404 42.6127 10.172 50.7282C10.2307 51.5441 10.4546 52.3797 10.8714 53.0996C11.0649 53.4635 16.3529 60.4265 16.5762 60.7824Z" fill="url(#paint1_linear_92_3937)"/>
<path d="M22.013 62.3321C26.4983 62.1218 32.9473 59.6902 40.2076 55.154C47.468 50.6179 54.2273 44.8087 59.2494 39.0813C64.3013 33.3458 67.6239 27.7218 68.003 23.5263C68.4119 19.3227 65.8085 17.3656 61.3311 17.6058C56.8159 17.8242 50.3968 20.2478 43.1365 24.7839C35.8761 29.32 29.087 35.1372 24.0649 40.8647C19.0428 46.5922 15.7202 52.2161 15.3113 56.4197C14.9242 60.5854 17.4977 62.5505 22.013 62.3321ZM19.4348 56.5302C19.1534 55.838 19.0569 55.0002 19.1373 53.9872C19.4892 50.4066 22.3233 45.5853 26.61 40.6945C30.9266 35.7957 36.666 30.8355 42.9182 26.9534C49.1405 23.0792 54.6366 21.0308 58.4852 20.8312C60.1548 20.7356 61.5382 21.0046 62.5081 21.6403C62.8188 21.8449 63.0997 22.0575 63.3368 22.3458C63.3448 22.3756 63.3827 22.3975 63.3907 22.4273C63.4365 22.479 63.4903 22.5605 63.5362 22.6122C63.574 22.634 63.59 22.6937 63.598 22.7236L63.606 22.7534C64.0526 23.4653 64.2627 24.3686 64.2063 25.4711C64.2004 25.5687 64.2164 25.6283 64.2026 25.696C64.1887 25.7637 64.2047 25.8234 64.1909 25.8911C64.02 27.76 63.1648 29.9401 61.7886 32.3239C61.7449 32.3996 61.6793 32.5131 61.6357 32.5887C60.448 34.6021 58.8724 36.7195 57.0202 38.8789C56.9248 39.0005 56.8295 39.122 56.7261 39.2136C56.5273 39.4268 56.3286 39.64 56.1378 39.883C55.9391 40.0962 55.7403 40.3094 55.5496 40.5524C55.3807 40.7575 55.2038 40.9329 55.0268 41.1082C52.0813 44.2004 48.6102 47.2414 44.8722 50.0021C44.8205 50.0479 44.7906 50.0559 44.739 50.1018C43.3471 51.1144 41.9094 52.0753 40.4558 52.9766C37.9044 54.5558 35.4979 55.8403 33.2662 56.8221C32.954 56.9697 32.6039 57.0955 32.2916 57.2431C32.0907 57.329 31.86 57.4228 31.6511 57.4787C29.0751 58.4888 26.7832 59.007 24.8967 59.1286C24.7694 59.1308 24.642 59.1329 24.5146 59.1351C24.3873 59.1372 24.2599 59.1394 24.1326 59.1415C22.2658 59.098 20.8781 58.5742 20.0291 57.5543C19.7461 57.2144 19.5606 56.8803 19.4348 56.5302Z" fill="url(#paint2_linear_92_3937)"/>
<path d="M19.413 56.568C19.1315 55.8758 19.035 55.0381 19.1154 54.025C19.4673 50.4445 22.3014 45.6231 26.5881 40.7323C30.9047 35.8335 36.6442 30.8734 42.8963 26.9912C49.1186 23.117 54.6148 21.0686 58.4633 20.869C60.1329 20.7735 61.5163 21.0425 62.4863 21.6781C63.5502 24.3356 61.9363 27.7425 60.6794 30.0943C57.0173 36.4809 51.6424 41.7272 45.9643 46.3192C40.439 50.6462 34.4118 54.5321 27.6718 56.5939C25.3165 57.353 21.526 57.8889 19.413 56.568Z" fill="url(#paint3_linear_92_3937)"/>
<path d="M38.9931 47.9952L37.5999 46.2575L37.4253 48.3513L38.8105 50.0591L38.9931 47.9952Z" fill="url(#paint4_linear_92_3937)"/>
<path d="M42.3396 40.6697C42.3097 40.6777 42.2879 40.7155 42.258 40.7235C42.1328 40.853 41.9698 40.9607 41.8147 41.0982C41.7928 41.136 41.7332 41.152 41.7113 41.1898C41.5563 41.3273 41.3714 41.4728 41.1864 41.6183L42.5716 43.3262C42.7048 43.2265 42.838 43.1268 42.9712 43.0272C43.0229 42.9813 43.0746 42.9355 43.1343 42.9195C43.1561 42.8817 43.2158 42.8657 43.2377 42.8278C43.2595 42.79 43.3192 42.774 43.341 42.7362C43.4444 42.6445 43.5478 42.5528 43.6512 42.4612C43.6512 42.4612 43.681 42.4532 43.673 42.4233C43.7029 42.4153 43.7247 42.3775 43.7545 42.3695C43.8361 42.3157 43.9096 42.232 43.9613 42.1862C44.013 42.1403 44.0348 42.1025 44.0865 42.0567C44.1084 42.0188 44.16 41.973 44.1899 41.965C44.3151 41.8355 44.4185 41.7438 44.5139 41.6223C44.6092 41.5008 44.6828 41.4171 44.7483 41.3036C44.7702 41.2658 44.8 41.2578 44.8218 41.2199C44.8437 41.1821 44.8655 41.1443 44.8954 41.1363C44.9391 41.0606 44.9609 41.0228 45.0046 40.9471C45.0265 40.9093 45.0403 40.8416 45.0621 40.8037C45.084 40.7659 45.1058 40.7281 45.1277 40.6902C45.1277 40.6902 45.1277 40.6902 45.1197 40.6604C45.1117 40.6305 45.1415 40.6225 45.1335 40.5927C45.1554 40.5549 45.1474 40.525 45.1692 40.4872C45.1612 40.4573 45.1831 40.4195 45.1831 40.4195C45.1751 40.3897 45.1969 40.3518 45.1969 40.3518C45.1889 40.322 45.1889 40.322 45.1809 40.2921L45.1729 40.2623C45.1649 40.2325 45.1649 40.2325 45.1569 40.2026L45.149 40.1728L43.71 38.3834C43.7478 38.4053 43.7638 38.465 43.7718 38.4948C43.7878 38.5545 43.7958 38.5843 43.7819 38.652C43.7681 38.7197 43.7622 38.8172 43.7185 38.8929C43.6828 38.9984 43.6392 39.0741 43.6035 39.1796C43.5598 39.2553 43.4942 39.3688 43.4207 39.4524C43.3989 39.4903 43.369 39.4983 43.3472 39.5361C43.2816 39.6496 43.1783 39.7413 43.1127 39.8548C43.0173 39.9763 42.914 40.068 42.7887 40.1975C42.7669 40.2353 42.7152 40.2812 42.6854 40.2892C42.5681 40.4485 42.4648 40.5402 42.3396 40.6697Z" fill="url(#paint5_linear_92_3937)"/>
<path d="M35.6281 44.8668C35.4869 44.9367 35.3158 45.0145 35.1746 45.0843C35.0036 45.1621 34.8325 45.2399 34.6236 45.2959C34.3332 45.4057 34.0428 45.5155 33.7822 45.6173C33.4918 45.7271 33.2013 45.8369 32.9029 45.9169L34.2881 47.6247C34.497 47.5687 34.7277 47.4749 34.9366 47.419C35.0261 47.395 35.1077 47.3411 35.1673 47.3251C35.4578 47.2153 35.7482 47.1055 36.0088 47.0037C36.1281 46.9718 36.2395 46.9099 36.3589 46.8779C36.4185 46.8619 36.5001 46.8081 36.5598 46.7921C36.701 46.7223 36.872 46.6445 37.0132 46.5747C37.1544 46.5048 37.3037 46.4649 37.4449 46.395C37.5562 46.3332 37.6676 46.2714 37.787 46.2394C37.8983 46.1776 38.0097 46.1158 38.1291 46.0838C38.2106 46.0299 38.3001 46.006 38.3817 45.9521C38.6641 45.8125 38.9385 45.643 39.2508 45.4954L37.8656 43.7875C37.4718 43.989 37.1079 44.1825 36.7439 44.376C36.6326 44.4378 36.5212 44.4996 36.4018 44.5316C36.1412 44.6334 35.8807 44.7352 35.6281 44.8668Z" fill="url(#paint6_linear_92_3937)"/>
<path d="M32.3817 51.0141L30.9965 49.3063L32.8731 45.9249L34.2583 47.6327L32.3817 51.0141Z" fill="url(#paint7_linear_92_3937)"/>
<path d="M39.5553 42.2153L38.1622 40.4777L37.8496 43.7278L39.2428 45.4655L39.5553 42.2153Z" fill="url(#paint8_linear_92_3937)"/>
<path d="M42.28 35.7921C42.0791 35.8779 41.916 35.9856 41.7151 36.0714L43.1003 37.7792C43.3012 37.6934 43.4941 37.5777 43.6651 37.4999C43.7248 37.4839 43.7765 37.4381 43.8362 37.4221C43.9774 37.3523 44.0888 37.2904 44.23 37.2206C44.2598 37.2126 44.3195 37.1966 44.3414 37.1588C44.4826 37.089 44.6238 37.0191 44.765 36.9493C44.8247 36.9333 44.9062 36.8795 44.9659 36.8635C45.0773 36.8017 45.1966 36.7697 45.2782 36.7159C45.3378 36.6999 45.4194 36.646 45.479 36.6301C45.5606 36.5762 45.6799 36.5442 45.7615 36.4904C45.8212 36.4744 45.9027 36.4206 45.9624 36.4046C46.0519 36.3806 46.1334 36.3268 46.2229 36.3028C46.2528 36.2948 46.3125 36.2788 46.3343 36.241C46.5651 36.1472 46.7958 36.0533 46.9967 35.9675C47.1379 35.8977 47.2871 35.8577 47.4065 35.8257C47.4363 35.8177 47.4662 35.8098 47.496 35.8018C47.675 35.7538 47.8461 35.676 48.0251 35.628C48.055 35.62 48.055 35.62 48.0848 35.612C48.2639 35.564 48.4131 35.524 48.5703 35.5139C48.6001 35.5059 48.63 35.4979 48.6598 35.4899C48.817 35.4798 48.9662 35.4398 49.0936 35.4377C49.1234 35.4297 49.1533 35.4217 49.1613 35.4515C49.3185 35.4414 49.4458 35.4392 49.5812 35.4669C49.8738 35.4845 50.1306 35.6076 50.2761 35.7925L48.891 34.0846C48.7455 33.8997 48.5264 33.7985 48.196 33.7591C48.0687 33.7612 47.9333 33.7335 47.7761 33.7437C47.7463 33.7517 47.7463 33.7517 47.7084 33.7298C47.5811 33.732 47.4239 33.7421 47.2747 33.7821C47.2448 33.7901 47.215 33.7981 47.1851 33.8061C47.0359 33.8461 46.8489 33.8642 46.6997 33.9042C46.6698 33.9122 46.6698 33.9122 46.64 33.9202C46.4609 33.9681 46.2819 34.0161 46.1108 34.0939C46.081 34.1019 46.081 34.1019 46.0512 34.1099L46.0213 34.1179C45.8721 34.1579 45.7309 34.2277 45.6115 34.2597C45.4106 34.3455 45.1799 34.4393 44.9492 34.5331C44.9193 34.5411 44.9193 34.5411 44.8895 34.5491C44.8596 34.5571 44.8596 34.5571 44.8298 34.5651C44.7403 34.5891 44.6587 34.6429 44.5692 34.6669C44.5095 34.6829 44.428 34.7368 44.3683 34.7527C44.2788 34.7767 44.1674 34.8386 44.0859 34.8924C44.0262 34.9084 43.9447 34.9622 43.885 34.9782C43.7736 35.04 43.6543 35.072 43.5727 35.1258C43.5131 35.1418 43.4614 35.1877 43.3718 35.2117C43.2306 35.2815 43.0894 35.3513 42.9482 35.4211C42.9184 35.4291 42.8885 35.4371 42.8368 35.483C42.6956 35.5528 42.5246 35.6306 42.3535 35.7084C42.3397 35.7761 42.3098 35.7841 42.28 35.7921Z" fill="url(#paint9_linear_92_3937)"/>
<path d="M38.2154 40.0796C38.3049 40.0556 38.4323 40.0535 38.5517 40.0215C38.5815 40.0135 38.6412 39.9975 38.671 39.9895C38.7606 39.9655 38.8501 39.9415 38.9695 39.9095L38.9993 39.9015C39.1187 39.8695 39.23 39.8077 39.3792 39.7677C39.4091 39.7597 39.4688 39.7438 39.4986 39.7358C39.5583 39.7198 39.6398 39.6659 39.6995 39.6499C39.789 39.626 39.8407 39.5801 39.9302 39.5561L38.5451 37.8483C38.374 37.9261 38.2248 37.9661 38.0836 38.0359C38.0538 38.0439 37.9941 38.0599 37.9642 38.0679C37.823 38.1377 37.6738 38.1777 37.5545 38.2097C37.4649 38.2337 37.3754 38.2577 37.256 38.2897C37.2262 38.2977 37.1665 38.3137 37.1367 38.3217C37.0173 38.3536 36.8979 38.3856 36.8004 38.3798C36.5537 38.4139 36.4183 38.3862 36.3267 38.2828L37.7417 39.9826C37.8333 40.086 37.9985 40.1057 38.2154 40.0796Z" fill="url(#paint10_linear_92_3937)"/>
<path d="M40.0781 36.7659L38.6849 35.0282L38.4374 37.6853L39.8225 39.3931L40.0781 36.7659Z" fill="url(#paint11_linear_92_3937)"/>
<path d="M44.8519 31.4247C45.2675 31.1854 45.6911 30.976 46.1068 30.7367C46.2182 30.6748 46.3295 30.613 46.4191 30.589C46.7313 30.4414 47.0356 30.2639 47.3479 30.1163C47.6601 29.9686 47.9724 29.821 48.2846 29.6733C48.4855 29.5875 48.6864 29.5017 48.8873 29.4159C48.947 29.3999 49.0067 29.3839 49.0285 29.3461C49.1996 29.2683 49.3707 29.1904 49.5497 29.1425C49.6094 29.1265 49.6392 29.1185 49.6909 29.0726C49.8918 28.9868 50.0709 28.9389 50.2718 28.853C50.3613 28.8291 50.421 28.8131 50.5105 28.7891C50.5702 28.7731 50.6299 28.7571 50.6895 28.7411C50.7791 28.7171 50.8387 28.7011 50.9283 28.6771C50.988 28.6611 51.0476 28.6451 51.0775 28.6371C51.167 28.6132 51.2267 28.5972 51.3162 28.5732C51.3461 28.5652 51.4057 28.5492 51.4356 28.5412C51.5549 28.5092 51.6445 28.4852 51.7718 28.4831L50.3867 26.7753C50.2972 26.7993 50.1778 26.8312 50.0504 26.8334C50.0206 26.8414 49.9609 26.8574 49.9311 26.8654C49.8415 26.8893 49.7819 26.9053 49.6923 26.9293C49.6326 26.9453 49.573 26.9613 49.5431 26.9693C49.4536 26.9933 49.3939 27.0093 49.3044 27.0333C49.2447 27.0493 49.185 27.0653 49.1253 27.0813C49.0657 27.0972 49.006 27.1132 48.9164 27.1372L48.8866 27.1452C48.7076 27.1932 48.5067 27.279 48.3058 27.3648C48.2461 27.3808 48.2162 27.3888 48.1646 27.4346C47.9935 27.5125 47.8145 27.5604 47.6434 27.6383C47.6136 27.6463 47.5837 27.6543 47.5539 27.6622C47.524 27.6702 47.524 27.6702 47.4942 27.6782C47.2933 27.7641 47.0924 27.8499 46.8915 27.9357C46.6309 28.0375 46.3485 28.1771 46.0959 28.3088C46.0362 28.3248 46.0144 28.3626 45.9547 28.3786C45.6424 28.5262 45.3302 28.6739 45.0259 28.8514C44.9444 28.9052 44.8549 28.9292 44.7733 28.983C44.7435 28.991 44.7435 28.991 44.7136 28.999C44.29 29.2085 43.8744 29.4478 43.4587 29.6871C43.4587 29.6871 43.4587 29.6871 43.4289 29.6951C43.0431 29.9264 42.6493 30.1279 42.2635 30.3592L43.6486 32.067C44.0424 31.8655 44.4581 31.6262 44.8519 31.4247Z" fill="url(#paint12_linear_92_3937)"/>
<path d="M32.4312 44.1562C32.3853 44.1045 32.3693 44.0448 32.3235 43.9932C32.3155 43.9633 32.3155 43.9633 32.3075 43.9335C32.2915 43.8738 32.2755 43.8141 32.2595 43.7544L32.2515 43.7246C32.2275 43.6351 32.2414 43.5674 32.2174 43.4779C32.2094 43.448 32.2312 43.4102 32.2233 43.3803C32.2371 43.3127 32.2131 43.2231 32.227 43.1554C32.2328 43.0579 32.2605 42.9226 32.2962 42.817C32.3181 42.7792 32.3101 42.7494 32.3319 42.7115C32.3676 42.606 32.4033 42.5005 32.431 42.3651L32.4528 42.3273C32.5104 42.1839 32.5679 42.0406 32.6335 41.9271C32.6553 41.8892 32.699 41.8136 32.7208 41.7757C32.7645 41.7001 32.8002 41.5945 32.8738 41.5109C32.9393 41.3974 33.0048 41.2838 33.0704 41.1703C33.1141 41.0947 33.1578 41.019 33.2094 40.9731C33.2313 40.9353 33.283 40.8895 33.2968 40.8218C33.3624 40.7083 33.4577 40.5868 33.5531 40.4653C33.6048 40.4194 33.6485 40.3438 33.6703 40.3059C33.7657 40.1844 33.8611 40.0629 33.9565 39.9414C34.0082 39.8956 34.0519 39.8199 34.0737 39.782C34.2208 39.6147 34.3678 39.4474 34.5367 39.2422C34.7057 39.037 34.9044 38.8238 35.1112 38.6405C35.1847 38.5568 35.2662 38.503 35.3099 38.4273C35.4351 38.2978 35.5902 38.1603 35.7453 38.0228C35.8188 37.9391 35.9003 37.8853 35.9738 37.8016C36.1289 37.6641 36.276 37.4968 36.4609 37.3513C36.5642 37.2596 36.6975 37.16 36.8008 37.0683C36.9341 36.9686 37.0374 36.877 37.1627 36.7475C37.2959 36.6478 37.4291 36.5481 37.5543 36.4186C37.6875 36.319 37.7909 36.2273 37.9241 36.1276C38.0573 36.028 38.1905 35.9283 38.3238 35.8286C38.457 35.729 38.612 35.5915 38.7751 35.4838C38.9083 35.3842 39.0415 35.2845 39.1747 35.1848C39.3596 35.0393 39.5227 34.9317 39.7076 34.7862C39.9522 34.6247 40.1589 34.4413 40.4334 34.2719L39.0482 32.564C38.8553 32.6797 38.6704 32.8252 38.5074 32.9329C38.4557 32.9787 38.404 33.0245 38.3443 33.0405C38.1594 33.186 37.9665 33.3017 37.8114 33.4392C37.7299 33.493 37.6185 33.5548 37.545 33.6385C37.4933 33.6843 37.4635 33.6923 37.4118 33.7382C37.2487 33.8458 37.1235 33.9753 36.9605 34.083C36.8491 34.1448 36.7756 34.2285 36.6642 34.2903C36.6423 34.3281 36.5827 34.3441 36.5608 34.382C36.4276 34.4816 36.2944 34.5813 36.191 34.673C36.1175 34.7566 36.0061 34.8185 35.9027 34.9101C35.8809 34.948 35.8212 34.964 35.7993 35.0018C35.6661 35.1015 35.5628 35.1931 35.4375 35.3226C35.364 35.4063 35.2526 35.4681 35.1791 35.5518C35.1573 35.5896 35.1274 35.5976 35.1056 35.6355C34.9505 35.773 34.7736 35.9483 34.6185 36.0858C34.5669 36.1316 34.4933 36.2153 34.4416 36.2612C34.4118 36.2691 34.4198 36.299 34.3899 36.307C34.2349 36.4445 34.1097 36.574 33.9546 36.7115C33.8811 36.7952 33.7995 36.849 33.7558 36.9247C33.5571 37.1378 33.3583 37.351 33.1814 37.5264C33.0344 37.6937 32.8575 37.869 32.7184 38.0662C32.6667 38.1121 32.623 38.1877 32.6012 38.2256C32.5058 38.3471 32.4104 38.4686 32.315 38.5901C32.2633 38.6359 32.2197 38.7116 32.1978 38.7494C32.1024 38.871 32.0369 38.9845 31.9415 39.106C31.9197 39.1438 31.868 39.1897 31.8541 39.2573C31.8541 39.2573 31.8323 39.2952 31.8024 39.3032C31.7508 39.349 31.7369 39.4167 31.7151 39.4545C31.6495 39.568 31.584 39.6815 31.5185 39.7951C31.4966 39.8329 31.4966 39.8329 31.4748 39.8707C31.4311 39.9464 31.4172 40.0141 31.3735 40.0898C31.3517 40.1276 31.308 40.2033 31.2862 40.2411L31.2643 40.2789C31.1988 40.3925 31.1711 40.5278 31.1354 40.6333L31.1135 40.6712C31.0698 40.7468 31.064 40.8444 31.0203 40.92C31.0283 40.9499 31.0064 40.9877 31.0064 40.9877C30.9846 41.0256 30.9926 41.0554 30.9707 41.0932C30.9489 41.1311 30.9569 41.1609 30.9351 41.1988C30.9212 41.2664 30.9153 41.364 30.9015 41.4316C30.9095 41.4615 30.9095 41.4615 30.8877 41.4993C30.8738 41.567 30.8818 41.5968 30.8978 41.6565C30.9058 41.6864 30.8839 41.7242 30.8919 41.754C30.8919 41.754 30.8919 41.754 30.8999 41.7839C30.8941 41.8814 30.9101 41.9411 30.9341 42.0306L30.9421 42.0605C30.958 42.1201 30.974 42.1798 30.982 42.2097L30.99 42.2395C30.998 42.2693 30.998 42.2693 31.006 42.2992C31.014 42.329 31.022 42.3589 31.0599 42.3807C31.0678 42.4106 31.1057 42.4324 31.1137 42.4622L32.4312 44.1562Z" fill="url(#paint13_linear_92_3937)"/>
<path d="M40.5541 32.0966L39.161 30.3589L38.9347 32.4985L40.3278 34.2362L40.5541 32.0966Z" fill="url(#paint14_linear_92_3937)"/>
<path d="M33.0963 44.4898C32.4056 44.419 32.1285 43.9815 32.1892 43.1336C32.2914 42.0827 33.0261 40.7664 34.4313 39.2065C35.8364 37.6466 37.7866 35.9726 40.298 34.2442L40.4945 32.1126L43.8692 30.0249L43.6647 32.1267C45.2894 31.1476 46.8348 30.3497 48.2927 29.7032C49.7507 29.0567 50.9204 28.6473 51.7799 28.5129L49.7323 31.9722C48.9106 32.1284 47.9716 32.4439 46.8776 32.897C45.7836 33.35 44.6241 33.9166 43.4368 34.6185L43.1382 37.801C44.6915 37.033 46.0082 36.4563 47.0505 36.0491C48.1227 35.6338 48.9743 35.4696 49.6649 35.5404C50.3555 35.6113 50.6327 36.0487 50.5422 36.9046C50.4399 37.9555 49.6753 39.2798 48.2782 40.8695C46.8811 42.4593 44.901 44.1413 42.3598 45.8777L42.1633 48.0093L38.8483 50.081L39.0528 47.9792C36.3362 49.5387 34.1423 50.5423 32.4414 50.9981L34.3179 47.6167C35.9134 47.1252 37.5802 46.4227 39.3025 45.4495L39.615 42.1993C38.0915 42.9594 36.8126 43.5579 35.7325 43.9433C34.6603 44.3585 33.7789 44.5307 33.0963 44.4898ZM42.8331 40.6014L42.5716 43.3262C43.4226 42.6824 44.0727 42.1244 44.4841 41.6303C44.8954 41.1363 45.1357 40.7201 45.1751 40.3897C45.2145 40.0593 45.0253 39.95 44.6214 39.9943C44.2175 40.0386 43.6068 40.2662 42.8331 40.6014ZM38.2393 38.378C37.8199 38.8422 37.6095 39.2505 37.5701 39.5809C37.5307 39.9113 37.7198 40.0205 38.0939 39.9842C38.4979 39.94 39.0569 39.7582 39.8306 39.4229L40.0862 36.7957C39.2789 37.3639 38.6805 37.876 38.2393 38.378Z" fill="url(#paint15_linear_92_3937)"/>
<path d="M43.8691 30.0249L42.4759 28.2873L39.1609 30.3589L40.5541 32.0966L43.8691 30.0249Z" fill="url(#paint16_linear_92_3937)"/>
<path d="M44.4382 41.5786C44.2394 41.7918 44.0407 42.005 43.7604 42.272C43.4284 42.5848 43.0506 42.846 42.5695 43.1988L42.5556 43.2665L42.5418 43.3342C43.1641 42.9115 43.4823 42.6664 43.8142 42.3535C44.0727 42.1243 44.2933 41.8733 44.492 41.6602C44.9332 41.1581 45.1655 40.7121 45.1809 40.2921L45.0733 40.1291C45.1612 40.4573 45.1 40.8256 44.4382 41.5786Z" fill="url(#paint17_linear_92_3937)"/>
<path d="M37.5524 39.8734C37.644 39.9768 37.8471 40.0183 38.0639 39.9922C38.4679 39.9479 39.0567 39.7582 39.8006 39.4309L39.8305 39.4229L40.078 36.7659L39.9448 36.8655L39.7089 39.3275C38.9651 39.6548 38.4061 39.8366 38.032 39.8728C37.8151 39.899 37.6797 39.8713 37.6259 39.7897C37.5801 39.738 37.5561 39.6485 37.5539 39.5212L37.5524 39.8734Z" fill="url(#paint18_linear_92_3937)"/>
<path d="M38.6808 49.9339L38.8103 50.0591L38.993 47.9952L38.8816 48.057L38.6808 49.9339Z" fill="url(#paint19_linear_92_3937)"/>
<path d="M48.2926 29.7032C49.7505 29.0567 50.8904 28.6553 51.7798 28.5129L51.6881 28.4096C50.8067 28.5818 49.7186 28.9373 48.2606 29.5838C46.8026 30.2304 45.309 30.9824 43.6544 31.9695L43.6566 32.0968C44.8358 31.3651 46.5005 30.5352 48.2926 29.7032Z" fill="url(#paint20_linear_92_3937)"/>
<path d="M32.3816 51.0141L32.4711 50.9901L34.304 47.6844C35.8995 47.1929 37.5663 46.4904 39.2587 45.5252L39.2886 45.5172L39.615 42.1993L39.4737 42.2691L39.2049 45.4436C37.5125 46.4089 35.8457 47.1114 34.28 47.5948L34.2502 47.6028L32.3736 50.9842L32.3816 51.0141Z" fill="url(#paint21_linear_92_3937)"/>
<path d="M32.211 43.0958C32.2535 42.0609 33.0559 40.7584 34.461 39.1985C34.9321 38.6885 35.4548 38.1326 36.0452 37.5906C37.226 36.5066 38.6536 35.3884 40.3278 34.2362L40.3577 34.2282L40.5541 32.0966L43.7796 30.0489L43.7934 29.9812L43.7476 29.9295L40.4028 32.0092L40.2063 34.1408C38.5321 35.2931 37.1045 36.4112 35.9535 37.4872C35.3631 38.0292 34.8324 38.5552 34.3694 39.0951C32.9723 40.6849 32.1997 41.9793 32.1054 43.0601C32.082 43.4502 32.1241 43.7267 32.2478 43.9495L32.469 44.1781C32.4471 44.2159 32.1881 43.9655 32.211 43.0958Z" fill="url(#paint22_linear_92_3937)"/>
<path d="M43.1082 37.809C44.6616 37.041 45.9783 36.4643 47.0206 36.057C48.0629 35.6498 48.9443 35.4776 49.5971 35.5266C49.8598 35.5521 50.1386 35.6374 50.2761 35.7924L50.0389 35.5042C49.9334 35.4685 49.7602 35.4189 49.595 35.3992C48.9043 35.3284 48.0229 35.5006 46.9508 35.9158C45.9085 36.323 44.6514 36.8838 43.0981 37.6518L43.1082 37.809Z" fill="url(#paint23_linear_92_3937)"/>
<path d="M19.8719 57.5645L19.9177 57.6161L19.8719 57.5645Z" fill="url(#paint24_linear_92_3937)"/>
<path d="M24.059 59.2251C24.1863 59.223 24.3137 59.2209 24.4411 59.2187C24.5684 59.2166 24.6958 59.2144 24.853 59.2043C26.7773 59.1045 29.0612 58.5565 31.6452 57.5762C31.8461 57.4904 32.055 57.4345 32.2857 57.3406C32.606 57.2228 32.9481 57.0672 33.2603 56.9196C35.492 55.9378 37.9283 54.6453 40.4797 53.0661C41.9334 52.1648 43.371 51.2039 44.7629 50.1913C44.8146 50.1454 44.8444 50.1374 44.8961 50.0916C47.2721 48.3355 49.5565 46.476 51.6597 44.5372C52.8704 43.4452 54.0053 42.3094 55.0806 41.1897C55.2575 41.0144 55.4264 40.8092 55.6033 40.6339C55.8021 40.4207 56.0009 40.2075 56.1916 39.9645C56.3904 39.7513 56.5891 39.5382 56.7799 39.2951C56.8752 39.1736 56.9706 39.0521 57.074 38.9604C58.956 36.793 60.5316 34.6757 61.7491 32.6543C61.7928 32.5786 61.8583 32.4651 61.902 32.3894C63.2783 30.0056 64.1334 27.8255 64.3262 25.9187C64.34 25.8511 64.324 25.7914 64.3379 25.7237C64.3517 25.656 64.3576 25.5585 64.3416 25.4988C64.398 24.3962 64.1799 23.4632 63.7253 22.7214L63.7173 22.6916C63.7013 22.6319 63.6635 22.61 63.6555 22.5802C63.6097 22.5285 63.5558 22.447 63.51 22.3953L63.4562 22.3138L63.4482 22.2839C63.4103 22.2621 63.3943 22.2024 63.3565 22.1805C63.1353 21.9519 62.8843 21.7313 62.6194 21.5784C61.6117 20.9209 60.2304 20.7793 58.523 20.853C60.1926 20.7574 61.5483 21.1618 62.4804 21.7756C62.7452 21.9285 62.9584 22.1273 63.1796 22.3559C63.2174 22.3777 63.2334 22.4374 63.2713 22.4593L63.3171 22.5109C63.3629 22.5626 63.4088 22.6143 63.4626 22.6958C63.5004 22.7177 63.5084 22.7475 63.5244 22.8072L63.5404 22.8669C63.979 23.549 64.1811 24.4224 64.1167 25.4951C64.1327 25.5548 64.1188 25.6225 64.113 25.72C64.0991 25.7877 64.1151 25.8473 64.1013 25.915C63.9224 27.7541 63.0971 29.9262 61.7128 32.2802C61.6691 32.3558 61.6036 32.4694 61.5599 32.545C60.3723 34.5584 58.7967 36.6758 56.9365 38.8054C56.8411 38.9269 56.7457 39.0484 56.6424 39.1401C56.4436 39.3532 56.2449 39.5664 56.0461 39.7796C55.8474 39.9928 55.6486 40.206 55.4499 40.4191C55.2729 40.5945 55.104 40.7997 54.9271 40.975C53.8518 42.0947 52.7169 43.2304 51.5361 44.3144C49.4329 46.2533 47.1783 48.1048 44.7943 49.831C44.7426 49.8769 44.7128 49.8849 44.6611 49.9307C43.2692 50.9433 41.8316 51.9043 40.3779 52.8055C37.8265 54.3847 35.4201 55.6692 33.2182 56.643C32.9059 56.7906 32.5558 56.9164 32.2436 57.0641C32.0427 57.1499 31.8119 57.2437 31.603 57.2997C29.0271 58.3097 26.765 58.8199 24.8785 58.9416C24.7512 58.9437 24.6238 58.9459 24.4965 58.948C24.3691 58.9501 24.2417 58.9523 24.1144 58.9544C22.375 58.9088 21.0709 58.4586 20.2539 57.558C20.2081 57.5063 20.1623 57.4547 20.1164 57.403C19.8873 57.1445 19.6203 56.8643 19.4646 56.5221C19.5904 56.8723 19.6944 57.2602 19.9315 57.5485C19.9774 57.6002 20.0232 57.6518 20.077 57.7334C20.91 58.6936 22.2897 59.1875 24.059 59.2251Z" fill="url(#paint25_linear_92_3937)"/>
</g>
<defs>
<filter id="filter0_f_92_3937" x="-6.99988" y="-1.99994" width="92.205" height="76.9349" filterUnits="userSpaceOnUse" color-interpolation-filters="sRGB">
<feFlood flood-opacity="0" result="BackgroundImageFix"/>
<feBlend mode="normal" in="SourceGraphic" in2="BackgroundImageFix" result="shape"/>
<feGaussianBlur stdDeviation="5" result="effect1_foregroundBlur_92_3937"/>
</filter>
<linearGradient id="paint0_linear_92_3937" x1="64.3085" y1="23.2349" x2="23.191" y2="61.0109" gradientUnits="userSpaceOnUse">
<stop stop-color="#D2AB5A"/>
<stop offset="0.0610851" stop-color="#BA9443"/>
<stop offset="0.1898" stop-color="#7C5808"/>
<stop offset="0.2069" stop-color="#735000"/>
<stop offset="0.2274" stop-color="#775200"/>
<stop offset="0.3376" stop-color="#8A5D00"/>
<stop offset="0.4146" stop-color="#916100"/>
<stop offset="0.4344" stop-color="#976707"/>
<stop offset="0.4986" stop-color="#D8B364"/>
<stop offset="0.5246" stop-color="#D4AE5D"/>
<stop offset="0.5617" stop-color="#CA9F4A"/>
<stop offset="0.6053" stop-color="#B9882C"/>
<stop offset="0.6414" stop-color="#A8700D"/>
<stop offset="0.6805" stop-color="#815400"/>
<stop offset="0.8029" stop-color="#B38116"/>
<stop offset="0.8267" stop-color="#A27114"/>
<stop offset="0.8802" stop-color="#815110"/>
<stop offset="0.9247" stop-color="#6C3D0E"/>
<stop offset="0.9545" stop-color="#65360D"/>
<stop offset="0.9581" stop-color="#6F3F0D"/>
<stop offset="0.9701" stop-color="#8A580C"/>
<stop offset="0.9807" stop-color="#9B670C"/>
<stop offset="0.9886" stop-color="#A16C0C"/>
</linearGradient>
<linearGradient id="paint1_linear_92_3937" x1="60.3422" y1="10.6911" x2="11.6587" y2="55.4182" gradientUnits="userSpaceOnUse">
<stop stop-color="#D2AB5A"/>
<stop offset="0.0610851" stop-color="#BA9443"/>
<stop offset="0.1898" stop-color="#7C5808"/>
<stop offset="0.2069" stop-color="#735000"/>
<stop offset="0.2274" stop-color="#775200"/>
<stop offset="0.3376" stop-color="#8A5D00"/>
<stop offset="0.4146" stop-color="#916100"/>
<stop offset="0.4344" stop-color="#976707"/>
<stop offset="0.4986" stop-color="#D8B364"/>
<stop offset="0.5246" stop-color="#D4AE5D"/>
<stop offset="0.5617" stop-color="#CA9F4A"/>
<stop offset="0.6053" stop-color="#B9882C"/>
<stop offset="0.6414" stop-color="#A8700D"/>
<stop offset="0.6805" stop-color="#815400"/>
<stop offset="0.8029" stop-color="#B38116"/>
<stop offset="0.8267" stop-color="#A27114"/>
<stop offset="0.8802" stop-color="#815110"/>
<stop offset="0.9247" stop-color="#6C3D0E"/>
<stop offset="0.9545" stop-color="#65360D"/>
<stop offset="0.9581" stop-color="#6F3F0D"/>
<stop offset="0.9701" stop-color="#8A580C"/>
<stop offset="0.9807" stop-color="#9B670C"/>
<stop offset="0.9886" stop-color="#A16C0C"/>
</linearGradient>
<linearGradient id="paint2_linear_92_3937" x1="57.5208" y1="50.5888" x2="23.4042" y2="27.7072" gradientUnits="userSpaceOnUse">
<stop stop-color="#D7AC4C"/>
<stop offset="0.1816" stop-color="#FFFFB0"/>
<stop offset="0.3268" stop-color="#F4D174"/>
<stop offset="0.3659" stop-color="#FBED99"/>
<stop offset="0.3939" stop-color="#FAEC97"/>
<stop offset="0.433" stop-color="#DEB04D"/>
<stop offset="0.5275" stop-color="#DFB24F"/>
<stop offset="0.5615" stop-color="#E2B756"/>
<stop offset="0.5858" stop-color="#E7C161"/>
<stop offset="0.6053" stop-color="#EECF72"/>
<stop offset="0.6207" stop-color="#F6DF86"/>
<stop offset="0.7529" stop-color="#F2D87E"/>
<stop offset="0.7672" stop-color="#F1D77D"/>
<stop offset="0.7716" stop-color="#EBCD71"/>
<stop offset="0.7804" stop-color="#E2BE60"/>
<stop offset="0.7913" stop-color="#DCB455"/>
<stop offset="0.8066" stop-color="#D8AE4E"/>
<stop offset="0.8492" stop-color="#D7AC4C"/>
<stop offset="1" stop-color="#966424"/>
</linearGradient>
<linearGradient id="paint3_linear_92_3937" x1="53.0205" y1="47.2057" x2="18.9038" y2="24.324" gradientUnits="userSpaceOnUse">
<stop offset="0.1136" stop-color="#D7AC4C"/>
<stop offset="0.1816" stop-color="#FFFFB0"/>
<stop offset="0.3268" stop-color="#F4D174"/>
<stop offset="0.3659" stop-color="#FBED99"/>
<stop offset="0.3939" stop-color="#FAEC97"/>
<stop offset="0.433" stop-color="#DEB04D"/>
<stop offset="0.5275" stop-color="#DFB24F"/>
<stop offset="0.5615" stop-color="#E2B756"/>
<stop offset="0.5858" stop-color="#E7C161"/>
<stop offset="0.6053" stop-color="#EECF72"/>
<stop offset="0.6207" stop-color="#F6DF86"/>
<stop offset="0.7529" stop-color="#F2D87E"/>
<stop offset="0.7672" stop-color="#F1D77D"/>
<stop offset="0.7716" stop-color="#EBCD71"/>
<stop offset="0.7804" stop-color="#E2BE60"/>
<stop offset="0.7913" stop-color="#DCB455"/>
<stop offset="0.8066" stop-color="#D8AE4E"/>
<stop offset="0.8492" stop-color="#D7AC4C"/>
<stop offset="1" stop-color="#966424"/>
</linearGradient>
<linearGradient id="paint4_linear_92_3937" x1="35.6993" y1="51.0328" x2="38.6691" y2="47.6417" gradientUnits="userSpaceOnUse">
<stop stop-color="#A16C0C"/>
<stop offset="0.2318" stop-color="#BE9134"/>
<stop offset="0.5559" stop-color="#A8700D"/>
<stop offset="1" stop-color="#432400"/>
</linearGradient>
<linearGradient id="paint5_linear_92_3937" x1="47.2689" y1="37.2492" x2="42.2127" y2="41.7137" gradientUnits="userSpaceOnUse">
<stop stop-color="#A16C0C"/>
<stop offset="0.2318" stop-color="#BE9134"/>
<stop offset="0.5559" stop-color="#A8700D"/>
<stop offset="1" stop-color="#432400"/>
</linearGradient>
<linearGradient id="paint6_linear_92_3937" x1="30.3502" y1="50.3835" x2="37.8655" y2="44.202" gradientUnits="userSpaceOnUse">
<stop stop-color="#A16C0C"/>
<stop offset="0.2318" stop-color="#BE9134"/>
<stop offset="0.5559" stop-color="#A8700D"/>
<stop offset="1" stop-color="#432400"/>
</linearGradient>
<linearGradient id="paint7_linear_92_3937" x1="29.1638" y1="52.6902" x2="35.5871" y2="44.8609" gradientUnits="userSpaceOnUse">
<stop stop-color="#A16C0C"/>
<stop offset="0.2318" stop-color="#BE9134"/>
<stop offset="0.5559" stop-color="#A8700D"/>
<stop offset="1" stop-color="#432400"/>
</linearGradient>
<linearGradient id="paint8_linear_92_3937" x1="41.0294" y1="40.8414" x2="37.7279" y2="43.8746" gradientUnits="userSpaceOnUse">
<stop stop-color="#A16C0C"/>
<stop offset="0.2318" stop-color="#BE9134"/>
<stop offset="0.5559" stop-color="#A8700D"/>
<stop offset="1" stop-color="#432400"/>
</linearGradient>
<linearGradient id="paint9_linear_92_3937" x1="51.5536" y1="33.3432" x2="43.191" y2="37.2908" gradientUnits="userSpaceOnUse">
<stop stop-color="#A16C0C"/>
<stop offset="0.2318" stop-color="#BE9134"/>
<stop offset="0.5559" stop-color="#A8700D"/>
<stop offset="1" stop-color="#432400"/>
</linearGradient>
<linearGradient id="paint10_linear_92_3937" x1="34.1773" y1="41.9179" x2="38.7847" y2="38.4079" gradientUnits="userSpaceOnUse">
<stop stop-color="#A16C0C"/>
<stop offset="0.2318" stop-color="#BE9134"/>
<stop offset="0.5559" stop-color="#A8700D"/>
<stop offset="1" stop-color="#432400"/>
</linearGradient>
<linearGradient id="paint11_linear_92_3937" x1="42.1606" y1="33.2807" x2="38.4623" y2="38.3053" gradientUnits="userSpaceOnUse">
<stop stop-color="#A16C0C"/>
<stop offset="0.2318" stop-color="#BE9134"/>
<stop offset="0.5559" stop-color="#A8700D"/>
<stop offset="1" stop-color="#432400"/>
</linearGradient>
<linearGradient id="paint12_linear_92_3937" x1="50.1699" y1="26.5327" x2="43.8621" y2="32.3279" gradientUnits="userSpaceOnUse">
<stop stop-color="#A16C0C"/>
<stop offset="0.2318" stop-color="#BE9134"/>
<stop offset="0.5559" stop-color="#A8700D"/>
<stop offset="1" stop-color="#432400"/>
</linearGradient>
<linearGradient id="paint13_linear_92_3937" x1="29.0389" y1="44.1739" x2="39.6272" y2="34.3858" gradientUnits="userSpaceOnUse">
<stop stop-color="#A16C0C"/>
<stop offset="0.2318" stop-color="#BE9134"/>
<stop offset="0.5559" stop-color="#A8700D"/>
<stop offset="1" stop-color="#432400"/>
</linearGradient>
<linearGradient id="paint14_linear_92_3937" x1="40.8578" y1="31.3017" x2="38.7694" y2="33.1602" gradientUnits="userSpaceOnUse">
<stop stop-color="#A16C0C"/>
<stop offset="0.2318" stop-color="#BE9134"/>
<stop offset="0.5559" stop-color="#A8700D"/>
<stop offset="1" stop-color="#432400"/>
</linearGradient>
<linearGradient id="paint15_linear_92_3937" x1="57.6589" y1="50.1983" x2="23.5427" y2="27.3169" gradientUnits="userSpaceOnUse">
<stop stop-color="#D7AC4C"/>
<stop offset="0.1816" stop-color="#FFFFB0"/>
<stop offset="0.3268" stop-color="#F4D174"/>
<stop offset="0.3659" stop-color="#FBED99"/>
<stop offset="0.3939" stop-color="#FAEC97"/>
<stop offset="0.433" stop-color="#DEB04D"/>
<stop offset="0.5275" stop-color="#DFB24F"/>
<stop offset="0.5615" stop-color="#E2B756"/>
<stop offset="0.5858" stop-color="#E7C161"/>
<stop offset="0.6053" stop-color="#EECF72"/>
<stop offset="0.6207" stop-color="#F6DF86"/>
<stop offset="0.7529" stop-color="#F2D87E"/>
<stop offset="0.7672" stop-color="#F1D77D"/>
<stop offset="0.7716" stop-color="#EBCD71"/>
<stop offset="0.7804" stop-color="#E2BE60"/>
<stop offset="0.7913" stop-color="#DCB455"/>
<stop offset="0.8066" stop-color="#D8AE4E"/>
<stop offset="0.8492" stop-color="#D7AC4C"/>
<stop offset="1" stop-color="#966424"/>
</linearGradient>
<linearGradient id="paint16_linear_92_3937" x1="45.068" y1="27.1969" x2="40.5099" y2="31.0231" gradientUnits="userSpaceOnUse">
<stop stop-color="#A16C0C"/>
<stop offset="0.2318" stop-color="#BE9134"/>
<stop offset="0.5559" stop-color="#A8700D"/>
<stop offset="1" stop-color="#432400"/>
</linearGradient>
<linearGradient id="paint17_linear_92_3937" x1="50.01" y1="36.0867" x2="41.4774" y2="44.0464" gradientUnits="userSpaceOnUse">
<stop stop-color="#966424"/>
<stop offset="0.1508" stop-color="#D7AC4C"/>
<stop offset="0.1934" stop-color="#D8AE4E"/>
<stop offset="0.2087" stop-color="#DCB455"/>
<stop offset="0.2196" stop-color="#E2BE60"/>
<stop offset="0.2284" stop-color="#EBCD71"/>
<stop offset="0.2328" stop-color="#F1D77D"/>
<stop offset="0.2471" stop-color="#F2D87E"/>
<stop offset="0.3793" stop-color="#F6DF86"/>
<stop offset="0.3947" stop-color="#EECF72"/>
<stop offset="0.4142" stop-color="#E7C161"/>
<stop offset="0.4385" stop-color="#E2B756"/>
<stop offset="0.4725" stop-color="#DFB24F"/>
<stop offset="0.567" stop-color="#DEB04D"/>
<stop offset="0.6061" stop-color="#FAEC97"/>
<stop offset="0.6341" stop-color="#FBED99"/>
<stop offset="0.6732" stop-color="#F4D174"/>
<stop offset="0.8184" stop-color="#FFFFB0"/>
<stop offset="1" stop-color="#D7AC4C"/>
</linearGradient>
<linearGradient id="paint18_linear_92_3937" x1="40.6794" y1="37.3988" x2="37.7512" y2="40.089" gradientUnits="userSpaceOnUse">
<stop stop-color="#966424"/>
<stop offset="0.1508" stop-color="#D7AC4C"/>
<stop offset="0.1934" stop-color="#D8AE4E"/>
<stop offset="0.2087" stop-color="#DCB455"/>
<stop offset="0.2196" stop-color="#E2BE60"/>
<stop offset="0.2284" stop-color="#EBCD71"/>
<stop offset="0.2328" stop-color="#F1D77D"/>
<stop offset="0.2471" stop-color="#F2D87E"/>
<stop offset="0.3793" stop-color="#F6DF86"/>
<stop offset="0.3947" stop-color="#EECF72"/>
<stop offset="0.4142" stop-color="#E7C161"/>
<stop offset="0.4385" stop-color="#E2B756"/>
<stop offset="0.4725" stop-color="#DFB24F"/>
<stop offset="0.567" stop-color="#DEB04D"/>
<stop offset="0.6061" stop-color="#FAEC97"/>
<stop offset="0.6341" stop-color="#FBED99"/>
<stop offset="0.6732" stop-color="#F4D174"/>
<stop offset="0.8184" stop-color="#FFFFB0"/>
<stop offset="1" stop-color="#D7AC4C"/>
</linearGradient>
<linearGradient id="paint19_linear_92_3937" x1="39.4674" y1="48.4892" x2="38.3193" y2="49.544" gradientUnits="userSpaceOnUse">
<stop stop-color="#966424"/>
<stop offset="0.1508" stop-color="#D7AC4C"/>
<stop offset="0.1934" stop-color="#D8AE4E"/>
<stop offset="0.2087" stop-color="#DCB455"/>
<stop offset="0.2196" stop-color="#E2BE60"/>
<stop offset="0.2284" stop-color="#EBCD71"/>
<stop offset="0.2328" stop-color="#F1D77D"/>
<stop offset="0.2471" stop-color="#F2D87E"/>
<stop offset="0.3793" stop-color="#F6DF86"/>
<stop offset="0.3947" stop-color="#EECF72"/>
<stop offset="0.4142" stop-color="#E7C161"/>
<stop offset="0.4385" stop-color="#E2B756"/>
<stop offset="0.4725" stop-color="#DFB24F"/>
<stop offset="0.567" stop-color="#DEB04D"/>
<stop offset="0.6061" stop-color="#FAEC97"/>
<stop offset="0.6341" stop-color="#FBED99"/>
<stop offset="0.6732" stop-color="#F4D174"/>
<stop offset="0.8184" stop-color="#FFFFB0"/>
<stop offset="1" stop-color="#D7AC4C"/>
</linearGradient>
<linearGradient id="paint20_linear_92_3937" x1="41.3055" y1="34.0261" x2="52.6148" y2="27.3322" gradientUnits="userSpaceOnUse">
<stop stop-color="#966424"/>
<stop offset="0.1508" stop-color="#D7AC4C"/>
<stop offset="0.1934" stop-color="#D8AE4E"/>
<stop offset="0.2087" stop-color="#DCB455"/>
<stop offset="0.2196" stop-color="#E2BE60"/>
<stop offset="0.2284" stop-color="#EBCD71"/>
<stop offset="0.2328" stop-color="#F1D77D"/>
<stop offset="0.2471" stop-color="#F2D87E"/>
<stop offset="0.3793" stop-color="#F6DF86"/>
<stop offset="0.3947" stop-color="#EECF72"/>
<stop offset="0.4142" stop-color="#E7C161"/>
<stop offset="0.4385" stop-color="#E2B756"/>
<stop offset="0.4725" stop-color="#DFB24F"/>
<stop offset="0.567" stop-color="#DEB04D"/>
<stop offset="0.6061" stop-color="#FAEC97"/>
<stop offset="0.6341" stop-color="#FBED99"/>
<stop offset="0.6732" stop-color="#F4D174"/>
<stop offset="0.8184" stop-color="#FFFFB0"/>
<stop offset="1" stop-color="#D7AC4C"/>
</linearGradient>
<linearGradient id="paint21_linear_92_3937" x1="40.367" y1="42.9756" x2="32.0333" y2="50.632" gradientUnits="userSpaceOnUse">
<stop stop-color="#966424"/>
<stop offset="0.1508" stop-color="#D7AC4C"/>
<stop offset="0.1934" stop-color="#D8AE4E"/>
<stop offset="0.2087" stop-color="#DCB455"/>
<stop offset="0.2196" stop-color="#E2BE60"/>
<stop offset="0.2284" stop-color="#EBCD71"/>
<stop offset="0.2328" stop-color="#F1D77D"/>
<stop offset="0.2471" stop-color="#F2D87E"/>
<stop offset="0.3793" stop-color="#F6DF86"/>
<stop offset="0.3947" stop-color="#EECF72"/>
<stop offset="0.4142" stop-color="#E7C161"/>
<stop offset="0.4385" stop-color="#E2B756"/>
<stop offset="0.4725" stop-color="#DFB24F"/>
<stop offset="0.567" stop-color="#DEB04D"/>
<stop offset="0.6061" stop-color="#FAEC97"/>
<stop offset="0.6341" stop-color="#FBED99"/>
<stop offset="0.6732" stop-color="#F4D174"/>
<stop offset="0.8184" stop-color="#FFFFB0"/>
<stop offset="1" stop-color="#D7AC4C"/>
</linearGradient>
<linearGradient id="paint22_linear_92_3937" x1="28.4285" y1="44.7386" x2="42.6478" y2="33.0004" gradientUnits="userSpaceOnUse">
<stop stop-color="#966424"/>
<stop offset="0.1508" stop-color="#D7AC4C"/>
<stop offset="0.1934" stop-color="#D8AE4E"/>
<stop offset="0.2087" stop-color="#DCB455"/>
<stop offset="0.2196" stop-color="#E2BE60"/>
<stop offset="0.2284" stop-color="#EBCD71"/>
<stop offset="0.2328" stop-color="#F1D77D"/>
<stop offset="0.2471" stop-color="#F2D87E"/>
<stop offset="0.3793" stop-color="#F6DF86"/>
<stop offset="0.3947" stop-color="#EECF72"/>
<stop offset="0.4142" stop-color="#E7C161"/>
<stop offset="0.4385" stop-color="#E2B756"/>
<stop offset="0.4725" stop-color="#DFB24F"/>
<stop offset="0.567" stop-color="#DEB04D"/>
<stop offset="0.6061" stop-color="#FAEC97"/>
<stop offset="0.6341" stop-color="#FBED99"/>
<stop offset="0.6732" stop-color="#F4D174"/>
<stop offset="0.8184" stop-color="#FFFFB0"/>
<stop offset="1" stop-color="#D7AC4C"/>
</linearGradient>
<linearGradient id="paint23_linear_92_3937" x1="42.0148" y1="39.3328" x2="52.6145" y2="33.4655" gradientUnits="userSpaceOnUse">
<stop stop-color="#966424"/>
<stop offset="0.1508" stop-color="#D7AC4C"/>
<stop offset="0.1934" stop-color="#D8AE4E"/>
<stop offset="0.2087" stop-color="#DCB455"/>
<stop offset="0.2196" stop-color="#E2BE60"/>
<stop offset="0.2284" stop-color="#EBCD71"/>
<stop offset="0.2328" stop-color="#F1D77D"/>
<stop offset="0.2471" stop-color="#F2D87E"/>
<stop offset="0.3793" stop-color="#F6DF86"/>
<stop offset="0.3947" stop-color="#EECF72"/>
<stop offset="0.4142" stop-color="#E7C161"/>
<stop offset="0.4385" stop-color="#E2B756"/>
<stop offset="0.4725" stop-color="#DFB24F"/>
<stop offset="0.567" stop-color="#DEB04D"/>
<stop offset="0.6061" stop-color="#FAEC97"/>
<stop offset="0.6341" stop-color="#FBED99"/>
<stop offset="0.6732" stop-color="#F4D174"/>
<stop offset="0.8184" stop-color="#FFFFB0"/>
<stop offset="1" stop-color="#D7AC4C"/>
</linearGradient>
<linearGradient id="paint24_linear_92_3937" x1="61.3288" y1="17.7005" x2="32.1891" y2="45.757" gradientUnits="userSpaceOnUse">
<stop stop-color="#D7AC4C"/>
<stop offset="0.1816" stop-color="#FFFFB0"/>
<stop offset="0.3268" stop-color="#F4D174"/>
<stop offset="0.3659" stop-color="#FBED99"/>
<stop offset="0.3939" stop-color="#FAEC97"/>
<stop offset="0.433" stop-color="#DEB04D"/>
<stop offset="0.5275" stop-color="#DFB24F"/>
<stop offset="0.5615" stop-color="#E2B756"/>
<stop offset="0.5858" stop-color="#E7C161"/>
<stop offset="0.6053" stop-color="#EECF72"/>
<stop offset="0.6207" stop-color="#F6DF86"/>
<stop offset="0.7529" stop-color="#F2D87E"/>
<stop offset="0.7672" stop-color="#F1D77D"/>
<stop offset="0.7716" stop-color="#EBCD71"/>
<stop offset="0.7804" stop-color="#E2BE60"/>
<stop offset="0.7913" stop-color="#DCB455"/>
<stop offset="0.8066" stop-color="#D8AE4E"/>
<stop offset="0.8492" stop-color="#D7AC4C"/>
<stop offset="1" stop-color="#966424"/>
</linearGradient>
<linearGradient id="paint25_linear_92_3937" x1="65.4144" y1="21.7813" x2="14.3475" y2="70.9473" gradientUnits="userSpaceOnUse">
<stop stop-color="#D7AC4C"/>
<stop offset="0.1816" stop-color="#FFFFB0"/>
<stop offset="0.3268" stop-color="#F4D174"/>
<stop offset="0.3659" stop-color="#FBED99"/>
<stop offset="0.3939" stop-color="#FAEC97"/>
<stop offset="0.433" stop-color="#DEB04D"/>
<stop offset="0.5275" stop-color="#DFB24F"/>
<stop offset="0.5615" stop-color="#E2B756"/>
<stop offset="0.5858" stop-color="#E7C161"/>
<stop offset="0.6053" stop-color="#EECF72"/>
<stop offset="0.6207" stop-color="#F6DF86"/>
<stop offset="0.7529" stop-color="#F2D87E"/>
<stop offset="0.7672" stop-color="#F1D77D"/>
<stop offset="0.7716" stop-color="#EBCD71"/>
<stop offset="0.7804" stop-color="#E2BE60"/>
<stop offset="0.7913" stop-color="#DCB455"/>
<stop offset="0.8066" stop-color="#D8AE4E"/>
<stop offset="0.8492" stop-color="#D7AC4C"/>
<stop offset="1" stop-color="#966424"/>
</linearGradient>
</defs>
</svg>
