<svg width="295" height="283" viewBox="0 0 295 283" fill="none" xmlns="http://www.w3.org/2000/svg">
<g filter="url(#filter0_d_5_6439)">
<path d="M254.729 171.025C255.518 169.992 256.084 168.973 256.413 167.743C258.91 160.067 253.922 148.628 249.576 141.9C237.483 122.555 220.197 107.015 202.126 93.3155C182.962 79.3227 162.057 66.913 139.021 60.8138C130.615 58.8542 118.611 56.6626 111.194 62.2152C110.291 62.8518 109.402 63.7116 108.649 64.608C109.105 63.9982 111.336 60.8626 112.705 59.0332C112.792 58.9832 112.828 58.8466 112.915 58.7966C113.038 58.61 113.248 58.3734 113.371 58.1868C113.408 58.0502 113.581 57.9502 113.667 57.9002L113.754 57.8502C115.916 55.7939 118.614 54.4671 121.748 53.6966C121.971 53.6832 122.231 53.5332 122.454 53.5198C122.678 53.5064 122.851 53.4064 123.074 53.393C129.543 52.1982 137.499 53.3784 145.199 55.5147C145.472 55.5879 145.882 55.6977 146.155 55.7709C155.048 58.3733 163.698 62.1551 169.689 64.9316C170.148 65.128 170.608 65.3245 170.981 65.5709C171.814 66.0137 172.647 66.4565 173.567 66.8493C174.4 67.2921 175.233 67.735 176.153 68.1278C176.936 68.484 177.632 68.8902 178.329 69.2964C189.817 75.5959 202.506 83.9739 214.643 93.5946C214.829 93.7178 214.879 93.8044 215.066 93.9276C226.506 103.142 237.293 113.426 245.689 124.168C246.462 125.107 247.099 126.01 247.822 126.862C248.258 127.418 248.745 128.061 249.095 128.667C253.788 135.196 257.501 141.827 259.912 148.403C260.025 148.799 260.139 149.196 260.252 149.592C260.365 149.989 260.479 150.385 260.592 150.781C262.02 156.654 261.545 161.432 259.068 164.941L254.729 171.025Z" fill="url(#paint0_linear_5_6439)"/>
<path d="M272.053 173.032C251.209 196.729 181.707 153.949 161.72 138.93C142.243 124.194 85.885 74.9798 101.248 48.7894L82.919 71.8425C77.0346 79.0504 81.8267 93.9506 86.8633 102.474C104.873 133.068 133.418 156.309 162.874 175.329C184.267 188.382 220.636 208.376 245.983 201.478C248.485 200.611 250.91 199.211 252.812 197.305C253.787 196.395 271.127 174.029 272.053 173.032Z" fill="url(#paint1_linear_5_6439)"/>
<path d="M272.344 154.736C267.928 140.888 254.923 122.762 234.658 103.863C214.394 84.9629 190.568 68.6963 168.454 57.7927C146.289 46.8026 125.922 41.1256 112.487 43.4553C99.0017 45.6984 95.0637 55.4775 99.5656 69.2751C104.031 83.2093 116.986 101.248 137.251 120.148C157.516 139.048 181.391 155.401 203.506 166.305C225.62 177.208 245.987 182.885 259.472 180.642C272.821 178.362 276.809 168.67 272.344 154.736ZM256.363 167.657C254.435 169.117 251.897 170.12 248.662 170.718C237.172 172.617 219.724 167.795 200.841 158.49C181.909 149.098 161.592 135.309 144.217 119.013C126.891 102.804 115.882 87.3365 112.034 75.471C110.337 70.3311 110.019 65.7804 111.194 62.2153C111.573 61.0725 112.002 60.0163 112.705 59.0333C112.792 58.9833 112.828 58.8467 112.915 58.7967C113.038 58.6101 113.248 58.3734 113.371 58.1868C113.408 58.0502 113.581 57.9502 113.667 57.9002L113.754 57.8502C115.606 55.8574 118.254 54.444 121.748 53.6967C122.058 53.6333 122.231 53.5333 122.454 53.5199C122.678 53.5065 122.851 53.4065 123.074 53.3931C129.06 52.3617 136.593 53.2088 145.199 55.5148C145.472 55.588 145.882 55.6978 146.155 55.771C153.445 57.7975 161.385 60.9499 169.689 64.9317C170.148 65.1281 170.608 65.3245 170.981 65.5709C171.814 66.0138 172.647 66.4566 173.567 66.8494C174.4 67.2922 175.233 67.735 176.153 68.1279C176.936 68.4841 177.632 68.8903 178.329 69.2965C190.464 75.9156 202.88 84.2204 214.643 93.5947C214.829 93.7179 214.879 93.8045 215.066 93.9277C219.398 97.4311 223.607 101.121 227.643 104.911C234.717 111.565 240.749 118.013 245.689 124.168C246.412 125.02 247.099 126.01 247.822 126.862C248.258 127.418 248.745 128.061 249.095 128.668C254.411 135.875 257.951 142.607 259.912 148.403C260.025 148.8 260.139 149.196 260.252 149.592C260.365 149.989 260.479 150.385 260.592 150.782C262.02 156.655 261.545 161.432 259.068 164.941C258.242 166.11 257.353 166.97 256.363 167.657Z" fill="url(#paint2_linear_5_6439)"/>
<path d="M256.5 167.694C254.572 169.153 252.033 170.157 248.799 170.754C237.309 172.654 219.86 167.832 200.978 158.526C182.045 149.134 161.729 135.345 144.353 119.05C127.028 102.841 116.019 87.3732 112.171 75.5077C110.473 70.3677 110.155 65.817 111.33 62.252C118.748 56.6993 130.752 58.8909 139.158 60.8505C162.193 66.9497 183.099 79.3595 202.213 93.2656C220.371 106.916 237.569 122.505 249.662 141.85C254.009 148.578 258.86 159.98 256.5 167.694Z" fill="url(#paint3_linear_5_6439)"/>
<path d="M213.293 113.657L209.028 119.469L215.72 118.261L219.899 112.499L213.293 113.657Z" fill="url(#paint4_linear_5_6439)"/>
<path d="M187.586 109.331C187.636 109.418 187.773 109.455 187.823 109.541C188.333 109.824 188.806 110.244 189.366 110.613C189.502 110.65 189.602 110.823 189.739 110.86C190.299 111.23 190.908 111.686 191.518 112.142L195.697 106.38C195.274 106.047 194.851 105.714 194.428 105.381C194.241 105.258 194.055 105.135 193.955 104.962C193.818 104.925 193.718 104.752 193.581 104.715C193.445 104.679 193.345 104.506 193.208 104.469C192.835 104.223 192.462 103.976 192.089 103.73C192.089 103.73 192.039 103.643 191.952 103.693C191.902 103.607 191.765 103.57 191.715 103.483C191.479 103.274 191.156 103.114 190.969 102.991C190.782 102.867 190.646 102.831 190.459 102.708C190.323 102.671 190.136 102.548 190.086 102.461C189.576 102.178 189.203 101.932 188.743 101.735C188.283 101.539 187.96 101.379 187.55 101.269C187.414 101.233 187.364 101.146 187.227 101.109C187.091 101.073 186.954 101.036 186.904 100.95C186.631 100.876 186.494 100.84 186.221 100.767C186.084 100.73 185.861 100.743 185.724 100.707C185.588 100.67 185.451 100.634 185.315 100.597C185.315 100.597 185.315 100.597 185.228 100.647C185.141 100.697 185.091 100.61 185.005 100.66C184.868 100.624 184.782 100.674 184.645 100.637C184.558 100.687 184.422 100.651 184.422 100.651C184.335 100.701 184.199 100.664 184.199 100.664C184.112 100.714 184.112 100.714 184.025 100.764L183.939 100.814C183.852 100.864 183.852 100.864 183.766 100.914L183.679 100.964L179.29 106.962C179.327 106.825 179.5 106.725 179.586 106.675C179.76 106.575 179.846 106.525 180.069 106.512C180.293 106.499 180.602 106.435 180.876 106.509C181.236 106.532 181.509 106.605 181.869 106.628C182.142 106.701 182.552 106.811 182.875 106.971C183.011 107.008 183.061 107.094 183.198 107.131C183.608 107.241 183.981 107.487 184.391 107.597C184.851 107.793 185.224 108.04 185.734 108.323C185.87 108.359 186.057 108.482 186.107 108.569C186.703 108.802 187.076 109.048 187.586 109.331Z" fill="url(#paint5_linear_5_6439)"/>
<path d="M206.331 126.799C206.668 127.182 207.055 127.652 207.391 128.035C207.778 128.504 208.164 128.974 208.514 129.58C209.101 130.396 209.688 131.212 210.224 131.941C210.811 132.757 211.397 133.573 211.897 134.44L216.077 128.678C215.727 128.072 215.24 127.429 214.89 126.823C214.74 126.563 214.503 126.353 214.403 126.18C213.817 125.364 213.23 124.548 212.694 123.818C212.494 123.472 212.207 123.176 212.007 122.829C211.907 122.656 211.67 122.446 211.57 122.273C211.234 121.89 210.847 121.42 210.511 121.037C210.174 120.654 209.924 120.221 209.587 119.838C209.301 119.542 209.014 119.246 208.814 118.899C208.528 118.603 208.241 118.306 208.041 117.96C207.804 117.75 207.654 117.49 207.418 117.28C206.745 116.514 205.985 115.798 205.262 114.946L201.082 120.707C202.042 121.77 202.952 122.746 203.862 123.721C204.148 124.018 204.435 124.314 204.635 124.661C205.172 125.39 205.708 126.119 206.331 126.799Z" fill="url(#paint6_linear_5_6439)"/>
<path d="M228.271 131.799L224.092 137.561L211.947 134.526L216.127 128.765L228.271 131.799Z" fill="url(#paint7_linear_5_6439)"/>
<path d="M194.751 116.742L190.486 122.553L200.909 120.807L205.175 114.996L194.751 116.742Z" fill="url(#paint8_linear_5_6439)"/>
<path d="M172.386 113.604C172.823 114.16 173.296 114.58 173.732 115.136L177.912 109.374C177.475 108.818 176.952 108.312 176.565 107.842C176.465 107.669 176.279 107.546 176.179 107.373C175.842 106.99 175.555 106.693 175.219 106.31C175.169 106.224 175.069 106.05 174.932 106.014C174.596 105.631 174.259 105.248 173.922 104.865C173.822 104.692 173.586 104.482 173.486 104.309C173.199 104.012 172.999 103.666 172.763 103.456C172.663 103.283 172.426 103.073 172.326 102.9C172.089 102.69 171.889 102.344 171.653 102.134C171.553 101.961 171.316 101.751 171.216 101.578C171.066 101.318 170.83 101.108 170.68 100.848C170.63 100.762 170.53 100.588 170.393 100.552C169.906 99.9089 169.42 99.266 168.983 98.7098C168.647 98.3268 168.397 97.8938 168.197 97.5474C168.147 97.4608 168.097 97.3742 168.047 97.2876C167.747 96.768 167.36 96.2984 167.06 95.7787C167.01 95.6921 167.01 95.6921 166.96 95.6055C166.66 95.0859 166.41 94.6529 166.247 94.1699C166.197 94.0833 166.147 93.9967 166.097 93.9101C165.933 93.4271 165.683 92.9941 165.57 92.5977C165.52 92.5111 165.47 92.4245 165.556 92.3745C165.393 91.8914 165.28 91.495 165.253 91.0486C165.063 90.1192 165.232 89.213 165.688 88.6032L161.509 94.3646C161.053 94.9744 160.92 95.7441 161.074 96.8101C161.187 97.2065 161.214 97.6529 161.377 98.1359C161.427 98.2225 161.427 98.2225 161.391 98.3591C161.504 98.7555 161.667 99.2386 161.917 99.6716C161.967 99.7582 162.017 99.8448 162.067 99.9314C162.317 100.364 162.531 100.934 162.781 101.367C162.831 101.454 162.831 101.454 162.881 101.54C163.181 102.06 163.481 102.579 163.867 103.049C163.917 103.136 163.917 103.136 163.967 103.222L164.017 103.309C164.267 103.742 164.604 104.125 164.804 104.471C165.241 105.028 165.727 105.67 166.214 106.313C166.264 106.4 166.264 106.4 166.314 106.486C166.364 106.573 166.364 106.573 166.414 106.66C166.564 106.919 166.8 107.129 166.95 107.389C167.05 107.562 167.287 107.772 167.387 107.945C167.537 108.205 167.824 108.501 168.06 108.711C168.16 108.884 168.397 109.094 168.497 109.267C168.783 109.564 168.983 109.91 169.22 110.12C169.32 110.293 169.507 110.416 169.657 110.676C169.993 111.059 170.33 111.442 170.666 111.825C170.716 111.912 170.766 111.999 170.953 112.122C171.29 112.505 171.676 112.974 172.063 113.444C172.286 113.431 172.336 113.517 172.386 113.604Z" fill="url(#paint9_linear_5_6439)"/>
<path d="M189.196 122.72C189.046 122.46 188.933 122.064 188.733 121.718C188.683 121.631 188.583 121.458 188.533 121.371C188.383 121.111 188.233 120.852 188.033 120.505L187.983 120.418C187.783 120.072 187.496 119.776 187.246 119.343C187.196 119.256 187.096 119.083 187.046 118.996C186.946 118.823 186.71 118.613 186.61 118.44C186.46 118.18 186.273 118.057 186.123 117.797L181.944 123.559C182.331 124.028 182.581 124.461 182.917 124.844C182.967 124.931 183.067 125.104 183.117 125.191C183.454 125.574 183.704 126.007 183.904 126.353C184.054 126.613 184.204 126.873 184.404 127.219C184.454 127.306 184.554 127.479 184.604 127.566C184.804 127.912 185.004 128.258 185.067 128.568C185.381 129.311 185.407 129.757 185.161 130.131L189.29 124.283C189.536 123.909 189.46 123.376 189.196 122.72Z" fill="url(#paint10_linear_5_6439)"/>
<path d="M177.275 119.672L173.009 125.484L181.524 124.032L185.703 118.27L177.275 119.672Z" fill="url(#paint11_linear_5_6439)"/>
<path d="M156.577 109.221C155.48 108.122 154.471 106.973 153.374 105.874C153.087 105.578 152.801 105.281 152.651 105.022C151.928 104.169 151.118 103.366 150.395 102.514C149.671 101.661 148.948 100.808 148.225 99.9558C147.788 99.3996 147.352 98.8434 146.915 98.2871C146.815 98.1139 146.715 97.9407 146.579 97.9041C146.192 97.4345 145.805 96.9649 145.505 96.4453C145.405 96.2721 145.355 96.1855 145.169 96.0623C144.732 95.5061 144.432 94.9864 143.996 94.4302C143.846 94.1704 143.746 93.9972 143.596 93.7374C143.496 93.5642 143.396 93.391 143.296 93.2178C143.146 92.958 143.046 92.7848 142.896 92.525C142.796 92.3518 142.696 92.1786 142.646 92.092C142.496 91.8321 142.396 91.6589 142.246 91.3991C142.196 91.3125 142.096 91.1393 142.046 91.0527C141.846 90.7063 141.696 90.4465 141.582 90.0501L137.403 95.8116C137.553 96.0714 137.753 96.4178 137.866 96.8142C137.916 96.9008 138.016 97.074 138.066 97.1606C138.216 97.4204 138.316 97.5936 138.466 97.8534C138.566 98.0266 138.666 98.1998 138.716 98.2864C138.866 98.5463 138.966 98.7195 139.116 98.9793C139.216 99.1525 139.316 99.3257 139.416 99.4989C139.516 99.6721 139.616 99.8453 139.766 100.105L139.816 100.192C140.116 100.711 140.553 101.268 140.99 101.824C141.09 101.997 141.14 102.084 141.326 102.207C141.713 102.676 142.013 103.196 142.399 103.666C142.449 103.752 142.499 103.839 142.549 103.925C142.599 104.012 142.599 104.012 142.649 104.099C143.086 104.655 143.523 105.211 143.959 105.767C144.496 106.497 145.169 107.263 145.792 107.942C145.892 108.115 146.029 108.152 146.129 108.325C146.852 109.178 147.575 110.03 148.385 110.833C148.622 111.043 148.772 111.303 149.008 111.512C149.058 111.599 149.058 111.599 149.108 111.686C150.118 112.835 151.215 113.934 152.311 115.033C152.311 115.033 152.311 115.033 152.361 115.119C153.407 116.132 154.367 117.194 155.414 118.207L159.593 112.445C158.633 111.383 157.537 110.284 156.577 109.221Z" fill="url(#paint12_linear_5_6439)"/>
<path d="M206.788 137.39C206.665 137.576 206.491 137.676 206.368 137.863C206.282 137.913 206.282 137.913 206.195 137.963C206.022 138.063 205.849 138.163 205.675 138.263L205.589 138.313C205.329 138.463 205.106 138.476 204.846 138.626C204.759 138.676 204.623 138.64 204.536 138.69C204.313 138.703 204.053 138.853 203.83 138.866C203.52 138.93 203.074 138.957 202.714 138.933C202.577 138.897 202.491 138.947 202.354 138.91C201.994 138.887 201.635 138.864 201.188 138.891L201.052 138.854C200.555 138.794 200.059 138.734 199.649 138.625C199.512 138.588 199.239 138.515 199.102 138.478C198.829 138.405 198.469 138.382 198.146 138.222C197.736 138.112 197.327 138.002 196.917 137.893C196.644 137.819 196.37 137.746 196.184 137.623C196.047 137.586 195.861 137.463 195.637 137.477C195.228 137.367 194.768 137.17 194.308 136.974C194.121 136.851 193.848 136.777 193.712 136.741C193.252 136.544 192.792 136.348 192.332 136.152C192.146 136.028 191.872 135.955 191.736 135.919C191.089 135.599 190.443 135.279 189.66 134.923C188.877 134.567 188.044 134.124 187.297 133.631C186.974 133.472 186.738 133.262 186.464 133.189C185.955 132.906 185.395 132.536 184.835 132.166C184.512 132.006 184.275 131.797 183.952 131.637C183.392 131.267 182.746 130.948 182.136 130.491C181.763 130.245 181.34 129.912 180.966 129.666C180.543 129.333 180.17 129.086 179.66 128.803C179.237 128.47 178.814 128.137 178.304 127.854C177.881 127.521 177.508 127.275 177.084 126.942C176.661 126.609 176.238 126.276 175.815 125.943C175.392 125.61 174.832 125.24 174.359 124.82C173.935 124.487 173.512 124.154 173.089 123.821C172.479 123.365 172.006 122.946 171.396 122.489C170.686 121.86 169.94 121.367 169.18 120.651L165.001 126.412C165.524 126.919 166.134 127.375 166.607 127.795C166.794 127.918 166.98 128.041 167.08 128.214C167.69 128.67 168.213 129.177 168.773 129.546C169.01 129.756 169.296 130.052 169.62 130.212C169.806 130.335 169.856 130.422 170.043 130.545C170.516 130.965 171.026 131.248 171.499 131.667C171.786 131.964 172.109 132.124 172.395 132.42C172.532 132.457 172.632 132.63 172.769 132.667C173.192 133 173.615 133.333 173.988 133.579C174.311 133.739 174.598 134.035 174.971 134.282C175.108 134.318 175.208 134.491 175.344 134.528C175.768 134.861 176.141 135.107 176.651 135.39C176.974 135.55 177.26 135.847 177.584 136.006C177.72 136.043 177.77 136.13 177.907 136.166C178.467 136.536 179.163 136.942 179.723 137.312C179.909 137.435 180.233 137.595 180.419 137.718C180.469 137.805 180.556 137.755 180.606 137.841C181.166 138.211 181.676 138.494 182.235 138.863C182.559 139.023 182.795 139.233 183.068 139.306C183.901 139.749 184.734 140.192 185.431 140.598C186.077 140.918 186.774 141.324 187.507 141.594C187.693 141.717 187.966 141.79 188.103 141.827C188.563 142.023 189.023 142.219 189.482 142.416C189.669 142.539 189.942 142.612 190.079 142.649C190.539 142.845 190.948 142.955 191.408 143.151C191.545 143.188 191.731 143.311 191.955 143.298C191.955 143.298 192.091 143.334 192.141 143.421C192.328 143.544 192.551 143.531 192.688 143.567C193.097 143.677 193.507 143.787 193.917 143.897C194.054 143.933 194.054 143.933 194.19 143.97C194.464 144.043 194.687 144.03 194.96 144.103C195.097 144.14 195.37 144.213 195.506 144.249L195.643 144.286C196.053 144.396 196.499 144.369 196.859 144.392L196.996 144.429C197.269 144.502 197.579 144.439 197.852 144.512C197.938 144.462 198.075 144.499 198.075 144.499C198.212 144.535 198.298 144.485 198.435 144.522C198.571 144.558 198.658 144.508 198.795 144.545C199.018 144.532 199.328 144.468 199.551 144.455C199.637 144.405 199.637 144.405 199.774 144.441C199.997 144.428 200.084 144.378 200.257 144.278C200.344 144.228 200.48 144.265 200.567 144.215C200.567 144.215 200.567 144.215 200.653 144.165C200.963 144.101 201.136 144.001 201.396 143.851L201.483 143.801C201.656 143.701 201.829 143.601 201.916 143.551L202.002 143.501C202.089 143.451 202.089 143.451 202.176 143.401C202.262 143.351 202.349 143.301 202.385 143.165C202.472 143.115 202.509 142.978 202.595 142.928L206.788 137.39Z" fill="url(#paint13_linear_5_6439)"/>
<path d="M162.278 122.096L158.012 127.907L164.891 126.822L169.157 121.011L162.278 122.096Z" fill="url(#paint14_linear_5_6439)"/>
<path d="M207.274 135.031C207.631 137.249 206.495 138.482 203.793 139.003C200.422 139.564 195.691 138.369 189.637 135.283C183.582 132.197 176.715 127.501 169.207 121.097L162.378 122.269L153.023 113.467L159.766 112.345C155.344 108.086 151.554 103.923 148.312 99.9059C145.069 95.8892 142.809 92.5751 141.669 90.0002L154.2 93.5042C155.376 95.9425 157.15 98.6138 159.483 101.655C161.816 104.696 164.559 107.846 167.748 110.97L177.948 109.238C174.246 105.025 171.339 101.391 169.193 98.4733C166.997 95.469 165.77 92.9442 165.413 90.7255C165.055 88.5069 166.191 87.2738 168.943 86.8399C172.314 86.2791 177.095 87.5602 183.236 90.5965C189.377 93.6329 196.295 98.4147 203.852 104.905L210.682 103.734L219.936 112.363L213.193 113.484C220.345 120.671 225.321 126.69 228.171 131.626L216.027 128.592C213.153 124.015 209.561 119.392 205.075 114.823L194.651 116.568C198.304 120.695 201.247 124.192 203.357 127.246C205.553 130.251 206.83 132.862 207.274 135.031ZM186.959 107.846L195.697 106.38C192.972 104.259 190.682 102.694 188.793 101.822C186.904 100.95 185.401 100.547 184.335 100.701C183.269 100.854 183.086 101.537 183.563 102.763C184.04 103.989 185.263 105.707 186.959 107.846ZM183.856 124.071C185.659 124.993 187.112 125.309 188.178 125.156C189.244 125.002 189.427 124.319 189 123.18C188.523 121.954 187.486 120.359 185.79 118.22L177.362 119.622C179.814 121.67 181.917 123.112 183.856 124.071Z" fill="url(#paint15_linear_5_6439)"/>
<path d="M153.023 113.467L148.758 119.278L158.012 127.907L162.278 122.096L153.023 113.467Z" fill="url(#paint16_linear_5_6439)"/>
<path d="M188.67 102.009C189.503 102.451 190.336 102.894 191.406 103.547C192.662 104.323 193.795 105.285 195.301 106.494L195.524 106.48L195.747 106.467C193.905 104.875 192.872 104.086 191.615 103.31C190.682 102.694 189.713 102.215 188.88 101.772C186.941 100.813 185.351 100.46 184.025 100.764L183.606 101.237C184.558 100.687 185.761 100.57 188.67 102.009Z" fill="url(#paint17_linear_5_6439)"/>
<path d="M189.107 124.966C189.353 124.592 189.313 123.923 189.05 123.267C188.573 122.041 187.486 120.359 185.84 118.307L185.79 118.22L177.275 119.672L177.698 120.005L185.594 118.68C187.24 120.732 188.277 122.327 188.703 123.467C188.967 124.123 188.994 124.569 188.784 124.806C188.661 124.992 188.401 125.142 188.004 125.256L189.107 124.966Z" fill="url(#paint18_linear_5_6439)"/>
<path d="M219.616 113.009L219.899 112.499L213.293 113.658L213.58 113.954L219.616 113.009Z" fill="url(#paint19_linear_5_6439)"/>
<path d="M148.312 99.906C145.069 95.8893 142.859 92.6618 141.669 90.0003L141.422 90.3735C142.699 92.985 144.722 96.0893 147.965 100.106C151.208 104.123 154.811 108.163 159.283 112.509L159.679 112.395C156.404 109.322 152.414 104.812 148.312 99.906Z" fill="url(#paint20_linear_5_6439)"/>
<path d="M228.271 131.799L228.121 131.539L216.25 128.578C213.377 124.002 209.784 119.379 205.348 114.896L205.298 114.809L194.651 116.568L194.988 116.951L205.138 115.132C209.574 119.615 213.167 124.238 215.99 128.728L216.04 128.815L228.184 131.849L228.271 131.799Z" fill="url(#paint21_linear_5_6439)"/>
<path d="M203.657 138.966C200.385 139.7 195.641 138.283 189.587 135.196C187.597 134.151 185.422 132.982 183.232 131.59C178.854 128.807 174.162 125.28 169.157 121.011L169.107 120.924L162.278 122.096L153.173 113.727L152.95 113.74L152.827 113.927L162.131 122.642L168.96 121.471C173.966 125.74 178.658 129.266 182.986 131.964C185.175 133.355 187.264 134.574 189.34 135.57C195.481 138.606 200.176 139.937 203.634 139.326C204.873 139.073 205.702 138.709 206.295 138.136L206.824 137.253C206.961 137.29 206.395 138.309 203.657 138.966Z" fill="url(#paint22_linear_5_6439)"/>
<path d="M177.998 109.325C174.296 105.111 171.389 101.478 169.243 98.56C167.097 95.6423 165.82 93.0309 165.426 90.9488C165.286 90.106 165.319 89.1632 165.688 88.6034L164.986 89.5864C164.963 89.9462 164.953 90.5292 165.03 91.0622C165.387 93.2809 166.664 95.8923 168.86 98.8966C171.006 101.814 173.813 105.275 177.515 109.488L177.998 109.325Z" fill="url(#paint23_linear_5_6439)"/>
<path d="M259.231 165.424L259.354 165.237L259.231 165.424Z" fill="url(#paint24_linear_5_6439)"/>
<path d="M260.915 150.941C260.802 150.545 260.689 150.149 260.575 149.752C260.462 149.356 260.349 148.959 260.185 148.476C258.261 142.544 254.634 135.862 249.405 128.604C248.968 128.048 248.618 127.442 248.132 126.799C247.495 125.896 246.722 124.957 245.999 124.104C241.059 117.949 234.977 111.415 227.902 104.761C223.867 100.971 219.658 97.281 215.326 93.7777C215.139 93.6545 215.089 93.5679 214.903 93.4447C207.422 87.4871 199.694 81.9027 191.87 76.9513C187.442 74.0809 182.94 71.4838 178.538 69.0599C177.842 68.6537 177.059 68.2975 176.362 67.8913C175.529 67.4484 174.696 67.0056 173.777 66.6128C172.944 66.17 172.111 65.7272 171.191 65.3343C170.731 65.1379 170.272 64.9415 169.898 64.6951C161.545 60.6267 153.605 57.4743 146.265 55.3612C145.992 55.288 145.582 55.1782 145.309 55.105C136.703 52.799 129.17 51.9519 123.047 52.9466C122.824 52.96 122.651 53.06 122.428 53.0734C122.204 53.0868 121.895 53.1502 121.721 53.2502C118.227 53.9976 115.492 55.461 113.554 57.5038L113.467 57.5538C113.294 57.6538 113.258 57.7904 113.171 57.8404C113.048 58.027 112.838 58.2636 112.715 58.4502L112.505 58.6868L112.418 58.7368C112.382 58.8734 112.209 58.9734 112.172 59.11C111.643 59.9931 111.163 60.9627 110.907 61.9189C109.695 65.6206 110.41 70.0579 112.071 75.3344C110.373 70.1945 110.502 65.617 111.64 62.1885C111.896 61.2323 112.339 60.3993 112.868 59.5163C112.905 59.3797 113.078 59.2797 113.115 59.1431L113.238 58.9564C113.361 58.7698 113.484 58.5832 113.694 58.3466C113.731 58.21 113.817 58.16 113.991 58.06L114.164 57.96C115.929 56.0172 118.49 54.6538 121.898 53.9564C122.071 53.8565 122.295 53.8431 122.604 53.7797C122.828 53.7663 123.001 53.6663 123.224 53.6529C129.124 52.6715 136.607 53.432 145.126 55.788C145.399 55.8612 145.809 55.971 146.082 56.0442C153.372 58.0707 161.312 61.2231 169.529 65.2549C169.989 65.4513 170.448 65.6477 170.822 65.8941C171.655 66.337 172.488 66.7798 173.321 67.2226C174.154 67.6654 174.987 68.1082 175.82 68.5511C176.516 68.9573 177.299 69.3135 177.995 69.7197C182.397 72.1436 186.899 74.7407 191.277 77.5245C199.101 82.4759 206.779 87.9737 214.173 93.9813C214.36 94.1045 214.41 94.1911 214.596 94.3143C218.928 97.8176 223.137 101.508 227.173 105.298C234.248 111.952 240.28 118.399 245.169 124.468C245.892 125.32 246.579 126.31 247.302 127.162C247.739 127.718 248.225 128.361 248.575 128.968C253.891 136.175 257.382 142.82 259.342 148.616C259.456 149.013 259.569 149.409 259.682 149.806C259.796 150.202 259.909 150.599 260.023 150.995C261.337 156.471 261.022 160.926 258.891 164.235C258.768 164.421 258.644 164.608 258.521 164.794C257.905 165.727 257.253 166.797 256.313 167.57C257.303 166.884 258.428 166.234 259.131 165.251C259.254 165.064 259.377 164.877 259.587 164.641C261.892 161.232 262.28 156.504 260.915 150.941Z" fill="url(#paint25_linear_5_6439)"/>
</g>
<defs>
<filter id="filter0_d_5_6439" x="-13.0001" y="-19.9802" width="320.32" height="345.905" filterUnits="userSpaceOnUse" color-interpolation-filters="sRGB">
<feFlood flood-opacity="0" result="BackgroundImageFix"/>
<feColorMatrix in="SourceAlpha" type="matrix" values="0 0 0 0 0 0 0 0 0 0 0 0 0 0 0 0 0 0 127 0" result="hardAlpha"/>
<feOffset dx="-30" dy="30"/>
<feGaussianBlur stdDeviation="25"/>
<feComposite in2="hardAlpha" operator="out"/>
<feColorMatrix type="matrix" values="0 0 0 0 0 0 0 0 0 0 0 0 0 0 0 0 0 0 0.75 0"/>
<feBlend mode="normal" in2="BackgroundImageFix" result="effect1_dropShadow_5_6439"/>
<feBlend mode="normal" in="SourceGraphic" in2="effect1_dropShadow_5_6439" result="shape"/>
</filter>
<linearGradient id="paint0_linear_5_6439" x1="114.671" y1="55.2504" x2="267.226" y2="152.159" gradientUnits="userSpaceOnUse">
<stop stop-color="#D2AB5A"/>
<stop offset="0.0610851" stop-color="#BA9443"/>
<stop offset="0.1898" stop-color="#7C5808"/>
<stop offset="0.2069" stop-color="#735000"/>
<stop offset="0.2274" stop-color="#775200"/>
<stop offset="0.3376" stop-color="#8A5D00"/>
<stop offset="0.4146" stop-color="#916100"/>
<stop offset="0.4344" stop-color="#976707"/>
<stop offset="0.4986" stop-color="#D8B364"/>
<stop offset="0.5246" stop-color="#D4AE5D"/>
<stop offset="0.5617" stop-color="#CA9F4A"/>
<stop offset="0.6053" stop-color="#B9882C"/>
<stop offset="0.6414" stop-color="#A8700D"/>
<stop offset="0.6805" stop-color="#815400"/>
<stop offset="0.8029" stop-color="#B38116"/>
<stop offset="0.8267" stop-color="#A27114"/>
<stop offset="0.8802" stop-color="#815110"/>
<stop offset="0.9247" stop-color="#6C3D0E"/>
<stop offset="0.9545" stop-color="#65360D"/>
<stop offset="0.9581" stop-color="#6F3F0D"/>
<stop offset="0.9701" stop-color="#8A580C"/>
<stop offset="0.9807" stop-color="#9B670C"/>
<stop offset="0.9886" stop-color="#A16C0C"/>
</linearGradient>
<linearGradient id="paint1_linear_5_6439" x1="78.7749" y1="78.1602" x2="259.401" y2="192.901" gradientUnits="userSpaceOnUse">
<stop stop-color="#D2AB5A"/>
<stop offset="0.0610851" stop-color="#BA9443"/>
<stop offset="0.1898" stop-color="#7C5808"/>
<stop offset="0.2069" stop-color="#735000"/>
<stop offset="0.2274" stop-color="#775200"/>
<stop offset="0.3376" stop-color="#8A5D00"/>
<stop offset="0.4146" stop-color="#916100"/>
<stop offset="0.4344" stop-color="#976707"/>
<stop offset="0.4986" stop-color="#D8B364"/>
<stop offset="0.5246" stop-color="#D4AE5D"/>
<stop offset="0.5617" stop-color="#CA9F4A"/>
<stop offset="0.6053" stop-color="#B9882C"/>
<stop offset="0.6414" stop-color="#A8700D"/>
<stop offset="0.6805" stop-color="#815400"/>
<stop offset="0.8029" stop-color="#B38116"/>
<stop offset="0.8267" stop-color="#A27114"/>
<stop offset="0.8802" stop-color="#815110"/>
<stop offset="0.9247" stop-color="#6C3D0E"/>
<stop offset="0.9545" stop-color="#65360D"/>
<stop offset="0.9581" stop-color="#6F3F0D"/>
<stop offset="0.9701" stop-color="#8A580C"/>
<stop offset="0.9807" stop-color="#9B670C"/>
<stop offset="0.9886" stop-color="#A16C0C"/>
</linearGradient>
<linearGradient id="paint2_linear_5_6439" x1="205.881" y1="53.5567" x2="162.922" y2="179.393" gradientUnits="userSpaceOnUse">
<stop stop-color="#D7AC4C"/>
<stop offset="0.1816" stop-color="#FFFFB0"/>
<stop offset="0.3268" stop-color="#F4D174"/>
<stop offset="0.3659" stop-color="#FBED99"/>
<stop offset="0.3939" stop-color="#FAEC97"/>
<stop offset="0.433" stop-color="#DEB04D"/>
<stop offset="0.5275" stop-color="#DFB24F"/>
<stop offset="0.5615" stop-color="#E2B756"/>
<stop offset="0.5858" stop-color="#E7C161"/>
<stop offset="0.6053" stop-color="#EECF72"/>
<stop offset="0.6207" stop-color="#F6DF86"/>
<stop offset="0.7529" stop-color="#F2D87E"/>
<stop offset="0.7672" stop-color="#F1D77D"/>
<stop offset="0.7716" stop-color="#EBCD71"/>
<stop offset="0.7804" stop-color="#E2BE60"/>
<stop offset="0.7913" stop-color="#DCB455"/>
<stop offset="0.8066" stop-color="#D8AE4E"/>
<stop offset="0.8492" stop-color="#D7AC4C"/>
<stop offset="1" stop-color="#966424"/>
</linearGradient>
<linearGradient id="paint3_linear_5_6439" x1="199.073" y1="70.4613" x2="156.114" y2="196.298" gradientUnits="userSpaceOnUse">
<stop offset="0.1136" stop-color="#D7AC4C"/>
<stop offset="0.1816" stop-color="#FFFFB0"/>
<stop offset="0.3268" stop-color="#F4D174"/>
<stop offset="0.3659" stop-color="#FBED99"/>
<stop offset="0.3939" stop-color="#FAEC97"/>
<stop offset="0.433" stop-color="#DEB04D"/>
<stop offset="0.5275" stop-color="#DFB24F"/>
<stop offset="0.5615" stop-color="#E2B756"/>
<stop offset="0.5858" stop-color="#E7C161"/>
<stop offset="0.6053" stop-color="#EECF72"/>
<stop offset="0.6207" stop-color="#F6DF86"/>
<stop offset="0.7529" stop-color="#F2D87E"/>
<stop offset="0.7672" stop-color="#F1D77D"/>
<stop offset="0.7716" stop-color="#EBCD71"/>
<stop offset="0.7804" stop-color="#E2BE60"/>
<stop offset="0.7913" stop-color="#DCB455"/>
<stop offset="0.8066" stop-color="#D8AE4E"/>
<stop offset="0.8492" stop-color="#D7AC4C"/>
<stop offset="1" stop-color="#966424"/>
</linearGradient>
<linearGradient id="paint4_linear_5_6439" x1="225.55" y1="121.411" x2="212.459" y2="114.966" gradientUnits="userSpaceOnUse">
<stop stop-color="#A16C0C"/>
<stop offset="0.2318" stop-color="#BE9134"/>
<stop offset="0.5559" stop-color="#A8700D"/>
<stop offset="1" stop-color="#432400"/>
</linearGradient>
<linearGradient id="paint5_linear_5_6439" x1="172.762" y1="96.7851" x2="190.957" y2="108.854" gradientUnits="userSpaceOnUse">
<stop stop-color="#A16C0C"/>
<stop offset="0.2318" stop-color="#BE9134"/>
<stop offset="0.5559" stop-color="#A8700D"/>
<stop offset="1" stop-color="#432400"/>
</linearGradient>
<linearGradient id="paint6_linear_5_6439" x1="228.001" y1="138.679" x2="202.378" y2="120.36" gradientUnits="userSpaceOnUse">
<stop stop-color="#A16C0C"/>
<stop offset="0.2318" stop-color="#BE9134"/>
<stop offset="0.5559" stop-color="#A8700D"/>
<stop offset="1" stop-color="#432400"/>
</linearGradient>
<linearGradient id="paint7_linear_5_6439" x1="236.207" y1="140.456" x2="206.347" y2="126.932" gradientUnits="userSpaceOnUse">
<stop stop-color="#A16C0C"/>
<stop offset="0.2318" stop-color="#BE9134"/>
<stop offset="0.5559" stop-color="#A8700D"/>
<stop offset="1" stop-color="#432400"/>
</linearGradient>
<linearGradient id="paint8_linear_5_6439" x1="189.221" y1="113.284" x2="201.47" y2="121.065" gradientUnits="userSpaceOnUse">
<stop stop-color="#A16C0C"/>
<stop offset="0.2318" stop-color="#BE9134"/>
<stop offset="0.5559" stop-color="#A8700D"/>
<stop offset="1" stop-color="#432400"/>
</linearGradient>
<linearGradient id="paint9_linear_5_6439" x1="156.961" y1="86.661" x2="176.309" y2="109.5" gradientUnits="userSpaceOnUse">
<stop stop-color="#A16C0C"/>
<stop offset="0.2318" stop-color="#BE9134"/>
<stop offset="0.5559" stop-color="#A8700D"/>
<stop offset="1" stop-color="#432400"/>
</linearGradient>
<linearGradient id="paint10_linear_5_6439" x1="198.327" y1="133.805" x2="183.493" y2="122.341" gradientUnits="userSpaceOnUse">
<stop stop-color="#A16C0C"/>
<stop offset="0.2318" stop-color="#BE9134"/>
<stop offset="0.5559" stop-color="#A8700D"/>
<stop offset="1" stop-color="#432400"/>
</linearGradient>
<linearGradient id="paint11_linear_5_6439" x1="164.634" y1="116.081" x2="183.442" y2="123.435" gradientUnits="userSpaceOnUse">
<stop stop-color="#A16C0C"/>
<stop offset="0.2318" stop-color="#BE9134"/>
<stop offset="0.5559" stop-color="#A8700D"/>
<stop offset="1" stop-color="#432400"/>
</linearGradient>
<linearGradient id="paint12_linear_5_6439" x1="136.826" y1="96.6926" x2="160.23" y2="111.559" gradientUnits="userSpaceOnUse">
<stop stop-color="#A16C0C"/>
<stop offset="0.2318" stop-color="#BE9134"/>
<stop offset="0.5559" stop-color="#A8700D"/>
<stop offset="1" stop-color="#432400"/>
</linearGradient>
<linearGradient id="paint13_linear_5_6439" x1="209.685" y1="147.981" x2="170.212" y2="123.076" gradientUnits="userSpaceOnUse">
<stop stop-color="#A16C0C"/>
<stop offset="0.2318" stop-color="#BE9134"/>
<stop offset="0.5559" stop-color="#A8700D"/>
<stop offset="1" stop-color="#432400"/>
</linearGradient>
<linearGradient id="paint14_linear_5_6439" x1="159.538" y1="121.812" x2="167.098" y2="126.785" gradientUnits="userSpaceOnUse">
<stop stop-color="#A16C0C"/>
<stop offset="0.2318" stop-color="#BE9134"/>
<stop offset="0.5559" stop-color="#A8700D"/>
<stop offset="1" stop-color="#432400"/>
</linearGradient>
<linearGradient id="paint15_linear_5_6439" x1="204.544" y1="53.4522" x2="161.585" y2="179.287" gradientUnits="userSpaceOnUse">
<stop stop-color="#D7AC4C"/>
<stop offset="0.1816" stop-color="#FFFFB0"/>
<stop offset="0.3268" stop-color="#F4D174"/>
<stop offset="0.3659" stop-color="#FBED99"/>
<stop offset="0.3939" stop-color="#FAEC97"/>
<stop offset="0.433" stop-color="#DEB04D"/>
<stop offset="0.5275" stop-color="#DFB24F"/>
<stop offset="0.5615" stop-color="#E2B756"/>
<stop offset="0.5858" stop-color="#E7C161"/>
<stop offset="0.6053" stop-color="#EECF72"/>
<stop offset="0.6207" stop-color="#F6DF86"/>
<stop offset="0.7529" stop-color="#F2D87E"/>
<stop offset="0.7672" stop-color="#F1D77D"/>
<stop offset="0.7716" stop-color="#EBCD71"/>
<stop offset="0.7804" stop-color="#E2BE60"/>
<stop offset="0.7913" stop-color="#DCB455"/>
<stop offset="0.8066" stop-color="#D8AE4E"/>
<stop offset="0.8492" stop-color="#D7AC4C"/>
<stop offset="1" stop-color="#966424"/>
</linearGradient>
<linearGradient id="paint16_linear_5_6439" x1="143.177" y1="112.087" x2="158.959" y2="123.133" gradientUnits="userSpaceOnUse">
<stop stop-color="#A16C0C"/>
<stop offset="0.2318" stop-color="#BE9134"/>
<stop offset="0.5559" stop-color="#A8700D"/>
<stop offset="1" stop-color="#432400"/>
</linearGradient>
<linearGradient id="paint17_linear_5_6439" x1="166.831" y1="89.1888" x2="198.866" y2="109.198" gradientUnits="userSpaceOnUse">
<stop stop-color="#966424"/>
<stop offset="0.1508" stop-color="#D7AC4C"/>
<stop offset="0.1934" stop-color="#D8AE4E"/>
<stop offset="0.2087" stop-color="#DCB455"/>
<stop offset="0.2196" stop-color="#E2BE60"/>
<stop offset="0.2284" stop-color="#EBCD71"/>
<stop offset="0.2328" stop-color="#F1D77D"/>
<stop offset="0.2471" stop-color="#F2D87E"/>
<stop offset="0.3793" stop-color="#F6DF86"/>
<stop offset="0.3947" stop-color="#EECF72"/>
<stop offset="0.4142" stop-color="#E7C161"/>
<stop offset="0.4385" stop-color="#E2B756"/>
<stop offset="0.4725" stop-color="#DFB24F"/>
<stop offset="0.567" stop-color="#DEB04D"/>
<stop offset="0.6061" stop-color="#FAEC97"/>
<stop offset="0.6341" stop-color="#FBED99"/>
<stop offset="0.6732" stop-color="#F4D174"/>
<stop offset="0.8184" stop-color="#FFFFB0"/>
<stop offset="1" stop-color="#D7AC4C"/>
</linearGradient>
<linearGradient id="paint18_linear_5_6439" x1="178.751" y1="117.262" x2="189.615" y2="124.163" gradientUnits="userSpaceOnUse">
<stop stop-color="#966424"/>
<stop offset="0.1508" stop-color="#D7AC4C"/>
<stop offset="0.1934" stop-color="#D8AE4E"/>
<stop offset="0.2087" stop-color="#DCB455"/>
<stop offset="0.2196" stop-color="#E2BE60"/>
<stop offset="0.2284" stop-color="#EBCD71"/>
<stop offset="0.2328" stop-color="#F1D77D"/>
<stop offset="0.2471" stop-color="#F2D87E"/>
<stop offset="0.3793" stop-color="#F6DF86"/>
<stop offset="0.3947" stop-color="#EECF72"/>
<stop offset="0.4142" stop-color="#E7C161"/>
<stop offset="0.4385" stop-color="#E2B756"/>
<stop offset="0.4725" stop-color="#DFB24F"/>
<stop offset="0.567" stop-color="#DEB04D"/>
<stop offset="0.6061" stop-color="#FAEC97"/>
<stop offset="0.6341" stop-color="#FBED99"/>
<stop offset="0.6732" stop-color="#F4D174"/>
<stop offset="0.8184" stop-color="#FFFFB0"/>
<stop offset="1" stop-color="#D7AC4C"/>
</linearGradient>
<linearGradient id="paint19_linear_5_6439" x1="214.441" y1="111.76" x2="218.7" y2="114.466" gradientUnits="userSpaceOnUse">
<stop stop-color="#966424"/>
<stop offset="0.1508" stop-color="#D7AC4C"/>
<stop offset="0.1934" stop-color="#D8AE4E"/>
<stop offset="0.2087" stop-color="#DCB455"/>
<stop offset="0.2196" stop-color="#E2BE60"/>
<stop offset="0.2284" stop-color="#EBCD71"/>
<stop offset="0.2328" stop-color="#F1D77D"/>
<stop offset="0.2471" stop-color="#F2D87E"/>
<stop offset="0.3793" stop-color="#F6DF86"/>
<stop offset="0.3947" stop-color="#EECF72"/>
<stop offset="0.4142" stop-color="#E7C161"/>
<stop offset="0.4385" stop-color="#E2B756"/>
<stop offset="0.4725" stop-color="#DFB24F"/>
<stop offset="0.567" stop-color="#DEB04D"/>
<stop offset="0.6061" stop-color="#FAEC97"/>
<stop offset="0.6341" stop-color="#FBED99"/>
<stop offset="0.6732" stop-color="#F4D174"/>
<stop offset="0.8184" stop-color="#FFFFB0"/>
<stop offset="1" stop-color="#D7AC4C"/>
</linearGradient>
<linearGradient id="paint20_linear_5_6439" x1="167.681" y1="118.13" x2="137.278" y2="88.3786" gradientUnits="userSpaceOnUse">
<stop stop-color="#966424"/>
<stop offset="0.1508" stop-color="#D7AC4C"/>
<stop offset="0.1934" stop-color="#D8AE4E"/>
<stop offset="0.2087" stop-color="#DCB455"/>
<stop offset="0.2196" stop-color="#E2BE60"/>
<stop offset="0.2284" stop-color="#EBCD71"/>
<stop offset="0.2328" stop-color="#F1D77D"/>
<stop offset="0.2471" stop-color="#F2D87E"/>
<stop offset="0.3793" stop-color="#F6DF86"/>
<stop offset="0.3947" stop-color="#EECF72"/>
<stop offset="0.4142" stop-color="#E7C161"/>
<stop offset="0.4385" stop-color="#E2B756"/>
<stop offset="0.4725" stop-color="#DFB24F"/>
<stop offset="0.567" stop-color="#DEB04D"/>
<stop offset="0.6061" stop-color="#FAEC97"/>
<stop offset="0.6341" stop-color="#FBED99"/>
<stop offset="0.6732" stop-color="#F4D174"/>
<stop offset="0.8184" stop-color="#FFFFB0"/>
<stop offset="1" stop-color="#D7AC4C"/>
</linearGradient>
<linearGradient id="paint21_linear_5_6439" x1="196.448" y1="113.567" x2="227.368" y2="133.208" gradientUnits="userSpaceOnUse">
<stop stop-color="#966424"/>
<stop offset="0.1508" stop-color="#D7AC4C"/>
<stop offset="0.1934" stop-color="#D8AE4E"/>
<stop offset="0.2087" stop-color="#DCB455"/>
<stop offset="0.2196" stop-color="#E2BE60"/>
<stop offset="0.2284" stop-color="#EBCD71"/>
<stop offset="0.2328" stop-color="#F1D77D"/>
<stop offset="0.2471" stop-color="#F2D87E"/>
<stop offset="0.3793" stop-color="#F6DF86"/>
<stop offset="0.3947" stop-color="#EECF72"/>
<stop offset="0.4142" stop-color="#E7C161"/>
<stop offset="0.4385" stop-color="#E2B756"/>
<stop offset="0.4725" stop-color="#DFB24F"/>
<stop offset="0.567" stop-color="#DEB04D"/>
<stop offset="0.6061" stop-color="#FAEC97"/>
<stop offset="0.6341" stop-color="#FBED99"/>
<stop offset="0.6732" stop-color="#F4D174"/>
<stop offset="0.8184" stop-color="#FFFFB0"/>
<stop offset="1" stop-color="#D7AC4C"/>
</linearGradient>
<linearGradient id="paint22_linear_5_6439" x1="211.962" y1="149.416" x2="163.35" y2="114.793" gradientUnits="userSpaceOnUse">
<stop stop-color="#966424"/>
<stop offset="0.1508" stop-color="#D7AC4C"/>
<stop offset="0.1934" stop-color="#D8AE4E"/>
<stop offset="0.2087" stop-color="#DCB455"/>
<stop offset="0.2196" stop-color="#E2BE60"/>
<stop offset="0.2284" stop-color="#EBCD71"/>
<stop offset="0.2328" stop-color="#F1D77D"/>
<stop offset="0.2471" stop-color="#F2D87E"/>
<stop offset="0.3793" stop-color="#F6DF86"/>
<stop offset="0.3947" stop-color="#EECF72"/>
<stop offset="0.4142" stop-color="#E7C161"/>
<stop offset="0.4385" stop-color="#E2B756"/>
<stop offset="0.4725" stop-color="#DFB24F"/>
<stop offset="0.567" stop-color="#DEB04D"/>
<stop offset="0.6061" stop-color="#FAEC97"/>
<stop offset="0.6341" stop-color="#FBED99"/>
<stop offset="0.6732" stop-color="#F4D174"/>
<stop offset="0.8184" stop-color="#FFFFB0"/>
<stop offset="1" stop-color="#D7AC4C"/>
</linearGradient>
<linearGradient id="paint23_linear_5_6439" x1="183.679" y1="111.467" x2="156.454" y2="83.2414" gradientUnits="userSpaceOnUse">
<stop stop-color="#966424"/>
<stop offset="0.1508" stop-color="#D7AC4C"/>
<stop offset="0.1934" stop-color="#D8AE4E"/>
<stop offset="0.2087" stop-color="#DCB455"/>
<stop offset="0.2196" stop-color="#E2BE60"/>
<stop offset="0.2284" stop-color="#EBCD71"/>
<stop offset="0.2328" stop-color="#F1D77D"/>
<stop offset="0.2471" stop-color="#F2D87E"/>
<stop offset="0.3793" stop-color="#F6DF86"/>
<stop offset="0.3947" stop-color="#EECF72"/>
<stop offset="0.4142" stop-color="#E7C161"/>
<stop offset="0.4385" stop-color="#E2B756"/>
<stop offset="0.4725" stop-color="#DFB24F"/>
<stop offset="0.567" stop-color="#DEB04D"/>
<stop offset="0.6061" stop-color="#FAEC97"/>
<stop offset="0.6341" stop-color="#FBED99"/>
<stop offset="0.6732" stop-color="#F4D174"/>
<stop offset="0.8184" stop-color="#FFFFB0"/>
<stop offset="1" stop-color="#D7AC4C"/>
</linearGradient>
<linearGradient id="paint24_linear_5_6439" x1="99.8637" y1="69.203" x2="211.996" y2="136.805" gradientUnits="userSpaceOnUse">
<stop stop-color="#D7AC4C"/>
<stop offset="0.1816" stop-color="#FFFFB0"/>
<stop offset="0.3268" stop-color="#F4D174"/>
<stop offset="0.3659" stop-color="#FBED99"/>
<stop offset="0.3939" stop-color="#FAEC97"/>
<stop offset="0.433" stop-color="#DEB04D"/>
<stop offset="0.5275" stop-color="#DFB24F"/>
<stop offset="0.5615" stop-color="#E2B756"/>
<stop offset="0.5858" stop-color="#E7C161"/>
<stop offset="0.6053" stop-color="#EECF72"/>
<stop offset="0.6207" stop-color="#F6DF86"/>
<stop offset="0.7529" stop-color="#F2D87E"/>
<stop offset="0.7672" stop-color="#F1D77D"/>
<stop offset="0.7716" stop-color="#EBCD71"/>
<stop offset="0.7804" stop-color="#E2BE60"/>
<stop offset="0.7913" stop-color="#DCB455"/>
<stop offset="0.8066" stop-color="#D8AE4E"/>
<stop offset="0.8492" stop-color="#D7AC4C"/>
<stop offset="1" stop-color="#966424"/>
</linearGradient>
<linearGradient id="paint25_linear_5_6439" x1="109.2" y1="53.0105" x2="305.701" y2="171.484" gradientUnits="userSpaceOnUse">
<stop stop-color="#D7AC4C"/>
<stop offset="0.1816" stop-color="#FFFFB0"/>
<stop offset="0.3268" stop-color="#F4D174"/>
<stop offset="0.3659" stop-color="#FBED99"/>
<stop offset="0.3939" stop-color="#FAEC97"/>
<stop offset="0.433" stop-color="#DEB04D"/>
<stop offset="0.5275" stop-color="#DFB24F"/>
<stop offset="0.5615" stop-color="#E2B756"/>
<stop offset="0.5858" stop-color="#E7C161"/>
<stop offset="0.6053" stop-color="#EECF72"/>
<stop offset="0.6207" stop-color="#F6DF86"/>
<stop offset="0.7529" stop-color="#F2D87E"/>
<stop offset="0.7672" stop-color="#F1D77D"/>
<stop offset="0.7716" stop-color="#EBCD71"/>
<stop offset="0.7804" stop-color="#E2BE60"/>
<stop offset="0.7913" stop-color="#DCB455"/>
<stop offset="0.8066" stop-color="#D8AE4E"/>
<stop offset="0.8492" stop-color="#D7AC4C"/>
<stop offset="1" stop-color="#966424"/>
</linearGradient>
</defs>
</svg>
