<svg width="239" height="226" viewBox="0 0 239 226" fill="none" xmlns="http://www.w3.org/2000/svg">
<g filter="url(#filter0_d_5_6499)">
<g filter="url(#filter1_d_5_6499)">
<path d="M188.731 97.2057C188.698 109.349 182.958 121.208 171.451 130.276C159.894 139.258 144.83 143.567 129.808 143.349C114.737 143.044 99.7068 138.211 88.1669 128.824C76.7136 119.386 70.9662 107.231 70.999 95.088C71.0817 83.0313 76.7714 71.0861 88.2788 62.0175C99.7861 52.9488 114.9 48.7263 129.921 48.9447C144.993 49.2497 160.023 54.0822 171.563 63.47C183.066 72.9943 188.677 85.1125 188.731 97.2057Z" fill="url(#paint0_linear_5_6499)"/>
</g>
<path d="M188.731 97.2057L188.595 100.171C188.628 88.0275 182.931 75.9594 171.427 66.435C159.974 56.9972 144.894 52.0781 129.786 51.9098C114.714 51.6048 99.6505 55.9139 88.1431 64.9825C77.142 73.528 71.3255 84.8535 70.8062 96.354L70.9418 93.3889C71.4612 81.8885 77.191 70.6129 88.2788 62.0174C99.8361 53.0354 114.9 48.7263 129.921 48.9447C144.993 49.2497 160.023 54.0822 171.563 63.4699C183.066 72.9943 188.764 85.0624 188.731 97.2057Z" fill="url(#paint1_linear_5_6499)"/>
<path d="M188.652 98.868L188.516 101.833C188.526 101.25 188.585 100.754 188.595 100.171L188.731 97.2056C188.721 97.7886 188.661 98.285 188.652 98.868Z" fill="url(#paint2_linear_5_6499)"/>
<path d="M198.626 99.3447L197.981 113.227C197.309 126.663 190.62 139.878 177.741 149.97C164.305 160.498 146.553 165.551 128.976 165.307C111.349 164.976 93.7103 159.225 80.3275 148.245C66.8948 137.179 60.1706 122.933 60.2194 108.817C60.1792 108.148 60.7851 96.5971 60.7949 96.0141L60.9306 93.049C60.9208 93.632 60.8744 94.3516 60.9146 95.0212C60.8658 109.137 67.5899 123.383 81.0227 134.45C94.4055 145.429 112.044 151.18 129.671 151.511C147.298 151.842 164.913 146.753 178.436 136.174C191.265 125.996 198.091 112.817 198.626 99.3447Z" fill="url(#paint3_linear_5_6499)"/>
<path d="M178.671 57.9807C165.288 47.001 147.649 41.2499 130.022 40.9191C112.309 40.6382 94.6933 45.7277 81.1209 56.2196C67.685 66.748 60.9133 80.8191 60.8645 94.9346C60.8158 109.05 67.5399 123.297 80.9727 134.363C94.3554 145.342 111.994 151.094 129.621 151.424C147.248 151.755 164.863 146.666 178.386 136.087C191.822 125.559 198.643 111.574 198.692 97.459C198.741 83.3435 192.053 68.9603 178.671 57.9807ZM188.731 97.2056C188.698 109.349 182.958 121.207 171.451 130.276C159.894 139.258 144.83 143.567 129.808 143.349C114.737 143.044 99.7068 138.211 88.1669 128.824C76.7136 119.386 70.9662 107.231 70.999 95.0879C71.0817 83.0312 76.7714 71.086 88.2788 62.0174C99.7861 52.9487 114.9 48.7262 129.921 48.9446C144.993 49.2496 160.023 54.0821 171.563 63.4699C183.066 72.9942 188.677 85.1124 188.731 97.2056Z" fill="url(#paint4_linear_5_6499)"/>
<path d="M188.731 97.2057C188.698 109.349 182.958 121.208 171.451 130.276C159.894 139.258 144.83 143.567 129.808 143.349C114.737 143.044 99.7068 138.211 88.1669 128.824C76.7136 119.386 70.9662 107.231 70.999 95.088C71.0817 83.0313 76.7714 71.0861 88.2788 62.0175C99.7861 52.9488 114.9 48.7263 129.921 48.9447C144.993 49.2497 160.023 54.0822 171.563 63.47C183.066 72.9943 188.677 85.1125 188.731 97.2057Z" stroke="url(#paint5_linear_5_6499)" stroke-miterlimit="10"/>
<path d="M105.228 80.1752L105.093 83.1402L98.3082 77.5888L98.3938 74.5372L105.228 80.1752Z" fill="url(#paint6_linear_5_6499)"/>
<path d="M131.969 77.0918L131.834 80.0568C126.963 81.0212 122.803 82.615 119.216 84.8016L119.351 81.8365C122.938 79.6499 127.099 78.0561 131.969 77.0918Z" fill="url(#paint7_linear_5_6499)"/>
<path d="M113.333 86.8123L113.197 89.7773C112.162 91.1835 111.609 92.4264 111.453 93.5558L111.588 90.5907C111.745 89.4613 112.297 88.2185 113.333 86.8123Z" fill="url(#paint8_linear_5_6499)"/>
<path d="M122.047 93.9056L121.961 96.9572L113.197 89.7774L113.333 86.8123L122.047 93.9056Z" fill="url(#paint9_linear_5_6499)"/>
<path d="M148.894 100.807L148.759 103.772C148.778 102.606 148.315 101.603 147.232 100.727C146.199 99.9379 145.006 99.4719 143.58 99.6022C142.191 99.596 140.519 100.1 138.587 100.753L138.722 97.7881C140.604 97.0479 142.327 96.631 143.716 96.6372C145.192 96.5934 146.334 96.9728 147.367 97.762C148.45 98.6379 148.914 99.6405 148.894 100.807Z" fill="url(#paint10_linear_5_6499)"/>
<path d="M148.894 100.807L148.759 103.772C148.778 102.606 148.315 101.603 147.232 100.727C146.199 99.9379 145.006 99.4719 143.58 99.6022C142.191 99.596 140.519 100.1 138.587 100.753L138.722 97.7881C140.604 97.0479 142.327 96.631 143.716 96.6372C145.192 96.5934 146.334 96.9728 147.367 97.762C148.45 98.6379 148.914 99.6405 148.894 100.807Z" fill="url(#paint11_linear_5_6499)"/>
<path d="M148.908 101.03L148.772 103.995L148.759 103.772L148.894 100.806L148.908 101.03Z" fill="url(#paint12_linear_5_6499)"/>
<path d="M131.048 101.295L130.912 104.26C127.298 106 124.103 107.267 121.242 108.111C118.38 108.955 115.442 109.266 112.377 108.957C109.312 108.648 106.503 107.383 103.814 105.125C100.465 102.324 98.7881 99.0202 98.8202 95.0757C98.8568 94.9391 98.8068 94.8525 98.8434 94.7159L98.979 91.7508C98.9424 91.8874 98.9924 91.974 98.9558 92.1106C98.9238 96.0551 100.601 99.3594 103.95 102.16C106.639 104.418 109.534 105.633 112.513 105.992C115.578 106.301 118.429 106.04 121.378 105.146C124.239 104.302 127.434 103.035 131.048 101.295Z" fill="url(#paint13_linear_5_6499)"/>
<path d="M141.318 109.684L141.182 112.649L130.962 104.347L131.048 101.295L141.318 109.684Z" fill="url(#paint14_linear_5_6499)"/>
<path d="M161.417 99.6964L161.331 102.748C161.199 106.519 159.058 110.411 155.132 114.41L155.267 111.445C159.281 107.396 161.285 103.468 161.417 99.6964Z" fill="url(#paint15_linear_5_6499)"/>
<path d="M156.02 121.749L155.798 124.764L149.2 119.336L149.286 116.284L156.02 121.749Z" fill="url(#paint16_linear_5_6499)"/>
<path d="M162.139 116.946L162.053 119.998L155.798 124.764L156.02 121.749L162.139 116.946Z" fill="url(#paint17_linear_5_6499)"/>
<path d="M149.286 116.284L149.2 119.336C145.972 121.546 142.545 123.409 138.954 124.79C135.277 126.22 132.055 127.041 129.067 127.265L129.203 124.3C132.191 124.075 135.499 123.205 139.09 121.824C142.717 120.307 146.108 118.581 149.286 116.284Z" fill="url(#paint18_linear_5_6499)"/>
<path d="M148.033 85.7151C151.098 86.0239 153.907 87.289 156.546 89.4603C159.895 92.261 161.522 95.4787 161.49 99.4231C161.408 103.281 159.317 107.259 155.354 111.395L162.189 117.033L156.07 121.836L149.422 116.321C146.195 118.531 142.767 120.394 139.176 121.775C135.499 123.205 132.278 124.026 129.289 124.25L125.182 115.536C127.897 115.238 130.635 114.581 133.533 113.601C136.432 112.621 139.043 111.344 141.455 109.721L131.184 101.332C127.57 103.072 124.376 104.339 121.514 105.183C118.653 106.027 115.714 106.337 112.649 106.028C109.584 105.72 106.775 104.455 104.086 102.197C100.737 99.396 99.0604 96.0917 99.0924 92.1472C99.1245 88.2027 101.215 84.2242 105.402 80.0752L98.617 74.5238L104.735 69.7212L111.383 75.236C116.813 71.6396 122.236 69.4324 127.602 68.5278L132.106 77.1283C127.236 78.0926 123.075 79.6864 119.488 81.873L129.858 90.4349C133.386 88.7448 136.58 87.4778 139.392 86.5474C142.116 85.667 145.055 85.3562 148.033 85.7151ZM122.047 93.9055L113.333 86.8123C112.124 88.3185 111.535 89.6979 111.652 90.9005C111.682 92.1532 112.282 93.1924 113.365 94.0682C114.398 94.8574 115.591 95.3235 117.017 95.1931C118.493 95.1493 120.128 94.7823 122.047 93.9055ZM148.894 100.806C148.914 99.6404 148.45 98.6378 147.367 97.7619C146.334 96.9727 145.142 96.5067 143.716 96.6371C142.327 96.6308 140.654 97.1344 138.722 97.788L147.113 104.721C148.372 103.302 148.875 101.972 148.894 100.806Z" fill="url(#paint19_linear_5_6499)"/>
<path d="M129.153 124.213L128.93 127.228L124.91 118.464L125.045 115.499L129.153 124.213Z" fill="url(#paint20_linear_5_6499)"/>
<path d="M148.033 85.7151C151.098 86.0239 153.907 87.289 156.546 89.4603C159.895 92.261 161.522 95.4787 161.49 99.4231C161.408 103.281 159.317 107.259 155.354 111.395L162.189 117.033L156.07 121.836L149.422 116.321C146.195 118.531 142.767 120.394 139.176 121.775C135.499 123.205 132.278 124.026 129.289 124.25L125.182 115.536C127.897 115.238 130.635 114.581 133.533 113.601C136.432 112.621 139.043 111.344 141.455 109.721L131.184 101.332C127.57 103.072 124.376 104.339 121.514 105.183C118.653 106.027 115.714 106.337 112.649 106.028C109.584 105.72 106.775 104.455 104.086 102.197C100.737 99.396 99.0604 96.0917 99.0924 92.1472C99.1245 88.2027 101.215 84.2242 105.402 80.0752L98.617 74.5238L104.735 69.7212L111.383 75.236C116.813 71.6396 122.236 69.4324 127.602 68.5278L132.106 77.1283C127.236 78.0926 123.075 79.6864 119.488 81.873L129.858 90.4349C133.386 88.7448 136.58 87.4778 139.392 86.5474C142.116 85.667 145.055 85.3562 148.033 85.7151ZM122.047 93.9055L113.333 86.8123C112.124 88.3185 111.535 89.6979 111.652 90.9005C111.682 92.1532 112.282 93.1924 113.365 94.0682C114.398 94.8574 115.591 95.3235 117.017 95.1931C118.493 95.1493 120.128 94.7823 122.047 93.9055ZM148.894 100.806C148.914 99.6404 148.45 98.6378 147.367 97.7619C146.334 96.9727 145.142 96.5067 143.716 96.6371C142.327 96.6308 140.654 97.1344 138.722 97.788L147.113 104.721C148.372 103.302 148.875 101.972 148.894 100.806Z" stroke="url(#paint21_linear_5_6499)" stroke-width="0.5" stroke-miterlimit="10"/>
</g>
<defs>
<filter id="filter0_d_5_6499" x="-23" y="-28" width="284.862" height="282.189" filterUnits="userSpaceOnUse" color-interpolation-filters="sRGB">
<feFlood flood-opacity="0" result="BackgroundImageFix"/>
<feColorMatrix in="SourceAlpha" type="matrix" values="0 0 0 0 0 0 0 0 0 0 0 0 0 0 0 0 0 0 127 0" result="hardAlpha"/>
<feOffset dx="-10" dy="10"/>
<feGaussianBlur stdDeviation="25"/>
<feComposite in2="hardAlpha" operator="out"/>
<feColorMatrix type="matrix" values="0 0 0 0 0 0 0 0 0 0 0 0 0 0 0 0 0 0 0.75 0"/>
<feBlend mode="normal" in2="BackgroundImageFix" result="effect1_dropShadow_5_6499"/>
<feBlend mode="normal" in="SourceGraphic" in2="effect1_dropShadow_5_6499" result="shape"/>
</filter>
<filter id="filter1_d_5_6499" x="66.9988" y="48.9368" width="125.732" height="108.42" filterUnits="userSpaceOnUse" color-interpolation-filters="sRGB">
<feFlood flood-opacity="0" result="BackgroundImageFix"/>
<feColorMatrix in="SourceAlpha" type="matrix" values="0 0 0 0 0 0 0 0 0 0 0 0 0 0 0 0 0 0 127 0" result="hardAlpha"/>
<feOffset dy="10"/>
<feGaussianBlur stdDeviation="2"/>
<feComposite in2="hardAlpha" operator="out"/>
<feColorMatrix type="matrix" values="0 0 0 0 0 0 0 0 0 0 0 0 0 0 0 0 0 0 0.25 0"/>
<feBlend mode="normal" in2="BackgroundImageFix" result="effect1_dropShadow_5_6499"/>
<feBlend mode="normal" in="SourceGraphic" in2="effect1_dropShadow_5_6499" result="shape"/>
</filter>
<linearGradient id="paint0_linear_5_6499" x1="220.324" y1="120.399" x2="43.156" y2="72.927" gradientUnits="userSpaceOnUse">
<stop stop-color="#D7AC4C"/>
<stop offset="0.1816" stop-color="#FFFFB0"/>
<stop offset="0.3268" stop-color="#F4D174"/>
<stop offset="0.3659" stop-color="#FBED99"/>
<stop offset="0.3939" stop-color="#FAEC97"/>
<stop offset="0.433" stop-color="#DEB04D"/>
<stop offset="0.5275" stop-color="#DFB24F"/>
<stop offset="0.5615" stop-color="#E2B756"/>
<stop offset="0.5858" stop-color="#E7C161"/>
<stop offset="0.6053" stop-color="#EECF72"/>
<stop offset="0.6207" stop-color="#F6DF86"/>
<stop offset="0.7529" stop-color="#F2D87E"/>
<stop offset="0.7672" stop-color="#F1D77D"/>
<stop offset="0.7716" stop-color="#EBCD71"/>
<stop offset="0.7804" stop-color="#E2BE60"/>
<stop offset="0.7913" stop-color="#DCB455"/>
<stop offset="0.8066" stop-color="#D8AE4E"/>
<stop offset="0.8492" stop-color="#D7AC4C"/>
<stop offset="1" stop-color="#966424"/>
</linearGradient>
<linearGradient id="paint1_linear_5_6499" x1="188.27" y1="73.9802" x2="73.7401" y2="76.2345" gradientUnits="userSpaceOnUse">
<stop stop-color="#A16C0C"/>
<stop offset="0.2318" stop-color="#DFC072"/>
<stop offset="0.5559" stop-color="#A8700D"/>
<stop offset="0.7458" stop-color="#FADB85"/>
<stop offset="0.802" stop-color="#A16C0C"/>
<stop offset="0.9335" stop-color="#6C4405"/>
</linearGradient>
<linearGradient id="paint2_linear_5_6499" x1="187.557" y1="100.15" x2="189.7" y2="98.9126" gradientUnits="userSpaceOnUse">
<stop stop-color="#A16C0C"/>
<stop offset="0.1816" stop-color="#C9BF70"/>
<stop offset="0.3268" stop-color="#BE9134"/>
<stop offset="0.433" stop-color="#A8700D"/>
<stop offset="0.7067" stop-color="#C09F46"/>
<stop offset="0.8492" stop-color="#A16C0C"/>
<stop offset="1" stop-color="#602400"/>
</linearGradient>
<linearGradient id="paint3_linear_5_6499" x1="23.12" y1="116.39" x2="200.24" y2="136.672" gradientUnits="userSpaceOnUse">
<stop stop-color="#B39200"/>
<stop offset="0.0568408" stop-color="#AD8C01"/>
<stop offset="0.1314" stop-color="#9D7C04"/>
<stop offset="0.2156" stop-color="#836108"/>
<stop offset="0.2585" stop-color="#73500B"/>
<stop offset="0.2799" stop-color="#795311"/>
<stop offset="0.3592" stop-color="#8B5D24"/>
<stop offset="0.4146" stop-color="#91612B"/>
<stop offset="0.4344" stop-color="#976707"/>
<stop offset="0.5299" stop-color="#D8B364"/>
<stop offset="0.5502" stop-color="#D4AE5D"/>
<stop offset="0.5792" stop-color="#CA9F4A"/>
<stop offset="0.6132" stop-color="#B9882C"/>
<stop offset="0.6414" stop-color="#A8700D"/>
<stop offset="0.6805" stop-color="#815400"/>
<stop offset="0.8029" stop-color="#B38136"/>
<stop offset="0.8189" stop-color="#A2712D"/>
<stop offset="0.8549" stop-color="#81511C"/>
<stop offset="0.8849" stop-color="#6C3D11"/>
<stop offset="0.9049" stop-color="#65360D"/>
<stop offset="0.9126" stop-color="#6F3F0D"/>
<stop offset="0.938" stop-color="#8A580C"/>
<stop offset="0.9603" stop-color="#9B670C"/>
<stop offset="0.9772" stop-color="#A16C0C"/>
<stop offset="1" stop-color="#B9924B"/>
</linearGradient>
<linearGradient id="paint4_linear_5_6499" x1="218.82" y1="111.091" x2="21.2694" y2="77.9227" gradientUnits="userSpaceOnUse">
<stop stop-color="#D7AC4C"/>
<stop offset="0.1816" stop-color="#FFFFB0"/>
<stop offset="0.3268" stop-color="#F4D174"/>
<stop offset="0.3659" stop-color="#FBED99"/>
<stop offset="0.3939" stop-color="#FAEC97"/>
<stop offset="0.433" stop-color="#DEB04D"/>
<stop offset="0.5275" stop-color="#DFB24F"/>
<stop offset="0.5615" stop-color="#E2B756"/>
<stop offset="0.5858" stop-color="#E7C161"/>
<stop offset="0.6053" stop-color="#EECF72"/>
<stop offset="0.6207" stop-color="#F6DF86"/>
<stop offset="0.7529" stop-color="#F2D87E"/>
<stop offset="0.7672" stop-color="#F1D77D"/>
<stop offset="0.7716" stop-color="#EBCD71"/>
<stop offset="0.7804" stop-color="#E2BE60"/>
<stop offset="0.7913" stop-color="#DCB455"/>
<stop offset="0.8066" stop-color="#D8AE4E"/>
<stop offset="0.8492" stop-color="#D7AC4C"/>
<stop offset="1" stop-color="#966424"/>
</linearGradient>
<linearGradient id="paint5_linear_5_6499" x1="71.9166" y1="83.9099" x2="187.689" y2="108.378" gradientUnits="userSpaceOnUse">
<stop stop-color="#D7AC4C"/>
<stop offset="0.1816" stop-color="#FFFFB0"/>
<stop offset="0.3268" stop-color="#F4D174"/>
<stop offset="0.433" stop-color="#DEB04D"/>
<stop offset="0.7067" stop-color="#F6DF86"/>
<stop offset="0.8492" stop-color="#D7AC4C"/>
<stop offset="1" stop-color="#966424"/>
</linearGradient>
<linearGradient id="paint6_linear_5_6499" x1="95.4445" y1="76.4534" x2="106.358" y2="80.5445" gradientUnits="userSpaceOnUse">
<stop stop-color="#A16C0C"/>
<stop offset="0.2318" stop-color="#BE9134"/>
<stop offset="0.5559" stop-color="#A8700D"/>
<stop offset="1" stop-color="#432400"/>
</linearGradient>
<linearGradient id="paint7_linear_5_6499" x1="132.239" y1="78.7218" x2="119.791" y2="82.6611" gradientUnits="userSpaceOnUse">
<stop stop-color="#A16C0C"/>
<stop offset="0.2318" stop-color="#BE9134"/>
<stop offset="0.5559" stop-color="#A8700D"/>
<stop offset="1" stop-color="#432400"/>
</linearGradient>
<linearGradient id="paint8_linear_5_6499" x1="109.304" y1="94.5294" x2="114.193" y2="87.8097" gradientUnits="userSpaceOnUse">
<stop stop-color="#A16C0C"/>
<stop offset="0.2318" stop-color="#BE9134"/>
<stop offset="0.5559" stop-color="#A8700D"/>
<stop offset="1" stop-color="#432400"/>
</linearGradient>
<linearGradient id="paint9_linear_5_6499" x1="122.352" y1="92.9281" x2="112.516" y2="90.7043" gradientUnits="userSpaceOnUse">
<stop stop-color="#A16C0C"/>
<stop offset="0.2318" stop-color="#BE9134"/>
<stop offset="0.5559" stop-color="#A8700D"/>
<stop offset="1" stop-color="#432400"/>
</linearGradient>
<linearGradient id="paint10_linear_5_6499" x1="139.912" y1="103.023" x2="148.065" y2="98.315" gradientUnits="userSpaceOnUse">
<stop stop-color="#A16C0C"/>
<stop offset="0.2318" stop-color="#BE9134"/>
<stop offset="0.5559" stop-color="#A8700D"/>
<stop offset="1" stop-color="#432400"/>
</linearGradient>
<linearGradient id="paint11_linear_5_6499" x1="156.557" y1="100.33" x2="137.264" y2="100.102" gradientUnits="userSpaceOnUse">
<stop stop-color="#A16C0C"/>
<stop offset="0.2318" stop-color="#BE9134"/>
<stop offset="0.5559" stop-color="#A8700D"/>
<stop offset="1" stop-color="#432400"/>
</linearGradient>
<linearGradient id="paint12_linear_5_6499" x1="148.118" y1="102.827" x2="149.598" y2="101.973" gradientUnits="userSpaceOnUse">
<stop stop-color="#A16C0C"/>
<stop offset="0.1816" stop-color="#DBBF7D"/>
<stop offset="0.3268" stop-color="#BE9134"/>
<stop offset="0.433" stop-color="#A8700D"/>
<stop offset="0.7067" stop-color="#D9AA59"/>
<stop offset="0.8492" stop-color="#A16C0C"/>
<stop offset="1" stop-color="#602400"/>
</linearGradient>
<linearGradient id="paint13_linear_5_6499" x1="102.632" y1="105.152" x2="125.623" y2="91.8784" gradientUnits="userSpaceOnUse">
<stop stop-color="#A16C0C"/>
<stop offset="0.2318" stop-color="#BE9134"/>
<stop offset="0.5559" stop-color="#A8700D"/>
<stop offset="1" stop-color="#432400"/>
</linearGradient>
<linearGradient id="paint14_linear_5_6499" x1="146.423" y1="109.293" x2="126.076" y2="104.802" gradientUnits="userSpaceOnUse">
<stop stop-color="#A16C0C"/>
<stop offset="0.2318" stop-color="#BE9134"/>
<stop offset="0.5559" stop-color="#A8700D"/>
<stop offset="1" stop-color="#432400"/>
</linearGradient>
<linearGradient id="paint15_linear_5_6499" x1="167.392" y1="101.345" x2="151.645" y2="111.194" gradientUnits="userSpaceOnUse">
<stop stop-color="#A16C0C"/>
<stop offset="0.2318" stop-color="#BE9134"/>
<stop offset="0.5559" stop-color="#A8700D"/>
<stop offset="1" stop-color="#432400"/>
</linearGradient>
<linearGradient id="paint16_linear_5_6499" x1="160.59" y1="121.492" x2="144.895" y2="119.62" gradientUnits="userSpaceOnUse">
<stop stop-color="#A16C0C"/>
<stop offset="0.2318" stop-color="#BE9134"/>
<stop offset="0.5559" stop-color="#A8700D"/>
<stop offset="1" stop-color="#432400"/>
</linearGradient>
<linearGradient id="paint17_linear_5_6499" x1="157.059" y1="117.987" x2="160.15" y2="122.59" gradientUnits="userSpaceOnUse">
<stop stop-color="#A16C0C"/>
<stop offset="0.2318" stop-color="#BE9134"/>
<stop offset="0.5559" stop-color="#A8700D"/>
<stop offset="1" stop-color="#432400"/>
</linearGradient>
<linearGradient id="paint18_linear_5_6499" x1="129.201" y1="127.616" x2="149.191" y2="116.075" gradientUnits="userSpaceOnUse">
<stop stop-color="#A16C0C"/>
<stop offset="0.2318" stop-color="#BE9134"/>
<stop offset="0.5559" stop-color="#A8700D"/>
<stop offset="1" stop-color="#432400"/>
</linearGradient>
<linearGradient id="paint19_linear_5_6499" x1="162.898" y1="106.285" x2="72.2987" y2="80.3618" gradientUnits="userSpaceOnUse">
<stop stop-color="#D7AC4C"/>
<stop offset="0.1816" stop-color="#FFFFB0"/>
<stop offset="0.3268" stop-color="#F4D174"/>
<stop offset="0.3659" stop-color="#FBED99"/>
<stop offset="0.3939" stop-color="#FAEC97"/>
<stop offset="0.433" stop-color="#DEB04D"/>
<stop offset="0.5275" stop-color="#DFB24F"/>
<stop offset="0.5615" stop-color="#E2B756"/>
<stop offset="0.5858" stop-color="#E7C161"/>
<stop offset="0.6053" stop-color="#EECF72"/>
<stop offset="0.6207" stop-color="#F6DF86"/>
<stop offset="0.7529" stop-color="#F2D87E"/>
<stop offset="0.7672" stop-color="#F1D77D"/>
<stop offset="0.7716" stop-color="#EBCD71"/>
<stop offset="0.7804" stop-color="#E2BE60"/>
<stop offset="0.7913" stop-color="#DCB455"/>
<stop offset="0.8066" stop-color="#D8AE4E"/>
<stop offset="0.8492" stop-color="#D7AC4C"/>
<stop offset="1" stop-color="#966424"/>
</linearGradient>
<linearGradient id="paint20_linear_5_6499" x1="140.701" y1="129.801" x2="115.141" y2="114.031" gradientUnits="userSpaceOnUse">
<stop stop-color="#A16C0C"/>
<stop offset="0.2318" stop-color="#BE9134"/>
<stop offset="0.5559" stop-color="#A8700D"/>
<stop offset="1" stop-color="#432400"/>
</linearGradient>
<linearGradient id="paint21_linear_5_6499" x1="94.9185" y1="89.3259" x2="165.244" y2="104.189" gradientUnits="userSpaceOnUse">
<stop stop-color="#D7AC4C"/>
<stop offset="0.1816" stop-color="#FFFFB0"/>
<stop offset="0.3268" stop-color="#F4D174"/>
<stop offset="0.433" stop-color="#DEB04D"/>
<stop offset="0.7067" stop-color="#F6DF86"/>
<stop offset="0.8492" stop-color="#D7AC4C"/>
<stop offset="1" stop-color="#966424"/>
</linearGradient>
</defs>
</svg>
