<svg width="91" height="83" viewBox="0 0 91 83" fill="none" xmlns="http://www.w3.org/2000/svg">
<g opacity="0.5" filter="url(#filter0_f_91_3924)">
<path d="M70.1464 18.022C69.8515 17.6393 69.5399 17.338 69.1302 17.1015C66.6144 15.4669 62.028 16.1571 59.1944 17.0703C51.0859 19.5508 43.8444 24.2616 37.1877 29.4313C30.3207 34.9653 23.8544 41.2769 19.4488 48.9602C17.9366 51.7895 15.9951 55.8883 17.275 59.0853C17.4167 59.4706 17.6399 59.8726 17.8893 60.229C17.7142 60.0066 16.8031 58.9039 16.278 58.2366C16.2684 58.2007 16.2229 58.1744 16.2133 58.1385C16.1581 58.0763 16.0934 57.9783 16.0382 57.9161C15.9927 57.8898 15.9735 57.818 15.9638 57.7821L15.9542 57.7462C15.4239 56.7724 15.2072 55.6761 15.2321 54.4766C15.2487 54.3952 15.2199 54.2875 15.2365 54.2061C15.2532 54.1247 15.2339 54.0529 15.2506 53.9714C15.444 51.5339 16.633 48.7912 18.1407 46.2324C18.1932 46.1414 18.2721 46.0048 18.3246 45.9138C20.1144 42.9716 22.3041 40.2301 23.8772 38.3464C23.992 38.2002 24.1067 38.054 24.2311 37.9437C24.4702 37.6873 24.7093 37.4308 24.9388 37.1385C25.1779 36.882 25.417 36.6255 25.6465 36.3332C25.8497 36.0863 26.0625 35.8754 26.2754 35.6644C29.6421 32.1458 33.8705 28.3963 38.4919 24.9647C38.5541 24.9095 38.59 24.8999 38.6522 24.8448C43.0608 21.6241 47.7906 18.7407 52.4545 16.7599C52.866 16.5727 53.2513 16.431 53.627 16.2533C53.8687 16.1501 54.1463 16.0373 54.3976 15.9699C57.1927 14.9131 59.9308 14.2179 62.5234 13.985C62.6766 13.9824 62.8298 13.9799 62.983 13.9773C63.1363 13.9747 63.2895 13.9721 63.4427 13.9695C65.6885 14.0219 67.358 14.652 68.3794 15.879L70.1464 18.022Z" fill="url(#paint0_linear_91_3924)"/>
<path d="M72.5333 11.9956C79.0356 21.7584 56.9911 42.5949 49.6766 48.3257C42.5128 53.9007 19.4229 69.3994 11.4981 61.3645L18.0112 70.1625C20.0329 72.9684 25.8432 72.6813 29.3877 71.6931C42.1037 68.1704 53.1934 60.1582 62.8554 51.4128C69.5992 44.9883 80.2759 33.8547 80.2378 24.0913C80.1672 23.1098 79.8979 22.1046 79.3965 21.2385C79.1637 20.8006 72.802 12.4239 72.5333 11.9956Z" fill="url(#paint1_linear_91_3924)"/>
<path d="M65.9926 10.131C60.5965 10.3841 52.8381 13.3094 44.1035 18.7666C35.369 24.2238 27.2372 31.2125 21.1954 38.103C15.1177 45.003 11.1204 51.7689 10.6643 56.8164C10.1724 61.8734 13.3044 64.2279 18.6909 63.939C24.1229 63.6763 31.8454 60.7605 40.58 55.3034C49.3145 49.8462 57.4822 42.8479 63.524 35.9574C69.5658 29.067 73.5632 22.3011 74.0551 17.244C74.5207 12.2325 71.4247 9.86834 65.9926 10.131ZM69.0942 17.1111C69.4328 17.9438 69.5489 18.9516 69.4522 20.1704C69.0288 24.478 65.6193 30.2783 60.4621 36.1622C55.2691 42.0556 48.3643 48.023 40.8426 52.6934C33.3568 57.3542 26.7447 59.8186 22.1147 60.0587C20.1061 60.1737 18.4418 59.85 17.2749 59.0853C16.9011 58.8392 16.5633 58.5834 16.2779 58.2366C16.2683 58.2007 16.2228 58.1744 16.2132 58.1385C16.158 58.0763 16.0933 57.9782 16.0381 57.916C15.9926 57.8898 15.9734 57.818 15.9638 57.7821L15.9541 57.7462C15.4168 56.8897 15.1641 55.803 15.232 54.4766C15.239 54.3593 15.2198 54.2875 15.2364 54.2061C15.2531 54.1246 15.2339 54.0528 15.2505 53.9714C15.4561 51.723 16.4849 49.1002 18.1406 46.2324C18.1932 46.1414 18.272 46.0048 18.3246 45.9138C19.7534 43.4916 21.6489 40.9443 23.8771 38.3464C23.9919 38.2002 24.1066 38.054 24.231 37.9437C24.4701 37.6873 24.7092 37.4308 24.9387 37.1384C25.1778 36.882 25.4169 36.6255 25.6464 36.3331C25.8496 36.0863 26.0625 35.8754 26.2753 35.6644C29.819 31.9444 33.9948 28.2859 38.4919 24.9646C38.554 24.9095 38.5899 24.8999 38.6521 24.8447C40.3266 23.6265 42.0562 22.4705 43.805 21.3862C46.8744 19.4863 49.7695 17.941 52.4544 16.7599C52.83 16.5823 53.2512 16.4309 53.6269 16.2533C53.8686 16.1501 54.1462 16.0372 54.3975 15.9699C57.4965 14.7547 60.2538 14.1313 62.5233 13.985C62.6765 13.9824 62.8297 13.9798 62.983 13.9772C63.1362 13.9747 63.2894 13.9721 63.4426 13.9695C65.6884 14.0219 67.3579 14.652 68.3793 15.8789C68.7198 16.2879 68.9429 16.6899 69.0942 17.1111Z" fill="url(#paint2_linear_91_3924)"/>
<path d="M69.1206 17.0656C69.4592 17.8984 69.5753 18.9062 69.4786 20.125C69.0552 24.4326 65.6457 30.2329 60.4885 36.1168C55.2954 42.0102 48.3906 47.9775 40.869 52.648C33.3832 57.3088 26.7711 59.7731 22.1411 60.0133C20.1325 60.1282 18.4682 59.8046 17.3013 59.0399C16.0214 55.8428 17.9629 51.7441 19.475 48.9148C23.8807 41.2314 30.3469 34.9198 37.1781 29.3955C43.8252 24.1898 51.0763 19.5149 59.1848 17.0344C62.0184 16.1213 66.5785 15.4766 69.1206 17.0656Z" fill="url(#paint3_linear_91_3924)"/>
<path d="M45.5648 27.3792L47.2408 29.4697L47.4509 26.9508L45.7845 24.8962L45.5648 27.3792Z" fill="url(#paint4_linear_91_3924)"/>
<path d="M41.5388 36.1922C41.5747 36.1826 41.6009 36.1371 41.6368 36.1274C41.7875 35.9716 41.9837 35.8421 42.1702 35.6767C42.1965 35.6312 42.2683 35.6119 42.2946 35.5664C42.4811 35.401 42.7036 35.226 42.926 35.0509L41.2596 32.9963C41.0993 33.1162 40.9391 33.2361 40.7788 33.356C40.7166 33.4112 40.6545 33.4663 40.5826 33.4856C40.5564 33.5311 40.4846 33.5503 40.4583 33.5958C40.432 33.6414 40.3602 33.6606 40.3339 33.7061C40.2096 33.8164 40.0852 33.9267 39.9608 34.037C39.9608 34.037 39.9249 34.0466 39.9345 34.0825C39.8986 34.0921 39.8724 34.1376 39.8365 34.1472C39.7384 34.212 39.6499 34.3127 39.5877 34.3678C39.5256 34.4229 39.4993 34.4685 39.4371 34.5236C39.4108 34.5691 39.3486 34.6243 39.3127 34.6339C39.1621 34.7897 39.0377 34.9 38.923 35.0461C38.8082 35.1923 38.7198 35.293 38.6409 35.4295C38.6146 35.4751 38.5787 35.4847 38.5525 35.5302C38.5262 35.5757 38.4999 35.6212 38.464 35.6309C38.4114 35.7219 38.3851 35.7674 38.3326 35.8585C38.3063 35.904 38.2896 35.9854 38.2634 36.0309C38.2371 36.0765 38.2108 36.122 38.1845 36.1675C38.1845 36.1675 38.1845 36.1675 38.1941 36.2034C38.2038 36.2393 38.1679 36.2489 38.1775 36.2848C38.1512 36.3303 38.1608 36.3662 38.1345 36.4118C38.1441 36.4477 38.1179 36.4932 38.1179 36.4932C38.1275 36.5291 38.1012 36.5746 38.1012 36.5746C38.1108 36.6105 38.1108 36.6105 38.1204 36.6464L38.1301 36.6823C38.1397 36.7182 38.1397 36.7182 38.1493 36.7541L38.1589 36.79L39.8901 38.9427C39.8446 38.9164 39.8253 38.8446 39.8157 38.8087C39.7965 38.7369 39.7868 38.701 39.8035 38.6196C39.8202 38.5381 39.8272 38.4208 39.8798 38.3298C39.9227 38.2028 39.9753 38.1118 40.0182 37.9849C40.0708 37.8938 40.1496 37.7573 40.2381 37.6566C40.2644 37.6111 40.3003 37.6015 40.3266 37.5559C40.4054 37.4194 40.5298 37.3091 40.6086 37.1725C40.7234 37.0264 40.8477 36.9161 40.9984 36.7603C41.0246 36.7147 41.0868 36.6596 41.1227 36.65C41.2638 36.4583 41.3881 36.348 41.5388 36.1922Z" fill="url(#paint5_linear_91_3924)"/>
<path d="M49.6129 31.1427C49.7828 31.0587 49.9886 30.965 50.1585 30.881C50.3643 30.7874 50.5701 30.6938 50.8214 30.6265C51.1708 30.4944 51.5201 30.3623 51.8336 30.2398C52.183 30.1077 52.5324 29.9756 52.8914 29.8794L51.225 27.8248C50.9737 27.8922 50.6961 28.005 50.4448 28.0724C50.3371 28.1012 50.239 28.166 50.1672 28.1852C49.8178 28.3173 49.4685 28.4494 49.155 28.5719C49.0114 28.6104 48.8774 28.6847 48.7338 28.7232C48.662 28.7425 48.5639 28.8072 48.4921 28.8265C48.3222 28.9105 48.1164 29.0041 47.9465 29.0881C47.7766 29.1721 47.5971 29.2202 47.4273 29.3042C47.2933 29.3785 47.1593 29.4529 47.0157 29.4914C46.8817 29.5658 46.7477 29.6402 46.6041 29.6786C46.506 29.7434 46.3983 29.7723 46.3002 29.837C45.9605 30.005 45.6303 30.2089 45.2547 30.3865L46.9211 32.4411C47.3948 32.1988 47.8327 31.966 48.2705 31.7332C48.4045 31.6589 48.5385 31.5845 48.6821 31.546C48.9956 31.4235 49.3091 31.301 49.6129 31.1427Z" fill="url(#paint6_linear_91_3924)"/>
<path d="M53.5186 23.7473L55.185 25.8019L52.9274 29.8699L51.261 27.8153L53.5186 23.7473Z" fill="url(#paint7_linear_91_3924)"/>
<path d="M44.8884 34.3328L46.5644 36.4232L46.9404 32.5131L45.2644 30.4226L44.8884 34.3328Z" fill="url(#paint8_linear_91_3924)"/>
<path d="M41.6104 42.0601C41.8521 41.9568 42.0483 41.8273 42.29 41.7241L40.6236 39.6695C40.3819 39.7727 40.1498 39.9118 39.944 40.0055C39.8722 40.0247 39.81 40.0798 39.7382 40.0991C39.5683 40.1831 39.4344 40.2575 39.2645 40.3415C39.2286 40.3511 39.1568 40.3703 39.1305 40.4158C38.9606 40.4998 38.7907 40.5838 38.6208 40.6678C38.549 40.6871 38.451 40.7518 38.3792 40.7711C38.2452 40.8454 38.1016 40.8839 38.0035 40.9487C37.9317 40.9679 37.8336 41.0327 37.7618 41.0519C37.6637 41.1167 37.5201 41.1552 37.422 41.2199C37.3502 41.2392 37.2521 41.3039 37.1803 41.3232C37.0726 41.352 36.9746 41.4168 36.8668 41.4456C36.8309 41.4553 36.7591 41.4745 36.7329 41.52C36.4553 41.6329 36.1777 41.7457 35.936 41.849C35.7661 41.933 35.5866 41.9811 35.443 42.0195C35.4071 42.0292 35.3712 42.0388 35.3353 42.0484C35.1199 42.1061 34.9141 42.1997 34.6987 42.2575C34.6628 42.2671 34.6628 42.2671 34.6269 42.2767C34.4115 42.3344 34.232 42.3825 34.0429 42.3947C34.007 42.4043 33.9711 42.414 33.9352 42.4236C33.746 42.4358 33.5665 42.4839 33.4133 42.4864C33.3774 42.4961 33.3415 42.5057 33.3319 42.4698C33.1428 42.482 32.9895 42.4846 32.8267 42.4512C32.4747 42.4301 32.1657 42.282 31.9907 42.0596L33.6571 44.1142C33.8321 44.3366 34.0956 44.4584 34.4931 44.5058C34.6463 44.5032 34.8092 44.5366 34.9983 44.5244C35.0342 44.5148 35.0342 44.5148 35.0797 44.541C35.2329 44.5385 35.4221 44.5263 35.6016 44.4782C35.6375 44.4685 35.6734 44.4589 35.7093 44.4493C35.8888 44.4012 36.1138 44.3794 36.2933 44.3313C36.3292 44.3217 36.3292 44.3217 36.3651 44.3121C36.5805 44.2543 36.7959 44.1966 37.0017 44.103C37.0376 44.0934 37.0376 44.0934 37.0735 44.0838L37.1094 44.0741C37.2889 44.026 37.4588 43.942 37.6024 43.9036C37.8441 43.8003 38.1217 43.6875 38.3993 43.5746C38.4352 43.565 38.4352 43.565 38.4711 43.5554C38.507 43.5458 38.507 43.5458 38.5429 43.5361C38.6506 43.5073 38.7487 43.4425 38.8564 43.4137C38.9282 43.3944 39.0262 43.3297 39.098 43.3104C39.2058 43.2816 39.3397 43.2072 39.4378 43.1424C39.5096 43.1232 39.6077 43.0584 39.6795 43.0392C39.8135 42.9648 39.9571 42.9263 40.0552 42.8616C40.127 42.8423 40.1892 42.7872 40.2969 42.7583C40.4667 42.6743 40.6366 42.5903 40.8065 42.5063C40.8424 42.4967 40.8783 42.4871 40.9405 42.4319C41.1104 42.3479 41.3162 42.2543 41.522 42.1607C41.5386 42.0793 41.5745 42.0697 41.6104 42.0601Z" fill="url(#paint9_linear_91_3924)"/>
<path d="M46.5003 36.902C46.3926 36.9309 46.2394 36.9335 46.0958 36.972C46.0599 36.9816 45.9881 37.0008 45.9522 37.0104C45.8445 37.0393 45.7368 37.0681 45.5932 37.1066L45.5573 37.1162C45.4137 37.1547 45.2797 37.2291 45.1002 37.2772C45.0643 37.2868 44.9925 37.3061 44.9566 37.3157C44.8848 37.3349 44.7867 37.3997 44.7149 37.4189C44.6072 37.4478 44.545 37.5029 44.4373 37.5318L46.1037 39.5864C46.3095 39.4927 46.489 39.4446 46.6589 39.3606C46.6948 39.351 46.7666 39.3318 46.8025 39.3222C46.9724 39.2382 47.1519 39.1901 47.2955 39.1516C47.4032 39.1227 47.5109 39.0939 47.6545 39.0554C47.6904 39.0458 47.7622 39.0265 47.7981 39.0169C47.9417 38.9784 48.0853 38.94 48.2026 38.947C48.4994 38.906 48.6623 38.9393 48.7726 39.0636L47.0703 37.0187C46.96 36.8943 46.7612 36.8706 46.5003 36.902Z" fill="url(#paint10_linear_91_3924)"/>
<path d="M44.2593 40.8887L45.9353 42.9792L46.2332 39.7826L44.5668 37.728L44.2593 40.8887Z" fill="url(#paint11_linear_91_3924)"/>
<path d="M38.5163 47.3141C38.0162 47.602 37.5066 47.854 37.0065 48.1419C36.8726 48.2163 36.7386 48.2907 36.6309 48.3195C36.2552 48.4971 35.8891 48.7107 35.5135 48.8883C35.1378 49.0659 34.7621 49.2435 34.3865 49.4211C34.1448 49.5244 33.9031 49.6276 33.6614 49.7308C33.5896 49.7501 33.5178 49.7693 33.4915 49.8148C33.2857 49.9085 33.0799 50.0021 32.8645 50.0598C32.7927 50.079 32.7568 50.0887 32.6947 50.1438C32.453 50.247 32.2376 50.3048 31.9959 50.408C31.8882 50.4369 31.8164 50.4561 31.7087 50.485C31.6369 50.5042 31.5651 50.5234 31.4933 50.5427C31.3856 50.5715 31.3138 50.5908 31.2061 50.6196C31.1343 50.6389 31.0624 50.6581 31.0265 50.6677C30.9188 50.6966 30.847 50.7158 30.7393 50.7447C30.7034 50.7543 30.6316 50.7735 30.5957 50.7832C30.4521 50.8216 30.3444 50.8505 30.1912 50.8531L31.8576 52.9077C31.9653 52.8788 32.1089 52.8403 32.2621 52.8378C32.298 52.8281 32.3698 52.8089 32.4057 52.7993C32.5134 52.7704 32.5852 52.7512 32.693 52.7223C32.7648 52.7031 32.8366 52.6838 32.8725 52.6742C32.9802 52.6454 33.052 52.6261 33.1597 52.5973C33.2315 52.578 33.3033 52.5588 33.3751 52.5395C33.4469 52.5203 33.5187 52.5011 33.6264 52.4722L33.6623 52.4626C33.8777 52.4049 34.1194 52.3016 34.3611 52.1984C34.4329 52.1792 34.4688 52.1695 34.5309 52.1144C34.7367 52.0208 34.9521 51.9631 35.1579 51.8694C35.1938 51.8598 35.2297 51.8502 35.2656 51.8406C35.3015 51.831 35.3015 51.831 35.3374 51.8213C35.5791 51.7181 35.8208 51.6149 36.0625 51.5116C36.376 51.3891 36.7157 51.2212 37.0196 51.0628C37.0914 51.0435 37.1177 50.998 37.1895 50.9788C37.5652 50.8012 37.9408 50.6235 38.3069 50.41C38.405 50.3453 38.5127 50.3164 38.6108 50.2516C38.6467 50.242 38.6467 50.242 38.6826 50.2324C39.1922 49.9804 39.6923 49.6925 40.1923 49.4046C40.1923 49.4046 40.1923 49.4046 40.2282 49.395C40.6923 49.1167 41.1661 48.8743 41.6302 48.5961L39.9638 46.5415C39.4901 46.7838 38.99 47.0717 38.5163 47.3141Z" fill="url(#paint12_linear_91_3924)"/>
<path d="M53.459 31.9976C53.5142 32.0598 53.5334 32.1316 53.5886 32.1938C53.5982 32.2297 53.5982 32.2297 53.6078 32.2656C53.627 32.3374 53.6463 32.4092 53.6655 32.481L53.6751 32.5169C53.704 32.6246 53.6873 32.706 53.7162 32.8137C53.7258 32.8496 53.6995 32.8951 53.7091 32.931C53.6925 33.0124 53.7213 33.1201 53.7047 33.2016C53.6976 33.3189 53.6643 33.4817 53.6214 33.6087C53.5951 33.6542 53.6047 33.6901 53.5784 33.7356C53.5355 33.8626 53.4925 33.9895 53.4592 34.1523L53.4329 34.1979C53.3637 34.3703 53.2945 34.5428 53.2156 34.6793C53.1894 34.7249 53.1368 34.8159 53.1105 34.8614C53.058 34.9525 53.015 35.0794 52.9266 35.1801C52.8477 35.3166 52.7689 35.4532 52.69 35.5898C52.6375 35.6808 52.5849 35.7718 52.5227 35.827C52.4964 35.8725 52.4342 35.9276 52.4176 36.0091C52.3387 36.1456 52.224 36.2918 52.1093 36.438C52.0471 36.4931 51.9945 36.5842 51.9682 36.6297C51.8535 36.7759 51.7387 36.922 51.624 37.0682C51.5618 37.1234 51.5093 37.2144 51.483 37.2599C51.306 37.4613 51.1291 37.6626 50.9259 37.9094C50.7227 38.1563 50.4836 38.4127 50.2349 38.6333C50.1464 38.7339 50.0483 38.7987 49.9958 38.8897C49.8451 39.0455 49.6586 39.211 49.472 39.3764C49.3835 39.477 49.2855 39.5418 49.197 39.6425C49.0105 39.8079 48.8335 40.0092 48.6111 40.1843C48.4867 40.2945 48.3264 40.4144 48.2021 40.5247C48.0418 40.6446 47.9175 40.7549 47.7668 40.9107C47.6065 41.0306 47.4463 41.1505 47.2956 41.3063C47.1354 41.4262 47.011 41.5365 46.8507 41.6564C46.6905 41.7763 46.5302 41.8962 46.3699 42.0161C46.2097 42.136 46.0231 42.3014 45.827 42.4309C45.6667 42.5508 45.5064 42.6707 45.3462 42.7906C45.1237 42.9657 44.9276 43.0952 44.7051 43.2702C44.4109 43.4645 44.1621 43.6851 43.832 43.889L45.4984 45.9435C45.7304 45.8044 45.9529 45.6294 46.1491 45.4998C46.2112 45.4447 46.2734 45.3896 46.3452 45.3703C46.5677 45.1953 46.7997 45.0561 46.9863 44.8907C47.0844 44.826 47.2184 44.7516 47.3068 44.6509C47.369 44.5958 47.4049 44.5862 47.4671 44.531C47.6633 44.4015 47.8139 44.2457 48.0101 44.1162C48.144 44.0418 48.2325 43.9411 48.3665 43.8668C48.3928 43.8212 48.4646 43.802 48.4909 43.7565C48.6511 43.6366 48.8114 43.5167 48.9358 43.4064C49.0242 43.3057 49.1582 43.2314 49.2826 43.1211C49.3088 43.0756 49.3806 43.0563 49.4069 43.0108C49.5672 42.8909 49.6916 42.7806 49.8422 42.6248C49.9307 42.5242 50.0647 42.4498 50.1531 42.3491C50.1794 42.3036 50.2153 42.294 50.2416 42.2485C50.4281 42.083 50.641 41.8721 50.8275 41.7067C50.8897 41.6515 50.9781 41.5509 51.0403 41.4957C51.0762 41.4861 51.0666 41.4502 51.1025 41.4406C51.2891 41.2752 51.4397 41.1194 51.6263 40.954C51.7147 40.8533 51.8128 40.7885 51.8654 40.6975C52.1045 40.441 52.3436 40.1846 52.5564 39.9736C52.7333 39.7723 52.9462 39.5614 53.1135 39.3241C53.1757 39.269 53.2282 39.178 53.2545 39.1324C53.3692 38.9863 53.484 38.8401 53.5987 38.6939C53.6609 38.6388 53.7135 38.5477 53.7398 38.5022C53.8545 38.356 53.9333 38.2195 54.0481 38.0733C54.0744 38.0278 54.1366 37.9726 54.1532 37.8912C54.1532 37.8912 54.1795 37.8457 54.2154 37.836C54.2776 37.7809 54.2942 37.6995 54.3205 37.654C54.3994 37.5174 54.4782 37.3808 54.5571 37.2443C54.5833 37.1988 54.5833 37.1988 54.6096 37.1532C54.6622 37.0622 54.6788 36.9808 54.7314 36.8897C54.7577 36.8442 54.8102 36.7532 54.8365 36.7077L54.8628 36.6621C54.9417 36.5256 54.975 36.3627 55.0179 36.2358L55.0442 36.1903C55.0968 36.0992 55.1038 35.9819 55.1564 35.8909C55.1468 35.855 55.173 35.8094 55.173 35.8094C55.1993 35.7639 55.1897 35.728 55.216 35.6825C55.2423 35.637 55.2326 35.6011 55.2589 35.5556C55.2756 35.4741 55.2826 35.3568 55.2993 35.2754C55.2897 35.2395 55.2897 35.2395 55.3159 35.194C55.3326 35.1125 55.323 35.0766 55.3037 35.0048C55.2941 34.9689 55.3204 34.9234 55.3108 34.8875C55.3108 34.8875 55.3108 34.8875 55.3012 34.8516C55.3082 34.7343 55.289 34.6625 55.2601 34.5548L55.2505 34.5189C55.2313 34.4471 55.212 34.3753 55.2024 34.3394L55.1928 34.3035C55.1832 34.2676 55.1832 34.2676 55.1735 34.2317C55.1639 34.1958 55.1543 34.1599 55.1088 34.1336C55.0992 34.0977 55.0536 34.0714 55.044 34.0355L53.459 31.9976Z" fill="url(#paint13_linear_91_3924)"/>
<path d="M43.6867 46.5059L45.3627 48.5964L45.6349 46.0224L43.9589 43.9319L43.6867 46.5059Z" fill="url(#paint14_linear_91_3924)"/>
<path d="M52.6589 31.5963C53.4897 31.6815 53.8232 32.2078 53.7502 33.2278C53.6272 34.4921 52.7432 36.0757 51.0528 37.9524C49.3624 39.829 47.0161 41.8429 43.9948 43.9223L43.7584 46.4867L39.6985 48.9983L39.9445 46.4697C37.9899 47.6476 36.1308 48.6075 34.3768 49.3853C32.6228 50.1631 31.2156 50.6556 30.1815 50.8172L32.6449 46.6556C33.6335 46.4677 34.7631 46.0881 36.0792 45.543C37.3954 44.998 38.7903 44.3164 40.2186 43.4719L40.578 39.6432C38.7092 40.5672 37.1251 41.261 35.8712 41.7509C34.5813 42.2504 33.5569 42.448 32.726 42.3628C31.8951 42.2776 31.5617 41.7513 31.6706 40.7217C31.7936 39.4574 32.7134 37.8642 34.3942 35.9516C36.075 34.0391 38.4572 32.0155 41.5144 29.9266L41.7508 27.3621L45.7389 24.8698L45.4929 27.3984C48.7611 25.5222 51.4004 24.3148 53.4467 23.7665L51.1891 27.8345C49.2697 28.4257 47.2644 29.2709 45.1925 30.4417L44.8165 34.3518C46.6493 33.4375 48.1879 32.7174 49.4874 32.2537C50.7772 31.7542 51.8376 31.547 52.6589 31.5963ZM40.945 36.2742L41.2595 32.9962C40.2358 33.7707 39.4537 34.442 38.9588 35.0364C38.4639 35.6307 38.1748 36.1315 38.1274 36.5289C38.08 36.9264 38.3076 37.0578 38.7936 37.0046C39.2795 36.9513 40.0142 36.6775 40.945 36.2742ZM46.4716 38.949C46.9761 38.3906 47.2293 37.8995 47.2767 37.502C47.3241 37.1045 47.0965 36.9731 46.6464 37.0167C46.1605 37.07 45.488 37.2887 44.5571 37.692L44.2497 40.8527C45.2209 40.1692 45.9408 39.553 46.4716 38.949Z" fill="url(#paint15_linear_91_3924)"/>
<path d="M39.6986 48.9983L41.3746 51.0887L45.3627 48.5964L43.6867 46.5059L39.6986 48.9983Z" fill="url(#paint16_linear_91_3924)"/>
<path d="M39.014 35.0987C39.2531 34.8422 39.4922 34.5858 39.8294 34.2646C40.2288 33.8882 40.6833 33.574 41.2622 33.1496L41.2789 33.0681L41.2955 32.9867C40.5467 33.4952 40.164 33.7901 39.7647 34.1665C39.4537 34.4422 39.1884 34.7442 38.9493 35.0006C38.4185 35.6046 38.139 36.1412 38.1204 36.6464L38.25 36.8426C38.1441 36.4477 38.2178 36.0047 39.014 35.0987Z" fill="url(#paint17_linear_91_3924)"/>
<path d="M47.2979 37.1502C47.1877 37.0258 46.9434 36.9759 46.6825 37.0073C46.1965 37.0605 45.4881 37.2888 44.5932 37.6826L44.5573 37.6922L44.2594 40.8887L44.4197 40.7688L44.7035 37.8069C45.5984 37.4132 46.2709 37.1945 46.721 37.1509C46.9819 37.1195 47.1447 37.1528 47.2095 37.2509C47.2646 37.313 47.2935 37.4208 47.2961 37.574L47.2979 37.1502Z" fill="url(#paint18_linear_91_3924)"/>
<path d="M45.9403 25.0468L45.7845 24.8962L45.5648 27.3792L45.6988 27.3048L45.9403 25.0468Z" fill="url(#paint19_linear_91_3924)"/>
<path d="M34.3768 49.3855C32.6228 50.1633 31.2516 50.6462 30.1816 50.8174L30.2918 50.9418C31.3522 50.7346 32.6613 50.3069 34.4153 49.5291C36.1693 48.7513 37.9662 47.8465 39.9567 46.659L39.9542 46.5058C38.5355 47.3862 36.5328 48.3845 34.3768 49.3855Z" fill="url(#paint20_linear_91_3924)"/>
<path d="M53.5187 23.7474L53.411 23.7763L51.2059 27.7532C49.2865 28.3445 47.2812 29.1896 45.2452 30.3508L45.2093 30.3605L44.8166 34.352L44.9865 34.268L45.3099 30.4489C47.346 29.2877 49.3513 28.4426 51.2348 27.8609L51.2707 27.8513L53.5283 23.7833L53.5187 23.7474Z" fill="url(#paint21_linear_91_3924)"/>
<path d="M53.724 33.2734C53.6728 34.5185 52.7074 36.0854 51.017 37.9621C50.4503 38.5756 49.8214 39.2444 49.1112 39.8964C47.6906 41.2006 45.9732 42.5457 43.959 43.932L43.9231 43.9416L43.6867 46.506L39.8063 48.9695L39.7897 49.0509L39.8448 49.1131L43.8688 46.6111L44.1051 44.0467C46.1194 42.6605 47.8368 41.3153 49.2214 40.0208C49.9317 39.3687 50.5702 38.7359 51.1273 38.0864C52.8081 36.1739 53.7375 34.6165 53.8509 33.3164C53.8791 32.8471 53.8284 32.5144 53.6796 32.2464L53.4136 31.9714C53.4398 31.9259 53.7514 32.2272 53.724 33.2734Z" fill="url(#paint22_linear_91_3924)"/>
<path d="M40.6139 39.6338C38.7452 40.5578 37.1611 41.2516 35.9071 41.7415C34.6532 42.2314 33.5928 42.4386 32.8074 42.3797C32.4914 42.3489 32.1561 42.2464 31.9907 42.0599L32.276 42.4067C32.4029 42.4496 32.6113 42.5092 32.81 42.5329C33.6409 42.6181 34.7013 42.4109 35.9911 41.9114C37.2451 41.4215 38.7574 40.7469 40.6261 39.8229L40.6139 39.6338Z" fill="url(#paint23_linear_91_3924)"/>
<path d="M68.5684 15.8669L68.5133 15.8047L68.5684 15.8669Z" fill="url(#paint24_linear_91_3924)"/>
<path d="M63.5312 13.869C63.378 13.8716 63.2248 13.8742 63.0715 13.8767C62.9183 13.8793 62.7651 13.8819 62.576 13.8941C60.261 14.0142 57.5133 14.6735 54.4046 15.8527C54.163 15.956 53.9117 16.0233 53.6341 16.1362C53.2488 16.2779 52.8372 16.4651 52.4615 16.6427C49.7767 17.8239 46.8457 19.3788 43.7763 21.2786C42.0274 22.3629 40.2978 23.519 38.6234 24.7372C38.5612 24.7923 38.5253 24.802 38.4631 24.8571C35.6046 26.9698 32.8564 29.2068 30.3262 31.5394C28.8697 32.8531 27.5043 34.2194 26.2106 35.5665C25.9978 35.7774 25.7946 36.0243 25.5818 36.2352C25.3427 36.4917 25.1036 36.7481 24.8741 37.0405C24.635 37.297 24.3959 37.5534 24.1664 37.8458C24.0516 37.992 23.9369 38.1381 23.8125 38.2484C21.5484 40.856 19.6528 43.4033 18.1881 45.8351C18.1356 45.9261 18.0567 46.0627 18.0042 46.1537C16.3484 49.0215 15.3197 51.6444 15.0878 53.9382C15.0711 54.0197 15.0904 54.0915 15.0737 54.1729C15.0571 54.2543 15.05 54.3716 15.0693 54.4434C15.0014 55.7699 15.2637 56.8924 15.8107 57.7848L15.8203 57.8207C15.8395 57.8925 15.885 57.9188 15.8947 57.9547C15.9498 58.0169 16.0146 58.1149 16.0697 58.1771L16.1345 58.2752L16.1441 58.3111C16.1896 58.3374 16.2088 58.4092 16.2544 58.4355C16.5204 58.7105 16.8224 58.9759 17.1411 59.1598C18.3535 59.9509 20.0152 60.1213 22.0693 60.0326C20.0607 60.1475 18.4297 59.6611 17.3084 58.9226C16.9897 58.7387 16.7333 58.4995 16.4672 58.2245C16.4217 58.1983 16.4024 58.1265 16.3569 58.1002L16.3018 58.038C16.2466 57.9758 16.1915 57.9136 16.1267 57.8155C16.0812 57.7893 16.0716 57.7534 16.0523 57.6816L16.0331 57.6098C15.5054 56.7892 15.2623 55.7384 15.3398 54.4479C15.3206 54.3761 15.3372 54.2947 15.3443 54.1774C15.3609 54.0959 15.3417 54.0241 15.3583 53.9427C15.5736 51.7302 16.5664 49.117 18.2318 46.2851C18.2843 46.1941 18.3632 46.0575 18.4157 45.9665C19.8445 43.5443 21.7401 40.997 23.9779 38.435C24.0927 38.2888 24.2074 38.1426 24.3318 38.0323C24.5709 37.7759 24.81 37.5194 25.0491 37.2629C25.2882 37.0065 25.5273 36.75 25.7664 36.4936C25.9793 36.2826 26.1825 36.0358 26.3953 35.8248C27.6889 34.4778 29.0544 33.1115 30.4749 31.8073C33.0052 29.4748 35.7175 27.2474 38.5856 25.1706C38.6478 25.1154 38.6837 25.1058 38.7459 25.0507C40.4203 23.8324 42.1499 22.6764 43.8987 21.5921C46.9682 19.6923 49.8633 18.147 52.5122 16.9755C52.8879 16.7978 53.3091 16.6465 53.6847 16.4689C53.9264 16.3656 54.204 16.2528 54.4553 16.1854C57.5543 14.9703 60.2757 14.3565 62.5452 14.2102C62.6985 14.2076 62.8517 14.205 63.0049 14.2024C63.1581 14.1998 63.3113 14.1973 63.4646 14.1947C65.5571 14.2496 67.126 14.7912 68.1089 15.8746C68.164 15.9368 68.2191 15.999 68.2743 16.0612C68.55 16.3721 68.8712 16.7093 69.0584 17.1208C68.9071 16.6997 68.782 16.2329 68.4967 15.8861C68.4416 15.8239 68.3865 15.7618 68.3217 15.6637C67.3195 14.5085 65.6597 13.9143 63.5312 13.869Z" fill="url(#paint25_linear_91_3924)"/>
</g>
<defs>
<filter id="filter0_f_91_3924" x="-8.00012" y="-3" width="106.866" height="88.4954" filterUnits="userSpaceOnUse" color-interpolation-filters="sRGB">
<feFlood flood-opacity="0" result="BackgroundImageFix"/>
<feBlend mode="normal" in="SourceGraphic" in2="BackgroundImageFix" result="shape"/>
<feGaussianBlur stdDeviation="5" result="effect1_foregroundBlur_91_3924"/>
</filter>
<linearGradient id="paint0_linear_91_3924" x1="15.1091" y1="57.1669" x2="64.5755" y2="11.7205" gradientUnits="userSpaceOnUse">
<stop stop-color="#D2AB5A"/>
<stop offset="0.0610851" stop-color="#BA9443"/>
<stop offset="0.1898" stop-color="#7C5808"/>
<stop offset="0.2069" stop-color="#735000"/>
<stop offset="0.2274" stop-color="#775200"/>
<stop offset="0.3376" stop-color="#8A5D00"/>
<stop offset="0.4146" stop-color="#916100"/>
<stop offset="0.4344" stop-color="#976707"/>
<stop offset="0.4986" stop-color="#D8B364"/>
<stop offset="0.5246" stop-color="#D4AE5D"/>
<stop offset="0.5617" stop-color="#CA9F4A"/>
<stop offset="0.6053" stop-color="#B9882C"/>
<stop offset="0.6414" stop-color="#A8700D"/>
<stop offset="0.6805" stop-color="#815400"/>
<stop offset="0.8029" stop-color="#B38116"/>
<stop offset="0.8267" stop-color="#A27114"/>
<stop offset="0.8802" stop-color="#815110"/>
<stop offset="0.9247" stop-color="#6C3D0E"/>
<stop offset="0.9545" stop-color="#65360D"/>
<stop offset="0.9581" stop-color="#6F3F0D"/>
<stop offset="0.9701" stop-color="#8A580C"/>
<stop offset="0.9807" stop-color="#9B670C"/>
<stop offset="0.9886" stop-color="#A16C0C"/>
</linearGradient>
<linearGradient id="paint1_linear_91_3924" x1="19.8807" y1="72.2579" x2="78.4493" y2="18.4491" gradientUnits="userSpaceOnUse">
<stop stop-color="#D2AB5A"/>
<stop offset="0.0610851" stop-color="#BA9443"/>
<stop offset="0.1898" stop-color="#7C5808"/>
<stop offset="0.2069" stop-color="#735000"/>
<stop offset="0.2274" stop-color="#775200"/>
<stop offset="0.3376" stop-color="#8A5D00"/>
<stop offset="0.4146" stop-color="#916100"/>
<stop offset="0.4344" stop-color="#976707"/>
<stop offset="0.4986" stop-color="#D8B364"/>
<stop offset="0.5246" stop-color="#D4AE5D"/>
<stop offset="0.5617" stop-color="#CA9F4A"/>
<stop offset="0.6053" stop-color="#B9882C"/>
<stop offset="0.6414" stop-color="#A8700D"/>
<stop offset="0.6805" stop-color="#815400"/>
<stop offset="0.8029" stop-color="#B38116"/>
<stop offset="0.8267" stop-color="#A27114"/>
<stop offset="0.8802" stop-color="#815110"/>
<stop offset="0.9247" stop-color="#6C3D0E"/>
<stop offset="0.9545" stop-color="#65360D"/>
<stop offset="0.9581" stop-color="#6F3F0D"/>
<stop offset="0.9701" stop-color="#8A580C"/>
<stop offset="0.9807" stop-color="#9B670C"/>
<stop offset="0.9886" stop-color="#A16C0C"/>
</linearGradient>
<linearGradient id="paint2_linear_91_3924" x1="23.275" y1="24.2588" x2="64.3189" y2="51.7865" gradientUnits="userSpaceOnUse">
<stop stop-color="#D7AC4C"/>
<stop offset="0.1816" stop-color="#FFFFB0"/>
<stop offset="0.3268" stop-color="#F4D174"/>
<stop offset="0.3659" stop-color="#FBED99"/>
<stop offset="0.3939" stop-color="#FAEC97"/>
<stop offset="0.433" stop-color="#DEB04D"/>
<stop offset="0.5275" stop-color="#DFB24F"/>
<stop offset="0.5615" stop-color="#E2B756"/>
<stop offset="0.5858" stop-color="#E7C161"/>
<stop offset="0.6053" stop-color="#EECF72"/>
<stop offset="0.6207" stop-color="#F6DF86"/>
<stop offset="0.7529" stop-color="#F2D87E"/>
<stop offset="0.7672" stop-color="#F1D77D"/>
<stop offset="0.7716" stop-color="#EBCD71"/>
<stop offset="0.7804" stop-color="#E2BE60"/>
<stop offset="0.7913" stop-color="#DCB455"/>
<stop offset="0.8066" stop-color="#D8AE4E"/>
<stop offset="0.8492" stop-color="#D7AC4C"/>
<stop offset="1" stop-color="#966424"/>
</linearGradient>
<linearGradient id="paint3_linear_91_3924" x1="28.6891" y1="28.329" x2="69.7331" y2="55.8567" gradientUnits="userSpaceOnUse">
<stop offset="0.1136" stop-color="#D7AC4C"/>
<stop offset="0.1816" stop-color="#FFFFB0"/>
<stop offset="0.3268" stop-color="#F4D174"/>
<stop offset="0.3659" stop-color="#FBED99"/>
<stop offset="0.3939" stop-color="#FAEC97"/>
<stop offset="0.433" stop-color="#DEB04D"/>
<stop offset="0.5275" stop-color="#DFB24F"/>
<stop offset="0.5615" stop-color="#E2B756"/>
<stop offset="0.5858" stop-color="#E7C161"/>
<stop offset="0.6053" stop-color="#EECF72"/>
<stop offset="0.6207" stop-color="#F6DF86"/>
<stop offset="0.7529" stop-color="#F2D87E"/>
<stop offset="0.7672" stop-color="#F1D77D"/>
<stop offset="0.7716" stop-color="#EBCD71"/>
<stop offset="0.7804" stop-color="#E2BE60"/>
<stop offset="0.7913" stop-color="#DCB455"/>
<stop offset="0.8066" stop-color="#D8AE4E"/>
<stop offset="0.8492" stop-color="#D7AC4C"/>
<stop offset="1" stop-color="#966424"/>
</linearGradient>
<linearGradient id="paint4_linear_91_3924" x1="49.5273" y1="23.7248" x2="45.9545" y2="27.8045" gradientUnits="userSpaceOnUse">
<stop stop-color="#A16C0C"/>
<stop offset="0.2318" stop-color="#BE9134"/>
<stop offset="0.5559" stop-color="#A8700D"/>
<stop offset="1" stop-color="#432400"/>
</linearGradient>
<linearGradient id="paint5_linear_91_3924" x1="35.6085" y1="40.3072" x2="41.6914" y2="34.9362" gradientUnits="userSpaceOnUse">
<stop stop-color="#A16C0C"/>
<stop offset="0.2318" stop-color="#BE9134"/>
<stop offset="0.5559" stop-color="#A8700D"/>
<stop offset="1" stop-color="#432400"/>
</linearGradient>
<linearGradient id="paint6_linear_91_3924" x1="55.9625" y1="24.5058" x2="46.9212" y2="31.9425" gradientUnits="userSpaceOnUse">
<stop stop-color="#A16C0C"/>
<stop offset="0.2318" stop-color="#BE9134"/>
<stop offset="0.5559" stop-color="#A8700D"/>
<stop offset="1" stop-color="#432400"/>
</linearGradient>
<linearGradient id="paint7_linear_91_3924" x1="57.39" y1="21.7309" x2="49.6623" y2="31.15" gradientUnits="userSpaceOnUse">
<stop stop-color="#A16C0C"/>
<stop offset="0.2318" stop-color="#BE9134"/>
<stop offset="0.5559" stop-color="#A8700D"/>
<stop offset="1" stop-color="#432400"/>
</linearGradient>
<linearGradient id="paint8_linear_91_3924" x1="43.115" y1="35.9856" x2="47.0868" y2="32.3366" gradientUnits="userSpaceOnUse">
<stop stop-color="#A16C0C"/>
<stop offset="0.2318" stop-color="#BE9134"/>
<stop offset="0.5559" stop-color="#A8700D"/>
<stop offset="1" stop-color="#432400"/>
</linearGradient>
<linearGradient id="paint9_linear_91_3924" x1="30.4539" y1="45.0061" x2="40.5145" y2="40.257" gradientUnits="userSpaceOnUse">
<stop stop-color="#A16C0C"/>
<stop offset="0.2318" stop-color="#BE9134"/>
<stop offset="0.5559" stop-color="#A8700D"/>
<stop offset="1" stop-color="#432400"/>
</linearGradient>
<linearGradient id="paint10_linear_91_3924" x1="51.3584" y1="34.6904" x2="45.8155" y2="38.9131" gradientUnits="userSpaceOnUse">
<stop stop-color="#A16C0C"/>
<stop offset="0.2318" stop-color="#BE9134"/>
<stop offset="0.5559" stop-color="#A8700D"/>
<stop offset="1" stop-color="#432400"/>
</linearGradient>
<linearGradient id="paint11_linear_91_3924" x1="41.7539" y1="45.0815" x2="46.2032" y2="39.0367" gradientUnits="userSpaceOnUse">
<stop stop-color="#A16C0C"/>
<stop offset="0.2318" stop-color="#BE9134"/>
<stop offset="0.5559" stop-color="#A8700D"/>
<stop offset="1" stop-color="#432400"/>
</linearGradient>
<linearGradient id="paint12_linear_91_3924" x1="32.1184" y1="53.1995" x2="39.707" y2="46.2276" gradientUnits="userSpaceOnUse">
<stop stop-color="#A16C0C"/>
<stop offset="0.2318" stop-color="#BE9134"/>
<stop offset="0.5559" stop-color="#A8700D"/>
<stop offset="1" stop-color="#432400"/>
</linearGradient>
<linearGradient id="paint13_linear_91_3924" x1="57.5401" y1="31.9763" x2="44.8018" y2="43.7519" gradientUnits="userSpaceOnUse">
<stop stop-color="#A16C0C"/>
<stop offset="0.2318" stop-color="#BE9134"/>
<stop offset="0.5559" stop-color="#A8700D"/>
<stop offset="1" stop-color="#432400"/>
</linearGradient>
<linearGradient id="paint14_linear_91_3924" x1="43.3213" y1="47.4622" x2="45.8338" y2="45.2264" gradientUnits="userSpaceOnUse">
<stop stop-color="#A16C0C"/>
<stop offset="0.2318" stop-color="#BE9134"/>
<stop offset="0.5559" stop-color="#A8700D"/>
<stop offset="1" stop-color="#432400"/>
</linearGradient>
<linearGradient id="paint15_linear_91_3924" x1="23.1088" y1="24.7287" x2="64.1523" y2="52.2561" gradientUnits="userSpaceOnUse">
<stop stop-color="#D7AC4C"/>
<stop offset="0.1816" stop-color="#FFFFB0"/>
<stop offset="0.3268" stop-color="#F4D174"/>
<stop offset="0.3659" stop-color="#FBED99"/>
<stop offset="0.3939" stop-color="#FAEC97"/>
<stop offset="0.433" stop-color="#DEB04D"/>
<stop offset="0.5275" stop-color="#DFB24F"/>
<stop offset="0.5615" stop-color="#E2B756"/>
<stop offset="0.5858" stop-color="#E7C161"/>
<stop offset="0.6053" stop-color="#EECF72"/>
<stop offset="0.6207" stop-color="#F6DF86"/>
<stop offset="0.7529" stop-color="#F2D87E"/>
<stop offset="0.7672" stop-color="#F1D77D"/>
<stop offset="0.7716" stop-color="#EBCD71"/>
<stop offset="0.7804" stop-color="#E2BE60"/>
<stop offset="0.7913" stop-color="#DCB455"/>
<stop offset="0.8066" stop-color="#D8AE4E"/>
<stop offset="0.8492" stop-color="#D7AC4C"/>
<stop offset="1" stop-color="#966424"/>
</linearGradient>
<linearGradient id="paint16_linear_91_3924" x1="38.2562" y1="52.4005" x2="43.7399" y2="47.7974" gradientUnits="userSpaceOnUse">
<stop stop-color="#A16C0C"/>
<stop offset="0.2318" stop-color="#BE9134"/>
<stop offset="0.5559" stop-color="#A8700D"/>
<stop offset="1" stop-color="#432400"/>
</linearGradient>
<linearGradient id="paint17_linear_91_3924" x1="32.3108" y1="41.7057" x2="42.576" y2="32.1298" gradientUnits="userSpaceOnUse">
<stop stop-color="#966424"/>
<stop offset="0.1508" stop-color="#D7AC4C"/>
<stop offset="0.1934" stop-color="#D8AE4E"/>
<stop offset="0.2087" stop-color="#DCB455"/>
<stop offset="0.2196" stop-color="#E2BE60"/>
<stop offset="0.2284" stop-color="#EBCD71"/>
<stop offset="0.2328" stop-color="#F1D77D"/>
<stop offset="0.2471" stop-color="#F2D87E"/>
<stop offset="0.3793" stop-color="#F6DF86"/>
<stop offset="0.3947" stop-color="#EECF72"/>
<stop offset="0.4142" stop-color="#E7C161"/>
<stop offset="0.4385" stop-color="#E2B756"/>
<stop offset="0.4725" stop-color="#DFB24F"/>
<stop offset="0.567" stop-color="#DEB04D"/>
<stop offset="0.6061" stop-color="#FAEC97"/>
<stop offset="0.6341" stop-color="#FBED99"/>
<stop offset="0.6732" stop-color="#F4D174"/>
<stop offset="0.8184" stop-color="#FFFFB0"/>
<stop offset="1" stop-color="#D7AC4C"/>
</linearGradient>
<linearGradient id="paint18_linear_91_3924" x1="43.536" y1="40.1272" x2="47.0587" y2="36.8908" gradientUnits="userSpaceOnUse">
<stop stop-color="#966424"/>
<stop offset="0.1508" stop-color="#D7AC4C"/>
<stop offset="0.1934" stop-color="#D8AE4E"/>
<stop offset="0.2087" stop-color="#DCB455"/>
<stop offset="0.2196" stop-color="#E2BE60"/>
<stop offset="0.2284" stop-color="#EBCD71"/>
<stop offset="0.2328" stop-color="#F1D77D"/>
<stop offset="0.2471" stop-color="#F2D87E"/>
<stop offset="0.3793" stop-color="#F6DF86"/>
<stop offset="0.3947" stop-color="#EECF72"/>
<stop offset="0.4142" stop-color="#E7C161"/>
<stop offset="0.4385" stop-color="#E2B756"/>
<stop offset="0.4725" stop-color="#DFB24F"/>
<stop offset="0.567" stop-color="#DEB04D"/>
<stop offset="0.6061" stop-color="#FAEC97"/>
<stop offset="0.6341" stop-color="#FBED99"/>
<stop offset="0.6732" stop-color="#F4D174"/>
<stop offset="0.8184" stop-color="#FFFFB0"/>
<stop offset="1" stop-color="#D7AC4C"/>
</linearGradient>
<linearGradient id="paint19_linear_91_3924" x1="44.994" y1="26.7848" x2="46.3752" y2="25.5158" gradientUnits="userSpaceOnUse">
<stop stop-color="#966424"/>
<stop offset="0.1508" stop-color="#D7AC4C"/>
<stop offset="0.1934" stop-color="#D8AE4E"/>
<stop offset="0.2087" stop-color="#DCB455"/>
<stop offset="0.2196" stop-color="#E2BE60"/>
<stop offset="0.2284" stop-color="#EBCD71"/>
<stop offset="0.2328" stop-color="#F1D77D"/>
<stop offset="0.2471" stop-color="#F2D87E"/>
<stop offset="0.3793" stop-color="#F6DF86"/>
<stop offset="0.3947" stop-color="#EECF72"/>
<stop offset="0.4142" stop-color="#E7C161"/>
<stop offset="0.4385" stop-color="#E2B756"/>
<stop offset="0.4725" stop-color="#DFB24F"/>
<stop offset="0.567" stop-color="#DEB04D"/>
<stop offset="0.6061" stop-color="#FAEC97"/>
<stop offset="0.6341" stop-color="#FBED99"/>
<stop offset="0.6732" stop-color="#F4D174"/>
<stop offset="0.8184" stop-color="#FFFFB0"/>
<stop offset="1" stop-color="#D7AC4C"/>
</linearGradient>
<linearGradient id="paint20_linear_91_3924" x1="42.7826" y1="44.1848" x2="29.1769" y2="52.238" gradientUnits="userSpaceOnUse">
<stop stop-color="#966424"/>
<stop offset="0.1508" stop-color="#D7AC4C"/>
<stop offset="0.1934" stop-color="#D8AE4E"/>
<stop offset="0.2087" stop-color="#DCB455"/>
<stop offset="0.2196" stop-color="#E2BE60"/>
<stop offset="0.2284" stop-color="#EBCD71"/>
<stop offset="0.2328" stop-color="#F1D77D"/>
<stop offset="0.2471" stop-color="#F2D87E"/>
<stop offset="0.3793" stop-color="#F6DF86"/>
<stop offset="0.3947" stop-color="#EECF72"/>
<stop offset="0.4142" stop-color="#E7C161"/>
<stop offset="0.4385" stop-color="#E2B756"/>
<stop offset="0.4725" stop-color="#DFB24F"/>
<stop offset="0.567" stop-color="#DEB04D"/>
<stop offset="0.6061" stop-color="#FAEC97"/>
<stop offset="0.6341" stop-color="#FBED99"/>
<stop offset="0.6732" stop-color="#F4D174"/>
<stop offset="0.8184" stop-color="#FFFFB0"/>
<stop offset="1" stop-color="#D7AC4C"/>
</linearGradient>
<linearGradient id="paint21_linear_91_3924" x1="43.9119" y1="33.4181" x2="53.9378" y2="24.207" gradientUnits="userSpaceOnUse">
<stop stop-color="#966424"/>
<stop offset="0.1508" stop-color="#D7AC4C"/>
<stop offset="0.1934" stop-color="#D8AE4E"/>
<stop offset="0.2087" stop-color="#DCB455"/>
<stop offset="0.2196" stop-color="#E2BE60"/>
<stop offset="0.2284" stop-color="#EBCD71"/>
<stop offset="0.2328" stop-color="#F1D77D"/>
<stop offset="0.2471" stop-color="#F2D87E"/>
<stop offset="0.3793" stop-color="#F6DF86"/>
<stop offset="0.3947" stop-color="#EECF72"/>
<stop offset="0.4142" stop-color="#E7C161"/>
<stop offset="0.4385" stop-color="#E2B756"/>
<stop offset="0.4725" stop-color="#DFB24F"/>
<stop offset="0.567" stop-color="#DEB04D"/>
<stop offset="0.6061" stop-color="#FAEC97"/>
<stop offset="0.6341" stop-color="#FBED99"/>
<stop offset="0.6732" stop-color="#F4D174"/>
<stop offset="0.8184" stop-color="#FFFFB0"/>
<stop offset="1" stop-color="#D7AC4C"/>
</linearGradient>
<linearGradient id="paint22_linear_91_3924" x1="58.2744" y1="31.297" x2="41.168" y2="45.4186" gradientUnits="userSpaceOnUse">
<stop stop-color="#966424"/>
<stop offset="0.1508" stop-color="#D7AC4C"/>
<stop offset="0.1934" stop-color="#D8AE4E"/>
<stop offset="0.2087" stop-color="#DCB455"/>
<stop offset="0.2196" stop-color="#E2BE60"/>
<stop offset="0.2284" stop-color="#EBCD71"/>
<stop offset="0.2328" stop-color="#F1D77D"/>
<stop offset="0.2471" stop-color="#F2D87E"/>
<stop offset="0.3793" stop-color="#F6DF86"/>
<stop offset="0.3947" stop-color="#EECF72"/>
<stop offset="0.4142" stop-color="#E7C161"/>
<stop offset="0.4385" stop-color="#E2B756"/>
<stop offset="0.4725" stop-color="#DFB24F"/>
<stop offset="0.567" stop-color="#DEB04D"/>
<stop offset="0.6061" stop-color="#FAEC97"/>
<stop offset="0.6341" stop-color="#FBED99"/>
<stop offset="0.6732" stop-color="#F4D174"/>
<stop offset="0.8184" stop-color="#FFFFB0"/>
<stop offset="1" stop-color="#D7AC4C"/>
</linearGradient>
<linearGradient id="paint23_linear_91_3924" x1="41.9294" y1="37.8006" x2="29.1773" y2="44.8592" gradientUnits="userSpaceOnUse">
<stop stop-color="#966424"/>
<stop offset="0.1508" stop-color="#D7AC4C"/>
<stop offset="0.1934" stop-color="#D8AE4E"/>
<stop offset="0.2087" stop-color="#DCB455"/>
<stop offset="0.2196" stop-color="#E2BE60"/>
<stop offset="0.2284" stop-color="#EBCD71"/>
<stop offset="0.2328" stop-color="#F1D77D"/>
<stop offset="0.2471" stop-color="#F2D87E"/>
<stop offset="0.3793" stop-color="#F6DF86"/>
<stop offset="0.3947" stop-color="#EECF72"/>
<stop offset="0.4142" stop-color="#E7C161"/>
<stop offset="0.4385" stop-color="#E2B756"/>
<stop offset="0.4725" stop-color="#DFB24F"/>
<stop offset="0.567" stop-color="#DEB04D"/>
<stop offset="0.6061" stop-color="#FAEC97"/>
<stop offset="0.6341" stop-color="#FBED99"/>
<stop offset="0.6732" stop-color="#F4D174"/>
<stop offset="0.8184" stop-color="#FFFFB0"/>
<stop offset="1" stop-color="#D7AC4C"/>
</linearGradient>
<linearGradient id="paint24_linear_91_3924" x1="18.6937" y1="63.8252" x2="53.7503" y2="30.0718" gradientUnits="userSpaceOnUse">
<stop stop-color="#D7AC4C"/>
<stop offset="0.1816" stop-color="#FFFFB0"/>
<stop offset="0.3268" stop-color="#F4D174"/>
<stop offset="0.3659" stop-color="#FBED99"/>
<stop offset="0.3939" stop-color="#FAEC97"/>
<stop offset="0.433" stop-color="#DEB04D"/>
<stop offset="0.5275" stop-color="#DFB24F"/>
<stop offset="0.5615" stop-color="#E2B756"/>
<stop offset="0.5858" stop-color="#E7C161"/>
<stop offset="0.6053" stop-color="#EECF72"/>
<stop offset="0.6207" stop-color="#F6DF86"/>
<stop offset="0.7529" stop-color="#F2D87E"/>
<stop offset="0.7672" stop-color="#F1D77D"/>
<stop offset="0.7716" stop-color="#EBCD71"/>
<stop offset="0.7804" stop-color="#E2BE60"/>
<stop offset="0.7913" stop-color="#DCB455"/>
<stop offset="0.8066" stop-color="#D8AE4E"/>
<stop offset="0.8492" stop-color="#D7AC4C"/>
<stop offset="1" stop-color="#966424"/>
</linearGradient>
<linearGradient id="paint25_linear_91_3924" x1="13.7786" y1="58.9158" x2="75.2146" y2="-0.23329" gradientUnits="userSpaceOnUse">
<stop stop-color="#D7AC4C"/>
<stop offset="0.1816" stop-color="#FFFFB0"/>
<stop offset="0.3268" stop-color="#F4D174"/>
<stop offset="0.3659" stop-color="#FBED99"/>
<stop offset="0.3939" stop-color="#FAEC97"/>
<stop offset="0.433" stop-color="#DEB04D"/>
<stop offset="0.5275" stop-color="#DFB24F"/>
<stop offset="0.5615" stop-color="#E2B756"/>
<stop offset="0.5858" stop-color="#E7C161"/>
<stop offset="0.6053" stop-color="#EECF72"/>
<stop offset="0.6207" stop-color="#F6DF86"/>
<stop offset="0.7529" stop-color="#F2D87E"/>
<stop offset="0.7672" stop-color="#F1D77D"/>
<stop offset="0.7716" stop-color="#EBCD71"/>
<stop offset="0.7804" stop-color="#E2BE60"/>
<stop offset="0.7913" stop-color="#DCB455"/>
<stop offset="0.8066" stop-color="#D8AE4E"/>
<stop offset="0.8492" stop-color="#D7AC4C"/>
<stop offset="1" stop-color="#966424"/>
</linearGradient>
</defs>
</svg>
