<svg width="152" height="179" viewBox="0 0 152 179" fill="none" xmlns="http://www.w3.org/2000/svg">
<path d="M128.452 130.69C129.114 130.002 129.612 129.304 129.955 128.434C132.417 123.038 129.729 114.272 127.117 108.998C119.901 93.8676 108.577 81.0831 96.5261 69.5759C83.7019 57.7639 69.4742 46.9624 53.1656 40.5902C47.1923 38.4592 38.6116 35.859 32.7339 39.2945C32.0219 39.684 31.3011 40.2376 30.677 40.8293C31.0609 40.4221 32.9509 38.3189 34.1025 37.0974C34.1699 37.0682 34.208 36.9715 34.2754 36.9422C34.3809 36.8162 34.5538 36.661 34.6593 36.535C34.6974 36.4384 34.8321 36.3798 34.8995 36.3505L34.9669 36.3212C36.7162 35.0002 38.7964 34.2565 41.1491 33.9551C41.3131 33.9639 41.5153 33.8761 41.6794 33.8849C41.8434 33.8937 41.9782 33.8352 42.1423 33.844C46.9646 33.5109 52.6744 35.0354 58.1174 37.2366C58.3108 37.3128 58.6008 37.4271 58.7941 37.5033C65.0691 40.1441 71.0686 43.6257 75.2107 46.1519C75.53 46.3336 75.8493 46.5153 76.1013 46.7263C76.6725 47.119 77.2437 47.5116 77.8823 47.875C78.4536 48.2677 79.0248 48.6604 79.6634 49.0238C80.2053 49.3491 80.6799 49.7037 81.1544 50.0583C89.0168 55.6145 97.582 62.788 105.64 70.8227C105.766 70.9282 105.795 70.9956 105.921 71.1011C113.505 78.7813 120.523 87.1879 125.757 95.729C126.243 96.4791 126.633 97.1911 127.09 97.8738C127.362 98.3163 127.664 98.8261 127.869 99.2978C130.751 104.455 132.909 109.605 134.121 114.607C134.171 114.906 134.22 115.204 134.27 115.503C134.32 115.802 134.37 116.101 134.419 116.4C134.972 120.806 134.228 124.254 132.127 126.609L128.452 130.69Z" fill="url(#paint0_linear_91_3932)"/>
<path d="M140.932 133.598C123.74 149.161 76.5669 112.138 63.2272 99.5087C50.2361 87.1282 13.1942 46.5038 26.5922 28.6643L11.2904 43.9664C6.39395 48.738 8.65072 60.0149 11.6173 66.6571C22.2157 90.4923 41.1177 109.838 61.0368 126.178C75.5662 137.489 100.451 155.116 119.53 152.192C121.428 151.768 123.315 150.948 124.862 149.715C125.651 149.132 140.173 134.249 140.932 133.598Z" fill="url(#paint1_linear_91_3932)"/>
<path d="M142.669 120.266C140.599 109.788 132.616 95.4724 119.397 79.9864C106.178 64.5005 90.1398 50.64 74.9041 40.8373C59.6391 30.9672 45.2435 25.1257 35.2413 25.7069C25.2099 26.2207 21.5201 33.0316 23.6569 43.4794C25.7556 54.0238 33.7101 68.2725 46.9292 83.7585C60.1482 99.2445 76.2152 113.172 91.4509 122.975C106.687 132.778 121.082 138.619 131.114 138.105C141.048 137.554 144.768 130.81 142.669 120.266ZM129.926 128.367C128.397 129.272 126.46 129.793 124.049 129.96C115.503 130.389 103.166 125.415 90.1571 117.048C77.1184 108.614 63.4358 96.8544 52.109 83.5104C40.8114 70.2338 34.0636 58.0244 32.2429 49.0416C31.4321 45.1478 31.5792 41.7992 32.7339 39.2945C33.1062 38.4918 33.5077 37.7565 34.1025 37.0974C34.1699 37.0681 34.208 36.9715 34.2754 36.9422C34.3809 36.8162 34.5538 36.661 34.6593 36.535C34.6974 36.4383 34.8322 36.3798 34.8995 36.3505L34.9669 36.3212C36.4848 35.0207 38.5357 34.2095 41.1491 33.9551C41.3805 33.9346 41.5153 33.8761 41.6794 33.8849C41.8434 33.8937 41.9782 33.8351 42.1423 33.844C46.5984 33.5899 52.027 34.836 58.1174 37.2365C58.3108 37.3127 58.6008 37.4271 58.7942 37.5033C63.9472 39.5902 69.4809 42.5531 75.2107 46.1518C75.5301 46.3335 75.8494 46.5152 76.1013 46.7262C76.6725 47.1189 77.2437 47.5116 77.8823 47.875C78.4536 48.2677 79.0248 48.6604 79.6634 49.0238C80.2053 49.3491 80.6799 49.7037 81.1544 50.0582C89.4621 55.9016 97.8339 62.9989 105.64 70.8227C105.766 70.9282 105.795 70.9956 105.921 71.1011C108.792 74.0196 111.557 77.0641 114.187 80.1671C118.798 85.6143 122.664 90.8241 125.757 95.729C126.214 96.4117 126.633 97.1911 127.09 97.8738C127.362 98.3162 127.664 98.826 127.869 99.2978C131.149 105.003 133.172 110.212 134.121 114.607C134.171 114.906 134.22 115.204 134.27 115.503C134.32 115.802 134.37 116.101 134.419 116.4C134.972 120.806 134.228 124.254 132.127 126.609C131.426 127.394 130.705 127.948 129.926 128.367Z" fill="url(#paint2_linear_91_3932)"/>
<path d="M130.023 128.405C128.493 129.31 126.557 129.831 124.145 129.998C115.599 130.427 103.263 125.453 90.2537 117.086C77.215 108.652 63.5324 96.8926 52.2056 83.5486C40.9081 70.272 34.1602 58.0626 32.3396 49.0797C31.5287 45.186 31.6758 41.8373 32.8306 39.3326C38.7082 35.8971 47.2889 38.4973 53.2622 40.6283C69.5709 47.0005 83.7986 57.802 96.5935 69.5467C108.712 81.0246 119.968 93.8383 127.184 108.969C129.797 114.243 132.388 122.971 130.023 128.405Z" fill="url(#paint3_linear_91_3932)"/>
<path d="M102.983 85.3566L99.3849 89.2436L104.371 88.9193L107.902 85.0615L102.983 85.3566Z" fill="url(#paint4_linear_91_3932)"/>
<path d="M84.5768 80.0563C84.606 80.1237 84.7027 80.1618 84.732 80.2292C85.0806 80.4783 85.3911 80.824 85.769 81.1405C85.8656 81.1786 85.9242 81.3134 86.0209 81.3515C86.3988 81.668 86.8059 82.0519 87.2131 82.4357L90.7441 78.5779C90.4629 78.2995 90.1817 78.0212 89.9005 77.7428C89.7745 77.6373 89.6486 77.5318 89.59 77.397C89.4933 77.3589 89.4348 77.2242 89.3381 77.186C89.2414 77.1479 89.1828 77.0132 89.0862 76.9751C88.8342 76.7641 88.5823 76.5531 88.3304 76.3421C88.3304 76.3421 88.3011 76.2747 88.2337 76.304C88.2044 76.2366 88.1078 76.1985 88.0785 76.1311C87.9232 75.9582 87.7006 75.8146 87.5747 75.7092C87.4487 75.6037 87.352 75.5656 87.2261 75.4601C87.1294 75.422 87.0034 75.3165 86.9741 75.2491C86.6255 75 86.3736 74.789 86.0543 74.6073C85.735 74.4256 85.5124 74.282 85.2224 74.1677C85.1257 74.1296 85.0964 74.0622 84.9997 74.0241C84.9031 73.986 84.8064 73.9479 84.7771 73.8805C84.5837 73.8043 84.4871 73.7662 84.2937 73.69C84.1971 73.6519 84.033 73.6431 83.9363 73.605C83.8396 73.5668 83.743 73.5287 83.6463 73.4906C83.6463 73.4906 83.6463 73.4906 83.5789 73.5199C83.5115 73.5492 83.4822 73.4818 83.4148 73.5111C83.3182 73.473 83.2508 73.5023 83.1541 73.4642C83.0867 73.4935 82.99 73.4554 82.99 73.4554C82.9227 73.4846 82.826 73.4465 82.826 73.4465C82.7586 73.4758 82.7586 73.4758 82.6912 73.5051L82.6238 73.5344C82.5564 73.5637 82.5564 73.5637 82.489 73.593L82.4216 73.6223L78.7178 77.6353C78.7559 77.5386 78.8906 77.4801 78.958 77.4508C79.0928 77.3922 79.1602 77.3629 79.3243 77.3717C79.4883 77.3806 79.7198 77.3601 79.9131 77.4363C80.1739 77.4832 80.3672 77.5594 80.6279 77.6064C80.8213 77.6826 81.1113 77.7969 81.3339 77.9405C81.4306 77.9786 81.4599 78.046 81.5566 78.0841C81.8466 78.1984 82.0985 78.4094 82.3885 78.5237C82.7078 78.7054 82.9598 78.9164 83.3084 79.1655C83.405 79.2036 83.531 79.3091 83.5603 79.3764C83.9762 79.5962 84.2282 79.8072 84.5768 80.0563Z" fill="url(#paint5_linear_91_3932)"/>
<path d="M96.8058 94.3703C97.0196 94.6779 97.2627 95.053 97.4765 95.3606C97.7196 95.7357 97.9627 96.1107 98.1677 96.5824C98.5279 97.227 98.8882 97.8716 99.2191 98.4489C99.5793 99.0935 99.9396 99.7381 100.232 100.412L103.763 96.5542C103.558 96.0824 103.257 95.5726 103.052 95.1009C102.964 94.8987 102.809 94.7258 102.75 94.5911C102.39 93.9465 102.03 93.3019 101.699 92.7246C101.582 92.4551 101.397 92.2148 101.28 91.9453C101.221 91.8105 101.066 91.6376 101.007 91.5028C100.794 91.1952 100.551 90.8201 100.337 90.5125C100.123 90.2048 99.9765 89.8678 99.7627 89.5602C99.5782 89.3199 99.3937 89.0796 99.2765 88.8101C99.092 88.5698 98.9075 88.3295 98.7903 88.06C98.6351 87.8871 98.5472 87.6849 98.392 87.5121C97.9644 86.8967 97.4693 86.3107 97.0124 85.628L93.4814 89.4858C94.0936 90.3414 94.6764 91.1296 95.2593 91.9178C95.4438 92.1581 95.6284 92.3983 95.7455 92.6679C96.0765 93.2451 96.4074 93.8223 96.8058 94.3703Z" fill="url(#paint6_linear_91_3932)"/>
<path d="M112.405 99.8487L108.874 103.706L100.262 100.479L103.793 96.6215L112.405 99.8487Z" fill="url(#paint7_linear_91_3932)"/>
<path d="M89.1899 86.063L85.5915 89.9501L93.3466 89.5443L96.945 85.6572L89.1899 86.063Z" fill="url(#paint8_linear_91_3932)"/>
<path d="M73.1242 81.9088C73.3966 82.3512 73.707 82.697 73.9794 83.1394L77.5104 79.2816C77.2381 78.8392 76.8983 78.426 76.6552 78.051C76.5966 77.9162 76.4707 77.8107 76.4121 77.6759C76.1983 77.3683 76.0137 77.128 75.7999 76.8203C75.7707 76.753 75.7121 76.6182 75.6154 76.5801C75.4016 76.2724 75.1878 75.9648 74.974 75.6571C74.9154 75.5223 74.7602 75.3494 74.7016 75.2147C74.5171 74.9744 74.3999 74.7048 74.2447 74.5319C74.1861 74.3972 74.0309 74.2243 73.9723 74.0895C73.817 73.9166 73.6999 73.6471 73.5447 73.4742C73.4861 73.3394 73.3308 73.1665 73.2723 73.0318C73.1844 72.8296 73.0292 72.6567 72.9413 72.4545C72.912 72.3872 72.8535 72.2524 72.7568 72.2143C72.4551 71.7044 72.1534 71.1946 71.8811 70.7522C71.6673 70.4445 71.5208 70.1076 71.4037 69.838C71.3744 69.7706 71.3451 69.7032 71.3158 69.6359C71.1401 69.2315 70.897 68.8565 70.7213 68.4521C70.692 68.3847 70.692 68.3847 70.6627 68.3174C70.487 67.913 70.3406 67.5761 70.2616 67.2099C70.2323 67.1425 70.203 67.0751 70.1737 67.0077C70.0947 66.6415 69.9483 66.3045 69.8985 66.0057C69.8692 65.9383 69.8399 65.8709 69.9073 65.8416C69.8283 65.4754 69.7785 65.1765 69.7962 64.8484C69.7348 64.1541 69.9341 63.5066 70.318 63.0995L66.787 66.9573C66.4031 67.3644 66.2419 67.9152 66.2652 68.7062C66.3149 69.0051 66.2973 69.3332 66.3763 69.6994C66.4056 69.7668 66.4056 69.7668 66.3675 69.8635C66.4172 70.1623 66.4963 70.5285 66.6427 70.8655C66.672 70.9329 66.7013 71.0003 66.7306 71.0677C66.877 71.4046 66.9853 71.8382 67.1317 72.1752C67.161 72.2426 67.161 72.2426 67.1903 72.3099C67.366 72.7143 67.5417 73.1186 67.7848 73.4937C67.8141 73.561 67.8141 73.561 67.8434 73.6284L67.8727 73.6958C68.0191 74.0328 68.2329 74.3404 68.35 74.61C68.6224 75.0524 68.9241 75.5622 69.2258 76.0721C69.2551 76.1395 69.2551 76.1395 69.2843 76.2069C69.3136 76.2742 69.3136 76.2742 69.3429 76.3416C69.4308 76.5438 69.586 76.7167 69.6739 76.9188C69.7324 77.0536 69.8877 77.2265 69.9462 77.3613C70.0341 77.5635 70.2186 77.8037 70.3739 77.9766C70.4325 78.1114 70.5877 78.2843 70.6463 78.419C70.8308 78.6593 70.9479 78.9289 71.1032 79.1017C71.1617 79.2365 71.2877 79.342 71.3756 79.5442C71.5894 79.8518 71.8032 80.1595 72.017 80.4672C72.0463 80.5346 72.0756 80.6019 72.2015 80.7074C72.4153 81.0151 72.6584 81.3901 72.9015 81.7652C73.0656 81.774 73.0949 81.8414 73.1242 81.9088Z" fill="url(#paint9_linear_91_3932)"/>
<path d="M84.6365 89.9646C84.5487 89.7624 84.4989 89.4636 84.3818 89.194C84.3525 89.1266 84.2939 88.9918 84.2646 88.9245C84.1768 88.7223 84.0889 88.5201 83.9718 88.2506L83.9425 88.1832C83.8254 87.9136 83.6408 87.6733 83.4944 87.3364C83.4651 87.269 83.4065 87.1342 83.3773 87.0669C83.3187 86.9321 83.1634 86.7592 83.1049 86.6244C83.017 86.4222 82.8911 86.3168 82.8032 86.1146L79.2722 89.9724C79.5153 90.3474 79.6617 90.6844 79.8755 90.992C79.9048 91.0594 79.9634 91.1942 79.9927 91.2616C80.2065 91.5693 80.3529 91.9062 80.47 92.1758C80.5579 92.3779 80.6458 92.5801 80.7629 92.8496C80.7922 92.917 80.8508 93.0518 80.88 93.1192C80.9972 93.3888 81.1143 93.6583 81.1348 93.8898C81.3017 94.4582 81.284 94.7863 81.0731 95.0382L84.5748 91.113C84.7858 90.8611 84.7741 90.4656 84.6365 89.9646Z" fill="url(#paint10_linear_91_3932)"/>
<path d="M76.1877 86.7462L72.5893 90.6333L78.9264 90.2829L82.4574 86.4251L76.1877 86.7462Z" fill="url(#paint11_linear_91_3932)"/>
<path d="M61.948 77.392C61.2392 76.4983 60.5977 75.5753 59.8889 74.6816C59.7044 74.4413 59.5198 74.2011 59.432 73.9989C58.9751 73.3162 58.4508 72.6628 57.9939 71.9801C57.5369 71.2974 57.08 70.6147 56.6231 69.9319C56.3507 69.4895 56.0784 69.0471 55.806 68.6046C55.7474 68.4699 55.6888 68.3351 55.5922 68.297C55.3491 67.9219 55.106 67.5469 54.9303 67.1425C54.8717 67.0078 54.8424 66.9404 54.7164 66.8349C54.4441 66.3924 54.2683 65.9881 53.996 65.5457C53.9081 65.3435 53.8495 65.2087 53.7617 65.0066C53.7031 64.8718 53.6445 64.737 53.586 64.6022C53.4981 64.4001 53.4395 64.2653 53.3517 64.0631C53.2931 63.9283 53.2345 63.7936 53.2053 63.7262C53.1174 63.524 53.0588 63.3892 52.971 63.1871C52.9417 63.1197 52.8831 62.9849 52.8538 62.9175C52.7367 62.6479 52.6489 62.4458 52.5991 62.1469L49.0681 66.0047C49.1559 66.2069 49.2731 66.4765 49.3228 66.7753C49.3521 66.8427 49.4107 66.9775 49.44 67.0449C49.5278 67.247 49.5864 67.3818 49.6742 67.584C49.7328 67.7188 49.7914 67.8535 49.8207 67.9209C49.9085 68.1231 49.9671 68.2579 50.055 68.46C50.1135 68.5948 50.1721 68.7296 50.2307 68.8644C50.2892 68.9991 50.3478 69.1339 50.4357 69.3361L50.4649 69.4035C50.6407 69.8078 50.913 70.2502 51.1854 70.6927C51.244 70.8275 51.2733 70.8949 51.3992 71.0003C51.6423 71.3754 51.818 71.7797 52.0611 72.1548C52.0904 72.2222 52.1197 72.2896 52.149 72.3569C52.1783 72.4243 52.1783 72.4243 52.2076 72.4917C52.48 72.9342 52.7523 73.3766 53.0247 73.819C53.3557 74.3962 53.7833 75.0116 54.1816 75.5595C54.2402 75.6943 54.3369 75.7324 54.3955 75.8672C54.8524 76.5499 55.3093 77.2326 55.8336 77.886C55.9888 78.0589 56.0767 78.261 56.2319 78.4339C56.2612 78.5013 56.2612 78.5013 56.2905 78.5687C56.9319 79.4917 57.6408 80.3854 58.3496 81.2791C58.3496 81.2791 58.3496 81.2791 58.3789 81.3465C59.0584 82.1728 59.6706 83.0284 60.3501 83.8547L63.8812 79.9969C63.269 79.1413 62.5602 78.2476 61.948 77.392Z" fill="url(#paint12_linear_91_3932)"/>
<path d="M96.2564 102.14C96.1509 102.266 96.0162 102.324 95.9107 102.45C95.8433 102.48 95.8433 102.48 95.7759 102.509C95.6411 102.567 95.5063 102.626 95.3716 102.684L95.3042 102.714C95.102 102.802 94.9379 102.793 94.7358 102.881C94.6684 102.91 94.5717 102.872 94.5043 102.901C94.3403 102.892 94.1381 102.98 93.974 102.971C93.7426 102.992 93.4144 102.974 93.1537 102.927C93.057 102.889 92.9896 102.918 92.893 102.88C92.6322 102.833 92.3715 102.786 92.0434 102.769L91.9467 102.731C91.5893 102.646 91.2319 102.561 90.9419 102.446C90.8452 102.408 90.6518 102.332 90.5552 102.294C90.3618 102.218 90.1011 102.171 89.8784 102.027C89.5884 101.913 89.2984 101.799 89.0084 101.684C88.815 101.608 88.6217 101.532 88.4957 101.426C88.399 101.388 88.2731 101.283 88.109 101.274C87.819 101.16 87.4997 100.978 87.1804 100.796C87.0544 100.691 86.8611 100.615 86.7644 100.576C86.4451 100.395 86.1258 100.213 85.8065 100.031C85.6805 99.9259 85.4872 99.8497 85.3905 99.8116C84.9452 99.5244 84.5 99.2372 83.958 98.9119C83.4161 98.5866 82.8449 98.1939 82.341 97.7719C82.1184 97.6283 81.9632 97.4554 81.7698 97.3792C81.4212 97.1301 81.0433 96.8137 80.6655 96.4972C80.4428 96.3536 80.2876 96.1807 80.065 96.0371C79.6871 95.7206 79.2418 95.4334 78.8346 95.0496C78.5827 94.8386 78.3015 94.5602 78.0496 94.3492C77.7684 94.0709 77.5165 93.8599 77.1679 93.6108C76.8867 93.3324 76.6055 93.054 76.2569 92.8049C75.9757 92.5266 75.7238 92.3156 75.4426 92.0372C75.1614 91.7588 74.8802 91.4805 74.599 91.2021C74.3178 90.9237 73.9399 90.6072 73.6294 90.2615C73.3482 89.9831 73.067 89.7047 72.7858 89.4263C72.3786 89.0425 72.0681 88.6967 71.661 88.3128C71.1952 87.7942 70.6914 87.3722 70.1964 86.7862L66.6654 90.644C67.0052 91.0571 67.4123 91.441 67.7228 91.7868C67.8488 91.8923 67.9747 91.9978 68.0333 92.1325C68.4405 92.5164 68.7802 92.9296 69.1581 93.246C69.3133 93.4189 69.4979 93.6592 69.7205 93.8028C69.8465 93.9083 69.8758 93.9757 70.0017 94.0812C70.3122 94.4269 70.6608 94.676 70.9713 95.0218C71.1558 95.2621 71.3784 95.4056 71.563 95.6459C71.6596 95.684 71.7182 95.8188 71.8149 95.8569C72.0961 96.1353 72.3773 96.4137 72.6292 96.6246C72.8518 96.7682 73.0364 97.0085 73.2883 97.2195C73.385 97.2576 73.4435 97.3924 73.5402 97.4305C73.8214 97.7089 74.0733 97.9198 74.4219 98.1689C74.6446 98.3125 74.8291 98.5528 75.0517 98.6964C75.1484 98.7345 75.1777 98.8019 75.2743 98.84C75.6522 99.1565 76.1268 99.5111 76.5047 99.8275C76.6306 99.933 76.8532 100.077 76.9792 100.182C77.0085 100.249 77.0759 100.22 77.1052 100.288C77.483 100.604 77.8316 100.853 78.2095 101.17C78.4321 101.313 78.5874 101.486 78.7807 101.562C79.352 101.955 79.9232 102.348 80.3977 102.702C80.843 102.989 81.3176 103.344 81.8302 103.602C81.9562 103.707 82.1495 103.784 82.2462 103.822C82.5655 104.003 82.8848 104.185 83.2041 104.367C83.3301 104.472 83.5234 104.549 83.6201 104.587C83.9394 104.768 84.2294 104.883 84.5487 105.064C84.6454 105.103 84.7714 105.208 84.9354 105.217C84.9354 105.217 85.0321 105.255 85.0614 105.322C85.1873 105.428 85.3514 105.437 85.4481 105.475C85.7381 105.589 86.0281 105.703 86.3181 105.818C86.4148 105.856 86.4148 105.856 86.5115 105.894C86.7048 105.97 86.8689 105.979 87.0622 106.055C87.1589 106.093 87.3523 106.169 87.4489 106.208L87.5456 106.246C87.8356 106.36 88.1638 106.378 88.4245 106.424L88.5212 106.463C88.7145 106.539 88.946 106.518 89.1393 106.595C89.2067 106.565 89.3034 106.603 89.3034 106.603C89.4001 106.641 89.4674 106.612 89.5641 106.65C89.6608 106.688 89.7282 106.659 89.8249 106.697C89.9889 106.706 90.2204 106.686 90.3844 106.694C90.4518 106.665 90.4518 106.665 90.5485 106.703C90.7126 106.712 90.78 106.683 90.9147 106.624C90.9821 106.595 91.0788 106.633 91.1462 106.604C91.1462 106.604 91.1462 106.604 91.2136 106.574C91.445 106.554 91.5798 106.495 91.782 106.408L91.8494 106.378C91.9841 106.32 92.1189 106.261 92.1863 106.232L92.2537 106.203C92.3211 106.173 92.3211 106.173 92.3885 106.144C92.4559 106.115 92.5232 106.085 92.5613 105.989C92.6287 105.959 92.6668 105.863 92.7342 105.833L96.2564 102.14Z" fill="url(#paint13_linear_91_3932)"/>
<path d="M65.0371 87.2657L61.4387 91.1528L66.5511 90.934L70.1495 87.0469L65.0371 87.2657Z" fill="url(#paint14_linear_91_3932)"/>
<path d="M96.8075 100.458C96.8834 102.108 95.9516 102.913 93.9359 103.068C91.428 103.196 88.0737 101.93 83.9111 99.1726C79.7485 96.415 75.1261 92.4151 70.1787 87.1143L65.0956 87.4005L59.0002 80.1952L64.0159 79.9383C61.1425 76.4602 58.7231 73.1052 56.6905 69.9027C54.6578 66.7001 53.2843 64.0924 52.6665 62.1177L61.5224 65.7199C62.1783 67.598 63.2502 69.6959 64.7 72.1102C66.1497 74.5246 67.8895 77.0532 69.9574 79.5995L77.5484 79.1849C75.1965 75.8006 73.3776 72.9057 72.0538 70.5969C70.7007 68.2206 70.0155 66.2752 69.9397 64.6257C69.8638 62.9763 70.7956 62.1708 72.8405 62.0832C75.3484 61.9548 78.732 63.2884 82.962 66.0168C87.192 68.7451 91.8437 72.8124 96.8203 78.1806L101.903 77.8944L107.94 84.9649L102.925 85.2218C107.547 91.0645 110.678 95.8727 112.347 99.7139L103.734 96.4867C102.018 92.9063 99.7803 89.232 96.8864 85.5225L89.1313 85.9283C91.454 89.2451 93.3109 92.0434 94.5967 94.4489C95.9498 96.8252 96.6642 98.838 96.8075 100.458ZM84.2429 78.9195L90.744 78.5779C88.9308 76.8022 87.39 75.4689 86.0835 74.6747C84.777 73.8805 83.7136 73.4613 82.9226 73.4846C82.1315 73.5079 81.941 73.9913 82.187 74.9259C82.4329 75.8605 83.1826 77.2171 84.2429 78.9195ZM80.6255 90.5059C81.8646 91.3294 82.8988 91.6811 83.6898 91.6578C84.4808 91.6345 84.6714 91.1512 84.4547 90.2839C84.2088 89.3493 83.585 88.0982 82.5247 86.3958L76.2551 86.717C77.8749 88.4165 79.2897 89.6443 80.6255 90.5059Z" fill="url(#paint15_linear_91_3932)"/>
<path d="M59.0003 80.1952L55.4019 84.0823L61.4387 91.1528L65.0371 87.2658L59.0003 80.1952Z" fill="url(#paint16_linear_91_3932)"/>
<path d="M85.9781 74.8006C86.5493 75.1933 87.1206 75.586 87.847 76.1516C88.6995 76.8226 89.4464 77.6197 90.4452 78.6277L90.6093 78.6365L90.7734 78.6453C89.5607 77.3297 88.8723 76.6674 88.0199 75.9963C87.3901 75.4689 86.7222 75.0381 86.151 74.6454C84.8152 73.7838 83.6844 73.394 82.6912 73.5051L82.3454 73.8156C83.0867 73.4935 83.9744 73.5083 85.9781 74.8006Z" fill="url(#paint17_linear_91_3932)"/>
<path d="M84.3842 91.5965C84.5952 91.3446 84.6216 90.8524 84.484 90.3514C84.2381 89.4167 83.585 88.0982 82.5541 86.4633L82.5248 86.3959L76.1877 86.7463L76.4689 87.0247L82.3431 86.7152C83.374 88.3502 83.9978 89.6013 84.2145 90.4685C84.3521 90.9695 84.3344 91.2976 84.1616 91.4529C84.0561 91.5788 83.8539 91.6667 83.5551 91.7164L84.3842 91.5965Z" fill="url(#paint18_linear_91_3932)"/>
<path d="M107.653 85.4103L107.902 85.0617L102.983 85.3567L103.168 85.5969L107.653 85.4103Z" fill="url(#paint19_linear_91_3932)"/>
<path d="M56.6905 69.9028C54.6579 66.7002 53.3136 64.1599 52.6665 62.1178L52.4555 62.3697C53.17 64.3825 54.3883 66.8174 56.421 70.0199C58.4536 73.2225 60.747 76.4719 63.6497 80.0174L63.9485 79.9677C61.8132 77.4507 59.2767 73.8261 56.6905 69.9028Z" fill="url(#paint20_linear_91_3932)"/>
<path d="M112.405 99.8488L112.318 99.6466L103.898 96.4956C102.182 92.9152 99.9444 89.2409 97.0798 85.5987L97.0505 85.5314L89.1314 85.9284L89.3452 86.236L96.9069 85.754C99.7715 89.3961 102.009 93.0704 103.696 96.5835L103.725 96.6509L112.338 99.878L112.405 99.8488Z" fill="url(#paint21_linear_91_3932)"/>
<path d="M93.8392 103.03C91.3899 103.293 88.0445 101.863 83.8818 99.1053C82.5167 98.1763 81.0257 97.1418 79.5435 95.9433C76.579 93.5462 73.4477 90.5808 70.1495 87.047L70.1202 86.9796L65.0371 87.2658L59.088 80.3974L58.924 80.3886L58.8185 80.5146L64.8846 87.6525L69.9678 87.3663C73.266 90.9001 76.3973 93.8656 79.3325 96.1952C80.8147 97.3937 82.2384 98.4575 83.6708 99.3572C87.9009 102.086 91.2171 103.448 93.7923 103.291C94.7181 103.209 95.3539 103.013 95.8344 102.644L96.2945 102.043C96.3912 102.081 95.893 102.778 93.8392 103.03Z" fill="url(#paint22_linear_91_3932)"/>
<path d="M77.5777 79.2523C75.2258 75.8681 73.4069 72.9732 72.0831 70.6643C70.7593 68.3555 70.0448 66.3426 69.9308 64.7898C69.8987 64.1629 70.0014 63.4773 70.3179 63.0995L69.723 63.7585C69.6761 64.0193 69.6203 64.4441 69.632 64.8396C69.7079 66.489 70.4223 68.5019 71.7754 70.8781C73.0993 73.187 74.8595 75.9471 77.2115 79.3314L77.5777 79.2523Z" fill="url(#paint23_linear_91_3932)"/>
<path d="M132.206 126.976L132.311 126.85L132.206 126.976Z" fill="url(#paint24_linear_91_3932)"/>
<path d="M134.642 116.543C134.592 116.245 134.543 115.946 134.493 115.647C134.443 115.348 134.393 115.049 134.314 114.683C133.404 110.192 131.313 105.011 128.1 99.2774C127.828 98.835 127.623 98.3632 127.321 97.8534C126.932 97.1414 126.445 96.3913 125.988 95.7086C122.896 90.8037 119 85.5265 114.39 80.0793C111.759 76.9763 108.994 73.9318 106.124 71.0133C105.998 70.9078 105.968 70.8404 105.842 70.7349C100.877 65.7623 95.7014 61.0416 90.4023 56.7749C87.4086 54.3105 84.3387 52.0394 81.3273 49.9031C80.8527 49.5485 80.3108 49.2232 79.8363 48.8686C79.265 48.4759 78.6938 48.0832 78.0552 47.7198C77.484 47.3272 76.9127 46.9345 76.2741 46.5711C75.9548 46.3894 75.6355 46.2077 75.3836 45.9967C69.6244 42.3306 64.0907 39.3676 58.9084 37.2133C58.7151 37.1371 58.4251 37.0228 58.2317 36.9466C52.1413 34.546 46.7127 33.2999 42.1599 33.5159C41.9958 33.5071 41.861 33.5657 41.697 33.5568C41.5329 33.548 41.3015 33.5685 41.1667 33.627C38.5533 33.8815 36.435 34.7219 34.8498 36.0517L34.7824 36.081C34.6476 36.1396 34.6095 36.2362 34.5421 36.2655C34.4366 36.3915 34.2637 36.5467 34.1582 36.6727L33.9854 36.8279L33.918 36.8572C33.8799 36.9539 33.7451 37.0125 33.707 37.1091C33.2469 37.7096 32.8161 38.3775 32.5494 39.0543C31.3565 41.6556 31.5083 44.9545 32.281 48.945C31.4702 45.0512 31.9454 41.7202 33.062 39.3122C33.3288 38.6355 33.7215 38.0642 34.1815 37.4637C34.2196 37.367 34.3544 37.3085 34.3925 37.2118L34.498 37.0858C34.6035 36.9599 34.709 36.8339 34.8819 36.6787C34.92 36.582 34.9874 36.5527 35.1222 36.4941L35.2569 36.4356C36.7074 35.1643 38.6909 34.3825 41.2369 34.1573C41.3717 34.0988 41.5357 34.1076 41.7672 34.0871C41.9313 34.0959 42.066 34.0374 42.2301 34.0462C46.6189 33.8214 52.0181 35.0001 58.0412 37.43C58.2345 37.5062 58.5246 37.6205 58.7179 37.6967C63.8709 39.7836 69.4046 42.7465 75.0671 46.3746C75.3864 46.5563 75.7057 46.738 75.9577 46.9489C76.5289 47.3416 77.1001 47.7343 77.6713 48.127C78.2426 48.5197 78.8138 48.9124 79.385 49.3051C79.8596 49.6596 80.4015 49.9849 80.876 50.3395C83.8874 52.4758 86.9573 54.7469 89.9218 57.144C95.2209 61.4106 100.368 66.0639 105.265 71.0659C105.391 71.1714 105.42 71.2388 105.546 71.3442C108.417 74.2628 111.182 77.3072 113.812 80.4103C118.423 85.8575 122.289 91.0672 125.353 95.9048C125.81 96.5875 126.228 97.3669 126.685 98.0496C126.958 98.492 127.259 99.0018 127.464 99.4736C130.745 105.178 132.739 110.32 133.687 114.715C133.737 115.014 133.787 115.313 133.837 115.612C133.886 115.91 133.936 116.209 133.986 116.508C134.489 120.616 133.888 123.841 132.056 126.079C131.951 126.205 131.845 126.331 131.74 126.457C131.212 127.087 130.647 127.813 129.897 128.3C130.676 127.881 131.552 127.5 132.147 126.841C132.252 126.715 132.358 126.589 132.531 126.434C134.497 124.137 135.174 120.718 134.642 116.543Z" fill="url(#paint25_linear_91_3932)"/>
<defs>
<linearGradient id="paint0_linear_91_3932" x1="35.8529" y1="34.4997" x2="139.147" y2="117.958" gradientUnits="userSpaceOnUse">
<stop stop-color="#D2AB5A"/>
<stop offset="0.0610851" stop-color="#BA9443"/>
<stop offset="0.1898" stop-color="#7C5808"/>
<stop offset="0.2069" stop-color="#735000"/>
<stop offset="0.2274" stop-color="#775200"/>
<stop offset="0.3376" stop-color="#8A5D00"/>
<stop offset="0.4146" stop-color="#916100"/>
<stop offset="0.4344" stop-color="#976707"/>
<stop offset="0.4986" stop-color="#D8B364"/>
<stop offset="0.5246" stop-color="#D4AE5D"/>
<stop offset="0.5617" stop-color="#CA9F4A"/>
<stop offset="0.6053" stop-color="#B9882C"/>
<stop offset="0.6414" stop-color="#A8700D"/>
<stop offset="0.6805" stop-color="#815400"/>
<stop offset="0.8029" stop-color="#B38116"/>
<stop offset="0.8267" stop-color="#A27114"/>
<stop offset="0.8802" stop-color="#815110"/>
<stop offset="0.9247" stop-color="#6C3D0E"/>
<stop offset="0.9545" stop-color="#65360D"/>
<stop offset="0.9581" stop-color="#6F3F0D"/>
<stop offset="0.9701" stop-color="#8A580C"/>
<stop offset="0.9807" stop-color="#9B670C"/>
<stop offset="0.9886" stop-color="#A16C0C"/>
</linearGradient>
<linearGradient id="paint1_linear_91_3932" x1="7.73866" y1="48.2332" x2="130.04" y2="147.049" gradientUnits="userSpaceOnUse">
<stop stop-color="#D2AB5A"/>
<stop offset="0.0610851" stop-color="#BA9443"/>
<stop offset="0.1898" stop-color="#7C5808"/>
<stop offset="0.2069" stop-color="#735000"/>
<stop offset="0.2274" stop-color="#775200"/>
<stop offset="0.3376" stop-color="#8A5D00"/>
<stop offset="0.4146" stop-color="#916100"/>
<stop offset="0.4344" stop-color="#976707"/>
<stop offset="0.4986" stop-color="#D8B364"/>
<stop offset="0.5246" stop-color="#D4AE5D"/>
<stop offset="0.5617" stop-color="#CA9F4A"/>
<stop offset="0.6053" stop-color="#B9882C"/>
<stop offset="0.6414" stop-color="#A8700D"/>
<stop offset="0.6805" stop-color="#815400"/>
<stop offset="0.8029" stop-color="#B38116"/>
<stop offset="0.8267" stop-color="#A27114"/>
<stop offset="0.8802" stop-color="#815110"/>
<stop offset="0.9247" stop-color="#6C3D0E"/>
<stop offset="0.9545" stop-color="#65360D"/>
<stop offset="0.9581" stop-color="#6F3F0D"/>
<stop offset="0.9701" stop-color="#8A580C"/>
<stop offset="0.9807" stop-color="#9B670C"/>
<stop offset="0.9886" stop-color="#A16C0C"/>
</linearGradient>
<linearGradient id="paint2_linear_91_3932" x1="102.58" y1="40.8636" x2="60.7327" y2="129.148" gradientUnits="userSpaceOnUse">
<stop stop-color="#D7AC4C"/>
<stop offset="0.1816" stop-color="#FFFFB0"/>
<stop offset="0.3268" stop-color="#F4D174"/>
<stop offset="0.3659" stop-color="#FBED99"/>
<stop offset="0.3939" stop-color="#FAEC97"/>
<stop offset="0.433" stop-color="#DEB04D"/>
<stop offset="0.5275" stop-color="#DFB24F"/>
<stop offset="0.5615" stop-color="#E2B756"/>
<stop offset="0.5858" stop-color="#E7C161"/>
<stop offset="0.6053" stop-color="#EECF72"/>
<stop offset="0.6207" stop-color="#F6DF86"/>
<stop offset="0.7529" stop-color="#F2D87E"/>
<stop offset="0.7672" stop-color="#F1D77D"/>
<stop offset="0.7716" stop-color="#EBCD71"/>
<stop offset="0.7804" stop-color="#E2BE60"/>
<stop offset="0.7913" stop-color="#DCB455"/>
<stop offset="0.8066" stop-color="#D8AE4E"/>
<stop offset="0.8492" stop-color="#D7AC4C"/>
<stop offset="1" stop-color="#966424"/>
</linearGradient>
<linearGradient id="paint3_linear_91_3932" x1="96.2017" y1="52.6372" x2="54.3543" y2="140.922" gradientUnits="userSpaceOnUse">
<stop offset="0.1136" stop-color="#D7AC4C"/>
<stop offset="0.1816" stop-color="#FFFFB0"/>
<stop offset="0.3268" stop-color="#F4D174"/>
<stop offset="0.3659" stop-color="#FBED99"/>
<stop offset="0.3939" stop-color="#FAEC97"/>
<stop offset="0.433" stop-color="#DEB04D"/>
<stop offset="0.5275" stop-color="#DFB24F"/>
<stop offset="0.5615" stop-color="#E2B756"/>
<stop offset="0.5858" stop-color="#E7C161"/>
<stop offset="0.6053" stop-color="#EECF72"/>
<stop offset="0.6207" stop-color="#F6DF86"/>
<stop offset="0.7529" stop-color="#F2D87E"/>
<stop offset="0.7672" stop-color="#F1D77D"/>
<stop offset="0.7716" stop-color="#EBCD71"/>
<stop offset="0.7804" stop-color="#E2BE60"/>
<stop offset="0.7913" stop-color="#DCB455"/>
<stop offset="0.8066" stop-color="#D8AE4E"/>
<stop offset="0.8492" stop-color="#D7AC4C"/>
<stop offset="1" stop-color="#966424"/>
</linearGradient>
<linearGradient id="paint4_linear_91_3932" x1="111.285" y1="92.038" x2="102.265" y2="86.2427" gradientUnits="userSpaceOnUse">
<stop stop-color="#A16C0C"/>
<stop offset="0.2318" stop-color="#BE9134"/>
<stop offset="0.5559" stop-color="#A8700D"/>
<stop offset="1" stop-color="#432400"/>
</linearGradient>
<linearGradient id="paint5_linear_91_3932" x1="74.8003" y1="69.6618" x2="87.0772" y2="79.9883" gradientUnits="userSpaceOnUse">
<stop stop-color="#A16C0C"/>
<stop offset="0.2318" stop-color="#BE9134"/>
<stop offset="0.5559" stop-color="#A8700D"/>
<stop offset="1" stop-color="#432400"/>
</linearGradient>
<linearGradient id="paint6_linear_91_3932" x1="111.635" y1="104.849" x2="94.4563" y2="89.3405" gradientUnits="userSpaceOnUse">
<stop stop-color="#A16C0C"/>
<stop offset="0.2318" stop-color="#BE9134"/>
<stop offset="0.5559" stop-color="#A8700D"/>
<stop offset="1" stop-color="#432400"/>
</linearGradient>
<linearGradient id="paint7_linear_91_3932" x1="117.478" y1="106.83" x2="96.806" y2="94.4687" gradientUnits="userSpaceOnUse">
<stop stop-color="#A16C0C"/>
<stop offset="0.2318" stop-color="#BE9134"/>
<stop offset="0.5559" stop-color="#A8700D"/>
<stop offset="1" stop-color="#432400"/>
</linearGradient>
<linearGradient id="paint8_linear_91_3932" x1="85.4407" y1="83.078" x2="93.7345" y2="89.7791" gradientUnits="userSpaceOnUse">
<stop stop-color="#A16C0C"/>
<stop offset="0.2318" stop-color="#BE9134"/>
<stop offset="0.5559" stop-color="#A8700D"/>
<stop offset="1" stop-color="#432400"/>
</linearGradient>
<linearGradient id="paint9_linear_91_3932" x1="64.1083" y1="60.9544" x2="76.3299" y2="79.2397" gradientUnits="userSpaceOnUse">
<stop stop-color="#A16C0C"/>
<stop offset="0.2318" stop-color="#BE9134"/>
<stop offset="0.5559" stop-color="#A8700D"/>
<stop offset="1" stop-color="#432400"/>
</linearGradient>
<linearGradient id="paint10_linear_91_3932" x1="90.3784" y1="98.818" x2="80.5045" y2="89.2124" gradientUnits="userSpaceOnUse">
<stop stop-color="#A16C0C"/>
<stop offset="0.2318" stop-color="#BE9134"/>
<stop offset="0.5559" stop-color="#A8700D"/>
<stop offset="1" stop-color="#432400"/>
</linearGradient>
<linearGradient id="paint11_linear_91_3932" x1="67.2585" y1="83.071" x2="80.3761" y2="90.0066" gradientUnits="userSpaceOnUse">
<stop stop-color="#A16C0C"/>
<stop offset="0.2318" stop-color="#BE9134"/>
<stop offset="0.5559" stop-color="#A8700D"/>
<stop offset="1" stop-color="#432400"/>
</linearGradient>
<linearGradient id="paint12_linear_91_3932" x1="48.5736" y1="66.5998" x2="64.42" y2="79.4032" gradientUnits="userSpaceOnUse">
<stop stop-color="#A16C0C"/>
<stop offset="0.2318" stop-color="#BE9134"/>
<stop offset="0.5559" stop-color="#A8700D"/>
<stop offset="1" stop-color="#432400"/>
</linearGradient>
<linearGradient id="paint13_linear_91_3932" x1="97.4889" y1="110.113" x2="70.7473" y2="88.6424" gradientUnits="userSpaceOnUse">
<stop stop-color="#A16C0C"/>
<stop offset="0.2318" stop-color="#BE9134"/>
<stop offset="0.5559" stop-color="#A8700D"/>
<stop offset="1" stop-color="#432400"/>
</linearGradient>
<linearGradient id="paint14_linear_91_3932" x1="63.0607" y1="86.8303" x2="68.1655" y2="91.0905" gradientUnits="userSpaceOnUse">
<stop stop-color="#A16C0C"/>
<stop offset="0.2318" stop-color="#BE9134"/>
<stop offset="0.5559" stop-color="#A8700D"/>
<stop offset="1" stop-color="#432400"/>
</linearGradient>
<linearGradient id="paint15_linear_91_3932" x1="101.613" y1="40.6759" x2="59.7659" y2="128.96" gradientUnits="userSpaceOnUse">
<stop stop-color="#D7AC4C"/>
<stop offset="0.1816" stop-color="#FFFFB0"/>
<stop offset="0.3268" stop-color="#F4D174"/>
<stop offset="0.3659" stop-color="#FBED99"/>
<stop offset="0.3939" stop-color="#FAEC97"/>
<stop offset="0.433" stop-color="#DEB04D"/>
<stop offset="0.5275" stop-color="#DFB24F"/>
<stop offset="0.5615" stop-color="#E2B756"/>
<stop offset="0.5858" stop-color="#E7C161"/>
<stop offset="0.6053" stop-color="#EECF72"/>
<stop offset="0.6207" stop-color="#F6DF86"/>
<stop offset="0.7529" stop-color="#F2D87E"/>
<stop offset="0.7672" stop-color="#F1D77D"/>
<stop offset="0.7716" stop-color="#EBCD71"/>
<stop offset="0.7804" stop-color="#E2BE60"/>
<stop offset="0.7913" stop-color="#DCB455"/>
<stop offset="0.8066" stop-color="#D8AE4E"/>
<stop offset="0.8492" stop-color="#D7AC4C"/>
<stop offset="1" stop-color="#966424"/>
</linearGradient>
<linearGradient id="paint16_linear_91_3932" x1="51.927" y1="78.3678" x2="62.5276" y2="87.7466" gradientUnits="userSpaceOnUse">
<stop stop-color="#A16C0C"/>
<stop offset="0.2318" stop-color="#BE9134"/>
<stop offset="0.5559" stop-color="#A8700D"/>
<stop offset="1" stop-color="#432400"/>
</linearGradient>
<linearGradient id="paint17_linear_91_3932" x1="71.1036" y1="63.6221" x2="92.8225" y2="80.899" gradientUnits="userSpaceOnUse">
<stop stop-color="#966424"/>
<stop offset="0.1508" stop-color="#D7AC4C"/>
<stop offset="0.1934" stop-color="#D8AE4E"/>
<stop offset="0.2087" stop-color="#DCB455"/>
<stop offset="0.2196" stop-color="#E2BE60"/>
<stop offset="0.2284" stop-color="#EBCD71"/>
<stop offset="0.2328" stop-color="#F1D77D"/>
<stop offset="0.2471" stop-color="#F2D87E"/>
<stop offset="0.3793" stop-color="#F6DF86"/>
<stop offset="0.3947" stop-color="#EECF72"/>
<stop offset="0.4142" stop-color="#E7C161"/>
<stop offset="0.4385" stop-color="#E2B756"/>
<stop offset="0.4725" stop-color="#DFB24F"/>
<stop offset="0.567" stop-color="#DEB04D"/>
<stop offset="0.6061" stop-color="#FAEC97"/>
<stop offset="0.6341" stop-color="#FBED99"/>
<stop offset="0.6732" stop-color="#F4D174"/>
<stop offset="0.8184" stop-color="#FFFFB0"/>
<stop offset="1" stop-color="#D7AC4C"/>
</linearGradient>
<linearGradient id="paint18_linear_91_3932" x1="77.4656" y1="85.1096" x2="84.8216" y2="91.053" gradientUnits="userSpaceOnUse">
<stop stop-color="#966424"/>
<stop offset="0.1508" stop-color="#D7AC4C"/>
<stop offset="0.1934" stop-color="#D8AE4E"/>
<stop offset="0.2087" stop-color="#DCB455"/>
<stop offset="0.2196" stop-color="#E2BE60"/>
<stop offset="0.2284" stop-color="#EBCD71"/>
<stop offset="0.2328" stop-color="#F1D77D"/>
<stop offset="0.2471" stop-color="#F2D87E"/>
<stop offset="0.3793" stop-color="#F6DF86"/>
<stop offset="0.3947" stop-color="#EECF72"/>
<stop offset="0.4142" stop-color="#E7C161"/>
<stop offset="0.4385" stop-color="#E2B756"/>
<stop offset="0.4725" stop-color="#DFB24F"/>
<stop offset="0.567" stop-color="#DEB04D"/>
<stop offset="0.6061" stop-color="#FAEC97"/>
<stop offset="0.6341" stop-color="#FBED99"/>
<stop offset="0.6732" stop-color="#F4D174"/>
<stop offset="0.8184" stop-color="#FFFFB0"/>
<stop offset="1" stop-color="#D7AC4C"/>
</linearGradient>
<linearGradient id="paint19_linear_91_3932" x1="103.979" y1="84.0672" x2="106.863" y2="86.3976" gradientUnits="userSpaceOnUse">
<stop stop-color="#966424"/>
<stop offset="0.1508" stop-color="#D7AC4C"/>
<stop offset="0.1934" stop-color="#D8AE4E"/>
<stop offset="0.2087" stop-color="#DCB455"/>
<stop offset="0.2196" stop-color="#E2BE60"/>
<stop offset="0.2284" stop-color="#EBCD71"/>
<stop offset="0.2328" stop-color="#F1D77D"/>
<stop offset="0.2471" stop-color="#F2D87E"/>
<stop offset="0.3793" stop-color="#F6DF86"/>
<stop offset="0.3947" stop-color="#EECF72"/>
<stop offset="0.4142" stop-color="#E7C161"/>
<stop offset="0.4385" stop-color="#E2B756"/>
<stop offset="0.4725" stop-color="#DFB24F"/>
<stop offset="0.567" stop-color="#DEB04D"/>
<stop offset="0.6061" stop-color="#FAEC97"/>
<stop offset="0.6341" stop-color="#FBED99"/>
<stop offset="0.6732" stop-color="#F4D174"/>
<stop offset="0.8184" stop-color="#FFFFB0"/>
<stop offset="1" stop-color="#D7AC4C"/>
</linearGradient>
<linearGradient id="paint20_linear_91_3932" x1="69.3121" y1="84.8207" x2="49.5958" y2="60.568" gradientUnits="userSpaceOnUse">
<stop stop-color="#966424"/>
<stop offset="0.1508" stop-color="#D7AC4C"/>
<stop offset="0.1934" stop-color="#D8AE4E"/>
<stop offset="0.2087" stop-color="#DCB455"/>
<stop offset="0.2196" stop-color="#E2BE60"/>
<stop offset="0.2284" stop-color="#EBCD71"/>
<stop offset="0.2328" stop-color="#F1D77D"/>
<stop offset="0.2471" stop-color="#F2D87E"/>
<stop offset="0.3793" stop-color="#F6DF86"/>
<stop offset="0.3947" stop-color="#EECF72"/>
<stop offset="0.4142" stop-color="#E7C161"/>
<stop offset="0.4385" stop-color="#E2B756"/>
<stop offset="0.4725" stop-color="#DFB24F"/>
<stop offset="0.567" stop-color="#DEB04D"/>
<stop offset="0.6061" stop-color="#FAEC97"/>
<stop offset="0.6341" stop-color="#FBED99"/>
<stop offset="0.6732" stop-color="#F4D174"/>
<stop offset="0.8184" stop-color="#FFFFB0"/>
<stop offset="1" stop-color="#D7AC4C"/>
</linearGradient>
<linearGradient id="paint21_linear_91_3932" x1="90.6934" y1="83.8869" x2="111.629" y2="100.802" gradientUnits="userSpaceOnUse">
<stop stop-color="#966424"/>
<stop offset="0.1508" stop-color="#D7AC4C"/>
<stop offset="0.1934" stop-color="#D8AE4E"/>
<stop offset="0.2087" stop-color="#DCB455"/>
<stop offset="0.2196" stop-color="#E2BE60"/>
<stop offset="0.2284" stop-color="#EBCD71"/>
<stop offset="0.2328" stop-color="#F1D77D"/>
<stop offset="0.2471" stop-color="#F2D87E"/>
<stop offset="0.3793" stop-color="#F6DF86"/>
<stop offset="0.3947" stop-color="#EECF72"/>
<stop offset="0.4142" stop-color="#E7C161"/>
<stop offset="0.4385" stop-color="#E2B756"/>
<stop offset="0.4725" stop-color="#DFB24F"/>
<stop offset="0.567" stop-color="#DEB04D"/>
<stop offset="0.6061" stop-color="#FAEC97"/>
<stop offset="0.6341" stop-color="#FBED99"/>
<stop offset="0.6732" stop-color="#F4D174"/>
<stop offset="0.8184" stop-color="#FFFFB0"/>
<stop offset="1" stop-color="#D7AC4C"/>
</linearGradient>
<linearGradient id="paint22_linear_91_3932" x1="99.0315" y1="111.351" x2="66.4282" y2="82.0236" gradientUnits="userSpaceOnUse">
<stop stop-color="#966424"/>
<stop offset="0.1508" stop-color="#D7AC4C"/>
<stop offset="0.1934" stop-color="#D8AE4E"/>
<stop offset="0.2087" stop-color="#DCB455"/>
<stop offset="0.2196" stop-color="#E2BE60"/>
<stop offset="0.2284" stop-color="#EBCD71"/>
<stop offset="0.2328" stop-color="#F1D77D"/>
<stop offset="0.2471" stop-color="#F2D87E"/>
<stop offset="0.3793" stop-color="#F6DF86"/>
<stop offset="0.3947" stop-color="#EECF72"/>
<stop offset="0.4142" stop-color="#E7C161"/>
<stop offset="0.4385" stop-color="#E2B756"/>
<stop offset="0.4725" stop-color="#DFB24F"/>
<stop offset="0.567" stop-color="#DEB04D"/>
<stop offset="0.6061" stop-color="#FAEC97"/>
<stop offset="0.6341" stop-color="#FBED99"/>
<stop offset="0.6732" stop-color="#F4D174"/>
<stop offset="0.8184" stop-color="#FFFFB0"/>
<stop offset="1" stop-color="#D7AC4C"/>
</linearGradient>
<linearGradient id="paint23_linear_91_3932" x1="81.5461" y1="81.2894" x2="64.0234" y2="58.4156" gradientUnits="userSpaceOnUse">
<stop stop-color="#966424"/>
<stop offset="0.1508" stop-color="#D7AC4C"/>
<stop offset="0.1934" stop-color="#D8AE4E"/>
<stop offset="0.2087" stop-color="#DCB455"/>
<stop offset="0.2196" stop-color="#E2BE60"/>
<stop offset="0.2284" stop-color="#EBCD71"/>
<stop offset="0.2328" stop-color="#F1D77D"/>
<stop offset="0.2471" stop-color="#F2D87E"/>
<stop offset="0.3793" stop-color="#F6DF86"/>
<stop offset="0.3947" stop-color="#EECF72"/>
<stop offset="0.4142" stop-color="#E7C161"/>
<stop offset="0.4385" stop-color="#E2B756"/>
<stop offset="0.4725" stop-color="#DFB24F"/>
<stop offset="0.567" stop-color="#DEB04D"/>
<stop offset="0.6061" stop-color="#FAEC97"/>
<stop offset="0.6341" stop-color="#FBED99"/>
<stop offset="0.6732" stop-color="#F4D174"/>
<stop offset="0.8184" stop-color="#FFFFB0"/>
<stop offset="1" stop-color="#D7AC4C"/>
</linearGradient>
<linearGradient id="paint24_linear_91_3932" x1="23.8805" y1="43.4516" x2="100.107" y2="102.147" gradientUnits="userSpaceOnUse">
<stop stop-color="#D7AC4C"/>
<stop offset="0.1816" stop-color="#FFFFB0"/>
<stop offset="0.3268" stop-color="#F4D174"/>
<stop offset="0.3659" stop-color="#FBED99"/>
<stop offset="0.3939" stop-color="#FAEC97"/>
<stop offset="0.433" stop-color="#DEB04D"/>
<stop offset="0.5275" stop-color="#DFB24F"/>
<stop offset="0.5615" stop-color="#E2B756"/>
<stop offset="0.5858" stop-color="#E7C161"/>
<stop offset="0.6053" stop-color="#EECF72"/>
<stop offset="0.6207" stop-color="#F6DF86"/>
<stop offset="0.7529" stop-color="#F2D87E"/>
<stop offset="0.7672" stop-color="#F1D77D"/>
<stop offset="0.7716" stop-color="#EBCD71"/>
<stop offset="0.7804" stop-color="#E2BE60"/>
<stop offset="0.7913" stop-color="#DCB455"/>
<stop offset="0.8066" stop-color="#D8AE4E"/>
<stop offset="0.8492" stop-color="#D7AC4C"/>
<stop offset="1" stop-color="#966424"/>
</linearGradient>
<linearGradient id="paint25_linear_91_3932" x1="32.0453" y1="32.4086" x2="165.625" y2="135.272" gradientUnits="userSpaceOnUse">
<stop stop-color="#D7AC4C"/>
<stop offset="0.1816" stop-color="#FFFFB0"/>
<stop offset="0.3268" stop-color="#F4D174"/>
<stop offset="0.3659" stop-color="#FBED99"/>
<stop offset="0.3939" stop-color="#FAEC97"/>
<stop offset="0.433" stop-color="#DEB04D"/>
<stop offset="0.5275" stop-color="#DFB24F"/>
<stop offset="0.5615" stop-color="#E2B756"/>
<stop offset="0.5858" stop-color="#E7C161"/>
<stop offset="0.6053" stop-color="#EECF72"/>
<stop offset="0.6207" stop-color="#F6DF86"/>
<stop offset="0.7529" stop-color="#F2D87E"/>
<stop offset="0.7672" stop-color="#F1D77D"/>
<stop offset="0.7716" stop-color="#EBCD71"/>
<stop offset="0.7804" stop-color="#E2BE60"/>
<stop offset="0.7913" stop-color="#DCB455"/>
<stop offset="0.8066" stop-color="#D8AE4E"/>
<stop offset="0.8492" stop-color="#D7AC4C"/>
<stop offset="1" stop-color="#966424"/>
</linearGradient>
</defs>
</svg>
