<svg width="173" height="193" viewBox="0 0 173 193" fill="none" xmlns="http://www.w3.org/2000/svg">
<g filter="url(#filter0_f_5_6340)">
<path d="M25.5737 58.791C24.9544 59.6016 24.5102 60.4017 24.2517 61.3664C22.2931 67.39 26.2067 76.3656 29.6172 81.6451C39.1061 96.8249 52.6696 109.018 66.8494 119.768C81.8868 130.748 98.291 140.486 116.367 145.271C122.963 146.809 132.382 148.529 138.202 144.172C138.91 143.672 139.608 142.998 140.199 142.294C139.841 142.773 138.09 145.233 137.016 146.669C136.948 146.708 136.919 146.815 136.851 146.854C136.755 147.001 136.59 147.186 136.494 147.333C136.465 147.44 136.329 147.518 136.261 147.558L136.193 147.597C134.497 149.21 132.38 150.251 129.92 150.856C129.745 150.867 129.541 150.984 129.366 150.995C129.191 151.005 129.055 151.084 128.88 151.094C123.803 152.032 117.561 151.106 111.519 149.429C111.304 149.372 110.983 149.286 110.768 149.228C103.791 147.186 97.0034 144.219 92.3025 142.04C91.9417 141.886 91.5809 141.732 91.2881 141.539C90.6344 141.191 89.9808 140.844 89.2592 140.535C88.6056 140.188 87.9519 139.841 87.2303 139.532C86.6159 139.253 86.0694 138.934 85.523 138.615C76.5079 133.672 66.5512 127.098 57.0281 119.549C56.8816 119.452 56.8424 119.384 56.696 119.288C47.7194 112.057 39.2548 103.988 32.6671 95.5591C32.0604 94.8221 31.5609 94.1139 30.9934 93.4448C30.6508 93.0084 30.269 92.504 29.9944 92.0283C26.312 86.9058 23.3982 81.702 21.5065 76.5423C21.4176 76.2312 21.3286 75.9202 21.2396 75.6091C21.1506 75.2981 21.0616 74.987 20.9727 74.676C19.8523 70.0676 20.2249 66.3188 22.169 63.5655L25.5737 58.791Z" fill="url(#paint0_linear_5_6340)"/>
<path d="M11.9797 57.2165C28.3356 38.6222 82.8719 72.191 98.5552 83.9758C113.839 95.5384 158.061 134.156 146.006 154.707L160.388 136.618C165.006 130.962 161.246 119.27 157.293 112.582C143.162 88.5754 120.763 70.3386 97.6494 55.414C80.8634 45.172 52.3251 29.4833 32.4359 34.8957C30.473 35.576 28.5702 36.6745 27.078 38.1703C26.3123 38.8842 12.7061 56.4346 11.9797 57.2165Z" fill="url(#paint1_linear_5_6340)"/>
<path d="M11.7516 71.5734C15.2162 82.4392 25.4211 96.662 41.3224 111.492C57.2237 126.322 75.9188 139.086 93.2715 147.642C110.664 156.266 126.645 160.72 137.187 158.892C147.769 157.132 150.859 149.459 147.326 138.632C143.822 127.698 133.657 113.543 117.756 98.7133C101.854 83.8832 83.1198 71.0512 65.7671 62.4955C48.4144 53.9398 32.4328 49.4852 21.8513 51.2452C11.3771 53.0341 8.24777 60.6396 11.7516 71.5734ZM24.291 61.4344C25.8042 60.2889 27.7959 59.5014 30.3341 59.0327C39.3497 57.5423 53.0411 61.3258 67.8578 68.6276C82.7136 75.9973 98.6555 86.8173 112.29 99.6039C125.885 112.322 134.523 124.46 137.543 133.77C138.875 137.804 139.124 141.374 138.202 144.172C137.904 145.068 137.567 145.897 137.016 146.669C136.948 146.708 136.919 146.815 136.851 146.854C136.755 147.001 136.59 147.186 136.493 147.333C136.465 147.44 136.329 147.518 136.261 147.558L136.193 147.597C134.74 149.161 132.662 150.27 129.92 150.856C129.677 150.906 129.541 150.984 129.366 150.995C129.191 151.005 129.055 151.084 128.88 151.094C124.182 151.904 118.272 151.239 111.519 149.429C111.304 149.372 110.983 149.286 110.768 149.228C105.048 147.638 98.8179 145.165 92.3025 142.04C91.9417 141.886 91.5809 141.732 91.2881 141.539C90.6344 141.191 89.9808 140.844 89.2592 140.535C88.6055 140.188 87.9519 139.841 87.2303 139.532C86.6159 139.253 86.0694 138.934 85.523 138.615C76.0006 133.421 66.2583 126.905 57.028 119.549C56.8816 119.452 56.8424 119.384 56.696 119.288C53.2967 116.539 49.9941 113.643 46.8275 110.67C41.276 105.448 36.5428 100.389 32.6671 95.5592C32.0996 94.8901 31.5609 94.1139 30.9934 93.4449C30.6508 93.0084 30.269 92.504 29.9943 92.0283C25.823 86.3727 23.0451 81.0904 21.5065 76.5423C21.4175 76.2313 21.3286 75.9202 21.2396 75.6092C21.1506 75.2981 21.0616 74.9871 20.9726 74.676C19.8523 70.0676 20.2249 66.3188 22.169 63.5655C22.817 62.6478 23.5147 61.9731 24.291 61.4344Z" fill="url(#paint2_linear_5_6340)"/>
<path d="M24.1838 61.4058C25.697 60.2603 27.6887 59.4728 30.2269 59.0041C39.2425 57.5138 52.934 61.2973 67.7506 68.599C82.6065 75.9687 98.5483 86.7887 112.182 99.5753C125.777 112.294 134.416 124.431 137.435 133.742C138.767 137.775 139.017 141.346 138.095 144.143C132.275 148.5 122.855 146.781 116.259 145.243C98.1838 140.457 81.7796 130.719 66.7815 119.808C52.5336 109.097 39.0382 96.8644 29.5492 81.6845C26.1387 76.4051 22.3323 67.4581 24.1838 61.4058Z" fill="url(#paint3_linear_5_6340)"/>
<path d="M58.087 103.807L61.4342 99.2465L56.1827 100.194L52.9034 104.715L58.087 103.807Z" fill="url(#paint4_linear_5_6340)"/>
<path d="M78.2587 107.201C78.2195 107.133 78.1123 107.104 78.073 107.036C77.673 106.814 77.3017 106.485 76.8624 106.195C76.7552 106.166 76.6768 106.031 76.5696 106.002C76.1303 105.712 75.6518 105.354 75.1733 104.996L71.894 109.517C72.2261 109.778 72.5582 110.039 72.8903 110.301C73.0367 110.397 73.1831 110.494 73.2616 110.63C73.3688 110.659 73.4472 110.794 73.5544 110.823C73.6616 110.852 73.7401 110.988 73.8473 111.017C74.1401 111.21 74.433 111.403 74.7258 111.597C74.7258 111.597 74.765 111.665 74.833 111.625C74.8722 111.693 74.9794 111.722 75.0186 111.79C75.2043 111.955 75.4579 112.08 75.6043 112.177C75.7508 112.273 75.8579 112.302 76.0044 112.399C76.1116 112.427 76.258 112.524 76.2972 112.592C76.6972 112.814 76.9901 113.008 77.3509 113.162C77.7117 113.316 77.9653 113.441 78.2869 113.527C78.3941 113.556 78.4333 113.624 78.5405 113.653C78.6477 113.681 78.7549 113.71 78.7941 113.778C79.0085 113.836 79.1157 113.864 79.33 113.922C79.4372 113.95 79.6124 113.94 79.7196 113.969C79.8267 113.997 79.9339 114.026 80.0411 114.055C80.0411 114.055 80.0411 114.055 80.1091 114.016C80.177 113.976 80.2163 114.044 80.2842 114.005C80.3914 114.034 80.4594 113.995 80.5666 114.023C80.6345 113.984 80.7417 114.013 80.7417 114.013C80.8096 113.974 80.9168 114.002 80.9168 114.002C80.9848 113.963 80.9848 113.963 81.0527 113.924L81.1207 113.885C81.1887 113.845 81.1887 113.845 81.2566 113.806L81.3246 113.767L84.7685 109.06C84.7398 109.167 84.6039 109.246 84.5359 109.285C84.4 109.364 84.332 109.403 84.1569 109.413C83.9817 109.424 83.7386 109.474 83.5243 109.416C83.2419 109.398 83.0276 109.341 82.7452 109.322C82.5309 109.265 82.2093 109.179 81.9557 109.053C81.8485 109.025 81.8093 108.957 81.7021 108.928C81.3805 108.842 81.0877 108.648 80.7661 108.562C80.4053 108.408 80.1124 108.215 79.7124 107.993C79.6052 107.964 79.4588 107.867 79.4196 107.799C78.9516 107.617 78.6587 107.423 78.2587 107.201Z" fill="url(#paint5_linear_5_6340)"/>
<path d="M63.5498 93.4947C63.2857 93.1942 62.9823 92.8257 62.7182 92.5251C62.4148 92.1566 62.1115 91.7881 61.8368 91.3125C61.3766 90.6721 60.9163 90.0318 60.4952 89.4595C60.0349 88.8192 59.5746 88.1788 59.1823 87.4993L55.903 92.0202C56.1776 92.4959 56.5595 93.0003 56.8341 93.4759C56.9518 93.6798 57.1374 93.8444 57.2159 93.9804C57.6762 94.6207 58.1365 95.261 58.5576 95.8333C58.7145 96.1052 58.9394 96.3378 59.0963 96.6096C59.1748 96.7455 59.3604 96.9101 59.4389 97.046C59.703 97.3466 60.0064 97.7151 60.2705 98.0156C60.5346 98.3161 60.7308 98.6559 60.9949 98.9564C61.2198 99.189 61.4447 99.4216 61.6016 99.6934C61.8265 99.926 62.0514 100.159 62.2084 100.43C62.394 100.595 62.5117 100.799 62.6974 100.964C63.2256 101.565 63.8218 102.126 64.3893 102.796L67.6686 98.2746C66.9155 97.441 66.2015 96.6753 65.4876 95.9095C65.2628 95.677 65.0379 95.4444 64.8809 95.1726C64.4599 94.6002 64.0388 94.0278 63.5498 93.4947Z" fill="url(#paint6_linear_5_6340)"/>
<path d="M46.3345 89.5711L49.6138 85.0502L59.1431 87.4312L55.8638 91.9521L46.3345 89.5711Z" fill="url(#paint7_linear_5_6340)"/>
<path d="M72.6364 101.386L75.9837 96.8262L67.8045 98.1961L64.4573 102.756L72.6364 101.386Z" fill="url(#paint8_linear_5_6340)"/>
<path d="M90.1859 103.849C89.8433 103.412 89.472 103.083 89.1294 102.646L85.8501 107.167C86.1927 107.604 86.6033 108.001 86.9066 108.369C86.9851 108.505 87.1315 108.602 87.21 108.738C87.4741 109.039 87.699 109.271 87.9631 109.572C88.0023 109.64 88.0808 109.776 88.188 109.804C88.4521 110.105 88.7162 110.405 88.9804 110.706C89.0588 110.842 89.2445 111.006 89.323 111.142C89.5478 111.375 89.7048 111.647 89.8904 111.811C89.9689 111.947 90.1546 112.112 90.233 112.248C90.4187 112.412 90.5756 112.684 90.7613 112.849C90.8397 112.985 91.0254 113.149 91.1039 113.285C91.2216 113.489 91.4072 113.654 91.5249 113.858C91.5642 113.926 91.6426 114.062 91.7498 114.09C92.1316 114.595 92.5135 115.099 92.8561 115.536C93.1202 115.836 93.3163 116.176 93.4733 116.448C93.5125 116.516 93.5518 116.584 93.591 116.652C93.8264 117.059 94.1297 117.428 94.3651 117.835C94.4044 117.903 94.4044 117.903 94.4436 117.971C94.679 118.379 94.8752 118.719 95.0034 119.098C95.0426 119.166 95.0819 119.234 95.1211 119.302C95.2493 119.681 95.4455 120.021 95.5345 120.332C95.5737 120.4 95.6129 120.468 95.545 120.507C95.6732 120.886 95.7622 121.197 95.7832 121.547C95.9324 122.276 95.7993 122.987 95.4414 123.466L98.7206 118.945C99.0786 118.467 99.183 117.863 99.0625 117.026C98.9735 116.715 98.9525 116.365 98.8243 115.986C98.785 115.918 98.785 115.918 98.8138 115.811C98.7248 115.5 98.5966 115.121 98.4004 114.781C98.3612 114.713 98.3219 114.645 98.2827 114.577C98.0865 114.237 97.9191 113.79 97.7229 113.45C97.6837 113.383 97.6837 113.383 97.6444 113.315C97.409 112.907 97.1736 112.499 96.8703 112.131C96.831 112.063 96.831 112.063 96.7918 111.995L96.7526 111.927C96.5564 111.587 96.2923 111.286 96.1353 111.015C95.7928 110.578 95.4109 110.074 95.0291 109.569C94.9899 109.501 94.9899 109.501 94.9506 109.433C94.9114 109.366 94.9114 109.366 94.8722 109.298C94.7545 109.094 94.5688 108.929 94.4511 108.725C94.3726 108.589 94.187 108.425 94.1085 108.289C93.9908 108.085 93.7659 107.852 93.5803 107.688C93.5018 107.552 93.3161 107.387 93.2377 107.251C93.0128 107.019 92.8559 106.747 92.6702 106.582C92.5917 106.446 92.4453 106.35 92.3276 106.146C92.0635 105.845 91.7994 105.545 91.5352 105.244C91.496 105.176 91.4568 105.108 91.3103 105.012C91.0462 104.711 90.7429 104.342 90.4395 103.974C90.2644 103.984 90.2251 103.917 90.1859 103.849Z" fill="url(#paint9_linear_5_6340)"/>
<path d="M76.9953 96.6952C77.113 96.899 77.202 97.2101 77.3589 97.4819C77.3982 97.5499 77.4766 97.6858 77.5159 97.7537C77.6336 97.9576 77.7513 98.1615 77.9082 98.4333L77.9474 98.5012C78.1044 98.773 78.3293 99.0056 78.5254 99.3454C78.5647 99.4134 78.6431 99.5493 78.6824 99.6172C78.7608 99.7531 78.9465 99.9178 79.025 100.054C79.1427 100.258 79.2891 100.354 79.4068 100.558L82.6861 96.0372C82.3827 95.6687 82.1865 95.3289 81.9224 95.0284C81.8832 94.9604 81.8047 94.8245 81.7655 94.7566C81.5014 94.456 81.3052 94.1163 81.1483 93.8444C81.0306 93.6406 80.9129 93.4367 80.7559 93.1649C80.7167 93.0969 80.6382 92.961 80.599 92.8931C80.442 92.6212 80.2851 92.3494 80.2354 92.1063C79.9894 91.5235 79.9684 91.1732 80.1618 90.8803L76.9217 95.4692C76.7284 95.762 76.7886 96.1803 76.9953 96.6952Z" fill="url(#paint10_linear_5_6340)"/>
<path d="M86.3494 99.0869L89.6967 94.5268L83.0153 95.6661L79.736 100.187L86.3494 99.0869Z" fill="url(#paint11_linear_5_6340)"/>
<path d="M102.591 107.287C103.451 108.15 104.244 109.051 105.104 109.914C105.329 110.146 105.554 110.379 105.672 110.583C106.239 111.252 106.874 111.882 107.442 112.551C108.009 113.22 108.577 113.889 109.144 114.558C109.487 114.994 109.83 115.431 110.172 115.867C110.251 116.003 110.329 116.139 110.436 116.168C110.74 116.536 111.043 116.905 111.278 117.312C111.357 117.448 111.396 117.516 111.543 117.613C111.885 118.049 112.121 118.457 112.463 118.894C112.581 119.097 112.659 119.233 112.777 119.437C112.855 119.573 112.934 119.709 113.012 119.845C113.13 120.049 113.209 120.185 113.326 120.389C113.405 120.525 113.483 120.66 113.522 120.728C113.64 120.932 113.719 121.068 113.836 121.272C113.876 121.34 113.954 121.476 113.993 121.544C114.15 121.816 114.268 122.02 114.357 122.331L117.636 117.81C117.518 117.606 117.362 117.334 117.273 117.023C117.233 116.955 117.155 116.819 117.116 116.751C116.998 116.547 116.919 116.411 116.802 116.208C116.723 116.072 116.645 115.936 116.606 115.868C116.488 115.664 116.409 115.528 116.292 115.324C116.213 115.188 116.135 115.052 116.056 114.916C115.978 114.78 115.899 114.645 115.782 114.441L115.742 114.373C115.507 113.965 115.164 113.529 114.822 113.092C114.743 112.956 114.704 112.888 114.558 112.792C114.254 112.423 114.019 112.015 113.716 111.647C113.676 111.579 113.637 111.511 113.598 111.443C113.559 111.375 113.559 111.375 113.519 111.307C113.177 110.871 112.834 110.434 112.492 109.998C112.071 109.425 111.542 108.824 111.053 108.291C110.975 108.155 110.868 108.127 110.789 107.991C110.222 107.322 109.654 106.653 109.019 106.023C108.833 105.858 108.715 105.654 108.53 105.49C108.491 105.422 108.491 105.422 108.451 105.354C107.659 104.452 106.799 103.59 105.938 102.727C105.938 102.727 105.938 102.727 105.899 102.659C105.078 101.865 104.325 101.031 103.504 100.237L100.224 104.758C100.978 105.591 101.838 106.454 102.591 107.287Z" fill="url(#paint12_linear_5_6340)"/>
<path d="M63.1916 85.1845C63.2883 85.0381 63.4242 84.9596 63.5209 84.8132C63.5888 84.774 63.5888 84.774 63.6568 84.7347C63.7927 84.6563 63.9286 84.5778 64.0645 84.4993L64.1325 84.4601C64.3364 84.3424 64.5115 84.3319 64.7154 84.2142C64.7833 84.1749 64.8905 84.2037 64.9585 84.1644C65.1336 84.1539 65.3375 84.0362 65.5126 84.0257C65.7557 83.976 66.106 83.9549 66.3883 83.9731C66.4955 84.0019 66.5635 83.9626 66.6707 83.9913C66.953 84.0096 67.2353 84.0278 67.5856 84.0067L67.6928 84.0355C68.0823 84.0824 68.4718 84.1293 68.7934 84.2155C68.9006 84.2442 69.115 84.3016 69.2222 84.3304C69.4365 84.3878 69.7189 84.406 69.9725 84.5314C70.294 84.6176 70.6156 84.7037 70.9372 84.7899C71.1516 84.8473 71.3659 84.9048 71.5124 85.0015C71.6195 85.0302 71.766 85.1269 71.9411 85.1164C72.2627 85.2025 72.6235 85.3566 72.9843 85.5108C73.1307 85.6074 73.3451 85.6649 73.4523 85.6936C73.8131 85.8477 74.1739 86.0018 74.5347 86.1559C74.6811 86.2526 74.8955 86.3101 75.0026 86.3388C75.5099 86.5896 76.0171 86.8404 76.6315 87.1199C77.2459 87.3994 77.8996 87.7469 78.4853 88.1336C78.7389 88.259 78.9245 88.4236 79.1389 88.481C79.5389 88.7031 79.9782 88.9931 80.4175 89.2832C80.6711 89.4086 80.8567 89.5732 81.1103 89.6986C81.5496 89.9886 82.0568 90.2394 82.5353 90.5974C82.8282 90.7908 83.1603 91.0521 83.4531 91.2454C83.7852 91.5067 84.078 91.7001 84.4781 91.9222C84.8101 92.1835 85.1422 92.4448 85.5422 92.6668C85.8743 92.9281 86.1672 93.1215 86.4992 93.3828C86.8313 93.6441 87.1634 93.9054 87.4955 94.1667C87.8276 94.428 88.2668 94.7181 88.6381 95.0473C88.9702 95.3086 89.3023 95.5699 89.6344 95.8312C90.1129 96.1892 90.4842 96.5185 90.9627 96.8765C91.5197 97.3704 92.1053 97.7571 92.7015 98.3189L95.9808 93.798C95.5703 93.4008 95.0918 93.0428 94.7205 92.7136C94.5741 92.6169 94.4276 92.5202 94.3492 92.3843C93.8707 92.0263 93.4601 91.6291 93.0209 91.3391C92.8352 91.1744 92.6103 90.9419 92.3567 90.8165C92.2103 90.7198 92.171 90.6518 92.0246 90.5552C91.6533 90.2259 91.2533 90.0038 90.882 89.6746C90.6571 89.442 90.4035 89.3166 90.1786 89.084C90.0714 89.0553 89.9929 88.9194 89.8857 88.8906C89.5536 88.6293 89.2216 88.368 88.9287 88.1747C88.6751 88.0493 88.4502 87.8167 88.1574 87.6233C88.0502 87.5946 87.9717 87.4587 87.8645 87.43C87.5325 87.1687 87.2396 86.9753 86.8396 86.7533C86.586 86.6279 86.3611 86.3953 86.1075 86.2699C86.0003 86.2411 85.961 86.1732 85.8539 86.1445C85.4146 85.8544 84.8681 85.5357 84.4289 85.2457C84.2824 85.149 84.0288 85.0236 83.8824 84.9269C83.8432 84.859 83.7752 84.8982 83.736 84.8302C83.2967 84.5402 82.8967 84.3181 82.4574 84.0281C82.2038 83.9027 82.0181 83.7381 81.8038 83.6806C81.1501 83.3332 80.4965 82.9857 79.95 82.667C79.4428 82.4162 78.8963 82.0974 78.3212 81.8859C78.1747 81.7892 77.9604 81.7317 77.8532 81.703C77.4924 81.5489 77.1316 81.3948 76.7708 81.2407C76.6244 81.144 76.41 81.0865 76.3028 81.0578C75.942 80.9037 75.6204 80.8175 75.2596 80.6634C75.1524 80.6347 75.006 80.538 74.8309 80.5485C74.8309 80.5485 74.7237 80.5198 74.6845 80.4519C74.538 80.3552 74.3629 80.3657 74.2557 80.337C73.9341 80.2508 73.6126 80.1646 73.291 80.0785C73.1838 80.0498 73.1838 80.0498 73.0766 80.021C72.8622 79.9636 72.6871 79.9741 72.4727 79.9167C72.3655 79.888 72.1512 79.8305 72.044 79.8018L71.9368 79.7731C71.6152 79.6869 71.2649 79.7079 70.9826 79.6897L70.8754 79.661C70.661 79.6036 70.4179 79.6533 70.2036 79.5959C70.1356 79.6351 70.0284 79.6064 70.0284 79.6064C69.9212 79.5777 69.8533 79.6169 69.7461 79.5882C69.6389 79.5594 69.5709 79.5987 69.4638 79.57C69.2886 79.5805 69.0455 79.6302 68.8704 79.6407C68.8024 79.68 68.8024 79.68 68.6952 79.6512C68.5201 79.6618 68.4521 79.701 68.3162 79.7795C68.2483 79.8187 68.1411 79.79 68.0731 79.8292C68.0731 79.8292 68.0731 79.8292 68.0052 79.8684C67.7621 79.9182 67.6262 79.9966 67.4223 80.1143L67.3543 80.1536C67.2184 80.2321 67.0825 80.3105 67.0146 80.3498L66.9466 80.389C66.8786 80.4282 66.8786 80.4282 66.8107 80.4675C66.7427 80.5067 66.6748 80.5459 66.6461 80.6531C66.5781 80.6923 66.5494 80.7995 66.4814 80.8388L63.1916 85.1845Z" fill="url(#paint13_linear_5_6340)"/>
<path d="M98.1177 97.1852L101.465 92.625L96.067 93.4764L92.7197 98.0365L98.1177 97.1852Z" fill="url(#paint14_linear_5_6340)"/>
<path d="M62.8105 87.0354C62.5303 85.2945 63.4214 84.327 65.5413 83.9185C68.1867 83.4785 71.899 84.4158 76.6497 86.8376C81.4004 89.2593 86.7893 92.9435 92.6805 97.9686L98.0392 97.0494L105.379 103.956L100.089 104.836C103.559 108.179 106.532 111.445 109.076 114.597C111.621 117.749 113.394 120.349 114.289 122.37L104.456 119.62C103.533 117.707 102.141 115.611 100.311 113.225C98.4802 110.839 96.3279 108.366 93.8254 105.915L85.8214 107.275C88.7268 110.58 91.0072 113.432 92.6914 115.721C94.4149 118.079 95.3775 120.06 95.6578 121.801C95.9381 123.542 95.047 124.509 92.8878 124.85C90.2424 125.29 86.4908 124.284 81.6722 121.902C76.8536 119.519 71.4255 115.767 65.495 110.674L60.1363 111.593L52.8747 104.823L58.1654 103.943C52.5537 98.303 48.6493 93.5805 46.413 89.7071L55.9422 92.0881C58.1968 95.6792 61.016 99.3068 64.5357 102.892L72.7149 101.522C69.8488 98.2844 67.5396 95.5403 65.8841 93.1437C64.1606 90.7863 63.1588 88.7371 62.8105 87.0354ZM78.7505 108.367L71.894 109.517C74.0329 111.181 75.8292 112.409 77.3116 113.094C78.7941 113.778 79.9732 114.094 80.8096 113.974C81.6461 113.853 81.7897 113.317 81.4156 112.355C81.0415 111.393 80.0816 110.045 78.7505 108.367ZM81.1854 95.6353C79.7709 94.9116 78.6311 94.6636 77.7946 94.7842C76.9581 94.9047 76.8145 95.4406 77.1494 96.3345C77.5236 97.2964 78.337 98.5483 79.6681 100.226L86.2815 99.1261C84.357 97.5191 82.7071 96.3877 81.1854 95.6353Z" fill="url(#paint15_linear_5_6340)"/>
<path d="M105.379 103.956L108.727 99.3959L101.465 92.6251L98.1177 97.1852L105.379 103.956Z" fill="url(#paint16_linear_5_6340)"/>
<path d="M77.4083 112.947C76.7547 112.6 76.101 112.252 75.2617 111.74C74.276 111.131 73.387 110.376 72.2051 109.427L72.0299 109.438L71.8548 109.448C73.3008 110.698 74.1114 111.317 75.0971 111.926C75.8292 112.409 76.5901 112.785 77.2437 113.133C78.7654 113.885 80.0124 114.162 81.0527 113.924L81.382 113.552C80.6345 113.984 79.6908 114.076 77.4083 112.947Z" fill="url(#paint17_linear_5_6340)"/>
<path d="M77.0654 94.9333C76.872 95.2261 76.9035 95.7515 77.1102 96.2665C77.4844 97.2283 78.337 98.5482 79.6289 100.158L79.6681 100.226L86.3495 99.0868L86.0174 98.8255L79.8222 99.8652C78.5303 98.2554 77.7169 97.0035 77.382 96.1095C77.1754 95.5946 77.1543 95.2443 77.319 95.0587C77.4156 94.9122 77.6195 94.7945 77.9306 94.7056L77.0654 94.9333Z" fill="url(#paint18_linear_5_6340)"/>
<path d="M53.1255 104.315L52.9034 104.715L58.087 103.806L57.8621 103.574L53.1255 104.315Z" fill="url(#paint19_linear_5_6340)"/>
<path d="M109.076 114.597C111.621 117.749 113.355 120.281 114.289 122.37L114.482 122.077C113.48 120.028 111.893 117.592 109.348 114.44C106.804 111.288 103.977 108.118 100.468 104.708L100.157 104.797C102.727 107.209 105.857 110.747 109.076 114.597Z" fill="url(#paint20_linear_5_6340)"/>
<path d="M46.3345 89.5711L46.4522 89.7749L55.7671 92.0985C58.0217 95.6896 60.8408 99.3171 64.3214 102.835L64.3606 102.903L72.7149 101.522L72.4508 101.222L64.486 102.649C61.0055 99.1315 58.1863 95.504 55.971 91.9808L55.9317 91.9129L46.4025 89.5318L46.3345 89.5711Z" fill="url(#paint21_linear_5_6340)"/>
<path d="M65.6485 83.947C68.2154 83.3711 71.9383 84.4835 76.689 86.9053C78.2499 87.7256 79.9572 88.6426 81.675 89.7348C85.1107 91.9191 88.7923 94.6863 92.7198 98.0363L92.759 98.1043L98.1177 97.185L105.262 103.752L105.437 103.742L105.533 103.595L98.2326 96.7563L92.8739 97.6755C88.9464 94.3255 85.2648 91.5583 81.8684 89.4419C80.1505 88.3498 78.5112 87.3935 76.8823 86.6124C72.0637 84.2299 68.38 83.1854 65.6667 83.6647C64.6943 83.8637 64.0435 84.1488 63.5783 84.5986L63.1629 85.2915C63.0557 85.2627 63.4999 84.4627 65.6485 83.947Z" fill="url(#paint22_linear_5_6340)"/>
<path d="M85.7822 107.206C88.6875 110.512 90.968 113.364 92.6522 115.653C94.3365 117.942 95.3383 119.992 95.6473 121.625C95.7573 122.287 95.7314 123.027 95.4414 123.466L95.9927 122.694C96.0109 122.412 96.0186 121.955 95.9584 121.536C95.6781 119.795 94.6762 117.746 92.9528 115.389C91.2685 113.099 89.0666 110.384 86.1612 107.078L85.7822 107.206Z" fill="url(#paint23_linear_5_6340)"/>
<path d="M22.0408 63.1866L21.9441 63.333L22.0408 63.1866Z" fill="url(#paint24_linear_5_6340)"/>
<path d="M20.719 74.5507C20.808 74.8617 20.897 75.1728 20.986 75.4839C21.075 75.7949 21.1639 76.106 21.2922 76.485C22.802 81.1402 25.6479 86.3833 29.7513 92.0782C30.0938 92.5146 30.3685 92.9903 30.7503 93.4947C31.2498 94.203 31.8566 94.94 32.424 95.609C36.2997 100.439 41.0722 105.566 46.6236 110.787C49.7903 113.761 53.0929 116.657 56.4921 119.406C56.6385 119.502 56.6778 119.57 56.8242 119.667C62.6944 124.342 68.758 128.724 74.8972 132.609C78.3721 134.861 81.9045 136.899 85.3584 138.801C85.9048 139.12 86.5192 139.399 87.0657 139.718C87.7193 140.066 88.373 140.413 89.0946 140.721C89.7482 141.069 90.4019 141.416 91.1235 141.724C91.4843 141.879 91.8451 142.033 92.1379 142.226C98.6926 145.418 104.923 147.892 110.682 149.55C110.897 149.608 111.218 149.694 111.433 149.751C118.185 151.561 124.096 152.225 128.901 151.445C129.076 151.434 129.212 151.356 129.387 151.345C129.562 151.335 129.805 151.285 129.941 151.207C132.683 150.62 134.829 149.472 136.35 147.869L136.418 147.83C136.554 147.751 136.582 147.644 136.65 147.605C136.747 147.458 136.912 147.273 137.008 147.126L137.173 146.941L137.241 146.901C137.27 146.794 137.406 146.716 137.434 146.608C137.85 145.916 138.226 145.155 138.427 144.404C139.378 141.5 138.817 138.018 137.514 133.878C138.846 137.911 138.745 141.503 137.852 144.193C137.651 144.943 137.303 145.597 136.888 146.29C136.859 146.397 136.723 146.475 136.695 146.583L136.598 146.729C136.501 146.875 136.405 147.022 136.24 147.207C136.211 147.315 136.143 147.354 136.007 147.432L135.871 147.511C134.486 149.035 132.476 150.105 129.802 150.652C129.666 150.731 129.491 150.741 129.248 150.791C129.073 150.802 128.937 150.88 128.762 150.891C124.133 151.661 118.261 151.064 111.576 149.215C111.362 149.158 111.04 149.072 110.826 149.014C105.106 147.424 98.8754 144.95 92.4279 141.787C92.0671 141.633 91.7063 141.478 91.4135 141.285C90.7598 140.938 90.1062 140.59 89.4526 140.243C88.7989 139.895 88.1453 139.548 87.4916 139.2C86.9452 138.882 86.3308 138.602 85.7843 138.283C82.3304 136.381 78.7981 134.343 75.3624 132.159C69.2232 128.274 63.1988 123.96 57.3966 119.246C57.2501 119.149 57.2109 119.081 57.0645 118.985C53.6652 116.236 50.3627 113.34 47.196 110.366C41.6445 105.145 36.9113 100.086 33.0749 95.3239C32.5074 94.6548 31.9686 93.8786 31.4011 93.2096C31.0585 92.7731 30.6767 92.2687 30.4021 91.793C26.2307 86.1374 23.4921 80.9231 21.9535 76.375C21.8645 76.0639 21.7755 75.7528 21.6866 75.4418C21.5976 75.1307 21.5086 74.8197 21.4196 74.5086C20.3883 70.2113 20.6355 66.7162 22.3077 64.1198C22.4044 63.9734 22.5011 63.827 22.5977 63.6805C23.0811 62.9484 23.5932 62.1091 24.3302 61.5024C23.554 62.0412 22.6706 62.5512 22.1192 63.3225C22.0226 63.469 21.9259 63.6154 21.7612 63.801C19.9531 66.4759 19.6485 70.1854 20.719 74.5507Z" fill="url(#paint25_linear_5_6340)"/>
</g>
<defs>
<filter id="filter0_f_5_6340" x="-9.99954" y="-9.98022" width="192.879" height="212.955" filterUnits="userSpaceOnUse" color-interpolation-filters="sRGB">
<feFlood flood-opacity="0" result="BackgroundImageFix"/>
<feBlend mode="normal" in="SourceGraphic" in2="BackgroundImageFix" result="shape"/>
<feGaussianBlur stdDeviation="5" result="effect1_foregroundBlur_5_6340"/>
</filter>
<linearGradient id="paint0_linear_5_6340" x1="135.474" y1="149.637" x2="15.7674" y2="73.5948" gradientUnits="userSpaceOnUse">
<stop stop-color="#D2AB5A"/>
<stop offset="0.0610851" stop-color="#BA9443"/>
<stop offset="0.1898" stop-color="#7C5808"/>
<stop offset="0.2069" stop-color="#735000"/>
<stop offset="0.2274" stop-color="#775200"/>
<stop offset="0.3376" stop-color="#8A5D00"/>
<stop offset="0.4146" stop-color="#916100"/>
<stop offset="0.4344" stop-color="#976707"/>
<stop offset="0.4986" stop-color="#D8B364"/>
<stop offset="0.5246" stop-color="#D4AE5D"/>
<stop offset="0.5617" stop-color="#CA9F4A"/>
<stop offset="0.6053" stop-color="#B9882C"/>
<stop offset="0.6414" stop-color="#A8700D"/>
<stop offset="0.6805" stop-color="#815400"/>
<stop offset="0.8029" stop-color="#B38116"/>
<stop offset="0.8267" stop-color="#A27114"/>
<stop offset="0.8802" stop-color="#815110"/>
<stop offset="0.9247" stop-color="#6C3D0E"/>
<stop offset="0.9545" stop-color="#65360D"/>
<stop offset="0.9581" stop-color="#6F3F0D"/>
<stop offset="0.9701" stop-color="#8A580C"/>
<stop offset="0.9807" stop-color="#9B670C"/>
<stop offset="0.9886" stop-color="#A16C0C"/>
</linearGradient>
<linearGradient id="paint1_linear_5_6340" x1="163.64" y1="131.66" x2="21.9073" y2="41.6259" gradientUnits="userSpaceOnUse">
<stop stop-color="#D2AB5A"/>
<stop offset="0.0610851" stop-color="#BA9443"/>
<stop offset="0.1898" stop-color="#7C5808"/>
<stop offset="0.2069" stop-color="#735000"/>
<stop offset="0.2274" stop-color="#775200"/>
<stop offset="0.3376" stop-color="#8A5D00"/>
<stop offset="0.4146" stop-color="#916100"/>
<stop offset="0.4344" stop-color="#976707"/>
<stop offset="0.4986" stop-color="#D8B364"/>
<stop offset="0.5246" stop-color="#D4AE5D"/>
<stop offset="0.5617" stop-color="#CA9F4A"/>
<stop offset="0.6053" stop-color="#B9882C"/>
<stop offset="0.6414" stop-color="#A8700D"/>
<stop offset="0.6805" stop-color="#815400"/>
<stop offset="0.8029" stop-color="#B38116"/>
<stop offset="0.8267" stop-color="#A27114"/>
<stop offset="0.8802" stop-color="#815110"/>
<stop offset="0.9247" stop-color="#6C3D0E"/>
<stop offset="0.9545" stop-color="#65360D"/>
<stop offset="0.9581" stop-color="#6F3F0D"/>
<stop offset="0.9701" stop-color="#8A580C"/>
<stop offset="0.9807" stop-color="#9B670C"/>
<stop offset="0.9886" stop-color="#A16C0C"/>
</linearGradient>
<linearGradient id="paint2_linear_5_6340" x1="63.9034" y1="150.966" x2="97.6124" y2="52.2252" gradientUnits="userSpaceOnUse">
<stop stop-color="#D7AC4C"/>
<stop offset="0.1816" stop-color="#FFFFB0"/>
<stop offset="0.3268" stop-color="#F4D174"/>
<stop offset="0.3659" stop-color="#FBED99"/>
<stop offset="0.3939" stop-color="#FAEC97"/>
<stop offset="0.433" stop-color="#DEB04D"/>
<stop offset="0.5275" stop-color="#DFB24F"/>
<stop offset="0.5615" stop-color="#E2B756"/>
<stop offset="0.5858" stop-color="#E7C161"/>
<stop offset="0.6053" stop-color="#EECF72"/>
<stop offset="0.6207" stop-color="#F6DF86"/>
<stop offset="0.7529" stop-color="#F2D87E"/>
<stop offset="0.7672" stop-color="#F1D77D"/>
<stop offset="0.7716" stop-color="#EBCD71"/>
<stop offset="0.7804" stop-color="#E2BE60"/>
<stop offset="0.7913" stop-color="#DCB455"/>
<stop offset="0.8066" stop-color="#D8AE4E"/>
<stop offset="0.8492" stop-color="#D7AC4C"/>
<stop offset="1" stop-color="#966424"/>
</linearGradient>
<linearGradient id="paint3_linear_5_6340" x1="69.245" y1="137.702" x2="102.954" y2="38.9606" gradientUnits="userSpaceOnUse">
<stop offset="0.1136" stop-color="#D7AC4C"/>
<stop offset="0.1816" stop-color="#FFFFB0"/>
<stop offset="0.3268" stop-color="#F4D174"/>
<stop offset="0.3659" stop-color="#FBED99"/>
<stop offset="0.3939" stop-color="#FAEC97"/>
<stop offset="0.433" stop-color="#DEB04D"/>
<stop offset="0.5275" stop-color="#DFB24F"/>
<stop offset="0.5615" stop-color="#E2B756"/>
<stop offset="0.5858" stop-color="#E7C161"/>
<stop offset="0.6053" stop-color="#EECF72"/>
<stop offset="0.6207" stop-color="#F6DF86"/>
<stop offset="0.7529" stop-color="#F2D87E"/>
<stop offset="0.7672" stop-color="#F1D77D"/>
<stop offset="0.7716" stop-color="#EBCD71"/>
<stop offset="0.7804" stop-color="#E2BE60"/>
<stop offset="0.7913" stop-color="#DCB455"/>
<stop offset="0.8066" stop-color="#D8AE4E"/>
<stop offset="0.8492" stop-color="#D7AC4C"/>
<stop offset="1" stop-color="#966424"/>
</linearGradient>
<linearGradient id="paint4_linear_5_6340" x1="48.4695" y1="97.7228" x2="58.7413" y2="102.779" gradientUnits="userSpaceOnUse">
<stop stop-color="#A16C0C"/>
<stop offset="0.2318" stop-color="#BE9134"/>
<stop offset="0.5559" stop-color="#A8700D"/>
<stop offset="1" stop-color="#432400"/>
</linearGradient>
<linearGradient id="paint5_linear_5_6340" x1="89.8907" y1="117.046" x2="75.6139" y2="107.576" gradientUnits="userSpaceOnUse">
<stop stop-color="#A16C0C"/>
<stop offset="0.2318" stop-color="#BE9134"/>
<stop offset="0.5559" stop-color="#A8700D"/>
<stop offset="1" stop-color="#432400"/>
</linearGradient>
<linearGradient id="paint6_linear_5_6340" x1="46.5461" y1="84.1728" x2="66.6518" y2="98.5468" gradientUnits="userSpaceOnUse">
<stop stop-color="#A16C0C"/>
<stop offset="0.2318" stop-color="#BE9134"/>
<stop offset="0.5559" stop-color="#A8700D"/>
<stop offset="1" stop-color="#432400"/>
</linearGradient>
<linearGradient id="paint7_linear_5_6340" x1="40.1071" y1="82.7783" x2="63.5376" y2="93.3902" gradientUnits="userSpaceOnUse">
<stop stop-color="#A16C0C"/>
<stop offset="0.2318" stop-color="#BE9134"/>
<stop offset="0.5559" stop-color="#A8700D"/>
<stop offset="1" stop-color="#432400"/>
</linearGradient>
<linearGradient id="paint8_linear_5_6340" x1="76.976" y1="104.1" x2="67.3645" y2="97.9939" gradientUnits="userSpaceOnUse">
<stop stop-color="#A16C0C"/>
<stop offset="0.2318" stop-color="#BE9134"/>
<stop offset="0.5559" stop-color="#A8700D"/>
<stop offset="1" stop-color="#432400"/>
</linearGradient>
<linearGradient id="paint9_linear_5_6340" x1="102.29" y1="124.99" x2="87.1078" y2="107.069" gradientUnits="userSpaceOnUse">
<stop stop-color="#A16C0C"/>
<stop offset="0.2318" stop-color="#BE9134"/>
<stop offset="0.5559" stop-color="#A8700D"/>
<stop offset="1" stop-color="#432400"/>
</linearGradient>
<linearGradient id="paint10_linear_5_6340" x1="69.8307" y1="87.9968" x2="81.4706" y2="96.9929" gradientUnits="userSpaceOnUse">
<stop stop-color="#A16C0C"/>
<stop offset="0.2318" stop-color="#BE9134"/>
<stop offset="0.5559" stop-color="#A8700D"/>
<stop offset="1" stop-color="#432400"/>
</linearGradient>
<linearGradient id="paint11_linear_5_6340" x1="96.2687" y1="101.905" x2="81.5106" y2="96.1348" gradientUnits="userSpaceOnUse">
<stop stop-color="#A16C0C"/>
<stop offset="0.2318" stop-color="#BE9134"/>
<stop offset="0.5559" stop-color="#A8700D"/>
<stop offset="1" stop-color="#432400"/>
</linearGradient>
<linearGradient id="paint12_linear_5_6340" x1="118.089" y1="117.118" x2="99.7247" y2="105.453" gradientUnits="userSpaceOnUse">
<stop stop-color="#A16C0C"/>
<stop offset="0.2318" stop-color="#BE9134"/>
<stop offset="0.5559" stop-color="#A8700D"/>
<stop offset="1" stop-color="#432400"/>
</linearGradient>
<linearGradient id="paint13_linear_5_6340" x1="60.9182" y1="76.8737" x2="91.8922" y2="96.4161" gradientUnits="userSpaceOnUse">
<stop stop-color="#A16C0C"/>
<stop offset="0.2318" stop-color="#BE9134"/>
<stop offset="0.5559" stop-color="#A8700D"/>
<stop offset="1" stop-color="#432400"/>
</linearGradient>
<linearGradient id="paint14_linear_5_6340" x1="100.267" y1="97.4077" x2="94.3351" y2="93.5058" gradientUnits="userSpaceOnUse">
<stop stop-color="#A16C0C"/>
<stop offset="0.2318" stop-color="#BE9134"/>
<stop offset="0.5559" stop-color="#A8700D"/>
<stop offset="1" stop-color="#432400"/>
</linearGradient>
<linearGradient id="paint15_linear_5_6340" x1="64.9524" y1="151.048" x2="98.661" y2="52.3086" gradientUnits="userSpaceOnUse">
<stop stop-color="#D7AC4C"/>
<stop offset="0.1816" stop-color="#FFFFB0"/>
<stop offset="0.3268" stop-color="#F4D174"/>
<stop offset="0.3659" stop-color="#FBED99"/>
<stop offset="0.3939" stop-color="#FAEC97"/>
<stop offset="0.433" stop-color="#DEB04D"/>
<stop offset="0.5275" stop-color="#DFB24F"/>
<stop offset="0.5615" stop-color="#E2B756"/>
<stop offset="0.5858" stop-color="#E7C161"/>
<stop offset="0.6053" stop-color="#EECF72"/>
<stop offset="0.6207" stop-color="#F6DF86"/>
<stop offset="0.7529" stop-color="#F2D87E"/>
<stop offset="0.7672" stop-color="#F1D77D"/>
<stop offset="0.7716" stop-color="#EBCD71"/>
<stop offset="0.7804" stop-color="#E2BE60"/>
<stop offset="0.7913" stop-color="#DCB455"/>
<stop offset="0.8066" stop-color="#D8AE4E"/>
<stop offset="0.8492" stop-color="#D7AC4C"/>
<stop offset="1" stop-color="#966424"/>
</linearGradient>
<linearGradient id="paint16_linear_5_6340" x1="113.106" y1="105.038" x2="100.722" y2="96.3711" gradientUnits="userSpaceOnUse">
<stop stop-color="#A16C0C"/>
<stop offset="0.2318" stop-color="#BE9134"/>
<stop offset="0.5559" stop-color="#A8700D"/>
<stop offset="1" stop-color="#432400"/>
</linearGradient>
<linearGradient id="paint17_linear_5_6340" x1="94.5445" y1="123.006" x2="69.4077" y2="107.305" gradientUnits="userSpaceOnUse">
<stop stop-color="#966424"/>
<stop offset="0.1508" stop-color="#D7AC4C"/>
<stop offset="0.1934" stop-color="#D8AE4E"/>
<stop offset="0.2087" stop-color="#DCB455"/>
<stop offset="0.2196" stop-color="#E2BE60"/>
<stop offset="0.2284" stop-color="#EBCD71"/>
<stop offset="0.2328" stop-color="#F1D77D"/>
<stop offset="0.2471" stop-color="#F2D87E"/>
<stop offset="0.3793" stop-color="#F6DF86"/>
<stop offset="0.3947" stop-color="#EECF72"/>
<stop offset="0.4142" stop-color="#E7C161"/>
<stop offset="0.4385" stop-color="#E2B756"/>
<stop offset="0.4725" stop-color="#DFB24F"/>
<stop offset="0.567" stop-color="#DEB04D"/>
<stop offset="0.6061" stop-color="#FAEC97"/>
<stop offset="0.6341" stop-color="#FBED99"/>
<stop offset="0.6732" stop-color="#F4D174"/>
<stop offset="0.8184" stop-color="#FFFFB0"/>
<stop offset="1" stop-color="#D7AC4C"/>
</linearGradient>
<linearGradient id="paint18_linear_5_6340" x1="85.1919" y1="100.978" x2="76.6671" y2="95.5629" gradientUnits="userSpaceOnUse">
<stop stop-color="#966424"/>
<stop offset="0.1508" stop-color="#D7AC4C"/>
<stop offset="0.1934" stop-color="#D8AE4E"/>
<stop offset="0.2087" stop-color="#DCB455"/>
<stop offset="0.2196" stop-color="#E2BE60"/>
<stop offset="0.2284" stop-color="#EBCD71"/>
<stop offset="0.2328" stop-color="#F1D77D"/>
<stop offset="0.2471" stop-color="#F2D87E"/>
<stop offset="0.3793" stop-color="#F6DF86"/>
<stop offset="0.3947" stop-color="#EECF72"/>
<stop offset="0.4142" stop-color="#E7C161"/>
<stop offset="0.4385" stop-color="#E2B756"/>
<stop offset="0.4725" stop-color="#DFB24F"/>
<stop offset="0.567" stop-color="#DEB04D"/>
<stop offset="0.6061" stop-color="#FAEC97"/>
<stop offset="0.6341" stop-color="#FBED99"/>
<stop offset="0.6732" stop-color="#F4D174"/>
<stop offset="0.8184" stop-color="#FFFFB0"/>
<stop offset="1" stop-color="#D7AC4C"/>
</linearGradient>
<linearGradient id="paint19_linear_5_6340" x1="57.1867" y1="105.295" x2="53.8442" y2="103.172" gradientUnits="userSpaceOnUse">
<stop stop-color="#966424"/>
<stop offset="0.1508" stop-color="#D7AC4C"/>
<stop offset="0.1934" stop-color="#D8AE4E"/>
<stop offset="0.2087" stop-color="#DCB455"/>
<stop offset="0.2196" stop-color="#E2BE60"/>
<stop offset="0.2284" stop-color="#EBCD71"/>
<stop offset="0.2328" stop-color="#F1D77D"/>
<stop offset="0.2471" stop-color="#F2D87E"/>
<stop offset="0.3793" stop-color="#F6DF86"/>
<stop offset="0.3947" stop-color="#EECF72"/>
<stop offset="0.4142" stop-color="#E7C161"/>
<stop offset="0.4385" stop-color="#E2B756"/>
<stop offset="0.4725" stop-color="#DFB24F"/>
<stop offset="0.567" stop-color="#DEB04D"/>
<stop offset="0.6061" stop-color="#FAEC97"/>
<stop offset="0.6341" stop-color="#FBED99"/>
<stop offset="0.6732" stop-color="#F4D174"/>
<stop offset="0.8184" stop-color="#FFFFB0"/>
<stop offset="1" stop-color="#D7AC4C"/>
</linearGradient>
<linearGradient id="paint20_linear_5_6340" x1="93.8779" y1="100.297" x2="117.735" y2="123.642" gradientUnits="userSpaceOnUse">
<stop stop-color="#966424"/>
<stop offset="0.1508" stop-color="#D7AC4C"/>
<stop offset="0.1934" stop-color="#D8AE4E"/>
<stop offset="0.2087" stop-color="#DCB455"/>
<stop offset="0.2196" stop-color="#E2BE60"/>
<stop offset="0.2284" stop-color="#EBCD71"/>
<stop offset="0.2328" stop-color="#F1D77D"/>
<stop offset="0.2471" stop-color="#F2D87E"/>
<stop offset="0.3793" stop-color="#F6DF86"/>
<stop offset="0.3947" stop-color="#EECF72"/>
<stop offset="0.4142" stop-color="#E7C161"/>
<stop offset="0.4385" stop-color="#E2B756"/>
<stop offset="0.4725" stop-color="#DFB24F"/>
<stop offset="0.567" stop-color="#DEB04D"/>
<stop offset="0.6061" stop-color="#FAEC97"/>
<stop offset="0.6341" stop-color="#FBED99"/>
<stop offset="0.6732" stop-color="#F4D174"/>
<stop offset="0.8184" stop-color="#FFFFB0"/>
<stop offset="1" stop-color="#D7AC4C"/>
</linearGradient>
<linearGradient id="paint21_linear_5_6340" x1="71.3048" y1="103.878" x2="47.0428" y2="88.4653" gradientUnits="userSpaceOnUse">
<stop stop-color="#966424"/>
<stop offset="0.1508" stop-color="#D7AC4C"/>
<stop offset="0.1934" stop-color="#D8AE4E"/>
<stop offset="0.2087" stop-color="#DCB455"/>
<stop offset="0.2196" stop-color="#E2BE60"/>
<stop offset="0.2284" stop-color="#EBCD71"/>
<stop offset="0.2328" stop-color="#F1D77D"/>
<stop offset="0.2471" stop-color="#F2D87E"/>
<stop offset="0.3793" stop-color="#F6DF86"/>
<stop offset="0.3947" stop-color="#EECF72"/>
<stop offset="0.4142" stop-color="#E7C161"/>
<stop offset="0.4385" stop-color="#E2B756"/>
<stop offset="0.4725" stop-color="#DFB24F"/>
<stop offset="0.567" stop-color="#DEB04D"/>
<stop offset="0.6061" stop-color="#FAEC97"/>
<stop offset="0.6341" stop-color="#FBED99"/>
<stop offset="0.6732" stop-color="#F4D174"/>
<stop offset="0.8184" stop-color="#FFFFB0"/>
<stop offset="1" stop-color="#D7AC4C"/>
</linearGradient>
<linearGradient id="paint22_linear_5_6340" x1="59.1316" y1="75.7474" x2="97.2765" y2="102.916" gradientUnits="userSpaceOnUse">
<stop stop-color="#966424"/>
<stop offset="0.1508" stop-color="#D7AC4C"/>
<stop offset="0.1934" stop-color="#D8AE4E"/>
<stop offset="0.2087" stop-color="#DCB455"/>
<stop offset="0.2196" stop-color="#E2BE60"/>
<stop offset="0.2284" stop-color="#EBCD71"/>
<stop offset="0.2328" stop-color="#F1D77D"/>
<stop offset="0.2471" stop-color="#F2D87E"/>
<stop offset="0.3793" stop-color="#F6DF86"/>
<stop offset="0.3947" stop-color="#EECF72"/>
<stop offset="0.4142" stop-color="#E7C161"/>
<stop offset="0.4385" stop-color="#E2B756"/>
<stop offset="0.4725" stop-color="#DFB24F"/>
<stop offset="0.567" stop-color="#DEB04D"/>
<stop offset="0.6061" stop-color="#FAEC97"/>
<stop offset="0.6341" stop-color="#FBED99"/>
<stop offset="0.6732" stop-color="#F4D174"/>
<stop offset="0.8184" stop-color="#FFFFB0"/>
<stop offset="1" stop-color="#D7AC4C"/>
</linearGradient>
<linearGradient id="paint23_linear_5_6340" x1="81.3249" y1="105.526" x2="102.687" y2="127.673" gradientUnits="userSpaceOnUse">
<stop stop-color="#966424"/>
<stop offset="0.1508" stop-color="#D7AC4C"/>
<stop offset="0.1934" stop-color="#D8AE4E"/>
<stop offset="0.2087" stop-color="#DCB455"/>
<stop offset="0.2196" stop-color="#E2BE60"/>
<stop offset="0.2284" stop-color="#EBCD71"/>
<stop offset="0.2328" stop-color="#F1D77D"/>
<stop offset="0.2471" stop-color="#F2D87E"/>
<stop offset="0.3793" stop-color="#F6DF86"/>
<stop offset="0.3947" stop-color="#EECF72"/>
<stop offset="0.4142" stop-color="#E7C161"/>
<stop offset="0.4385" stop-color="#E2B756"/>
<stop offset="0.4725" stop-color="#DFB24F"/>
<stop offset="0.567" stop-color="#DEB04D"/>
<stop offset="0.6061" stop-color="#FAEC97"/>
<stop offset="0.6341" stop-color="#FBED99"/>
<stop offset="0.6732" stop-color="#F4D174"/>
<stop offset="0.8184" stop-color="#FFFFB0"/>
<stop offset="1" stop-color="#D7AC4C"/>
</linearGradient>
<linearGradient id="paint24_linear_5_6340" x1="147.092" y1="138.689" x2="59.1053" y2="85.6428" gradientUnits="userSpaceOnUse">
<stop stop-color="#D7AC4C"/>
<stop offset="0.1816" stop-color="#FFFFB0"/>
<stop offset="0.3268" stop-color="#F4D174"/>
<stop offset="0.3659" stop-color="#FBED99"/>
<stop offset="0.3939" stop-color="#FAEC97"/>
<stop offset="0.433" stop-color="#DEB04D"/>
<stop offset="0.5275" stop-color="#DFB24F"/>
<stop offset="0.5615" stop-color="#E2B756"/>
<stop offset="0.5858" stop-color="#E7C161"/>
<stop offset="0.6053" stop-color="#EECF72"/>
<stop offset="0.6207" stop-color="#F6DF86"/>
<stop offset="0.7529" stop-color="#F2D87E"/>
<stop offset="0.7672" stop-color="#F1D77D"/>
<stop offset="0.7716" stop-color="#EBCD71"/>
<stop offset="0.7804" stop-color="#E2BE60"/>
<stop offset="0.7913" stop-color="#DCB455"/>
<stop offset="0.8066" stop-color="#D8AE4E"/>
<stop offset="0.8492" stop-color="#D7AC4C"/>
<stop offset="1" stop-color="#966424"/>
</linearGradient>
<linearGradient id="paint25_linear_5_6340" x1="139.767" y1="151.395" x2="-14.4231" y2="58.4311" gradientUnits="userSpaceOnUse">
<stop stop-color="#D7AC4C"/>
<stop offset="0.1816" stop-color="#FFFFB0"/>
<stop offset="0.3268" stop-color="#F4D174"/>
<stop offset="0.3659" stop-color="#FBED99"/>
<stop offset="0.3939" stop-color="#FAEC97"/>
<stop offset="0.433" stop-color="#DEB04D"/>
<stop offset="0.5275" stop-color="#DFB24F"/>
<stop offset="0.5615" stop-color="#E2B756"/>
<stop offset="0.5858" stop-color="#E7C161"/>
<stop offset="0.6053" stop-color="#EECF72"/>
<stop offset="0.6207" stop-color="#F6DF86"/>
<stop offset="0.7529" stop-color="#F2D87E"/>
<stop offset="0.7672" stop-color="#F1D77D"/>
<stop offset="0.7716" stop-color="#EBCD71"/>
<stop offset="0.7804" stop-color="#E2BE60"/>
<stop offset="0.7913" stop-color="#DCB455"/>
<stop offset="0.8066" stop-color="#D8AE4E"/>
<stop offset="0.8492" stop-color="#D7AC4C"/>
<stop offset="1" stop-color="#966424"/>
</linearGradient>
</defs>
</svg>
