<svg width="195" height="192" viewBox="0 0 195 192" fill="none" xmlns="http://www.w3.org/2000/svg">
<g filter="url(#filter0_d_92_3947)">
<path d="M159.562 89.6036C159.528 102.374 153.492 114.844 141.391 124.381C129.237 133.827 113.396 138.358 97.5987 138.128C81.749 137.808 65.9434 132.726 53.8078 122.854C41.7634 112.929 35.7193 100.147 35.7538 87.3765C35.8408 74.6976 41.8242 62.1358 53.9255 52.5991C66.0268 43.0624 81.9205 38.622 97.7175 38.8516C113.567 39.1724 129.373 44.2543 141.508 54.1266C153.605 64.1425 159.506 76.8861 159.562 89.6036Z" fill="url(#paint0_linear_92_3947)"/>
</g>
<path d="M159.562 89.6037L159.42 92.7219C159.454 79.9518 153.463 67.2608 141.366 57.2449C129.321 47.32 113.463 42.147 97.5748 41.9699C81.7252 41.6492 65.8841 46.1807 53.7828 55.7174C42.2138 64.7039 36.0971 76.6141 35.551 88.7081L35.6936 85.59C36.2398 73.496 42.2654 61.6384 53.9254 52.5993C66.0793 43.1536 81.9204 38.6221 97.7175 38.8518C113.567 39.1725 129.373 44.2545 141.508 54.1267C153.605 64.1427 159.597 76.8337 159.562 89.6037Z" fill="url(#paint1_linear_92_3947)"/>
<path d="M159.479 91.3517L159.336 94.4698C159.346 93.8567 159.409 93.3347 159.42 92.7216L159.562 89.6035C159.552 90.2166 159.489 90.7386 159.479 91.3517Z" fill="url(#paint2_linear_92_3947)"/>
<path d="M169.968 91.8527L169.29 106.452C168.583 120.581 161.549 134.478 148.005 145.091C133.876 156.163 115.207 161.477 96.7232 161.22C78.1864 160.872 59.6373 154.824 45.5638 143.277C31.4377 131.64 24.3665 116.658 24.4178 101.814C24.3755 101.11 25.0128 88.9633 25.0231 88.3502L25.1657 85.2321C25.1554 85.8452 25.1066 86.602 25.1489 87.3062C25.0976 102.15 32.1688 117.132 46.2949 128.77C60.3684 140.316 78.9175 146.364 97.4543 146.712C115.991 147.06 134.516 141.707 148.736 130.583C162.228 119.879 169.405 106.021 169.968 91.8527Z" fill="url(#paint3_linear_92_3947)"/>
<path d="M148.983 48.3538C134.909 36.8075 116.36 30.7595 97.8234 30.4116C79.1955 30.1163 60.6711 35.4685 46.3981 46.5019C32.2688 57.5738 25.1475 72.371 25.0962 87.2151C25.0449 102.059 32.1162 117.041 46.2422 128.678C60.3157 140.225 78.8649 146.273 97.4017 146.621C115.938 146.969 134.463 141.616 148.683 130.492C162.813 119.42 169.986 104.714 170.038 89.8698C170.089 75.0257 163.056 59.9002 148.983 48.3538ZM159.562 89.6034C159.528 102.373 153.492 114.844 141.391 124.381C129.237 133.826 113.396 138.358 97.5986 138.128C81.749 137.808 65.9434 132.726 53.8078 122.853C41.7633 112.928 35.7193 100.146 35.7537 87.3764C35.8408 74.6974 41.8241 62.1357 53.9254 52.5989C66.0268 43.0622 81.9204 38.6218 97.7175 38.8514C113.567 39.1722 129.373 44.2541 141.508 54.1264C153.605 64.1423 159.506 76.8859 159.562 89.6034Z" fill="url(#paint4_linear_92_3947)"/>
<path d="M159.562 89.6036C159.528 102.374 153.492 114.844 141.391 124.381C129.237 133.827 113.396 138.358 97.5987 138.128C81.749 137.808 65.9434 132.726 53.8078 122.854C41.7634 112.929 35.7193 100.147 35.7538 87.3765C35.8408 74.6976 41.8242 62.1358 53.9255 52.5991C66.0268 43.0624 81.9205 38.622 97.7175 38.8516C113.567 39.1724 129.373 44.2543 141.508 54.1266C153.605 64.1425 159.506 76.8861 159.562 89.6036Z" stroke="url(#paint5_linear_92_3947)" stroke-miterlimit="10"/>
<path d="M71.75 71.6942L71.6073 74.8123L64.4724 68.9743L64.5625 65.7652L71.75 71.6942Z" fill="url(#paint6_linear_92_3947)"/>
<path d="M99.871 68.4515L99.7284 71.5696C94.6067 72.5837 90.2314 74.2598 86.459 76.5593L86.6016 73.4412C90.3741 71.1417 94.7493 69.4656 99.871 68.4515Z" fill="url(#paint7_linear_92_3947)"/>
<path d="M80.2726 78.6737L80.13 81.7918C79.0409 83.2706 78.4597 84.5776 78.2954 85.7653L78.4381 82.6472C78.6024 81.4595 79.1835 80.1525 80.2726 78.6737Z" fill="url(#paint8_linear_92_3947)"/>
<path d="M89.4365 86.1332L89.3464 89.3424L80.1299 81.7919L80.2726 78.6738L89.4365 86.1332Z" fill="url(#paint9_linear_92_3947)"/>
<path d="M117.669 93.39L117.527 96.5081C117.547 95.2819 117.06 94.2275 115.921 93.3065C114.835 92.4765 113.58 91.9865 112.081 92.1236C110.62 92.117 108.862 92.6466 106.83 93.3339L106.972 90.2158C108.952 89.4374 110.763 88.9989 112.224 89.0055C113.776 88.9594 114.977 89.3584 116.064 90.1884C117.203 91.1094 117.69 92.1638 117.669 93.39Z" fill="url(#paint10_linear_92_3947)"/>
<path d="M117.669 93.39L117.527 96.5081C117.547 95.2819 117.06 94.2275 115.921 93.3065C114.835 92.4765 113.58 91.9865 112.081 92.1236C110.62 92.117 108.862 92.6466 106.83 93.3339L106.972 90.2158C108.952 89.4374 110.763 88.9989 112.224 89.0055C113.776 88.9594 114.977 89.3584 116.064 90.1884C117.203 91.1094 117.69 92.1638 117.669 93.39Z" fill="url(#paint11_linear_92_3947)"/>
<path d="M117.684 93.625L117.541 96.7431L117.527 96.5084L117.669 93.3903L117.684 93.625Z" fill="url(#paint12_linear_92_3947)"/>
<path d="M98.9017 93.9042L98.7591 97.0223C94.9584 98.8523 91.5991 100.185 88.5899 101.072C85.5807 101.959 82.4908 102.286 79.2675 101.961C76.0443 101.637 73.0904 100.306 70.2624 97.9319C66.7405 94.9866 64.9772 91.5117 65.0109 87.3637C65.0494 87.22 64.9968 87.1289 65.0353 86.9853L65.1779 83.8672C65.1394 84.0108 65.192 84.1019 65.1535 84.2456C65.1198 88.3936 66.8832 91.8685 70.4051 94.8137C73.2331 97.1882 76.278 98.466 79.4102 98.8433C82.6334 99.1681 85.6323 98.8939 88.7325 97.954C91.7417 97.0666 95.1011 95.7342 98.9017 93.9042Z" fill="url(#paint13_linear_92_3947)"/>
<path d="M109.702 102.726L109.56 105.844L98.8117 97.1135L98.9017 93.9043L109.702 102.726Z" fill="url(#paint14_linear_92_3947)"/>
<path d="M130.839 92.2228L130.748 95.432C130.61 99.3979 128.358 103.491 124.229 107.696L124.372 104.578C128.592 100.32 130.7 96.1887 130.839 92.2228Z" fill="url(#paint15_linear_92_3947)"/>
<path d="M125.163 115.414L124.93 118.585L117.991 112.876L118.081 109.667L125.163 115.414Z" fill="url(#paint16_linear_92_3947)"/>
<path d="M131.598 110.364L131.508 113.573L124.93 118.585L125.163 115.414L131.598 110.364Z" fill="url(#paint17_linear_92_3947)"/>
<path d="M118.081 109.667L117.991 112.876C114.597 115.2 110.993 117.16 107.216 118.611C103.349 120.116 99.9614 120.979 96.8189 121.214L96.9616 118.096C100.104 117.86 103.583 116.945 107.359 115.493C111.174 113.898 114.74 112.082 118.081 109.667Z" fill="url(#paint18_linear_92_3947)"/>
<path d="M116.764 77.5201C119.987 77.8449 122.941 79.1752 125.717 81.4586C129.238 84.4039 130.949 87.7876 130.915 91.9357C130.829 95.9927 128.63 100.177 124.463 104.526L131.65 110.455L125.216 115.505L118.225 109.706C114.831 112.03 111.226 113.989 107.45 115.441C103.583 116.945 100.195 117.808 97.0526 118.044L92.7334 108.88C95.5886 108.567 98.4683 107.876 101.516 106.845C104.564 105.814 107.31 104.472 109.846 102.765L99.0454 93.9429C95.2447 95.7729 91.8853 97.1053 88.8762 97.9926C85.867 98.8799 82.7771 99.2067 79.5538 98.882C76.3306 98.5572 73.3767 97.2268 70.5487 94.8524C67.0268 91.9071 65.2635 88.4323 65.2972 84.2842C65.3309 80.1361 67.5297 75.9523 71.9321 71.5891L64.7972 65.7512L71.2314 60.7007L78.2227 66.5001C83.932 62.7181 89.6349 60.397 95.2786 59.4458L100.015 68.4901C94.893 69.5042 90.5177 71.1803 86.7452 73.4797L97.6508 82.4836C101.36 80.7062 104.72 79.3738 107.676 78.3954C110.542 77.4695 113.632 77.1427 116.764 77.5201ZM89.4364 86.1333L80.2726 78.6739C79.0013 80.2579 78.3817 81.7085 78.5047 82.9732C78.5367 84.2905 79.1676 85.3833 80.3065 86.3044C81.3929 87.1344 82.6473 87.6244 84.1467 87.4873C85.6987 87.4413 87.4187 87.0553 89.4364 86.1333ZM117.669 93.3904C117.69 92.1642 117.203 91.1098 116.064 90.1887C114.978 89.3588 113.723 88.8687 112.224 89.0058C110.763 88.9993 109.004 89.5289 106.972 90.2162L115.796 97.5075C117.12 96.0146 117.649 94.6166 117.669 93.3904Z" fill="url(#paint19_linear_92_3947)"/>
<path d="M96.909 118.005L96.6753 121.176L92.4472 111.959L92.5898 108.841L96.909 118.005Z" fill="url(#paint20_linear_92_3947)"/>
<path d="M116.764 77.5201C119.987 77.8449 122.941 79.1752 125.717 81.4586C129.238 84.4039 130.949 87.7876 130.915 91.9357C130.829 95.9927 128.63 100.177 124.463 104.526L131.65 110.455L125.216 115.505L118.225 109.706C114.831 112.03 111.226 113.989 107.45 115.441C103.583 116.945 100.195 117.808 97.0526 118.044L92.7334 108.88C95.5886 108.567 98.4683 107.876 101.516 106.845C104.564 105.814 107.31 104.472 109.846 102.765L99.0454 93.9429C95.2447 95.7729 91.8853 97.1053 88.8762 97.9926C85.867 98.8799 82.7771 99.2067 79.5538 98.882C76.3306 98.5572 73.3767 97.2268 70.5487 94.8524C67.0268 91.9071 65.2635 88.4323 65.2972 84.2842C65.3309 80.1361 67.5297 75.9523 71.9321 71.5891L64.7972 65.7512L71.2314 60.7007L78.2227 66.5001C83.932 62.7181 89.6349 60.397 95.2786 59.4458L100.015 68.4901C94.893 69.5042 90.5177 71.1803 86.7452 73.4797L97.6508 82.4836C101.36 80.7062 104.72 79.3738 107.676 78.3954C110.542 77.4695 113.632 77.1427 116.764 77.5201ZM89.4364 86.1333L80.2726 78.6739C79.0013 80.2579 78.3817 81.7085 78.5047 82.9732C78.5367 84.2905 79.1676 85.3833 80.3065 86.3044C81.3929 87.1344 82.6473 87.6244 84.1467 87.4873C85.6987 87.4413 87.4187 87.0553 89.4364 86.1333ZM117.669 93.3904C117.69 92.1642 117.203 91.1098 116.064 90.1887C114.978 89.3588 113.723 88.8687 112.224 89.0058C110.763 88.9993 109.004 89.5289 106.972 90.2162L115.796 97.5075C117.12 96.0146 117.649 94.6166 117.669 93.3904Z" stroke="url(#paint21_linear_92_3947)" stroke-width="0.5" stroke-miterlimit="10"/>
<defs>
<filter id="filter0_d_92_3947" x="31.7537" y="38.8433" width="131.809" height="113.293" filterUnits="userSpaceOnUse" color-interpolation-filters="sRGB">
<feFlood flood-opacity="0" result="BackgroundImageFix"/>
<feColorMatrix in="SourceAlpha" type="matrix" values="0 0 0 0 0 0 0 0 0 0 0 0 0 0 0 0 0 0 127 0" result="hardAlpha"/>
<feOffset dy="10"/>
<feGaussianBlur stdDeviation="2"/>
<feComposite in2="hardAlpha" operator="out"/>
<feColorMatrix type="matrix" values="0 0 0 0 0 0 0 0 0 0 0 0 0 0 0 0 0 0 0.25 0"/>
<feBlend mode="normal" in2="BackgroundImageFix" result="effect1_dropShadow_92_3947"/>
<feBlend mode="normal" in="SourceGraphic" in2="effect1_dropShadow_92_3947" result="shape"/>
</filter>
<linearGradient id="paint0_linear_92_3947" x1="192.786" y1="113.994" x2="6.47378" y2="64.0718" gradientUnits="userSpaceOnUse">
<stop stop-color="#D7AC4C"/>
<stop offset="0.1816" stop-color="#FFFFB0"/>
<stop offset="0.3268" stop-color="#F4D174"/>
<stop offset="0.3659" stop-color="#FBED99"/>
<stop offset="0.3939" stop-color="#FAEC97"/>
<stop offset="0.433" stop-color="#DEB04D"/>
<stop offset="0.5275" stop-color="#DFB24F"/>
<stop offset="0.5615" stop-color="#E2B756"/>
<stop offset="0.5858" stop-color="#E7C161"/>
<stop offset="0.6053" stop-color="#EECF72"/>
<stop offset="0.6207" stop-color="#F6DF86"/>
<stop offset="0.7529" stop-color="#F2D87E"/>
<stop offset="0.7672" stop-color="#F1D77D"/>
<stop offset="0.7716" stop-color="#EBCD71"/>
<stop offset="0.7804" stop-color="#E2BE60"/>
<stop offset="0.7913" stop-color="#DCB455"/>
<stop offset="0.8066" stop-color="#D8AE4E"/>
<stop offset="0.8492" stop-color="#D7AC4C"/>
<stop offset="1" stop-color="#966424"/>
</linearGradient>
<linearGradient id="paint1_linear_92_3947" x1="159.077" y1="65.1795" x2="38.6363" y2="67.5502" gradientUnits="userSpaceOnUse">
<stop stop-color="#A16C0C"/>
<stop offset="0.2318" stop-color="#DFC072"/>
<stop offset="0.5559" stop-color="#A8700D"/>
<stop offset="0.7458" stop-color="#FADB85"/>
<stop offset="0.802" stop-color="#A16C0C"/>
<stop offset="0.9335" stop-color="#6C4405"/>
</linearGradient>
<linearGradient id="paint2_linear_92_3947" x1="158.328" y1="92.6994" x2="160.581" y2="91.3986" gradientUnits="userSpaceOnUse">
<stop stop-color="#A16C0C"/>
<stop offset="0.1816" stop-color="#C9BF70"/>
<stop offset="0.3268" stop-color="#BE9134"/>
<stop offset="0.433" stop-color="#A8700D"/>
<stop offset="0.7067" stop-color="#C09F46"/>
<stop offset="0.8492" stop-color="#A16C0C"/>
<stop offset="1" stop-color="#602400"/>
</linearGradient>
<linearGradient id="paint3_linear_92_3947" x1="-14.5964" y1="109.778" x2="171.666" y2="131.107" gradientUnits="userSpaceOnUse">
<stop stop-color="#B39200"/>
<stop offset="0.0568408" stop-color="#AD8C01"/>
<stop offset="0.1314" stop-color="#9D7C04"/>
<stop offset="0.2156" stop-color="#836108"/>
<stop offset="0.2585" stop-color="#73500B"/>
<stop offset="0.2799" stop-color="#795311"/>
<stop offset="0.3592" stop-color="#8B5D24"/>
<stop offset="0.4146" stop-color="#91612B"/>
<stop offset="0.4344" stop-color="#976707"/>
<stop offset="0.5299" stop-color="#D8B364"/>
<stop offset="0.5502" stop-color="#D4AE5D"/>
<stop offset="0.5792" stop-color="#CA9F4A"/>
<stop offset="0.6132" stop-color="#B9882C"/>
<stop offset="0.6414" stop-color="#A8700D"/>
<stop offset="0.6805" stop-color="#815400"/>
<stop offset="0.8029" stop-color="#B38136"/>
<stop offset="0.8189" stop-color="#A2712D"/>
<stop offset="0.8549" stop-color="#81511C"/>
<stop offset="0.8849" stop-color="#6C3D11"/>
<stop offset="0.9049" stop-color="#65360D"/>
<stop offset="0.9126" stop-color="#6F3F0D"/>
<stop offset="0.938" stop-color="#8A580C"/>
<stop offset="0.9603" stop-color="#9B670C"/>
<stop offset="0.9772" stop-color="#A16C0C"/>
<stop offset="1" stop-color="#B9924B"/>
</linearGradient>
<linearGradient id="paint4_linear_92_3947" x1="191.205" y1="104.205" x2="-16.5426" y2="69.3252" gradientUnits="userSpaceOnUse">
<stop stop-color="#D7AC4C"/>
<stop offset="0.1816" stop-color="#FFFFB0"/>
<stop offset="0.3268" stop-color="#F4D174"/>
<stop offset="0.3659" stop-color="#FBED99"/>
<stop offset="0.3939" stop-color="#FAEC97"/>
<stop offset="0.433" stop-color="#DEB04D"/>
<stop offset="0.5275" stop-color="#DFB24F"/>
<stop offset="0.5615" stop-color="#E2B756"/>
<stop offset="0.5858" stop-color="#E7C161"/>
<stop offset="0.6053" stop-color="#EECF72"/>
<stop offset="0.6207" stop-color="#F6DF86"/>
<stop offset="0.7529" stop-color="#F2D87E"/>
<stop offset="0.7672" stop-color="#F1D77D"/>
<stop offset="0.7716" stop-color="#EBCD71"/>
<stop offset="0.7804" stop-color="#E2BE60"/>
<stop offset="0.7913" stop-color="#DCB455"/>
<stop offset="0.8066" stop-color="#D8AE4E"/>
<stop offset="0.8492" stop-color="#D7AC4C"/>
<stop offset="1" stop-color="#966424"/>
</linearGradient>
<linearGradient id="paint5_linear_92_3947" x1="36.7187" y1="75.6215" x2="158.467" y2="101.352" gradientUnits="userSpaceOnUse">
<stop stop-color="#D7AC4C"/>
<stop offset="0.1816" stop-color="#FFFFB0"/>
<stop offset="0.3268" stop-color="#F4D174"/>
<stop offset="0.433" stop-color="#DEB04D"/>
<stop offset="0.7067" stop-color="#F6DF86"/>
<stop offset="0.8492" stop-color="#D7AC4C"/>
<stop offset="1" stop-color="#966424"/>
</linearGradient>
<linearGradient id="paint6_linear_92_3947" x1="61.461" y1="67.7803" x2="72.9382" y2="72.0825" gradientUnits="userSpaceOnUse">
<stop stop-color="#A16C0C"/>
<stop offset="0.2318" stop-color="#BE9134"/>
<stop offset="0.5559" stop-color="#A8700D"/>
<stop offset="1" stop-color="#432400"/>
</linearGradient>
<linearGradient id="paint7_linear_92_3947" x1="100.155" y1="70.1657" x2="87.064" y2="74.3083" gradientUnits="userSpaceOnUse">
<stop stop-color="#A16C0C"/>
<stop offset="0.2318" stop-color="#BE9134"/>
<stop offset="0.5559" stop-color="#A8700D"/>
<stop offset="1" stop-color="#432400"/>
</linearGradient>
<linearGradient id="paint8_linear_92_3947" x1="76.0359" y1="86.7892" x2="81.1772" y2="79.7226" gradientUnits="userSpaceOnUse">
<stop stop-color="#A16C0C"/>
<stop offset="0.2318" stop-color="#BE9134"/>
<stop offset="0.5559" stop-color="#A8700D"/>
<stop offset="1" stop-color="#432400"/>
</linearGradient>
<linearGradient id="paint9_linear_92_3947" x1="89.7571" y1="85.1053" x2="79.4135" y2="82.7667" gradientUnits="userSpaceOnUse">
<stop stop-color="#A16C0C"/>
<stop offset="0.2318" stop-color="#BE9134"/>
<stop offset="0.5559" stop-color="#A8700D"/>
<stop offset="1" stop-color="#432400"/>
</linearGradient>
<linearGradient id="paint10_linear_92_3947" x1="108.223" y1="95.7204" x2="116.798" y2="90.7699" gradientUnits="userSpaceOnUse">
<stop stop-color="#A16C0C"/>
<stop offset="0.2318" stop-color="#BE9134"/>
<stop offset="0.5559" stop-color="#A8700D"/>
<stop offset="1" stop-color="#432400"/>
</linearGradient>
<linearGradient id="paint11_linear_92_3947" x1="125.727" y1="92.8888" x2="105.439" y2="92.649" gradientUnits="userSpaceOnUse">
<stop stop-color="#A16C0C"/>
<stop offset="0.2318" stop-color="#BE9134"/>
<stop offset="0.5559" stop-color="#A8700D"/>
<stop offset="1" stop-color="#432400"/>
</linearGradient>
<linearGradient id="paint12_linear_92_3947" x1="116.853" y1="95.5156" x2="118.41" y2="94.6169" gradientUnits="userSpaceOnUse">
<stop stop-color="#A16C0C"/>
<stop offset="0.1816" stop-color="#DBBF7D"/>
<stop offset="0.3268" stop-color="#BE9134"/>
<stop offset="0.433" stop-color="#A8700D"/>
<stop offset="0.7067" stop-color="#D9AA59"/>
<stop offset="0.8492" stop-color="#A16C0C"/>
<stop offset="1" stop-color="#602400"/>
</linearGradient>
<linearGradient id="paint13_linear_92_3947" x1="69.0194" y1="97.9603" x2="93.1969" y2="84.0014" gradientUnits="userSpaceOnUse">
<stop stop-color="#A16C0C"/>
<stop offset="0.2318" stop-color="#BE9134"/>
<stop offset="0.5559" stop-color="#A8700D"/>
<stop offset="1" stop-color="#432400"/>
</linearGradient>
<linearGradient id="paint14_linear_92_3947" x1="115.07" y1="102.315" x2="93.6737" y2="97.5926" gradientUnits="userSpaceOnUse">
<stop stop-color="#A16C0C"/>
<stop offset="0.2318" stop-color="#BE9134"/>
<stop offset="0.5559" stop-color="#A8700D"/>
<stop offset="1" stop-color="#432400"/>
</linearGradient>
<linearGradient id="paint15_linear_92_3947" x1="137.122" y1="93.9561" x2="120.562" y2="104.314" gradientUnits="userSpaceOnUse">
<stop stop-color="#A16C0C"/>
<stop offset="0.2318" stop-color="#BE9134"/>
<stop offset="0.5559" stop-color="#A8700D"/>
<stop offset="1" stop-color="#432400"/>
</linearGradient>
<linearGradient id="paint16_linear_92_3947" x1="129.969" y1="115.144" x2="113.464" y2="113.175" gradientUnits="userSpaceOnUse">
<stop stop-color="#A16C0C"/>
<stop offset="0.2318" stop-color="#BE9134"/>
<stop offset="0.5559" stop-color="#A8700D"/>
<stop offset="1" stop-color="#432400"/>
</linearGradient>
<linearGradient id="paint17_linear_92_3947" x1="126.256" y1="111.458" x2="129.506" y2="116.298" gradientUnits="userSpaceOnUse">
<stop stop-color="#A16C0C"/>
<stop offset="0.2318" stop-color="#BE9134"/>
<stop offset="0.5559" stop-color="#A8700D"/>
<stop offset="1" stop-color="#432400"/>
</linearGradient>
<linearGradient id="paint18_linear_92_3947" x1="96.9601" y1="121.584" x2="117.982" y2="109.447" gradientUnits="userSpaceOnUse">
<stop stop-color="#A16C0C"/>
<stop offset="0.2318" stop-color="#BE9134"/>
<stop offset="0.5559" stop-color="#A8700D"/>
<stop offset="1" stop-color="#432400"/>
</linearGradient>
<linearGradient id="paint19_linear_92_3947" x1="132.396" y1="99.1517" x2="37.1206" y2="71.8905" gradientUnits="userSpaceOnUse">
<stop stop-color="#D7AC4C"/>
<stop offset="0.1816" stop-color="#FFFFB0"/>
<stop offset="0.3268" stop-color="#F4D174"/>
<stop offset="0.3659" stop-color="#FBED99"/>
<stop offset="0.3939" stop-color="#FAEC97"/>
<stop offset="0.433" stop-color="#DEB04D"/>
<stop offset="0.5275" stop-color="#DFB24F"/>
<stop offset="0.5615" stop-color="#E2B756"/>
<stop offset="0.5858" stop-color="#E7C161"/>
<stop offset="0.6053" stop-color="#EECF72"/>
<stop offset="0.6207" stop-color="#F6DF86"/>
<stop offset="0.7529" stop-color="#F2D87E"/>
<stop offset="0.7672" stop-color="#F1D77D"/>
<stop offset="0.7716" stop-color="#EBCD71"/>
<stop offset="0.7804" stop-color="#E2BE60"/>
<stop offset="0.7913" stop-color="#DCB455"/>
<stop offset="0.8066" stop-color="#D8AE4E"/>
<stop offset="0.8492" stop-color="#D7AC4C"/>
<stop offset="1" stop-color="#966424"/>
</linearGradient>
<linearGradient id="paint20_linear_92_3947" x1="109.054" y1="123.881" x2="82.1745" y2="107.297" gradientUnits="userSpaceOnUse">
<stop stop-color="#A16C0C"/>
<stop offset="0.2318" stop-color="#BE9134"/>
<stop offset="0.5559" stop-color="#A8700D"/>
<stop offset="1" stop-color="#432400"/>
</linearGradient>
<linearGradient id="paint21_linear_92_3947" x1="60.9078" y1="81.3173" x2="134.864" y2="96.9474" gradientUnits="userSpaceOnUse">
<stop stop-color="#D7AC4C"/>
<stop offset="0.1816" stop-color="#FFFFB0"/>
<stop offset="0.3268" stop-color="#F4D174"/>
<stop offset="0.433" stop-color="#DEB04D"/>
<stop offset="0.7067" stop-color="#F6DF86"/>
<stop offset="0.8492" stop-color="#D7AC4C"/>
<stop offset="1" stop-color="#966424"/>
</linearGradient>
</defs>
</svg>
