<svg width="185" height="183" viewBox="0 0 185 183" fill="none" xmlns="http://www.w3.org/2000/svg">
<g filter="url(#filter0_f_5_6400)">
<path d="M33.1304 97.0035C33.1631 84.8602 38.9028 73.0016 50.4102 63.933C61.9676 54.9509 77.0311 50.6418 92.0529 50.8602C107.125 51.1652 122.154 55.9977 133.694 65.3855C145.148 74.8232 150.895 86.978 150.862 99.1212C150.78 111.178 145.09 123.123 133.583 132.192C122.075 141.26 106.962 145.483 91.9399 145.265C76.8681 144.96 61.8383 140.127 50.2983 130.739C38.795 121.215 33.1842 109.097 33.1304 97.0035Z" fill="url(#paint0_linear_5_6400)"/>
<path d="M33.1304 97.0035L33.266 94.0385C33.2333 106.182 38.9306 118.25 50.434 127.774C61.8873 137.212 76.9672 142.131 92.0755 142.299C107.147 142.604 122.211 138.295 133.718 129.227C144.719 120.681 150.536 109.356 151.055 97.8552L150.92 100.82C150.4 112.321 144.67 123.596 133.583 132.192C122.025 141.174 106.962 145.483 91.9399 145.265C76.8681 144.96 61.8383 140.127 50.2983 130.739C38.795 121.215 33.0976 109.147 33.1304 97.0035Z" fill="url(#paint1_linear_5_6400)"/>
<path d="M33.2098 95.3412L33.3454 92.3762C33.3356 92.9592 33.2758 93.4556 33.266 94.0386L33.1304 97.0037C33.1402 96.4206 33.2 95.9242 33.2098 95.3412Z" fill="url(#paint2_linear_5_6400)"/>
<path d="M23.2352 94.8645L23.8804 80.982C24.5524 67.5459 31.2411 54.3311 44.1207 44.2393C57.5565 33.7108 75.3084 28.6579 92.8854 28.9022C110.512 29.233 128.151 34.9842 141.534 45.9638C154.967 57.03 161.691 71.2766 161.642 85.3921C161.682 86.0617 161.076 97.6121 161.066 98.1952L160.931 101.16C160.941 100.577 160.987 99.8576 160.947 99.188C160.996 85.0725 154.271 70.8259 140.839 59.7597C127.456 48.78 109.817 43.0289 92.1902 42.6981C74.5632 42.3672 56.9479 47.4567 43.4255 58.0352C30.5959 68.2136 23.7706 81.3918 23.2352 94.8645Z" fill="url(#paint3_linear_5_6400)"/>
<path d="M43.1907 136.229C56.5735 147.208 74.2122 152.959 91.8391 153.29C109.553 153.571 127.168 148.482 140.74 137.99C154.176 127.461 160.948 113.39 160.997 99.2747C161.046 85.1591 154.321 70.9125 140.889 59.8463C127.506 48.8667 109.867 43.1156 92.2402 42.7847C74.6132 42.4539 56.9979 47.5434 43.4755 58.1218C30.0397 68.6503 23.2179 82.6347 23.1692 96.7502C23.1204 110.866 29.8079 125.249 43.1907 136.229ZM33.1304 97.0036C33.1631 84.8603 38.9028 73.0017 50.4102 63.9331C61.9675 54.951 77.0311 50.6419 92.0529 50.8603C107.125 51.1653 122.154 55.9978 133.694 65.3856C145.148 74.8233 150.895 86.9781 150.862 99.1213C150.78 111.178 145.09 123.123 133.583 132.192C122.075 141.26 106.962 145.483 91.9399 145.265C76.8681 144.96 61.8383 140.127 50.2983 130.739C38.795 121.215 33.1842 109.097 33.1304 97.0036Z" fill="url(#paint4_linear_5_6400)"/>
<path d="M33.1304 97.0035C33.1631 84.8602 38.9028 73.0016 50.4102 63.933C61.9676 54.9509 77.0311 50.6418 92.0529 50.8602C107.125 51.1652 122.154 55.9977 133.694 65.3855C145.148 74.8232 150.895 86.978 150.862 99.1212C150.78 111.178 145.09 123.123 133.583 132.192C122.075 141.26 106.962 145.483 91.9399 145.265C76.8681 144.96 61.8383 140.127 50.2983 130.739C38.795 121.215 33.1842 109.097 33.1304 97.0035Z" stroke="url(#paint5_linear_5_6400)" stroke-miterlimit="10"/>
<path d="M116.633 114.034L116.768 111.069L123.553 116.62L123.467 119.672L116.633 114.034Z" fill="url(#paint6_linear_5_6400)"/>
<path d="M89.892 117.117L90.0276 114.152C94.8979 113.188 99.0584 111.594 102.646 109.408L102.51 112.373C98.9228 114.559 94.7623 116.153 89.892 117.117Z" fill="url(#paint7_linear_5_6400)"/>
<path d="M108.529 107.397L108.664 104.432C109.7 103.026 110.252 101.783 110.409 100.653L110.273 103.619C110.117 104.748 109.564 105.991 108.529 107.397Z" fill="url(#paint8_linear_5_6400)"/>
<path d="M99.8144 100.304L99.9 97.252L108.664 104.432L108.529 107.397L99.8144 100.304Z" fill="url(#paint9_linear_5_6400)"/>
<path d="M72.9671 93.4027L73.1027 90.4376C73.0831 91.6037 73.5465 92.6063 74.6295 93.4821C75.6626 94.2714 76.8554 94.7374 78.2812 94.607C79.6704 94.6132 81.3427 94.1096 83.2747 93.456L83.1391 96.4211C81.257 97.1613 79.5348 97.5783 78.1456 97.5721C76.6697 97.6158 75.5269 97.2364 74.4939 96.4472C73.4109 95.5714 72.9475 94.5687 72.9671 93.4027Z" fill="url(#paint10_linear_5_6400)"/>
<path d="M72.9671 93.4027L73.1027 90.4376C73.0831 91.6037 73.5465 92.6063 74.6295 93.4821C75.6626 94.2714 76.8554 94.7374 78.2812 94.607C79.6704 94.6132 81.3427 94.1096 83.2747 93.456L83.1391 96.4211C81.257 97.1613 79.5348 97.5783 78.1456 97.5721C76.6697 97.6158 75.5269 97.2364 74.4939 96.4472C73.4109 95.5714 72.9475 94.5687 72.9671 93.4027Z" fill="url(#paint11_linear_5_6400)"/>
<path d="M72.9537 93.1795L73.0893 90.2145L73.1027 90.4377L72.9671 93.4027L72.9537 93.1795Z" fill="url(#paint12_linear_5_6400)"/>
<path d="M90.8137 92.914L90.9493 89.9489C94.5634 88.2087 97.7579 86.9418 100.619 86.098C103.481 85.2542 106.419 84.9434 109.484 85.2523C112.549 85.5611 115.358 86.8262 118.047 89.0841C121.396 91.8848 123.073 95.1891 123.041 99.1335C123.005 99.2702 123.055 99.3568 123.018 99.4934L122.882 102.458C122.919 102.322 122.869 102.235 122.905 102.099C122.938 98.1541 121.261 94.8498 117.912 92.0491C115.222 89.7912 112.327 88.5762 109.349 88.2173C106.284 87.9085 103.432 88.1693 100.484 89.063C97.6223 89.9068 94.4278 91.1738 90.8137 92.914Z" fill="url(#paint13_linear_5_6400)"/>
<path d="M80.5434 84.5253L80.679 81.5602L90.8993 89.8623L90.8137 92.914L80.5434 84.5253Z" fill="url(#paint14_linear_5_6400)"/>
<path d="M60.4444 94.5128L60.53 91.4611C60.6621 87.6898 62.803 83.798 66.7295 79.7989L66.5939 82.764C62.5808 86.8131 60.5765 90.7415 60.4444 94.5128Z" fill="url(#paint15_linear_5_6400)"/>
<path d="M65.841 72.4599L66.0633 69.4449L72.6613 74.8731L72.5757 77.9248L65.841 72.4599Z" fill="url(#paint16_linear_5_6400)"/>
<path d="M59.7226 77.2627L59.8083 74.2111L66.0633 69.445L65.841 72.4601L59.7226 77.2627Z" fill="url(#paint17_linear_5_6400)"/>
<path d="M72.5757 77.9249L72.6613 74.8733C75.8888 72.6635 79.3163 70.8001 82.9072 69.4197C86.5847 67.9893 89.806 67.1687 92.7943 66.9446L92.6586 69.9096C89.6704 70.1338 86.3625 71.0044 82.7716 72.3847C79.1441 73.9017 75.7532 75.6285 72.5757 77.9249Z" fill="url(#paint18_linear_5_6400)"/>
<path d="M73.8281 108.494C70.7631 108.185 67.9542 106.92 65.315 104.749C61.966 101.948 60.3392 98.7306 60.3712 94.7861C60.4533 90.9282 62.5442 86.9497 66.5073 82.8141L59.6726 77.1761L65.791 72.3734L72.4391 77.8883C75.6666 75.6784 79.0941 73.8151 82.685 72.4347C86.3625 71.0043 89.5838 70.1837 92.572 69.9595L96.6792 78.6734C93.9642 78.9708 91.2259 79.6279 88.3278 80.6083C85.4297 81.5887 82.8183 82.8655 80.4068 84.4887L90.6771 92.8774C94.2912 91.1372 97.4857 89.8702 100.347 89.0265C103.209 88.1827 106.147 87.8719 109.212 88.1808C112.277 88.4896 115.086 89.7547 117.775 92.0126C121.124 94.8133 122.801 98.1176 122.769 102.062C122.737 106.007 120.646 109.985 116.46 114.134L123.244 119.685L117.126 124.488L110.478 118.973C105.049 122.57 99.6257 124.777 94.259 125.681L89.7554 117.081C94.6257 116.117 98.7862 114.523 102.374 112.336L92.0032 103.774C88.4757 105.464 85.2812 106.731 82.4697 107.662C79.7449 108.542 76.8066 108.853 73.8281 108.494ZM99.8144 100.304L108.529 107.397C109.737 105.891 110.327 104.511 110.21 103.309C110.179 102.056 109.579 101.017 108.496 100.141C107.463 99.3518 106.27 98.8858 104.845 99.0161C103.369 99.0599 101.733 99.4269 99.8144 100.304ZM72.9671 93.4028C72.9475 94.5688 73.4109 95.5715 74.4939 96.4473C75.5269 97.2365 76.7197 97.7025 78.1456 97.5722C79.5348 97.5784 81.207 97.0748 83.1391 96.4212L74.7482 89.4877C73.4893 90.9074 72.9867 92.2368 72.9671 93.4028Z" fill="url(#paint19_linear_5_6400)"/>
<path d="M92.7086 69.9961L92.9309 66.9811L96.9515 75.7449L96.8158 78.71L92.7086 69.9961Z" fill="url(#paint20_linear_5_6400)"/>
<path d="M73.8281 108.494C70.7631 108.185 67.9542 106.92 65.315 104.749C61.9659 101.948 60.3392 98.7306 60.3712 94.7861C60.4533 90.9282 62.5442 86.9497 66.5073 82.8141L59.6726 77.1761L65.791 72.3734L72.4391 77.8883C75.6666 75.6784 79.0941 73.8151 82.685 72.4347C86.3625 71.0043 89.5838 70.1837 92.572 69.9595L96.6792 78.6734C93.9642 78.9708 91.2259 79.6279 88.3278 80.6083C85.4297 81.5887 82.8183 82.8655 80.4068 84.4887L90.6771 92.8774C94.2912 91.1372 97.4857 89.8702 100.347 89.0265C103.209 88.1827 106.147 87.8719 109.212 88.1808C112.277 88.4896 115.086 89.7547 117.775 92.0126C121.124 94.8133 122.801 98.1175 122.769 102.062C122.737 106.007 120.646 109.985 116.46 114.134L123.244 119.685L117.126 124.488L110.478 118.973C105.049 122.57 99.6257 124.777 94.259 125.681L89.7554 117.081C94.6257 116.117 98.7862 114.523 102.374 112.336L92.0032 103.774C88.4757 105.464 85.2812 106.731 82.4697 107.662C79.7449 108.542 76.8066 108.853 73.8281 108.494ZM99.8144 100.304L108.529 107.397C109.737 105.891 110.327 104.511 110.21 103.309C110.179 102.056 109.579 101.017 108.496 100.141C107.463 99.3518 106.27 98.8858 104.845 99.0161C103.369 99.0599 101.733 99.4269 99.8144 100.304ZM72.9671 93.4028C72.9475 94.5688 73.4109 95.5715 74.4939 96.4473C75.5269 97.2365 76.7197 97.7025 78.1456 97.5722C79.5348 97.5784 81.207 97.0748 83.1391 96.4212L74.7482 89.4877C73.4893 90.9074 72.9867 92.2368 72.9671 93.4028Z" stroke="url(#paint21_linear_5_6400)" stroke-width="0.5" stroke-miterlimit="10"/>
</g>
<defs>
<filter id="filter0_f_5_6400" x="-10.0002" y="-9.98022" width="204.861" height="202.189" filterUnits="userSpaceOnUse" color-interpolation-filters="sRGB">
<feFlood flood-opacity="0" result="BackgroundImageFix"/>
<feBlend mode="normal" in="SourceGraphic" in2="BackgroundImageFix" result="shape"/>
<feGaussianBlur stdDeviation="5" result="effect1_foregroundBlur_5_6400"/>
</filter>
<linearGradient id="paint0_linear_5_6400" x1="1.53723" y1="73.8101" x2="178.705" y2="121.282" gradientUnits="userSpaceOnUse">
<stop stop-color="#D7AC4C"/>
<stop offset="0.1816" stop-color="#FFFFB0"/>
<stop offset="0.3268" stop-color="#F4D174"/>
<stop offset="0.3659" stop-color="#FBED99"/>
<stop offset="0.3939" stop-color="#FAEC97"/>
<stop offset="0.433" stop-color="#DEB04D"/>
<stop offset="0.5275" stop-color="#DFB24F"/>
<stop offset="0.5615" stop-color="#E2B756"/>
<stop offset="0.5858" stop-color="#E7C161"/>
<stop offset="0.6053" stop-color="#EECF72"/>
<stop offset="0.6207" stop-color="#F6DF86"/>
<stop offset="0.7529" stop-color="#F2D87E"/>
<stop offset="0.7672" stop-color="#F1D77D"/>
<stop offset="0.7716" stop-color="#EBCD71"/>
<stop offset="0.7804" stop-color="#E2BE60"/>
<stop offset="0.7913" stop-color="#DCB455"/>
<stop offset="0.8066" stop-color="#D8AE4E"/>
<stop offset="0.8492" stop-color="#D7AC4C"/>
<stop offset="1" stop-color="#966424"/>
</linearGradient>
<linearGradient id="paint1_linear_5_6400" x1="33.5917" y1="120.229" x2="148.121" y2="117.975" gradientUnits="userSpaceOnUse">
<stop stop-color="#A16C0C"/>
<stop offset="0.2318" stop-color="#DFC072"/>
<stop offset="0.5559" stop-color="#A8700D"/>
<stop offset="0.7458" stop-color="#FADB85"/>
<stop offset="0.802" stop-color="#A16C0C"/>
<stop offset="0.9335" stop-color="#6C4405"/>
</linearGradient>
<linearGradient id="paint2_linear_5_6400" x1="34.304" y1="94.0596" x2="32.1614" y2="95.2966" gradientUnits="userSpaceOnUse">
<stop stop-color="#A16C0C"/>
<stop offset="0.1816" stop-color="#C9BF70"/>
<stop offset="0.3268" stop-color="#BE9134"/>
<stop offset="0.433" stop-color="#A8700D"/>
<stop offset="0.7067" stop-color="#C09F46"/>
<stop offset="0.8492" stop-color="#A16C0C"/>
<stop offset="1" stop-color="#602400"/>
</linearGradient>
<linearGradient id="paint3_linear_5_6400" x1="198.741" y1="77.8189" x2="21.6209" y2="57.5371" gradientUnits="userSpaceOnUse">
<stop stop-color="#B39200"/>
<stop offset="0.0568408" stop-color="#AD8C01"/>
<stop offset="0.1314" stop-color="#9D7C04"/>
<stop offset="0.2156" stop-color="#836108"/>
<stop offset="0.2585" stop-color="#73500B"/>
<stop offset="0.2799" stop-color="#795311"/>
<stop offset="0.3592" stop-color="#8B5D24"/>
<stop offset="0.4146" stop-color="#91612B"/>
<stop offset="0.4344" stop-color="#976707"/>
<stop offset="0.5299" stop-color="#D8B364"/>
<stop offset="0.5502" stop-color="#D4AE5D"/>
<stop offset="0.5792" stop-color="#CA9F4A"/>
<stop offset="0.6132" stop-color="#B9882C"/>
<stop offset="0.6414" stop-color="#A8700D"/>
<stop offset="0.6805" stop-color="#815400"/>
<stop offset="0.8029" stop-color="#B38136"/>
<stop offset="0.8189" stop-color="#A2712D"/>
<stop offset="0.8549" stop-color="#81511C"/>
<stop offset="0.8849" stop-color="#6C3D11"/>
<stop offset="0.9049" stop-color="#65360D"/>
<stop offset="0.9126" stop-color="#6F3F0D"/>
<stop offset="0.938" stop-color="#8A580C"/>
<stop offset="0.9603" stop-color="#9B670C"/>
<stop offset="0.9772" stop-color="#A16C0C"/>
<stop offset="1" stop-color="#B9924B"/>
</linearGradient>
<linearGradient id="paint4_linear_5_6400" x1="3.04088" y1="83.1182" x2="200.592" y2="116.287" gradientUnits="userSpaceOnUse">
<stop stop-color="#D7AC4C"/>
<stop offset="0.1816" stop-color="#FFFFB0"/>
<stop offset="0.3268" stop-color="#F4D174"/>
<stop offset="0.3659" stop-color="#FBED99"/>
<stop offset="0.3939" stop-color="#FAEC97"/>
<stop offset="0.433" stop-color="#DEB04D"/>
<stop offset="0.5275" stop-color="#DFB24F"/>
<stop offset="0.5615" stop-color="#E2B756"/>
<stop offset="0.5858" stop-color="#E7C161"/>
<stop offset="0.6053" stop-color="#EECF72"/>
<stop offset="0.6207" stop-color="#F6DF86"/>
<stop offset="0.7529" stop-color="#F2D87E"/>
<stop offset="0.7672" stop-color="#F1D77D"/>
<stop offset="0.7716" stop-color="#EBCD71"/>
<stop offset="0.7804" stop-color="#E2BE60"/>
<stop offset="0.7913" stop-color="#DCB455"/>
<stop offset="0.8066" stop-color="#D8AE4E"/>
<stop offset="0.8492" stop-color="#D7AC4C"/>
<stop offset="1" stop-color="#966424"/>
</linearGradient>
<linearGradient id="paint5_linear_5_6400" x1="149.945" y1="110.299" x2="34.1719" y2="85.8315" gradientUnits="userSpaceOnUse">
<stop stop-color="#D7AC4C"/>
<stop offset="0.1816" stop-color="#FFFFB0"/>
<stop offset="0.3268" stop-color="#F4D174"/>
<stop offset="0.433" stop-color="#DEB04D"/>
<stop offset="0.7067" stop-color="#F6DF86"/>
<stop offset="0.8492" stop-color="#D7AC4C"/>
<stop offset="1" stop-color="#966424"/>
</linearGradient>
<linearGradient id="paint6_linear_5_6400" x1="126.417" y1="117.756" x2="115.503" y2="113.665" gradientUnits="userSpaceOnUse">
<stop stop-color="#A16C0C"/>
<stop offset="0.2318" stop-color="#BE9134"/>
<stop offset="0.5559" stop-color="#A8700D"/>
<stop offset="1" stop-color="#432400"/>
</linearGradient>
<linearGradient id="paint7_linear_5_6400" x1="89.6223" y1="115.487" x2="102.07" y2="111.548" gradientUnits="userSpaceOnUse">
<stop stop-color="#A16C0C"/>
<stop offset="0.2318" stop-color="#BE9134"/>
<stop offset="0.5559" stop-color="#A8700D"/>
<stop offset="1" stop-color="#432400"/>
</linearGradient>
<linearGradient id="paint8_linear_5_6400" x1="112.557" y1="99.6798" x2="107.668" y2="106.4" gradientUnits="userSpaceOnUse">
<stop stop-color="#A16C0C"/>
<stop offset="0.2318" stop-color="#BE9134"/>
<stop offset="0.5559" stop-color="#A8700D"/>
<stop offset="1" stop-color="#432400"/>
</linearGradient>
<linearGradient id="paint9_linear_5_6400" x1="99.5095" y1="101.281" x2="109.345" y2="103.505" gradientUnits="userSpaceOnUse">
<stop stop-color="#A16C0C"/>
<stop offset="0.2318" stop-color="#BE9134"/>
<stop offset="0.5559" stop-color="#A8700D"/>
<stop offset="1" stop-color="#432400"/>
</linearGradient>
<linearGradient id="paint10_linear_5_6400" x1="81.9496" y1="91.1867" x2="73.7959" y2="95.8942" gradientUnits="userSpaceOnUse">
<stop stop-color="#A16C0C"/>
<stop offset="0.2318" stop-color="#BE9134"/>
<stop offset="0.5559" stop-color="#A8700D"/>
<stop offset="1" stop-color="#432400"/>
</linearGradient>
<linearGradient id="paint11_linear_5_6400" x1="65.3048" y1="93.8793" x2="84.5972" y2="94.1074" gradientUnits="userSpaceOnUse">
<stop stop-color="#A16C0C"/>
<stop offset="0.2318" stop-color="#BE9134"/>
<stop offset="0.5559" stop-color="#A8700D"/>
<stop offset="1" stop-color="#432400"/>
</linearGradient>
<linearGradient id="paint12_linear_5_6400" x1="73.7431" y1="91.3818" x2="72.2629" y2="92.2364" gradientUnits="userSpaceOnUse">
<stop stop-color="#A16C0C"/>
<stop offset="0.1816" stop-color="#DBBF7D"/>
<stop offset="0.3268" stop-color="#BE9134"/>
<stop offset="0.433" stop-color="#A8700D"/>
<stop offset="0.7067" stop-color="#D9AA59"/>
<stop offset="0.8492" stop-color="#A16C0C"/>
<stop offset="1" stop-color="#602400"/>
</linearGradient>
<linearGradient id="paint13_linear_5_6400" x1="119.229" y1="89.057" x2="96.2385" y2="102.331" gradientUnits="userSpaceOnUse">
<stop stop-color="#A16C0C"/>
<stop offset="0.2318" stop-color="#BE9134"/>
<stop offset="0.5559" stop-color="#A8700D"/>
<stop offset="1" stop-color="#432400"/>
</linearGradient>
<linearGradient id="paint14_linear_5_6400" x1="75.4387" y1="84.9157" x2="95.7851" y2="89.4067" gradientUnits="userSpaceOnUse">
<stop stop-color="#A16C0C"/>
<stop offset="0.2318" stop-color="#BE9134"/>
<stop offset="0.5559" stop-color="#A8700D"/>
<stop offset="1" stop-color="#432400"/>
</linearGradient>
<linearGradient id="paint15_linear_5_6400" x1="54.469" y1="92.8646" x2="70.2165" y2="83.015" gradientUnits="userSpaceOnUse">
<stop stop-color="#A16C0C"/>
<stop offset="0.2318" stop-color="#BE9134"/>
<stop offset="0.5559" stop-color="#A8700D"/>
<stop offset="1" stop-color="#432400"/>
</linearGradient>
<linearGradient id="paint16_linear_5_6400" x1="61.2715" y1="72.7168" x2="76.9665" y2="74.5889" gradientUnits="userSpaceOnUse">
<stop stop-color="#A16C0C"/>
<stop offset="0.2318" stop-color="#BE9134"/>
<stop offset="0.5559" stop-color="#A8700D"/>
<stop offset="1" stop-color="#432400"/>
</linearGradient>
<linearGradient id="paint17_linear_5_6400" x1="64.8021" y1="76.2221" x2="61.7117" y2="71.6194" gradientUnits="userSpaceOnUse">
<stop stop-color="#A16C0C"/>
<stop offset="0.2318" stop-color="#BE9134"/>
<stop offset="0.5559" stop-color="#A8700D"/>
<stop offset="1" stop-color="#432400"/>
</linearGradient>
<linearGradient id="paint18_linear_5_6400" x1="92.66" y1="66.5932" x2="72.67" y2="78.1345" gradientUnits="userSpaceOnUse">
<stop stop-color="#A16C0C"/>
<stop offset="0.2318" stop-color="#BE9134"/>
<stop offset="0.5559" stop-color="#A8700D"/>
<stop offset="1" stop-color="#432400"/>
</linearGradient>
<linearGradient id="paint19_linear_5_6400" x1="58.9632" y1="87.9243" x2="149.563" y2="113.847" gradientUnits="userSpaceOnUse">
<stop stop-color="#D7AC4C"/>
<stop offset="0.1816" stop-color="#FFFFB0"/>
<stop offset="0.3268" stop-color="#F4D174"/>
<stop offset="0.3659" stop-color="#FBED99"/>
<stop offset="0.3939" stop-color="#FAEC97"/>
<stop offset="0.433" stop-color="#DEB04D"/>
<stop offset="0.5275" stop-color="#DFB24F"/>
<stop offset="0.5615" stop-color="#E2B756"/>
<stop offset="0.5858" stop-color="#E7C161"/>
<stop offset="0.6053" stop-color="#EECF72"/>
<stop offset="0.6207" stop-color="#F6DF86"/>
<stop offset="0.7529" stop-color="#F2D87E"/>
<stop offset="0.7672" stop-color="#F1D77D"/>
<stop offset="0.7716" stop-color="#EBCD71"/>
<stop offset="0.7804" stop-color="#E2BE60"/>
<stop offset="0.7913" stop-color="#DCB455"/>
<stop offset="0.8066" stop-color="#D8AE4E"/>
<stop offset="0.8492" stop-color="#D7AC4C"/>
<stop offset="1" stop-color="#966424"/>
</linearGradient>
<linearGradient id="paint20_linear_5_6400" x1="81.1601" y1="64.4081" x2="106.72" y2="80.1787" gradientUnits="userSpaceOnUse">
<stop stop-color="#A16C0C"/>
<stop offset="0.2318" stop-color="#BE9134"/>
<stop offset="0.5559" stop-color="#A8700D"/>
<stop offset="1" stop-color="#432400"/>
</linearGradient>
<linearGradient id="paint21_linear_5_6400" x1="126.943" y1="104.883" x2="56.6169" y2="90.0204" gradientUnits="userSpaceOnUse">
<stop stop-color="#D7AC4C"/>
<stop offset="0.1816" stop-color="#FFFFB0"/>
<stop offset="0.3268" stop-color="#F4D174"/>
<stop offset="0.433" stop-color="#DEB04D"/>
<stop offset="0.7067" stop-color="#F6DF86"/>
<stop offset="0.8492" stop-color="#D7AC4C"/>
<stop offset="1" stop-color="#966424"/>
</linearGradient>
</defs>
</svg>
