<svg width="84" height="81" viewBox="0 0 84 81" fill="none" xmlns="http://www.w3.org/2000/svg">
<path d="M19.4827 21.2416C23.8194 17.1569 29.9798 15.2012 37.0921 16.2411C44.1903 17.3281 50.8068 21.2403 55.7964 26.665C60.772 32.1367 64.1207 39.1207 64.6694 46.3983C65.1711 53.6618 62.7802 59.8093 58.4436 63.894C54.1209 67.9317 47.9465 69.9345 40.8342 68.8946C33.722 67.8546 27.1195 63.8953 22.1299 58.4707C17.1544 52.999 13.8057 46.0149 13.2569 38.7374C12.7691 31.4268 15.1931 25.3403 19.4827 21.2416Z" fill="url(#paint0_linear_91_3931)"/>
<path d="M19.4827 21.2417L20.5847 20.2898C16.248 24.3745 13.871 30.475 14.3588 37.7855C14.8605 45.0491 18.1952 52.0802 23.2318 57.5188C28.2074 62.9905 34.8239 66.9028 41.9361 67.9427C48.6912 68.9788 54.6877 67.2302 58.9595 63.5357L57.8576 64.4876C53.5857 68.1821 47.6363 69.9447 40.8342 68.8946C33.7359 67.8076 27.1194 63.8954 22.1299 58.4707C17.1543 52.999 13.8056 46.015 13.2568 38.7374C12.7691 31.4269 15.146 25.3264 19.4827 21.2417Z" fill="url(#paint1_linear_91_3931)"/>
<path d="M20.1017 20.7091L21.2036 19.7572C20.9927 19.9504 20.7957 20.0965 20.5847 20.2897L19.4827 21.2416C19.6937 21.0484 19.8907 20.9023 20.1017 20.7091Z" fill="url(#paint2_linear_91_3931)"/>
<path d="M16.9067 16.9953L22.0695 12.5421C27.0823 8.24896 34.046 6.17376 41.9856 7.35734C50.2684 8.59178 58.0567 13.2108 63.899 19.5543C69.7274 25.945 73.6289 34.1682 74.2322 42.6392C74.8216 51.1572 72.0151 58.3583 66.9704 63.1026C66.7455 63.3428 62.4266 67.0233 62.2156 67.2165L61.1137 68.1684C61.3246 67.9752 61.5966 67.749 61.8216 67.5088C66.8662 62.7645 69.6728 55.5634 69.0834 47.0454C68.48 38.5744 64.5785 30.3512 58.7502 23.9606C52.9218 17.5699 45.1666 13.012 36.8368 11.7636C28.8832 10.627 21.8865 12.6412 16.9067 16.9953Z" fill="url(#paint3_linear_91_3931)"/>
<path d="M8.90388 38.0572C9.50725 46.5282 13.4088 54.7515 19.2371 61.1421C25.1125 67.5467 32.8677 72.1046 41.1835 73.4001C49.4663 74.6345 56.763 72.3001 61.8076 67.5558C66.8523 62.8115 69.6588 55.6103 69.0694 47.0924C68.4661 38.6214 64.5646 30.3981 58.7362 24.0075C52.9078 17.6169 45.1526 13.0589 36.8228 11.8105C28.54 10.5761 21.2573 12.8635 16.2127 17.6078C11.1681 22.3521 8.30052 29.5863 8.90388 38.0572ZM19.4827 21.2416C23.8194 17.1569 29.9798 15.2011 37.0921 16.2411C44.1903 17.328 50.8068 21.2403 55.7964 26.665C60.7719 32.1366 64.1206 39.1207 64.6694 46.3982C65.1711 53.6618 62.7802 59.8093 58.4435 63.894C54.1209 67.9317 47.9465 69.9344 40.8342 68.8945C33.722 67.8546 27.1195 63.8953 22.1299 58.4706C17.1543 52.999 13.8056 46.0149 13.2569 38.7374C12.7691 31.4268 15.1931 25.3403 19.4827 21.2416Z" fill="url(#paint4_linear_91_3931)"/>
<path d="M19.4828 21.2416C23.8194 17.1569 29.9798 15.2012 37.0921 16.2411C44.1903 17.3281 50.8068 21.2403 55.7964 26.665C60.772 32.1367 64.1207 39.1207 64.6694 46.3983C65.1711 53.6618 62.7802 59.8093 58.4436 63.894C54.1209 67.9317 47.9465 69.9345 40.8342 68.8946C33.722 67.8546 27.1195 63.8953 22.1299 58.4707C17.1543 52.999 13.8057 46.0149 13.2569 38.7374C12.7691 31.4268 15.1931 25.3403 19.4828 21.2416Z" stroke="url(#paint5_linear_91_3931)" stroke-miterlimit="10"/>
<path d="M41.5845 56.7315L42.6865 55.7796L42.9977 60.0691L41.8818 61.068L41.5845 56.7315Z" fill="url(#paint6_linear_91_3931)"/>
<path d="M31.4655 48.2462L32.5675 47.2943C34.554 48.7039 36.5252 49.6483 38.5142 50.1885L37.4122 51.1404C35.4232 50.6002 33.452 49.6558 31.4655 48.2462Z" fill="url(#paint7_linear_91_3931)"/>
<path d="M41.2149 51.6057L42.3169 50.6538C43.1672 50.5483 43.7963 50.3259 44.2513 50.0006L43.1493 50.9525C42.6943 51.2778 42.0652 51.5002 41.2149 51.6057Z" fill="url(#paint8_linear_91_3931)"/>
<path d="M40.802 46.1088L41.918 45.1099L42.3168 50.6538L41.2149 51.6057L40.802 46.1088Z" fill="url(#paint9_linear_91_3931)"/>
<path d="M34.2037 34.2174L35.3056 33.2655C34.8837 33.6519 34.6828 34.1552 34.7362 34.8364C34.8035 35.4706 35.0399 36.0527 35.5673 36.5166C36.0338 37.0136 36.7772 37.4394 37.6618 37.9071L36.5599 38.859C35.6613 38.4383 34.9318 37.9655 34.4654 37.4685C33.9519 36.9576 33.7016 36.4225 33.6342 35.7883C33.5809 35.1071 33.7817 34.6038 34.2037 34.2174Z" fill="url(#paint10_linear_91_3931)"/>
<path d="M34.2037 34.2174L35.3056 33.2655C34.8837 33.6519 34.6828 34.1552 34.7362 34.8364C34.8035 35.4706 35.0399 36.0527 35.5673 36.5166C36.0338 37.0136 36.7772 37.4394 37.6618 37.9071L36.5599 38.859C35.6613 38.4383 34.9318 37.9655 34.4654 37.4685C33.9519 36.9576 33.7016 36.4225 33.6342 35.7883C33.5809 35.1071 33.7817 34.6038 34.2037 34.2174Z" fill="url(#paint11_linear_91_3931)"/>
<path d="M34.2787 34.1373L35.3807 33.1854L35.3057 33.2655L34.2038 34.2174L34.2787 34.1373Z" fill="url(#paint12_linear_91_3931)"/>
<path d="M40.3981 40.4098L41.5001 39.4579C43.3391 40.1583 44.8681 40.8688 46.1339 41.6035C47.3998 42.3382 48.5017 43.28 49.4256 44.476C50.3495 45.672 50.8464 47.0993 50.9493 48.8189C51.0814 50.9567 50.47 52.6686 49.0541 53.9878C48.9931 54.0209 48.9791 54.0679 48.9181 54.101L47.8161 55.0529C47.8771 55.0198 47.8911 54.9728 47.9521 54.9398C49.368 53.6206 49.9794 51.9086 49.8473 49.7708C49.7445 48.0512 49.2006 46.6099 48.3236 45.4279C47.3997 44.2319 46.3448 43.3041 45.032 42.5554C43.7661 41.8207 42.2372 41.1102 40.3981 40.4098Z" fill="url(#paint13_linear_91_3931)"/>
<path d="M39.9218 33.9216L41.0237 32.9697L41.5141 39.4109L40.3981 40.4098L39.9218 33.9216Z" fill="url(#paint14_linear_91_3931)"/>
<path d="M29.584 30.1311L30.6999 29.1322C32.0878 27.9071 34.1964 27.3568 36.9455 27.4065L35.8435 28.3584C33.0474 28.2948 30.9719 28.906 29.584 30.1311Z" fill="url(#paint15_linear_91_3931)"/>
<path d="M39.2599 24.6142L40.4089 23.6763L40.7011 27.8578L39.5851 28.8567L39.2599 24.6142Z" fill="url(#paint16_linear_91_3931)"/>
<path d="M35.4853 24.0549L36.6012 23.056L40.409 23.6764L39.26 24.6143L35.4853 24.0549Z" fill="url(#paint17_linear_91_3931)"/>
<path d="M39.5851 28.8568L40.7011 27.8579C42.577 28.2621 44.397 28.8544 46.1 29.6679C47.8501 30.4954 49.2291 31.366 50.317 32.3549L49.215 33.3068C48.1271 32.3179 46.7011 31.4333 44.9981 30.6198C43.234 29.8394 41.475 29.214 39.5851 28.8568Z" fill="url(#paint18_linear_91_3931)"/>
<path d="M29.1184 39.615C28.1945 38.4189 27.6976 36.9916 27.5807 35.3191C27.4486 33.1813 28.0461 31.5164 29.462 30.1972C30.8639 28.925 32.9864 28.3277 35.7965 28.3444L35.4993 24.0078L39.274 24.5672L39.5522 28.7957C41.4281 29.1999 43.2481 29.7923 44.9511 30.6058C46.7012 31.4332 48.0801 32.3039 49.168 33.2927L47.4495 37.6953C46.4277 36.8284 45.2699 36.0747 43.943 35.3731C42.6162 34.6715 41.2804 34.1719 39.8888 33.8605L40.3651 40.3488C42.2041 41.0491 43.7331 41.7596 44.9989 42.4943C46.2648 43.229 47.3667 44.1708 48.2906 45.3668C49.2145 46.5628 49.7114 47.9901 49.8143 49.7097C49.9464 51.8475 49.335 53.5595 47.9191 54.8787C46.5032 56.1979 44.3807 56.7951 41.4905 56.7035L41.8017 60.993L38.027 60.4336L37.7488 56.2051C34.6363 55.4844 32.0207 54.2972 29.8881 52.6906L31.4325 48.1851C33.4189 49.5947 35.3902 50.5391 37.3792 51.0793L36.9308 44.497C35.1388 43.8106 33.6098 43.1001 32.33 42.4125C31.0972 41.7388 29.9953 40.797 29.1184 39.615ZM40.8021 46.1088L41.2149 51.6057C42.1592 51.5282 42.8494 51.2727 43.2383 50.8254C43.6743 50.392 43.8421 49.8277 43.7887 49.1465C43.7214 48.5123 43.485 47.9301 42.9576 47.4662C42.4441 46.9553 41.7616 46.4964 40.8021 46.1088ZM34.2037 34.2174C33.7818 34.6038 33.5809 35.107 33.6343 35.7883C33.7016 36.4225 33.938 37.0046 34.4654 37.4685C34.9318 37.9655 35.6753 38.3913 36.5599 38.859L36.1992 33.5312C35.2688 33.5616 34.6257 33.831 34.2037 34.2174Z" fill="url(#paint19_linear_91_3931)"/>
<path d="M49.2011 33.3537L50.3501 32.4158L48.5845 36.8044L47.4826 37.7563L49.2011 33.3537Z" fill="url(#paint20_linear_91_3931)"/>
<path d="M29.1184 39.615C28.1945 38.4189 27.6976 36.9916 27.5807 35.3191C27.4486 33.1813 28.0461 31.5164 29.462 30.1972C30.8639 28.925 32.9864 28.3277 35.7965 28.3444L35.4993 24.0078L39.274 24.5672L39.5522 28.7957C41.4281 29.1999 43.2481 29.7923 44.9511 30.6058C46.7012 31.4332 48.0801 32.3039 49.168 33.2927L47.4495 37.6953C46.4277 36.8284 45.2699 36.0747 43.943 35.3731C42.6162 34.6715 41.2804 34.1719 39.8888 33.8605L40.3651 40.3488C42.2041 41.0491 43.7331 41.7597 44.9989 42.4943C46.2648 43.229 47.3667 44.1708 48.2906 45.3668C49.2145 46.5628 49.7114 47.9901 49.8143 49.7097C49.9464 51.8475 49.335 53.5595 47.9191 54.8787C46.5032 56.1979 44.3807 56.7951 41.4905 56.7035L41.8017 60.993L38.027 60.4336L37.7488 56.2051C34.6363 55.4844 32.0207 54.2972 29.8881 52.6906L31.4325 48.1851C33.4189 49.5947 35.3902 50.5391 37.3792 51.0793L36.9308 44.497C35.1388 43.8106 33.6098 43.1001 32.33 42.4125C31.0972 41.7388 29.9953 40.797 29.1184 39.615ZM40.8021 46.1088L41.2149 51.6057C42.1592 51.5282 42.8494 51.2727 43.2383 50.8254C43.6743 50.392 43.8421 49.8277 43.7887 49.1465C43.7214 48.5123 43.485 47.9301 42.9576 47.4662C42.4441 46.9553 41.7616 46.4964 40.8021 46.1088ZM34.2037 34.2174C33.7818 34.6038 33.5809 35.107 33.6343 35.7883C33.7016 36.4225 33.938 37.0046 34.4654 37.4685C34.9318 37.9655 35.6753 38.3913 36.5599 38.859L36.1992 33.5312C35.2688 33.5616 34.6257 33.831 34.2037 34.2174Z" stroke="url(#paint21_linear_91_3931)" stroke-width="0.5" stroke-miterlimit="10"/>
<defs>
<linearGradient id="paint0_linear_91_3931" x1="17.0871" y1="2.1637" x2="59.9419" y2="81.2878" gradientUnits="userSpaceOnUse">
<stop stop-color="#D7AC4C"/>
<stop offset="0.1816" stop-color="#FFFFB0"/>
<stop offset="0.3268" stop-color="#F4D174"/>
<stop offset="0.3659" stop-color="#FBED99"/>
<stop offset="0.3939" stop-color="#FAEC97"/>
<stop offset="0.433" stop-color="#DEB04D"/>
<stop offset="0.5275" stop-color="#DFB24F"/>
<stop offset="0.5615" stop-color="#E2B756"/>
<stop offset="0.5858" stop-color="#E7C161"/>
<stop offset="0.6053" stop-color="#EECF72"/>
<stop offset="0.6207" stop-color="#F6DF86"/>
<stop offset="0.7529" stop-color="#F2D87E"/>
<stop offset="0.7672" stop-color="#F1D77D"/>
<stop offset="0.7716" stop-color="#EBCD71"/>
<stop offset="0.7804" stop-color="#E2BE60"/>
<stop offset="0.7913" stop-color="#DCB455"/>
<stop offset="0.8066" stop-color="#D8AE4E"/>
<stop offset="0.8492" stop-color="#D7AC4C"/>
<stop offset="1" stop-color="#966424"/>
</linearGradient>
<linearGradient id="paint1_linear_91_3931" x1="11.365" y1="29.2408" x2="50.8029" y2="69.2776" gradientUnits="userSpaceOnUse">
<stop stop-color="#A16C0C"/>
<stop offset="0.2318" stop-color="#DFC072"/>
<stop offset="0.5559" stop-color="#A8700D"/>
<stop offset="0.7458" stop-color="#FADB85"/>
<stop offset="0.802" stop-color="#A16C0C"/>
<stop offset="0.9335" stop-color="#6C4405"/>
</linearGradient>
<linearGradient id="paint2_linear_91_3931" x1="20.9273" y1="20.6666" x2="19.7639" y2="20.3206" gradientUnits="userSpaceOnUse">
<stop stop-color="#A16C0C"/>
<stop offset="0.1816" stop-color="#C9BF70"/>
<stop offset="0.3268" stop-color="#BE9134"/>
<stop offset="0.433" stop-color="#A8700D"/>
<stop offset="0.7067" stop-color="#C09F46"/>
<stop offset="0.8492" stop-color="#A16C0C"/>
<stop offset="1" stop-color="#602400"/>
</linearGradient>
<linearGradient id="paint3_linear_91_3931" x1="82.1831" y1="73.7633" x2="29.6587" y2="3.82837" gradientUnits="userSpaceOnUse">
<stop stop-color="#B39200"/>
<stop offset="0.0568408" stop-color="#AD8C01"/>
<stop offset="0.1314" stop-color="#9D7C04"/>
<stop offset="0.2156" stop-color="#836108"/>
<stop offset="0.2585" stop-color="#73500B"/>
<stop offset="0.2799" stop-color="#795311"/>
<stop offset="0.3592" stop-color="#8B5D24"/>
<stop offset="0.4146" stop-color="#91612B"/>
<stop offset="0.4344" stop-color="#976707"/>
<stop offset="0.5299" stop-color="#D8B364"/>
<stop offset="0.5502" stop-color="#D4AE5D"/>
<stop offset="0.5792" stop-color="#CA9F4A"/>
<stop offset="0.6132" stop-color="#B9882C"/>
<stop offset="0.6414" stop-color="#A8700D"/>
<stop offset="0.6805" stop-color="#815400"/>
<stop offset="0.8029" stop-color="#B38136"/>
<stop offset="0.8189" stop-color="#A2712D"/>
<stop offset="0.8549" stop-color="#81511C"/>
<stop offset="0.8849" stop-color="#6C3D11"/>
<stop offset="0.9049" stop-color="#65360D"/>
<stop offset="0.9126" stop-color="#6F3F0D"/>
<stop offset="0.938" stop-color="#8A580C"/>
<stop offset="0.9603" stop-color="#9B670C"/>
<stop offset="0.9772" stop-color="#A16C0C"/>
<stop offset="1" stop-color="#B9924B"/>
</linearGradient>
<linearGradient id="paint4_linear_91_3931" x1="14.2787" y1="5.83921" x2="69.1046" y2="87.3989" gradientUnits="userSpaceOnUse">
<stop stop-color="#D7AC4C"/>
<stop offset="0.1816" stop-color="#FFFFB0"/>
<stop offset="0.3268" stop-color="#F4D174"/>
<stop offset="0.3659" stop-color="#FBED99"/>
<stop offset="0.3939" stop-color="#FAEC97"/>
<stop offset="0.433" stop-color="#DEB04D"/>
<stop offset="0.5275" stop-color="#DFB24F"/>
<stop offset="0.5615" stop-color="#E2B756"/>
<stop offset="0.5858" stop-color="#E7C161"/>
<stop offset="0.6053" stop-color="#EECF72"/>
<stop offset="0.6207" stop-color="#F6DF86"/>
<stop offset="0.7529" stop-color="#F2D87E"/>
<stop offset="0.7672" stop-color="#F1D77D"/>
<stop offset="0.7716" stop-color="#EBCD71"/>
<stop offset="0.7804" stop-color="#E2BE60"/>
<stop offset="0.7913" stop-color="#DCB455"/>
<stop offset="0.8066" stop-color="#D8AE4E"/>
<stop offset="0.8492" stop-color="#D7AC4C"/>
<stop offset="1" stop-color="#966424"/>
</linearGradient>
<linearGradient id="paint5_linear_91_3931" x1="54.1522" y1="67.3379" x2="23.8137" y2="17.8439" gradientUnits="userSpaceOnUse">
<stop stop-color="#D7AC4C"/>
<stop offset="0.1816" stop-color="#FFFFB0"/>
<stop offset="0.3268" stop-color="#F4D174"/>
<stop offset="0.433" stop-color="#DEB04D"/>
<stop offset="0.7067" stop-color="#F6DF86"/>
<stop offset="0.8492" stop-color="#D7AC4C"/>
<stop offset="1" stop-color="#966424"/>
</linearGradient>
<linearGradient id="paint6_linear_91_3931" x1="43.5593" y1="61.4722" x2="41.3349" y2="56.2044" gradientUnits="userSpaceOnUse">
<stop stop-color="#A16C0C"/>
<stop offset="0.2318" stop-color="#BE9134"/>
<stop offset="0.5559" stop-color="#A8700D"/>
<stop offset="1" stop-color="#432400"/>
</linearGradient>
<linearGradient id="paint7_linear_91_3931" x1="31.9552" y1="47.6003" x2="37.5576" y2="50.7056" gradientUnits="userSpaceOnUse">
<stop stop-color="#A16C0C"/>
<stop offset="0.2318" stop-color="#BE9134"/>
<stop offset="0.5559" stop-color="#A8700D"/>
<stop offset="1" stop-color="#432400"/>
</linearGradient>
<linearGradient id="paint8_linear_91_3931" x1="45.3229" y1="50.4375" x2="41.2801" y2="50.9628" gradientUnits="userSpaceOnUse">
<stop stop-color="#A16C0C"/>
<stop offset="0.2318" stop-color="#BE9134"/>
<stop offset="0.5559" stop-color="#A8700D"/>
<stop offset="1" stop-color="#432400"/>
</linearGradient>
<linearGradient id="paint9_linear_91_3931" x1="40.351" y1="46.33" x2="42.8769" y2="50.5838" gradientUnits="userSpaceOnUse">
<stop stop-color="#A16C0C"/>
<stop offset="0.2318" stop-color="#BE9134"/>
<stop offset="0.5559" stop-color="#A8700D"/>
<stop offset="1" stop-color="#432400"/>
</linearGradient>
<linearGradient id="paint10_linear_91_3931" x1="38.0232" y1="36.6696" x2="33.5958" y2="35.3531" gradientUnits="userSpaceOnUse">
<stop stop-color="#A16C0C"/>
<stop offset="0.2318" stop-color="#BE9134"/>
<stop offset="0.5559" stop-color="#A8700D"/>
<stop offset="1" stop-color="#432400"/>
</linearGradient>
<linearGradient id="paint11_linear_91_3931" x1="31.4491" y1="31.6487" x2="37.8759" y2="38.5979" gradientUnits="userSpaceOnUse">
<stop stop-color="#A16C0C"/>
<stop offset="0.2318" stop-color="#BE9134"/>
<stop offset="0.5559" stop-color="#A8700D"/>
<stop offset="1" stop-color="#432400"/>
</linearGradient>
<linearGradient id="paint12_linear_91_3931" x1="35.1854" y1="33.8121" x2="34.3817" y2="33.5731" gradientUnits="userSpaceOnUse">
<stop stop-color="#A16C0C"/>
<stop offset="0.1816" stop-color="#DBBF7D"/>
<stop offset="0.3268" stop-color="#BE9134"/>
<stop offset="0.433" stop-color="#A8700D"/>
<stop offset="0.7067" stop-color="#D9AA59"/>
<stop offset="0.8492" stop-color="#A16C0C"/>
<stop offset="1" stop-color="#602400"/>
</linearGradient>
<linearGradient id="paint13_linear_91_3931" x1="51.3577" y1="49.2309" x2="38.8737" y2="45.5189" gradientUnits="userSpaceOnUse">
<stop stop-color="#A16C0C"/>
<stop offset="0.2318" stop-color="#BE9134"/>
<stop offset="0.5559" stop-color="#A8700D"/>
<stop offset="1" stop-color="#432400"/>
</linearGradient>
<linearGradient id="paint14_linear_91_3931" x1="38.0607" y1="32.2349" x2="43.3245" y2="40.9976" gradientUnits="userSpaceOnUse">
<stop stop-color="#A16C0C"/>
<stop offset="0.2318" stop-color="#BE9134"/>
<stop offset="0.5559" stop-color="#A8700D"/>
<stop offset="1" stop-color="#432400"/>
</linearGradient>
<linearGradient id="paint15_linear_91_3931" x1="28.1554" y1="27.4466" x2="36.9761" y2="29.7335" gradientUnits="userSpaceOnUse">
<stop stop-color="#A16C0C"/>
<stop offset="0.2318" stop-color="#BE9134"/>
<stop offset="0.5559" stop-color="#A8700D"/>
<stop offset="1" stop-color="#432400"/>
</linearGradient>
<linearGradient id="paint16_linear_91_3931" x1="37.6269" y1="23.0732" x2="42.2546" y2="29.2955" gradientUnits="userSpaceOnUse">
<stop stop-color="#A16C0C"/>
<stop offset="0.2318" stop-color="#BE9134"/>
<stop offset="0.5559" stop-color="#A8700D"/>
<stop offset="1" stop-color="#432400"/>
</linearGradient>
<linearGradient id="paint17_linear_91_3931" x1="37.5695" y1="25.5133" x2="38.1665" y2="22.8598" gradientUnits="userSpaceOnUse">
<stop stop-color="#A16C0C"/>
<stop offset="0.2318" stop-color="#BE9134"/>
<stop offset="0.5559" stop-color="#A8700D"/>
<stop offset="1" stop-color="#432400"/>
</linearGradient>
<linearGradient id="paint18_linear_91_3931" x1="50.3968" y1="32.1885" x2="39.5423" y2="28.9611" gradientUnits="userSpaceOnUse">
<stop stop-color="#A16C0C"/>
<stop offset="0.2318" stop-color="#BE9134"/>
<stop offset="0.5559" stop-color="#A8700D"/>
<stop offset="1" stop-color="#432400"/>
</linearGradient>
<linearGradient id="paint19_linear_91_3931" x1="31.4312" y1="27.3809" x2="52.7594" y2="68.3986" gradientUnits="userSpaceOnUse">
<stop stop-color="#D7AC4C"/>
<stop offset="0.1816" stop-color="#FFFFB0"/>
<stop offset="0.3268" stop-color="#F4D174"/>
<stop offset="0.3659" stop-color="#FBED99"/>
<stop offset="0.3939" stop-color="#FAEC97"/>
<stop offset="0.433" stop-color="#DEB04D"/>
<stop offset="0.5275" stop-color="#DFB24F"/>
<stop offset="0.5615" stop-color="#E2B756"/>
<stop offset="0.5858" stop-color="#E7C161"/>
<stop offset="0.6053" stop-color="#EECF72"/>
<stop offset="0.6207" stop-color="#F6DF86"/>
<stop offset="0.7529" stop-color="#F2D87E"/>
<stop offset="0.7672" stop-color="#F1D77D"/>
<stop offset="0.7716" stop-color="#EBCD71"/>
<stop offset="0.7804" stop-color="#E2BE60"/>
<stop offset="0.7913" stop-color="#DCB455"/>
<stop offset="0.8066" stop-color="#D8AE4E"/>
<stop offset="0.8492" stop-color="#D7AC4C"/>
<stop offset="1" stop-color="#966424"/>
</linearGradient>
<linearGradient id="paint20_linear_91_3931" x1="47.2959" y1="27.3549" x2="50.3004" y2="41.7797" gradientUnits="userSpaceOnUse">
<stop stop-color="#A16C0C"/>
<stop offset="0.2318" stop-color="#BE9134"/>
<stop offset="0.5559" stop-color="#A8700D"/>
<stop offset="1" stop-color="#432400"/>
</linearGradient>
<linearGradient id="paint21_linear_91_3931" x1="48.3221" y1="57.3172" x2="29.8931" y2="27.2522" gradientUnits="userSpaceOnUse">
<stop stop-color="#D7AC4C"/>
<stop offset="0.1816" stop-color="#FFFFB0"/>
<stop offset="0.3268" stop-color="#F4D174"/>
<stop offset="0.433" stop-color="#DEB04D"/>
<stop offset="0.7067" stop-color="#F6DF86"/>
<stop offset="0.8492" stop-color="#D7AC4C"/>
<stop offset="1" stop-color="#966424"/>
</linearGradient>
</defs>
</svg>
