<svg width="105" height="106" viewBox="0 0 105 106" fill="none" xmlns="http://www.w3.org/2000/svg">
<path d="M90.6364 45.0409L90.5531 44.7326L88.4772 38.0681C88.3383 37.5542 88.1619 37.1053 88.0231 36.5913L87.9398 36.283C87.6523 35.4229 87.2619 34.5902 86.8716 33.7575C87.159 34.6175 87.4465 35.4776 87.6964 36.4027L15.411 62.7753L15.4387 62.8781C15.6152 63.327 15.7916 63.7759 15.968 64.2248L19.2265 72.6131C28.3521 92.7177 51.1769 93.9227 68.3258 85.3438C83.2354 78.6821 95.5561 61.4159 90.6364 45.0409Z" fill="url(#paint0_linear_92_3936)"/>
<path d="M80.1304 65.3503C86.2818 58.317 89.596 49.559 88.6569 40.7746C87.7079 32.1581 82.651 25.074 75.2404 20.7087C67.8298 16.3434 58.0654 14.6969 47.7114 16.7877C37.3297 18.7757 28.3313 24.252 22.18 31.2852C16.0286 38.3185 12.7144 47.0765 13.6536 55.8609C14.6303 64.5802 19.6872 71.6643 27.0978 76.0296C34.5084 80.3949 44.2727 82.0414 54.6267 79.9506C64.9808 77.8598 73.9415 72.4486 80.1304 65.3503Z" fill="url(#paint1_linear_92_3936)"/>
<path d="M54.0878 75.3014C45.2398 77.0471 36.9144 75.6241 30.5116 71.9274C24.1463 68.1657 19.8718 62.1406 19.0225 54.7095C18.2108 47.2132 21.0072 39.8047 26.3239 33.7645C31.6406 27.7243 39.3093 23.042 48.1574 21.2964C57.0054 19.5508 65.3307 20.9738 71.7335 24.6705C78.0988 28.4322 82.3733 34.4573 83.2226 41.8884C84.0344 49.3846 81.238 56.7932 75.9213 62.8334C70.6323 68.9764 62.9358 73.5558 54.0878 75.3014Z" fill="url(#paint2_linear_92_3936)"/>
<path d="M40.7531 49.2095C40.7727 48.8738 40.7923 48.538 40.8772 48.24C40.8495 48.1372 40.9246 48.0071 40.8968 47.9043C40.9442 47.6714 40.9916 47.4384 41.0389 47.2055C41.0487 47.0377 41.0863 46.9726 41.0961 46.8047C41.181 46.5067 41.266 46.2087 41.3509 45.9107C41.3983 45.6778 41.511 45.4826 41.5959 45.1846C41.6711 45.0544 41.7184 44.8215 41.7936 44.6914C41.9063 44.4962 41.9161 44.3283 42.0288 44.1331C42.1039 44.0029 42.1513 43.77 42.2264 43.6399C42.3016 43.5097 42.4143 43.3145 42.4894 43.1844C42.6021 42.9892 42.6772 42.859 42.7899 42.6638C42.9402 42.4035 43.0905 42.1433 43.2408 41.883L42.6185 40.3958C42.4682 40.6561 42.3555 40.8513 42.2052 41.1116C42.1676 41.1767 42.1676 41.1767 42.1301 41.2417C42.0174 41.4369 41.9422 41.5671 41.8295 41.7623C41.7544 41.8924 41.6793 42.0226 41.6417 42.0876C41.6041 42.1527 41.6041 42.1527 41.5665 42.2178C41.4914 42.3479 41.3787 42.5431 41.3689 42.711C41.2938 42.8411 41.2186 42.9713 41.2088 43.1391C41.1713 43.2042 41.1713 43.2042 41.1337 43.2693C41.0586 43.3994 41.0112 43.6323 40.936 43.7625C40.8609 43.8926 40.8511 44.0605 40.776 44.1906C40.7384 44.2557 40.7286 44.4236 40.691 44.4886C40.6437 44.7216 40.531 44.9168 40.4836 45.1497C40.446 45.2148 40.4738 45.3176 40.4362 45.3826C40.3611 45.5128 40.3889 45.6156 40.3791 45.7834C40.3415 45.8485 40.3693 45.9513 40.2941 46.0814C40.2843 46.2493 40.2467 46.3143 40.2369 46.4822C40.2647 46.585 40.1896 46.7151 40.2173 46.8179C40.1798 46.883 40.1798 46.883 40.2075 46.9858C40.1602 47.2187 40.1406 47.5544 40.0932 47.7874C40.0932 47.7874 40.0932 47.7874 40.0556 47.8524C40.0736 48.1231 39.9887 48.4211 40.0066 48.6918C39.9691 48.7568 39.9968 48.8596 39.9593 48.9247L40.5816 50.4119C40.7416 49.9837 40.6959 49.6103 40.7531 49.2095Z" fill="url(#paint3_linear_92_3936)"/>
<path d="M34.4955 54.0124L35.1178 55.4996L29.824 56.5209L29.2017 55.0338L34.4955 54.0124Z" fill="url(#paint4_linear_92_3936)"/>
<path d="M32.0913 30.4138C32.2318 30.3214 32.4098 30.1639 32.5503 30.0715C32.5879 30.0064 32.6908 29.979 32.7283 29.914C33.0468 29.6641 33.3278 29.4792 33.6463 29.2293C33.7868 29.1369 33.9272 29.0445 34.0677 28.9521C34.3487 28.7672 34.6296 28.5824 34.9105 28.3976C35.051 28.3051 35.1915 28.2127 35.332 28.1203C35.6505 27.8704 35.9967 27.7233 36.3806 27.5111C36.4835 27.4837 36.5211 27.4187 36.624 27.3913C37.0454 27.1141 37.5321 26.8745 38.0189 26.635C38.0189 26.635 38.0564 26.5699 38.1218 26.6076C38.5432 26.3304 38.9924 26.1559 39.4416 25.9815C39.5445 25.9541 39.582 25.889 39.6849 25.8617C40.0312 25.7146 40.4151 25.5024 40.7613 25.3553C40.9018 25.2628 41.0047 25.2355 41.2105 25.1808C41.4539 25.061 41.6973 24.9413 41.9684 24.9243C42.4176 24.7498 42.8668 24.5754 43.3159 24.4009C43.5218 24.3462 43.6622 24.2538 43.8305 24.2642C44.345 24.1274 44.8971 23.9256 45.4116 23.7889C45.5145 23.7615 45.5145 23.7615 45.6174 23.7342C46.1695 23.5323 46.7493 23.4333 47.3667 23.2692C47.8813 23.1325 48.3958 22.9957 48.9381 22.9618C49.2468 22.8797 49.5179 22.8628 49.8266 22.7807C50.1353 22.6987 50.5094 22.6543 50.7805 22.6374C51.0517 22.6204 51.2575 22.5657 51.5286 22.5487C51.7997 22.5317 52.1084 22.4497 52.4449 22.4704C52.7161 22.4535 52.9872 22.4365 53.193 22.3818C53.4642 22.3648 53.7353 22.3478 54.1093 22.3035C54.3805 22.2865 54.6516 22.2696 54.8199 22.2799C55.091 22.2629 55.4275 22.2837 55.6986 22.2667C55.9698 22.2497 56.2033 22.2978 56.4091 22.2431C56.6803 22.2262 57.0168 22.2469 57.3532 22.2676C57.6244 22.2507 57.8579 22.2988 58.0262 22.3091C58.3627 22.3299 58.6991 22.3506 58.9703 22.3336C59.2039 22.3817 59.4097 22.327 59.6432 22.3751C59.9797 22.3959 60.3815 22.4544 60.718 22.4751C60.8862 22.4855 61.1198 22.5336 61.288 22.5439C61.7928 22.575 62.3252 22.709 62.7924 22.8051C62.8577 22.8429 62.8953 22.7778 62.9606 22.8155C63.596 22.9221 64.1285 23.056 64.7263 23.2276C65.0252 23.3134 65.2588 23.3615 65.5577 23.4473C65.6884 23.5228 65.7913 23.4954 65.9219 23.5709C66.3613 23.5643 66.7909 23.7255 67.2205 23.8868C67.6501 24.048 68.145 24.247 68.5745 24.4083C68.6399 24.446 68.6399 24.446 68.7052 24.4837C69.1348 24.645 69.5268 24.8713 69.891 24.9948C70.1524 25.1457 70.4513 25.2315 70.7126 25.3824C70.8433 25.4579 70.974 25.5333 71.1046 25.6087C71.4967 25.8351 71.8887 26.0614 72.2807 26.2877C76.8166 28.9933 80.3397 32.8493 82.2622 37.5164L81.6399 36.0293C79.7926 31.232 76.2694 27.376 71.7335 24.6704C71.3415 24.4441 70.9495 24.2178 70.5575 23.9914C70.4268 23.916 70.2961 23.8406 70.1655 23.7651C69.9041 23.6142 69.6428 23.4633 69.3439 23.3775C68.9143 23.2163 68.5876 23.0277 68.158 22.8664C68.0927 22.8287 68.0927 22.8287 68.0274 22.791C67.5978 22.6297 67.1029 22.4307 66.6733 22.2695C66.2437 22.1082 65.8795 21.9847 65.4123 21.8885C65.2817 21.8131 65.1788 21.8404 65.0481 21.765C64.8145 21.7169 64.6185 21.6037 64.4503 21.5933C64.3849 21.5556 64.282 21.583 64.2167 21.5452C63.6189 21.3736 63.0488 21.3048 62.451 21.1331C62.3857 21.0954 62.3857 21.0954 62.2828 21.1228C61.8156 21.0266 61.2456 20.9577 60.7784 20.8616C60.7131 20.8238 60.6102 20.8512 60.6102 20.8512C60.442 20.8408 60.3391 20.8682 60.2084 20.7927C59.8719 20.772 59.4701 20.7135 59.1336 20.6928C59.0307 20.7201 58.9654 20.6824 58.7972 20.672C58.6943 20.6994 58.526 20.689 58.4607 20.6513C58.1242 20.6305 57.7877 20.6098 57.5166 20.6268C57.3483 20.6164 57.2454 20.6437 57.1148 20.5683C57.0119 20.5956 56.9465 20.5579 56.7783 20.5475C56.5072 20.5645 56.1707 20.5438 55.8995 20.5608C55.7313 20.5504 55.5631 20.54 55.4602 20.5674C55.3573 20.5947 55.2919 20.557 55.189 20.5843C54.9179 20.6013 54.5814 20.5806 54.3103 20.5975C54.142 20.5872 53.9738 20.5768 53.768 20.6315C53.6651 20.6588 53.5997 20.6211 53.4968 20.6485C53.2257 20.6654 52.9545 20.6824 52.5805 20.7268C52.4123 20.7164 52.2065 20.7711 52.0382 20.7607C51.9353 20.7881 51.87 20.7503 51.8324 20.8154C51.5613 20.8324 51.2526 20.9144 50.9814 20.9314C50.7756 20.9861 50.6074 20.9757 50.4016 21.0304C50.168 20.9823 50.1027 20.9446 50.0651 21.0097C49.7564 21.0917 49.4199 21.071 49.1112 21.153C48.9054 21.2077 48.7372 21.1974 48.5314 21.2521C48.4284 21.2794 48.3255 21.3067 48.2226 21.3341C47.7457 21.4058 47.2312 21.5425 46.7167 21.6793L46.6138 21.7066C46.0339 21.8056 45.4818 22.0074 44.8644 22.1715C44.7615 22.1989 44.7615 22.1989 44.6586 22.2262C44.1441 22.363 43.592 22.5648 43.0775 22.7015C43.0399 22.7666 42.9746 22.7289 42.8717 22.7562C42.7688 22.7836 42.6283 22.876 42.5254 22.9034C42.0762 23.0778 41.627 23.2523 41.1779 23.4267C41.075 23.4541 40.972 23.4814 40.8691 23.5088C40.7287 23.6012 40.6258 23.6286 40.42 23.6833C40.2795 23.7757 40.1766 23.803 39.9708 23.8577C39.6245 24.0048 39.2407 24.217 38.8944 24.3641C38.7915 24.3915 38.7539 24.4566 38.651 24.4839C38.651 24.4839 38.651 24.4839 38.6134 24.549C38.1643 24.7234 37.7804 24.9356 37.359 25.2129C37.359 25.2129 37.3214 25.278 37.2561 25.2402C36.7693 25.4798 36.3855 25.692 35.9641 25.9692C35.9641 25.9692 35.9641 25.9692 35.9265 26.0343C35.8236 26.0616 35.7861 26.1267 35.6831 26.1541C35.2993 26.3662 35.0184 26.5511 34.6345 26.7633C34.494 26.8557 34.3536 26.9481 34.2131 27.0405C33.9322 27.2254 33.6512 27.4102 33.3703 27.595C33.2298 27.6875 33.0893 27.7799 32.9489 27.8723C32.6303 28.1222 32.3494 28.307 32.0309 28.5569C31.9933 28.622 31.8904 28.6494 31.8528 28.7144L31.8153 28.7795C31.6748 28.8719 31.5343 28.9643 31.3563 29.1218C31.0754 29.3067 30.8598 29.5292 30.5788 29.7141C30.4008 29.8716 30.2603 29.964 30.0823 30.1215C29.8667 30.344 29.5857 30.5289 29.3701 30.7514C29.1921 30.9089 29.014 31.0664 28.836 31.2239C28.6204 31.4464 28.4048 31.669 28.2267 31.8265C28.0487 31.984 27.8706 32.1415 27.7579 32.3367C27.5423 32.5592 27.3643 32.7167 27.1487 32.9393C27.1111 33.0044 27.0736 33.0694 27.0082 33.0317C26.755 33.3193 26.5019 33.607 26.2487 33.8946C25.9204 34.3124 25.4892 34.7575 25.1609 35.1752C25.0857 35.3054 24.9077 35.4629 24.8325 35.593C24.5794 35.8806 24.3915 36.206 24.1383 36.4936C24.1008 36.5587 24.0632 36.6238 23.9881 36.7539C23.9129 36.884 23.8378 37.0142 23.7627 37.1443C23.65 37.3395 23.5373 37.5347 23.3592 37.6922C23.2465 37.8874 23.0962 38.1477 22.9835 38.3429C22.8708 38.5381 22.7581 38.7334 22.6454 38.9286C22.6079 38.9936 22.5703 39.0587 22.4951 39.1888C22.4576 39.2539 22.42 39.319 22.3824 39.3841C22.0819 39.9046 21.7813 40.4252 21.5086 41.0485C21.471 41.1136 21.471 41.1136 21.4334 41.1787C21.4334 41.1787 21.4334 41.1787 21.3959 41.2437C21.1607 41.802 20.8977 42.2575 20.7278 42.8535C20.6902 42.9186 20.6902 42.9186 20.6527 42.9837C20.5775 43.1138 20.6053 43.2166 20.5302 43.3467C20.4077 43.7098 20.2851 44.0729 20.2002 44.3709C20.1626 44.4359 20.0875 44.5661 20.1153 44.6689C20.0777 44.7339 20.1055 44.8367 20.0303 44.9669C19.9454 45.2649 19.8605 45.5629 19.7755 45.8609C19.7004 45.991 19.7282 46.0938 19.653 46.2239C19.6154 46.289 19.6432 46.3918 19.6056 46.4569C19.5207 46.7549 19.4358 47.0529 19.3884 47.2858C19.3786 47.4537 19.3035 47.5838 19.2937 47.7517C19.2561 47.8167 19.2561 47.8167 19.2839 47.9195C19.1989 48.2175 19.2169 48.4882 19.132 48.7862C19.1221 48.954 19.047 49.0842 19.0372 49.252C19.0372 49.252 18.9996 49.3171 19.065 49.3548C19.0176 49.5878 18.998 49.9235 19.016 50.1941C19.0062 50.362 18.9964 50.5299 18.9866 50.6977L18.949 50.7628C18.967 51.0334 18.882 51.3315 18.9 51.6021C18.8902 51.77 18.8804 51.9378 18.8706 52.1057C18.8706 52.1057 18.8706 52.1057 18.833 52.1708C18.8134 52.5065 18.8591 52.8799 18.8395 53.2156C18.8673 53.3184 18.8575 53.4863 18.8853 53.5891C18.8934 54.0276 18.9669 54.5038 19.0029 55.0451C19.0764 55.5214 19.1123 56.0627 19.1858 56.5389C19.2691 56.8473 19.2871 57.1179 19.3704 57.4263C19.4259 57.6319 19.4814 57.8375 19.4994 58.1081C19.5729 58.5844 19.7493 59.0333 19.9257 59.4821L19.9535 59.5849C19.9535 59.5849 19.9535 59.5849 19.9812 59.6877C20.1576 60.1366 20.334 60.5855 20.5104 61.0344L21.1328 62.5215C20.9563 62.0727 20.7799 61.6238 20.6411 61.1098L20.6133 61.007C20.4369 60.5581 20.3634 60.0819 20.187 59.633C20.1315 59.4274 20.076 59.2219 20.058 58.9512C19.9747 58.6428 19.9567 58.3722 19.8734 58.0638C19.7999 57.5876 19.6987 57.0085 19.6252 56.5323C19.5517 56.0561 19.5435 55.6176 19.5076 55.0763C19.5174 54.9084 19.4896 54.8056 19.4994 54.6377C19.519 54.302 19.4733 53.9286 19.4929 53.5929C19.5027 53.425 19.5125 53.2571 19.5599 53.0242C19.5419 52.7536 19.5615 52.4178 19.6089 52.1849C19.6187 52.017 19.666 51.7841 19.6758 51.6162C19.6579 51.3456 19.7428 51.0476 19.7249 50.7769C19.7347 50.6091 19.782 50.3761 19.7918 50.2083C19.8768 49.9103 19.8588 49.6396 19.9437 49.3416C19.9535 49.1738 20.0009 48.9408 20.076 48.8107C20.161 48.5127 20.2083 48.2798 20.2933 47.9818C20.3407 47.7488 20.4158 47.6187 20.4632 47.3858C20.5481 47.0878 20.633 46.7898 20.718 46.4918C20.7653 46.2588 20.8405 46.1287 20.8879 45.8958C21.0104 45.5327 21.1329 45.1696 21.2178 44.8716C21.2929 44.7415 21.3403 44.5085 21.4154 44.3784C21.6507 43.8201 21.8483 43.3269 22.0835 42.7686C22.1211 42.7036 22.1586 42.6385 22.1962 42.5734C22.4314 42.0151 22.732 41.4946 23.0701 40.9089C23.1452 40.7788 23.2579 40.5836 23.3331 40.4535C23.4458 40.2582 23.5585 40.063 23.6712 39.8678C23.7839 39.6726 23.9341 39.4123 24.0469 39.2171C24.1596 39.0219 24.2723 38.8267 24.4503 38.6692C24.563 38.474 24.6757 38.2788 24.8538 38.1213C25.0416 37.796 25.2948 37.5083 25.5479 37.2207C25.6231 37.0906 25.8011 36.9331 25.8763 36.8029C26.2046 36.3852 26.5705 35.9023 26.9641 35.5223C27.2548 35.1696 27.508 34.8819 27.8641 34.567C28.0797 34.3444 28.2577 34.1869 28.4734 33.9644C28.6514 33.8069 28.8294 33.6494 28.9421 33.4542C29.1577 33.2316 29.3734 33.0091 29.5514 32.8516C29.7294 32.6941 29.9075 32.5366 30.0855 32.3791C30.3011 32.1565 30.5821 31.9717 30.7977 31.7491C30.9757 31.5917 31.1162 31.4992 31.2942 31.3418C31.5572 30.8863 31.8381 30.7014 32.0913 30.4138Z" fill="url(#paint5_linear_92_3936)"/>
<path d="M40.7155 52.745L41.3378 54.2321L41.3655 54.3349L40.7432 52.8478L40.7155 52.745Z" fill="#784E4A"/>
<path d="M55.7638 46.5972C55.8112 46.3643 55.8863 46.2341 55.999 46.0389C56.0366 45.9738 56.0366 45.9738 56.0741 45.9088C56.1493 45.7786 56.2244 45.6485 56.3371 45.4533L56.3747 45.3882C56.4874 45.193 56.5625 45.0629 56.6377 44.9327C56.7128 44.8026 56.8533 44.7102 56.9284 44.58C56.966 44.5149 57.0689 44.4876 57.1064 44.4225C57.2093 44.3952 57.2845 44.265 57.3874 44.2377C57.3874 44.2377 57.425 44.1726 57.4903 44.2103C57.6308 44.1179 57.7712 44.0255 57.977 43.9708C58.1828 43.9161 58.3233 43.8237 58.4916 43.8341C58.6974 43.7794 58.8656 43.7897 59.0714 43.735C59.2396 43.7454 59.4079 43.7558 59.5761 43.7662C59.7444 43.7765 59.9126 43.7869 60.1086 43.9001C60.1086 43.9001 60.1086 43.9001 60.1739 43.9378C60.3046 44.0132 60.5382 44.0613 60.6688 44.1368C61.3222 44.514 61.8253 45.1515 62.2434 46.087L61.6211 44.5998C61.203 43.6643 60.6999 43.0268 60.0465 42.6496C59.9812 42.6119 59.9159 42.5741 59.9159 42.5741C59.8505 42.5364 59.7199 42.461 59.617 42.4883C59.617 42.4883 59.617 42.4883 59.5516 42.4506C59.5516 42.4506 59.5516 42.4506 59.4863 42.4129C59.421 42.3752 59.421 42.3752 59.3556 42.3374C59.2903 42.2997 59.225 42.262 59.1874 42.3271L59.0191 42.3167L58.8509 42.3063L58.6827 42.296L58.5144 42.2856L58.4115 42.3129C58.3462 42.2752 58.3086 42.3403 58.2433 42.3026C58.178 42.2648 58.1404 42.3299 58.0751 42.2922C57.9721 42.3195 57.9721 42.3195 57.8692 42.3469L57.7663 42.3742C57.6634 42.4016 57.6634 42.4016 57.5605 42.4289C57.4576 42.4563 57.4576 42.4563 57.4201 42.5214L57.3172 42.5487C57.3172 42.5487 57.3172 42.5487 57.2796 42.6138C57.1767 42.6411 57.1767 42.6411 57.1391 42.7062C57.0362 42.7335 56.9987 42.7986 56.9333 42.7609C56.9333 42.7609 56.9333 42.7609 56.8957 42.826C56.8957 42.826 56.8582 42.891 56.7928 42.8533C56.7553 42.9184 56.6524 42.9457 56.6148 43.0108C56.5772 43.0759 56.5772 43.0759 56.4743 43.1032C56.4368 43.1683 56.3339 43.1956 56.2963 43.2607C56.2587 43.3258 56.2587 43.3258 56.2212 43.3908C56.1836 43.4559 56.0431 43.5483 56.0055 43.6134L55.9304 43.7435C55.8553 43.8737 55.7801 44.0038 55.7426 44.0689C55.7426 44.0689 55.7426 44.0689 55.705 44.134L55.6674 44.199C55.6299 44.2641 55.5923 44.3292 55.5172 44.4593C55.4796 44.5244 55.442 44.5895 55.4045 44.6545C55.3669 44.7196 55.3669 44.7196 55.3293 44.7847L55.2918 44.8497C55.2166 44.9799 55.2068 45.1477 55.1317 45.2779C55.0941 45.3429 55.0941 45.3429 55.0565 45.408C54.9814 45.5382 55.0092 45.6409 54.934 45.7711C54.8965 45.8362 54.9242 45.9389 54.8867 46.004L55.509 47.4912C55.5563 47.2583 55.6037 47.0253 55.6789 46.8952C55.6887 46.7273 55.7262 46.6623 55.7638 46.5972Z" fill="url(#paint6_linear_92_3936)"/>
<path d="M47.2064 51.4605L47.8288 52.9477L41.3377 54.2321L40.7154 52.745L47.2064 51.4605Z" fill="url(#paint7_linear_92_3936)"/>
<path d="M67.3135 41.3793L67.9358 42.8665C68.0567 43.1098 68.14 43.4181 68.2608 43.6614L67.6385 42.1743C67.5177 41.931 67.4344 41.6226 67.3135 41.3793Z" fill="#784E4A"/>
<path d="M67.6385 42.1743L68.2608 43.6614C68.4095 44.0075 68.4552 44.381 68.6038 44.7271L67.9815 43.2399C67.8329 42.8938 67.6842 42.5477 67.6385 42.1743Z" fill="#7C514D"/>
<path d="M62.1715 48.4747L62.7938 49.9619L54.7968 51.5915L54.1745 50.1043L62.1715 48.4747Z" fill="url(#paint8_linear_92_3936)"/>
<path d="M73.5823 46.2132L74.2046 47.7004L69.0791 48.7321L68.4567 47.245L73.5823 46.2132Z" fill="url(#paint9_linear_92_3936)"/>
<path d="M73.1724 42.2458L73.7947 43.733L74.2047 47.7004L73.5823 46.2132L73.1724 42.2458Z" fill="#8A5A55"/>
<path d="M48.964 61.8452C49.0669 61.8179 49.1045 61.7528 49.2074 61.7254C49.3103 61.6981 49.4507 61.6057 49.5536 61.5783C49.5536 61.5783 49.5536 61.5783 49.5912 61.5132C49.8346 61.3935 50.1155 61.2086 50.2936 61.0511C50.2936 61.0511 50.3311 60.9861 50.3965 61.0238L50.434 60.9587C50.6121 60.8012 50.7901 60.6438 50.9682 60.4863C51.1462 60.3288 51.3242 60.1713 51.4369 59.9761C51.5121 59.8459 51.6526 59.7535 51.6901 59.6884C51.7277 59.6234 51.7653 59.5583 51.8028 59.4932C52.0184 59.2707 52.1311 59.0755 52.2814 58.8152C52.319 58.7501 52.319 58.7501 52.3565 58.685C52.3941 58.62 52.4692 58.4898 52.5068 58.4248C52.582 58.2946 52.6571 58.1645 52.6947 58.0994C52.7698 57.9693 52.8449 57.8391 52.9201 57.709C52.9576 57.6439 52.9952 57.5789 52.9952 57.5789L53.0328 57.5138C53.1455 57.3186 53.1928 57.0857 53.268 56.9555C53.3055 56.8904 53.3807 56.7603 53.3529 56.6575C53.4281 56.5274 53.4754 56.2944 53.5506 56.1643C53.5979 55.9314 53.6731 55.8012 53.7204 55.5683C53.7204 55.5683 53.7204 55.5683 53.758 55.5032C53.8054 55.2703 53.8527 55.0374 53.9655 54.8422C54.0406 54.712 54.0128 54.6092 54.088 54.4791C54.1255 54.414 54.0978 54.3112 54.1353 54.2462C54.2578 53.8831 54.2774 53.5474 54.3999 53.1843L54.4375 53.1192C54.4751 53.0541 54.4751 53.0541 54.4473 52.9514C54.5045 52.5506 54.5992 52.0847 54.694 51.6188L54.1746 50.1043C54.0798 50.5702 54.0226 50.971 53.9279 51.4368C53.8903 51.5019 53.8903 51.5019 53.9181 51.6047C53.8609 52.0055 53.7384 52.3686 53.6813 52.7694C53.6437 52.8344 53.6715 52.9372 53.6339 53.0023C53.5114 53.3654 53.4918 53.7011 53.3693 54.0641C53.3693 54.0641 53.3693 54.0641 53.3317 54.1292C53.2092 54.4923 53.0867 54.8554 52.9642 55.2184C52.8417 55.5815 52.6914 55.8418 52.5689 56.2049C52.5313 56.2699 52.4938 56.335 52.4938 56.335C52.3435 56.5953 52.2308 56.7905 52.0805 57.0508C52.0429 57.1158 51.9678 57.246 51.9302 57.311C51.78 57.5713 51.5268 57.859 51.3112 58.0815C51.2736 58.1466 51.236 58.2117 51.236 58.2117C50.9829 58.4993 50.7673 58.7218 50.5141 59.0095C50.336 59.167 50.158 59.3244 49.98 59.4819C49.9424 59.547 49.8395 59.5744 49.8395 59.5744C49.6615 59.7318 49.3805 59.9167 49.1371 60.0364L49.0996 60.1015C48.9591 60.1939 48.8562 60.2213 48.7157 60.3137C48.6128 60.3411 48.5753 60.4061 48.4724 60.4335C48.4348 60.4985 48.3695 60.4608 48.3319 60.5259C48.1914 60.6183 47.9856 60.673 47.8827 60.7004C47.7798 60.7277 47.7798 60.7277 47.6769 60.7551C47.5364 60.8475 47.3682 60.8371 47.2277 60.9295C47.1248 60.9569 47.0872 61.0219 47.0219 60.9842C46.919 61.0116 46.7132 61.0663 46.6103 61.0936C46.5074 61.121 46.4045 61.1483 46.4045 61.1483C46.1987 61.203 45.9929 61.2577 45.7217 61.2747C45.413 61.3567 45.1419 61.3737 44.8707 61.3907L44.7678 61.418C44.4967 61.435 44.2256 61.452 43.9544 61.469L43.8515 61.4963C43.5804 61.5133 43.3092 61.5303 43.0757 61.4822C43.0757 61.4822 43.0103 61.4444 42.9728 61.5095C42.7016 61.5265 42.468 61.4784 42.2345 61.4303C42.1691 61.3926 42.1691 61.3926 42.0662 61.4199C41.8327 61.3718 41.5991 61.3237 41.3655 61.2757L41.3002 61.2379C41.0666 61.1898 40.7677 61.104 40.5717 60.9909C40.441 60.9154 40.2728 60.905 40.1421 60.8296C40.0114 60.7542 39.8432 60.7438 39.7125 60.6683C39.4512 60.5175 39.1523 60.4316 38.8632 60.178C38.0792 59.7253 37.4078 59.0775 36.7741 58.3645C36.1779 57.5865 35.6846 56.7812 35.2387 55.7429L35.861 57.2301C36.6875 59.2689 37.8521 60.7221 39.4202 61.6274C39.6815 61.7783 39.9428 61.9292 40.2695 62.1178L40.3348 62.1555C40.4655 62.231 40.5308 62.2687 40.6991 62.2791C40.8298 62.3545 40.9604 62.4299 41.1287 62.4403L41.194 62.478C41.4276 62.5261 41.6236 62.6393 41.7918 62.6497L41.8571 62.6874C42.0254 62.6978 42.1561 62.7732 42.3243 62.7836C42.3896 62.8213 42.4925 62.7939 42.5579 62.8317C42.6232 62.8694 42.6232 62.8694 42.7261 62.842L42.7914 62.8798C42.9597 62.8901 43.1279 62.9005 43.2962 62.9109C43.3615 62.9486 43.3991 62.8835 43.4644 62.9212C43.4644 62.9212 43.5297 62.959 43.5673 62.8939C43.6326 62.9316 43.6702 62.8665 43.7355 62.9043C43.9038 62.9146 44.072 62.925 44.1749 62.8977C44.2402 62.9354 44.2778 62.8703 44.3432 62.908L44.4461 62.8807C44.5114 62.9184 44.549 62.8533 44.6143 62.8911C44.7825 62.9014 44.9508 62.9118 45.0912 62.8194L45.1941 62.792L45.297 62.7647C45.3999 62.7373 45.4653 62.7751 45.5682 62.7477C45.7364 62.7581 45.9422 62.7034 46.148 62.6487L46.2509 62.6213C46.4567 62.5666 46.625 62.577 46.7655 62.4846L46.8684 62.4572C46.9615 62.5978 46.999 62.5327 47.0644 62.5704C47.1673 62.5431 47.2702 62.5157 47.2702 62.5157C47.3731 62.4884 47.3731 62.4884 47.476 62.461C47.5789 62.4337 47.6164 62.3686 47.6818 62.4063L47.7847 62.379C47.8876 62.3516 47.9905 62.3243 48.0934 62.2969C48.1963 62.2696 48.1963 62.2696 48.2992 62.2422C48.2992 62.2422 48.2992 62.2422 48.4021 62.2149C48.5426 62.1225 48.6455 62.0951 48.8513 62.0404C48.9264 61.9103 48.9264 61.9103 48.964 61.8452Z" fill="url(#paint10_linear_92_3936)"/>
<path d="M50.4488 58.9718C49.2678 60.1119 47.6018 60.8852 45.5535 61.2643C42.9907 61.7802 40.6828 61.4021 38.6574 60.2327C36.6696 58.9983 35.2355 56.9557 34.4956 54.0124L29.2018 55.0338L28.7918 51.0664L33.9174 50.0347C33.8292 48.0751 34.0121 46.0985 34.5316 44.1426C35.0134 42.2518 35.6815 40.642 36.6011 39.351L42.6185 40.3958C41.8393 41.5944 41.2562 42.9062 40.7662 44.3585C40.3415 45.8485 40.1226 47.2838 40.072 48.7295L47.9661 47.1272C48.3173 45.161 48.724 43.4003 49.2794 41.9858C49.7694 40.5335 50.6514 39.3075 51.8324 38.1674C53.0133 37.0272 54.6794 36.2539 56.7652 35.8097C59.3933 35.3316 61.7388 35.6447 63.7267 36.8791C65.7798 38.1512 67.1486 40.1561 67.9538 43.1371L73.1823 42.078L73.5922 46.0454L68.4667 47.0771C68.5418 50.4174 67.8329 53.3049 66.4428 55.7125L60.3781 54.9006C61.5247 52.6128 62.0915 50.424 62.1814 48.3069L54.119 49.8988C53.8332 51.9027 53.3987 53.5606 52.9462 54.9478C52.4464 56.568 51.6297 57.8316 50.4488 58.9718ZM54.9619 45.8739L61.6587 44.5347C61.2406 43.5992 60.7375 42.9617 60.0842 42.5845C59.4308 42.2073 58.6925 42.1281 57.9069 42.2818C57.1212 42.4355 56.4564 42.8326 56.0154 43.4455C55.5091 44.0208 55.1889 44.8771 54.9619 45.8739ZM42.2247 54.6574C42.8781 55.0346 43.5134 55.1412 44.2991 54.9875C45.0848 54.8338 45.712 54.5018 46.153 53.8888C46.594 53.2758 46.9419 52.5224 47.2719 51.4982L40.7808 52.7827C41.0683 53.6427 41.5714 54.2802 42.2247 54.6574Z" fill="url(#paint11_linear_92_3936)"/>
<path d="M50.4488 58.9718C49.2678 60.1119 47.6018 60.8852 45.5535 61.2643C42.9907 61.7802 40.6828 61.4021 38.6574 60.2327C36.6696 58.9983 35.2355 56.9557 34.4956 54.0124L29.2018 55.0338L28.7918 51.0664L33.9174 50.0347C33.8292 48.0751 34.0121 46.0985 34.5316 44.1426C35.0134 42.2518 35.6815 40.642 36.6011 39.351L42.6185 40.3958C41.8393 41.5944 41.2562 42.9062 40.7662 44.3585C40.3415 45.8485 40.1226 47.2838 40.072 48.7295L47.9661 47.1272C48.3173 45.161 48.724 43.4003 49.2794 41.9858C49.7694 40.5335 50.6514 39.3075 51.8324 38.1674C53.0133 37.0272 54.6794 36.2539 56.7652 35.8097C59.3933 35.3316 61.7388 35.6447 63.7267 36.8791C65.7798 38.1512 67.1486 40.1561 67.9538 43.1371L73.1823 42.078L73.5922 46.0454L68.4667 47.0771C68.5418 50.4174 67.8329 53.3049 66.4428 55.7125L60.3781 54.9006C61.5247 52.6128 62.0915 50.424 62.1814 48.3069L54.119 49.8988C53.8332 51.9027 53.3987 53.5606 52.9462 54.9478C52.4464 56.568 51.6297 57.8316 50.4488 58.9718ZM54.9619 45.8739L61.6587 44.5347C61.2406 43.5992 60.7375 42.9617 60.0842 42.5845C59.4308 42.2073 58.6925 42.1281 57.9069 42.2818C57.1212 42.4355 56.4564 42.8326 56.0154 43.4455C55.5091 44.0208 55.1889 44.8771 54.9619 45.8739ZM42.2247 54.6574C42.8781 55.0346 43.5134 55.1412 44.2991 54.9875C45.0848 54.8338 45.712 54.5018 46.153 53.8888C46.594 53.2758 46.9419 52.5224 47.2719 51.4982L40.7808 52.7827C41.0683 53.6427 41.5714 54.2802 42.2247 54.6574Z" stroke="url(#paint12_linear_92_3936)" stroke-width="0.5" stroke-miterlimit="10"/>
<path d="M66.433 55.8804L60.4058 55.0034L61.0559 56.5934L67.0553 57.3676L66.433 55.8804Z" fill="url(#paint13_linear_92_3936)"/>
<path d="M68.367 49.362C68.3572 49.5299 68.3098 49.7628 68.3 49.9307C68.2902 50.0986 68.2428 50.3315 68.233 50.4994C68.2232 50.6672 68.2134 50.8351 68.1383 50.9652C68.0909 51.1981 68.0811 51.366 68.0338 51.5989C68.024 51.7668 67.9488 51.8969 67.939 52.0648C67.8916 52.2977 67.8165 52.4279 67.7691 52.6608C67.694 52.7909 67.6842 52.9588 67.6466 53.0239C67.5993 53.2568 67.4866 53.452 67.4768 53.6199C67.4016 53.75 67.4294 53.8528 67.3543 53.9829C67.2415 54.1782 67.1942 54.4111 67.119 54.5412C67.0439 54.6714 67.0063 54.7364 66.9965 54.9043C66.8463 55.1646 66.7238 55.5277 66.5735 55.7879L67.1958 57.2751C67.3461 57.0148 67.4963 56.7545 67.5813 56.4565L67.6188 56.3915C67.694 56.2613 67.7315 56.1963 67.7413 56.0284C67.8165 55.8983 67.9292 55.703 67.939 55.5352L67.9766 55.4701C68.0517 55.34 68.0239 55.2372 68.0991 55.107C68.1742 54.9769 68.184 54.809 68.2591 54.6789C68.2967 54.6138 68.2967 54.6138 68.2689 54.511C68.3441 54.3809 68.3539 54.213 68.3914 54.148C68.4666 54.0178 68.4388 53.915 68.514 53.7849C68.5515 53.7198 68.5238 53.617 68.5613 53.552C68.5711 53.3841 68.6463 53.254 68.6561 53.0861C68.6936 53.021 68.7034 52.8532 68.741 52.7881C68.7786 52.723 68.7884 52.5552 68.8259 52.4901C68.8357 52.3222 68.8455 52.1544 68.9207 52.0242C68.9582 51.9592 68.9305 51.8564 68.968 51.7913C68.9403 51.6885 69.0154 51.5584 68.9877 51.4556C68.9975 51.2877 69.0448 51.0548 69.0546 50.8869C69.0922 50.8219 69.0644 50.7191 69.102 50.654C69.0742 50.5512 69.1494 50.4211 69.1216 50.3183C69.169 50.0854 69.1134 49.8798 69.1608 49.6468C69.133 49.544 69.1706 49.479 69.1428 49.3762C69.1526 49.2083 69.1347 48.9377 69.1445 48.7698L68.5222 47.2826C68.5026 47.6184 68.5205 47.889 68.5009 48.2247C68.4536 48.4577 68.5091 48.6633 68.4617 48.8962C68.3866 49.0263 68.3768 49.1942 68.367 49.362Z" fill="url(#paint14_linear_92_3936)"/>
<path d="M54.0878 75.3014C45.2398 77.0471 36.9144 75.6241 30.5116 71.9274C24.1463 68.1657 19.8718 62.1406 19.0225 54.7095C18.2108 47.2132 21.0072 39.8047 26.3239 33.7645C31.6406 27.7243 39.3093 23.042 48.1574 21.2964C57.0054 19.5508 65.3307 20.9738 71.7335 24.6705C78.0988 28.4322 82.3733 34.4573 83.2226 41.8884C84.0344 49.3846 81.238 56.7932 75.9213 62.8334C70.6324 68.9764 62.9358 73.5558 54.0878 75.3014Z" stroke="url(#paint15_linear_92_3936)" stroke-width="0.5" stroke-miterlimit="10"/>
<defs>
<linearGradient id="paint0_linear_92_3936" x1="94.1215" y1="52.6544" x2="22.72" y2="82.3073" gradientUnits="userSpaceOnUse">
<stop offset="0.1136" stop-color="#D7AC4C"/>
<stop offset="0.1816" stop-color="#FFFFB0"/>
<stop offset="0.3268" stop-color="#F4D174"/>
<stop offset="0.3659" stop-color="#FBED99"/>
<stop offset="0.3939" stop-color="#FAEC97"/>
<stop offset="0.433" stop-color="#DEB04D"/>
<stop offset="0.5275" stop-color="#DFB24F"/>
<stop offset="0.5615" stop-color="#E2B756"/>
<stop offset="0.5858" stop-color="#E7C161"/>
<stop offset="0.6053" stop-color="#EECF72"/>
<stop offset="0.6207" stop-color="#F6DF86"/>
<stop offset="0.7529" stop-color="#F2D87E"/>
<stop offset="0.7672" stop-color="#F1D77D"/>
<stop offset="0.7716" stop-color="#EBCD71"/>
<stop offset="0.7804" stop-color="#E2BE60"/>
<stop offset="0.7913" stop-color="#DCB455"/>
<stop offset="0.8066" stop-color="#D8AE4E"/>
<stop offset="0.8492" stop-color="#D7AC4C"/>
<stop offset="1" stop-color="#966424"/>
</linearGradient>
<linearGradient id="paint1_linear_92_3936" x1="18.2856" y1="45.3106" x2="108.878" y2="53.3296" gradientUnits="userSpaceOnUse">
<stop stop-color="#D2AB5A"/>
<stop offset="0.0610851" stop-color="#BA9443"/>
<stop offset="0.1898" stop-color="#7C5808"/>
<stop offset="0.2069" stop-color="#735000"/>
<stop offset="0.2274" stop-color="#775200"/>
<stop offset="0.3376" stop-color="#8A5D00"/>
<stop offset="0.4146" stop-color="#916100"/>
<stop offset="0.4344" stop-color="#976707"/>
<stop offset="0.4986" stop-color="#D8B364"/>
<stop offset="0.5246" stop-color="#D4AE5D"/>
<stop offset="0.5617" stop-color="#CA9F4A"/>
<stop offset="0.6053" stop-color="#B9882C"/>
<stop offset="0.6414" stop-color="#A8700D"/>
<stop offset="0.6805" stop-color="#815400"/>
<stop offset="0.8029" stop-color="#B38116"/>
<stop offset="0.8267" stop-color="#A27114"/>
<stop offset="0.8802" stop-color="#815110"/>
<stop offset="0.9247" stop-color="#6C3D0E"/>
<stop offset="0.9545" stop-color="#65360D"/>
<stop offset="0.9581" stop-color="#6F3F0D"/>
<stop offset="0.9701" stop-color="#8A580C"/>
<stop offset="0.9807" stop-color="#9B670C"/>
<stop offset="0.9886" stop-color="#A16C0C"/>
</linearGradient>
<linearGradient id="paint2_linear_92_3936" x1="-5.4789" y1="40.9313" x2="106.389" y2="55.2057" gradientUnits="userSpaceOnUse">
<stop stop-color="#D2AB5A"/>
<stop offset="0.0610851" stop-color="#BA9443"/>
<stop offset="0.1898" stop-color="#7C5808"/>
<stop offset="0.2069" stop-color="#735000"/>
<stop offset="0.2274" stop-color="#775200"/>
<stop offset="0.3376" stop-color="#8A5D00"/>
<stop offset="0.4146" stop-color="#916100"/>
<stop offset="0.4344" stop-color="#976707"/>
<stop offset="0.4986" stop-color="#D8B364"/>
<stop offset="0.5246" stop-color="#D4AE5D"/>
<stop offset="0.5617" stop-color="#CA9F4A"/>
<stop offset="0.6053" stop-color="#B9882C"/>
<stop offset="0.6414" stop-color="#A8700D"/>
<stop offset="0.6805" stop-color="#815400"/>
<stop offset="0.8029" stop-color="#B38116"/>
<stop offset="0.8267" stop-color="#A27114"/>
<stop offset="0.8802" stop-color="#815110"/>
<stop offset="0.9247" stop-color="#6C3D0E"/>
<stop offset="0.9545" stop-color="#65360D"/>
<stop offset="0.9581" stop-color="#6F3F0D"/>
<stop offset="0.9701" stop-color="#8A580C"/>
<stop offset="0.9807" stop-color="#9B670C"/>
<stop offset="0.9886" stop-color="#A16C0C"/>
</linearGradient>
<linearGradient id="paint3_linear_92_3936" x1="10.9047" y1="61.0197" x2="35.8278" y2="48.2313" gradientUnits="userSpaceOnUse">
<stop stop-color="#A16C0C"/>
<stop offset="0.2318" stop-color="#BE9134"/>
<stop offset="0.5559" stop-color="#A8700D"/>
<stop offset="1" stop-color="#432400"/>
</linearGradient>
<linearGradient id="paint4_linear_92_3936" x1="17.3491" y1="59.6279" x2="32.2766" y2="55.1821" gradientUnits="userSpaceOnUse">
<stop stop-color="#A16C0C"/>
<stop offset="0.2318" stop-color="#BE9134"/>
<stop offset="0.5559" stop-color="#A8700D"/>
<stop offset="1" stop-color="#432400"/>
</linearGradient>
<linearGradient id="paint5_linear_92_3936" x1="-10.524" y1="82.3632" x2="66.3524" y2="25.9193" gradientUnits="userSpaceOnUse">
<stop stop-color="#A16C0C"/>
<stop offset="0.2318" stop-color="#BE9134"/>
<stop offset="0.5559" stop-color="#A8700D"/>
<stop offset="1" stop-color="#432400"/>
</linearGradient>
<linearGradient id="paint6_linear_92_3936" x1="36.293" y1="62.9365" x2="60.5504" y2="43.3949" gradientUnits="userSpaceOnUse">
<stop stop-color="#A16C0C"/>
<stop offset="0.2318" stop-color="#BE9134"/>
<stop offset="0.5559" stop-color="#A8700D"/>
<stop offset="1" stop-color="#432400"/>
</linearGradient>
<linearGradient id="paint7_linear_92_3936" x1="29.0321" y1="58.3595" x2="43.5846" y2="53.0507" gradientUnits="userSpaceOnUse">
<stop stop-color="#A16C0C"/>
<stop offset="0.2318" stop-color="#BE9134"/>
<stop offset="0.4314" stop-color="#A8700D"/>
<stop offset="1" stop-color="#432400"/>
</linearGradient>
<linearGradient id="paint8_linear_92_3936" x1="46.612" y1="52.9757" x2="63.1719" y2="48.797" gradientUnits="userSpaceOnUse">
<stop stop-color="#A16C0C"/>
<stop offset="0.2318" stop-color="#BE9134"/>
<stop offset="0.5559" stop-color="#A8700D"/>
<stop offset="1" stop-color="#432400"/>
</linearGradient>
<linearGradient id="paint9_linear_92_3936" x1="47.4569" y1="67.5851" x2="70.315" y2="48.217" gradientUnits="userSpaceOnUse">
<stop stop-color="#A16C0C"/>
<stop offset="0.2318" stop-color="#BE9134"/>
<stop offset="0.5559" stop-color="#A8700D"/>
<stop offset="1" stop-color="#432400"/>
</linearGradient>
<linearGradient id="paint10_linear_92_3936" x1="25.8514" y1="67.1958" x2="46.6167" y2="56.3567" gradientUnits="userSpaceOnUse">
<stop stop-color="#A16C0C"/>
<stop offset="0.2318" stop-color="#BE9134"/>
<stop offset="0.5559" stop-color="#A8700D"/>
<stop offset="1" stop-color="#432400"/>
</linearGradient>
<linearGradient id="paint11_linear_92_3936" x1="109.094" y1="49.9171" x2="11.6919" y2="48.0433" gradientUnits="userSpaceOnUse">
<stop stop-color="#D2AB5A"/>
<stop offset="0.0610851" stop-color="#BA9443"/>
<stop offset="0.1898" stop-color="#7C5808"/>
<stop offset="0.2069" stop-color="#735000"/>
<stop offset="0.2274" stop-color="#775200"/>
<stop offset="0.3376" stop-color="#8A5D00"/>
<stop offset="0.4146" stop-color="#916100"/>
<stop offset="0.4344" stop-color="#976707"/>
<stop offset="0.4986" stop-color="#D8B364"/>
<stop offset="0.5246" stop-color="#D4AE5D"/>
<stop offset="0.5617" stop-color="#CA9F4A"/>
<stop offset="0.6053" stop-color="#B9882C"/>
<stop offset="0.6414" stop-color="#A8700D"/>
<stop offset="0.6805" stop-color="#815400"/>
<stop offset="0.8029" stop-color="#B38116"/>
<stop offset="0.8267" stop-color="#A27114"/>
<stop offset="0.8802" stop-color="#815110"/>
<stop offset="0.9247" stop-color="#6C3D0E"/>
<stop offset="0.9545" stop-color="#65360D"/>
<stop offset="0.9581" stop-color="#6F3F0D"/>
<stop offset="0.9701" stop-color="#8A580C"/>
<stop offset="0.9807" stop-color="#9B670C"/>
<stop offset="0.9886" stop-color="#A16C0C"/>
</linearGradient>
<linearGradient id="paint12_linear_92_3936" x1="59.5889" y1="34.0761" x2="42.7695" y2="63.2081" gradientUnits="userSpaceOnUse">
<stop stop-color="#D2AB5A"/>
<stop offset="0.0610851" stop-color="#BA9443"/>
<stop offset="0.1898" stop-color="#7C5808"/>
<stop offset="0.2069" stop-color="#735000"/>
<stop offset="0.2274" stop-color="#775200"/>
<stop offset="0.3376" stop-color="#8A5D00"/>
<stop offset="0.4146" stop-color="#916100"/>
<stop offset="0.4344" stop-color="#976707"/>
<stop offset="0.4986" stop-color="#D8B364"/>
<stop offset="0.5246" stop-color="#D4AE5D"/>
<stop offset="0.5617" stop-color="#CA9F4A"/>
<stop offset="0.6053" stop-color="#B9882C"/>
<stop offset="0.6414" stop-color="#A8700D"/>
<stop offset="0.6805" stop-color="#815400"/>
<stop offset="0.8029" stop-color="#B38116"/>
<stop offset="0.8267" stop-color="#A27114"/>
<stop offset="0.8802" stop-color="#815110"/>
<stop offset="0.9247" stop-color="#6C3D0E"/>
<stop offset="0.9545" stop-color="#65360D"/>
<stop offset="0.9581" stop-color="#6F3F0D"/>
<stop offset="0.9701" stop-color="#8A580C"/>
<stop offset="0.9807" stop-color="#9B670C"/>
<stop offset="0.9886" stop-color="#A16C0C"/>
</linearGradient>
<linearGradient id="paint13_linear_92_3936" x1="34.9237" y1="74.3315" x2="63.3245" y2="56.3436" gradientUnits="userSpaceOnUse">
<stop stop-color="#A16C0C"/>
<stop offset="0.2318" stop-color="#BE9134"/>
<stop offset="0.5559" stop-color="#A8700D"/>
<stop offset="1" stop-color="#432400"/>
</linearGradient>
<linearGradient id="paint14_linear_92_3936" x1="48.3601" y1="68.6509" x2="71.2182" y2="49.2828" gradientUnits="userSpaceOnUse">
<stop stop-color="#A16C0C"/>
<stop offset="0.2318" stop-color="#BE9134"/>
<stop offset="0.5559" stop-color="#A8700D"/>
<stop offset="1" stop-color="#432400"/>
</linearGradient>
<linearGradient id="paint15_linear_92_3936" x1="19.5747" y1="44.2018" x2="82.738" y2="52.2614" gradientUnits="userSpaceOnUse">
<stop stop-color="#D2AB5A"/>
<stop offset="0.0610851" stop-color="#BA9443"/>
<stop offset="0.1898" stop-color="#7C5808"/>
<stop offset="0.2069" stop-color="#735000"/>
<stop offset="0.2274" stop-color="#775200"/>
<stop offset="0.3376" stop-color="#8A5D00"/>
<stop offset="0.4146" stop-color="#916100"/>
<stop offset="0.4344" stop-color="#976707"/>
<stop offset="0.4986" stop-color="#D8B364"/>
<stop offset="0.5246" stop-color="#D4AE5D"/>
<stop offset="0.5617" stop-color="#CA9F4A"/>
<stop offset="0.6053" stop-color="#B9882C"/>
<stop offset="0.6414" stop-color="#A8700D"/>
<stop offset="0.6805" stop-color="#815400"/>
<stop offset="0.8029" stop-color="#B38116"/>
<stop offset="0.8267" stop-color="#A27114"/>
<stop offset="0.8802" stop-color="#815110"/>
<stop offset="0.9247" stop-color="#6C3D0E"/>
<stop offset="0.9545" stop-color="#65360D"/>
<stop offset="0.9581" stop-color="#6F3F0D"/>
<stop offset="0.9701" stop-color="#8A580C"/>
<stop offset="0.9807" stop-color="#9B670C"/>
<stop offset="0.9886" stop-color="#A16C0C"/>
</linearGradient>
</defs>
</svg>
