<svg width="175" height="173" viewBox="0 0 175 173" fill="none" xmlns="http://www.w3.org/2000/svg">
<g filter="url(#filter0_d_5_6474)">
<path d="M62.7386 49.2635L62.5239 49.4791L58.0153 54.3653C57.6574 54.7246 57.3712 55.0839 57.0134 55.4431L56.7987 55.6587C56.2262 56.3054 55.7252 57.024 55.2242 57.7425C55.7968 57.0958 56.3693 56.4491 57.0134 55.8024L113.192 102.868L113.263 102.796C113.55 102.437 113.836 102.078 114.122 101.719L119.49 95.036C131.727 77.9342 121.851 58.533 106.608 48.4731C94.0124 39.3473 73.9027 37.4072 62.7386 49.2635Z" fill="url(#paint0_linear_5_6474)"/>
<path d="M84.4943 48.2575C75.7634 46.5329 66.9609 47.97 60.1622 52.9281C53.5067 57.8143 50.0716 65.3593 50 73.5509C49.9284 81.7425 53.2204 90.5808 59.876 98.1257C66.4599 105.742 75.2624 110.557 83.9933 112.281C92.7242 114.006 101.527 112.569 108.325 107.611C115.052 102.653 118.488 95.1078 118.559 86.9161C118.631 78.7245 115.339 69.8862 108.683 62.3413C102.028 54.7964 93.2968 49.982 84.4943 48.2575Z" fill="url(#paint1_linear_5_6474)"/>
<path d="M105.105 64.9999C110.759 71.467 113.55 79.0119 113.55 86.0538C113.478 93.0958 110.544 99.491 104.819 103.73C99.022 107.97 91.5792 109.192 84.0649 107.683C76.5506 106.174 69.0363 102.078 63.3826 95.6107C57.729 89.1437 54.938 81.5988 54.938 74.5568C55.0096 67.5149 57.9437 61.1197 63.6689 56.8802C69.4657 52.6407 76.9084 51.4191 84.4227 52.9281C92.0086 54.3652 99.4513 58.5329 105.105 64.9999Z" fill="url(#paint2_linear_5_6474)"/>
<path d="M89.9332 88.4253C89.6469 88.569 89.3607 88.7127 89.0744 88.7846C89.0029 88.8564 88.8597 88.8564 88.7882 88.9283C88.5735 89.0001 88.3588 89.072 88.1441 89.1438C88.001 89.2157 87.9294 89.2157 87.7863 89.2876C87.5 89.3594 87.2137 89.4313 86.9275 89.5031C86.7128 89.575 86.4981 89.575 86.2118 89.6468C86.0687 89.6468 85.854 89.7187 85.7109 89.7187C85.4962 89.7187 85.3531 89.7905 85.1384 89.7905C84.9952 89.7905 84.7805 89.8624 84.6374 89.8624C84.4943 89.8624 84.2796 89.8624 84.1365 89.8624C83.9218 89.8624 83.7786 89.8624 83.5639 89.8624C83.2777 89.8624 82.9914 89.8624 82.7052 89.8624L81.7748 91.084C82.0611 91.084 82.2758 91.084 82.562 91.084C82.6336 91.084 82.6336 91.084 82.7052 91.084C82.9198 91.084 83.063 91.084 83.2777 91.084C83.4208 91.084 83.5639 91.084 83.6355 91.084C83.7071 91.084 83.7071 91.084 83.7786 91.084C83.9218 91.084 84.1365 91.084 84.2796 91.0121C84.4227 91.0121 84.5658 91.0121 84.709 90.9402C84.7805 90.9402 84.7805 90.9402 84.8521 90.9402C84.9952 90.9402 85.2099 90.8684 85.3531 90.8684C85.4962 90.8684 85.6393 90.7965 85.7824 90.7965C85.854 90.7965 85.9971 90.7247 86.0687 90.7247C86.2834 90.6528 86.4981 90.6528 86.7128 90.581C86.7844 90.581 86.8559 90.5091 86.9275 90.5091C87.0706 90.5091 87.1422 90.4373 87.2853 90.3654C87.3569 90.3654 87.4284 90.2935 87.5716 90.2935C87.7147 90.2217 87.7863 90.2217 87.9294 90.1498C88.001 90.078 88.1441 90.078 88.2157 90.0061C88.2872 90.0061 88.2872 90.0061 88.3588 89.9343C88.5735 89.8624 88.8597 89.7187 89.0744 89.6468C89.0744 89.6468 89.0744 89.6468 89.146 89.6468C89.3607 89.5031 89.6469 89.4313 89.8616 89.2876C89.9332 89.2876 90.0048 89.2157 90.0763 89.2157L91.0067 87.9941C90.5773 88.066 90.291 88.2816 89.9332 88.4253Z" fill="url(#paint3_linear_5_6474)"/>
<path d="M96.875 91.2994L97.8053 90.0779L101.169 93.9581L100.239 95.1797L96.875 91.2994Z" fill="url(#paint4_linear_5_6474)"/>
<path d="M78.5544 104.521C78.4113 104.449 78.1966 104.377 78.0534 104.306C77.9819 104.306 77.9103 104.234 77.8388 104.234C77.4809 104.09 77.1947 103.946 76.8368 103.803C76.6937 103.731 76.5506 103.659 76.4075 103.587C76.1212 103.443 75.8349 103.3 75.5487 103.156C75.4055 103.084 75.2624 103.012 75.1193 102.94C74.7615 102.797 74.4752 102.581 74.1174 102.365C74.0458 102.294 73.9742 102.294 73.9027 102.222C73.4733 102.006 73.0439 101.719 72.6145 101.431C72.6145 101.431 72.5429 101.431 72.5429 101.359C72.1136 101.144 71.7557 100.856 71.3979 100.569C71.3263 100.497 71.2548 100.497 71.1832 100.425C70.897 100.21 70.5391 99.9942 70.2529 99.7786C70.1097 99.7067 70.0382 99.6349 69.895 99.4912C69.6804 99.3475 69.4657 99.2037 69.3225 98.9882C68.9647 98.7007 68.6069 98.4133 68.2491 98.1259C68.1059 97.9822 67.9628 97.9103 67.8912 97.7666C67.5334 97.4073 67.104 97.0481 66.7462 96.6888C66.6746 96.6169 66.6746 96.6169 66.6031 96.5451C66.1737 96.1858 65.8159 95.7546 65.3865 95.3235C65.0286 94.9642 64.6708 94.6049 64.3846 94.1738C64.1699 93.9582 64.0267 93.7427 63.812 93.5271C63.5973 93.3115 63.3826 93.0241 63.2395 92.8085C63.0964 92.593 62.9533 92.4493 62.8101 92.2337C62.667 92.0181 62.4523 91.8025 62.3092 91.5151C62.166 91.2996 62.0229 91.084 61.8798 90.9403C61.7367 90.7247 61.5935 90.5091 61.3788 90.2217C61.2357 90.0061 61.0926 89.7906 61.021 89.6469C60.8779 89.4313 60.7347 89.1439 60.5916 88.9283C60.4485 88.7127 60.3769 88.4972 60.2338 88.3534C60.0907 88.1379 59.9475 87.8505 59.8044 87.563C59.6613 87.3475 59.5897 87.1319 59.5181 86.9882C59.375 86.7007 59.2319 86.4133 59.0888 86.1978C59.0172 85.9822 58.8741 85.8385 58.8025 85.6229C58.6594 85.3355 58.5162 84.9762 58.3731 84.6888C58.3015 84.5451 58.23 84.3295 58.1584 84.1858C57.9437 83.7546 57.8006 83.2516 57.6575 82.8205C57.6575 82.7486 57.5859 82.7487 57.5859 82.6768C57.3712 82.1019 57.2281 81.599 57.0849 81.0241C57.0134 80.7367 56.9418 80.5211 56.8702 80.2337C56.8702 80.09 56.7987 80.0181 56.7987 79.8744C56.584 79.5151 56.5124 79.084 56.4409 78.6528C56.3693 78.2217 56.2977 77.7187 56.2262 77.2876C56.2262 77.2157 56.2262 77.2157 56.2262 77.1439C56.1546 76.7127 56.1546 76.2816 56.083 75.9223C56.083 75.6349 56.0115 75.3475 56.0115 75.06C56.0115 74.9163 56.0115 74.7726 56.0115 74.6289C56.0115 74.1978 56.0115 73.7666 56.0115 73.3355C56.083 68.3055 57.5859 63.563 60.52 59.7546L59.5897 60.9762C56.5124 64.7846 55.0096 69.5271 54.938 74.557C54.938 74.9882 54.938 75.4193 54.938 75.8504C54.938 75.9942 54.938 76.1379 54.938 76.2816C54.938 76.569 54.938 76.8564 55.0096 77.1439C55.0811 77.575 55.0811 77.9343 55.1527 78.3654C55.1527 78.4373 55.1527 78.4373 55.1527 78.5091C55.2242 78.9403 55.2958 79.4433 55.3674 79.8744C55.4389 80.3055 55.5105 80.6648 55.6536 81.096C55.6536 81.2397 55.7252 81.3115 55.7252 81.4552C55.7968 81.6708 55.7968 81.8864 55.8683 82.0301C55.8683 82.1019 55.9399 82.1738 55.9399 82.2457C56.083 82.8205 56.2977 83.3235 56.4409 83.8984C56.4409 83.9702 56.4409 83.9702 56.5124 84.0421C56.6555 84.4732 56.8702 84.9762 57.0134 85.4073C57.0134 85.4792 57.0849 85.551 57.0849 85.551C57.1565 85.6948 57.2281 85.7666 57.2281 85.9103C57.3712 86.1978 57.5143 86.557 57.6575 86.8445C57.729 86.9163 57.729 86.9882 57.8006 87.1319C57.8721 87.2037 57.9437 87.3475 57.9437 87.4193C58.0868 87.7067 58.23 87.9942 58.3731 88.2097C58.4447 88.3534 58.5162 88.4253 58.5162 88.569C58.5878 88.6409 58.5878 88.7127 58.6594 88.8564C58.8025 89.072 58.9456 89.3594 59.0888 89.575C59.1603 89.7187 59.2319 89.8624 59.3034 89.9343C59.375 90.0061 59.375 90.078 59.4466 90.1499C59.5897 90.3654 59.7328 90.6528 59.876 90.8684C59.9475 91.0121 60.0191 91.1558 60.1622 91.2996C60.2338 91.3714 60.2338 91.4433 60.3054 91.5151C60.4485 91.7307 60.5916 91.9463 60.8063 92.2337C60.8779 92.3774 61.021 92.5211 61.0926 92.6648C61.1641 92.7367 61.1641 92.8085 61.2357 92.8085C61.3788 93.0241 61.5935 93.2397 61.7367 93.4552C61.8798 93.599 61.9513 93.7427 62.0945 93.8864C62.166 94.1019 62.166 94.1738 62.2376 94.1738C62.4523 94.3894 62.5954 94.6768 62.8101 94.8924C62.9533 95.0361 63.0248 95.1798 63.1679 95.3235C63.2395 95.3954 63.3111 95.4672 63.3826 95.5391C63.6689 95.8984 64.0267 96.2576 64.3846 96.6169L64.4561 96.6888C64.8139 97.1199 65.2433 97.4792 65.6727 97.9103C65.7443 97.9822 65.7443 97.9822 65.8159 98.054C66.1737 98.4133 66.6031 98.7726 66.9609 99.1319C67.0325 99.1319 67.0325 99.2037 67.104 99.2756C67.1756 99.3475 67.3187 99.4193 67.3903 99.4912C67.7481 99.7786 68.1059 100.066 68.4638 100.353C68.5353 100.425 68.6069 100.497 68.6784 100.569C68.8216 100.641 68.8931 100.713 69.0363 100.856C69.1794 100.928 69.251 101 69.3941 101.144C69.6804 101.359 70.0382 101.575 70.3244 101.791C70.396 101.862 70.4676 101.862 70.5391 101.934C70.5391 101.934 70.5391 101.934 70.6107 101.934C70.9685 102.222 71.3263 102.437 71.7557 102.653C71.7557 102.653 71.8273 102.653 71.8273 102.725C72.2567 103.012 72.6145 103.228 73.0439 103.443C73.0439 103.443 73.0439 103.443 73.1155 103.443C73.187 103.515 73.2586 103.515 73.3302 103.587C73.688 103.803 73.9742 103.946 74.3321 104.162C74.4752 104.234 74.6183 104.306 74.7615 104.377C75.0477 104.521 75.334 104.665 75.6202 104.809C75.7634 104.88 75.9065 104.952 76.0496 105.024C76.4075 105.168 76.6937 105.312 77.0515 105.455C77.1231 105.455 77.1947 105.527 77.2662 105.527H77.3378C77.4809 105.599 77.6241 105.671 77.8388 105.743C78.125 105.886 78.4113 105.958 78.6975 106.102C78.9122 106.174 79.0554 106.246 79.27 106.318C79.5563 106.389 79.8426 106.533 80.1288 106.605C80.3435 106.677 80.5582 106.749 80.7729 106.821C81.0592 106.892 81.3454 106.964 81.5601 107.036C81.7748 107.108 81.9895 107.18 82.2042 107.18C82.4905 107.252 82.7052 107.324 82.9914 107.395C83.063 107.395 83.1346 107.395 83.1346 107.467C83.4924 107.539 83.8502 107.611 84.208 107.683C84.709 107.755 85.2815 107.898 85.7825 107.97C85.9256 107.97 86.1403 108.042 86.2834 108.042C86.6412 108.114 86.9991 108.114 87.3569 108.186C87.4284 108.186 87.5 108.186 87.6431 108.186C87.7863 108.186 87.9294 108.186 88.0725 108.186C88.2872 108.186 88.5019 108.186 88.7166 108.258C88.9313 108.258 89.2176 108.258 89.4323 108.258C89.647 108.258 89.8616 108.258 90.0763 108.258C90.1479 108.258 90.2195 108.258 90.3626 108.258C90.4342 108.258 90.5057 108.258 90.5773 108.258C91.1498 108.258 91.7223 108.258 92.3664 108.186C92.438 108.186 92.438 108.186 92.5096 108.186C92.5096 108.186 92.5096 108.186 92.5811 108.186C93.1536 108.114 93.6546 108.114 94.2271 107.97C94.2987 107.97 94.2987 107.97 94.3702 107.97C94.5134 107.97 94.5849 107.898 94.7281 107.898C95.0859 107.826 95.4437 107.755 95.73 107.683C95.8015 107.683 95.9447 107.683 96.0162 107.611C96.0878 107.611 96.1594 107.539 96.3025 107.539C96.5887 107.467 96.875 107.395 97.1613 107.324C97.3044 107.324 97.376 107.252 97.5191 107.252C97.5907 107.252 97.6622 107.18 97.7338 107.18C98.02 107.108 98.3063 107.036 98.521 106.964C98.6641 106.892 98.8073 106.892 98.9504 106.821C99.022 106.821 99.022 106.821 99.0935 106.749C99.3798 106.677 99.5945 106.533 99.8807 106.461C100.024 106.389 100.167 106.389 100.31 106.318C100.31 106.318 100.382 106.318 100.382 106.246C100.596 106.174 100.883 106.03 101.097 105.886C101.24 105.815 101.384 105.743 101.527 105.671H101.598C101.813 105.527 102.099 105.455 102.314 105.312C102.457 105.24 102.6 105.168 102.743 105.096C102.743 105.096 102.743 105.096 102.815 105.096C103.101 104.952 103.387 104.737 103.674 104.593C103.745 104.521 103.888 104.449 103.96 104.377C104.318 104.162 104.676 103.874 105.105 103.587C105.463 103.3 105.892 103.012 106.25 102.725C106.465 102.509 106.679 102.365 106.894 102.15C107.037 102.006 107.18 101.862 107.395 101.719C107.753 101.431 108.039 101.072 108.325 100.713L108.397 100.641C108.397 100.641 108.397 100.641 108.469 100.569C108.755 100.21 109.041 99.8505 109.327 99.4912L110.258 98.2696C109.971 98.6289 109.685 98.9882 109.327 99.3475L109.256 99.4193C108.969 99.7786 108.612 100.066 108.325 100.425C108.182 100.569 108.039 100.713 107.824 100.856C107.61 101.072 107.395 101.216 107.18 101.431C106.823 101.719 106.393 102.078 106.035 102.365C105.677 102.653 105.32 102.868 104.89 103.156C104.747 103.228 104.676 103.3 104.532 103.371C104.246 103.515 103.96 103.731 103.674 103.874C103.531 103.946 103.387 104.018 103.173 104.09C102.958 104.234 102.672 104.377 102.457 104.449C102.314 104.521 102.099 104.593 101.956 104.665C101.741 104.809 101.455 104.88 101.24 105.024C101.097 105.096 100.883 105.168 100.74 105.24C100.453 105.312 100.239 105.455 99.9523 105.527C99.8092 105.599 99.5945 105.671 99.4513 105.671C99.1651 105.743 98.9504 105.815 98.6641 105.886C98.4494 105.958 98.3063 105.958 98.0916 106.03C97.8054 106.102 97.5191 106.174 97.2328 106.246C97.0181 106.318 96.875 106.318 96.6603 106.389C96.3025 106.461 95.9447 106.533 95.6584 106.605C95.5153 106.605 95.3006 106.677 95.1575 106.677C94.5849 106.749 94.084 106.821 93.5115 106.892C93.4399 106.892 93.3683 106.892 93.2968 106.892C92.7242 106.964 92.1517 106.964 91.5076 106.964C91.3645 106.964 91.1498 106.964 91.0067 106.964C90.792 106.964 90.5773 106.964 90.3626 106.964C90.1479 106.964 89.8617 106.964 89.647 106.964C89.4323 106.964 89.2176 106.964 89.0029 106.892C88.7882 106.892 88.5735 106.892 88.3588 106.821C88.001 106.821 87.6431 106.749 87.2853 106.677C87.1422 106.677 86.9275 106.605 86.7844 106.605C86.2834 106.533 85.7109 106.461 85.2099 106.318C84.7805 106.246 84.4227 106.174 83.9933 106.03C83.7071 105.958 83.4924 105.886 83.2061 105.815C82.9914 105.743 82.7767 105.671 82.562 105.671C82.2758 105.599 81.9895 105.527 81.7748 105.455C81.5601 105.383 81.3454 105.312 81.1307 105.24C80.8445 105.168 80.5582 105.024 80.272 104.952C80.0573 104.88 79.9141 104.809 79.6994 104.737C79.1985 104.737 78.9122 104.593 78.5544 104.521Z" fill="url(#paint5_linear_5_6474)"/>
<path d="M92.8674 86.7724L93.7977 85.5509L93.8693 85.479L92.9389 86.7006L92.8674 86.7724Z" fill="#784E4A"/>
<path d="M80.6298 77.2873C80.4151 77.3592 80.272 77.3592 80.0573 77.3592C79.9857 77.3592 79.9857 77.3592 79.9141 77.3592C79.771 77.3592 79.6279 77.3592 79.4132 77.3592H79.3416C79.1269 77.3592 78.9838 77.3592 78.8407 77.3592C78.6975 77.3592 78.5544 77.2873 78.4113 77.2873C78.3397 77.2873 78.2681 77.2155 78.1966 77.2155C78.125 77.1436 77.9819 77.1436 77.9103 77.0718C77.9103 77.0718 77.8388 77.0718 77.8388 76.9999C77.6956 76.9281 77.5525 76.8562 77.4094 76.7125C77.2662 76.5688 77.1231 76.4969 77.0515 76.3532C76.9084 76.2095 76.8368 76.0658 76.6937 75.9221C76.6222 75.7784 76.5506 75.6346 76.479 75.4909C76.4075 75.3472 76.3359 75.2035 76.3359 74.9879C76.3359 74.9879 76.3359 74.9879 76.3359 74.9161C76.3359 74.7724 76.2643 74.5568 76.2643 74.4131C76.2643 73.6945 76.5506 72.976 77.1231 72.1855L76.1928 73.4071C75.6202 74.1975 75.334 74.9161 75.334 75.6346C75.334 75.7065 75.334 75.7784 75.334 75.7784C75.334 75.8502 75.334 75.9939 75.4055 76.0658C75.4055 76.0658 75.4055 76.0658 75.4055 76.1376C75.4055 76.1376 75.4055 76.1376 75.4055 76.2095C75.4055 76.2814 75.4055 76.2814 75.4055 76.3532C75.4055 76.4251 75.4055 76.4969 75.4771 76.4969L75.5487 76.6406L75.6202 76.7843L75.6918 76.9281L75.7634 77.0718L75.8349 77.1436C75.8349 77.2155 75.9065 77.2155 75.9065 77.2873C75.9065 77.3592 75.9781 77.3592 75.9781 77.4311C76.0496 77.5029 76.0496 77.5029 76.1212 77.5748L76.1928 77.6466C76.2643 77.7185 76.2643 77.7185 76.3359 77.7903C76.4075 77.8622 76.4075 77.8622 76.479 77.8622L76.5506 77.9341C76.5506 77.9341 76.5506 77.9341 76.6222 77.9341C76.6937 78.0059 76.6937 78.0059 76.7653 78.0059C76.8368 78.0778 76.9084 78.0778 76.9084 78.1496C76.9084 78.1496 76.9084 78.1496 76.98 78.1496C76.98 78.1496 77.0515 78.1496 77.0515 78.2215C77.1231 78.2215 77.1947 78.2933 77.2662 78.2933C77.3378 78.2933 77.3378 78.2933 77.4094 78.3652C77.4809 78.3652 77.5525 78.437 77.6241 78.437C77.6956 78.437 77.6956 78.437 77.7672 78.437C77.8388 78.437 77.9819 78.5089 78.0534 78.5089H78.1966C78.3397 78.5089 78.4828 78.5089 78.5544 78.5089C78.5544 78.5089 78.5544 78.5089 78.626 78.5089H78.6975C78.7691 78.5089 78.8407 78.5089 78.9838 78.5089C79.0554 78.5089 79.1269 78.5089 79.1985 78.5089C79.2701 78.5089 79.2701 78.5089 79.3416 78.5089H79.4132C79.5563 78.5089 79.6994 78.437 79.8426 78.437C79.9141 78.437 79.9141 78.437 79.9857 78.437C80.1288 78.437 80.2004 78.3652 80.3435 78.3652C80.4151 78.3652 80.4867 78.2933 80.5582 78.2933L81.4886 77.0718C81.2739 77.1436 81.0592 77.2155 80.916 77.2155C80.7729 77.2873 80.7013 77.2873 80.6298 77.2873Z" fill="url(#paint6_linear_5_6474)"/>
<path d="M88.7166 82.0299L89.647 80.8083L93.7977 85.5509L92.8674 86.7724L88.7166 82.0299Z" fill="url(#paint7_linear_5_6474)"/>
<path d="M70.8254 70.2457L71.7558 69.0241C71.8989 68.8086 72.1136 68.593 72.2567 68.3774L71.3264 69.599C71.1832 69.8146 70.9685 70.0301 70.8254 70.2457Z" fill="#784E4A"/>
<path d="M71.3264 69.5989L72.2567 68.3773C72.4714 68.0899 72.7577 67.8743 72.9723 67.5869L72.042 68.8085C71.8273 69.0959 71.6126 69.3833 71.3264 69.5989Z" fill="#7C514D"/>
<path d="M79.1269 71.1078L80.0573 69.8862L85.2099 75.7066L84.2796 76.9281L79.1269 71.1078Z" fill="url(#paint8_linear_5_6474)"/>
<path d="M71.8273 62.7726L72.7576 61.551L76.0496 65.2876L75.1193 66.5091L71.8273 62.7726Z" fill="url(#paint9_linear_5_6474)"/>
<path d="M68.75 65.0001L69.6803 63.7786L72.7576 61.551L71.8273 62.7726L68.75 65.0001Z" fill="#8A5A55"/>
<path d="M96.4456 75.6347C96.3741 75.5629 96.3025 75.5629 96.2309 75.491C96.1594 75.4192 96.0162 75.3473 95.9447 75.2754C95.9447 75.2754 95.9447 75.2754 95.8731 75.2754C95.6584 75.1317 95.3722 74.988 95.1575 74.9162C95.1575 74.9162 95.0859 74.9162 95.0859 74.8443H95.0143C94.7996 74.7724 94.5849 74.7006 94.3702 74.6287C94.1556 74.5569 93.9409 74.485 93.7262 74.485C93.583 74.485 93.4399 74.4132 93.3683 74.4132C93.2968 74.4132 93.2252 74.4132 93.1536 74.4132C92.8674 74.3413 92.6527 74.3413 92.3664 74.3413C92.2949 74.3413 92.2949 74.3413 92.2233 74.3413C92.1517 74.3413 92.0086 74.3413 91.937 74.3413C91.7939 74.3413 91.6508 74.3413 91.5792 74.3413C91.4361 74.3413 91.293 74.3413 91.1498 74.3413C91.0783 74.3413 91.0067 74.3413 91.0067 74.3413H90.9351C90.7204 74.3413 90.5057 74.4132 90.3626 74.4132C90.2911 74.4132 90.1479 74.4132 90.0764 74.485C89.9332 74.485 89.7185 74.5569 89.5754 74.5569C89.3607 74.6287 89.2176 74.6287 89.0029 74.7006C89.0029 74.7006 89.0029 74.7006 88.9313 74.7006C88.7166 74.7724 88.5019 74.8443 88.2872 74.8443C88.1441 74.8443 88.0725 74.9162 87.9294 74.9162C87.8578 74.9162 87.7863 74.988 87.7147 74.988C87.3569 75.0599 87.0706 75.2036 86.7128 75.2754H86.6412C86.5697 75.2754 86.5697 75.2754 86.4981 75.3473C86.1403 75.491 85.7109 75.6347 85.2815 75.7784L84.2796 76.9281C84.709 76.7844 85.0668 76.6407 85.4962 76.497C85.5678 76.497 85.5678 76.497 85.6393 76.4251C85.9972 76.2814 86.355 76.2096 86.7128 76.0659C86.7844 76.0659 86.8559 75.994 86.9275 75.994C87.2853 75.9221 87.5716 75.7784 87.9294 75.7066C87.9294 75.7066 87.9294 75.7066 88.001 75.7066C88.3588 75.6347 88.7166 75.5629 89.0744 75.491C89.4323 75.4192 89.7185 75.4192 90.0764 75.3473C90.1479 75.3473 90.2195 75.3473 90.2195 75.3473C90.5057 75.3473 90.7204 75.3473 91.0067 75.3473C91.0783 75.3473 91.2214 75.3473 91.293 75.3473C91.5792 75.3473 91.937 75.4192 92.2233 75.491C92.2949 75.491 92.3664 75.491 92.3664 75.491C92.7243 75.5629 93.0105 75.6347 93.3683 75.7066C93.583 75.7784 93.7977 75.8503 94.0124 75.9221C94.084 75.9221 94.1556 75.994 94.1556 75.994C94.3702 76.0659 94.6565 76.2096 94.8712 76.3533H94.9428C95.0859 76.4251 95.1575 76.497 95.3006 76.5689C95.3722 76.6407 95.4437 76.6407 95.5153 76.7126C95.5869 76.7126 95.5869 76.7844 95.6584 76.7844C95.8015 76.8563 95.9447 77 96.0162 77.0718C96.0878 77.1437 96.0878 77.1437 96.1594 77.2156C96.3025 77.2874 96.3741 77.4311 96.5172 77.503C96.5888 77.5748 96.6603 77.5748 96.6603 77.6467C96.7319 77.7186 96.875 77.8623 96.9466 77.9341C97.0181 78.006 97.0897 78.0778 97.0897 78.0778C97.2328 78.2215 97.376 78.3653 97.5191 78.5808C97.7338 78.7964 97.8769 79.012 98.0201 79.2275L98.0916 79.2994C98.2348 79.515 98.3779 79.7305 98.521 79.9461L98.5926 80.018C98.7357 80.2335 98.8788 80.4491 98.9504 80.6647C98.9504 80.6647 98.9504 80.7365 99.022 80.7365C99.1651 80.9521 99.2367 81.1677 99.3082 81.3832C99.3082 81.4551 99.3082 81.4551 99.3798 81.5269C99.4514 81.7425 99.5229 81.9581 99.5945 82.1736V82.2455C99.6661 82.4611 99.7376 82.7485 99.7376 82.9641C99.7376 83.1078 99.8092 83.2515 99.8092 83.3952C99.8092 83.5389 99.8807 83.6826 99.8807 83.8263C99.8807 84.1138 99.9523 84.4012 99.8807 84.7605C99.8807 85.6227 99.6661 86.485 99.3798 87.3473C99.022 88.2096 98.5926 89 97.9485 89.8623L98.8788 88.6407C100.167 86.988 100.811 85.3353 100.811 83.6108C100.811 83.3233 100.811 83.0359 100.811 82.6766V82.6048C100.811 82.4611 100.811 82.3892 100.74 82.2455C100.74 82.1018 100.74 81.9581 100.668 81.8144V81.7425C100.596 81.5269 100.596 81.3114 100.525 81.1677V81.0958C100.453 80.9521 100.453 80.8084 100.382 80.6647C100.382 80.5928 100.31 80.5209 100.31 80.4491C100.31 80.3772 100.31 80.3772 100.239 80.3054V80.2335C100.167 80.0898 100.095 79.9461 100.024 79.8024C100.024 79.7305 99.9523 79.7305 99.9523 79.6587C99.9523 79.6587 99.9523 79.5868 99.8807 79.5868C99.8807 79.515 99.8092 79.515 99.8092 79.4431C99.7376 79.2994 99.6661 79.1557 99.5945 79.0838C99.5945 79.012 99.5229 79.012 99.5229 78.9401L99.4514 78.8683C99.4514 78.7964 99.3798 78.7964 99.3798 78.7245C99.3082 78.5808 99.2367 78.4371 99.0935 78.3653L99.022 78.2934L98.9504 78.2215C98.8788 78.1497 98.8788 78.0778 98.8073 78.006C98.7357 77.8623 98.5926 77.7186 98.4494 77.5748L98.3779 77.503C98.2348 77.3593 98.1632 77.2156 98.0201 77.1437L97.9485 77.0718C98.0201 76.9281 97.9485 76.9281 97.9485 76.8563C97.8769 76.7844 97.8054 76.7126 97.8054 76.7126C97.7338 76.6407 97.7338 76.6407 97.6622 76.5689C97.5907 76.497 97.5191 76.497 97.5191 76.4251L97.4475 76.3533C97.376 76.2814 97.3044 76.2096 97.2328 76.1377C97.1613 76.0659 97.1613 76.0659 97.0897 75.994C97.0897 75.994 97.0897 75.994 97.0181 75.9221C96.875 75.8503 96.8035 75.7784 96.6603 75.6347C96.5172 75.6347 96.5172 75.6347 96.4456 75.6347Z" fill="url(#paint10_linear_5_6474)"/>
<path d="M93.3683 75.7784C94.8712 76.2095 96.3025 77.2155 97.5907 78.7245C99.2366 80.5927 100.024 82.6766 100.024 84.9041C99.9523 87.1317 98.9504 89.2874 96.875 91.2993L100.239 95.1796L97.1613 97.4071L93.8693 93.6706C92.2948 94.6766 90.5773 95.467 88.7166 95.97C86.9275 96.473 85.2815 96.6886 83.7786 96.5448L81.7748 91.0838C83.1345 91.1556 84.4943 91.0119 85.9256 90.7245C87.3569 90.3652 88.645 89.8622 89.8616 89.2155L84.7805 83.467C82.9914 84.1137 81.3454 84.6167 79.9141 84.8323C78.4828 85.1197 77.0515 84.976 75.5487 84.5448C74.0458 84.1137 72.6145 83.1077 71.2548 81.5987C69.6088 79.6586 68.75 77.5748 68.8216 75.3472C68.8931 73.0478 69.895 70.964 71.9704 68.8802L68.6069 65.0718L71.6842 62.8442L74.9761 66.5808C77.6956 64.9281 80.4151 64.1377 83.063 64.1377L85.2815 69.5269C82.8483 69.6706 80.7729 70.2454 78.9838 71.1796L84.1365 77.0718C85.9256 76.3532 87.5 75.9221 88.8597 75.6347C90.4342 75.2754 91.8655 75.3472 93.3683 75.7784ZM80.4151 78.2933L76.1212 73.4071C75.5487 74.1975 75.2624 74.9161 75.2624 75.6347C75.2624 76.3532 75.5487 76.9999 76.0496 77.5748C76.5506 78.1496 77.1947 78.5089 77.9103 78.5808C78.626 78.7245 79.4847 78.5808 80.4151 78.2933ZM93.7261 84.6167C93.7261 83.8981 93.5114 83.3233 93.0105 82.7484C92.5095 82.1736 91.937 81.8143 91.2214 81.7424C90.5057 81.6706 89.7185 81.7424 88.7166 81.958L92.8674 86.7005C93.4399 86.0538 93.7261 85.3353 93.7261 84.6167Z" fill="url(#paint11_linear_5_6474)"/>
<path d="M93.3683 75.7784C94.8712 76.2095 96.3025 77.2155 97.5907 78.7245C99.2366 80.5927 100.024 82.6766 100.024 84.9041C99.9523 87.1317 98.9504 89.2874 96.875 91.2993L100.239 95.1796L97.1613 97.4071L93.8693 93.6706C92.2948 94.6766 90.5773 95.467 88.7166 95.97C86.9275 96.473 85.2815 96.6886 83.7786 96.5448L81.7748 91.0838C83.1345 91.1556 84.4943 91.0119 85.9256 90.7245C87.3569 90.3652 88.645 89.8622 89.8616 89.2155L84.7805 83.467C82.9914 84.1137 81.3454 84.6167 79.9141 84.8323C78.4828 85.1197 77.0515 84.976 75.5487 84.5448C74.0458 84.1137 72.6145 83.1077 71.2548 81.5987C69.6088 79.6586 68.75 77.5748 68.8216 75.3472C68.8931 73.0478 69.895 70.964 71.9704 68.8802L68.6069 65.0718L71.6842 62.8442L74.9761 66.5808C77.6956 64.9281 80.4151 64.1377 83.063 64.1377L85.2815 69.5269C82.8483 69.6706 80.7729 70.2454 78.9838 71.1796L84.1365 77.0718C85.9256 76.3532 87.5 75.9221 88.8597 75.6347C90.4342 75.2754 91.8655 75.3472 93.3683 75.7784ZM80.4151 78.2933L76.1212 73.4071C75.5487 74.1975 75.2624 74.9161 75.2624 75.6347C75.2624 76.3532 75.5487 76.9999 76.0496 77.5748C76.5506 78.1496 77.1947 78.5089 77.9103 78.5808C78.626 78.7245 79.4847 78.5808 80.4151 78.2933ZM93.7261 84.6167C93.7261 83.8981 93.5115 83.3233 93.0105 82.7484C92.5095 82.1736 91.937 81.8143 91.2214 81.7424C90.5057 81.6706 89.7185 81.7424 88.7166 81.958L92.8674 86.7005C93.4399 86.0538 93.7261 85.3353 93.7261 84.6167Z" stroke="url(#paint12_linear_5_6474)" stroke-width="0.5" stroke-miterlimit="10"/>
<path d="M83.2061 64.0658L85.3531 69.455L86.355 68.1616L84.1365 62.8442L83.2061 64.0658Z" fill="url(#paint13_linear_5_6474)"/>
<path d="M76.9084 65.5749C77.0515 65.503 77.2662 65.4311 77.4094 65.3593C77.5525 65.2874 77.7672 65.2156 77.9103 65.1437C78.0535 65.0719 78.1966 65 78.3397 65C78.5544 64.9282 78.6975 64.8563 78.9122 64.7844C79.0554 64.7126 79.1985 64.7126 79.3416 64.6407C79.5563 64.5689 79.6994 64.5689 79.9141 64.497C80.0573 64.497 80.2004 64.4252 80.272 64.4252C80.4867 64.3533 80.7014 64.3533 80.8445 64.2814C80.9876 64.2814 81.0592 64.2096 81.2023 64.2096C81.417 64.2096 81.6317 64.1377 81.7748 64.1377C81.918 64.1377 81.9895 64.1377 82.1327 64.0659C82.4189 64.0659 82.7767 63.994 83.063 63.994L83.9933 62.7725C83.7071 62.7725 83.4208 62.7725 83.1346 62.8443H83.063C82.9199 62.8443 82.8483 62.8443 82.7052 62.9162C82.562 62.9162 82.3473 62.9162 82.2042 62.988H82.1327C81.9895 62.988 81.918 63.0599 81.7748 63.0599C81.6317 63.0599 81.4886 63.1317 81.3454 63.1317C81.2739 63.1317 81.2739 63.1317 81.2023 63.2036C81.0592 63.2036 80.916 63.2755 80.8445 63.2755C80.7014 63.2755 80.6298 63.3473 80.4867 63.3473C80.4151 63.3473 80.3435 63.4192 80.272 63.4192C80.1288 63.491 79.9857 63.491 79.8426 63.5629C79.771 63.5629 79.6279 63.6347 79.5563 63.6347C79.4848 63.6347 79.3416 63.7066 79.2701 63.7066C79.1269 63.7784 78.9838 63.8503 78.8407 63.8503C78.7691 63.8503 78.6975 63.9222 78.626 63.9222C78.5544 63.994 78.4113 63.994 78.3397 64.0659C78.1966 64.1377 77.9819 64.2096 77.8388 64.2814C77.7672 64.2814 77.6956 64.3533 77.6241 64.3533C77.5525 64.4252 77.4094 64.4252 77.3378 64.497C77.1231 64.5689 76.98 64.7126 76.7653 64.7844C76.6937 64.8563 76.6222 64.8563 76.5506 64.9281C76.4075 65 76.1928 65.1437 76.0496 65.2156L75.1193 66.4371C75.4056 66.2934 75.6202 66.1497 75.9065 66.006C76.1212 65.9341 76.2643 65.7904 76.479 65.7186C76.6222 65.7186 76.7653 65.6467 76.9084 65.5749Z" fill="url(#paint14_linear_5_6474)"/>
<path d="M105.105 64.9999C110.759 71.467 113.55 79.0119 113.55 86.0538C113.478 93.0958 110.544 99.491 104.819 103.73C99.022 107.97 91.5792 109.192 84.0649 107.683C76.5506 106.174 69.0363 102.078 63.3826 95.6107C57.729 89.1437 54.938 81.5988 54.938 74.5568C55.0096 67.5149 57.9437 61.1197 63.6689 56.8802C69.4657 52.6407 76.9084 51.4191 84.4227 52.9281C92.0086 54.3652 99.4513 58.5329 105.105 64.9999Z" stroke="url(#paint15_linear_5_6474)" stroke-width="0.5" stroke-miterlimit="10"/>
</g>
<defs>
<filter id="filter0_d_5_6474" x="-0.00112915" y="0.994141" width="175.001" height="172.006" filterUnits="userSpaceOnUse" color-interpolation-filters="sRGB">
<feFlood flood-opacity="0" result="BackgroundImageFix"/>
<feColorMatrix in="SourceAlpha" type="matrix" values="0 0 0 0 0 0 0 0 0 0 0 0 0 0 0 0 0 0 127 0" result="hardAlpha"/>
<feOffset dy="10"/>
<feGaussianBlur stdDeviation="25"/>
<feComposite in2="hardAlpha" operator="out"/>
<feColorMatrix type="matrix" values="0 0 0 0 0 0 0 0 0 0 0 0 0 0 0 0 0 0 0.75 0"/>
<feBlend mode="normal" in2="BackgroundImageFix" result="effect1_dropShadow_5_6474"/>
<feBlend mode="normal" in="SourceGraphic" in2="effect1_dropShadow_5_6474" result="shape"/>
</filter>
<linearGradient id="paint0_linear_5_6474" x1="67.3589" y1="42.763" x2="125.822" y2="87.5376" gradientUnits="userSpaceOnUse">
<stop offset="0.1136" stop-color="#D7AC4C"/>
<stop offset="0.1816" stop-color="#FFFFB0"/>
<stop offset="0.3268" stop-color="#F4D174"/>
<stop offset="0.3659" stop-color="#FBED99"/>
<stop offset="0.3939" stop-color="#FAEC97"/>
<stop offset="0.433" stop-color="#DEB04D"/>
<stop offset="0.5275" stop-color="#DFB24F"/>
<stop offset="0.5615" stop-color="#E2B756"/>
<stop offset="0.5858" stop-color="#E7C161"/>
<stop offset="0.6053" stop-color="#EECF72"/>
<stop offset="0.6207" stop-color="#F6DF86"/>
<stop offset="0.7529" stop-color="#F2D87E"/>
<stop offset="0.7672" stop-color="#F1D77D"/>
<stop offset="0.7716" stop-color="#EBCD71"/>
<stop offset="0.7804" stop-color="#E2BE60"/>
<stop offset="0.7913" stop-color="#DCB455"/>
<stop offset="0.8066" stop-color="#D8AE4E"/>
<stop offset="0.8492" stop-color="#D7AC4C"/>
<stop offset="1" stop-color="#966424"/>
</linearGradient>
<linearGradient id="paint1_linear_5_6474" x1="97.417" y1="108.814" x2="60.8884" y2="30.2694" gradientUnits="userSpaceOnUse">
<stop stop-color="#D2AB5A"/>
<stop offset="0.0610851" stop-color="#BA9443"/>
<stop offset="0.1898" stop-color="#7C5808"/>
<stop offset="0.2069" stop-color="#735000"/>
<stop offset="0.2274" stop-color="#775200"/>
<stop offset="0.3376" stop-color="#8A5D00"/>
<stop offset="0.4146" stop-color="#916100"/>
<stop offset="0.4344" stop-color="#976707"/>
<stop offset="0.4986" stop-color="#D8B364"/>
<stop offset="0.5246" stop-color="#D4AE5D"/>
<stop offset="0.5617" stop-color="#CA9F4A"/>
<stop offset="0.6053" stop-color="#B9882C"/>
<stop offset="0.6414" stop-color="#A8700D"/>
<stop offset="0.6805" stop-color="#815400"/>
<stop offset="0.8029" stop-color="#B38116"/>
<stop offset="0.8267" stop-color="#A27114"/>
<stop offset="0.8802" stop-color="#815110"/>
<stop offset="0.9247" stop-color="#6C3D0E"/>
<stop offset="0.9545" stop-color="#65360D"/>
<stop offset="0.9581" stop-color="#6F3F0D"/>
<stop offset="0.9701" stop-color="#8A580C"/>
<stop offset="0.9807" stop-color="#9B670C"/>
<stop offset="0.9886" stop-color="#A16C0C"/>
</linearGradient>
<linearGradient id="paint2_linear_5_6474" x1="105.122" y1="130.502" x2="63.6214" y2="31.4294" gradientUnits="userSpaceOnUse">
<stop stop-color="#D2AB5A"/>
<stop offset="0.0610851" stop-color="#BA9443"/>
<stop offset="0.1898" stop-color="#7C5808"/>
<stop offset="0.2069" stop-color="#735000"/>
<stop offset="0.2274" stop-color="#775200"/>
<stop offset="0.3376" stop-color="#8A5D00"/>
<stop offset="0.4146" stop-color="#916100"/>
<stop offset="0.4344" stop-color="#976707"/>
<stop offset="0.4986" stop-color="#D8B364"/>
<stop offset="0.5246" stop-color="#D4AE5D"/>
<stop offset="0.5617" stop-color="#CA9F4A"/>
<stop offset="0.6053" stop-color="#B9882C"/>
<stop offset="0.6414" stop-color="#A8700D"/>
<stop offset="0.6805" stop-color="#815400"/>
<stop offset="0.8029" stop-color="#B38116"/>
<stop offset="0.8267" stop-color="#A27114"/>
<stop offset="0.8802" stop-color="#815110"/>
<stop offset="0.9247" stop-color="#6C3D0E"/>
<stop offset="0.9545" stop-color="#65360D"/>
<stop offset="0.9581" stop-color="#6F3F0D"/>
<stop offset="0.9701" stop-color="#8A580C"/>
<stop offset="0.9807" stop-color="#9B670C"/>
<stop offset="0.9886" stop-color="#A16C0C"/>
</linearGradient>
<linearGradient id="paint3_linear_5_6474" x1="113.89" y1="107.422" x2="91.4719" y2="92.9538" gradientUnits="userSpaceOnUse">
<stop stop-color="#A16C0C"/>
<stop offset="0.2318" stop-color="#BE9134"/>
<stop offset="0.5559" stop-color="#A8700D"/>
<stop offset="1" stop-color="#432400"/>
</linearGradient>
<linearGradient id="paint4_linear_5_6474" x1="109.673" y1="102.769" x2="98.8966" y2="92.5727" gradientUnits="userSpaceOnUse">
<stop stop-color="#A16C0C"/>
<stop offset="0.2318" stop-color="#BE9134"/>
<stop offset="0.5559" stop-color="#A8700D"/>
<stop offset="1" stop-color="#432400"/>
</linearGradient>
<linearGradient id="paint5_linear_5_6474" x1="141.7" y1="114.933" x2="58.5309" y2="78.4009" gradientUnits="userSpaceOnUse">
<stop stop-color="#A16C0C"/>
<stop offset="0.2318" stop-color="#BE9134"/>
<stop offset="0.5559" stop-color="#A8700D"/>
<stop offset="1" stop-color="#432400"/>
</linearGradient>
<linearGradient id="paint6_linear_5_6474" x1="103.38" y1="85.5667" x2="75.7088" y2="74.8641" gradientUnits="userSpaceOnUse">
<stop stop-color="#A16C0C"/>
<stop offset="0.2318" stop-color="#BE9134"/>
<stop offset="0.5559" stop-color="#A8700D"/>
<stop offset="1" stop-color="#432400"/>
</linearGradient>
<linearGradient id="paint7_linear_5_6474" x1="103.063" y1="93.7357" x2="91.7532" y2="84.2601" gradientUnits="userSpaceOnUse">
<stop stop-color="#A16C0C"/>
<stop offset="0.2318" stop-color="#BE9134"/>
<stop offset="0.4314" stop-color="#A8700D"/>
<stop offset="1" stop-color="#432400"/>
</linearGradient>
<linearGradient id="paint8_linear_5_6474" x1="90.2496" y1="81.7987" x2="78.9164" y2="70.1291" gradientUnits="userSpaceOnUse">
<stop stop-color="#A16C0C"/>
<stop offset="0.2318" stop-color="#BE9134"/>
<stop offset="0.5559" stop-color="#A8700D"/>
<stop offset="1" stop-color="#432400"/>
</linearGradient>
<linearGradient id="paint9_linear_5_6474" x1="101.898" y1="74.1444" x2="75.0361" y2="64.5134" gradientUnits="userSpaceOnUse">
<stop stop-color="#A16C0C"/>
<stop offset="0.2318" stop-color="#BE9134"/>
<stop offset="0.5559" stop-color="#A8700D"/>
<stop offset="1" stop-color="#432400"/>
</linearGradient>
<linearGradient id="paint10_linear_5_6474" x1="111.866" y1="92.1512" x2="93.0363" y2="80.1847" gradientUnits="userSpaceOnUse">
<stop stop-color="#A16C0C"/>
<stop offset="0.2318" stop-color="#BE9134"/>
<stop offset="0.5559" stop-color="#A8700D"/>
<stop offset="1" stop-color="#432400"/>
</linearGradient>
<linearGradient id="paint11_linear_5_6474" x1="57.9707" y1="31.7166" x2="102.811" y2="112.952" gradientUnits="userSpaceOnUse">
<stop stop-color="#D2AB5A"/>
<stop offset="0.0610851" stop-color="#BA9443"/>
<stop offset="0.1898" stop-color="#7C5808"/>
<stop offset="0.2069" stop-color="#735000"/>
<stop offset="0.2274" stop-color="#775200"/>
<stop offset="0.3376" stop-color="#8A5D00"/>
<stop offset="0.4146" stop-color="#916100"/>
<stop offset="0.4344" stop-color="#976707"/>
<stop offset="0.4986" stop-color="#D8B364"/>
<stop offset="0.5246" stop-color="#D4AE5D"/>
<stop offset="0.5617" stop-color="#CA9F4A"/>
<stop offset="0.6053" stop-color="#B9882C"/>
<stop offset="0.6414" stop-color="#A8700D"/>
<stop offset="0.6805" stop-color="#815400"/>
<stop offset="0.8029" stop-color="#B38116"/>
<stop offset="0.8267" stop-color="#A27114"/>
<stop offset="0.8802" stop-color="#815110"/>
<stop offset="0.9247" stop-color="#6C3D0E"/>
<stop offset="0.9545" stop-color="#65360D"/>
<stop offset="0.9581" stop-color="#6F3F0D"/>
<stop offset="0.9701" stop-color="#8A580C"/>
<stop offset="0.9807" stop-color="#9B670C"/>
<stop offset="0.9886" stop-color="#A16C0C"/>
</linearGradient>
<linearGradient id="paint12_linear_5_6474" x1="68.48" y1="80.0952" x2="100.52" y2="80.0952" gradientUnits="userSpaceOnUse">
<stop stop-color="#D2AB5A"/>
<stop offset="0.0610851" stop-color="#BA9443"/>
<stop offset="0.1898" stop-color="#7C5808"/>
<stop offset="0.2069" stop-color="#735000"/>
<stop offset="0.2274" stop-color="#775200"/>
<stop offset="0.3376" stop-color="#8A5D00"/>
<stop offset="0.4146" stop-color="#916100"/>
<stop offset="0.4344" stop-color="#976707"/>
<stop offset="0.4986" stop-color="#D8B364"/>
<stop offset="0.5246" stop-color="#D4AE5D"/>
<stop offset="0.5617" stop-color="#CA9F4A"/>
<stop offset="0.6053" stop-color="#B9882C"/>
<stop offset="0.6414" stop-color="#A8700D"/>
<stop offset="0.6805" stop-color="#815400"/>
<stop offset="0.8029" stop-color="#B38116"/>
<stop offset="0.8267" stop-color="#A27114"/>
<stop offset="0.8802" stop-color="#815110"/>
<stop offset="0.9247" stop-color="#6C3D0E"/>
<stop offset="0.9545" stop-color="#65360D"/>
<stop offset="0.9581" stop-color="#6F3F0D"/>
<stop offset="0.9701" stop-color="#8A580C"/>
<stop offset="0.9807" stop-color="#9B670C"/>
<stop offset="0.9886" stop-color="#A16C0C"/>
</linearGradient>
<linearGradient id="paint13_linear_5_6474" x1="113.431" y1="81.2696" x2="85.0686" y2="66.4093" gradientUnits="userSpaceOnUse">
<stop stop-color="#A16C0C"/>
<stop offset="0.2318" stop-color="#BE9134"/>
<stop offset="0.5559" stop-color="#A8700D"/>
<stop offset="1" stop-color="#432400"/>
</linearGradient>
<linearGradient id="paint14_linear_5_6474" x1="102.347" y1="72.8918" x2="75.4852" y2="63.2607" gradientUnits="userSpaceOnUse">
<stop stop-color="#A16C0C"/>
<stop offset="0.2318" stop-color="#BE9134"/>
<stop offset="0.5559" stop-color="#A8700D"/>
<stop offset="1" stop-color="#432400"/>
</linearGradient>
<linearGradient id="paint15_linear_5_6474" x1="95.8884" y1="108.279" x2="72.456" y2="52.3399" gradientUnits="userSpaceOnUse">
<stop stop-color="#D2AB5A"/>
<stop offset="0.0610851" stop-color="#BA9443"/>
<stop offset="0.1898" stop-color="#7C5808"/>
<stop offset="0.2069" stop-color="#735000"/>
<stop offset="0.2274" stop-color="#775200"/>
<stop offset="0.3376" stop-color="#8A5D00"/>
<stop offset="0.4146" stop-color="#916100"/>
<stop offset="0.4344" stop-color="#976707"/>
<stop offset="0.4986" stop-color="#D8B364"/>
<stop offset="0.5246" stop-color="#D4AE5D"/>
<stop offset="0.5617" stop-color="#CA9F4A"/>
<stop offset="0.6053" stop-color="#B9882C"/>
<stop offset="0.6414" stop-color="#A8700D"/>
<stop offset="0.6805" stop-color="#815400"/>
<stop offset="0.8029" stop-color="#B38116"/>
<stop offset="0.8267" stop-color="#A27114"/>
<stop offset="0.8802" stop-color="#815110"/>
<stop offset="0.9247" stop-color="#6C3D0E"/>
<stop offset="0.9545" stop-color="#65360D"/>
<stop offset="0.9581" stop-color="#6F3F0D"/>
<stop offset="0.9701" stop-color="#8A580C"/>
<stop offset="0.9807" stop-color="#9B670C"/>
<stop offset="0.9886" stop-color="#A16C0C"/>
</linearGradient>
</defs>
</svg>
