<svg width="96" height="93" viewBox="0 0 96 93" fill="none" xmlns="http://www.w3.org/2000/svg">
<path d="M84.8804 63.5931C80.6811 70.9037 73.1775 76.056 63.1956 77.5181C53.2137 78.9106 42.75 76.2648 33.8695 70.9037C24.9891 65.473 17.692 57.3268 14.0434 47.6489C10.4637 37.971 11.221 28.6413 15.4203 21.3306C19.6195 14.0896 27.1232 8.86775 37.105 7.40562C47.0869 5.9435 57.5507 8.65888 66.4311 14.02C75.3116 19.4508 82.6087 27.5969 86.2572 37.2748C89.8369 47.0223 89.0108 56.2824 84.8804 63.5931Z" fill="url(#paint0_linear_91_3923)"/>
<path d="M84.8804 63.593L83.7789 65.3336C87.9782 58.023 88.7355 48.7629 85.1557 39.0153C81.576 29.3374 74.2789 21.1217 65.3297 15.7606C56.4492 10.3298 45.9854 7.68404 36.0036 9.14617C26.5036 10.469 19.1376 15.2732 14.8695 22.0268L15.971 20.2862C20.2391 13.5326 27.5362 8.72842 37.105 7.40554C47.0869 6.01304 57.5507 8.6588 66.4311 14.0199C75.3115 19.4507 82.6086 27.5968 86.2572 37.2747C89.8369 47.0222 89.0797 56.2824 84.8804 63.593Z" fill="url(#paint1_linear_91_3923)"/>
<path d="M84.2608 64.5678L83.1593 66.3084C83.3658 65.9603 83.5723 65.6818 83.7789 65.3336L84.8803 63.593C84.6738 63.9411 84.4673 64.2196 84.2608 64.5678Z" fill="url(#paint2_linear_91_3923)"/>
<path d="M90.0434 68.3276L84.8804 76.4738C79.855 84.3414 71.3188 89.9811 60.1666 91.5824C48.5325 93.2534 36.2101 90.1203 25.8151 83.854C15.4202 77.5182 6.88397 67.9099 2.6847 56.6306C-1.51458 45.2817 -0.619649 34.3506 4.26803 25.8563C4.47455 25.4386 8.81151 18.6849 9.01803 18.3368L10.1195 16.5962C9.91296 16.9443 9.6376 17.3621 9.43108 17.7798C4.5434 26.2741 3.64847 37.2052 7.84774 48.5541C12.047 59.8334 20.5832 69.4416 30.9782 75.7775C41.3731 82.1134 53.6267 85.1769 65.3296 83.5059C76.4818 81.8349 85.0869 76.2649 90.0434 68.3276Z" fill="url(#paint3_linear_91_3923)"/>
<path d="M92.384 36.4393C88.1847 25.1601 79.6485 15.5518 69.2536 9.21592C58.7898 2.88004 46.5362 -0.183465 34.8333 1.41791C23.1992 3.08892 14.3188 9.21592 9.43112 17.7102C4.54344 26.2044 3.64851 37.1356 7.84778 48.4845C12.0471 59.7637 20.5833 69.372 30.9782 75.7079C41.3731 82.0438 53.6268 85.1073 65.3297 83.4363C76.9637 81.7653 85.8442 75.7079 90.7318 67.2136C95.6195 58.7194 96.5833 47.7186 92.384 36.4393ZM84.8804 63.5931C80.6811 70.9038 73.1775 76.056 63.1956 77.5182C53.2137 78.9107 42.75 76.2649 33.8695 70.9038C24.9891 65.473 17.692 57.3269 14.0434 47.649C10.4637 37.9711 11.221 28.6413 15.4202 21.3307C19.6195 14.0897 27.1231 8.8678 37.105 7.40567C47.0869 5.94354 57.5507 8.65892 66.4311 14.0201C75.3116 19.4508 82.6087 27.5969 86.2572 37.2748C89.8369 47.0224 89.0108 56.2825 84.8804 63.5931Z" fill="url(#paint4_linear_91_3923)"/>
<path d="M84.8804 63.5931C80.6811 70.9037 73.1775 76.056 63.1956 77.5181C53.2137 78.9106 42.75 76.2648 33.8695 70.9037C24.9891 65.473 17.692 57.3268 14.0434 47.6489C10.4637 37.971 11.221 28.6413 15.4203 21.3306C19.6195 14.0896 27.1232 8.86775 37.105 7.40562C47.0869 5.9435 57.5507 8.65888 66.4311 14.02C75.3116 19.4508 82.6087 27.5969 86.2572 37.2748C89.8369 47.0223 89.0108 56.2824 84.8804 63.5931Z" stroke="url(#paint5_linear_91_3923)" stroke-miterlimit="10"/>
<path d="M40.9601 24.255L39.8587 25.9956L37.7246 20.2863L38.8261 18.4761L40.9601 24.255Z" fill="url(#paint6_linear_91_3923)"/>
<path d="M57.9637 31.7048L56.8622 33.4454C53.6267 32.3314 50.5977 31.844 47.7064 31.9136L48.8079 30.173C51.6992 30.1034 54.7282 30.5908 57.9637 31.7048Z" fill="url(#paint7_linear_91_3923)"/>
<path d="M43.5072 31.0781L42.4058 32.8188C41.3043 33.3061 40.5471 33.8631 40.0652 34.4898L41.1666 32.7491C41.6485 32.1225 42.4058 31.5655 43.5072 31.0781Z" fill="url(#paint8_linear_91_3923)"/>
<path d="M46.2608 38.3888L45.1594 40.199L42.4058 32.8188L43.5072 31.0781L46.2608 38.3888Z" fill="url(#paint9_linear_91_3923)"/>
<path d="M59.8912 51.896L58.7898 53.6367C59.2028 52.9404 59.2717 52.1745 58.9274 51.2694C58.5832 50.4339 58.0325 49.7377 57.1376 49.3199C56.3115 48.8325 55.1412 48.554 53.7644 48.2755L54.8659 46.5349C56.2427 46.7438 57.413 47.0919 58.239 47.5793C59.134 48.0667 59.6847 48.6933 60.0289 49.5288C60.3731 50.4339 60.3043 51.1998 59.8912 51.896Z" fill="url(#paint10_linear_91_3923)"/>
<path d="M59.8912 51.896L58.7898 53.6367C59.2028 52.9404 59.2717 52.1745 58.9274 51.2694C58.5832 50.4339 58.0325 49.7377 57.1376 49.3199C56.3115 48.8325 55.1412 48.554 53.7644 48.2755L54.8659 46.5349C56.2427 46.7438 57.413 47.0919 58.239 47.5793C59.134 48.0667 59.6847 48.6933 60.0289 49.5288C60.3731 50.4339 60.3043 51.1998 59.8912 51.896Z" fill="url(#paint11_linear_91_3923)"/>
<path d="M59.8224 52.0352L58.7209 53.7759L58.7898 53.6366L59.8912 51.896L59.8224 52.0352Z" fill="url(#paint12_linear_91_3923)"/>
<path d="M49.0832 45.978L47.9818 47.7186C45.2281 47.5097 42.8876 47.1616 40.8912 46.6742C38.8948 46.1869 37.0361 45.3514 35.3151 44.0981C33.5941 42.8449 32.355 41.1042 31.5289 38.8066C30.4963 35.952 30.6339 33.3758 32.0107 31.0086C32.0796 30.939 32.0796 30.8693 32.1484 30.7997L33.2499 29.0591C33.181 29.1287 33.181 29.1983 33.1122 29.268C31.7354 31.6352 31.5977 34.2113 32.6303 37.066C33.4564 39.3636 34.7644 41.1042 36.4165 42.3575C38.1376 43.6107 39.9274 44.4462 41.9926 44.9336C43.989 45.421 46.3296 45.7691 49.0832 45.978Z" fill="url(#paint13_linear_91_3923)"/>
<path d="M52.3188 54.6115L51.2173 56.3522L47.9818 47.7883L49.0833 45.978L52.3188 54.6115Z" fill="url(#paint14_linear_91_3923)"/>
<path d="M67.7391 55.5862L66.6376 57.3964C65.2608 59.6244 62.6449 61.2258 58.9275 62.2702L60.0289 60.5296C63.8152 59.4852 66.3623 57.8142 67.7391 55.5862Z" fill="url(#paint15_linear_91_3923)"/>
<path d="M56.9311 67.0046L55.7608 68.7453L53.6956 63.1752L54.797 61.365L56.9311 67.0046Z" fill="url(#paint16_linear_91_3923)"/>
<path d="M62.2318 66.2388L61.1303 68.049L55.7607 68.7453L56.931 67.0046L62.2318 66.2388Z" fill="url(#paint17_linear_91_3923)"/>
<path d="M54.797 61.3652L53.6955 63.1754C51.0107 63.3843 48.3259 63.3147 45.71 62.8969C43.0252 62.4792 40.8223 61.8525 38.9636 60.9474L40.0651 59.2068C41.9238 60.1119 44.1955 60.7385 46.8115 61.1563C49.4962 61.5044 52.1122 61.6437 54.797 61.3652Z" fill="url(#paint18_linear_91_3923)"/>
<path d="M64.5723 42.4967C66.2934 43.7499 67.5325 45.4906 68.3586 47.7186C69.3912 50.5732 69.2535 53.0797 67.8767 55.447C66.4999 57.7446 63.8839 59.4156 60.0977 60.5296L62.2318 66.3085L56.931 67.0744L54.8658 61.4347C52.181 61.6436 49.4963 61.574 46.8803 61.1562C44.1955 60.7385 41.9926 60.1118 40.1339 59.2067L40.6847 52.5227C42.4057 53.2886 44.2644 53.8456 46.3296 54.2633C48.3948 54.6811 50.3912 54.8203 52.3876 54.6811L49.1521 46.0476C46.3984 45.8387 44.0578 45.4906 42.0615 45.0032C40.0651 44.5158 38.2064 43.6803 36.4854 42.4271C34.7644 41.1738 33.5252 39.4332 32.6992 37.1356C31.6665 34.2809 31.8042 31.7048 33.181 29.3376C34.5578 26.9703 37.1738 25.2993 41.0977 24.2549L38.9636 18.5457L44.2644 17.7798L46.3296 23.4194C50.8042 23.1409 54.797 23.6979 58.3078 25.0208L58.0325 31.7744C54.797 30.6604 51.768 30.1731 48.8767 30.2427L52.1122 39.0154C54.797 39.2243 57.1376 39.5724 59.1339 39.9902C61.0615 40.4079 62.9202 41.2434 64.5723 42.4967ZM46.2607 38.3888L43.5071 31.0782C42.268 31.5656 41.4419 32.1922 41.0977 32.9581C40.6847 33.7239 40.6847 34.5594 41.0289 35.4646C41.3731 36.3001 41.9238 36.9963 42.8187 37.4141C43.7136 37.9014 44.8151 38.2496 46.2607 38.3888ZM59.8912 51.8961C60.3042 51.1998 60.3731 50.434 60.0289 49.5288C59.6847 48.6933 59.1339 47.9971 58.239 47.5793C57.4129 47.092 56.2426 46.8135 54.8658 46.535L57.4818 53.6367C58.7209 53.219 59.4781 52.5923 59.8912 51.8961Z" fill="url(#paint19_linear_91_3923)"/>
<path d="M40.0652 59.1371L38.8949 60.8778L39.5145 54.1938L40.6159 52.4531L40.0652 59.1371Z" fill="url(#paint20_linear_91_3923)"/>
<path d="M64.5723 42.4967C66.2934 43.7499 67.5325 45.4906 68.3586 47.7186C69.3912 50.5732 69.2535 53.0797 67.8767 55.447C66.4999 57.7446 63.8839 59.4156 60.0977 60.5296L62.2318 66.3085L56.931 67.0744L54.8658 61.4347C52.181 61.6436 49.4963 61.574 46.8803 61.1562C44.1955 60.7385 41.9926 60.1118 40.1339 59.2067L40.6847 52.5227C42.4057 53.2886 44.2644 53.8456 46.3296 54.2633C48.3948 54.6811 50.3912 54.8203 52.3876 54.6811L49.1521 46.0476C46.3984 45.8387 44.0578 45.4906 42.0615 45.0032C40.0651 44.5158 38.2064 43.6803 36.4854 42.4271C34.7644 41.1738 33.5252 39.4332 32.6992 37.1356C31.6665 34.2809 31.8042 31.7048 33.181 29.3376C34.5578 26.9703 37.1738 25.2993 41.0977 24.2549L38.9636 18.5457L44.2644 17.7798L46.3296 23.4194C50.8042 23.1409 54.797 23.6979 58.3078 25.0208L58.0325 31.7744C54.797 30.6604 51.768 30.1731 48.8767 30.2427L52.1122 39.0154C54.797 39.2243 57.1376 39.5724 59.1339 39.9902C61.0615 40.4079 62.9202 41.2434 64.5723 42.4967ZM46.2607 38.3888L43.5071 31.0782C42.268 31.5656 41.4419 32.1922 41.0977 32.9581C40.6847 33.7239 40.6847 34.5594 41.0289 35.4646C41.3731 36.3001 41.9238 36.9963 42.8187 37.4141C43.7136 37.9014 44.8151 38.2496 46.2607 38.3888ZM59.8912 51.8961C60.3042 51.1998 60.3731 50.434 60.0289 49.5288C59.6847 48.6933 59.1339 47.9971 58.239 47.5793C57.4129 47.092 56.2426 46.8135 54.8658 46.535L57.4818 53.6367C58.7209 53.219 59.4781 52.5923 59.8912 51.8961Z" stroke="url(#paint21_linear_91_3923)" stroke-width="0.5" stroke-miterlimit="10"/>
<defs>
<linearGradient id="paint0_linear_91_3923" x1="95.7323" y1="88.5764" x2="5.43712" y2="-0.701373" gradientUnits="userSpaceOnUse">
<stop stop-color="#D7AC4C"/>
<stop offset="0.1816" stop-color="#FFFFB0"/>
<stop offset="0.3268" stop-color="#F4D174"/>
<stop offset="0.3659" stop-color="#FBED99"/>
<stop offset="0.3939" stop-color="#FAEC97"/>
<stop offset="0.433" stop-color="#DEB04D"/>
<stop offset="0.5275" stop-color="#DFB24F"/>
<stop offset="0.5615" stop-color="#E2B756"/>
<stop offset="0.5858" stop-color="#E7C161"/>
<stop offset="0.6053" stop-color="#EECF72"/>
<stop offset="0.6207" stop-color="#F6DF86"/>
<stop offset="0.7529" stop-color="#F2D87E"/>
<stop offset="0.7672" stop-color="#F1D77D"/>
<stop offset="0.7716" stop-color="#EBCD71"/>
<stop offset="0.7804" stop-color="#E2BE60"/>
<stop offset="0.7913" stop-color="#DCB455"/>
<stop offset="0.8066" stop-color="#D8AE4E"/>
<stop offset="0.8492" stop-color="#D7AC4C"/>
<stop offset="1" stop-color="#966424"/>
</linearGradient>
<linearGradient id="paint1_linear_91_3923" x1="92.5996" y1="49.4281" x2="23.1811" y2="11.582" gradientUnits="userSpaceOnUse">
<stop stop-color="#A16C0C"/>
<stop offset="0.2318" stop-color="#DFC072"/>
<stop offset="0.5559" stop-color="#A8700D"/>
<stop offset="0.7458" stop-color="#FADB85"/>
<stop offset="0.802" stop-color="#A16C0C"/>
<stop offset="0.9335" stop-color="#6C4405"/>
</linearGradient>
<linearGradient id="paint2_linear_91_3923" x1="83.1673" y1="64.9596" x2="84.8704" y2="64.9596" gradientUnits="userSpaceOnUse">
<stop stop-color="#A16C0C"/>
<stop offset="0.1816" stop-color="#C9BF70"/>
<stop offset="0.3268" stop-color="#BE9134"/>
<stop offset="0.433" stop-color="#A8700D"/>
<stop offset="0.7067" stop-color="#C09F46"/>
<stop offset="0.8492" stop-color="#A16C0C"/>
<stop offset="1" stop-color="#602400"/>
</linearGradient>
<linearGradient id="paint3_linear_91_3923" x1="-20.4565" y1="17.5075" x2="78.9469" y2="90.3194" gradientUnits="userSpaceOnUse">
<stop stop-color="#B39200"/>
<stop offset="0.0568408" stop-color="#AD8C01"/>
<stop offset="0.1314" stop-color="#9D7C04"/>
<stop offset="0.2156" stop-color="#836108"/>
<stop offset="0.2585" stop-color="#73500B"/>
<stop offset="0.2799" stop-color="#795311"/>
<stop offset="0.3592" stop-color="#8B5D24"/>
<stop offset="0.4146" stop-color="#91612B"/>
<stop offset="0.4344" stop-color="#976707"/>
<stop offset="0.5299" stop-color="#D8B364"/>
<stop offset="0.5502" stop-color="#D4AE5D"/>
<stop offset="0.5792" stop-color="#CA9F4A"/>
<stop offset="0.6132" stop-color="#B9882C"/>
<stop offset="0.6414" stop-color="#A8700D"/>
<stop offset="0.6805" stop-color="#815400"/>
<stop offset="0.8029" stop-color="#B38136"/>
<stop offset="0.8189" stop-color="#A2712D"/>
<stop offset="0.8549" stop-color="#81511C"/>
<stop offset="0.8849" stop-color="#6C3D11"/>
<stop offset="0.9049" stop-color="#65360D"/>
<stop offset="0.9126" stop-color="#6F3F0D"/>
<stop offset="0.938" stop-color="#8A580C"/>
<stop offset="0.9603" stop-color="#9B670C"/>
<stop offset="0.9772" stop-color="#A16C0C"/>
<stop offset="1" stop-color="#B9924B"/>
</linearGradient>
<linearGradient id="paint4_linear_91_3923" x1="98.0397" y1="82.4405" x2="-9.29348" y2="-5.13737" gradientUnits="userSpaceOnUse">
<stop stop-color="#D7AC4C"/>
<stop offset="0.1816" stop-color="#FFFFB0"/>
<stop offset="0.3268" stop-color="#F4D174"/>
<stop offset="0.3659" stop-color="#FBED99"/>
<stop offset="0.3939" stop-color="#FAEC97"/>
<stop offset="0.433" stop-color="#DEB04D"/>
<stop offset="0.5275" stop-color="#DFB24F"/>
<stop offset="0.5615" stop-color="#E2B756"/>
<stop offset="0.5858" stop-color="#E7C161"/>
<stop offset="0.6053" stop-color="#EECF72"/>
<stop offset="0.6207" stop-color="#F6DF86"/>
<stop offset="0.7529" stop-color="#F2D87E"/>
<stop offset="0.7672" stop-color="#F1D77D"/>
<stop offset="0.7716" stop-color="#EBCD71"/>
<stop offset="0.7804" stop-color="#E2BE60"/>
<stop offset="0.7913" stop-color="#DCB455"/>
<stop offset="0.8066" stop-color="#D8AE4E"/>
<stop offset="0.8492" stop-color="#D7AC4C"/>
<stop offset="1" stop-color="#966424"/>
</linearGradient>
<linearGradient id="paint5_linear_91_3923" x1="19.8148" y1="14.91" x2="81.0266" y2="69.2772" gradientUnits="userSpaceOnUse">
<stop stop-color="#D7AC4C"/>
<stop offset="0.1816" stop-color="#FFFFB0"/>
<stop offset="0.3268" stop-color="#F4D174"/>
<stop offset="0.433" stop-color="#DEB04D"/>
<stop offset="0.7067" stop-color="#F6DF86"/>
<stop offset="0.8492" stop-color="#D7AC4C"/>
<stop offset="1" stop-color="#966424"/>
</linearGradient>
<linearGradient id="paint6_linear_91_3923" x1="36.4082" y1="18.6048" x2="41.5757" y2="24.8135" gradientUnits="userSpaceOnUse">
<stop stop-color="#A16C0C"/>
<stop offset="0.2318" stop-color="#BE9134"/>
<stop offset="0.5559" stop-color="#A8700D"/>
<stop offset="1" stop-color="#432400"/>
</linearGradient>
<linearGradient id="paint7_linear_91_3923" x1="57.5634" y1="32.7815" x2="48.777" y2="30.8652" gradientUnits="userSpaceOnUse">
<stop stop-color="#A16C0C"/>
<stop offset="0.2318" stop-color="#BE9134"/>
<stop offset="0.5559" stop-color="#A8700D"/>
<stop offset="1" stop-color="#432400"/>
</linearGradient>
<linearGradient id="paint8_linear_91_3923" x1="38.4491" y1="34.3288" x2="43.6961" y2="32.0231" gradientUnits="userSpaceOnUse">
<stop stop-color="#A16C0C"/>
<stop offset="0.2318" stop-color="#BE9134"/>
<stop offset="0.5559" stop-color="#A8700D"/>
<stop offset="1" stop-color="#432400"/>
</linearGradient>
<linearGradient id="paint9_linear_91_3923" x1="46.7791" y1="37.9055" x2="41.6274" y2="33.1987" gradientUnits="userSpaceOnUse">
<stop stop-color="#A16C0C"/>
<stop offset="0.2318" stop-color="#BE9134"/>
<stop offset="0.5559" stop-color="#A8700D"/>
<stop offset="1" stop-color="#432400"/>
</linearGradient>
<linearGradient id="paint10_linear_91_3923" x1="53.7733" y1="50.1052" x2="60.2547" y2="50.1052" gradientUnits="userSpaceOnUse">
<stop stop-color="#A16C0C"/>
<stop offset="0.2318" stop-color="#BE9134"/>
<stop offset="0.5559" stop-color="#A8700D"/>
<stop offset="1" stop-color="#432400"/>
</linearGradient>
<linearGradient id="paint11_linear_91_3923" x1="64.6234" y1="54.2761" x2="53.1332" y2="47.5367" gradientUnits="userSpaceOnUse">
<stop stop-color="#A16C0C"/>
<stop offset="0.2318" stop-color="#BE9134"/>
<stop offset="0.5559" stop-color="#A8700D"/>
<stop offset="1" stop-color="#432400"/>
</linearGradient>
<linearGradient id="paint12_linear_91_3923" x1="58.733" y1="52.8444" x2="59.9096" y2="52.8444" gradientUnits="userSpaceOnUse">
<stop stop-color="#A16C0C"/>
<stop offset="0.1816" stop-color="#DBBF7D"/>
<stop offset="0.3268" stop-color="#BE9134"/>
<stop offset="0.433" stop-color="#A8700D"/>
<stop offset="0.7067" stop-color="#D9AA59"/>
<stop offset="0.8492" stop-color="#A16C0C"/>
<stop offset="1" stop-color="#602400"/>
</linearGradient>
<linearGradient id="paint13_linear_91_3923" x1="30.8148" y1="38.4114" x2="49.0904" y2="38.4114" gradientUnits="userSpaceOnUse">
<stop stop-color="#A16C0C"/>
<stop offset="0.2318" stop-color="#BE9134"/>
<stop offset="0.5559" stop-color="#A8700D"/>
<stop offset="1" stop-color="#432400"/>
</linearGradient>
<linearGradient id="paint14_linear_91_3923" x1="55.4965" y1="56.1532" x2="44.8031" y2="46.4828" gradientUnits="userSpaceOnUse">
<stop stop-color="#A16C0C"/>
<stop offset="0.2318" stop-color="#BE9134"/>
<stop offset="0.5559" stop-color="#A8700D"/>
<stop offset="1" stop-color="#432400"/>
</linearGradient>
<linearGradient id="paint15_linear_91_3923" x1="70.7341" y1="58.6602" x2="57.9552" y2="59.1069" gradientUnits="userSpaceOnUse">
<stop stop-color="#A16C0C"/>
<stop offset="0.2318" stop-color="#BE9134"/>
<stop offset="0.5559" stop-color="#A8700D"/>
<stop offset="1" stop-color="#432400"/>
</linearGradient>
<linearGradient id="paint16_linear_91_3923" x1="59.7437" y1="68.4405" x2="50.9604" y2="61.9433" gradientUnits="userSpaceOnUse">
<stop stop-color="#A16C0C"/>
<stop offset="0.2318" stop-color="#BE9134"/>
<stop offset="0.5559" stop-color="#A8700D"/>
<stop offset="1" stop-color="#432400"/>
</linearGradient>
<linearGradient id="paint17_linear_91_3923" x1="58.8453" y1="65.098" x2="59.1093" y2="68.9487" gradientUnits="userSpaceOnUse">
<stop stop-color="#A16C0C"/>
<stop offset="0.2318" stop-color="#BE9134"/>
<stop offset="0.5559" stop-color="#A8700D"/>
<stop offset="1" stop-color="#432400"/>
</linearGradient>
<linearGradient id="paint18_linear_91_3923" x1="38.9227" y1="61.206" x2="54.8129" y2="61.206" gradientUnits="userSpaceOnUse">
<stop stop-color="#A16C0C"/>
<stop offset="0.2318" stop-color="#BE9134"/>
<stop offset="0.5559" stop-color="#A8700D"/>
<stop offset="1" stop-color="#432400"/>
</linearGradient>
<linearGradient id="paint19_linear_91_3923" x1="66.3543" y1="60.0746" x2="20.7355" y2="13.4204" gradientUnits="userSpaceOnUse">
<stop stop-color="#D7AC4C"/>
<stop offset="0.1816" stop-color="#FFFFB0"/>
<stop offset="0.3268" stop-color="#F4D174"/>
<stop offset="0.3659" stop-color="#FBED99"/>
<stop offset="0.3939" stop-color="#FAEC97"/>
<stop offset="0.433" stop-color="#DEB04D"/>
<stop offset="0.5275" stop-color="#DFB24F"/>
<stop offset="0.5615" stop-color="#E2B756"/>
<stop offset="0.5858" stop-color="#E7C161"/>
<stop offset="0.6053" stop-color="#EECF72"/>
<stop offset="0.6207" stop-color="#F6DF86"/>
<stop offset="0.7529" stop-color="#F2D87E"/>
<stop offset="0.7672" stop-color="#F1D77D"/>
<stop offset="0.7716" stop-color="#EBCD71"/>
<stop offset="0.7804" stop-color="#E2BE60"/>
<stop offset="0.7913" stop-color="#DCB455"/>
<stop offset="0.8066" stop-color="#D8AE4E"/>
<stop offset="0.8492" stop-color="#D7AC4C"/>
<stop offset="1" stop-color="#966424"/>
</linearGradient>
<linearGradient id="paint20_linear_91_3923" x1="45.0267" y1="66.5269" x2="35.0435" y2="48.2142" gradientUnits="userSpaceOnUse">
<stop stop-color="#A16C0C"/>
<stop offset="0.2318" stop-color="#BE9134"/>
<stop offset="0.5559" stop-color="#A8700D"/>
<stop offset="1" stop-color="#432400"/>
</linearGradient>
<linearGradient id="paint21_linear_91_3923" x1="31.6637" y1="26.1833" x2="68.8467" y2="59.2086" gradientUnits="userSpaceOnUse">
<stop stop-color="#D7AC4C"/>
<stop offset="0.1816" stop-color="#FFFFB0"/>
<stop offset="0.3268" stop-color="#F4D174"/>
<stop offset="0.433" stop-color="#DEB04D"/>
<stop offset="0.7067" stop-color="#F6DF86"/>
<stop offset="0.8492" stop-color="#D7AC4C"/>
<stop offset="1" stop-color="#966424"/>
</linearGradient>
</defs>
</svg>
