<svg width="171" height="135" viewBox="0 0 171 135" fill="none" xmlns="http://www.w3.org/2000/svg">
<path d="M133.588 21.8954C133.009 21.1452 132.399 20.5545 131.595 20.0909C126.664 16.8866 117.673 18.2396 112.118 20.0297C96.2233 24.8922 82.0278 34.1268 68.9786 44.2611C55.5172 55.1093 42.8414 67.4818 34.205 82.5435C31.2408 88.0898 27.4348 96.1245 29.9438 102.392C30.2216 103.147 30.659 103.935 31.148 104.634C30.8048 104.198 29.0188 102.036 27.9894 100.728C27.9705 100.658 27.8813 100.606 27.8625 100.536C27.7544 100.414 27.6274 100.222 27.5193 100.1C27.4301 100.048 27.3924 99.9074 27.3735 99.837L27.3547 99.7666C26.3152 97.8577 25.8902 95.7087 25.939 93.3573C25.9717 93.1977 25.9151 92.9866 25.9478 92.827C25.9804 92.6673 25.9427 92.5266 25.9754 92.367C26.3545 87.5888 28.6853 82.2122 31.6408 77.1962C31.7438 77.0178 31.8984 76.7501 32.0014 76.5716C35.5098 70.8041 39.8024 65.4298 42.8861 61.7372C43.1111 61.4507 43.336 61.1641 43.5798 60.9479C44.0485 60.4452 44.5172 59.9424 44.9671 59.3693C45.4358 58.8666 45.9046 58.3638 46.3544 57.7907C46.7528 57.3068 47.17 56.8933 47.5872 56.4798C54.1871 49.5822 62.476 42.232 71.5353 35.5051C71.6572 35.397 71.7276 35.3781 71.8495 35.27C80.4916 28.9566 89.7635 23.3042 98.906 19.4213C99.7128 19.0543 100.468 18.7765 101.205 18.4283C101.678 18.2259 102.222 18.0047 102.715 17.8727C108.194 15.8011 113.562 14.4383 118.644 13.9816C118.944 13.9766 119.245 13.9715 119.545 13.9665C119.846 13.9614 120.146 13.9564 120.446 13.9513C124.849 14.054 128.121 15.2891 130.124 17.6944L133.588 21.8954Z" fill="url(#paint0_linear_92_3943)"/>
<path d="M138.267 10.0815C151.013 29.2195 107.799 70.0652 93.4608 81.2993C79.4175 92.2279 34.1544 122.61 18.6196 106.859L31.3872 124.106C35.3502 129.606 46.7401 129.044 53.6885 127.106C78.6156 120.201 100.355 104.495 119.295 87.3508C132.515 74.7571 153.444 52.9317 153.37 33.7927C153.231 31.8686 152.703 29.898 151.721 28.2002C151.264 27.3419 138.793 10.921 138.267 10.0815Z" fill="url(#paint1_linear_92_3943)"/>
<path d="M125.445 6.42679C114.867 6.92286 99.6582 12.6575 82.5359 23.3552C65.4135 34.0529 49.4728 47.7528 37.6291 61.2602C25.715 74.7864 17.879 88.0495 16.985 97.944C16.0207 107.857 22.1603 112.473 32.7195 111.906C43.3679 111.392 58.5063 105.676 75.6286 94.9781C92.751 84.2804 108.762 70.5616 120.606 57.0542C132.45 43.5469 140.286 30.2837 141.25 20.3704C142.163 10.5463 136.093 5.91187 125.445 6.42679ZM131.525 20.1098C132.189 21.7423 132.416 23.7179 132.227 26.107C131.397 34.5511 124.713 45.9216 114.604 57.4556C104.424 69.0086 90.8882 80.7064 76.1435 89.8618C61.4692 98.9984 48.5074 103.829 39.4312 104.3C35.4938 104.525 32.2312 103.891 29.9438 102.392C29.2111 101.909 28.5487 101.408 27.9894 100.728C27.9705 100.658 27.8813 100.606 27.8625 100.536C27.7544 100.414 27.6274 100.222 27.5193 100.1C27.4301 100.048 27.3924 99.9074 27.3735 99.8371L27.3547 99.7667C26.3014 98.0878 25.806 95.9576 25.939 93.3574C25.9528 93.1274 25.9151 92.9866 25.9478 92.827C25.9804 92.6674 25.9427 92.5267 25.9754 92.3671C26.3784 87.9596 28.3951 82.818 31.6408 77.1963C31.7438 77.0178 31.8984 76.7501 32.0014 76.5717C34.8023 71.8234 38.5181 66.83 42.8861 61.7373C43.1111 61.4507 43.336 61.1642 43.5798 60.948C44.0485 60.4452 44.5172 59.9425 44.9671 59.3694C45.4358 58.8666 45.9045 58.3639 46.3544 57.7908C46.7528 57.3069 47.17 56.8934 47.5872 56.4799C54.5339 49.1876 62.7198 42.0159 71.5353 35.5051C71.6572 35.397 71.7276 35.3782 71.8495 35.2701C75.1319 32.882 78.5224 30.6158 81.9507 28.4903C87.9677 24.766 93.6429 21.7368 98.906 19.4214C99.6424 19.0732 100.468 18.7765 101.205 18.4283C101.678 18.226 102.222 18.0047 102.715 17.8727C108.79 15.4907 114.195 14.2686 118.644 13.9817C118.944 13.9767 119.245 13.9716 119.545 13.9666C119.846 13.9615 120.146 13.9565 120.446 13.9514C124.849 14.0541 128.121 15.2892 130.124 17.6944C130.791 18.4962 131.228 19.2841 131.525 20.1098Z" fill="url(#paint2_linear_92_3943)"/>
<path d="M131.577 20.0205C132.24 21.653 132.468 23.6286 132.278 26.0177C131.448 34.4619 124.765 45.8323 114.655 57.3664C104.475 68.9193 90.9397 80.6171 76.195 89.7725C61.5207 98.9091 48.5589 103.74 39.4827 104.211C35.5453 104.436 32.2827 103.802 29.9953 102.303C27.4863 96.0354 31.2923 88.0006 34.2565 82.4543C42.8929 67.3926 55.5687 55.0201 68.9597 44.1907C81.9901 33.986 96.2044 24.8218 112.099 19.9594C117.654 18.1693 126.593 16.9055 131.577 20.0205Z" fill="url(#paint3_linear_92_3943)"/>
<path d="M85.4002 40.2382L88.6857 44.3362L89.0975 39.3983L85.8309 35.3707L85.4002 40.2382Z" fill="url(#paint4_linear_92_3943)"/>
<path d="M77.508 57.5141C77.5784 57.4952 77.6299 57.406 77.7003 57.3872C77.9956 57.0817 78.3802 56.8278 78.7458 56.5036C78.7974 56.4143 78.9381 56.3766 78.9896 56.2874C79.3553 55.9631 79.7914 55.62 80.2275 55.2768L76.9608 51.2492C76.6466 51.4843 76.3325 51.7193 76.0183 51.9544C75.8964 52.0624 75.7745 52.1705 75.6338 52.2082C75.5822 52.2975 75.4415 52.3352 75.39 52.4244C75.3385 52.5137 75.1977 52.5514 75.1462 52.6406C74.9024 52.8568 74.6586 53.073 74.4148 53.2892C74.4148 53.2892 74.3444 53.308 74.3633 53.3784C74.2929 53.3973 74.2414 53.4865 74.171 53.5053C73.9787 53.6323 73.8053 53.8296 73.6834 53.9377C73.5615 54.0458 73.51 54.135 73.3881 54.2431C73.3366 54.3324 73.2147 54.4405 73.1443 54.4593C72.849 54.7647 72.6052 54.9809 72.3803 55.2675C72.1554 55.554 71.9819 55.7513 71.8274 56.0191C71.7759 56.1083 71.7055 56.1271 71.654 56.2164C71.6025 56.3056 71.5509 56.3948 71.4806 56.4137C71.3775 56.5922 71.326 56.6814 71.223 56.8599C71.1714 56.9491 71.1388 57.1087 71.0873 57.1979C71.0357 57.2872 70.9842 57.3764 70.9327 57.4656C70.9327 57.4656 70.9327 57.4656 70.9516 57.536C70.9704 57.6064 70.9 57.6253 70.9189 57.6956C70.8674 57.7849 70.8862 57.8552 70.8347 57.9445C70.8536 58.0149 70.8021 58.1041 70.8021 58.1041C70.8209 58.1745 70.7694 58.2637 70.7694 58.2637C70.7883 58.3341 70.7883 58.3341 70.8071 58.4045L70.826 58.4748C70.8448 58.5452 70.8448 58.5452 70.8637 58.6156L70.8825 58.686L74.2761 62.9058C74.1869 62.8543 74.1492 62.7136 74.1303 62.6432C74.0926 62.5024 74.0738 62.4321 74.1064 62.2725C74.1391 62.1128 74.1529 61.8829 74.2559 61.7044C74.3401 61.4555 74.4431 61.2771 74.5273 61.0282C74.6304 60.8498 74.7849 60.5821 74.9583 60.3847C75.0099 60.2955 75.0802 60.2766 75.1317 60.1874C75.2863 59.9197 75.5301 59.7035 75.6847 59.4358C75.9096 59.1493 76.1534 58.9331 76.4487 58.6277C76.5002 58.5384 76.6221 58.4303 76.6925 58.4115C76.9689 58.0357 77.2127 57.8195 77.508 57.5141Z" fill="url(#paint5_linear_92_3943)"/>
<path d="M93.336 47.6158C93.669 47.4511 94.0724 47.2676 94.4054 47.1029C94.8088 46.9194 95.2122 46.7359 95.7049 46.6039C96.3898 46.345 97.0747 46.086 97.6892 45.8459C98.3741 45.587 99.059 45.328 99.7628 45.1394L96.4962 41.1118C96.0035 41.2438 95.4594 41.4651 94.9667 41.5971C94.7556 41.6536 94.5633 41.7806 94.4226 41.8183C93.7377 42.0773 93.0528 42.3362 92.4382 42.5763C92.1567 42.6517 91.8941 42.7975 91.6126 42.873C91.4718 42.9107 91.2795 43.0376 91.1388 43.0753C90.8058 43.24 90.4024 43.4235 90.0693 43.5882C89.7363 43.7528 89.3844 43.8471 89.0514 44.0118C88.7888 44.1576 88.5261 44.3034 88.2446 44.3788C87.982 44.5246 87.7193 44.6704 87.4378 44.7459C87.2455 44.8728 87.0344 44.9294 86.8421 45.0563C86.1761 45.3857 85.5289 45.7854 84.7925 46.1336L88.0591 50.1612C88.9878 49.686 89.8461 49.2298 90.7044 48.7735C90.9671 48.6277 91.2297 48.4819 91.5112 48.4064C92.1258 48.1664 92.7403 47.9263 93.336 47.6158Z" fill="url(#paint6_linear_92_3943)"/>
<path d="M100.992 33.1186L104.259 37.1462L99.8332 45.1207L96.5665 41.093L100.992 33.1186Z" fill="url(#paint7_linear_92_3943)"/>
<path d="M84.0743 53.869L87.3598 57.967L88.0968 50.302L84.8113 46.204L84.0743 53.869Z" fill="url(#paint8_linear_92_3943)"/>
<path d="M77.6485 69.0171C78.1223 68.8148 78.5069 68.5609 78.9806 68.3585L75.714 64.3309C75.2402 64.5332 74.7853 64.806 74.3819 64.9895C74.2411 65.0272 74.1192 65.1353 73.9785 65.173C73.6455 65.3377 73.3828 65.4835 73.0498 65.6482C72.9794 65.667 72.8386 65.7047 72.7871 65.794C72.4541 65.9586 72.1211 66.1233 71.7881 66.288C71.6473 66.3257 71.455 66.4526 71.3143 66.4903C71.0516 66.6362 70.7701 66.7116 70.5778 66.8385C70.4371 66.8762 70.2448 67.0032 70.1041 67.0409C69.9118 67.1679 69.6303 67.2433 69.438 67.3702C69.2973 67.408 69.105 67.5349 68.9642 67.5726C68.7531 67.6292 68.5608 67.7561 68.3497 67.8127C68.2793 67.8316 68.1386 67.8693 68.0871 67.9585C67.5429 68.1797 66.9987 68.401 66.525 68.6034C66.1919 68.768 65.8401 68.8623 65.5586 68.9377C65.4882 68.9566 65.4178 68.9755 65.3474 68.9943C64.9252 69.1075 64.5218 69.291 64.0995 69.4041C64.0291 69.423 64.0291 69.423 63.9588 69.4418C63.5365 69.555 63.1846 69.6493 62.8139 69.6732C62.7435 69.692 62.6731 69.7109 62.6027 69.7298C62.232 69.7537 61.8801 69.8479 61.5798 69.853C61.5094 69.8719 61.439 69.8907 61.4201 69.8203C61.0494 69.8442 60.749 69.8493 60.4298 69.784C59.7399 69.7426 59.1341 69.4523 58.791 69.0162L62.0576 73.0439C62.4007 73.4799 62.9173 73.7187 63.6965 73.8116C63.9968 73.8065 64.3161 73.8719 64.6868 73.8479C64.7572 73.8291 64.7572 73.8291 64.8464 73.8806C65.1468 73.8756 65.5175 73.8516 65.8694 73.7574C65.9398 73.7385 66.0101 73.7196 66.0805 73.7008C66.4324 73.6065 66.8735 73.5637 67.2254 73.4694C67.2958 73.4506 67.2958 73.4506 67.3662 73.4317C67.7884 73.3186 68.2107 73.2054 68.6141 73.0219C68.6845 73.0031 68.6844 73.0031 68.7548 72.9842L68.8252 72.9654C69.1771 72.8711 69.5101 72.7064 69.7916 72.631C70.2654 72.4286 70.8096 72.2074 71.3537 71.9861C71.4241 71.9673 71.4241 71.9673 71.4945 71.9484C71.5648 71.9296 71.5648 71.9296 71.6352 71.9107C71.8463 71.8541 72.0386 71.7272 72.2497 71.6706C72.3905 71.6329 72.5828 71.5059 72.7235 71.4682C72.9347 71.4117 73.1973 71.2658 73.3896 71.1389C73.5303 71.1012 73.7226 70.9742 73.8633 70.9365C74.126 70.7907 74.4075 70.7153 74.5998 70.5883C74.7405 70.5506 74.8624 70.4425 75.0736 70.386C75.4066 70.2213 75.7396 70.0566 76.0726 69.892C76.143 69.8731 76.2134 69.8543 76.3353 69.7462C76.6683 69.5815 77.0717 69.398 77.4751 69.2145C77.5078 69.0548 77.5782 69.036 77.6485 69.0171Z" fill="url(#paint9_linear_92_3943)"/>
<path d="M87.2342 58.9057C87.023 58.9623 86.7227 58.9674 86.4412 59.0428C86.3708 59.0616 86.23 59.0994 86.1597 59.1182C85.9485 59.1748 85.7374 59.2314 85.4559 59.3068L85.3855 59.3256C85.104 59.4011 84.8414 59.5469 84.4895 59.6412C84.4191 59.66 84.2784 59.6977 84.208 59.7166C84.0672 59.7543 83.8749 59.8813 83.7342 59.919C83.5231 59.9755 83.4012 60.0836 83.19 60.1402L86.4567 64.1678C86.8601 63.9843 87.212 63.89 87.545 63.7253C87.6154 63.7065 87.7561 63.6688 87.8265 63.6499C88.1595 63.4853 88.5114 63.391 88.7929 63.3155C89.004 63.259 89.2152 63.2024 89.4967 63.127C89.5671 63.1081 89.7078 63.0704 89.7782 63.0515C90.0597 62.9761 90.3412 62.9007 90.5712 62.9145C91.1531 62.834 91.4723 62.8993 91.6885 63.1431L88.3514 59.1344C88.1353 58.8906 87.7457 58.8441 87.2342 58.9057Z" fill="url(#paint10_linear_92_3943)"/>
<path d="M82.8412 66.7206L86.1267 70.8186L86.7106 64.5523L83.4439 60.5247L82.8412 66.7206Z" fill="url(#paint11_linear_92_3943)"/>
<path d="M71.5831 79.3167C70.6028 79.8811 69.6038 80.3751 68.6236 80.9395C68.3609 81.0853 68.0983 81.2311 67.8871 81.2876C67.1507 81.6358 66.4331 82.0544 65.6967 82.4026C64.9603 82.7508 64.2238 83.0989 63.4874 83.4471C63.0136 83.6495 62.5399 83.8519 62.0661 84.0543C61.9253 84.092 61.7846 84.1297 61.7331 84.2189C61.3297 84.4024 60.9263 84.586 60.504 84.6991C60.3632 84.7368 60.2929 84.7557 60.171 84.8638C59.6972 85.0661 59.2749 85.1793 58.8012 85.3817C58.59 85.4382 58.4493 85.476 58.2381 85.5325C58.0974 85.5702 57.9566 85.608 57.8159 85.6457C57.6048 85.7022 57.464 85.74 57.2529 85.7965C57.1121 85.8342 56.9714 85.872 56.901 85.8908C56.6899 85.9474 56.5491 85.9851 56.338 86.0417C56.2676 86.0605 56.1268 86.0982 56.0565 86.1171C55.775 86.1925 55.5638 86.2491 55.2635 86.2542L58.5301 90.2818C58.7412 90.2252 59.0228 90.1498 59.3231 90.1447C59.3935 90.1259 59.5342 90.0881 59.6046 90.0693C59.8158 90.0127 59.9565 89.975 60.1676 89.9184C60.3084 89.8807 60.4491 89.843 60.5195 89.8241C60.7306 89.7676 60.8714 89.7299 61.0825 89.6733C61.2233 89.6356 61.364 89.5979 61.5048 89.5601C61.6455 89.5224 61.7863 89.4847 61.9974 89.4281L62.0678 89.4093C62.4901 89.2961 62.9638 89.0938 63.4376 88.8914C63.5784 88.8537 63.6487 88.8348 63.7706 88.7267C64.174 88.5432 64.5963 88.4301 64.9997 88.2465C65.0701 88.2277 65.1405 88.2088 65.2108 88.19C65.2812 88.1711 65.2812 88.1711 65.3516 88.1522C65.8254 87.9499 66.2991 87.7475 66.7729 87.5451C67.3875 87.305 68.0535 86.9757 68.6492 86.6652C68.7899 86.6275 68.8414 86.5383 68.9822 86.5006C69.7186 86.1524 70.4551 85.8042 71.1726 85.3856C71.3649 85.2587 71.576 85.2021 71.7683 85.0752C71.8387 85.0563 71.8387 85.0563 71.9091 85.0374C72.9081 84.5435 73.8884 83.9791 74.8686 83.4147C74.8686 83.4147 74.8686 83.4147 74.9389 83.3959C75.8488 82.8504 76.7775 82.3752 77.6873 81.8297L74.4207 77.8021C73.492 78.2772 72.5118 78.8416 71.5831 79.3167Z" fill="url(#paint12_linear_92_3943)"/>
<path d="M100.875 49.2917C100.983 49.4136 101.021 49.5543 101.129 49.6762C101.148 49.7466 101.148 49.7466 101.167 49.817C101.205 49.9577 101.242 50.0985 101.28 50.2392L101.299 50.3096C101.356 50.5207 101.323 50.6803 101.379 50.8915C101.398 50.9619 101.347 51.0511 101.366 51.1215C101.333 51.2811 101.39 51.4922 101.357 51.6518C101.343 51.8818 101.278 52.201 101.194 52.4499C101.142 52.5391 101.161 52.6095 101.109 52.6987C101.025 52.9476 100.941 53.1964 100.876 53.5156L100.824 53.6049C100.689 53.9429 100.553 54.281 100.398 54.5487C100.347 54.6379 100.244 54.8164 100.192 54.9056C100.089 55.0841 100.005 55.333 99.8316 55.5303C99.677 55.798 99.5224 56.0657 99.3679 56.3334C99.2649 56.5119 99.1618 56.6903 99.0399 56.7984C98.9884 56.8876 98.8665 56.9957 98.8338 57.1553C98.6793 57.4231 98.4543 57.7096 98.2294 57.9962C98.1075 58.1043 98.0045 58.2827 97.953 58.372C97.728 58.6585 97.5031 58.9451 97.2782 59.2316C97.1563 59.3397 97.0532 59.5182 97.0017 59.6074C96.6549 60.0021 96.308 60.3967 95.9097 60.8806C95.5113 61.3645 95.0426 61.8672 94.555 62.2996C94.3816 62.4969 94.1894 62.6239 94.0863 62.8023C93.791 63.1078 93.4253 63.432 93.0596 63.7563C92.8862 63.9536 92.6939 64.0806 92.5205 64.2779C92.1548 64.6022 91.808 64.9968 91.3719 65.34C91.1282 65.5561 90.814 65.7912 90.5702 66.0074C90.256 66.2424 90.0122 66.4586 89.7169 66.764C89.4028 66.999 89.0886 67.2341 88.7933 67.5395C88.4791 67.7745 88.2353 67.9907 87.9211 68.2258C87.607 68.4608 87.2928 68.6958 86.9786 68.9309C86.6645 69.1659 86.2988 69.4902 85.9142 69.7441C85.6001 69.9791 85.2859 70.2142 84.9717 70.4492C84.5357 70.7923 84.1511 71.0462 83.7151 71.3894C83.1383 71.7702 82.6507 72.2026 82.0035 72.6023L85.2701 76.6299C85.725 76.3571 86.1611 76.014 86.5457 75.7601C86.6675 75.652 86.7894 75.5439 86.9302 75.5062C87.3663 75.1631 87.8212 74.8903 88.1869 74.5661C88.3791 74.4391 88.6418 74.2933 88.8152 74.096C88.9371 73.9879 89.0075 73.969 89.1294 73.8609C89.5139 73.607 89.8092 73.3016 90.1938 73.0477C90.4564 72.9019 90.6298 72.7046 90.8925 72.5588C90.944 72.4696 91.0848 72.4318 91.1363 72.3426C91.4504 72.1076 91.7646 71.8725 92.0084 71.6564C92.1818 71.459 92.4445 71.3132 92.6883 71.097C92.7398 71.0078 92.8805 70.9701 92.9321 70.8809C93.2462 70.6458 93.49 70.4296 93.7853 70.1242C93.9587 69.9269 94.2214 69.7811 94.3948 69.5838C94.4463 69.4945 94.5167 69.4757 94.5682 69.3864C94.9339 69.0622 95.3511 68.6487 95.7168 68.3244C95.8387 68.2163 96.0121 68.019 96.134 67.9109C96.2044 67.892 96.1855 67.8216 96.2559 67.8028C96.6216 67.4785 96.9169 67.1731 97.2826 66.8488C97.456 66.6515 97.6483 66.5245 97.7513 66.3461C98.22 65.8433 98.6888 65.3406 99.106 64.9271C99.4528 64.5324 99.87 64.1189 100.198 63.6539C100.32 63.5458 100.423 63.3673 100.474 63.2781C100.699 62.9916 100.924 62.705 101.149 62.4184C101.271 62.3103 101.374 62.1319 101.426 62.0426C101.651 61.7561 101.805 61.4884 102.03 61.2018C102.082 61.1126 102.204 61.0045 102.236 60.8449C102.236 60.8449 102.288 60.7556 102.358 60.7368C102.48 60.6287 102.513 60.4691 102.564 60.3799C102.719 60.1122 102.873 59.8445 103.028 59.5768C103.079 59.4875 103.079 59.4875 103.131 59.3983C103.234 59.2198 103.267 59.0602 103.37 58.8817C103.421 58.7925 103.524 58.614 103.576 58.5248L103.627 58.4356C103.782 58.1679 103.847 57.8486 103.931 57.5998L103.983 57.5106C104.086 57.3321 104.1 57.1021 104.203 56.9236C104.184 56.8533 104.235 56.764 104.235 56.764C104.287 56.6748 104.268 56.6044 104.32 56.5152C104.371 56.426 104.352 56.3556 104.404 56.2663C104.436 56.1067 104.45 55.8768 104.483 55.7171C104.464 55.6468 104.464 55.6468 104.515 55.5575C104.548 55.3979 104.529 55.3275 104.492 55.1868C104.473 55.1164 104.524 55.0272 104.505 54.9568C104.505 54.9568 104.505 54.9568 104.487 54.8864C104.5 54.6564 104.463 54.5157 104.406 54.3046L104.387 54.2342C104.349 54.0934 104.312 53.9527 104.293 53.8823L104.274 53.8119C104.255 53.7415 104.255 53.7415 104.236 53.6712C104.217 53.6008 104.199 53.5304 104.109 53.4789C104.091 53.4085 104.001 53.357 103.982 53.2866L100.875 49.2917Z" fill="url(#paint13_linear_92_3943)"/>
<path d="M81.7186 77.7324L85.0041 81.8304L85.5378 76.7845L82.2523 72.6865L81.7186 77.7324Z" fill="url(#paint14_linear_92_3943)"/>
<path d="M99.3069 48.5051C100.936 48.6721 101.589 49.7039 101.446 51.7034C101.205 54.1817 99.4723 57.286 96.1585 60.9648C92.8448 64.6436 88.2454 68.5915 82.3227 72.6676L81.8594 77.6947L73.9008 82.6181L74.383 77.6614C70.5513 79.9704 66.9069 81.8521 63.4686 83.3768C60.0302 84.9015 57.2717 85.8669 55.2446 86.1838L60.0736 78.0258C62.0115 77.6574 64.2258 76.9132 66.8058 75.8448C69.3859 74.7763 72.1204 73.4402 74.9204 71.7848L75.6247 64.2794C71.9615 66.0907 68.8561 67.4508 66.398 68.4111C63.8695 69.3904 61.8613 69.7776 60.2325 69.6106C58.6037 69.4436 57.9501 68.4119 58.1636 66.3935C58.4047 63.9152 60.2079 60.792 63.5027 57.0428C66.7976 53.2936 71.4674 49.3269 77.4605 45.2319L77.9238 40.2048L85.7416 35.3192L85.2595 40.2758C91.6661 36.598 96.8399 34.2311 100.851 33.1563L96.4258 41.1307C92.6632 42.2898 88.7322 43.9465 84.6706 46.2417L83.9335 53.9067C87.5264 52.1143 90.5425 50.7027 93.0899 49.7938C95.6184 48.8146 97.697 48.4085 99.3069 48.5051ZM76.3443 57.6751L76.9608 51.2493C74.9539 52.7676 73.4208 54.0835 72.4507 55.2486C71.4806 56.4137 70.9138 57.3953 70.8209 58.1745C70.728 58.9537 71.1742 59.2113 72.1268 59.1069C73.0794 59.0025 74.5196 58.4657 76.3443 57.6751ZM87.178 62.9186C88.1669 61.8239 88.6633 60.8612 88.7562 60.082C88.8491 59.3028 88.403 59.0452 87.5207 59.1307C86.5681 59.2351 85.2498 59.6638 83.4251 60.4544L82.8224 66.6503C84.7262 65.3104 86.1375 64.1025 87.178 62.9186Z" fill="url(#paint15_linear_92_3943)"/>
<path d="M73.9008 82.6181L77.1863 86.7161L85.0041 81.8304L81.7186 77.7324L73.9008 82.6181Z" fill="url(#paint16_linear_92_3943)"/>
<path d="M72.5588 55.3705C73.0275 54.8678 73.4962 54.365 74.1572 53.7353C74.9401 52.9975 75.8311 52.3817 76.9659 51.5496L76.9985 51.39L77.0312 51.2304C75.5634 52.2271 74.8132 52.8053 74.0303 53.5431C73.4208 54.0835 72.9005 54.6755 72.4318 55.1782C71.3913 56.3622 70.8435 57.4141 70.8071 58.4045L71.061 58.789C70.8536 58.0149 70.998 57.1464 72.5588 55.3705Z" fill="url(#paint17_linear_92_3943)"/>
<path d="M88.7976 59.392C88.5814 59.1482 88.1026 59.0502 87.5911 59.1119C86.6385 59.2163 85.2498 59.6638 83.4955 60.4356L83.4251 60.4544L82.8412 66.7207L83.1554 66.4856L83.7116 60.6794C85.466 59.9076 86.7843 59.4789 87.6665 59.3934C88.178 59.3317 88.4972 59.3971 88.6242 59.5893C88.7323 59.7112 88.7888 59.9224 88.7939 60.2227L88.7976 59.392Z" fill="url(#paint18_linear_92_3943)"/>
<path d="M86.1363 35.666L85.8309 35.3707L85.4002 40.2382L85.6629 40.0924L86.1363 35.666Z" fill="url(#paint19_linear_92_3943)"/>
<path d="M63.4686 83.3768C60.0302 84.9016 57.3421 85.8481 55.2446 86.1838L55.4608 86.4276C57.5394 86.0215 60.1056 85.1831 63.544 83.6583C66.9823 82.1336 70.5049 80.36 74.4069 78.0322L74.4018 77.7318C71.6208 79.4576 67.6949 81.4147 63.4686 83.3768Z" fill="url(#paint20_linear_92_3943)"/>
<path d="M100.992 33.1186L100.781 33.1751L96.4584 40.9711C92.6958 42.1302 88.7648 43.7869 84.7736 46.0632L84.7032 46.0821L83.9335 53.9067L84.2665 53.742L84.9005 46.2555C88.8918 43.9792 92.8228 42.3225 96.515 41.1823L96.5854 41.1634L101.011 33.1889L100.992 33.1186Z" fill="url(#paint21_linear_92_3943)"/>
<path d="M101.395 51.7926C101.294 54.2332 99.4019 57.3048 96.0882 60.9836C94.9773 62.1865 93.7445 63.4974 92.3522 64.7756C89.5674 67.3321 86.2008 69.969 82.2523 72.6865L82.1819 72.7053L81.7186 77.7324L74.1119 82.5615L74.0793 82.7211L74.1874 82.843L82.0756 77.9384L82.5389 72.9114C86.4874 70.194 89.854 67.557 92.5683 65.0194C93.9607 63.7411 95.2123 62.5006 96.3043 61.2274C99.5992 57.4783 101.421 54.4255 101.643 51.8767C101.699 50.9568 101.599 50.3045 101.308 49.7793L100.786 49.2401C100.838 49.1509 101.449 49.7415 101.395 51.7926Z" fill="url(#paint22_linear_92_3943)"/>
<path d="M75.6951 64.2606C72.0318 66.0719 68.9265 67.4319 66.4684 68.3923C64.0103 69.3527 61.9316 69.7588 60.3921 69.6433C59.7725 69.583 59.1152 69.382 58.791 69.0163L59.3503 69.6962C59.5991 69.7803 60.0076 69.8972 60.3972 69.9437C62.0259 70.1107 64.1046 69.7046 66.6331 68.7253C69.0912 67.765 72.0558 66.4426 75.719 64.6313L75.6951 64.2606Z" fill="url(#paint23_linear_92_3943)"/>
<path d="M130.494 17.6705L130.386 17.5486L130.494 17.6705Z" fill="url(#paint24_linear_92_3943)"/>
<path d="M120.62 13.7541C120.319 13.7591 120.019 13.7642 119.719 13.7692C119.418 13.7743 119.118 13.7794 118.747 13.8033C114.209 14.0387 108.823 15.3311 102.729 17.6428C102.255 17.8451 101.762 17.9771 101.218 18.1984C100.463 18.4762 99.6562 18.8432 98.9198 19.1914C93.6567 21.5068 87.9111 24.5549 81.8941 28.2792C78.4659 30.4047 75.0753 32.6709 71.7929 35.059C71.671 35.1671 71.6006 35.1859 71.4787 35.294C65.8752 39.4355 60.4879 43.8208 55.5279 48.3933C52.6728 50.9686 49.9961 53.647 47.4602 56.2876C47.043 56.7011 46.6447 57.185 46.2275 57.5985C45.7587 58.1013 45.29 58.604 44.8402 59.1771C44.3714 59.6799 43.9027 60.1826 43.4528 60.7557C43.2279 61.0423 43.003 61.3288 42.7592 61.545C38.3208 66.6566 34.605 71.65 31.7337 76.4171C31.6307 76.5956 31.4761 76.8633 31.3731 77.0418C28.1274 82.6635 26.1107 87.805 25.6561 92.3017C25.6235 92.4614 25.6612 92.6021 25.6285 92.7617C25.5959 92.9213 25.5821 93.1513 25.6198 93.2921C25.4868 95.8923 26.001 98.0928 27.0732 99.8421L27.092 99.9125C27.1297 100.053 27.219 100.105 27.2378 100.175C27.3459 100.297 27.4729 100.489 27.581 100.611L27.7079 100.803L27.7268 100.874C27.816 100.925 27.8537 101.066 27.9429 101.118C28.4645 101.657 29.0565 102.177 29.6812 102.538C32.0578 104.088 35.3153 104.422 39.342 104.249C35.4046 104.474 32.2073 103.52 30.0091 102.073C29.3845 101.712 28.8817 101.243 28.3601 100.704C28.2709 100.653 28.2332 100.512 28.144 100.46L28.0359 100.338C27.9278 100.217 27.8197 100.095 27.6927 99.9024C27.6035 99.8509 27.5847 99.7805 27.5469 99.6398L27.5092 99.499C26.4748 97.8905 25.9983 95.8307 26.1501 93.3008C26.1124 93.1601 26.1451 93.0005 26.1589 92.7705C26.1916 92.6109 26.1538 92.4701 26.1865 92.3105C26.6084 87.9734 28.5547 82.8507 31.8192 77.2994C31.9223 77.1209 32.0768 76.8532 32.1799 76.6747C34.9808 71.9265 38.6966 66.9331 43.0834 61.9107C43.3084 61.6242 43.5333 61.3376 43.7771 61.1214C44.2458 60.6187 44.7146 60.1159 45.1833 59.6132C45.652 59.1104 46.1207 58.6077 46.5895 58.105C47.0067 57.6915 47.405 57.2076 47.8222 56.7941C50.3581 54.1534 53.0348 51.475 55.8195 48.9186C60.7795 44.3461 66.0965 39.9797 71.7188 35.9086C71.8407 35.8005 71.9111 35.7816 72.033 35.6735C75.3154 33.2854 78.706 31.0192 82.1342 28.8937C88.1512 25.1695 93.8264 22.1402 99.0192 19.8437C99.7556 19.4955 100.581 19.1988 101.318 18.8506C101.791 18.6482 102.336 18.427 102.828 18.295C108.903 15.9129 114.238 14.7098 118.687 14.4228C118.987 14.4178 119.288 14.4127 119.588 14.4077C119.888 14.4026 120.189 14.3976 120.489 14.3925C124.591 14.5003 127.666 15.562 129.593 17.6857C129.701 17.8076 129.809 17.9295 129.918 18.0514C130.458 18.6609 131.088 19.3219 131.455 20.1287C131.158 19.303 130.913 18.3881 130.354 17.7083C130.245 17.5864 130.137 17.4645 130.01 17.2722C128.046 15.0077 124.792 13.843 120.62 13.7541Z" fill="url(#paint25_linear_92_3943)"/>
<defs>
<linearGradient id="paint0_linear_92_3943" x1="25.6979" y1="98.6311" x2="122.667" y2="9.54261" gradientUnits="userSpaceOnUse">
<stop stop-color="#D2AB5A"/>
<stop offset="0.0610851" stop-color="#BA9443"/>
<stop offset="0.1898" stop-color="#7C5808"/>
<stop offset="0.2069" stop-color="#735000"/>
<stop offset="0.2274" stop-color="#775200"/>
<stop offset="0.3376" stop-color="#8A5D00"/>
<stop offset="0.4146" stop-color="#916100"/>
<stop offset="0.4344" stop-color="#976707"/>
<stop offset="0.4986" stop-color="#D8B364"/>
<stop offset="0.5246" stop-color="#D4AE5D"/>
<stop offset="0.5617" stop-color="#CA9F4A"/>
<stop offset="0.6053" stop-color="#B9882C"/>
<stop offset="0.6414" stop-color="#A8700D"/>
<stop offset="0.6805" stop-color="#815400"/>
<stop offset="0.8029" stop-color="#B38116"/>
<stop offset="0.8267" stop-color="#A27114"/>
<stop offset="0.8802" stop-color="#815110"/>
<stop offset="0.9247" stop-color="#6C3D0E"/>
<stop offset="0.9545" stop-color="#65360D"/>
<stop offset="0.9581" stop-color="#6F3F0D"/>
<stop offset="0.9701" stop-color="#8A580C"/>
<stop offset="0.9807" stop-color="#9B670C"/>
<stop offset="0.9886" stop-color="#A16C0C"/>
</linearGradient>
<linearGradient id="paint1_linear_92_3943" x1="35.0519" y1="128.214" x2="149.864" y2="22.7322" gradientUnits="userSpaceOnUse">
<stop stop-color="#D2AB5A"/>
<stop offset="0.0610851" stop-color="#BA9443"/>
<stop offset="0.1898" stop-color="#7C5808"/>
<stop offset="0.2069" stop-color="#735000"/>
<stop offset="0.2274" stop-color="#775200"/>
<stop offset="0.3376" stop-color="#8A5D00"/>
<stop offset="0.4146" stop-color="#916100"/>
<stop offset="0.4344" stop-color="#976707"/>
<stop offset="0.4986" stop-color="#D8B364"/>
<stop offset="0.5246" stop-color="#D4AE5D"/>
<stop offset="0.5617" stop-color="#CA9F4A"/>
<stop offset="0.6053" stop-color="#B9882C"/>
<stop offset="0.6414" stop-color="#A8700D"/>
<stop offset="0.6805" stop-color="#815400"/>
<stop offset="0.8029" stop-color="#B38116"/>
<stop offset="0.8267" stop-color="#A27114"/>
<stop offset="0.8802" stop-color="#815110"/>
<stop offset="0.9247" stop-color="#6C3D0E"/>
<stop offset="0.9545" stop-color="#65360D"/>
<stop offset="0.9581" stop-color="#6F3F0D"/>
<stop offset="0.9701" stop-color="#8A580C"/>
<stop offset="0.9807" stop-color="#9B670C"/>
<stop offset="0.9886" stop-color="#A16C0C"/>
</linearGradient>
<linearGradient id="paint2_linear_92_3943" x1="41.7056" y1="34.1214" x2="122.164" y2="88.084" gradientUnits="userSpaceOnUse">
<stop stop-color="#D7AC4C"/>
<stop offset="0.1816" stop-color="#FFFFB0"/>
<stop offset="0.3268" stop-color="#F4D174"/>
<stop offset="0.3659" stop-color="#FBED99"/>
<stop offset="0.3939" stop-color="#FAEC97"/>
<stop offset="0.433" stop-color="#DEB04D"/>
<stop offset="0.5275" stop-color="#DFB24F"/>
<stop offset="0.5615" stop-color="#E2B756"/>
<stop offset="0.5858" stop-color="#E7C161"/>
<stop offset="0.6053" stop-color="#EECF72"/>
<stop offset="0.6207" stop-color="#F6DF86"/>
<stop offset="0.7529" stop-color="#F2D87E"/>
<stop offset="0.7672" stop-color="#F1D77D"/>
<stop offset="0.7716" stop-color="#EBCD71"/>
<stop offset="0.7804" stop-color="#E2BE60"/>
<stop offset="0.7913" stop-color="#DCB455"/>
<stop offset="0.8066" stop-color="#D8AE4E"/>
<stop offset="0.8492" stop-color="#D7AC4C"/>
<stop offset="1" stop-color="#966424"/>
</linearGradient>
<linearGradient id="paint3_linear_92_3943" x1="52.3188" y1="42.1" x2="132.777" y2="96.0627" gradientUnits="userSpaceOnUse">
<stop offset="0.1136" stop-color="#D7AC4C"/>
<stop offset="0.1816" stop-color="#FFFFB0"/>
<stop offset="0.3268" stop-color="#F4D174"/>
<stop offset="0.3659" stop-color="#FBED99"/>
<stop offset="0.3939" stop-color="#FAEC97"/>
<stop offset="0.433" stop-color="#DEB04D"/>
<stop offset="0.5275" stop-color="#DFB24F"/>
<stop offset="0.5615" stop-color="#E2B756"/>
<stop offset="0.5858" stop-color="#E7C161"/>
<stop offset="0.6053" stop-color="#EECF72"/>
<stop offset="0.6207" stop-color="#F6DF86"/>
<stop offset="0.7529" stop-color="#F2D87E"/>
<stop offset="0.7672" stop-color="#F1D77D"/>
<stop offset="0.7716" stop-color="#EBCD71"/>
<stop offset="0.7804" stop-color="#E2BE60"/>
<stop offset="0.7913" stop-color="#DCB455"/>
<stop offset="0.8066" stop-color="#D8AE4E"/>
<stop offset="0.8492" stop-color="#D7AC4C"/>
<stop offset="1" stop-color="#966424"/>
</linearGradient>
<linearGradient id="paint4_linear_92_3943" x1="93.168" y1="33.0744" x2="86.1642" y2="41.0719" gradientUnits="userSpaceOnUse">
<stop stop-color="#A16C0C"/>
<stop offset="0.2318" stop-color="#BE9134"/>
<stop offset="0.5559" stop-color="#A8700D"/>
<stop offset="1" stop-color="#432400"/>
</linearGradient>
<linearGradient id="paint5_linear_92_3943" x1="65.8829" y1="65.5808" x2="77.8073" y2="55.0519" gradientUnits="userSpaceOnUse">
<stop stop-color="#A16C0C"/>
<stop offset="0.2318" stop-color="#BE9134"/>
<stop offset="0.5559" stop-color="#A8700D"/>
<stop offset="1" stop-color="#432400"/>
</linearGradient>
<linearGradient id="paint6_linear_92_3943" x1="105.783" y1="34.6056" x2="88.0593" y2="49.1838" gradientUnits="userSpaceOnUse">
<stop stop-color="#A16C0C"/>
<stop offset="0.2318" stop-color="#BE9134"/>
<stop offset="0.5559" stop-color="#A8700D"/>
<stop offset="1" stop-color="#432400"/>
</linearGradient>
<linearGradient id="paint7_linear_92_3943" x1="108.581" y1="29.1658" x2="93.4326" y2="47.63" gradientUnits="userSpaceOnUse">
<stop stop-color="#A16C0C"/>
<stop offset="0.2318" stop-color="#BE9134"/>
<stop offset="0.5559" stop-color="#A8700D"/>
<stop offset="1" stop-color="#432400"/>
</linearGradient>
<linearGradient id="paint8_linear_92_3943" x1="80.5979" y1="57.1091" x2="88.3839" y2="49.9559" gradientUnits="userSpaceOnUse">
<stop stop-color="#A16C0C"/>
<stop offset="0.2318" stop-color="#BE9134"/>
<stop offset="0.5559" stop-color="#A8700D"/>
<stop offset="1" stop-color="#432400"/>
</linearGradient>
<linearGradient id="paint9_linear_92_3943" x1="55.7783" y1="74.7923" x2="75.5001" y2="65.4825" gradientUnits="userSpaceOnUse">
<stop stop-color="#A16C0C"/>
<stop offset="0.2318" stop-color="#BE9134"/>
<stop offset="0.5559" stop-color="#A8700D"/>
<stop offset="1" stop-color="#432400"/>
</linearGradient>
<linearGradient id="paint10_linear_92_3943" x1="96.7574" y1="54.5703" x2="85.8917" y2="62.8481" gradientUnits="userSpaceOnUse">
<stop stop-color="#A16C0C"/>
<stop offset="0.2318" stop-color="#BE9134"/>
<stop offset="0.5559" stop-color="#A8700D"/>
<stop offset="1" stop-color="#432400"/>
</linearGradient>
<linearGradient id="paint11_linear_92_3943" x1="77.9299" y1="74.9398" x2="86.6518" y2="63.0901" gradientUnits="userSpaceOnUse">
<stop stop-color="#A16C0C"/>
<stop offset="0.2318" stop-color="#BE9134"/>
<stop offset="0.5559" stop-color="#A8700D"/>
<stop offset="1" stop-color="#432400"/>
</linearGradient>
<linearGradient id="paint12_linear_92_3943" x1="59.0414" y1="90.8538" x2="73.9173" y2="77.1868" gradientUnits="userSpaceOnUse">
<stop stop-color="#A16C0C"/>
<stop offset="0.2318" stop-color="#BE9134"/>
<stop offset="0.5559" stop-color="#A8700D"/>
<stop offset="1" stop-color="#432400"/>
</linearGradient>
<linearGradient id="paint13_linear_92_3943" x1="108.876" y1="49.2499" x2="83.9046" y2="72.3336" gradientUnits="userSpaceOnUse">
<stop stop-color="#A16C0C"/>
<stop offset="0.2318" stop-color="#BE9134"/>
<stop offset="0.5559" stop-color="#A8700D"/>
<stop offset="1" stop-color="#432400"/>
</linearGradient>
<linearGradient id="paint14_linear_92_3943" x1="81.0024" y1="79.607" x2="85.9276" y2="75.2242" gradientUnits="userSpaceOnUse">
<stop stop-color="#A16C0C"/>
<stop offset="0.2318" stop-color="#BE9134"/>
<stop offset="0.5559" stop-color="#A8700D"/>
<stop offset="1" stop-color="#432400"/>
</linearGradient>
<linearGradient id="paint15_linear_92_3943" x1="41.38" y1="35.0426" x2="121.837" y2="89.0045" gradientUnits="userSpaceOnUse">
<stop stop-color="#D7AC4C"/>
<stop offset="0.1816" stop-color="#FFFFB0"/>
<stop offset="0.3268" stop-color="#F4D174"/>
<stop offset="0.3659" stop-color="#FBED99"/>
<stop offset="0.3939" stop-color="#FAEC97"/>
<stop offset="0.433" stop-color="#DEB04D"/>
<stop offset="0.5275" stop-color="#DFB24F"/>
<stop offset="0.5615" stop-color="#E2B756"/>
<stop offset="0.5858" stop-color="#E7C161"/>
<stop offset="0.6053" stop-color="#EECF72"/>
<stop offset="0.6207" stop-color="#F6DF86"/>
<stop offset="0.7529" stop-color="#F2D87E"/>
<stop offset="0.7672" stop-color="#F1D77D"/>
<stop offset="0.7716" stop-color="#EBCD71"/>
<stop offset="0.7804" stop-color="#E2BE60"/>
<stop offset="0.7913" stop-color="#DCB455"/>
<stop offset="0.8066" stop-color="#D8AE4E"/>
<stop offset="0.8492" stop-color="#D7AC4C"/>
<stop offset="1" stop-color="#966424"/>
</linearGradient>
<linearGradient id="paint16_linear_92_3943" x1="71.0733" y1="89.2875" x2="81.8229" y2="80.264" gradientUnits="userSpaceOnUse">
<stop stop-color="#A16C0C"/>
<stop offset="0.2318" stop-color="#BE9134"/>
<stop offset="0.5559" stop-color="#A8700D"/>
<stop offset="1" stop-color="#432400"/>
</linearGradient>
<linearGradient id="paint17_linear_92_3943" x1="59.4185" y1="68.3223" x2="79.5414" y2="49.5506" gradientUnits="userSpaceOnUse">
<stop stop-color="#966424"/>
<stop offset="0.1508" stop-color="#D7AC4C"/>
<stop offset="0.1934" stop-color="#D8AE4E"/>
<stop offset="0.2087" stop-color="#DCB455"/>
<stop offset="0.2196" stop-color="#E2BE60"/>
<stop offset="0.2284" stop-color="#EBCD71"/>
<stop offset="0.2328" stop-color="#F1D77D"/>
<stop offset="0.2471" stop-color="#F2D87E"/>
<stop offset="0.3793" stop-color="#F6DF86"/>
<stop offset="0.3947" stop-color="#EECF72"/>
<stop offset="0.4142" stop-color="#E7C161"/>
<stop offset="0.4385" stop-color="#E2B756"/>
<stop offset="0.4725" stop-color="#DFB24F"/>
<stop offset="0.567" stop-color="#DEB04D"/>
<stop offset="0.6061" stop-color="#FAEC97"/>
<stop offset="0.6341" stop-color="#FBED99"/>
<stop offset="0.6732" stop-color="#F4D174"/>
<stop offset="0.8184" stop-color="#FFFFB0"/>
<stop offset="1" stop-color="#D7AC4C"/>
</linearGradient>
<linearGradient id="paint18_linear_92_3943" x1="81.4231" y1="65.2279" x2="88.3286" y2="58.8835" gradientUnits="userSpaceOnUse">
<stop stop-color="#966424"/>
<stop offset="0.1508" stop-color="#D7AC4C"/>
<stop offset="0.1934" stop-color="#D8AE4E"/>
<stop offset="0.2087" stop-color="#DCB455"/>
<stop offset="0.2196" stop-color="#E2BE60"/>
<stop offset="0.2284" stop-color="#EBCD71"/>
<stop offset="0.2328" stop-color="#F1D77D"/>
<stop offset="0.2471" stop-color="#F2D87E"/>
<stop offset="0.3793" stop-color="#F6DF86"/>
<stop offset="0.3947" stop-color="#EECF72"/>
<stop offset="0.4142" stop-color="#E7C161"/>
<stop offset="0.4385" stop-color="#E2B756"/>
<stop offset="0.4725" stop-color="#DFB24F"/>
<stop offset="0.567" stop-color="#DEB04D"/>
<stop offset="0.6061" stop-color="#FAEC97"/>
<stop offset="0.6341" stop-color="#FBED99"/>
<stop offset="0.6732" stop-color="#F4D174"/>
<stop offset="0.8184" stop-color="#FFFFB0"/>
<stop offset="1" stop-color="#D7AC4C"/>
</linearGradient>
<linearGradient id="paint19_linear_92_3943" x1="84.2813" y1="39.073" x2="86.989" y2="36.5854" gradientUnits="userSpaceOnUse">
<stop stop-color="#966424"/>
<stop offset="0.1508" stop-color="#D7AC4C"/>
<stop offset="0.1934" stop-color="#D8AE4E"/>
<stop offset="0.2087" stop-color="#DCB455"/>
<stop offset="0.2196" stop-color="#E2BE60"/>
<stop offset="0.2284" stop-color="#EBCD71"/>
<stop offset="0.2328" stop-color="#F1D77D"/>
<stop offset="0.2471" stop-color="#F2D87E"/>
<stop offset="0.3793" stop-color="#F6DF86"/>
<stop offset="0.3947" stop-color="#EECF72"/>
<stop offset="0.4142" stop-color="#E7C161"/>
<stop offset="0.4385" stop-color="#E2B756"/>
<stop offset="0.4725" stop-color="#DFB24F"/>
<stop offset="0.567" stop-color="#DEB04D"/>
<stop offset="0.6061" stop-color="#FAEC97"/>
<stop offset="0.6341" stop-color="#FBED99"/>
<stop offset="0.6732" stop-color="#F4D174"/>
<stop offset="0.8184" stop-color="#FFFFB0"/>
<stop offset="1" stop-color="#D7AC4C"/>
</linearGradient>
<linearGradient id="paint20_linear_92_3943" x1="79.9463" y1="73.1819" x2="53.2752" y2="88.9685" gradientUnits="userSpaceOnUse">
<stop stop-color="#966424"/>
<stop offset="0.1508" stop-color="#D7AC4C"/>
<stop offset="0.1934" stop-color="#D8AE4E"/>
<stop offset="0.2087" stop-color="#DCB455"/>
<stop offset="0.2196" stop-color="#E2BE60"/>
<stop offset="0.2284" stop-color="#EBCD71"/>
<stop offset="0.2328" stop-color="#F1D77D"/>
<stop offset="0.2471" stop-color="#F2D87E"/>
<stop offset="0.3793" stop-color="#F6DF86"/>
<stop offset="0.3947" stop-color="#EECF72"/>
<stop offset="0.4142" stop-color="#E7C161"/>
<stop offset="0.4385" stop-color="#E2B756"/>
<stop offset="0.4725" stop-color="#DFB24F"/>
<stop offset="0.567" stop-color="#DEB04D"/>
<stop offset="0.6061" stop-color="#FAEC97"/>
<stop offset="0.6341" stop-color="#FBED99"/>
<stop offset="0.6732" stop-color="#F4D174"/>
<stop offset="0.8184" stop-color="#FFFFB0"/>
<stop offset="1" stop-color="#D7AC4C"/>
</linearGradient>
<linearGradient id="paint21_linear_92_3943" x1="82.16" y1="52.076" x2="101.814" y2="34.0195" gradientUnits="userSpaceOnUse">
<stop stop-color="#966424"/>
<stop offset="0.1508" stop-color="#D7AC4C"/>
<stop offset="0.1934" stop-color="#D8AE4E"/>
<stop offset="0.2087" stop-color="#DCB455"/>
<stop offset="0.2196" stop-color="#E2BE60"/>
<stop offset="0.2284" stop-color="#EBCD71"/>
<stop offset="0.2328" stop-color="#F1D77D"/>
<stop offset="0.2471" stop-color="#F2D87E"/>
<stop offset="0.3793" stop-color="#F6DF86"/>
<stop offset="0.3947" stop-color="#EECF72"/>
<stop offset="0.4142" stop-color="#E7C161"/>
<stop offset="0.4385" stop-color="#E2B756"/>
<stop offset="0.4725" stop-color="#DFB24F"/>
<stop offset="0.567" stop-color="#DEB04D"/>
<stop offset="0.6061" stop-color="#FAEC97"/>
<stop offset="0.6341" stop-color="#FBED99"/>
<stop offset="0.6732" stop-color="#F4D174"/>
<stop offset="0.8184" stop-color="#FFFFB0"/>
<stop offset="1" stop-color="#D7AC4C"/>
</linearGradient>
<linearGradient id="paint22_linear_92_3943" x1="110.315" y1="47.9182" x2="76.7812" y2="75.6008" gradientUnits="userSpaceOnUse">
<stop stop-color="#966424"/>
<stop offset="0.1508" stop-color="#D7AC4C"/>
<stop offset="0.1934" stop-color="#D8AE4E"/>
<stop offset="0.2087" stop-color="#DCB455"/>
<stop offset="0.2196" stop-color="#E2BE60"/>
<stop offset="0.2284" stop-color="#EBCD71"/>
<stop offset="0.2328" stop-color="#F1D77D"/>
<stop offset="0.2471" stop-color="#F2D87E"/>
<stop offset="0.3793" stop-color="#F6DF86"/>
<stop offset="0.3947" stop-color="#EECF72"/>
<stop offset="0.4142" stop-color="#E7C161"/>
<stop offset="0.4385" stop-color="#E2B756"/>
<stop offset="0.4725" stop-color="#DFB24F"/>
<stop offset="0.567" stop-color="#DEB04D"/>
<stop offset="0.6061" stop-color="#FAEC97"/>
<stop offset="0.6341" stop-color="#FBED99"/>
<stop offset="0.6732" stop-color="#F4D174"/>
<stop offset="0.8184" stop-color="#FFFFB0"/>
<stop offset="1" stop-color="#D7AC4C"/>
</linearGradient>
<linearGradient id="paint23_linear_92_3943" x1="78.2738" y1="60.6668" x2="53.276" y2="74.5039" gradientUnits="userSpaceOnUse">
<stop stop-color="#966424"/>
<stop offset="0.1508" stop-color="#D7AC4C"/>
<stop offset="0.1934" stop-color="#D8AE4E"/>
<stop offset="0.2087" stop-color="#DCB455"/>
<stop offset="0.2196" stop-color="#E2BE60"/>
<stop offset="0.2284" stop-color="#EBCD71"/>
<stop offset="0.2328" stop-color="#F1D77D"/>
<stop offset="0.2471" stop-color="#F2D87E"/>
<stop offset="0.3793" stop-color="#F6DF86"/>
<stop offset="0.3947" stop-color="#EECF72"/>
<stop offset="0.4142" stop-color="#E7C161"/>
<stop offset="0.4385" stop-color="#E2B756"/>
<stop offset="0.4725" stop-color="#DFB24F"/>
<stop offset="0.567" stop-color="#DEB04D"/>
<stop offset="0.6061" stop-color="#FAEC97"/>
<stop offset="0.6341" stop-color="#FBED99"/>
<stop offset="0.6732" stop-color="#F4D174"/>
<stop offset="0.8184" stop-color="#FFFFB0"/>
<stop offset="1" stop-color="#D7AC4C"/>
</linearGradient>
<linearGradient id="paint24_linear_92_3943" x1="32.725" y1="111.683" x2="101.446" y2="45.5165" gradientUnits="userSpaceOnUse">
<stop stop-color="#D7AC4C"/>
<stop offset="0.1816" stop-color="#FFFFB0"/>
<stop offset="0.3268" stop-color="#F4D174"/>
<stop offset="0.3659" stop-color="#FBED99"/>
<stop offset="0.3939" stop-color="#FAEC97"/>
<stop offset="0.433" stop-color="#DEB04D"/>
<stop offset="0.5275" stop-color="#DFB24F"/>
<stop offset="0.5615" stop-color="#E2B756"/>
<stop offset="0.5858" stop-color="#E7C161"/>
<stop offset="0.6053" stop-color="#EECF72"/>
<stop offset="0.6207" stop-color="#F6DF86"/>
<stop offset="0.7529" stop-color="#F2D87E"/>
<stop offset="0.7672" stop-color="#F1D77D"/>
<stop offset="0.7716" stop-color="#EBCD71"/>
<stop offset="0.7804" stop-color="#E2BE60"/>
<stop offset="0.7913" stop-color="#DCB455"/>
<stop offset="0.8066" stop-color="#D8AE4E"/>
<stop offset="0.8492" stop-color="#D7AC4C"/>
<stop offset="1" stop-color="#966424"/>
</linearGradient>
<linearGradient id="paint25_linear_92_3943" x1="23.0898" y1="102.059" x2="143.523" y2="-13.8906" gradientUnits="userSpaceOnUse">
<stop stop-color="#D7AC4C"/>
<stop offset="0.1816" stop-color="#FFFFB0"/>
<stop offset="0.3268" stop-color="#F4D174"/>
<stop offset="0.3659" stop-color="#FBED99"/>
<stop offset="0.3939" stop-color="#FAEC97"/>
<stop offset="0.433" stop-color="#DEB04D"/>
<stop offset="0.5275" stop-color="#DFB24F"/>
<stop offset="0.5615" stop-color="#E2B756"/>
<stop offset="0.5858" stop-color="#E7C161"/>
<stop offset="0.6053" stop-color="#EECF72"/>
<stop offset="0.6207" stop-color="#F6DF86"/>
<stop offset="0.7529" stop-color="#F2D87E"/>
<stop offset="0.7672" stop-color="#F1D77D"/>
<stop offset="0.7716" stop-color="#EBCD71"/>
<stop offset="0.7804" stop-color="#E2BE60"/>
<stop offset="0.7913" stop-color="#DCB455"/>
<stop offset="0.8066" stop-color="#D8AE4E"/>
<stop offset="0.8492" stop-color="#D7AC4C"/>
<stop offset="1" stop-color="#966424"/>
</linearGradient>
</defs>
</svg>
