<svg width="109" height="112" viewBox="0 0 109 112" fill="none" xmlns="http://www.w3.org/2000/svg">
<g opacity="0.4" filter="url(#filter0_f_92_3949)">
<path d="M19.7722 33.9494C19.4145 34.4176 19.1579 34.8798 19.0086 35.4371C17.8772 38.9166 20.1379 44.1015 22.108 47.1512C27.5893 55.9199 35.4243 62.9634 43.6154 69.1732C52.3018 75.5157 61.7778 81.1407 72.2193 83.9053C76.0295 84.7935 81.4706 85.7869 84.8327 83.2701C85.2418 82.9815 85.6449 82.5918 85.986 82.1855C85.7792 82.4619 84.7679 83.8832 84.1476 84.7124C84.1083 84.735 84.0917 84.797 84.0525 84.8196C83.9966 84.9042 83.9015 85.0115 83.8457 85.096C83.8291 85.158 83.7506 85.2033 83.7113 85.2259L83.6721 85.2486C82.6923 86.1806 81.4694 86.782 80.0485 87.1313C79.9473 87.1374 79.8296 87.2054 79.7284 87.2115C79.6272 87.2175 79.5487 87.2629 79.4475 87.2689C76.5152 87.8105 72.9089 87.2755 69.4189 86.3072C69.295 86.274 69.1093 86.2242 68.9854 86.1911C64.9547 85.0115 61.034 83.2973 58.3185 82.0388C58.1101 81.9497 57.9017 81.8607 57.7325 81.749C57.3549 81.5483 56.9773 81.3476 56.5605 81.1695C56.1829 80.9688 55.8053 80.7681 55.3885 80.59C55.0336 80.4286 54.7179 80.2445 54.4023 80.0603C49.1946 77.2049 43.4431 73.4075 37.942 69.0466C37.8574 68.9908 37.8348 68.9515 37.7502 68.8957C32.5648 64.719 27.6752 60.0575 23.8698 55.1887C23.5193 54.763 23.2308 54.3539 22.903 53.9674C22.7051 53.7153 22.4845 53.4239 22.3258 53.1491C20.1987 50.1901 18.5155 47.1841 17.4228 44.2035C17.3714 44.0238 17.32 43.8442 17.2686 43.6645C17.2172 43.4848 17.1658 43.3051 17.1144 43.1254C16.4672 40.4634 16.6825 38.2979 17.8055 36.7074L19.7722 33.9494Z" fill="url(#paint0_linear_92_3949)"/>
<path d="M11.9195 33.0398C21.3676 22.2987 52.8708 41.69 61.9304 48.4975C70.7589 55.1767 96.3043 77.4843 89.3406 89.3557L97.6487 78.9064C100.316 75.6392 98.1438 68.8854 95.8609 65.0219C87.6975 51.1545 74.7589 40.6199 61.4072 31.9986C51.7106 26.0823 35.2253 17.0196 23.7362 20.1461C22.6023 20.5391 21.5032 21.1737 20.6412 22.0377C20.1989 22.4501 12.3392 32.5882 11.9195 33.0398Z" fill="url(#paint1_linear_92_3949)"/>
<path d="M11.7878 41.3334C13.7891 47.6101 19.684 55.826 28.8695 64.3927C38.055 72.9594 48.8543 80.3326 58.8782 85.2748C68.9248 90.2564 78.1567 92.8296 84.2464 91.7736C90.3589 90.7569 92.1438 86.3243 90.1032 80.0702C88.0792 73.7542 82.207 65.5776 73.0215 57.0109C63.8361 48.4442 53.014 41.0317 42.9901 36.0895C32.9662 31.1472 23.7344 28.574 17.6219 29.5907C11.5714 30.624 9.76377 35.0174 11.7878 41.3334ZM19.0312 35.4765C19.9053 34.8148 21.0559 34.3599 22.522 34.0891C27.73 33.2282 35.6389 35.4138 44.1978 39.6317C52.7794 43.8889 61.9883 50.1391 69.8641 57.5253C77.7173 64.8723 82.7073 71.8835 84.4517 77.2618C85.221 79.5916 85.3652 81.6543 84.8326 83.2702C84.6606 83.7882 84.466 84.267 84.1475 84.7126C84.1083 84.7352 84.0917 84.7971 84.0524 84.8198C83.9966 84.9044 83.9015 85.0116 83.8456 85.0962C83.829 85.1581 83.7505 85.2035 83.7113 85.2261L83.672 85.2488C82.8327 86.1521 81.6324 86.7927 80.0485 87.1315C79.908 87.1602 79.8295 87.2055 79.7283 87.2116C79.6272 87.2177 79.5487 87.263 79.4475 87.2691C76.7341 87.7366 73.3197 87.3526 69.4188 86.3074C69.295 86.2742 69.1092 86.2244 68.9854 86.1912C65.6811 85.2727 62.0821 83.8438 58.3185 82.0389C58.11 81.9499 57.9016 81.8609 57.7325 81.7492C57.3549 81.5485 56.9773 81.3478 56.5605 81.1697C56.1829 80.969 55.8053 80.7683 55.3885 80.5902C55.0335 80.4288 54.7179 80.2446 54.4022 80.0605C48.9016 77.0602 43.2739 73.2959 37.942 69.0468C37.8574 68.991 37.8347 68.9517 37.7501 68.8959C35.7865 67.3079 33.8788 65.6354 32.0496 63.9175C28.8427 60.9014 26.1086 57.9788 23.8697 55.1889C23.5419 54.8024 23.2307 54.354 22.9029 53.9676C22.705 53.7154 22.4844 53.4241 22.3258 53.1493C19.9162 49.8823 18.3115 46.8309 17.4228 44.2037C17.3714 44.024 17.32 43.8443 17.2686 43.6647C17.2172 43.485 17.1658 43.3053 17.1144 43.1256C16.4672 40.4636 16.6824 38.2981 17.8054 36.7076C18.1798 36.1774 18.5828 35.7877 19.0312 35.4765Z" fill="url(#paint2_linear_92_3949)"/>
<path d="M18.9693 35.4598C19.8434 34.7981 20.9939 34.3432 22.4601 34.0724C27.6681 33.2115 35.577 35.3971 44.1359 39.615C52.7175 43.8721 61.9264 50.1224 69.8022 57.5086C77.6554 64.8556 82.6454 71.8668 84.3898 77.2451C85.1591 79.5749 85.3033 81.6376 84.7707 83.2535C81.4086 85.7704 75.9675 84.777 72.1573 83.8888C61.7158 81.1241 52.2399 75.4992 43.5761 69.1959C35.3458 63.0088 27.55 55.9426 22.0687 47.1739C20.0986 44.1242 17.8998 38.9559 18.9693 35.4598Z" fill="url(#paint3_linear_92_3949)"/>
<path d="M38.5537 59.9528L40.4873 57.3186L37.4537 57.8662L35.5594 60.4778L38.5537 59.9528Z" fill="url(#paint4_linear_92_3949)"/>
<path d="M50.2059 61.9138C50.1833 61.8746 50.1213 61.858 50.0987 61.8187C49.8676 61.6905 49.6531 61.5003 49.3994 61.3327C49.3374 61.3161 49.2921 61.2376 49.2302 61.221C48.9765 61.0535 48.7 60.8467 48.4236 60.6399L46.5293 63.2514C46.7212 63.4024 46.913 63.5533 47.1048 63.7043C47.1894 63.7601 47.274 63.816 47.3193 63.8945C47.3812 63.9111 47.4266 63.9896 47.4885 64.0062C47.5504 64.0227 47.5957 64.1013 47.6576 64.1178C47.8268 64.2295 47.996 64.3412 48.1651 64.4529C48.1651 64.4529 48.1878 64.4922 48.227 64.4695C48.2497 64.5088 48.3116 64.5254 48.3343 64.5646C48.4415 64.6597 48.588 64.7321 48.6726 64.788C48.7572 64.8438 48.8191 64.8604 48.9037 64.9163C48.9656 64.9329 49.0502 64.9887 49.0729 65.028C49.3039 65.1562 49.4731 65.2679 49.6815 65.357C49.8899 65.446 50.0364 65.5184 50.2222 65.5682C50.2841 65.5848 50.3068 65.624 50.3687 65.6406C50.4306 65.6572 50.4925 65.6738 50.5152 65.7131C50.639 65.7463 50.701 65.7628 50.8248 65.796C50.8867 65.8126 50.9879 65.8065 51.0498 65.8231C51.1117 65.8397 51.1736 65.8563 51.2356 65.8729C51.2356 65.8729 51.2356 65.8729 51.2748 65.8502C51.3141 65.8276 51.3367 65.8668 51.376 65.8442C51.4379 65.8608 51.4772 65.8381 51.5391 65.8547C51.5783 65.832 51.6402 65.8486 51.6402 65.8486C51.6795 65.826 51.7414 65.8425 51.7414 65.8425C51.7807 65.8199 51.7807 65.8199 51.8199 65.7972L51.8592 65.7746C51.8984 65.7519 51.8984 65.7519 51.9377 65.7292L51.9769 65.7066L53.9663 62.9878C53.9498 63.0497 53.8712 63.095 53.832 63.1177C53.7535 63.163 53.7142 63.1857 53.6131 63.1918C53.5119 63.1978 53.3715 63.2266 53.2476 63.1934C53.0845 63.1829 52.9607 63.1497 52.7976 63.1392C52.6738 63.106 52.488 63.0562 52.3415 62.9838C52.2796 62.9672 52.2569 62.9279 52.195 62.9114C52.0093 62.8616 51.8401 62.7499 51.6543 62.7001C51.4459 62.6111 51.2768 62.4994 51.0457 62.3711C50.9838 62.3545 50.8992 62.2987 50.8765 62.2594C50.6062 62.1538 50.437 62.0421 50.2059 61.9138Z" fill="url(#paint5_linear_92_3949)"/>
<path d="M41.7093 53.9963C41.5567 53.8227 41.3815 53.6098 41.2289 53.4362C41.0537 53.2233 40.8785 53.0105 40.7198 52.7357C40.4539 52.3658 40.188 51.9959 39.9448 51.6653C39.6789 51.2954 39.413 50.9255 39.1864 50.533L37.2921 53.1445C37.4507 53.4193 37.6713 53.7107 37.8299 53.9855C37.8979 54.1032 38.0052 54.1983 38.0505 54.2768C38.3164 54.6467 38.5823 55.0166 38.8255 55.3472C38.9162 55.5042 39.0461 55.6386 39.1367 55.7956C39.1821 55.8741 39.2893 55.9692 39.3346 56.0477C39.4872 56.2213 39.6624 56.4342 39.815 56.6078C39.9676 56.7814 40.0809 56.9777 40.2335 57.1513C40.3634 57.2856 40.4933 57.42 40.5839 57.577C40.7139 57.7114 40.8438 57.8457 40.9344 58.0027C41.0417 58.0978 41.1097 58.2156 41.2169 58.3107C41.522 58.6579 41.8664 58.9825 42.1943 59.369L44.0886 56.7574C43.6535 56.2759 43.2411 55.8336 42.8287 55.3912C42.6988 55.2569 42.5689 55.1225 42.4782 54.9655C42.235 54.6349 41.9918 54.3043 41.7093 53.9963Z" fill="url(#paint6_linear_92_3949)"/>
<path d="M31.7648 51.7296L33.6591 49.1181L39.1638 50.4935L37.2695 53.1051L31.7648 51.7296Z" fill="url(#paint7_linear_92_3949)"/>
<path d="M46.9582 58.5549L48.8918 55.9207L44.167 56.712L42.2335 59.3462L46.9582 58.5549Z" fill="url(#paint8_linear_92_3949)"/>
<path d="M57.0958 59.9771C56.8979 59.725 56.6834 59.5348 56.4855 59.2826L54.5912 61.8942C54.7891 62.1463 55.0262 62.3757 55.2015 62.5886C55.2468 62.6671 55.3314 62.7229 55.3767 62.8015C55.5293 62.9751 55.6592 63.1094 55.8118 63.283C55.8344 63.3223 55.8797 63.4008 55.9417 63.4174C56.0942 63.591 56.2468 63.7646 56.3994 63.9382C56.4447 64.0167 56.552 64.1118 56.5973 64.1903C56.7272 64.3247 56.8178 64.4817 56.9251 64.5768C56.9704 64.6553 57.0777 64.7504 57.123 64.8289C57.2302 64.924 57.3209 65.081 57.4281 65.1761C57.4735 65.2546 57.5807 65.3497 57.626 65.4283C57.694 65.546 57.8013 65.6411 57.8693 65.7589C57.8919 65.7981 57.9373 65.8766 57.9992 65.8932C58.2197 66.1846 58.4403 66.476 58.6382 66.7281C58.7908 66.9017 58.9041 67.098 58.9947 67.255C59.0174 67.2943 59.0401 67.3335 59.0627 67.3728C59.1987 67.6083 59.3739 67.8212 59.5099 68.0567C59.5326 68.0959 59.5326 68.0959 59.5553 68.1352C59.6912 68.3707 59.8046 68.567 59.8786 68.7859C59.9013 68.8252 59.9239 68.8644 59.9466 68.9037C60.0207 69.1226 60.134 69.3189 60.1854 69.4986C60.2081 69.5378 60.2307 69.5771 60.1915 69.5998C60.2655 69.8187 60.3169 69.9984 60.3291 70.2007C60.4153 70.622 60.3384 71.0328 60.1316 71.3092L62.0259 68.6977C62.2327 68.4212 62.293 68.0724 62.2234 67.5892C62.172 67.4095 62.1598 67.2072 62.0858 66.9882C62.0631 66.949 62.0631 66.949 62.0797 66.8871C62.0283 66.7074 61.9542 66.4884 61.8409 66.2922C61.8182 66.2529 61.7956 66.2137 61.7729 66.1744C61.6596 65.9781 61.5629 65.7199 61.4496 65.5237C61.4269 65.4844 61.4269 65.4844 61.4042 65.4452C61.2682 65.2096 61.1323 64.9741 60.957 64.7612C60.9344 64.722 60.9344 64.722 60.9117 64.6827L60.889 64.6435C60.7757 64.4472 60.6231 64.2736 60.5325 64.1166C60.3346 63.8645 60.114 63.5731 59.8935 63.2817C59.8708 63.2425 59.8708 63.2425 59.8481 63.2032C59.8255 63.164 59.8255 63.164 59.8028 63.1247C59.7348 63.0069 59.6276 62.9118 59.5596 62.7941C59.5143 62.7156 59.407 62.6205 59.3617 62.542C59.2937 62.4242 59.1638 62.2898 59.0565 62.1947C59.0112 62.1162 58.904 62.0211 58.8586 61.9426C58.7287 61.8083 58.6381 61.6512 58.5308 61.5562C58.4855 61.4776 58.4009 61.4218 58.3329 61.304C58.1804 61.1304 58.0278 60.9568 57.8752 60.7832C57.8526 60.7439 57.8299 60.7047 57.7453 60.6488C57.5927 60.4752 57.4175 60.2624 57.2423 60.0495C57.1411 60.0556 57.1184 60.0163 57.0958 59.9771Z" fill="url(#paint9_linear_92_3949)"/>
<path d="M49.4762 55.8451C49.5442 55.9629 49.5956 56.1426 49.6863 56.2996C49.7089 56.3388 49.7543 56.4173 49.7769 56.4566C49.8449 56.5744 49.9129 56.6921 50.0036 56.8491L50.0262 56.8884C50.1169 57.0454 50.2468 57.1798 50.3601 57.376C50.3828 57.4153 50.4281 57.4938 50.4508 57.5331C50.4961 57.6116 50.6033 57.7067 50.6487 57.7852C50.7167 57.9029 50.8012 57.9588 50.8692 58.0765L52.7635 55.465C52.5883 55.2522 52.475 55.0559 52.3224 54.8823C52.2997 54.843 52.2544 54.7645 52.2317 54.7253C52.0792 54.5517 51.9659 54.3554 51.8752 54.1984C51.8072 54.0806 51.7392 53.9628 51.6486 53.8058C51.6259 53.7666 51.5806 53.6881 51.5579 53.6488C51.4673 53.4918 51.3766 53.3348 51.3479 53.1943C51.2058 52.8576 51.1937 52.6553 51.3054 52.4861L49.4337 55.1369C49.322 55.3061 49.3568 55.5477 49.4762 55.8451Z" fill="url(#paint10_linear_92_3949)"/>
<path d="M54.8796 57.2265L56.8132 54.5923L52.9536 55.2504L51.0594 57.8619L54.8796 57.2265Z" fill="url(#paint11_linear_92_3949)"/>
<path d="M64.2617 61.9637C64.7586 62.4618 65.2164 62.9827 65.7133 63.4808C65.8432 63.6152 65.9732 63.7495 66.0411 63.8673C66.369 64.2538 66.736 64.6176 67.0638 65.004C67.3916 65.3905 67.7194 65.777 68.0472 66.1635C68.2451 66.4156 68.443 66.6677 68.6409 66.9198C68.6863 66.9983 68.7316 67.0768 68.7935 67.0934C68.9688 67.3063 69.144 67.5191 69.28 67.7547C69.3253 67.8332 69.348 67.8724 69.4325 67.9283C69.6304 68.1804 69.7664 68.4159 69.9643 68.668C70.0323 68.7858 70.0776 68.8643 70.1456 68.9821C70.191 69.0606 70.2363 69.1391 70.2816 69.2176C70.3496 69.3354 70.3949 69.4139 70.4629 69.5316C70.5083 69.6102 70.5536 69.6887 70.5762 69.7279C70.6442 69.8457 70.6896 69.9242 70.7576 70.042C70.7802 70.0812 70.8255 70.1597 70.8482 70.199C70.9389 70.356 71.0069 70.4738 71.0583 70.6534L72.9525 68.0419C72.8846 67.9242 72.7939 67.7671 72.7425 67.5875C72.7198 67.5482 72.6745 67.4697 72.6519 67.4304C72.5839 67.3127 72.5385 67.2342 72.4705 67.1164C72.4252 67.0379 72.3799 66.9594 72.3572 66.9201C72.2892 66.8024 72.2439 66.7239 72.1759 66.6061C72.1306 66.5276 72.0853 66.4491 72.0399 66.3706C71.9946 66.2921 71.9493 66.2136 71.8813 66.0958L71.8586 66.0565C71.7226 65.821 71.5247 65.5689 71.3268 65.3168C71.2815 65.2383 71.2589 65.199 71.1743 65.1432C70.999 64.9303 70.8631 64.6948 70.6878 64.4819C70.6652 64.4427 70.6425 64.4034 70.6198 64.3641C70.5972 64.3249 70.5972 64.3249 70.5745 64.2856C70.3766 64.0335 70.1787 63.7814 69.9808 63.5293C69.7376 63.1987 69.4324 62.8514 69.1499 62.5435C69.1046 62.465 69.0427 62.4484 68.9974 62.3699C68.6696 61.9834 68.3418 61.5969 67.9747 61.2331C67.8674 61.138 67.7995 61.0202 67.6922 60.9251C67.6695 60.8859 67.6696 60.8859 67.6469 60.8466C67.1892 60.3258 66.6922 59.8276 66.1952 59.3295C66.1952 59.3295 66.1952 59.3295 66.1726 59.2902C65.6983 58.8313 65.2632 58.3497 64.7889 57.8908L62.8946 60.5024C63.3296 60.9839 63.8266 61.4821 64.2617 61.9637Z" fill="url(#paint12_linear_92_3949)"/>
<path d="M41.5025 49.1958C41.5583 49.1112 41.6368 49.0659 41.6927 48.9813C41.7319 48.9587 41.7319 48.9587 41.7712 48.936C41.8497 48.8907 41.9282 48.8454 42.0067 48.8L42.046 48.7774C42.1637 48.7094 42.2649 48.7033 42.3827 48.6353C42.4219 48.6126 42.4838 48.6292 42.5231 48.6066C42.6243 48.6005 42.742 48.5325 42.8432 48.5264C42.9836 48.4977 43.186 48.4856 43.3491 48.4961C43.411 48.5127 43.4502 48.49 43.5121 48.5066C43.6752 48.5171 43.8383 48.5276 44.0407 48.5155L44.1026 48.5321C44.3276 48.5592 44.5526 48.5863 44.7384 48.6361C44.8003 48.6527 44.9241 48.6858 44.986 48.7024C45.1099 48.7356 45.273 48.7461 45.4195 48.8186C45.6052 48.8683 45.791 48.9181 45.9767 48.9679C46.1006 49.0011 46.2244 49.0342 46.309 49.0901C46.3709 49.1067 46.4555 49.1625 46.5566 49.1565C46.7424 49.2062 46.9508 49.2953 47.1592 49.3843C47.2438 49.4401 47.3677 49.4733 47.4296 49.4899C47.638 49.5789 47.8464 49.668 48.0548 49.757C48.1394 49.8128 48.2632 49.846 48.3252 49.8626C48.6182 50.0075 48.9112 50.1523 49.2661 50.3138C49.621 50.4753 49.9986 50.676 50.3369 50.8994C50.4834 50.9718 50.5907 51.0669 50.7145 51.1001C50.9456 51.2284 51.1993 51.3959 51.4531 51.5634C51.5996 51.6359 51.7068 51.731 51.8533 51.8034C52.1071 51.971 52.4 52.1158 52.6765 52.3226C52.8456 52.4343 53.0374 52.5853 53.2066 52.6969C53.3984 52.8479 53.5676 52.9596 53.7987 53.0879C53.9905 53.2388 54.1823 53.3898 54.4134 53.518C54.6052 53.669 54.7744 53.7807 54.9662 53.9316C55.1581 54.0826 55.3499 54.2335 55.5417 54.3845C55.7335 54.5354 55.9873 54.7029 56.2018 54.8931C56.3936 55.0441 56.5854 55.195 56.7773 55.346C57.0537 55.5528 57.2682 55.743 57.5446 55.9498C57.8663 56.2351 58.2046 56.4584 58.549 56.783L60.4433 54.1715C60.2062 53.942 59.9298 53.7352 59.7153 53.545C59.6307 53.4892 59.5461 53.4333 59.5008 53.3548C59.2244 53.148 58.9872 52.9186 58.7335 52.751C58.6262 52.6559 58.4963 52.5216 58.3498 52.4492C58.2652 52.3933 58.2426 52.3541 58.158 52.2982C57.9435 52.108 57.7124 51.9797 57.4979 51.7895C57.368 51.6552 57.2215 51.5827 57.0916 51.4484C57.0297 51.4318 56.9844 51.3533 56.9225 51.3367C56.7306 51.1858 56.5388 51.0348 56.3696 50.9231C56.2231 50.8507 56.0932 50.7163 55.9241 50.6046C55.8621 50.588 55.8168 50.5095 55.7549 50.4929C55.5631 50.342 55.3939 50.2303 55.1628 50.102C55.0163 50.0296 54.8864 49.8952 54.7399 49.8228C54.678 49.8062 54.6553 49.767 54.5934 49.7504C54.3397 49.5828 54.024 49.3987 53.7703 49.2312C53.6857 49.1753 53.5392 49.1029 53.4546 49.047C53.4319 49.0078 53.3927 49.0304 53.37 48.9912C53.1163 48.8237 52.8852 48.6954 52.6315 48.5278C52.485 48.4554 52.3777 48.3603 52.2539 48.3271C51.8763 48.1264 51.4987 47.9257 51.183 47.7416C50.89 47.5967 50.5744 47.4126 50.2421 47.2903C50.1575 47.2345 50.0337 47.2013 49.9718 47.1847C49.7634 47.0957 49.555 47.0067 49.3465 46.9176C49.262 46.8618 49.1381 46.8286 49.0762 46.812C48.8678 46.723 48.682 46.6732 48.4736 46.5842C48.4117 46.5676 48.3271 46.5118 48.2259 46.5178C48.2259 46.5178 48.164 46.5012 48.1414 46.462C48.0568 46.4061 47.9556 46.4122 47.8937 46.3956C47.7079 46.3459 47.5222 46.2961 47.3364 46.2463C47.2745 46.2297 47.2745 46.2297 47.2126 46.2131C47.0887 46.1799 46.9876 46.186 46.8637 46.1528C46.8018 46.1362 46.678 46.1031 46.6161 46.0865L46.5541 46.0699C46.3684 46.0201 46.1661 46.0323 46.003 46.0217L45.941 46.0051C45.8172 45.972 45.6768 46.0007 45.5529 45.9675C45.5137 45.9902 45.4518 45.9736 45.4518 45.9736C45.3899 45.957 45.3506 45.9797 45.2887 45.9631C45.2268 45.9465 45.1875 45.9691 45.1256 45.9526C45.0244 45.9586 44.884 45.9874 44.7828 45.9934C44.7436 46.0161 44.7436 46.0161 44.6816 45.9995C44.5805 46.0056 44.5412 46.0282 44.4627 46.0736C44.4235 46.0962 44.3615 46.0796 44.3223 46.1023C44.3223 46.1023 44.3223 46.1023 44.283 46.125C44.1426 46.1537 44.0641 46.199 43.9463 46.267L43.9071 46.2897C43.8286 46.335 43.7501 46.3803 43.7108 46.403L43.6715 46.4257C43.6323 46.4483 43.6323 46.4483 43.593 46.471C43.5538 46.4937 43.5145 46.5163 43.4979 46.5782C43.4587 46.6009 43.4421 46.6628 43.4028 46.6855L41.5025 49.1958Z" fill="url(#paint13_linear_92_3949)"/>
<path d="M61.6776 56.1279L63.6112 53.4938L60.4931 53.9855L58.5595 56.6197L61.6776 56.1279Z" fill="url(#paint14_linear_92_3949)"/>
<path d="M41.2823 50.2649C41.1204 49.2593 41.6352 48.7004 42.8598 48.4644C44.3879 48.2103 46.5323 48.7517 49.2766 50.1506C52.0208 51.5496 55.1338 53.6778 58.5369 56.5806L61.6323 56.0495L65.8724 60.0393L62.8162 60.5476C64.8206 62.4784 66.5382 64.3654 68.0081 66.1861C69.478 68.0068 70.5023 69.509 71.0191 70.6761L65.3392 69.0878C64.8058 67.9826 64.0021 66.7718 62.9446 65.3934C61.8871 64.0151 60.6438 62.5869 59.1982 61.171L54.5747 61.9562C56.253 63.8659 57.5703 65.5129 58.5432 66.8354C59.5387 68.1972 60.0948 69.3416 60.2567 70.3473C60.4186 71.353 59.9039 71.9118 58.6566 72.1086C57.1285 72.3627 54.9614 71.782 52.1779 70.4058C49.3944 69.0295 46.2588 66.862 42.833 63.92L39.7375 64.451L35.5428 60.5398L38.599 60.0314C35.3574 56.7737 33.102 54.0458 31.8102 51.8082L37.3148 53.1837C38.6171 55.2581 40.2457 57.3535 42.2789 59.4247L47.0036 58.6334C45.348 56.763 44.0141 55.1778 43.0578 53.7934C42.0622 52.4316 41.4835 51.2479 41.2823 50.2649ZM50.4901 62.5872L46.5294 63.2514C47.765 64.2129 48.8026 64.9223 49.659 65.3176C50.5153 65.713 51.1964 65.8955 51.6796 65.8259C52.1628 65.7563 52.2457 65.4467 52.0296 64.891C51.8135 64.3354 51.2591 63.5564 50.4901 62.5872ZM51.8967 55.2327C51.0796 54.8147 50.4212 54.6714 49.938 54.741C49.4548 54.8107 49.3718 55.1202 49.5653 55.6366C49.7814 56.1923 50.2512 56.9154 51.0202 57.8846L54.8404 57.2492C53.7287 56.3209 52.7757 55.6673 51.8967 55.2327Z" fill="url(#paint15_linear_92_3949)"/>
<path d="M65.8723 60.0394L67.8059 57.4052L63.6112 53.494L61.6776 56.1281L65.8723 60.0394Z" fill="url(#paint16_linear_92_3949)"/>
<path d="M49.7148 65.2331C49.3373 65.0324 48.9597 64.8317 48.4748 64.5359C47.9054 64.1842 47.3919 63.748 46.7091 63.2L46.608 63.2061L46.5068 63.2122C47.3421 63.9337 47.8103 64.2915 48.3797 64.6431C48.8027 64.9223 49.2421 65.1397 49.6197 65.3404C50.4987 65.775 51.2191 65.9348 51.82 65.7972L52.0102 65.5827C51.5784 65.832 51.0333 65.8851 49.7148 65.2331Z" fill="url(#paint17_linear_92_3949)"/>
<path d="M49.5167 54.8271C49.405 54.9963 49.4232 55.2998 49.5426 55.5973C49.7587 56.1529 50.2513 56.9153 50.9975 57.8453L51.0202 57.8845L54.8797 57.2264L54.6879 57.0755L51.1092 57.6761C50.363 56.7462 49.8931 56.023 49.6996 55.5066C49.5802 55.2092 49.5681 55.0068 49.6632 54.8996C49.7191 54.815 49.8368 54.747 50.0165 54.6956L49.5167 54.8271Z" fill="url(#paint18_linear_92_3949)"/>
<path d="M35.6877 60.2467L35.5594 60.4778L38.5537 59.9528L38.4238 59.8185L35.6877 60.2467Z" fill="url(#paint19_linear_92_3949)"/>
<path d="M68.0081 66.1862C69.4779 68.0068 70.4796 69.4698 71.0191 70.6761L71.1308 70.507C70.552 69.3233 69.635 67.9162 68.1651 66.0955C66.6952 64.2748 65.0622 62.4436 63.0351 60.4737L62.8554 60.5251C64.3403 61.9184 66.1485 63.9624 68.0081 66.1862Z" fill="url(#paint20_linear_92_3949)"/>
<path d="M31.7649 51.7298L31.8329 51.8475L37.2137 53.1898C38.516 55.2642 40.1445 57.3596 42.1551 59.3915L42.1778 59.4308L47.0037 58.6334L46.8511 58.4598L42.2502 59.2843C40.2396 57.2524 38.6111 55.1569 37.3314 53.1218L37.3088 53.0825L31.8041 51.7071L31.7649 51.7298Z" fill="url(#paint21_linear_92_3949)"/>
<path d="M42.9217 48.4811C44.4045 48.1484 46.555 48.791 49.2993 50.19C50.201 50.6638 51.1872 51.1936 52.1795 51.8245C54.1641 53.0862 56.2908 54.6847 58.5596 56.6199L58.5822 56.6592L61.6777 56.1281L65.8044 59.9216L65.9056 59.9155L65.9614 59.8309L61.7441 55.8805L58.6486 56.4115C56.3799 54.4763 54.2532 52.8778 52.2912 51.6553C51.2989 51.0244 50.3519 50.472 49.411 50.0208C46.6275 48.6445 44.4996 48.0412 42.9322 48.318C42.3705 48.433 41.9946 48.5977 41.7259 48.8575L41.4859 49.2577C41.424 49.2412 41.6805 48.779 42.9217 48.4811Z" fill="url(#paint22_linear_92_3949)"/>
<path d="M54.552 61.9169C56.2303 63.8266 57.5476 65.4736 58.5205 66.7961C59.4934 68.1186 60.0721 69.3023 60.2506 70.2461C60.3142 70.6281 60.2992 71.0555 60.1317 71.3092L60.4502 70.8636C60.4607 70.7005 60.4651 70.4363 60.4303 70.1947C60.2684 69.189 59.6897 68.0053 58.6941 66.6436C57.7212 65.321 56.4492 63.7525 54.7709 61.8428L54.552 61.9169Z" fill="url(#paint23_linear_92_3949)"/>
<path d="M17.7314 36.4887L17.6755 36.5732L17.7314 36.4887Z" fill="url(#paint24_linear_92_3949)"/>
<path d="M16.968 43.0531C17.0194 43.2328 17.0708 43.4125 17.1222 43.5922C17.1736 43.7718 17.225 43.9515 17.2991 44.1705C18.1712 46.8596 19.8151 49.8883 22.1855 53.178C22.3834 53.4301 22.542 53.7049 22.7626 53.9962C23.0512 54.4054 23.4016 54.8311 23.7294 55.2176C25.9683 58.0075 28.7251 60.9693 31.9319 63.9854C33.7612 65.7033 35.6689 67.3758 37.6325 68.9638C37.7171 69.0196 37.7398 69.0589 37.8243 69.1147C41.2153 71.8152 44.718 74.3464 48.2643 76.5908C50.2716 77.8918 52.3121 79.069 54.3072 80.1677C54.6229 80.3518 54.9778 80.5133 55.2935 80.6974C55.6711 80.8981 56.0487 81.0988 56.4655 81.2769C56.8431 81.4776 57.2207 81.6783 57.6375 81.8564C57.8459 81.9454 58.0543 82.0344 58.2235 82.1461C62.0098 83.9902 65.6088 85.4191 68.9358 86.3769C69.0596 86.4101 69.2453 86.4599 69.3692 86.4931C73.27 87.5383 76.6844 87.9223 79.4598 87.4714C79.5609 87.4653 79.6395 87.42 79.7406 87.4139C79.8418 87.4078 79.9822 87.3791 80.0607 87.3338C81.6447 86.995 82.8842 86.3317 83.7628 85.4057L83.8021 85.3831C83.8806 85.3378 83.8972 85.2758 83.9364 85.2532C83.9923 85.1686 84.0874 85.0613 84.1432 84.9768L84.2383 84.8695L84.2776 84.8469C84.2941 84.7849 84.3727 84.7396 84.3892 84.6777C84.6292 84.2774 84.8465 83.8379 84.9627 83.4045C85.5118 81.7267 85.188 79.7153 84.4352 77.3236C85.2046 79.6534 85.1464 81.7283 84.6304 83.2823C84.5143 83.7157 84.3136 84.0933 84.0736 84.4936C84.057 84.5555 83.9785 84.6008 83.9619 84.6627L83.906 84.7473C83.8502 84.8319 83.7944 84.9165 83.6993 85.0237C83.6827 85.0856 83.6434 85.1083 83.5649 85.1536L83.4864 85.199C82.6863 86.0796 81.5253 86.6976 79.9806 87.0137C79.9021 87.059 79.8009 87.0651 79.6605 87.0938C79.5593 87.0999 79.4808 87.1452 79.3796 87.1513C76.7054 87.5961 73.3137 87.2514 69.4521 86.1835C69.3283 86.1503 69.1425 86.1005 69.0187 86.0673C65.7144 85.1488 62.1154 83.7199 58.391 81.8924C58.1826 81.8034 57.9742 81.7143 57.805 81.6026C57.4274 81.4019 57.0499 81.2012 56.6723 81.0005C56.2947 80.7998 55.9171 80.5991 55.5395 80.3983C55.2239 80.2142 54.869 80.0527 54.5533 79.8686C52.5581 78.7699 50.5177 77.5927 48.533 76.3309C44.9867 74.0866 41.5067 71.5946 38.155 68.8715C38.0704 68.8157 38.0477 68.7764 37.9631 68.7206C35.9995 67.1326 34.0918 65.4601 32.2625 63.7422C29.0557 60.7261 26.3215 57.8035 24.1054 55.0529C23.7776 54.6664 23.4664 54.218 23.1386 53.8315C22.9407 53.5794 22.7201 53.288 22.5615 53.0132C20.1518 49.7462 18.5698 46.7341 17.6811 44.1069C17.6297 43.9272 17.5783 43.7476 17.5269 43.5679C17.4755 43.3882 17.4241 43.2085 17.3727 43.0288C16.7769 40.5465 16.9197 38.5275 17.8857 37.0276C17.9415 36.9431 17.9974 36.8585 18.0532 36.7739C18.3325 36.351 18.6283 35.8662 19.054 35.5157C18.6056 35.8269 18.0953 36.1215 17.7768 36.5671C17.721 36.6517 17.6651 36.7363 17.57 36.8435C16.5256 38.3887 16.3496 40.5315 16.968 43.0531Z" fill="url(#paint25_linear_92_3949)"/>
</g>
<defs>
<filter id="filter0_f_92_3949" x="-5.00024" y="-10" width="119.865" height="131.462" filterUnits="userSpaceOnUse" color-interpolation-filters="sRGB">
<feFlood flood-opacity="0" result="BackgroundImageFix"/>
<feBlend mode="normal" in="SourceGraphic" in2="BackgroundImageFix" result="shape"/>
<feGaussianBlur stdDeviation="5" result="effect1_foregroundBlur_92_3949"/>
</filter>
<linearGradient id="paint0_linear_92_3949" x1="83.2565" y1="86.427" x2="14.1075" y2="42.5009" gradientUnits="userSpaceOnUse">
<stop stop-color="#D2AB5A"/>
<stop offset="0.0610851" stop-color="#BA9443"/>
<stop offset="0.1898" stop-color="#7C5808"/>
<stop offset="0.2069" stop-color="#735000"/>
<stop offset="0.2274" stop-color="#775200"/>
<stop offset="0.3376" stop-color="#8A5D00"/>
<stop offset="0.4146" stop-color="#916100"/>
<stop offset="0.4344" stop-color="#976707"/>
<stop offset="0.4986" stop-color="#D8B364"/>
<stop offset="0.5246" stop-color="#D4AE5D"/>
<stop offset="0.5617" stop-color="#CA9F4A"/>
<stop offset="0.6053" stop-color="#B9882C"/>
<stop offset="0.6414" stop-color="#A8700D"/>
<stop offset="0.6805" stop-color="#815400"/>
<stop offset="0.8029" stop-color="#B38116"/>
<stop offset="0.8267" stop-color="#A27114"/>
<stop offset="0.8802" stop-color="#815110"/>
<stop offset="0.9247" stop-color="#6C3D0E"/>
<stop offset="0.9545" stop-color="#65360D"/>
<stop offset="0.9581" stop-color="#6F3F0D"/>
<stop offset="0.9701" stop-color="#8A580C"/>
<stop offset="0.9807" stop-color="#9B670C"/>
<stop offset="0.9886" stop-color="#A16C0C"/>
</linearGradient>
<linearGradient id="paint1_linear_92_3949" x1="99.5271" y1="76.0427" x2="17.6543" y2="24.0339" gradientUnits="userSpaceOnUse">
<stop stop-color="#D2AB5A"/>
<stop offset="0.0610851" stop-color="#BA9443"/>
<stop offset="0.1898" stop-color="#7C5808"/>
<stop offset="0.2069" stop-color="#735000"/>
<stop offset="0.2274" stop-color="#775200"/>
<stop offset="0.3376" stop-color="#8A5D00"/>
<stop offset="0.4146" stop-color="#916100"/>
<stop offset="0.4344" stop-color="#976707"/>
<stop offset="0.4986" stop-color="#D8B364"/>
<stop offset="0.5246" stop-color="#D4AE5D"/>
<stop offset="0.5617" stop-color="#CA9F4A"/>
<stop offset="0.6053" stop-color="#B9882C"/>
<stop offset="0.6414" stop-color="#A8700D"/>
<stop offset="0.6805" stop-color="#815400"/>
<stop offset="0.8029" stop-color="#B38116"/>
<stop offset="0.8267" stop-color="#A27114"/>
<stop offset="0.8802" stop-color="#815110"/>
<stop offset="0.9247" stop-color="#6C3D0E"/>
<stop offset="0.9545" stop-color="#65360D"/>
<stop offset="0.9581" stop-color="#6F3F0D"/>
<stop offset="0.9701" stop-color="#8A580C"/>
<stop offset="0.9807" stop-color="#9B670C"/>
<stop offset="0.9886" stop-color="#A16C0C"/>
</linearGradient>
<linearGradient id="paint2_linear_92_3949" x1="41.9136" y1="87.1949" x2="61.3857" y2="30.1568" gradientUnits="userSpaceOnUse">
<stop stop-color="#D7AC4C"/>
<stop offset="0.1816" stop-color="#FFFFB0"/>
<stop offset="0.3268" stop-color="#F4D174"/>
<stop offset="0.3659" stop-color="#FBED99"/>
<stop offset="0.3939" stop-color="#FAEC97"/>
<stop offset="0.433" stop-color="#DEB04D"/>
<stop offset="0.5275" stop-color="#DFB24F"/>
<stop offset="0.5615" stop-color="#E2B756"/>
<stop offset="0.5858" stop-color="#E7C161"/>
<stop offset="0.6053" stop-color="#EECF72"/>
<stop offset="0.6207" stop-color="#F6DF86"/>
<stop offset="0.7529" stop-color="#F2D87E"/>
<stop offset="0.7672" stop-color="#F1D77D"/>
<stop offset="0.7716" stop-color="#EBCD71"/>
<stop offset="0.7804" stop-color="#E2BE60"/>
<stop offset="0.7913" stop-color="#DCB455"/>
<stop offset="0.8066" stop-color="#D8AE4E"/>
<stop offset="0.8492" stop-color="#D7AC4C"/>
<stop offset="1" stop-color="#966424"/>
</linearGradient>
<linearGradient id="paint3_linear_92_3949" x1="44.9992" y1="79.5324" x2="64.4714" y2="22.4942" gradientUnits="userSpaceOnUse">
<stop offset="0.1136" stop-color="#D7AC4C"/>
<stop offset="0.1816" stop-color="#FFFFB0"/>
<stop offset="0.3268" stop-color="#F4D174"/>
<stop offset="0.3659" stop-color="#FBED99"/>
<stop offset="0.3939" stop-color="#FAEC97"/>
<stop offset="0.433" stop-color="#DEB04D"/>
<stop offset="0.5275" stop-color="#DFB24F"/>
<stop offset="0.5615" stop-color="#E2B756"/>
<stop offset="0.5858" stop-color="#E7C161"/>
<stop offset="0.6053" stop-color="#EECF72"/>
<stop offset="0.6207" stop-color="#F6DF86"/>
<stop offset="0.7529" stop-color="#F2D87E"/>
<stop offset="0.7672" stop-color="#F1D77D"/>
<stop offset="0.7716" stop-color="#EBCD71"/>
<stop offset="0.7804" stop-color="#E2BE60"/>
<stop offset="0.7913" stop-color="#DCB455"/>
<stop offset="0.8066" stop-color="#D8AE4E"/>
<stop offset="0.8492" stop-color="#D7AC4C"/>
<stop offset="1" stop-color="#966424"/>
</linearGradient>
<linearGradient id="paint4_linear_92_3949" x1="32.9981" y1="56.4385" x2="38.9317" y2="59.3595" gradientUnits="userSpaceOnUse">
<stop stop-color="#A16C0C"/>
<stop offset="0.2318" stop-color="#BE9134"/>
<stop offset="0.5559" stop-color="#A8700D"/>
<stop offset="1" stop-color="#432400"/>
</linearGradient>
<linearGradient id="paint5_linear_92_3949" x1="56.9252" y1="67.6007" x2="48.6781" y2="62.1305" gradientUnits="userSpaceOnUse">
<stop stop-color="#A16C0C"/>
<stop offset="0.2318" stop-color="#BE9134"/>
<stop offset="0.5559" stop-color="#A8700D"/>
<stop offset="1" stop-color="#432400"/>
</linearGradient>
<linearGradient id="paint6_linear_92_3949" x1="31.887" y1="48.6115" x2="43.5012" y2="56.9147" gradientUnits="userSpaceOnUse">
<stop stop-color="#A16C0C"/>
<stop offset="0.2318" stop-color="#BE9134"/>
<stop offset="0.5559" stop-color="#A8700D"/>
<stop offset="1" stop-color="#432400"/>
</linearGradient>
<linearGradient id="paint7_linear_92_3949" x1="28.1676" y1="47.8057" x2="41.7023" y2="53.9357" gradientUnits="userSpaceOnUse">
<stop stop-color="#A16C0C"/>
<stop offset="0.2318" stop-color="#BE9134"/>
<stop offset="0.5559" stop-color="#A8700D"/>
<stop offset="1" stop-color="#432400"/>
</linearGradient>
<linearGradient id="paint8_linear_92_3949" x1="49.465" y1="60.1222" x2="43.9128" y2="56.5952" gradientUnits="userSpaceOnUse">
<stop stop-color="#A16C0C"/>
<stop offset="0.2318" stop-color="#BE9134"/>
<stop offset="0.5559" stop-color="#A8700D"/>
<stop offset="1" stop-color="#432400"/>
</linearGradient>
<linearGradient id="paint9_linear_92_3949" x1="64.0877" y1="72.1895" x2="55.3177" y2="61.8372" gradientUnits="userSpaceOnUse">
<stop stop-color="#A16C0C"/>
<stop offset="0.2318" stop-color="#BE9134"/>
<stop offset="0.5559" stop-color="#A8700D"/>
<stop offset="1" stop-color="#432400"/>
</linearGradient>
<linearGradient id="paint10_linear_92_3949" x1="45.3376" y1="50.8205" x2="52.0614" y2="56.0171" gradientUnits="userSpaceOnUse">
<stop stop-color="#A16C0C"/>
<stop offset="0.2318" stop-color="#BE9134"/>
<stop offset="0.5559" stop-color="#A8700D"/>
<stop offset="1" stop-color="#432400"/>
</linearGradient>
<linearGradient id="paint11_linear_92_3949" x1="60.6095" y1="58.8544" x2="52.0844" y2="55.5212" gradientUnits="userSpaceOnUse">
<stop stop-color="#A16C0C"/>
<stop offset="0.2318" stop-color="#BE9134"/>
<stop offset="0.5559" stop-color="#A8700D"/>
<stop offset="1" stop-color="#432400"/>
</linearGradient>
<linearGradient id="paint12_linear_92_3949" x1="73.214" y1="67.6426" x2="62.6059" y2="60.9039" gradientUnits="userSpaceOnUse">
<stop stop-color="#A16C0C"/>
<stop offset="0.2318" stop-color="#BE9134"/>
<stop offset="0.5559" stop-color="#A8700D"/>
<stop offset="1" stop-color="#432400"/>
</linearGradient>
<linearGradient id="paint13_linear_92_3949" x1="40.1892" y1="44.3951" x2="58.0815" y2="55.6838" gradientUnits="userSpaceOnUse">
<stop stop-color="#A16C0C"/>
<stop offset="0.2318" stop-color="#BE9134"/>
<stop offset="0.5559" stop-color="#A8700D"/>
<stop offset="1" stop-color="#432400"/>
</linearGradient>
<linearGradient id="paint14_linear_92_3949" x1="62.9195" y1="56.2565" x2="59.4926" y2="54.0025" gradientUnits="userSpaceOnUse">
<stop stop-color="#A16C0C"/>
<stop offset="0.2318" stop-color="#BE9134"/>
<stop offset="0.5559" stop-color="#A8700D"/>
<stop offset="1" stop-color="#432400"/>
</linearGradient>
<linearGradient id="paint15_linear_92_3949" x1="42.5196" y1="87.2422" x2="61.9915" y2="30.2048" gradientUnits="userSpaceOnUse">
<stop stop-color="#D7AC4C"/>
<stop offset="0.1816" stop-color="#FFFFB0"/>
<stop offset="0.3268" stop-color="#F4D174"/>
<stop offset="0.3659" stop-color="#FBED99"/>
<stop offset="0.3939" stop-color="#FAEC97"/>
<stop offset="0.433" stop-color="#DEB04D"/>
<stop offset="0.5275" stop-color="#DFB24F"/>
<stop offset="0.5615" stop-color="#E2B756"/>
<stop offset="0.5858" stop-color="#E7C161"/>
<stop offset="0.6053" stop-color="#EECF72"/>
<stop offset="0.6207" stop-color="#F6DF86"/>
<stop offset="0.7529" stop-color="#F2D87E"/>
<stop offset="0.7672" stop-color="#F1D77D"/>
<stop offset="0.7716" stop-color="#EBCD71"/>
<stop offset="0.7804" stop-color="#E2BE60"/>
<stop offset="0.7913" stop-color="#DCB455"/>
<stop offset="0.8066" stop-color="#D8AE4E"/>
<stop offset="0.8492" stop-color="#D7AC4C"/>
<stop offset="1" stop-color="#966424"/>
</linearGradient>
<linearGradient id="paint16_linear_92_3949" x1="70.3354" y1="60.6646" x2="63.1821" y2="55.6579" gradientUnits="userSpaceOnUse">
<stop stop-color="#A16C0C"/>
<stop offset="0.2318" stop-color="#BE9134"/>
<stop offset="0.5559" stop-color="#A8700D"/>
<stop offset="1" stop-color="#432400"/>
</linearGradient>
<linearGradient id="paint17_linear_92_3949" x1="59.6136" y1="71.0439" x2="45.0932" y2="61.9742" gradientUnits="userSpaceOnUse">
<stop stop-color="#966424"/>
<stop offset="0.1508" stop-color="#D7AC4C"/>
<stop offset="0.1934" stop-color="#D8AE4E"/>
<stop offset="0.2087" stop-color="#DCB455"/>
<stop offset="0.2196" stop-color="#E2BE60"/>
<stop offset="0.2284" stop-color="#EBCD71"/>
<stop offset="0.2328" stop-color="#F1D77D"/>
<stop offset="0.2471" stop-color="#F2D87E"/>
<stop offset="0.3793" stop-color="#F6DF86"/>
<stop offset="0.3947" stop-color="#EECF72"/>
<stop offset="0.4142" stop-color="#E7C161"/>
<stop offset="0.4385" stop-color="#E2B756"/>
<stop offset="0.4725" stop-color="#DFB24F"/>
<stop offset="0.567" stop-color="#DEB04D"/>
<stop offset="0.6061" stop-color="#FAEC97"/>
<stop offset="0.6341" stop-color="#FBED99"/>
<stop offset="0.6732" stop-color="#F4D174"/>
<stop offset="0.8184" stop-color="#FFFFB0"/>
<stop offset="1" stop-color="#D7AC4C"/>
</linearGradient>
<linearGradient id="paint18_linear_92_3949" x1="54.211" y1="58.319" x2="49.2867" y2="55.1909" gradientUnits="userSpaceOnUse">
<stop stop-color="#966424"/>
<stop offset="0.1508" stop-color="#D7AC4C"/>
<stop offset="0.1934" stop-color="#D8AE4E"/>
<stop offset="0.2087" stop-color="#DCB455"/>
<stop offset="0.2196" stop-color="#E2BE60"/>
<stop offset="0.2284" stop-color="#EBCD71"/>
<stop offset="0.2328" stop-color="#F1D77D"/>
<stop offset="0.2471" stop-color="#F2D87E"/>
<stop offset="0.3793" stop-color="#F6DF86"/>
<stop offset="0.3947" stop-color="#EECF72"/>
<stop offset="0.4142" stop-color="#E7C161"/>
<stop offset="0.4385" stop-color="#E2B756"/>
<stop offset="0.4725" stop-color="#DFB24F"/>
<stop offset="0.567" stop-color="#DEB04D"/>
<stop offset="0.6061" stop-color="#FAEC97"/>
<stop offset="0.6341" stop-color="#FBED99"/>
<stop offset="0.6732" stop-color="#F4D174"/>
<stop offset="0.8184" stop-color="#FFFFB0"/>
<stop offset="1" stop-color="#D7AC4C"/>
</linearGradient>
<linearGradient id="paint19_linear_92_3949" x1="38.0337" y1="60.8128" x2="36.1029" y2="59.5863" gradientUnits="userSpaceOnUse">
<stop stop-color="#966424"/>
<stop offset="0.1508" stop-color="#D7AC4C"/>
<stop offset="0.1934" stop-color="#D8AE4E"/>
<stop offset="0.2087" stop-color="#DCB455"/>
<stop offset="0.2196" stop-color="#E2BE60"/>
<stop offset="0.2284" stop-color="#EBCD71"/>
<stop offset="0.2328" stop-color="#F1D77D"/>
<stop offset="0.2471" stop-color="#F2D87E"/>
<stop offset="0.3793" stop-color="#F6DF86"/>
<stop offset="0.3947" stop-color="#EECF72"/>
<stop offset="0.4142" stop-color="#E7C161"/>
<stop offset="0.4385" stop-color="#E2B756"/>
<stop offset="0.4725" stop-color="#DFB24F"/>
<stop offset="0.567" stop-color="#DEB04D"/>
<stop offset="0.6061" stop-color="#FAEC97"/>
<stop offset="0.6341" stop-color="#FBED99"/>
<stop offset="0.6732" stop-color="#F4D174"/>
<stop offset="0.8184" stop-color="#FFFFB0"/>
<stop offset="1" stop-color="#D7AC4C"/>
</linearGradient>
<linearGradient id="paint20_linear_92_3949" x1="59.2285" y1="57.9259" x2="73.0095" y2="71.4112" gradientUnits="userSpaceOnUse">
<stop stop-color="#966424"/>
<stop offset="0.1508" stop-color="#D7AC4C"/>
<stop offset="0.1934" stop-color="#D8AE4E"/>
<stop offset="0.2087" stop-color="#DCB455"/>
<stop offset="0.2196" stop-color="#E2BE60"/>
<stop offset="0.2284" stop-color="#EBCD71"/>
<stop offset="0.2328" stop-color="#F1D77D"/>
<stop offset="0.2471" stop-color="#F2D87E"/>
<stop offset="0.3793" stop-color="#F6DF86"/>
<stop offset="0.3947" stop-color="#EECF72"/>
<stop offset="0.4142" stop-color="#E7C161"/>
<stop offset="0.4385" stop-color="#E2B756"/>
<stop offset="0.4725" stop-color="#DFB24F"/>
<stop offset="0.567" stop-color="#DEB04D"/>
<stop offset="0.6061" stop-color="#FAEC97"/>
<stop offset="0.6341" stop-color="#FBED99"/>
<stop offset="0.6732" stop-color="#F4D174"/>
<stop offset="0.8184" stop-color="#FFFFB0"/>
<stop offset="1" stop-color="#D7AC4C"/>
</linearGradient>
<linearGradient id="paint21_linear_92_3949" x1="46.1891" y1="59.994" x2="32.174" y2="51.091" gradientUnits="userSpaceOnUse">
<stop stop-color="#966424"/>
<stop offset="0.1508" stop-color="#D7AC4C"/>
<stop offset="0.1934" stop-color="#D8AE4E"/>
<stop offset="0.2087" stop-color="#DCB455"/>
<stop offset="0.2196" stop-color="#E2BE60"/>
<stop offset="0.2284" stop-color="#EBCD71"/>
<stop offset="0.2328" stop-color="#F1D77D"/>
<stop offset="0.2471" stop-color="#F2D87E"/>
<stop offset="0.3793" stop-color="#F6DF86"/>
<stop offset="0.3947" stop-color="#EECF72"/>
<stop offset="0.4142" stop-color="#E7C161"/>
<stop offset="0.4385" stop-color="#E2B756"/>
<stop offset="0.4725" stop-color="#DFB24F"/>
<stop offset="0.567" stop-color="#DEB04D"/>
<stop offset="0.6061" stop-color="#FAEC97"/>
<stop offset="0.6341" stop-color="#FBED99"/>
<stop offset="0.6732" stop-color="#F4D174"/>
<stop offset="0.8184" stop-color="#FFFFB0"/>
<stop offset="1" stop-color="#D7AC4C"/>
</linearGradient>
<linearGradient id="paint22_linear_92_3949" x1="39.1572" y1="43.7446" x2="61.1918" y2="59.4384" gradientUnits="userSpaceOnUse">
<stop stop-color="#966424"/>
<stop offset="0.1508" stop-color="#D7AC4C"/>
<stop offset="0.1934" stop-color="#D8AE4E"/>
<stop offset="0.2087" stop-color="#DCB455"/>
<stop offset="0.2196" stop-color="#E2BE60"/>
<stop offset="0.2284" stop-color="#EBCD71"/>
<stop offset="0.2328" stop-color="#F1D77D"/>
<stop offset="0.2471" stop-color="#F2D87E"/>
<stop offset="0.3793" stop-color="#F6DF86"/>
<stop offset="0.3947" stop-color="#EECF72"/>
<stop offset="0.4142" stop-color="#E7C161"/>
<stop offset="0.4385" stop-color="#E2B756"/>
<stop offset="0.4725" stop-color="#DFB24F"/>
<stop offset="0.567" stop-color="#DEB04D"/>
<stop offset="0.6061" stop-color="#FAEC97"/>
<stop offset="0.6341" stop-color="#FBED99"/>
<stop offset="0.6732" stop-color="#F4D174"/>
<stop offset="0.8184" stop-color="#FFFFB0"/>
<stop offset="1" stop-color="#D7AC4C"/>
</linearGradient>
<linearGradient id="paint23_linear_92_3949" x1="51.9772" y1="60.9459" x2="64.3173" y2="73.7396" gradientUnits="userSpaceOnUse">
<stop stop-color="#966424"/>
<stop offset="0.1508" stop-color="#D7AC4C"/>
<stop offset="0.1934" stop-color="#D8AE4E"/>
<stop offset="0.2087" stop-color="#DCB455"/>
<stop offset="0.2196" stop-color="#E2BE60"/>
<stop offset="0.2284" stop-color="#EBCD71"/>
<stop offset="0.2328" stop-color="#F1D77D"/>
<stop offset="0.2471" stop-color="#F2D87E"/>
<stop offset="0.3793" stop-color="#F6DF86"/>
<stop offset="0.3947" stop-color="#EECF72"/>
<stop offset="0.4142" stop-color="#E7C161"/>
<stop offset="0.4385" stop-color="#E2B756"/>
<stop offset="0.4725" stop-color="#DFB24F"/>
<stop offset="0.567" stop-color="#DEB04D"/>
<stop offset="0.6061" stop-color="#FAEC97"/>
<stop offset="0.6341" stop-color="#FBED99"/>
<stop offset="0.6732" stop-color="#F4D174"/>
<stop offset="0.8184" stop-color="#FFFFB0"/>
<stop offset="1" stop-color="#D7AC4C"/>
</linearGradient>
<linearGradient id="paint24_linear_92_3949" x1="89.9681" y1="80.1029" x2="39.1419" y2="49.4606" gradientUnits="userSpaceOnUse">
<stop stop-color="#D7AC4C"/>
<stop offset="0.1816" stop-color="#FFFFB0"/>
<stop offset="0.3268" stop-color="#F4D174"/>
<stop offset="0.3659" stop-color="#FBED99"/>
<stop offset="0.3939" stop-color="#FAEC97"/>
<stop offset="0.433" stop-color="#DEB04D"/>
<stop offset="0.5275" stop-color="#DFB24F"/>
<stop offset="0.5615" stop-color="#E2B756"/>
<stop offset="0.5858" stop-color="#E7C161"/>
<stop offset="0.6053" stop-color="#EECF72"/>
<stop offset="0.6207" stop-color="#F6DF86"/>
<stop offset="0.7529" stop-color="#F2D87E"/>
<stop offset="0.7672" stop-color="#F1D77D"/>
<stop offset="0.7716" stop-color="#EBCD71"/>
<stop offset="0.7804" stop-color="#E2BE60"/>
<stop offset="0.7913" stop-color="#DCB455"/>
<stop offset="0.8066" stop-color="#D8AE4E"/>
<stop offset="0.8492" stop-color="#D7AC4C"/>
<stop offset="1" stop-color="#966424"/>
</linearGradient>
<linearGradient id="paint25_linear_92_3949" x1="85.7365" y1="87.4424" x2="-3.33209" y2="33.7415" gradientUnits="userSpaceOnUse">
<stop stop-color="#D7AC4C"/>
<stop offset="0.1816" stop-color="#FFFFB0"/>
<stop offset="0.3268" stop-color="#F4D174"/>
<stop offset="0.3659" stop-color="#FBED99"/>
<stop offset="0.3939" stop-color="#FAEC97"/>
<stop offset="0.433" stop-color="#DEB04D"/>
<stop offset="0.5275" stop-color="#DFB24F"/>
<stop offset="0.5615" stop-color="#E2B756"/>
<stop offset="0.5858" stop-color="#E7C161"/>
<stop offset="0.6053" stop-color="#EECF72"/>
<stop offset="0.6207" stop-color="#F6DF86"/>
<stop offset="0.7529" stop-color="#F2D87E"/>
<stop offset="0.7672" stop-color="#F1D77D"/>
<stop offset="0.7716" stop-color="#EBCD71"/>
<stop offset="0.7804" stop-color="#E2BE60"/>
<stop offset="0.7913" stop-color="#DCB455"/>
<stop offset="0.8066" stop-color="#D8AE4E"/>
<stop offset="0.8492" stop-color="#D7AC4C"/>
<stop offset="1" stop-color="#966424"/>
</linearGradient>
</defs>
</svg>
