<svg width="89" height="87" viewBox="0 0 89 87" fill="none" xmlns="http://www.w3.org/2000/svg">
<g filter="url(#filter0_f_5_6375)">
<path d="M67.2805 68.4449L67.478 68.2473L71.626 63.7683C71.9552 63.4389 72.2185 63.1096 72.5477 62.7802L72.7452 62.5826C73.2719 61.9898 73.7328 61.3311 74.1937 60.6724C73.667 61.2653 73.1403 61.8581 72.5477 62.4509L20.8635 19.3072L20.7977 19.373C20.5343 19.7024 20.271 20.0317 20.0076 20.3611L15.0697 26.4868C3.81106 42.1635 12.8969 59.9479 26.9208 69.1694C38.5086 77.5347 57.0095 79.3132 67.2805 68.4449Z" fill="url(#paint0_linear_5_6375)"/>
<path d="M47.2653 69.3669C55.2977 70.9477 63.396 69.6304 69.6508 65.0855C75.7739 60.6064 78.9342 53.6903 79 46.1813C79.0658 38.6723 76.0372 30.5705 69.9141 23.6543C63.8569 16.6723 55.7586 12.2591 47.7261 10.6783C39.6937 9.09745 31.5954 10.4148 25.3407 14.9597C19.1517 19.5046 15.9914 26.4208 15.9256 33.9298C15.8597 41.4388 18.8884 49.5406 25.0114 56.4567C31.1345 63.3729 39.167 67.7861 47.2653 69.3669Z" fill="url(#paint1_linear_5_6375)"/>
<path d="M28.3034 54.0196C23.1021 48.0914 20.5343 41.1753 20.5344 34.7202C20.6002 28.2651 23.2996 22.4028 28.5668 18.5166C33.8998 14.6304 40.7471 13.5106 47.6603 14.8938C54.5735 16.2771 61.4866 20.0316 66.688 25.9597C71.8893 31.8878 74.4571 38.804 74.4571 45.2591C74.3912 51.7142 71.6918 57.5765 66.4246 61.4627C61.0916 65.3489 54.2443 66.4687 47.3311 65.0854C40.3521 63.7681 33.5048 59.9477 28.3034 54.0196Z" fill="url(#paint2_linear_5_6375)"/>
<path d="M42.2614 32.5467C42.5248 32.4149 42.7882 32.2832 43.0515 32.2173C43.1174 32.1515 43.249 32.1515 43.3149 32.0856C43.5124 32.0197 43.7099 31.9539 43.9074 31.888C44.0391 31.8221 44.105 31.8221 44.2366 31.7563C44.5 31.6904 44.7634 31.6245 45.0267 31.5587C45.2242 31.4928 45.4218 31.4928 45.6851 31.4269C45.8168 31.4269 46.0143 31.3611 46.146 31.3611C46.3435 31.3611 46.4752 31.2952 46.6727 31.2952C46.8044 31.2952 47.0019 31.2293 47.1336 31.2293C47.2653 31.2293 47.4628 31.2293 47.5945 31.2293C47.792 31.2293 47.9237 31.2293 48.1212 31.2293C48.3845 31.2293 48.6479 31.2293 48.9113 31.2293L49.7672 30.1096C49.5038 30.1096 49.3063 30.1096 49.0429 30.1096C48.9771 30.1096 48.9771 30.1096 48.9113 30.1096C48.7137 30.1096 48.5821 30.1096 48.3845 30.1096C48.2529 30.1096 48.1212 30.1096 48.0553 30.1096C47.9895 30.1096 47.9895 30.1096 47.9237 30.1096C47.792 30.1096 47.5945 30.1096 47.4628 30.1754C47.3311 30.1754 47.1994 30.1754 47.0677 30.2413C47.0019 30.2413 47.0019 30.2413 46.9361 30.2413C46.8044 30.2413 46.6069 30.3072 46.4752 30.3072C46.3435 30.3072 46.2118 30.373 46.0802 30.373C46.0143 30.373 45.8826 30.4389 45.8168 30.4389C45.6193 30.5048 45.4218 30.5048 45.2242 30.5706C45.1584 30.5706 45.0926 30.6365 45.0267 30.6365C44.895 30.6365 44.8292 30.7024 44.6975 30.7682C44.6317 30.7682 44.5658 30.8341 44.4342 30.8341C44.3025 30.9 44.2366 30.9 44.105 30.9658C44.0391 31.0317 43.9074 31.0317 43.8416 31.0976C43.7758 31.0976 43.7758 31.0976 43.7099 31.1635C43.5124 31.2293 43.249 31.3611 43.0515 31.4269C43.0515 31.4269 43.0515 31.4269 42.9857 31.4269C42.7882 31.5587 42.5248 31.6245 42.3273 31.7563C42.2614 31.7563 42.1956 31.8221 42.1298 31.8221L41.2739 32.9419C41.6689 32.876 41.9323 32.6784 42.2614 32.5467Z" fill="url(#paint3_linear_5_6375)"/>
<path d="M35.875 29.912L35.0191 31.0317L31.9246 27.4749L32.7805 26.3551L35.875 29.912Z" fill="url(#paint4_linear_5_6375)"/>
<path d="M52.73 17.7922C52.8616 17.8581 53.0592 17.9239 53.1908 17.9898C53.2567 17.9898 53.3225 18.0557 53.3884 18.0557C53.7176 18.1874 53.9809 18.3191 54.3101 18.4509C54.4418 18.5167 54.5735 18.5826 54.7052 18.6485C54.9685 18.7802 55.2319 18.912 55.4952 19.0437C55.6269 19.1096 55.7586 19.1754 55.8903 19.2413C56.2195 19.373 56.4828 19.5706 56.812 19.7682C56.8779 19.8341 56.9437 19.8341 57.0095 19.9C57.4046 20.0976 57.7996 20.3611 58.1947 20.6245C58.1947 20.6245 58.2605 20.6245 58.2605 20.6904C58.6555 20.888 58.9847 21.1515 59.3139 21.415C59.3798 21.4808 59.4456 21.4808 59.5115 21.5467C59.7748 21.7443 60.104 21.9419 60.3674 22.1395C60.499 22.2054 60.5649 22.2712 60.6966 22.403C60.8941 22.5347 61.0916 22.6664 61.2233 22.8641C61.5525 23.1275 61.8817 23.391 62.2109 23.6545C62.3426 23.7862 62.4742 23.8521 62.5401 23.9838C62.8693 24.3132 63.2643 24.6425 63.5935 24.9718C63.6594 25.0377 63.6594 25.0377 63.7252 25.1036C64.1202 25.4329 64.4494 25.8281 64.8445 26.2233C65.1737 26.5527 65.5029 26.882 65.7662 27.2772C65.9637 27.4748 66.0954 27.6724 66.2929 27.87C66.4905 28.0676 66.688 28.3311 66.8197 28.5287C66.9513 28.7263 67.083 28.8581 67.2147 29.0557C67.3464 29.2533 67.5439 29.4509 67.6756 29.7144C67.8073 29.912 67.9389 30.1096 68.0706 30.2413C68.2023 30.4389 68.334 30.6365 68.5315 30.9C68.6632 31.0976 68.7948 31.2952 68.8607 31.4269C68.9924 31.6245 69.124 31.888 69.2557 32.0856C69.3874 32.2832 69.4532 32.4808 69.5849 32.6126C69.7166 32.8102 69.8483 33.0736 69.98 33.3371C70.1116 33.5347 70.1775 33.7323 70.2433 33.8641C70.375 34.1275 70.5067 34.391 70.6384 34.5886C70.7042 34.7862 70.8359 34.9179 70.9017 35.1156C71.0334 35.379 71.1651 35.7084 71.2968 35.9718C71.3626 36.1036 71.4284 36.3012 71.4943 36.4329C71.6918 36.8281 71.8235 37.2892 71.9552 37.6844C71.9552 37.7503 72.021 37.7503 72.021 37.8162C72.2185 38.3431 72.3502 38.8042 72.4819 39.3311C72.5477 39.5946 72.6136 39.7922 72.6794 40.0557C72.6794 40.1874 72.7452 40.2533 72.7452 40.385C72.9428 40.7144 73.0086 41.1096 73.0744 41.5048C73.1403 41.9 73.2061 42.3611 73.2719 42.7563C73.2719 42.8221 73.2719 42.8221 73.2719 42.888C73.3378 43.2832 73.3378 43.6784 73.4036 44.0078C73.4036 44.2712 73.4695 44.5347 73.4695 44.7982C73.4695 44.9299 73.4695 45.0617 73.4695 45.1934C73.4695 45.5886 73.4695 45.9838 73.4695 46.379C73.4036 50.9898 72.021 55.3371 69.3216 58.8281L70.1775 57.7084C73.0086 54.2173 74.3912 49.87 74.4571 45.2593C74.4571 44.8641 74.4571 44.4688 74.4571 44.0736C74.4571 43.9419 74.4571 43.8102 74.4571 43.6784C74.4571 43.415 74.4571 43.1515 74.3912 42.888C74.3254 42.4928 74.3254 42.1635 74.2595 41.7682C74.2595 41.7024 74.2595 41.7024 74.2595 41.6365C74.1937 41.2413 74.1279 40.7802 74.062 40.385C73.9962 39.9898 73.9303 39.6605 73.7987 39.2653C73.7987 39.1335 73.7328 39.0676 73.7328 38.9359C73.667 38.7383 73.667 38.5407 73.6011 38.409C73.6011 38.3431 73.5353 38.2772 73.5353 38.2114C73.4036 37.6844 73.2061 37.2233 73.0744 36.6964C73.0744 36.6305 73.0744 36.6305 73.0086 36.5647C72.8769 36.1694 72.6794 35.7084 72.5477 35.3132C72.5477 35.2473 72.4819 35.1814 72.4819 35.1814C72.416 35.0497 72.3502 34.9838 72.3502 34.8521C72.2185 34.5886 72.0868 34.2593 71.9552 33.9958C71.8893 33.9299 71.8893 33.8641 71.8235 33.7323C71.7576 33.6665 71.6918 33.5347 71.6918 33.4688C71.5601 33.2054 71.4284 32.9419 71.2968 32.7443C71.2309 32.6126 71.1651 32.5467 71.1651 32.415C71.0992 32.3491 71.0992 32.2832 71.0334 32.1515C70.9017 31.9539 70.77 31.6904 70.6384 31.4928C70.5725 31.3611 70.5067 31.2293 70.4408 31.1635C70.375 31.0976 70.375 31.0317 70.3092 30.9658C70.1775 30.7682 70.0458 30.5048 69.9141 30.3072C69.8483 30.1754 69.7824 30.0437 69.6508 29.912C69.5849 29.8461 69.5849 29.7802 69.5191 29.7144C69.3874 29.5167 69.2557 29.3191 69.0582 29.0557C68.9924 28.9239 68.8607 28.7922 68.7948 28.6605C68.729 28.5946 68.729 28.5287 68.6632 28.5287C68.5315 28.3311 68.334 28.1335 68.2023 27.9359C68.0706 27.8042 68.0048 27.6724 67.8731 27.5407C67.8073 27.3431 67.8073 27.2772 67.7414 27.2772C67.5439 27.0796 67.4122 26.8162 67.2147 26.6185C67.083 26.4868 67.0172 26.3551 66.8855 26.2233C66.8197 26.1575 66.7538 26.0916 66.688 26.0257C66.4246 25.6964 66.0954 25.367 65.7662 25.0377L65.7004 24.9718C65.3712 24.5766 64.9761 24.2473 64.5811 23.8521C64.5153 23.7862 64.5153 23.7862 64.4494 23.7203C64.1202 23.391 63.7252 23.0617 63.396 22.7323C63.3302 22.7323 63.3302 22.6664 63.2643 22.6006C63.1985 22.5347 63.0668 22.4688 63.001 22.403C62.6718 22.1395 62.3426 21.876 62.0134 21.6126C61.9475 21.5467 61.8817 21.4808 61.8158 21.415C61.6842 21.3491 61.6183 21.2832 61.4866 21.1515C61.355 21.0856 61.2891 21.0197 61.1574 20.888C60.8941 20.6904 60.5649 20.4928 60.3015 20.2952C60.2357 20.2293 60.1698 20.2293 60.104 20.1635C60.104 20.1635 60.104 20.1635 60.0382 20.1635C59.709 19.9 59.3798 19.7024 58.9847 19.5048C58.9847 19.5048 58.9189 19.5048 58.9189 19.4389C58.5239 19.1754 58.1947 18.9778 57.7996 18.7802C57.7996 18.7802 57.7996 18.7802 57.7338 18.7802C57.6679 18.7144 57.6021 18.7144 57.5363 18.6485C57.2071 18.4509 56.9437 18.3191 56.6145 18.1215C56.4828 18.0557 56.3511 17.9898 56.2195 17.9239C55.9561 17.7922 55.6928 17.6605 55.4294 17.5287C55.2977 17.4629 55.166 17.397 55.0344 17.3311C54.7052 17.1994 54.4418 17.0676 54.1126 16.9359C54.0468 16.9359 53.9809 16.87 53.9151 16.87L53.8492 16.87C53.7176 16.8042 53.5859 16.7383 53.3884 16.6724C53.125 16.5407 52.8616 16.4748 52.5983 16.3431C52.4008 16.2772 52.2691 16.2114 52.0716 16.1455C51.8082 16.0796 51.5449 15.9479 51.2815 15.882C51.084 15.8161 50.8865 15.7503 50.6889 15.6844C50.4256 15.6185 50.1622 15.5527 49.9647 15.4868C49.7672 15.4209 49.5697 15.3551 49.3721 15.3551C49.1088 15.2892 48.9113 15.2233 48.6479 15.1575C48.5821 15.1575 48.5162 15.1575 48.5162 15.0916C48.187 15.0257 47.8578 14.9599 47.5286 14.894C47.0678 14.8281 46.541 14.6964 46.0802 14.6305C45.9485 14.6305 45.751 14.5646 45.6193 14.5646C45.2901 14.4988 44.9609 14.4988 44.6317 14.4329C44.5658 14.4329 44.5 14.4329 44.3683 14.4329C44.2366 14.4329 44.105 14.4329 43.9733 14.4329C43.7758 14.4329 43.5782 14.4329 43.3807 14.367C43.1832 14.367 42.9199 14.367 42.7223 14.367C42.5248 14.367 42.3273 14.367 42.1298 14.367C42.0639 14.367 41.9981 14.367 41.8664 14.367C41.8006 14.367 41.7347 14.367 41.6689 14.367C41.1422 14.367 40.6155 14.367 40.0229 14.4329C39.9571 14.4329 39.9571 14.4329 39.8912 14.4329C39.8912 14.4329 39.8912 14.4329 39.8254 14.4329C39.2987 14.4988 38.8378 14.4988 38.3111 14.6305C38.2452 14.6305 38.2452 14.6305 38.1794 14.6305C38.0477 14.6305 37.9819 14.6964 37.8502 14.6964C37.521 14.7623 37.1918 14.8281 36.9284 14.894C36.8626 14.894 36.7309 14.894 36.6651 14.9599C36.5992 14.9599 36.5334 15.0257 36.4017 15.0257C36.1384 15.0916 35.875 15.1575 35.6116 15.2233C35.48 15.2233 35.4141 15.2892 35.2824 15.2892C35.2166 15.2892 35.1508 15.3551 35.0849 15.3551C34.8216 15.4209 34.5582 15.4868 34.3607 15.5527C34.229 15.6185 34.0973 15.6185 33.9656 15.6844C33.8998 15.6844 33.8998 15.6844 33.834 15.7503C33.5706 15.8161 33.3731 15.9479 33.1097 16.0138C32.9781 16.0796 32.8464 16.0796 32.7147 16.1455C32.7147 16.1455 32.6489 16.1455 32.6489 16.2114C32.4513 16.2772 32.188 16.409 31.9905 16.5407C31.8588 16.6066 31.7271 16.6724 31.5954 16.7383L31.5296 16.7383C31.3321 16.87 31.0687 16.9359 30.8712 17.0676C30.7395 17.1335 30.6078 17.1994 30.4761 17.2653C30.4761 17.2653 30.4761 17.2653 30.4103 17.2653C30.1469 17.397 29.8836 17.5946 29.6202 17.7263C29.5544 17.7922 29.4227 17.8581 29.3569 17.9239C29.0277 18.1215 28.6985 18.385 28.3034 18.6485C27.9742 18.912 27.5792 19.1754 27.25 19.4389C27.0525 19.6365 26.855 19.7682 26.6574 19.9658C26.5258 20.0976 26.3941 20.2293 26.1966 20.3611C25.8674 20.6245 25.604 20.9539 25.3406 21.2832L25.2748 21.3491C25.2748 21.3491 25.2748 21.3491 25.209 21.4149C24.9456 21.7443 24.6823 22.0736 24.4189 22.403L23.563 23.5227C23.8263 23.1934 24.0897 22.8641 24.4189 22.5347L24.4847 22.4688C24.7481 22.1395 25.0773 21.876 25.3406 21.5467C25.4723 21.415 25.604 21.2832 25.8015 21.1515C25.999 20.9539 26.1966 20.8221 26.3941 20.6245C26.7233 20.3611 27.1183 20.0317 27.4475 19.7682C27.7767 19.5048 28.1059 19.3072 28.501 19.0437C28.6326 18.9778 28.6985 18.912 28.8302 18.8461C29.0935 18.7143 29.3569 18.5167 29.6202 18.385C29.7519 18.3191 29.8836 18.2533 30.0811 18.1874C30.2786 18.0557 30.542 17.9239 30.7395 17.8581C30.8712 17.7922 31.0687 17.7263 31.2004 17.6605C31.3979 17.5287 31.6613 17.4629 31.8588 17.3311C31.9905 17.2653 32.188 17.1994 32.3197 17.1335C32.583 17.0676 32.7805 16.9359 33.0439 16.87C33.1756 16.8042 33.3731 16.7383 33.5048 16.7383C33.7681 16.6724 33.9656 16.6066 34.229 16.5407C34.4265 16.4748 34.5582 16.4748 34.7557 16.409C35.0191 16.3431 35.2824 16.2772 35.5458 16.2114C35.7433 16.1455 35.875 16.1455 36.0725 16.0796C36.4017 16.0138 36.7309 15.9479 36.9943 15.882C37.126 15.882 37.3235 15.8161 37.4552 15.8161C37.9819 15.7503 38.4427 15.6844 38.9695 15.6185C39.0353 15.6185 39.1011 15.6185 39.167 15.6185C39.6937 15.5527 40.2204 15.5527 40.813 15.5527C40.9447 15.5527 41.1422 15.5527 41.2739 15.5527C41.4714 15.5527 41.6689 15.5527 41.8664 15.5527C42.0639 15.5527 42.3273 15.5527 42.5248 15.5527C42.7223 15.5527 42.9198 15.5527 43.1174 15.6185C43.3149 15.6185 43.5124 15.6185 43.7099 15.6844C44.0391 15.6844 44.3683 15.7503 44.6975 15.8161C44.8292 15.8161 45.0267 15.882 45.1584 15.882C45.6193 15.9479 46.146 16.0138 46.6069 16.1455C47.0019 16.2114 47.3311 16.2772 47.7261 16.409C47.9895 16.4748 48.187 16.5407 48.4504 16.6066C48.6479 16.6724 48.8454 16.7383 49.0429 16.7383C49.3063 16.8042 49.5697 16.87 49.7672 16.9359C49.9647 17.0018 50.1622 17.0676 50.3597 17.1335C50.6231 17.1994 50.8865 17.3311 51.1498 17.397C51.3473 17.4629 51.479 17.5287 51.6765 17.5946C52.1374 17.5946 52.4008 17.7263 52.73 17.7922Z" fill="url(#paint5_linear_5_6375)"/>
<path d="M39.562 34.0617L38.7061 35.1814L38.6403 35.2473L39.4962 34.1276L39.562 34.0617Z" fill="#784E4A"/>
<path d="M50.8206 42.7562C51.0181 42.6903 51.1498 42.6903 51.3473 42.6903C51.4132 42.6903 51.4132 42.6903 51.479 42.6903C51.6107 42.6903 51.7424 42.6903 51.9399 42.6903L52.0057 42.6903C52.2032 42.6903 52.3349 42.6903 52.4666 42.6903C52.5983 42.6903 52.73 42.7562 52.8616 42.7562C52.9275 42.7562 52.9933 42.8221 53.0592 42.8221C53.125 42.888 53.2567 42.888 53.3225 42.9538C53.3225 42.9538 53.3884 42.9538 53.3884 43.0197C53.52 43.0856 53.6517 43.1514 53.7834 43.2832C53.9151 43.4149 54.0468 43.4808 54.1126 43.6125C54.2443 43.7442 54.3101 43.876 54.4418 44.0077C54.5076 44.1395 54.5735 44.2712 54.6393 44.4029C54.7052 44.5347 54.771 44.6664 54.771 44.864C54.771 44.864 54.771 44.864 54.771 44.9299C54.771 45.0616 54.8368 45.2592 54.8368 45.3909C54.8368 46.0496 54.5735 46.7083 54.0468 47.4329L54.9027 46.3131C55.4294 45.5886 55.6927 44.9299 55.6927 44.2712C55.6927 44.2053 55.6927 44.1394 55.6927 44.1394C55.6927 44.0736 55.6927 43.9418 55.6269 43.876C55.6269 43.876 55.6269 43.876 55.6269 43.8101C55.6269 43.8101 55.6269 43.8101 55.6269 43.7442C55.6269 43.6784 55.6269 43.6784 55.6269 43.6125C55.6269 43.5466 55.6269 43.4808 55.5611 43.4808L55.4952 43.349L55.4294 43.2173L55.3635 43.0856L55.2977 42.9538L55.2319 42.888C55.2319 42.8221 55.166 42.8221 55.166 42.7562C55.166 42.6903 55.1002 42.6903 55.1002 42.6245C55.0344 42.5586 55.0343 42.5586 54.9685 42.4927L54.9027 42.4269C54.8368 42.361 54.8368 42.361 54.771 42.2951C54.7052 42.2293 54.7052 42.2293 54.6393 42.2293L54.5735 42.1634C54.5735 42.1634 54.5735 42.1634 54.5076 42.1634C54.4418 42.0975 54.4418 42.0975 54.376 42.0975C54.3101 42.0317 54.2443 42.0317 54.2443 41.9658C54.2443 41.9658 54.2443 41.9658 54.1784 41.9658C54.1784 41.9658 54.1126 41.9658 54.1126 41.8999C54.0468 41.8999 53.9809 41.8341 53.9151 41.8341C53.8492 41.8341 53.8492 41.8341 53.7834 41.7682C53.7176 41.7682 53.6517 41.7023 53.5859 41.7023C53.52 41.7023 53.52 41.7023 53.4542 41.7023C53.3884 41.7023 53.2567 41.6365 53.1908 41.6365L53.0592 41.6365C52.9275 41.6365 52.7958 41.6365 52.73 41.6365C52.73 41.6365 52.73 41.6365 52.6641 41.6365L52.5983 41.6365C52.5324 41.6365 52.4666 41.6365 52.3349 41.6365C52.2691 41.6365 52.2032 41.6365 52.1374 41.6365C52.0716 41.6365 52.0716 41.6365 52.0057 41.6365L51.9399 41.6365C51.8082 41.6365 51.6765 41.7023 51.5448 41.7023C51.479 41.7023 51.479 41.7023 51.4132 41.7023C51.2815 41.7023 51.2156 41.7682 51.084 41.7682C51.0181 41.7682 50.9523 41.8341 50.8864 41.8341L50.0305 42.9538C50.2281 42.888 50.4256 42.8221 50.5572 42.8221C50.6889 42.7562 50.7548 42.7562 50.8206 42.7562Z" fill="url(#paint6_linear_5_6375)"/>
<path d="M43.3807 38.4088L42.5248 39.5286L38.7061 35.1813L39.562 34.0615L43.3807 38.4088Z" fill="url(#paint7_linear_5_6375)"/>
<path d="M59.8406 49.2113L58.9847 50.331C58.8531 50.5286 58.6555 50.7262 58.5239 50.9238L59.3798 49.8041C59.5114 49.6065 59.709 49.4089 59.8406 49.2113Z" fill="#784E4A"/>
<path d="M59.3798 49.8041L58.5239 50.9239C58.3263 51.1874 58.063 51.385 57.8655 51.6484L58.7214 50.5287C58.9189 50.2652 59.1164 50.0017 59.3798 49.8041Z" fill="#7C514D"/>
<path d="M52.2032 48.4208L51.3473 49.5405L46.6069 44.2052L47.4628 43.0854L52.2032 48.4208Z" fill="url(#paint8_linear_5_6375)"/>
<path d="M58.9189 56.0616L58.063 57.1814L55.0343 53.7562L55.8903 52.6365L58.9189 56.0616Z" fill="url(#paint9_linear_5_6375)"/>
<path d="M61.75 54.0197L60.8941 55.1395L58.063 57.1814L58.9189 56.0616L61.75 54.0197Z" fill="#8A5A55"/>
<path d="M36.27 44.2712C36.3359 44.337 36.4017 44.337 36.4676 44.4029C36.5334 44.4688 36.6651 44.5346 36.7309 44.6005C36.7309 44.6005 36.7309 44.6005 36.7968 44.6005C36.9943 44.7322 37.2576 44.864 37.4552 44.9298C37.4552 44.9298 37.521 44.9298 37.521 44.9957L37.5868 44.9957C37.7844 45.0616 37.9819 45.1274 38.1794 45.1933C38.3769 45.2592 38.5744 45.3251 38.7719 45.3251C38.9036 45.3251 39.0353 45.3909 39.1011 45.3909C39.167 45.3909 39.2328 45.3909 39.2987 45.3909C39.562 45.4568 39.7595 45.4568 40.0229 45.4568C40.0887 45.4568 40.0887 45.4568 40.1546 45.4568C40.2204 45.4568 40.3521 45.4568 40.4179 45.4568C40.5496 45.4568 40.6813 45.4568 40.7471 45.4568C40.8788 45.4568 41.0105 45.4568 41.1422 45.4568C41.208 45.4568 41.2739 45.4568 41.2739 45.4568L41.3397 45.4568C41.5372 45.4568 41.7347 45.3909 41.8664 45.3909C41.9323 45.3909 42.0639 45.3909 42.1298 45.3251C42.2615 45.3251 42.459 45.2592 42.5907 45.2592C42.7882 45.1933 42.9198 45.1933 43.1174 45.1274C43.1174 45.1274 43.1174 45.1274 43.1832 45.1274C43.3807 45.0616 43.5782 44.9957 43.7758 44.9957C43.9074 44.9957 43.9733 44.9298 44.105 44.9298C44.1708 44.9298 44.2366 44.864 44.3025 44.864C44.6317 44.7981 44.895 44.6664 45.2242 44.6005L45.2901 44.6005C45.3559 44.6005 45.3559 44.6005 45.4218 44.5346C45.751 44.4029 46.146 44.2712 46.541 44.1394L47.4628 43.0855C47.0677 43.2173 46.7386 43.349 46.3435 43.4807C46.2777 43.4807 46.2777 43.4807 46.2118 43.5466C45.8826 43.6783 45.5534 43.7442 45.2242 43.876C45.1584 43.876 45.0926 43.9418 45.0267 43.9418C44.6975 44.0077 44.4342 44.1394 44.105 44.2053C44.105 44.2053 44.105 44.2053 44.0391 44.2053C43.7099 44.2712 43.3807 44.337 43.0515 44.4029C42.7223 44.4688 42.459 44.4688 42.1298 44.5346C42.0639 44.5346 41.9981 44.5346 41.9981 44.5346C41.7347 44.5346 41.5372 44.5346 41.2739 44.5346C41.208 44.5346 41.0763 44.5346 41.0105 44.5346C40.7471 44.5346 40.4179 44.4688 40.1546 44.4029C40.0887 44.4029 40.0229 44.4029 40.0229 44.4029C39.6937 44.337 39.4303 44.2712 39.1011 44.2053C38.9036 44.1394 38.7061 44.0736 38.5086 44.0077C38.4427 44.0077 38.3769 43.9418 38.3769 43.9418C38.1794 43.8759 37.916 43.7442 37.7185 43.6125L37.6527 43.6125C37.521 43.5466 37.4552 43.4807 37.3235 43.4149C37.2576 43.349 37.1918 43.349 37.126 43.2831C37.0601 43.2831 37.0601 43.2173 36.9943 43.2173C36.8626 43.1514 36.7309 43.0197 36.6651 42.9538C36.5992 42.8879 36.5992 42.8879 36.5334 42.8221C36.4017 42.7562 36.3359 42.6245 36.2042 42.5586C36.1384 42.4927 36.0725 42.4927 36.0725 42.4268C36.0067 42.361 35.875 42.2292 35.8092 42.1634C35.7433 42.0975 35.6775 42.0316 35.6775 42.0316C35.5458 41.8999 35.4141 41.7682 35.2824 41.5706C35.0849 41.373 34.9532 41.1753 34.8216 40.9777L34.7557 40.9119C34.624 40.7143 34.4924 40.5167 34.3607 40.3191L34.2948 40.2532C34.1632 40.0556 34.0315 39.858 33.9656 39.6604C33.9656 39.6604 33.9656 39.5945 33.8998 39.5945C33.7681 39.3969 33.7023 39.1993 33.6364 39.0017C33.6364 38.9358 33.6365 38.9358 33.5706 38.87C33.5048 38.6724 33.4389 38.4748 33.3731 38.2771L33.3731 38.2113C33.3073 38.0137 33.2414 37.7502 33.2414 37.5526C33.2414 37.4209 33.1756 37.2891 33.1756 37.1574C33.1756 37.0256 33.1097 36.8939 33.1097 36.7622C33.1097 36.4987 33.0439 36.2352 33.1097 35.9059C33.1097 35.1155 33.3073 34.3251 33.5706 33.5346C33.8998 32.7442 34.2948 32.0197 34.8874 31.2292L34.0315 32.349C32.8464 33.864 32.2538 35.3789 32.2538 36.9598C32.2538 37.2233 32.2538 37.4867 32.2538 37.8161L32.2538 37.8819C32.2538 38.0137 32.2538 38.0795 32.3197 38.2113C32.3197 38.343 32.3197 38.4748 32.3855 38.6065L32.3855 38.6724C32.4513 38.87 32.4513 39.0676 32.5172 39.1993L32.5172 39.2652C32.583 39.3969 32.583 39.5286 32.6489 39.6604C32.6489 39.7262 32.7147 39.7921 32.7147 39.858C32.7147 39.9239 32.7147 39.9239 32.7805 39.9897L32.7805 40.0556C32.8464 40.1873 32.9122 40.3191 32.9781 40.4508C32.9781 40.5167 33.0439 40.5167 33.0439 40.5825C33.0439 40.5825 33.0439 40.6484 33.1097 40.6484C33.1097 40.7143 33.1756 40.7143 33.1756 40.7801C33.2414 40.9119 33.3073 41.0436 33.3731 41.1095C33.3731 41.1753 33.4389 41.1754 33.4389 41.2412L33.5048 41.3071C33.5048 41.373 33.5706 41.373 33.5706 41.4388C33.6365 41.5706 33.7023 41.7023 33.834 41.7682L33.8998 41.834L33.9656 41.8999C34.0315 41.9658 34.0315 42.0316 34.0973 42.0975C34.1632 42.2292 34.2948 42.361 34.4265 42.4927L34.4924 42.5586C34.624 42.6903 34.6899 42.8221 34.8216 42.8879L34.8874 42.9538C34.8216 43.0855 34.8874 43.0855 34.8874 43.1514C34.9532 43.2173 35.0191 43.2831 35.0191 43.2831C35.0849 43.349 35.0849 43.349 35.1508 43.4149C35.2166 43.4807 35.2824 43.4807 35.2824 43.5466L35.3483 43.6125C35.4141 43.6783 35.48 43.7442 35.5458 43.8101C35.6116 43.8759 35.6116 43.8759 35.6775 43.9418C35.6775 43.9418 35.6775 43.9418 35.7433 44.0077C35.875 44.0736 35.9408 44.1394 36.0725 44.2712C36.2042 44.2712 36.2042 44.2712 36.27 44.2712Z" fill="url(#paint10_linear_5_6375)"/>
<path d="M39.1011 44.1393C37.7185 43.7441 36.4017 42.822 35.2166 41.4387C33.7023 39.7261 32.9781 37.816 32.9781 35.774C33.0439 33.7321 33.9656 31.7561 35.875 29.9118L32.7805 26.3549L35.6116 24.313L38.6403 27.7381C40.0887 26.816 41.6689 26.0914 43.3807 25.6303C45.0267 25.1693 46.541 24.9717 47.9237 25.1034L49.7672 30.1094C48.5162 30.0435 47.2653 30.1752 45.9485 30.4387C44.6317 30.7681 43.4466 31.2291 42.3273 31.822L47.0019 37.0914C48.6479 36.4986 50.1622 36.0375 51.479 35.8399C52.7958 35.5764 54.1126 35.7082 55.4952 36.1034C56.8779 36.4986 58.1947 37.4208 59.4456 38.804C60.9599 40.5824 61.75 42.4926 61.6842 44.5345C61.6183 46.6423 60.6966 48.5525 58.7872 50.4627L61.8817 53.9537L59.0506 55.9956L56.0219 52.5705C53.52 54.0854 51.0181 54.81 48.5821 54.81L46.541 49.8699C48.7796 49.7381 50.6889 49.2112 52.3349 48.3549L47.5945 42.9537C45.9485 43.6124 44.5 44.0076 43.249 44.2711C41.8006 44.6004 40.4838 44.5345 39.1011 44.1393ZM51.0181 41.8339L54.9685 46.313C55.4952 45.5884 55.7586 44.9297 55.7586 44.2711C55.7586 43.6124 55.4952 43.0196 55.0343 42.4926C54.5735 41.9657 53.9809 41.6363 53.3225 41.5705C52.6641 41.4387 51.874 41.5705 51.0181 41.8339ZM38.7719 36.0375C38.7719 36.6962 38.9695 37.2232 39.4303 37.7501C39.8912 38.277 40.4179 38.6064 41.0763 38.6723C41.7347 38.7381 42.459 38.6723 43.3807 38.4746L39.562 34.1273C39.0353 34.7202 38.7719 35.3788 38.7719 36.0375Z" fill="url(#paint11_linear_5_6375)"/>
<path d="M39.1011 44.1393C37.7185 43.7441 36.4017 42.822 35.2166 41.4387C33.7023 39.7261 32.9781 37.816 32.9781 35.774C33.0439 33.7321 33.9656 31.7561 35.875 29.9118L32.7805 26.3549L35.6116 24.313L38.6403 27.7381C40.0887 26.816 41.6689 26.0914 43.3807 25.6303C45.0267 25.1693 46.541 24.9717 47.9237 25.1034L49.7672 30.1094C48.5162 30.0435 47.2653 30.1752 45.9485 30.4387C44.6317 30.7681 43.4466 31.2291 42.3273 31.822L47.0019 37.0914C48.6479 36.4986 50.1622 36.0375 51.479 35.8399C52.7958 35.5764 54.1126 35.7082 55.4952 36.1034C56.8779 36.4986 58.1947 37.4208 59.4456 38.804C60.9599 40.5824 61.75 42.4926 61.6842 44.5345C61.6183 46.6423 60.6966 48.5525 58.7872 50.4627L61.8817 53.9537L59.0506 55.9956L56.0219 52.5705C53.52 54.0854 51.0181 54.81 48.5821 54.81L46.541 49.8699C48.7796 49.7381 50.6889 49.2112 52.3349 48.3549L47.5945 42.9537C45.9485 43.6124 44.5 44.0076 43.249 44.2711C41.8006 44.6004 40.4838 44.5345 39.1011 44.1393ZM51.0181 41.8339L54.9685 46.313C55.4952 45.5884 55.7586 44.9297 55.7586 44.2711C55.7586 43.6124 55.4952 43.0196 55.0343 42.4926C54.5735 41.9657 53.9809 41.6363 53.3225 41.5705C52.6641 41.4387 51.874 41.5705 51.0181 41.8339ZM38.7719 36.0375C38.7719 36.6962 38.9695 37.2232 39.4303 37.7501C39.8912 38.277 40.4179 38.6064 41.0763 38.6723C41.7347 38.7381 42.459 38.6723 43.3807 38.4746L39.562 34.1273C39.0353 34.7202 38.7719 35.3788 38.7719 36.0375Z" stroke="url(#paint12_linear_5_6375)" stroke-width="0.5" stroke-miterlimit="10"/>
<path d="M48.4504 54.8758L46.4752 49.9357L45.5534 51.1214L47.5945 55.9956L48.4504 54.8758Z" fill="url(#paint13_linear_5_6375)"/>
<path d="M54.2443 53.4927C54.1126 53.5585 53.9151 53.6244 53.7834 53.6903C53.6517 53.7561 53.4542 53.822 53.3225 53.8879C53.1908 53.9537 53.0592 54.0196 52.9275 54.0196C52.73 54.0855 52.5983 54.1513 52.4008 54.2172C52.2691 54.2831 52.1374 54.2831 52.0057 54.3489C51.8082 54.4148 51.6765 54.4148 51.479 54.4807C51.3473 54.4807 51.2156 54.5466 51.1498 54.5466C50.9523 54.6124 50.7548 54.6124 50.6231 54.6783C50.4914 54.6783 50.4256 54.7442 50.2939 54.7442C50.0964 54.7442 49.8989 54.81 49.7672 54.81C49.6355 54.81 49.5697 54.81 49.438 54.8759C49.1746 54.8759 48.8454 54.9418 48.5821 54.9418L47.7261 56.0615C47.9895 56.0615 48.2529 56.0615 48.5162 55.9957L48.5821 55.9957C48.7137 55.9957 48.7796 55.9957 48.9113 55.9298C49.0429 55.9298 49.2405 55.9298 49.3721 55.8639L49.438 55.8639C49.5697 55.8639 49.6355 55.798 49.7672 55.798C49.8989 55.798 50.0305 55.7322 50.1622 55.7322C50.2281 55.7322 50.2281 55.7322 50.2939 55.6663C50.4256 55.6663 50.5573 55.6004 50.6231 55.6004C50.7548 55.6004 50.8206 55.5346 50.9523 55.5346C51.0181 55.5346 51.084 55.4687 51.1498 55.4687C51.2815 55.4028 51.4132 55.4028 51.5448 55.337C51.6107 55.337 51.7424 55.2711 51.8082 55.2711C51.874 55.2711 52.0057 55.2052 52.0716 55.2052C52.2032 55.1394 52.3349 55.0735 52.4666 55.0735C52.5324 55.0735 52.5983 55.0076 52.6641 55.0076C52.73 54.9418 52.8616 54.9418 52.9275 54.8759C53.0592 54.81 53.2567 54.7442 53.3884 54.6783C53.4542 54.6783 53.52 54.6124 53.5859 54.6124C53.6517 54.5466 53.7834 54.5466 53.8492 54.4807C54.0468 54.4148 54.1784 54.2831 54.376 54.2172C54.4418 54.1513 54.5076 54.1513 54.5735 54.0855C54.7052 54.0196 54.9027 53.8879 55.0344 53.822L55.8903 52.7022C55.6269 52.834 55.4294 52.9657 55.166 53.0975C54.9685 53.1633 54.8368 53.2951 54.6393 53.3609C54.5076 53.3609 54.376 53.4268 54.2443 53.4927Z" fill="url(#paint14_linear_5_6375)"/>
<path d="M28.3034 54.0198C23.1021 48.0917 20.5344 41.1755 20.5344 34.7204C20.6002 28.2653 23.2996 22.4031 28.5668 18.5168C33.8998 14.6306 40.7471 13.5108 47.6603 14.8941C54.5735 16.2773 61.4866 20.0318 66.688 25.9599C71.8893 31.8881 74.4571 38.8043 74.4571 45.2593C74.3912 51.7144 71.6918 57.5767 66.4246 61.4629C61.0916 65.3492 54.2443 66.4689 47.3311 65.0857C40.3521 63.7683 33.5048 59.948 28.3034 54.0198Z" stroke="url(#paint15_linear_5_6375)" stroke-width="0.5" stroke-miterlimit="10"/>
</g>
<defs>
<filter id="filter0_f_5_6375" x="-7.62939e-06" y="0.0197754" width="89.0011" height="86.0054" filterUnits="userSpaceOnUse" color-interpolation-filters="sRGB">
<feFlood flood-opacity="0" result="BackgroundImageFix"/>
<feBlend mode="normal" in="SourceGraphic" in2="BackgroundImageFix" result="shape"/>
<feGaussianBlur stdDeviation="5" result="effect1_foregroundBlur_5_6375"/>
</filter>
<linearGradient id="paint0_linear_5_6375" x1="63.0298" y1="74.4037" x2="9.38807" y2="33.1723" gradientUnits="userSpaceOnUse">
<stop offset="0.1136" stop-color="#D7AC4C"/>
<stop offset="0.1816" stop-color="#FFFFB0"/>
<stop offset="0.3268" stop-color="#F4D174"/>
<stop offset="0.3659" stop-color="#FBED99"/>
<stop offset="0.3939" stop-color="#FAEC97"/>
<stop offset="0.433" stop-color="#DEB04D"/>
<stop offset="0.5275" stop-color="#DFB24F"/>
<stop offset="0.5615" stop-color="#E2B756"/>
<stop offset="0.5858" stop-color="#E7C161"/>
<stop offset="0.6053" stop-color="#EECF72"/>
<stop offset="0.6207" stop-color="#F6DF86"/>
<stop offset="0.7529" stop-color="#F2D87E"/>
<stop offset="0.7672" stop-color="#F1D77D"/>
<stop offset="0.7716" stop-color="#EBCD71"/>
<stop offset="0.7804" stop-color="#E2BE60"/>
<stop offset="0.7913" stop-color="#DCB455"/>
<stop offset="0.8066" stop-color="#D8AE4E"/>
<stop offset="0.8492" stop-color="#D7AC4C"/>
<stop offset="1" stop-color="#966424"/>
</linearGradient>
<linearGradient id="paint1_linear_5_6375" x1="35.3764" y1="13.8564" x2="68.7826" y2="85.9487" gradientUnits="userSpaceOnUse">
<stop stop-color="#D2AB5A"/>
<stop offset="0.0610851" stop-color="#BA9443"/>
<stop offset="0.1898" stop-color="#7C5808"/>
<stop offset="0.2069" stop-color="#735000"/>
<stop offset="0.2274" stop-color="#775200"/>
<stop offset="0.3376" stop-color="#8A5D00"/>
<stop offset="0.4146" stop-color="#916100"/>
<stop offset="0.4344" stop-color="#976707"/>
<stop offset="0.4986" stop-color="#D8B364"/>
<stop offset="0.5246" stop-color="#D4AE5D"/>
<stop offset="0.5617" stop-color="#CA9F4A"/>
<stop offset="0.6053" stop-color="#B9882C"/>
<stop offset="0.6414" stop-color="#A8700D"/>
<stop offset="0.6805" stop-color="#815400"/>
<stop offset="0.8029" stop-color="#B38116"/>
<stop offset="0.8267" stop-color="#A27114"/>
<stop offset="0.8802" stop-color="#815110"/>
<stop offset="0.9247" stop-color="#6C3D0E"/>
<stop offset="0.9545" stop-color="#65360D"/>
<stop offset="0.9581" stop-color="#6F3F0D"/>
<stop offset="0.9701" stop-color="#8A580C"/>
<stop offset="0.9807" stop-color="#9B670C"/>
<stop offset="0.9886" stop-color="#A16C0C"/>
</linearGradient>
<linearGradient id="paint2_linear_5_6375" x1="28.2877" y1="-6.02428" x2="66.2331" y2="84.8908" gradientUnits="userSpaceOnUse">
<stop stop-color="#D2AB5A"/>
<stop offset="0.0610851" stop-color="#BA9443"/>
<stop offset="0.1898" stop-color="#7C5808"/>
<stop offset="0.2069" stop-color="#735000"/>
<stop offset="0.2274" stop-color="#775200"/>
<stop offset="0.3376" stop-color="#8A5D00"/>
<stop offset="0.4146" stop-color="#916100"/>
<stop offset="0.4344" stop-color="#976707"/>
<stop offset="0.4986" stop-color="#D8B364"/>
<stop offset="0.5246" stop-color="#D4AE5D"/>
<stop offset="0.5617" stop-color="#CA9F4A"/>
<stop offset="0.6053" stop-color="#B9882C"/>
<stop offset="0.6414" stop-color="#A8700D"/>
<stop offset="0.6805" stop-color="#815400"/>
<stop offset="0.8029" stop-color="#B38116"/>
<stop offset="0.8267" stop-color="#A27114"/>
<stop offset="0.8802" stop-color="#815110"/>
<stop offset="0.9247" stop-color="#6C3D0E"/>
<stop offset="0.9545" stop-color="#65360D"/>
<stop offset="0.9581" stop-color="#6F3F0D"/>
<stop offset="0.9701" stop-color="#8A580C"/>
<stop offset="0.9807" stop-color="#9B670C"/>
<stop offset="0.9886" stop-color="#A16C0C"/>
</linearGradient>
<linearGradient id="paint3_linear_5_6375" x1="20.2214" y1="15.1334" x2="40.8017" y2="28.4636" gradientUnits="userSpaceOnUse">
<stop stop-color="#A16C0C"/>
<stop offset="0.2318" stop-color="#BE9134"/>
<stop offset="0.5559" stop-color="#A8700D"/>
<stop offset="1" stop-color="#432400"/>
</linearGradient>
<linearGradient id="paint4_linear_5_6375" x1="24.1011" y1="19.3986" x2="33.9812" y2="28.7806" gradientUnits="userSpaceOnUse">
<stop stop-color="#A16C0C"/>
<stop offset="0.2318" stop-color="#BE9134"/>
<stop offset="0.5559" stop-color="#A8700D"/>
<stop offset="1" stop-color="#432400"/>
</linearGradient>
<linearGradient id="paint5_linear_5_6375" x1="-5.36415" y1="8.24821" x2="71.0616" y2="41.94" gradientUnits="userSpaceOnUse">
<stop stop-color="#A16C0C"/>
<stop offset="0.2318" stop-color="#BE9134"/>
<stop offset="0.5559" stop-color="#A8700D"/>
<stop offset="1" stop-color="#432400"/>
</linearGradient>
<linearGradient id="paint6_linear_5_6375" x1="29.8903" y1="35.1668" x2="55.3238" y2="45.0397" gradientUnits="userSpaceOnUse">
<stop stop-color="#A16C0C"/>
<stop offset="0.2318" stop-color="#BE9134"/>
<stop offset="0.5559" stop-color="#A8700D"/>
<stop offset="1" stop-color="#432400"/>
</linearGradient>
<linearGradient id="paint7_linear_5_6375" x1="30.1825" y1="27.6785" x2="40.5559" y2="36.4015" gradientUnits="userSpaceOnUse">
<stop stop-color="#A16C0C"/>
<stop offset="0.2318" stop-color="#BE9134"/>
<stop offset="0.4314" stop-color="#A8700D"/>
<stop offset="1" stop-color="#432400"/>
</linearGradient>
<linearGradient id="paint8_linear_5_6375" x1="41.9704" y1="38.6207" x2="52.358" y2="49.3556" gradientUnits="userSpaceOnUse">
<stop stop-color="#A16C0C"/>
<stop offset="0.2318" stop-color="#BE9134"/>
<stop offset="0.5559" stop-color="#A8700D"/>
<stop offset="1" stop-color="#432400"/>
</linearGradient>
<linearGradient id="paint9_linear_5_6375" x1="31.254" y1="45.6375" x2="55.9463" y2="54.5229" gradientUnits="userSpaceOnUse">
<stop stop-color="#A16C0C"/>
<stop offset="0.2318" stop-color="#BE9134"/>
<stop offset="0.5559" stop-color="#A8700D"/>
<stop offset="1" stop-color="#432400"/>
</linearGradient>
<linearGradient id="paint10_linear_5_6375" x1="22.0832" y1="29.131" x2="39.3704" y2="40.1571" gradientUnits="userSpaceOnUse">
<stop stop-color="#A16C0C"/>
<stop offset="0.2318" stop-color="#BE9134"/>
<stop offset="0.5559" stop-color="#A8700D"/>
<stop offset="1" stop-color="#432400"/>
</linearGradient>
<linearGradient id="paint11_linear_5_6375" x1="71.6669" y1="84.5293" x2="30.6429" y2="9.93762" gradientUnits="userSpaceOnUse">
<stop stop-color="#D2AB5A"/>
<stop offset="0.0610851" stop-color="#BA9443"/>
<stop offset="0.1898" stop-color="#7C5808"/>
<stop offset="0.2069" stop-color="#735000"/>
<stop offset="0.2274" stop-color="#775200"/>
<stop offset="0.3376" stop-color="#8A5D00"/>
<stop offset="0.4146" stop-color="#916100"/>
<stop offset="0.4344" stop-color="#976707"/>
<stop offset="0.4986" stop-color="#D8B364"/>
<stop offset="0.5246" stop-color="#D4AE5D"/>
<stop offset="0.5617" stop-color="#CA9F4A"/>
<stop offset="0.6053" stop-color="#B9882C"/>
<stop offset="0.6414" stop-color="#A8700D"/>
<stop offset="0.6805" stop-color="#815400"/>
<stop offset="0.8029" stop-color="#B38116"/>
<stop offset="0.8267" stop-color="#A27114"/>
<stop offset="0.8802" stop-color="#815110"/>
<stop offset="0.9247" stop-color="#6C3D0E"/>
<stop offset="0.9545" stop-color="#65360D"/>
<stop offset="0.9581" stop-color="#6F3F0D"/>
<stop offset="0.9701" stop-color="#8A580C"/>
<stop offset="0.9807" stop-color="#9B670C"/>
<stop offset="0.9886" stop-color="#A16C0C"/>
</linearGradient>
<linearGradient id="paint12_linear_5_6375" x1="61.9984" y1="40.1822" x2="32.5218" y2="40.1822" gradientUnits="userSpaceOnUse">
<stop stop-color="#D2AB5A"/>
<stop offset="0.0610851" stop-color="#BA9443"/>
<stop offset="0.1898" stop-color="#7C5808"/>
<stop offset="0.2069" stop-color="#735000"/>
<stop offset="0.2274" stop-color="#775200"/>
<stop offset="0.3376" stop-color="#8A5D00"/>
<stop offset="0.4146" stop-color="#916100"/>
<stop offset="0.4344" stop-color="#976707"/>
<stop offset="0.4986" stop-color="#D8B364"/>
<stop offset="0.5246" stop-color="#D4AE5D"/>
<stop offset="0.5617" stop-color="#CA9F4A"/>
<stop offset="0.6053" stop-color="#B9882C"/>
<stop offset="0.6414" stop-color="#A8700D"/>
<stop offset="0.6805" stop-color="#815400"/>
<stop offset="0.8029" stop-color="#B38116"/>
<stop offset="0.8267" stop-color="#A27114"/>
<stop offset="0.8802" stop-color="#815110"/>
<stop offset="0.9247" stop-color="#6C3D0E"/>
<stop offset="0.9545" stop-color="#65360D"/>
<stop offset="0.9581" stop-color="#6F3F0D"/>
<stop offset="0.9701" stop-color="#8A580C"/>
<stop offset="0.9807" stop-color="#9B670C"/>
<stop offset="0.9886" stop-color="#A16C0C"/>
</linearGradient>
<linearGradient id="paint13_linear_5_6375" x1="20.6431" y1="39.1057" x2="46.696" y2="52.8054" gradientUnits="userSpaceOnUse">
<stop stop-color="#A16C0C"/>
<stop offset="0.2318" stop-color="#BE9134"/>
<stop offset="0.5559" stop-color="#A8700D"/>
<stop offset="1" stop-color="#432400"/>
</linearGradient>
<linearGradient id="paint14_linear_5_6375" x1="30.8408" y1="46.7855" x2="55.5332" y2="55.6709" gradientUnits="userSpaceOnUse">
<stop stop-color="#A16C0C"/>
<stop offset="0.2318" stop-color="#BE9134"/>
<stop offset="0.5559" stop-color="#A8700D"/>
<stop offset="1" stop-color="#432400"/>
</linearGradient>
<linearGradient id="paint15_linear_5_6375" x1="36.7827" y1="14.3472" x2="58.2077" y2="65.6803" gradientUnits="userSpaceOnUse">
<stop stop-color="#D2AB5A"/>
<stop offset="0.0610851" stop-color="#BA9443"/>
<stop offset="0.1898" stop-color="#7C5808"/>
<stop offset="0.2069" stop-color="#735000"/>
<stop offset="0.2274" stop-color="#775200"/>
<stop offset="0.3376" stop-color="#8A5D00"/>
<stop offset="0.4146" stop-color="#916100"/>
<stop offset="0.4344" stop-color="#976707"/>
<stop offset="0.4986" stop-color="#D8B364"/>
<stop offset="0.5246" stop-color="#D4AE5D"/>
<stop offset="0.5617" stop-color="#CA9F4A"/>
<stop offset="0.6053" stop-color="#B9882C"/>
<stop offset="0.6414" stop-color="#A8700D"/>
<stop offset="0.6805" stop-color="#815400"/>
<stop offset="0.8029" stop-color="#B38116"/>
<stop offset="0.8267" stop-color="#A27114"/>
<stop offset="0.8802" stop-color="#815110"/>
<stop offset="0.9247" stop-color="#6C3D0E"/>
<stop offset="0.9545" stop-color="#65360D"/>
<stop offset="0.9581" stop-color="#6F3F0D"/>
<stop offset="0.9701" stop-color="#8A580C"/>
<stop offset="0.9807" stop-color="#9B670C"/>
<stop offset="0.9886" stop-color="#A16C0C"/>
</linearGradient>
</defs>
</svg>
