<svg width="93" height="90" viewBox="0 0 93 90" fill="none" xmlns="http://www.w3.org/2000/svg">
<g opacity="0.4" filter="url(#filter0_f_5_5725)">
<path d="M74.3304 57.7728C71.1478 63.2357 65.4609 67.0857 57.8957 68.1783C50.3304 69.2188 42.4 67.2418 35.6696 63.2357C28.9391 59.1775 23.4087 53.0903 20.6435 45.8585C17.9304 38.6266 18.5043 31.6549 21.687 26.192C24.8696 20.7812 30.5565 16.8791 38.1217 15.7865C45.687 14.694 53.6174 16.723 60.3478 20.7292C67.0783 24.7873 72.6087 30.8745 75.3739 38.1064C78.087 45.3902 77.4609 52.3099 74.3304 57.7728Z" fill="url(#paint0_linear_5_5725)"/>
<path d="M74.3304 57.7727L73.4957 59.0734C76.6783 53.6105 77.2522 46.6908 74.5391 39.407C71.8261 32.1752 66.2957 26.0359 59.513 22.0298C52.7826 17.9716 44.8522 15.9946 37.287 17.0872C30.087 18.0757 24.5043 21.6656 21.2696 26.7123L22.1043 25.4116C25.3391 20.3649 30.8696 16.775 38.1217 15.7865C45.687 14.7459 53.6174 16.723 60.3478 20.7291C67.0783 24.7873 72.6087 30.8745 75.3739 38.1063C78.087 45.3902 77.513 52.3098 74.3304 57.7727Z" fill="url(#paint1_linear_5_5725)"/>
<path d="M73.8609 58.5011L73.0261 59.8018C73.1826 59.5416 73.3391 59.3335 73.4957 59.0734L74.3304 57.7727C74.1739 58.0328 74.0174 58.241 73.8609 58.5011Z" fill="url(#paint2_linear_5_5725)"/>
<path d="M78.2435 61.3106L74.3304 67.3979C70.5217 73.277 64.0522 77.4912 55.6 78.6878C46.7826 79.9365 37.4435 77.5953 29.5652 72.9128C21.687 68.1783 15.2174 60.9985 12.0348 52.57C8.85217 44.0895 9.53043 35.9212 13.2348 29.5738C13.3913 29.2617 16.6783 24.215 16.8348 23.9549L17.6696 22.6542C17.513 22.9143 17.3043 23.2265 17.1478 23.5386C13.4435 29.886 12.7652 38.0543 15.9478 46.5348C19.1304 54.9633 25.6 62.1431 33.4783 66.8776C41.3565 71.6121 50.6435 73.9013 59.5131 72.6526C67.9652 71.404 74.487 67.2418 78.2435 61.3106Z" fill="url(#paint3_linear_5_5725)"/>
<path d="M80.0174 37.482C76.8348 29.0535 70.3652 21.8737 62.487 17.1392C54.5565 12.4047 45.2696 10.1155 36.4 11.3121C27.5826 12.5608 20.8522 17.1392 17.1478 23.4865C13.4435 29.8339 12.7652 38.0022 15.9478 46.4827C19.1304 54.9112 25.6 62.091 33.4783 66.8255C41.3565 71.56 50.6435 73.8492 59.5131 72.6005C68.3304 71.3519 75.0609 66.8255 78.7652 60.4781C82.4696 54.1308 83.2 45.9104 80.0174 37.482ZM74.3304 57.7727C71.1478 63.2356 65.4609 67.0856 57.8957 68.1782C50.3304 69.2188 42.4 67.2417 35.6696 63.2356C28.9391 59.1774 23.4087 53.0902 20.6435 45.8584C17.9304 38.6266 18.5043 31.6549 21.687 26.192C24.8696 20.7811 30.5565 16.879 38.1217 15.7865C45.687 14.6939 53.6174 16.723 60.3478 20.7291C67.0783 24.7872 72.6087 30.8745 75.3739 38.1063C78.087 45.3901 77.4609 52.3098 74.3304 57.7727Z" fill="url(#paint4_linear_5_5725)"/>
<path d="M74.3304 57.7728C71.1478 63.2357 65.4609 67.0857 57.8957 68.1783C50.3304 69.2188 42.4 67.2418 35.6696 63.2357C28.9391 59.1775 23.4087 53.0903 20.6435 45.8585C17.9304 38.6266 18.5043 31.6549 21.687 26.192C24.8696 20.7812 30.5565 16.8791 38.1217 15.7865C45.687 14.694 53.6174 16.723 60.3478 20.7292C67.0783 24.7873 72.6087 30.8745 75.3739 38.1064C78.087 45.3902 77.4609 52.3099 74.3304 57.7728Z" stroke="url(#paint5_linear_5_5725)" stroke-miterlimit="10"/>
<path d="M41.0435 28.3771L40.2087 29.6778L38.5913 25.4116L39.4261 24.0588L41.0435 28.3771Z" fill="url(#paint6_linear_5_5725)"/>
<path d="M53.9304 33.9441L53.0957 35.2448C50.6435 34.4124 48.3478 34.0482 46.1565 34.1002L46.9913 32.7995C49.1826 32.7475 51.4783 33.1117 53.9304 33.9441Z" fill="url(#paint7_linear_5_5725)"/>
<path d="M42.9739 33.4758L42.1391 34.7765C41.3043 35.1407 40.7304 35.5569 40.3652 36.0252L41.2 34.7245C41.5652 34.2562 42.1391 33.84 42.9739 33.4758Z" fill="url(#paint8_linear_5_5725)"/>
<path d="M45.0609 38.9387L44.2261 40.2914L42.1391 34.7765L42.9739 33.4758L45.0609 38.9387Z" fill="url(#paint9_linear_5_5725)"/>
<path d="M55.3913 49.0321L54.5565 50.3328C54.8696 49.8125 54.9217 49.2402 54.6609 48.5639C54.4 47.9395 53.9826 47.4193 53.3043 47.1071C52.6783 46.7429 51.7913 46.5348 50.7478 46.3267L51.5826 45.026C52.6261 45.1821 53.513 45.4422 54.1391 45.8064C54.8174 46.1706 55.2348 46.6389 55.4957 47.2632C55.7565 47.9395 55.7043 48.5118 55.3913 49.0321Z" fill="url(#paint10_linear_5_5725)"/>
<path d="M55.3913 49.0321L54.5565 50.3328C54.8696 49.8125 54.9217 49.2402 54.6609 48.5639C54.4 47.9395 53.9826 47.4193 53.3043 47.1071C52.6783 46.7429 51.7913 46.5348 50.7478 46.3267L51.5826 45.026C52.6261 45.1821 53.513 45.4422 54.1391 45.8064C54.8174 46.1706 55.2348 46.6389 55.4957 47.2632C55.7565 47.9395 55.7043 48.5118 55.3913 49.0321Z" fill="url(#paint11_linear_5_5725)"/>
<path d="M55.3391 49.1362L54.5043 50.4369L54.5565 50.3328L55.3913 49.0321L55.3391 49.1362Z" fill="url(#paint12_linear_5_5725)"/>
<path d="M47.2 44.6097L46.3652 45.9104C44.2783 45.7543 42.5043 45.4942 40.9913 45.13C39.4783 44.7658 38.0696 44.1415 36.7652 43.205C35.4609 42.2685 34.5217 40.9678 33.8957 39.2509C33.113 37.1178 33.2174 35.1927 34.2609 33.4238C34.313 33.3718 34.313 33.3198 34.3652 33.2677L35.2 31.967C35.1478 32.0191 35.1478 32.0711 35.0957 32.1231C34.0522 33.8921 33.9478 35.8171 34.7304 37.9502C35.3565 39.6671 36.3478 40.9678 37.6 41.9043C38.9043 42.8408 40.2609 43.4651 41.8261 43.8293C43.3391 44.1935 45.113 44.4537 47.2 44.6097Z" fill="url(#paint13_linear_5_5725)"/>
<path d="M49.6522 51.0612L48.8174 52.3618L46.3652 45.9625L47.2 44.6097L49.6522 51.0612Z" fill="url(#paint14_linear_5_5725)"/>
<path d="M61.3391 51.7896L60.5044 53.1423C59.4609 54.8071 57.4783 56.0038 54.6609 56.7842L55.4957 55.4835C58.3652 54.7031 60.2957 53.4544 61.3391 51.7896Z" fill="url(#paint15_linear_5_5725)"/>
<path d="M53.1478 60.322L52.2609 61.6227L50.6957 57.4605L51.5304 56.1078L53.1478 60.322Z" fill="url(#paint16_linear_5_5725)"/>
<path d="M57.1652 59.7498L56.3304 61.1025L52.2609 61.6228L53.1478 60.3221L57.1652 59.7498Z" fill="url(#paint17_linear_5_5725)"/>
<path d="M51.5304 56.1078L50.6957 57.4606C48.6609 57.6167 46.6261 57.5646 44.6435 57.2525C42.6087 56.9403 40.9391 56.472 39.5304 55.7957L40.3652 54.495C41.7739 55.1714 43.4957 55.6396 45.4783 55.9518C47.513 56.2119 49.4957 56.316 51.5304 56.1078Z" fill="url(#paint18_linear_5_5725)"/>
<path d="M58.9391 42.0084C60.2435 42.9448 61.1826 44.2455 61.8087 45.9104C62.5913 48.0435 62.487 49.9165 61.4435 51.6855C60.4 53.4024 58.4174 54.651 55.5478 55.4835L57.1652 59.8018L53.1478 60.3741L51.5826 56.1598C49.5478 56.3159 47.513 56.2639 45.5304 55.9517C43.4957 55.6396 41.8261 55.1713 40.4174 54.495L40.8348 49.5003C42.1391 50.0726 43.5478 50.4888 45.113 50.801C46.6783 51.1132 48.1913 51.2172 49.7043 51.1132L47.2522 44.6618C45.1652 44.5057 43.3913 44.2455 41.8783 43.8813C40.3652 43.5171 38.9565 42.8928 37.6522 41.9563C36.3478 41.0198 35.4087 39.7191 34.7826 38.0022C34 35.8691 34.1043 33.9441 35.1478 32.1751C36.1913 30.4062 38.1739 29.1575 41.1478 28.3771L39.5304 24.1109L43.5478 23.5386L45.113 27.7528C48.5043 27.5447 51.5304 27.9609 54.1913 28.9494L53.9826 33.9961C51.5304 33.1637 49.2348 32.7995 47.0435 32.8515L49.4956 39.407C51.5304 39.5631 53.3043 39.8232 54.8174 40.1354C56.2783 40.4475 57.687 41.0719 58.9391 42.0084ZM45.0609 38.9387L42.9739 33.4758C42.0348 33.84 41.4087 34.3083 41.1478 34.8806C40.8348 35.4529 40.8348 36.0772 41.0957 36.7536C41.3565 37.3779 41.7739 37.8982 42.4522 38.2103C43.1304 38.5745 43.9652 38.8347 45.0609 38.9387ZM55.3913 49.0321C55.7043 48.5118 55.7565 47.9395 55.4956 47.2631C55.2348 46.6388 54.8174 46.1185 54.1391 45.8064C53.513 45.4422 52.6261 45.2341 51.5826 45.0259L53.5652 50.3328C54.5043 50.0206 55.0783 49.5523 55.3913 49.0321Z" fill="url(#paint19_linear_5_5725)"/>
<path d="M40.3652 54.443L39.4783 55.7437L39.9478 50.7491L40.7826 49.4484L40.3652 54.443Z" fill="url(#paint20_linear_5_5725)"/>
<path d="M58.9391 42.0084C60.2435 42.9448 61.1826 44.2455 61.8087 45.9104C62.5913 48.0435 62.487 49.9165 61.4435 51.6855C60.4 53.4024 58.4174 54.651 55.5478 55.4835L57.1652 59.8018L53.1478 60.3741L51.5826 56.1598C49.5478 56.3159 47.513 56.2639 45.5304 55.9517C43.4957 55.6396 41.8261 55.1713 40.4174 54.495L40.8348 49.5003C42.1391 50.0726 43.5478 50.4888 45.113 50.801C46.6783 51.1132 48.1913 51.2172 49.7043 51.1132L47.2522 44.6618C45.1652 44.5057 43.3913 44.2455 41.8783 43.8813C40.3652 43.5171 38.9565 42.8928 37.6522 41.9563C36.3478 41.0198 35.4087 39.7191 34.7826 38.0022C34 35.8691 34.1043 33.9441 35.1478 32.1751C36.1913 30.4062 38.1739 29.1575 41.1478 28.3771L39.5304 24.1109L43.5478 23.5386L45.113 27.7528C48.5043 27.5447 51.5304 27.9609 54.1913 28.9494L53.9826 33.9961C51.5304 33.1637 49.2348 32.7995 47.0435 32.8515L49.4956 39.407C51.5304 39.5631 53.3043 39.8232 54.8174 40.1354C56.2783 40.4475 57.687 41.0719 58.9391 42.0084ZM45.0609 38.9387L42.9739 33.4758C42.0348 33.84 41.4087 34.3083 41.1478 34.8806C40.8348 35.4529 40.8348 36.0772 41.0957 36.7536C41.3565 37.3779 41.7739 37.8982 42.4522 38.2103C43.1304 38.5745 43.9652 38.8347 45.0609 38.9387ZM55.3913 49.0321C55.7043 48.5118 55.7565 47.9395 55.4956 47.2631C55.2348 46.6388 54.8174 46.1185 54.1391 45.8064C53.513 45.4422 52.6261 45.2341 51.5826 45.026L53.5652 50.3328C54.5043 50.0206 55.0783 49.5523 55.3913 49.0321Z" stroke="url(#paint21_linear_5_5725)" stroke-width="0.5" stroke-miterlimit="10"/>
</g>
<defs>
<filter id="filter0_f_5_5725" x="0" y="0.998535" width="92.0271" height="88.022" filterUnits="userSpaceOnUse" color-interpolation-filters="sRGB">
<feFlood flood-opacity="0" result="BackgroundImageFix"/>
<feBlend mode="normal" in="SourceGraphic" in2="BackgroundImageFix" result="shape"/>
<feGaussianBlur stdDeviation="5" result="effect1_foregroundBlur_5_5725"/>
</filter>
<linearGradient id="paint0_linear_5_5725" x1="82.555" y1="76.4416" x2="15.0776" y2="8.7744" gradientUnits="userSpaceOnUse">
<stop stop-color="#D7AC4C"/>
<stop offset="0.1816" stop-color="#FFFFB0"/>
<stop offset="0.3268" stop-color="#F4D174"/>
<stop offset="0.3659" stop-color="#FBED99"/>
<stop offset="0.3939" stop-color="#FAEC97"/>
<stop offset="0.433" stop-color="#DEB04D"/>
<stop offset="0.5275" stop-color="#DFB24F"/>
<stop offset="0.5615" stop-color="#E2B756"/>
<stop offset="0.5858" stop-color="#E7C161"/>
<stop offset="0.6053" stop-color="#EECF72"/>
<stop offset="0.6207" stop-color="#F6DF86"/>
<stop offset="0.7529" stop-color="#F2D87E"/>
<stop offset="0.7672" stop-color="#F1D77D"/>
<stop offset="0.7716" stop-color="#EBCD71"/>
<stop offset="0.7804" stop-color="#E2BE60"/>
<stop offset="0.7913" stop-color="#DCB455"/>
<stop offset="0.8066" stop-color="#D8AE4E"/>
<stop offset="0.8492" stop-color="#D7AC4C"/>
<stop offset="1" stop-color="#966424"/>
</linearGradient>
<linearGradient id="paint1_linear_5_5725" x1="80.1808" y1="47.188" x2="27.9125" y2="18.2861" gradientUnits="userSpaceOnUse">
<stop stop-color="#A16C0C"/>
<stop offset="0.2318" stop-color="#DFC072"/>
<stop offset="0.5559" stop-color="#A8700D"/>
<stop offset="0.7458" stop-color="#FADB85"/>
<stop offset="0.802" stop-color="#A16C0C"/>
<stop offset="0.9335" stop-color="#6C4405"/>
</linearGradient>
<linearGradient id="paint2_linear_5_5725" x1="73.0321" y1="58.7939" x2="74.3229" y2="58.7939" gradientUnits="userSpaceOnUse">
<stop stop-color="#A16C0C"/>
<stop offset="0.1816" stop-color="#C9BF70"/>
<stop offset="0.3268" stop-color="#BE9134"/>
<stop offset="0.433" stop-color="#A8700D"/>
<stop offset="0.7067" stop-color="#C09F46"/>
<stop offset="0.8492" stop-color="#A16C0C"/>
<stop offset="1" stop-color="#602400"/>
</linearGradient>
<linearGradient id="paint3_linear_5_5725" x1="-5.50379" y1="23.3352" x2="69.0864" y2="78.7498" gradientUnits="userSpaceOnUse">
<stop stop-color="#B39200"/>
<stop offset="0.0568408" stop-color="#AD8C01"/>
<stop offset="0.1314" stop-color="#9D7C04"/>
<stop offset="0.2156" stop-color="#836108"/>
<stop offset="0.2585" stop-color="#73500B"/>
<stop offset="0.2799" stop-color="#795311"/>
<stop offset="0.3592" stop-color="#8B5D24"/>
<stop offset="0.4146" stop-color="#91612B"/>
<stop offset="0.4344" stop-color="#976707"/>
<stop offset="0.5299" stop-color="#D8B364"/>
<stop offset="0.5502" stop-color="#D4AE5D"/>
<stop offset="0.5792" stop-color="#CA9F4A"/>
<stop offset="0.6132" stop-color="#B9882C"/>
<stop offset="0.6414" stop-color="#A8700D"/>
<stop offset="0.6805" stop-color="#815400"/>
<stop offset="0.8029" stop-color="#B38136"/>
<stop offset="0.8189" stop-color="#A2712D"/>
<stop offset="0.8549" stop-color="#81511C"/>
<stop offset="0.8849" stop-color="#6C3D11"/>
<stop offset="0.9049" stop-color="#65360D"/>
<stop offset="0.9126" stop-color="#6F3F0D"/>
<stop offset="0.938" stop-color="#8A580C"/>
<stop offset="0.9603" stop-color="#9B670C"/>
<stop offset="0.9772" stop-color="#A16C0C"/>
<stop offset="1" stop-color="#B9924B"/>
</linearGradient>
<linearGradient id="paint4_linear_5_5725" x1="84.3038" y1="71.8565" x2="3.87863" y2="5.29943" gradientUnits="userSpaceOnUse">
<stop stop-color="#D7AC4C"/>
<stop offset="0.1816" stop-color="#FFFFB0"/>
<stop offset="0.3268" stop-color="#F4D174"/>
<stop offset="0.3659" stop-color="#FBED99"/>
<stop offset="0.3939" stop-color="#FAEC97"/>
<stop offset="0.433" stop-color="#DEB04D"/>
<stop offset="0.5275" stop-color="#DFB24F"/>
<stop offset="0.5615" stop-color="#E2B756"/>
<stop offset="0.5858" stop-color="#E7C161"/>
<stop offset="0.6053" stop-color="#EECF72"/>
<stop offset="0.6207" stop-color="#F6DF86"/>
<stop offset="0.7529" stop-color="#F2D87E"/>
<stop offset="0.7672" stop-color="#F1D77D"/>
<stop offset="0.7716" stop-color="#EBCD71"/>
<stop offset="0.7804" stop-color="#E2BE60"/>
<stop offset="0.7913" stop-color="#DCB455"/>
<stop offset="0.8066" stop-color="#D8AE4E"/>
<stop offset="0.8492" stop-color="#D7AC4C"/>
<stop offset="1" stop-color="#966424"/>
</linearGradient>
<linearGradient id="paint5_linear_5_5725" x1="25.0176" y1="21.3942" x2="70.8301" y2="62.6636" gradientUnits="userSpaceOnUse">
<stop stop-color="#D7AC4C"/>
<stop offset="0.1816" stop-color="#FFFFB0"/>
<stop offset="0.3268" stop-color="#F4D174"/>
<stop offset="0.433" stop-color="#DEB04D"/>
<stop offset="0.7067" stop-color="#F6DF86"/>
<stop offset="0.8492" stop-color="#D7AC4C"/>
<stop offset="1" stop-color="#966424"/>
</linearGradient>
<linearGradient id="paint6_linear_5_5725" x1="37.5936" y1="24.155" x2="41.4448" y2="28.8481" gradientUnits="userSpaceOnUse">
<stop stop-color="#A16C0C"/>
<stop offset="0.2318" stop-color="#BE9134"/>
<stop offset="0.5559" stop-color="#A8700D"/>
<stop offset="1" stop-color="#432400"/>
</linearGradient>
<linearGradient id="paint7_linear_5_5725" x1="53.627" y1="34.7488" x2="46.9766" y2="33.2776" gradientUnits="userSpaceOnUse">
<stop stop-color="#A16C0C"/>
<stop offset="0.2318" stop-color="#BE9134"/>
<stop offset="0.5559" stop-color="#A8700D"/>
<stop offset="1" stop-color="#432400"/>
</linearGradient>
<linearGradient id="paint8_linear_5_5725" x1="39.1404" y1="35.9049" x2="43.0987" y2="34.1408" gradientUnits="userSpaceOnUse">
<stop stop-color="#A16C0C"/>
<stop offset="0.2318" stop-color="#BE9134"/>
<stop offset="0.5559" stop-color="#A8700D"/>
<stop offset="1" stop-color="#432400"/>
</linearGradient>
<linearGradient id="paint9_linear_5_5725" x1="45.4536" y1="38.5776" x2="41.5995" y2="35.0061" gradientUnits="userSpaceOnUse">
<stop stop-color="#A16C0C"/>
<stop offset="0.2318" stop-color="#BE9134"/>
<stop offset="0.5559" stop-color="#A8700D"/>
<stop offset="1" stop-color="#432400"/>
</linearGradient>
<linearGradient id="paint10_linear_5_5725" x1="50.7546" y1="47.6939" x2="55.6668" y2="47.6939" gradientUnits="userSpaceOnUse">
<stop stop-color="#A16C0C"/>
<stop offset="0.2318" stop-color="#BE9134"/>
<stop offset="0.5559" stop-color="#A8700D"/>
<stop offset="1" stop-color="#432400"/>
</linearGradient>
<linearGradient id="paint11_linear_5_5725" x1="58.9778" y1="50.8106" x2="50.3329" y2="45.6679" gradientUnits="userSpaceOnUse">
<stop stop-color="#A16C0C"/>
<stop offset="0.2318" stop-color="#BE9134"/>
<stop offset="0.5559" stop-color="#A8700D"/>
<stop offset="1" stop-color="#432400"/>
</linearGradient>
<linearGradient id="paint12_linear_5_5725" x1="54.5135" y1="49.7408" x2="55.4052" y2="49.7408" gradientUnits="userSpaceOnUse">
<stop stop-color="#A16C0C"/>
<stop offset="0.1816" stop-color="#DBBF7D"/>
<stop offset="0.3268" stop-color="#BE9134"/>
<stop offset="0.433" stop-color="#A8700D"/>
<stop offset="0.7067" stop-color="#D9AA59"/>
<stop offset="0.8492" stop-color="#A16C0C"/>
<stop offset="1" stop-color="#602400"/>
</linearGradient>
<linearGradient id="paint13_linear_5_5725" x1="33.3545" y1="38.9556" x2="47.2054" y2="38.9556" gradientUnits="userSpaceOnUse">
<stop stop-color="#A16C0C"/>
<stop offset="0.2318" stop-color="#BE9134"/>
<stop offset="0.5559" stop-color="#A8700D"/>
<stop offset="1" stop-color="#432400"/>
</linearGradient>
<linearGradient id="paint14_linear_5_5725" x1="52.0605" y1="52.2132" x2="44.0593" y2="44.8744" gradientUnits="userSpaceOnUse">
<stop stop-color="#A16C0C"/>
<stop offset="0.2318" stop-color="#BE9134"/>
<stop offset="0.5559" stop-color="#A8700D"/>
<stop offset="1" stop-color="#432400"/>
</linearGradient>
<linearGradient id="paint15_linear_5_5725" x1="63.6091" y1="54.0866" x2="53.9243" y2="54.4299" gradientUnits="userSpaceOnUse">
<stop stop-color="#A16C0C"/>
<stop offset="0.2318" stop-color="#BE9134"/>
<stop offset="0.5559" stop-color="#A8700D"/>
<stop offset="1" stop-color="#432400"/>
</linearGradient>
<linearGradient id="paint16_linear_5_5725" x1="55.2795" y1="61.395" x2="48.6896" y2="56.4508" gradientUnits="userSpaceOnUse">
<stop stop-color="#A16C0C"/>
<stop offset="0.2318" stop-color="#BE9134"/>
<stop offset="0.5559" stop-color="#A8700D"/>
<stop offset="1" stop-color="#432400"/>
</linearGradient>
<linearGradient id="paint17_linear_5_5725" x1="54.5986" y1="58.8973" x2="54.7932" y2="61.7751" gradientUnits="userSpaceOnUse">
<stop stop-color="#A16C0C"/>
<stop offset="0.2318" stop-color="#BE9134"/>
<stop offset="0.5559" stop-color="#A8700D"/>
<stop offset="1" stop-color="#432400"/>
</linearGradient>
<linearGradient id="paint18_linear_5_5725" x1="39.4994" y1="55.9889" x2="51.5425" y2="55.9889" gradientUnits="userSpaceOnUse">
<stop stop-color="#A16C0C"/>
<stop offset="0.2318" stop-color="#BE9134"/>
<stop offset="0.5559" stop-color="#A8700D"/>
<stop offset="1" stop-color="#432400"/>
</linearGradient>
<linearGradient id="paint19_linear_5_5725" x1="60.2897" y1="55.1435" x2="26.2151" y2="19.7993" gradientUnits="userSpaceOnUse">
<stop stop-color="#D7AC4C"/>
<stop offset="0.1816" stop-color="#FFFFB0"/>
<stop offset="0.3268" stop-color="#F4D174"/>
<stop offset="0.3659" stop-color="#FBED99"/>
<stop offset="0.3939" stop-color="#FAEC97"/>
<stop offset="0.433" stop-color="#DEB04D"/>
<stop offset="0.5275" stop-color="#DFB24F"/>
<stop offset="0.5615" stop-color="#E2B756"/>
<stop offset="0.5858" stop-color="#E7C161"/>
<stop offset="0.6053" stop-color="#EECF72"/>
<stop offset="0.6207" stop-color="#F6DF86"/>
<stop offset="0.7529" stop-color="#F2D87E"/>
<stop offset="0.7672" stop-color="#F1D77D"/>
<stop offset="0.7716" stop-color="#EBCD71"/>
<stop offset="0.7804" stop-color="#E2BE60"/>
<stop offset="0.7913" stop-color="#DCB455"/>
<stop offset="0.8066" stop-color="#D8AE4E"/>
<stop offset="0.8492" stop-color="#D7AC4C"/>
<stop offset="1" stop-color="#966424"/>
</linearGradient>
<linearGradient id="paint20_linear_5_5725" x1="44.1255" y1="59.965" x2="36.723" y2="46.1928" gradientUnits="userSpaceOnUse">
<stop stop-color="#A16C0C"/>
<stop offset="0.2318" stop-color="#BE9134"/>
<stop offset="0.5559" stop-color="#A8700D"/>
<stop offset="1" stop-color="#432400"/>
</linearGradient>
<linearGradient id="paint21_linear_5_5725" x1="33.9979" y1="29.8181" x2="61.8266" y2="54.8871" gradientUnits="userSpaceOnUse">
<stop stop-color="#D7AC4C"/>
<stop offset="0.1816" stop-color="#FFFFB0"/>
<stop offset="0.3268" stop-color="#F4D174"/>
<stop offset="0.433" stop-color="#DEB04D"/>
<stop offset="0.7067" stop-color="#F6DF86"/>
<stop offset="0.8492" stop-color="#D7AC4C"/>
<stop offset="1" stop-color="#966424"/>
</linearGradient>
</defs>
</svg>
