<svg width="64" height="70" viewBox="0 0 64 70" fill="none" xmlns="http://www.w3.org/2000/svg">
<g opacity="0.4" filter="url(#filter0_f_91_3925)">
<path d="M47.4575 52.4173C47.7299 52.2224 47.9462 52.014 48.1201 51.736C49.314 50.0335 48.9485 46.8397 48.3855 44.8546C46.8663 39.1773 43.781 34.0458 40.3635 29.3081C36.6988 24.4158 32.4857 19.782 27.2718 16.5418C25.3492 15.425 22.5578 13.9796 20.3119 14.7877C20.0415 14.8764 19.7576 15.0211 19.5046 15.1851C19.663 15.0693 20.4491 14.4653 20.9242 14.118C20.9493 14.1122 20.9686 14.0813 20.9937 14.0755C21.0382 14.0388 21.1077 13.9964 21.1521 13.9597C21.1714 13.9288 21.2216 13.9173 21.2467 13.9115L21.2719 13.9057C21.9594 13.5623 22.724 13.439 23.5543 13.4857C23.6103 13.4993 23.6856 13.4819 23.7416 13.4954C23.7975 13.509 23.8478 13.4974 23.9037 13.511C25.5874 13.7047 27.458 14.5956 29.1933 15.7027C29.2551 15.7413 29.3478 15.7993 29.4095 15.8379C31.4036 17.1498 33.2488 18.7338 34.5149 19.8697C34.6134 19.9528 34.7118 20.0358 34.7852 20.1247C34.9569 20.2966 35.1287 20.4685 35.3256 20.6346C35.4974 20.8066 35.6691 20.9785 35.866 21.1446C36.032 21.2914 36.1729 21.444 36.3138 21.5966C38.6684 24.015 41.1618 27.0358 43.4253 30.3211C43.462 30.3655 43.4678 30.3906 43.5045 30.4351C45.6271 33.5677 47.5083 36.9147 48.7659 40.1937C48.8855 40.4834 48.9742 40.7538 49.088 41.0183C49.1535 41.1883 49.2249 41.3833 49.2654 41.559C49.9288 43.521 50.3431 45.4347 50.4409 47.2362C50.4389 47.3424 50.4369 47.4486 50.4349 47.5548C50.433 47.661 50.431 47.7672 50.429 47.8734C50.3376 49.4276 49.8603 50.5686 48.9853 51.2459L47.4575 52.4173Z" fill="url(#paint0_linear_91_3925)"/>
<path d="M51.5734 54.2186C44.6515 58.4829 30.7598 42.7022 26.9698 37.4952C23.284 32.3962 13.1152 16.0224 18.8751 10.7304L12.6213 15.0259C10.6281 16.3574 10.6844 20.389 11.2819 22.8684C13.4099 31.7627 18.6876 39.6408 24.5081 46.5478C28.7926 51.3767 36.2425 59.0452 43.0061 59.2584C43.6877 59.2336 44.3906 59.0717 45.0028 58.7456C45.3118 58.5951 51.2702 54.3941 51.5734 54.2186Z" fill="url(#paint1_linear_91_3925)"/>
<path d="M53.0253 49.7337C52.9824 45.9898 51.1465 40.5441 47.5808 34.3601C44.0152 28.1761 39.3739 22.372 34.7494 18.018C30.1191 13.6389 25.5307 10.7041 22.0457 10.2643C18.5549 9.79951 16.8472 11.9111 16.9152 15.6493C16.9639 19.4183 18.794 24.8389 22.3597 31.0229C25.9253 37.2069 30.5724 43.0361 35.1969 47.3901C39.8214 51.7441 44.4098 54.6789 47.9005 55.1437C51.3604 55.5892 53.0739 53.5027 53.0253 49.7337ZM48.1143 51.7108C47.5292 51.9249 46.8283 51.9806 45.9865 51.8837C43.0132 51.4847 39.0791 48.9807 35.1302 45.2642C31.1754 41.5225 27.2115 36.5934 24.161 31.2689C21.1163 25.9694 19.5716 21.329 19.5189 18.116C19.4886 16.7219 19.7536 15.5771 20.3119 14.7876C20.4916 14.5347 20.677 14.307 20.9242 14.1178C20.9493 14.112 20.9687 14.0812 20.9938 14.0754C21.0382 14.0387 21.1077 13.9963 21.1521 13.9596C21.1715 13.9287 21.2217 13.9171 21.2468 13.9114L21.2719 13.9056C21.8783 13.5544 22.6372 13.4061 23.5543 13.4856C23.6354 13.4934 23.6856 13.4818 23.7416 13.4953C23.7976 13.5089 23.8478 13.4973 23.9038 13.5108C25.4561 13.7084 27.2476 14.4853 29.1934 15.7026C29.2551 15.7412 29.3478 15.7992 29.4096 15.8378C31.0523 16.8869 32.7702 18.2624 34.515 19.8696C34.6134 19.9526 34.7119 20.0357 34.7852 20.1246C34.957 20.2965 35.1287 20.4684 35.3256 20.6345C35.4974 20.8064 35.6692 20.9783 35.866 21.1445C36.032 21.2913 36.1729 21.4439 36.3138 21.5965C38.8035 24.1423 41.2352 27.1245 43.4254 30.321C43.462 30.3654 43.4678 30.3905 43.5045 30.4349C44.3072 31.6247 45.0655 32.851 45.7737 34.089C47.0143 36.2617 48.0136 38.3049 48.7659 40.1936C48.8797 40.4582 48.9742 40.7536 49.088 41.0182C49.1536 41.1881 49.2249 41.3832 49.2654 41.5589C50.0311 43.7353 50.3952 45.6605 50.4409 47.2361C50.4389 47.3423 50.4369 47.4484 50.435 47.5546C50.433 47.6608 50.431 47.767 50.429 47.8732C50.3377 49.4275 49.8603 50.5684 48.9853 51.2458C48.6937 51.4716 48.4098 51.6163 48.1143 51.7108Z" fill="url(#paint2_linear_91_3925)"/>
<path d="M48.1452 51.7303C47.5601 51.9444 46.8592 52.0001 46.0174 51.9032C43.044 51.5042 39.11 49.0003 35.161 45.2837C31.2063 41.5421 27.2424 36.613 24.1919 31.2884C21.1472 25.9889 19.6025 21.3485 19.5498 18.1356C19.5194 16.7415 19.7844 15.5966 20.3428 14.8071C22.5887 13.999 25.3801 15.4444 27.3027 16.5612C32.5166 19.8014 36.7297 24.4352 40.3886 29.3024C43.8312 34.0344 46.8914 39.1716 48.4106 44.8489C48.9736 46.834 49.3083 50.0085 48.1452 51.7303Z" fill="url(#paint3_linear_91_3925)"/>
<path d="M41.5795 35.1609L40.0904 36.2705L41.83 36.4778L43.294 35.374L41.5795 35.1609Z" fill="url(#paint4_linear_91_3925)"/>
<path d="M35.5738 32.156C35.5796 32.1811 35.6105 32.2004 35.6163 32.2255C35.7205 32.3337 35.8054 32.4727 35.9154 32.606C35.9463 32.6253 35.9579 32.6755 35.9888 32.6948C36.0988 32.8281 36.2145 32.9865 36.3303 33.1449L37.7944 32.041C37.7152 31.9271 37.6361 31.8131 37.557 31.6992C37.5203 31.6547 37.4837 31.6103 37.4721 31.5601C37.4412 31.5408 37.4297 31.4906 37.3988 31.4713C37.3679 31.4519 37.3563 31.4017 37.3254 31.3824C37.2521 31.2936 37.1788 31.2047 37.1054 31.1159C37.1054 31.1159 37.0996 31.0908 37.0745 31.0966C37.0688 31.0715 37.0379 31.0521 37.0321 31.027C36.9896 30.9575 36.9221 30.8938 36.8854 30.8493C36.8488 30.8049 36.8179 30.7856 36.7812 30.7412C36.7503 30.7218 36.7136 30.6774 36.7079 30.6523C36.6036 30.5441 36.5303 30.4553 36.4319 30.3722C36.3334 30.2892 36.2659 30.2254 36.1732 30.1675C36.1423 30.1481 36.1366 30.123 36.1057 30.1037C36.0748 30.0844 36.0439 30.0651 36.0381 30.04C35.9763 30.0013 35.9455 29.982 35.8837 29.9434C35.8528 29.924 35.7968 29.9105 35.7659 29.8912C35.735 29.8719 35.7042 29.8525 35.6733 29.8332C35.6733 29.8332 35.6733 29.8332 35.6482 29.839C35.6231 29.8448 35.6173 29.8197 35.5922 29.8255C35.5613 29.8061 35.5362 29.8119 35.5053 29.7926C35.4802 29.7984 35.4493 29.7791 35.4493 29.7791C35.4242 29.7848 35.3933 29.7655 35.3933 29.7655C35.3682 29.7713 35.3682 29.7713 35.3431 29.7771L35.318 29.7829C35.2929 29.7886 35.2929 29.7886 35.2678 29.7944L35.2427 29.8002L33.7092 30.9465C33.7285 30.9156 33.7787 30.9041 33.8038 30.8983C33.854 30.8867 33.8791 30.8809 33.9351 30.8945C33.9911 30.908 34.0722 30.9158 34.1339 30.9544C34.2208 30.9873 34.2826 31.0259 34.3695 31.0588C34.4312 31.0974 34.5239 31.1554 34.5914 31.2191C34.6223 31.2384 34.6281 31.2635 34.659 31.2829C34.7516 31.3408 34.825 31.4297 34.9176 31.4876C35.0161 31.5707 35.0894 31.6595 35.1936 31.7677C35.2245 31.787 35.2612 31.8315 35.267 31.8566C35.3963 31.959 35.4696 32.0478 35.5738 32.156Z" fill="url(#paint5_linear_91_3925)"/>
<path d="M38.8732 37.8726C38.9272 37.9923 38.987 38.1372 39.041 38.2569C39.1008 38.4017 39.1606 38.5466 39.2011 38.7223C39.284 38.9676 39.367 39.2128 39.4441 39.433C39.527 39.6782 39.6099 39.9235 39.6678 40.1745L41.1318 39.0706C41.0913 38.8949 41.02 38.6999 40.9795 38.5242C40.9621 38.4488 40.9197 38.3793 40.9081 38.3291C40.8252 38.0839 40.7423 37.8386 40.6651 37.6185C40.642 37.5181 40.5938 37.4234 40.5706 37.323C40.5591 37.2728 40.5166 37.2033 40.5051 37.1531C40.451 37.0333 40.3912 36.8885 40.3372 36.7688C40.2832 36.649 40.2543 36.5235 40.2003 36.4038C40.1521 36.3091 40.1038 36.2145 40.0807 36.1141C40.0325 36.0195 39.9842 35.9248 39.9611 35.8244C39.9187 35.7549 39.9013 35.6796 39.8589 35.6101C39.7508 35.3706 39.6177 35.1369 39.5039 34.8723L38.0399 35.9762C38.1961 36.3103 38.3466 36.6193 38.4971 36.9283C38.5453 37.0229 38.5935 37.1175 38.6167 37.2179C38.6938 37.4381 38.771 37.6582 38.8732 37.8726Z" fill="url(#paint6_linear_91_3925)"/>
<path d="M43.9 40.7594L42.436 41.8633L39.6737 40.1997L41.1377 39.0958L43.9 40.7594Z" fill="url(#paint7_linear_91_3925)"/>
<path d="M36.7797 34.5219L35.2905 35.6315L37.9897 35.9879L39.4788 34.8783L36.7797 34.5219Z" fill="url(#paint8_linear_91_3925)"/>
<path d="M31.5076 32.0617C31.5732 32.2317 31.6581 32.3707 31.7237 32.5407L33.1877 31.4368C33.1221 31.2669 33.0314 31.1027 32.9716 30.9579C32.9601 30.9077 32.9234 30.8633 32.9119 30.8131C32.8578 30.6933 32.8096 30.5987 32.7556 30.479C32.7498 30.4539 32.7382 30.4037 32.7074 30.3843C32.6533 30.2646 32.5993 30.1449 32.5453 30.0251C32.5338 29.9749 32.4913 29.9054 32.4797 29.8552C32.4315 29.7606 32.4084 29.6602 32.3659 29.5906C32.3544 29.5404 32.3119 29.4709 32.3003 29.4207C32.2579 29.3512 32.2348 29.2507 32.1923 29.1812C32.1808 29.131 32.1383 29.0615 32.1267 29.0113C32.1094 28.936 32.0669 28.8664 32.0496 28.7911C32.0438 28.766 32.0323 28.7158 32.0014 28.6965C31.93 28.5015 31.8586 28.3064 31.7931 28.1365C31.739 28.0167 31.7101 27.8912 31.687 27.7908C31.6812 27.7657 31.6754 27.7406 31.6697 27.7155C31.635 27.5649 31.5752 27.42 31.5405 27.2694C31.5347 27.2443 31.5347 27.2443 31.5289 27.2192C31.4942 27.0686 31.4653 26.9431 31.4615 26.8118C31.4557 26.7867 31.4499 26.7616 31.4442 26.7365C31.4403 26.6052 31.4114 26.4797 31.4134 26.3735C31.4076 26.3484 31.4018 26.3233 31.4269 26.3175C31.4231 26.1862 31.4251 26.08 31.4522 25.968C31.4755 25.7247 31.5856 25.5143 31.744 25.3985L30.28 26.5024C30.1216 26.6182 30.0308 26.7977 29.9882 27.0718C29.9862 27.178 29.9591 27.29 29.9629 27.4213C29.9687 27.4464 29.9687 27.4464 29.9494 27.4773C29.9474 27.5835 29.9512 27.7148 29.9801 27.8403C29.9859 27.8654 29.9917 27.8905 29.9975 27.9156C30.0264 28.0411 30.036 28.1975 30.0649 28.3231C30.0707 28.3482 30.0707 28.3482 30.0765 28.3733C30.1111 28.5239 30.1458 28.6745 30.2056 28.8193C30.2114 28.8444 30.2114 28.8444 30.2172 28.8695L30.223 28.8946C30.2519 29.0202 30.3059 29.1399 30.329 29.2403C30.3946 29.4103 30.466 29.6053 30.5373 29.8003C30.5431 29.8254 30.5431 29.8254 30.5489 29.8505C30.5547 29.8757 30.5547 29.8757 30.5605 29.9008C30.5778 29.9761 30.6203 30.0456 30.6376 30.1209C30.6492 30.1711 30.6916 30.2406 30.7032 30.2908C30.7205 30.3662 30.7688 30.4608 30.8112 30.5303C30.8228 30.5805 30.8652 30.65 30.8768 30.7002C30.925 30.7949 30.9482 30.8953 30.9906 30.9648C31.0022 31.015 31.0388 31.0595 31.0562 31.1348C31.1102 31.2545 31.1642 31.3742 31.2182 31.494C31.224 31.5191 31.2298 31.5442 31.2665 31.5886C31.3205 31.7083 31.3803 31.8532 31.4401 31.998C31.4961 32.0115 31.5018 32.0366 31.5076 32.0617Z" fill="url(#paint9_linear_91_3925)"/>
<path d="M34.9604 35.5753C34.9431 35.5 34.945 35.3938 34.9219 35.2934C34.9161 35.2683 34.9046 35.2181 34.8988 35.193C34.8814 35.1177 34.8641 35.0423 34.841 34.9419L34.8352 34.9168C34.812 34.8164 34.7638 34.7218 34.7349 34.5963C34.7291 34.5712 34.7176 34.521 34.7118 34.4959C34.7002 34.4456 34.6578 34.3761 34.6462 34.3259C34.6289 34.2506 34.5922 34.2062 34.5748 34.1309L33.1108 35.2347C33.1706 35.3795 33.1995 35.5051 33.2535 35.6248C33.2593 35.6499 33.2709 35.7001 33.2767 35.7252C33.3307 35.8449 33.3596 35.9705 33.3827 36.0709C33.4001 36.1462 33.4174 36.2215 33.4405 36.3219C33.4463 36.347 33.4579 36.3972 33.4637 36.4223C33.4868 36.5227 33.5099 36.6231 33.5022 36.7042C33.5233 36.9108 33.4962 37.0228 33.4074 37.0962L34.8656 35.9672C34.9545 35.8939 34.9758 35.7568 34.9604 35.5753Z" fill="url(#paint10_linear_91_3925)"/>
<path d="M32.2541 33.9252L30.7649 35.0348L32.9718 35.3196L34.4358 34.2157L32.2541 33.9252Z" fill="url(#paint11_linear_91_3925)"/>
<path d="M27.9441 29.7896C27.757 29.4362 27.5949 29.077 27.4078 28.7235C27.3596 28.6289 27.3113 28.5343 27.294 28.459C27.1802 28.1944 27.0412 27.9356 26.9274 27.671C26.8136 27.4065 26.6998 27.1419 26.586 26.8773C26.5204 26.7074 26.4548 26.5375 26.3893 26.3675C26.3777 26.3173 26.3661 26.2671 26.3353 26.2478C26.2755 26.1029 26.2157 25.9581 26.181 25.8075C26.1694 25.7573 26.1636 25.7322 26.127 25.6877C26.0614 25.5178 26.0267 25.3672 25.9611 25.1972C25.9438 25.1219 25.9322 25.0717 25.9148 24.9964C25.9033 24.9462 25.8917 24.896 25.8801 24.8458C25.8628 24.7705 25.8512 24.7203 25.8339 24.645C25.8223 24.5948 25.8108 24.5446 25.805 24.5195C25.7876 24.4441 25.7761 24.3939 25.7587 24.3186C25.7529 24.2935 25.7414 24.2433 25.7356 24.2182C25.7125 24.1178 25.6951 24.0425 25.6971 23.9363L24.2331 25.0401C24.2504 25.1155 24.2735 25.2159 24.2716 25.3221C24.2773 25.3472 24.2889 25.3974 24.2947 25.4225C24.312 25.4978 24.3236 25.548 24.341 25.6233C24.3525 25.6735 24.3641 25.7237 24.3699 25.7488C24.3872 25.8241 24.3988 25.8743 24.4161 25.9496C24.4277 25.9998 24.4393 26.0501 24.4508 26.1003C24.4624 26.1505 24.4739 26.2007 24.4913 26.276L24.4971 26.3011C24.5318 26.4517 24.5973 26.6216 24.6629 26.7916C24.6745 26.8418 24.6803 26.8669 24.7169 26.9113C24.7767 27.0562 24.8114 27.2068 24.8712 27.3516C24.877 27.3767 24.8828 27.4018 24.8886 27.4269C24.8944 27.452 24.8944 27.452 24.9001 27.4771C24.9657 27.6471 25.0313 27.817 25.0969 27.987C25.174 28.2071 25.282 28.4466 25.3843 28.6609C25.3959 28.7111 25.4267 28.7305 25.4383 28.7807C25.5521 29.0452 25.6659 29.3098 25.8048 29.5686C25.8473 29.6381 25.8646 29.7134 25.9071 29.783C25.9129 29.8081 25.9129 29.8081 25.9187 29.8332C26.0807 30.1924 26.2678 30.5458 26.455 30.8992C26.455 30.8992 26.455 30.8992 26.4608 30.9243C26.6421 31.2526 26.7984 31.5867 26.9798 31.915L28.4438 30.8112C28.2875 30.4771 28.1004 30.1237 27.9441 29.7896Z" fill="url(#paint12_linear_91_3925)"/>
<path d="M38.1867 40.5156C38.1423 40.5523 38.0921 40.5639 38.0477 40.6005C38.0226 40.6063 38.0226 40.6063 37.9975 40.6121C37.9472 40.6237 37.897 40.6352 37.8468 40.6468L37.8217 40.6526C37.7464 40.6699 37.6904 40.6564 37.6151 40.6737C37.59 40.6795 37.5591 40.6602 37.534 40.666C37.478 40.6524 37.4027 40.6698 37.3467 40.6562C37.2656 40.6485 37.1537 40.6214 37.0668 40.5885C37.0359 40.5692 37.0108 40.575 36.9799 40.5557C36.893 40.5228 36.8062 40.49 36.6942 40.4629L36.6633 40.4436C36.5456 40.3914 36.4278 40.3392 36.3351 40.2812C36.3043 40.2619 36.2425 40.2233 36.2116 40.204C36.1498 40.1653 36.0629 40.1325 35.9954 40.0687C35.9027 40.0107 35.8101 39.9528 35.7174 39.8948C35.6557 39.8562 35.5939 39.8175 35.5572 39.7731C35.5263 39.7538 35.4897 39.7094 35.4337 39.6958C35.341 39.6379 35.2426 39.5548 35.1441 39.4717C35.1075 39.4273 35.0457 39.3887 35.0148 39.3693C34.9164 39.2863 34.8179 39.2032 34.7195 39.1201C34.6828 39.0757 34.6211 39.0371 34.5902 39.0178C34.4551 38.8903 34.32 38.7628 34.154 38.616C33.988 38.4692 33.8162 38.2972 33.6695 38.1195C33.602 38.0558 33.5595 37.9863 33.4978 37.9476C33.3935 37.8395 33.2835 37.7062 33.1735 37.5729C33.106 37.5092 33.0635 37.4396 32.996 37.3759C32.886 37.2426 32.7509 37.1151 32.6351 36.9568C32.5617 36.8679 32.4826 36.754 32.4093 36.6651C32.3302 36.5512 32.2568 36.4623 32.1526 36.3541C32.0735 36.2402 31.9944 36.1262 31.8902 36.0181C31.811 35.9041 31.7377 35.8153 31.6586 35.7013C31.5795 35.5874 31.5004 35.4734 31.4212 35.3595C31.3421 35.2455 31.2321 35.1122 31.1472 34.9732C31.0681 34.8592 30.989 34.7453 30.9099 34.6313C30.7941 34.4729 30.7092 34.3339 30.5934 34.1755C30.466 33.9669 30.3194 33.7892 30.1862 33.5555L28.7222 34.6594C28.8129 34.8235 28.9287 34.9819 29.0136 35.121C29.0503 35.1654 29.0869 35.2098 29.0985 35.26C29.2143 35.4184 29.305 35.5826 29.415 35.7158C29.4574 35.7854 29.5056 35.88 29.5732 35.9437C29.6099 35.9882 29.6156 36.0133 29.6523 36.0577C29.7372 36.1968 29.8414 36.3049 29.9263 36.444C29.9746 36.5386 30.0421 36.6023 30.0903 36.697C30.1212 36.7163 30.1328 36.7665 30.1637 36.7858C30.2428 36.8998 30.3219 37.0137 30.3953 37.1026C30.4628 37.1663 30.511 37.261 30.5844 37.3498C30.6153 37.3691 30.6268 37.4193 30.6577 37.4387C30.7368 37.5526 30.8102 37.6415 30.9144 37.7496C30.9819 37.8134 31.0302 37.908 31.0977 37.9717C31.1286 37.9911 31.1344 38.0162 31.1653 38.0355C31.2753 38.1688 31.4162 38.3214 31.5262 38.4546C31.5628 38.4991 31.6304 38.5628 31.6671 38.6072C31.6728 38.6323 31.6979 38.6265 31.7037 38.6516C31.8137 38.7849 31.9179 38.8931 32.028 39.0264C32.0955 39.0901 32.138 39.1596 32.1997 39.1983C32.3715 39.3702 32.5433 39.5421 32.6842 39.6947C32.8193 39.8222 32.9602 39.9748 33.1204 40.0965C33.157 40.1409 33.2188 40.1796 33.2497 40.1989C33.3481 40.2819 33.4466 40.365 33.545 40.4481C33.5817 40.4925 33.6434 40.5311 33.6743 40.5505C33.7728 40.6335 33.8654 40.6915 33.9639 40.7746C33.9948 40.7939 34.0314 40.8383 34.0874 40.8518C34.0874 40.8518 34.1183 40.8712 34.1241 40.8963C34.1607 40.9407 34.2167 40.9542 34.2476 40.9736C34.3403 41.0315 34.4329 41.0895 34.5256 41.1474C34.5565 41.1668 34.5565 41.1668 34.5874 41.1861C34.6491 41.2247 34.7051 41.2383 34.7669 41.2769C34.7978 41.2962 34.8595 41.3349 34.8904 41.3542L34.9213 41.3735C35.014 41.4315 35.1259 41.4586 35.2128 41.4914L35.2437 41.5107C35.3055 41.5494 35.3866 41.5571 35.4483 41.5958C35.4734 41.59 35.5043 41.6093 35.5043 41.6093C35.5352 41.6286 35.5603 41.6229 35.5912 41.6422C35.6221 41.6615 35.6472 41.6557 35.6781 41.675C35.7341 41.6886 35.8152 41.6963 35.8712 41.7099C35.8963 41.7041 35.8963 41.7041 35.9271 41.7234C35.9831 41.7369 36.0082 41.7312 36.0584 41.7196C36.0835 41.7138 36.1144 41.7331 36.1395 41.7274C36.1395 41.7274 36.1395 41.7274 36.1646 41.7216C36.2457 41.7293 36.2959 41.7178 36.3712 41.7004L36.3963 41.6946C36.4466 41.6831 36.4968 41.6715 36.5219 41.6657L36.547 41.6599C36.5721 41.6542 36.5721 41.6542 36.5972 41.6484C36.6223 41.6426 36.6474 41.6368 36.6667 41.6059C36.6918 41.6001 36.7111 41.5693 36.7362 41.5635L38.1867 40.5156Z" fill="url(#paint13_linear_91_3925)"/>
<path d="M28.3771 33.3907L26.8879 34.5004L28.6642 34.7521L30.1533 33.6425L28.3771 33.3907Z" fill="url(#paint14_linear_91_3925)"/>
<path d="M38.4843 39.9713C38.4049 40.5447 38.0321 40.7627 37.3274 40.6872C36.4547 40.5709 35.3795 39.9198 34.1211 38.7029C32.8627 37.4859 31.5253 35.8113 30.1592 33.6676L28.3887 33.4409L26.7486 30.5672L28.494 30.7996C27.7261 29.4168 27.1069 28.1055 26.6111 26.8715C26.1154 25.6375 25.8088 24.6507 25.7222 23.9305L28.5444 25.7389C28.6503 26.4282 28.8855 27.22 29.2308 28.145C29.576 29.07 30.0139 30.053 30.5638 31.063L33.2069 31.4059C32.6128 30.0888 32.1711 28.9745 31.8625 28.0939C31.5482 27.1882 31.4365 26.4738 31.5159 25.9004C31.5953 25.3269 31.968 25.1089 32.6785 25.2096C33.5512 25.3258 34.6322 26.002 35.9157 27.2132C37.1992 28.4244 38.5424 30.124 39.9143 32.2929L41.6848 32.5196L43.3133 35.3431L41.5679 35.1107C42.7872 37.4205 43.5588 39.2783 43.8884 40.7091L41.126 39.0456C40.7636 37.7016 40.2274 36.2918 39.4673 34.8279L36.7681 34.4716C37.3565 35.7635 37.8175 36.8469 38.1067 37.7584C38.4211 38.6641 38.5386 39.4036 38.4843 39.9713ZM35.5315 31.7428L37.7944 32.0411C37.283 31.3129 36.8372 30.7547 36.4377 30.3974C36.0381 30.04 35.6984 29.8275 35.4242 29.7849C35.1501 29.7423 35.0534 29.8967 35.0784 30.2346C35.1034 30.5725 35.275 31.0881 35.5315 31.7428ZM33.5432 35.5052C33.9176 35.8683 34.2516 36.0557 34.5257 36.0983C34.7999 36.1409 34.8965 35.9865 34.8773 35.6737C34.8523 35.3358 34.7174 34.8646 34.4608 34.21L32.2791 33.9194C32.7287 34.6089 33.1378 35.1227 33.5432 35.5052Z" fill="url(#paint15_linear_91_3925)"/>
<path d="M26.7487 30.5672L25.2595 31.6768L26.888 34.5004L28.3771 33.3908L26.7487 30.5672Z" fill="url(#paint16_linear_91_3925)"/>
<path d="M36.3932 30.434C36.565 30.6059 36.7368 30.7778 36.951 31.0193C37.2019 31.3051 37.4084 31.6277 37.6882 32.0391L37.7442 32.0526L37.8001 32.0661C37.4663 31.535 37.2714 31.2627 37.0205 30.9768C36.8372 30.7547 36.6345 30.5635 36.4628 30.3915C36.0574 30.0091 35.6926 29.8023 35.3431 29.7771L35.2041 29.862C35.4802 29.7984 35.7852 29.8603 36.3932 30.434Z" fill="url(#paint17_linear_91_3925)"/>
<path d="M34.769 36.1217C34.8579 36.0484 34.8985 35.8804 34.8831 35.6989C34.8582 35.361 34.7174 34.8647 34.4667 34.2352L34.4609 34.2101L32.254 33.9253L32.3332 34.0393L34.3778 34.3085C34.6286 34.9381 34.7635 35.4092 34.7827 35.722C34.7981 35.9035 34.771 36.0155 34.7015 36.058C34.657 36.0946 34.5817 36.112 34.4755 36.11L34.769 36.1217Z" fill="url(#paint18_linear_91_3925)"/>
<path d="M43.1858 35.4782L43.294 35.374L41.5795 35.1609L41.6277 35.2555L43.1858 35.4782Z" fill="url(#paint19_linear_91_3925)"/>
<path d="M26.6111 26.8715C26.1154 25.6375 25.8146 24.6758 25.7222 23.9304L25.6334 24.0038C25.7509 24.7433 26.015 25.6606 26.5107 26.8946C27.0065 28.1286 27.5891 29.3955 28.3627 30.8034L28.4689 30.8053C27.894 29.8011 27.2516 28.3894 26.6111 26.8715Z" fill="url(#paint20_linear_91_3925)"/>
<path d="M43.9 40.7595L43.8826 40.6842L41.182 39.0592C40.8196 37.7152 40.2834 36.3055 39.529 34.8667L39.5232 34.8416L36.7681 34.4717L36.8221 34.5914L39.4595 34.9092C40.2139 36.3479 40.7501 37.7577 41.1067 39.0766L41.1125 39.1017L43.8748 40.7653L43.9 40.7595Z" fill="url(#paint21_linear_91_3925)"/>
<path d="M37.2966 40.6679C36.4354 40.6019 35.3738 39.8948 34.1154 38.6778C33.7043 38.2702 33.2565 37.8182 32.8223 37.3103C31.9538 36.2943 31.0642 35.0717 30.1534 33.6425L30.1476 33.6174L28.3772 33.3908L26.766 30.6425L26.71 30.629L26.6656 30.6657L28.2999 33.5143L30.0704 33.7409C30.9811 35.1701 31.8707 36.3927 32.7334 37.3836C33.1677 37.8916 33.5903 38.3494 34.0265 38.7512C35.31 39.9623 36.3659 40.6443 37.2637 40.7548C37.5881 40.7858 37.8198 40.7588 38.0091 40.6624L38.2061 40.4848C38.237 40.5041 38.0206 40.7126 37.2966 40.6679Z" fill="url(#paint22_linear_91_3925)"/>
<path d="M33.2127 31.431C32.6186 30.1139 32.1769 28.9996 31.8683 28.119C31.5597 27.2385 31.4422 26.4989 31.5023 25.9564C31.5314 25.7382 31.6106 25.5085 31.7439 25.3985L31.4967 25.5876C31.4638 25.6744 31.4174 25.8173 31.3961 25.9544C31.3167 26.5278 31.4342 27.2674 31.7486 28.1731C32.0571 29.0537 32.4873 30.1177 33.0814 31.4348L33.2127 31.431Z" fill="url(#paint23_linear_91_3925)"/>
<path d="M48.9891 51.3772L49.0336 51.3406L48.9891 51.3772Z" fill="url(#paint24_linear_91_3925)"/>
<path d="M50.4966 47.9372C50.4986 47.831 50.5005 47.7248 50.5025 47.6186C50.5045 47.5124 50.5065 47.4063 50.5027 47.275C50.4763 45.6685 50.087 43.7491 49.3465 41.5669C49.2809 41.397 49.2404 41.2213 49.1691 41.0262C49.0804 40.7559 48.9608 40.4662 48.847 40.2016C48.0947 38.313 47.0896 36.2446 45.849 34.0719C45.1408 32.834 44.3825 31.6076 43.5798 30.4178C43.5431 30.3734 43.5373 30.3483 43.5007 30.3039C42.1074 28.2721 40.6254 26.3136 39.0718 24.5038C38.1975 23.4627 37.2846 22.4834 36.3833 21.5543C36.2424 21.4017 36.0764 21.2549 35.9356 21.1023C35.7638 20.9304 35.592 20.7585 35.3951 20.5923C35.2234 20.4204 35.0516 20.2485 34.8547 20.0824C34.7563 19.9993 34.6578 19.9162 34.5845 19.8274C32.8339 18.1951 31.116 16.8196 29.4675 15.7454C29.4057 15.7068 29.3131 15.6488 29.2513 15.6102C27.3055 14.393 25.514 13.616 23.9308 13.3991C23.8748 13.3856 23.8246 13.3972 23.7687 13.3836C23.7127 13.3701 23.6316 13.3623 23.5814 13.3739C22.6642 13.2943 21.8803 13.4485 21.2487 13.8054L21.2236 13.8112C21.1734 13.8228 21.1541 13.8537 21.129 13.8594C21.0846 13.8961 21.0151 13.9386 20.9706 13.9752L20.9011 14.0177L20.876 14.0235C20.8567 14.0544 20.8065 14.0659 20.7871 14.0968C20.5901 14.2744 20.3989 14.477 20.2636 14.6932C19.686 15.5136 19.5272 16.6604 19.5382 18.0854C19.5079 16.6913 19.8848 15.5735 20.4239 14.8149C20.5591 14.5987 20.731 14.427 20.928 14.2494C20.9474 14.2185 20.9976 14.2069 21.0169 14.1761L21.0613 14.1394C21.1057 14.1027 21.1502 14.0661 21.2197 14.0236C21.239 13.9927 21.2641 13.9869 21.3143 13.9754L21.3645 13.9638C21.9458 13.6184 22.6796 13.4758 23.5716 13.5612C23.6218 13.5496 23.6778 13.5631 23.7589 13.5709C23.8149 13.5844 23.8651 13.5729 23.9211 13.5864C25.4483 13.7898 27.234 14.5416 29.1547 15.7646C29.2165 15.8033 29.3091 15.8612 29.3709 15.8999C31.0136 16.949 32.7315 18.3244 34.4512 19.9374C34.5497 20.0205 34.6481 20.1035 34.7214 20.1924C34.8932 20.3643 35.065 20.5362 35.2368 20.7081C35.4085 20.88 35.5803 21.0519 35.7521 21.2239C35.893 21.3764 36.059 21.5233 36.1998 21.6759C37.1012 22.605 38.0141 23.5843 38.8825 24.6002C40.4361 26.4101 41.9124 28.3434 43.2805 30.381C43.3172 30.4255 43.323 30.4506 43.3596 30.495C44.1624 31.6847 44.9207 32.9111 45.6288 34.1491C46.8694 36.3218 47.8688 38.365 48.6153 40.2286C48.7291 40.4931 48.8236 40.7886 48.9374 41.0532C49.0029 41.2231 49.0743 41.4181 49.1148 41.5939C49.8804 43.7702 50.2388 45.6703 50.2845 47.2459C50.2825 47.3521 50.2805 47.4583 50.2786 47.5645C50.2766 47.6707 50.2746 47.7769 50.2726 47.8831C50.1832 49.3312 49.7696 50.4045 48.9951 51.0588C48.9506 51.0954 48.9062 51.1321 48.8618 51.1688C48.6397 51.3521 48.3982 51.5663 48.1085 51.6859C48.404 51.5914 48.7303 51.5163 48.9776 51.3272C49.022 51.2905 49.0664 51.2538 49.1359 51.2114C49.9607 50.5456 50.413 49.4104 50.4966 47.9372Z" fill="url(#paint25_linear_91_3925)"/>
</g>
<defs>
<filter id="filter0_f_91_3925" x="-1" y="-5" width="65.9534" height="79.4587" filterUnits="userSpaceOnUse" color-interpolation-filters="sRGB">
<feFlood flood-opacity="0" result="BackgroundImageFix"/>
<feBlend mode="normal" in="SourceGraphic" in2="BackgroundImageFix" result="shape"/>
<feGaussianBlur stdDeviation="5" result="effect1_foregroundBlur_91_3925"/>
</filter>
<linearGradient id="paint0_linear_91_3925" x1="21.6938" y1="13.3345" x2="51.959" y2="48.7132" gradientUnits="userSpaceOnUse">
<stop stop-color="#D2AB5A"/>
<stop offset="0.0610851" stop-color="#BA9443"/>
<stop offset="0.1898" stop-color="#7C5808"/>
<stop offset="0.2069" stop-color="#735000"/>
<stop offset="0.2274" stop-color="#775200"/>
<stop offset="0.3376" stop-color="#8A5D00"/>
<stop offset="0.4146" stop-color="#916100"/>
<stop offset="0.4344" stop-color="#976707"/>
<stop offset="0.4986" stop-color="#D8B364"/>
<stop offset="0.5246" stop-color="#D4AE5D"/>
<stop offset="0.5617" stop-color="#CA9F4A"/>
<stop offset="0.6053" stop-color="#B9882C"/>
<stop offset="0.6414" stop-color="#A8700D"/>
<stop offset="0.6805" stop-color="#815400"/>
<stop offset="0.8029" stop-color="#B38116"/>
<stop offset="0.8267" stop-color="#A27114"/>
<stop offset="0.8802" stop-color="#815110"/>
<stop offset="0.9247" stop-color="#6C3D0E"/>
<stop offset="0.9545" stop-color="#65360D"/>
<stop offset="0.9581" stop-color="#6F3F0D"/>
<stop offset="0.9701" stop-color="#8A580C"/>
<stop offset="0.9807" stop-color="#9B670C"/>
<stop offset="0.9886" stop-color="#A16C0C"/>
</linearGradient>
<linearGradient id="paint1_linear_91_3925" x1="11.124" y1="16.2694" x2="46.9582" y2="58.158" gradientUnits="userSpaceOnUse">
<stop stop-color="#D2AB5A"/>
<stop offset="0.0610851" stop-color="#BA9443"/>
<stop offset="0.1898" stop-color="#7C5808"/>
<stop offset="0.2069" stop-color="#735000"/>
<stop offset="0.2274" stop-color="#775200"/>
<stop offset="0.3376" stop-color="#8A5D00"/>
<stop offset="0.4146" stop-color="#916100"/>
<stop offset="0.4344" stop-color="#976707"/>
<stop offset="0.4986" stop-color="#D8B364"/>
<stop offset="0.5246" stop-color="#D4AE5D"/>
<stop offset="0.5617" stop-color="#CA9F4A"/>
<stop offset="0.6053" stop-color="#B9882C"/>
<stop offset="0.6414" stop-color="#A8700D"/>
<stop offset="0.6805" stop-color="#815400"/>
<stop offset="0.8029" stop-color="#B38116"/>
<stop offset="0.8267" stop-color="#A27114"/>
<stop offset="0.8802" stop-color="#815110"/>
<stop offset="0.9247" stop-color="#6C3D0E"/>
<stop offset="0.9545" stop-color="#65360D"/>
<stop offset="0.9581" stop-color="#6F3F0D"/>
<stop offset="0.9701" stop-color="#8A580C"/>
<stop offset="0.9807" stop-color="#9B670C"/>
<stop offset="0.9886" stop-color="#A16C0C"/>
</linearGradient>
<linearGradient id="paint2_linear_91_3925" x1="44.2877" y1="19.7981" x2="24.2132" y2="47.5522" gradientUnits="userSpaceOnUse">
<stop stop-color="#D7AC4C"/>
<stop offset="0.1816" stop-color="#FFFFB0"/>
<stop offset="0.3268" stop-color="#F4D174"/>
<stop offset="0.3659" stop-color="#FBED99"/>
<stop offset="0.3939" stop-color="#FAEC97"/>
<stop offset="0.433" stop-color="#DEB04D"/>
<stop offset="0.5275" stop-color="#DFB24F"/>
<stop offset="0.5615" stop-color="#E2B756"/>
<stop offset="0.5858" stop-color="#E7C161"/>
<stop offset="0.6053" stop-color="#EECF72"/>
<stop offset="0.6207" stop-color="#F6DF86"/>
<stop offset="0.7529" stop-color="#F2D87E"/>
<stop offset="0.7672" stop-color="#F1D77D"/>
<stop offset="0.7716" stop-color="#EBCD71"/>
<stop offset="0.7804" stop-color="#E2BE60"/>
<stop offset="0.7913" stop-color="#DCB455"/>
<stop offset="0.8066" stop-color="#D8AE4E"/>
<stop offset="0.8492" stop-color="#D7AC4C"/>
<stop offset="1" stop-color="#966424"/>
</linearGradient>
<linearGradient id="paint3_linear_91_3925" x1="41.3356" y1="23.4486" x2="21.2611" y2="51.2028" gradientUnits="userSpaceOnUse">
<stop offset="0.1136" stop-color="#D7AC4C"/>
<stop offset="0.1816" stop-color="#FFFFB0"/>
<stop offset="0.3268" stop-color="#F4D174"/>
<stop offset="0.3659" stop-color="#FBED99"/>
<stop offset="0.3939" stop-color="#FAEC97"/>
<stop offset="0.433" stop-color="#DEB04D"/>
<stop offset="0.5275" stop-color="#DFB24F"/>
<stop offset="0.5615" stop-color="#E2B756"/>
<stop offset="0.5858" stop-color="#E7C161"/>
<stop offset="0.6053" stop-color="#EECF72"/>
<stop offset="0.6207" stop-color="#F6DF86"/>
<stop offset="0.7529" stop-color="#F2D87E"/>
<stop offset="0.7672" stop-color="#F1D77D"/>
<stop offset="0.7716" stop-color="#EBCD71"/>
<stop offset="0.7804" stop-color="#E2BE60"/>
<stop offset="0.7913" stop-color="#DCB455"/>
<stop offset="0.8066" stop-color="#D8AE4E"/>
<stop offset="0.8492" stop-color="#D7AC4C"/>
<stop offset="1" stop-color="#966424"/>
</linearGradient>
<linearGradient id="paint4_linear_91_3925" x1="44.0136" y1="37.9953" x2="41.2753" y2="35.4204" gradientUnits="userSpaceOnUse">
<stop stop-color="#A16C0C"/>
<stop offset="0.2318" stop-color="#BE9134"/>
<stop offset="0.5559" stop-color="#A8700D"/>
<stop offset="1" stop-color="#432400"/>
</linearGradient>
<linearGradient id="paint5_linear_91_3925" x1="32.869" y1="27.9473" x2="36.4401" y2="32.2925" gradientUnits="userSpaceOnUse">
<stop stop-color="#A16C0C"/>
<stop offset="0.2318" stop-color="#BE9134"/>
<stop offset="0.5559" stop-color="#A8700D"/>
<stop offset="1" stop-color="#432400"/>
</linearGradient>
<linearGradient id="paint6_linear_91_3925" x1="43.3145" y1="42.4335" x2="38.3852" y2="35.9885" gradientUnits="userSpaceOnUse">
<stop stop-color="#A16C0C"/>
<stop offset="0.2318" stop-color="#BE9134"/>
<stop offset="0.5559" stop-color="#A8700D"/>
<stop offset="1" stop-color="#432400"/>
</linearGradient>
<linearGradient id="paint7_linear_91_3925" x1="45.2017" y1="43.4904" x2="38.8671" y2="37.9067" gradientUnits="userSpaceOnUse">
<stop stop-color="#A16C0C"/>
<stop offset="0.2318" stop-color="#BE9134"/>
<stop offset="0.5559" stop-color="#A8700D"/>
<stop offset="1" stop-color="#432400"/>
</linearGradient>
<linearGradient id="paint8_linear_91_3925" x1="35.6783" y1="33.253" x2="38.1084" y2="36.0937" gradientUnits="userSpaceOnUse">
<stop stop-color="#A16C0C"/>
<stop offset="0.2318" stop-color="#BE9134"/>
<stop offset="0.5559" stop-color="#A8700D"/>
<stop offset="1" stop-color="#432400"/>
</linearGradient>
<linearGradient id="paint9_linear_91_3925" x1="29.7407" y1="24.2617" x2="32.7834" y2="31.3469" gradientUnits="userSpaceOnUse">
<stop stop-color="#A16C0C"/>
<stop offset="0.2318" stop-color="#BE9134"/>
<stop offset="0.5559" stop-color="#A8700D"/>
<stop offset="1" stop-color="#432400"/>
</linearGradient>
<linearGradient id="paint10_linear_91_3925" x1="36.3731" y1="38.9945" x2="33.5842" y2="35.0516" gradientUnits="userSpaceOnUse">
<stop stop-color="#A16C0C"/>
<stop offset="0.2318" stop-color="#BE9134"/>
<stop offset="0.5559" stop-color="#A8700D"/>
<stop offset="1" stop-color="#432400"/>
</linearGradient>
<linearGradient id="paint11_linear_91_3925" x1="29.4113" y1="32.0869" x2="33.4892" y2="35.3171" gradientUnits="userSpaceOnUse">
<stop stop-color="#A16C0C"/>
<stop offset="0.2318" stop-color="#BE9134"/>
<stop offset="0.5559" stop-color="#A8700D"/>
<stop offset="1" stop-color="#432400"/>
</linearGradient>
<linearGradient id="paint12_linear_91_3925" x1="24.0245" y1="25.2136" x2="28.6675" y2="30.641" gradientUnits="userSpaceOnUse">
<stop stop-color="#A16C0C"/>
<stop offset="0.2318" stop-color="#BE9134"/>
<stop offset="0.5559" stop-color="#A8700D"/>
<stop offset="1" stop-color="#432400"/>
</linearGradient>
<linearGradient id="paint13_linear_91_3925" x1="38.1013" y1="43.343" x2="30.2574" y2="34.2307" gradientUnits="userSpaceOnUse">
<stop stop-color="#A16C0C"/>
<stop offset="0.2318" stop-color="#BE9134"/>
<stop offset="0.5559" stop-color="#A8700D"/>
<stop offset="1" stop-color="#432400"/>
</linearGradient>
<linearGradient id="paint14_linear_91_3925" x1="27.7237" y1="33.1142" x2="29.2107" y2="34.9094" gradientUnits="userSpaceOnUse">
<stop stop-color="#A16C0C"/>
<stop offset="0.2318" stop-color="#BE9134"/>
<stop offset="0.5559" stop-color="#A8700D"/>
<stop offset="1" stop-color="#432400"/>
</linearGradient>
<linearGradient id="paint15_linear_91_3925" x1="43.9663" y1="19.6716" x2="23.892" y2="47.4254" gradientUnits="userSpaceOnUse">
<stop stop-color="#D7AC4C"/>
<stop offset="0.1816" stop-color="#FFFFB0"/>
<stop offset="0.3268" stop-color="#F4D174"/>
<stop offset="0.3659" stop-color="#FBED99"/>
<stop offset="0.3939" stop-color="#FAEC97"/>
<stop offset="0.433" stop-color="#DEB04D"/>
<stop offset="0.5275" stop-color="#DFB24F"/>
<stop offset="0.5615" stop-color="#E2B756"/>
<stop offset="0.5858" stop-color="#E7C161"/>
<stop offset="0.6053" stop-color="#EECF72"/>
<stop offset="0.6207" stop-color="#F6DF86"/>
<stop offset="0.7529" stop-color="#F2D87E"/>
<stop offset="0.7672" stop-color="#F1D77D"/>
<stop offset="0.7716" stop-color="#EBCD71"/>
<stop offset="0.7804" stop-color="#E2BE60"/>
<stop offset="0.7913" stop-color="#DCB455"/>
<stop offset="0.8066" stop-color="#D8AE4E"/>
<stop offset="0.8492" stop-color="#D7AC4C"/>
<stop offset="1" stop-color="#966424"/>
</linearGradient>
<linearGradient id="paint16_linear_91_3925" x1="24.4275" y1="29.4846" x2="27.4813" y2="33.3959" gradientUnits="userSpaceOnUse">
<stop stop-color="#A16C0C"/>
<stop offset="0.2318" stop-color="#BE9134"/>
<stop offset="0.5559" stop-color="#A8700D"/>
<stop offset="1" stop-color="#432400"/>
</linearGradient>
<linearGradient id="paint17_linear_91_3925" x1="31.9813" y1="25.6288" x2="38.3623" y2="32.9741" gradientUnits="userSpaceOnUse">
<stop stop-color="#966424"/>
<stop offset="0.1508" stop-color="#D7AC4C"/>
<stop offset="0.1934" stop-color="#D8AE4E"/>
<stop offset="0.2087" stop-color="#DCB455"/>
<stop offset="0.2196" stop-color="#E2BE60"/>
<stop offset="0.2284" stop-color="#EBCD71"/>
<stop offset="0.2328" stop-color="#F1D77D"/>
<stop offset="0.2471" stop-color="#F2D87E"/>
<stop offset="0.3793" stop-color="#F6DF86"/>
<stop offset="0.3947" stop-color="#EECF72"/>
<stop offset="0.4142" stop-color="#E7C161"/>
<stop offset="0.4385" stop-color="#E2B756"/>
<stop offset="0.4725" stop-color="#DFB24F"/>
<stop offset="0.567" stop-color="#DEB04D"/>
<stop offset="0.6061" stop-color="#FAEC97"/>
<stop offset="0.6341" stop-color="#FBED99"/>
<stop offset="0.6732" stop-color="#F4D174"/>
<stop offset="0.8184" stop-color="#FFFFB0"/>
<stop offset="1" stop-color="#D7AC4C"/>
</linearGradient>
<linearGradient id="paint18_linear_91_3925" x1="32.7993" y1="33.4429" x2="34.9546" y2="35.9624" gradientUnits="userSpaceOnUse">
<stop stop-color="#966424"/>
<stop offset="0.1508" stop-color="#D7AC4C"/>
<stop offset="0.1934" stop-color="#D8AE4E"/>
<stop offset="0.2087" stop-color="#DCB455"/>
<stop offset="0.2196" stop-color="#E2BE60"/>
<stop offset="0.2284" stop-color="#EBCD71"/>
<stop offset="0.2328" stop-color="#F1D77D"/>
<stop offset="0.2471" stop-color="#F2D87E"/>
<stop offset="0.3793" stop-color="#F6DF86"/>
<stop offset="0.3947" stop-color="#EECF72"/>
<stop offset="0.4142" stop-color="#E7C161"/>
<stop offset="0.4385" stop-color="#E2B756"/>
<stop offset="0.4725" stop-color="#DFB24F"/>
<stop offset="0.567" stop-color="#DEB04D"/>
<stop offset="0.6061" stop-color="#FAEC97"/>
<stop offset="0.6341" stop-color="#FBED99"/>
<stop offset="0.6732" stop-color="#F4D174"/>
<stop offset="0.8184" stop-color="#FFFFB0"/>
<stop offset="1" stop-color="#D7AC4C"/>
</linearGradient>
<linearGradient id="paint19_linear_91_3925" x1="42.0052" y1="34.7801" x2="42.8503" y2="35.768" gradientUnits="userSpaceOnUse">
<stop stop-color="#966424"/>
<stop offset="0.1508" stop-color="#D7AC4C"/>
<stop offset="0.1934" stop-color="#D8AE4E"/>
<stop offset="0.2087" stop-color="#DCB455"/>
<stop offset="0.2196" stop-color="#E2BE60"/>
<stop offset="0.2284" stop-color="#EBCD71"/>
<stop offset="0.2328" stop-color="#F1D77D"/>
<stop offset="0.2471" stop-color="#F2D87E"/>
<stop offset="0.3793" stop-color="#F6DF86"/>
<stop offset="0.3947" stop-color="#EECF72"/>
<stop offset="0.4142" stop-color="#E7C161"/>
<stop offset="0.4385" stop-color="#E2B756"/>
<stop offset="0.4725" stop-color="#DFB24F"/>
<stop offset="0.567" stop-color="#DEB04D"/>
<stop offset="0.6061" stop-color="#FAEC97"/>
<stop offset="0.6341" stop-color="#FBED99"/>
<stop offset="0.6732" stop-color="#F4D174"/>
<stop offset="0.8184" stop-color="#FFFFB0"/>
<stop offset="1" stop-color="#D7AC4C"/>
</linearGradient>
<linearGradient id="paint20_linear_91_3925" x1="30.0072" y1="32.8214" x2="24.763" y2="23.1997" gradientUnits="userSpaceOnUse">
<stop stop-color="#966424"/>
<stop offset="0.1508" stop-color="#D7AC4C"/>
<stop offset="0.1934" stop-color="#D8AE4E"/>
<stop offset="0.2087" stop-color="#DCB455"/>
<stop offset="0.2196" stop-color="#E2BE60"/>
<stop offset="0.2284" stop-color="#EBCD71"/>
<stop offset="0.2328" stop-color="#F1D77D"/>
<stop offset="0.2471" stop-color="#F2D87E"/>
<stop offset="0.3793" stop-color="#F6DF86"/>
<stop offset="0.3947" stop-color="#EECF72"/>
<stop offset="0.4142" stop-color="#E7C161"/>
<stop offset="0.4385" stop-color="#E2B756"/>
<stop offset="0.4725" stop-color="#DFB24F"/>
<stop offset="0.567" stop-color="#DEB04D"/>
<stop offset="0.6061" stop-color="#FAEC97"/>
<stop offset="0.6341" stop-color="#FBED99"/>
<stop offset="0.6732" stop-color="#F4D174"/>
<stop offset="0.8184" stop-color="#FFFFB0"/>
<stop offset="1" stop-color="#D7AC4C"/>
</linearGradient>
<linearGradient id="paint21_linear_91_3925" x1="37.4372" y1="33.8679" x2="43.5713" y2="41.0385" gradientUnits="userSpaceOnUse">
<stop stop-color="#966424"/>
<stop offset="0.1508" stop-color="#D7AC4C"/>
<stop offset="0.1934" stop-color="#D8AE4E"/>
<stop offset="0.2087" stop-color="#DCB455"/>
<stop offset="0.2196" stop-color="#E2BE60"/>
<stop offset="0.2284" stop-color="#EBCD71"/>
<stop offset="0.2328" stop-color="#F1D77D"/>
<stop offset="0.2471" stop-color="#F2D87E"/>
<stop offset="0.3793" stop-color="#F6DF86"/>
<stop offset="0.3947" stop-color="#EECF72"/>
<stop offset="0.4142" stop-color="#E7C161"/>
<stop offset="0.4385" stop-color="#E2B756"/>
<stop offset="0.4725" stop-color="#DFB24F"/>
<stop offset="0.567" stop-color="#DEB04D"/>
<stop offset="0.6061" stop-color="#FAEC97"/>
<stop offset="0.6341" stop-color="#FBED99"/>
<stop offset="0.6732" stop-color="#F4D174"/>
<stop offset="0.8184" stop-color="#FFFFB0"/>
<stop offset="1" stop-color="#D7AC4C"/>
</linearGradient>
<linearGradient id="paint22_linear_91_3925" x1="38.5539" y1="43.8683" x2="29.1921" y2="31.6728" gradientUnits="userSpaceOnUse">
<stop stop-color="#966424"/>
<stop offset="0.1508" stop-color="#D7AC4C"/>
<stop offset="0.1934" stop-color="#D8AE4E"/>
<stop offset="0.2087" stop-color="#DCB455"/>
<stop offset="0.2196" stop-color="#E2BE60"/>
<stop offset="0.2284" stop-color="#EBCD71"/>
<stop offset="0.2328" stop-color="#F1D77D"/>
<stop offset="0.2471" stop-color="#F2D87E"/>
<stop offset="0.3793" stop-color="#F6DF86"/>
<stop offset="0.3947" stop-color="#EECF72"/>
<stop offset="0.4142" stop-color="#E7C161"/>
<stop offset="0.4385" stop-color="#E2B756"/>
<stop offset="0.4725" stop-color="#DFB24F"/>
<stop offset="0.567" stop-color="#DEB04D"/>
<stop offset="0.6061" stop-color="#FAEC97"/>
<stop offset="0.6341" stop-color="#FBED99"/>
<stop offset="0.6732" stop-color="#F4D174"/>
<stop offset="0.8184" stop-color="#FFFFB0"/>
<stop offset="1" stop-color="#D7AC4C"/>
</linearGradient>
<linearGradient id="paint23_linear_91_3925" x1="34.4503" y1="32.3871" x2="29.8739" y2="23.3811" gradientUnits="userSpaceOnUse">
<stop stop-color="#966424"/>
<stop offset="0.1508" stop-color="#D7AC4C"/>
<stop offset="0.1934" stop-color="#D8AE4E"/>
<stop offset="0.2087" stop-color="#DCB455"/>
<stop offset="0.2196" stop-color="#E2BE60"/>
<stop offset="0.2284" stop-color="#EBCD71"/>
<stop offset="0.2328" stop-color="#F1D77D"/>
<stop offset="0.2471" stop-color="#F2D87E"/>
<stop offset="0.3793" stop-color="#F6DF86"/>
<stop offset="0.3947" stop-color="#EECF72"/>
<stop offset="0.4142" stop-color="#E7C161"/>
<stop offset="0.4385" stop-color="#E2B756"/>
<stop offset="0.4725" stop-color="#DFB24F"/>
<stop offset="0.567" stop-color="#DEB04D"/>
<stop offset="0.6061" stop-color="#FAEC97"/>
<stop offset="0.6341" stop-color="#FBED99"/>
<stop offset="0.6732" stop-color="#F4D174"/>
<stop offset="0.8184" stop-color="#FFFFB0"/>
<stop offset="1" stop-color="#D7AC4C"/>
</linearGradient>
<linearGradient id="paint24_linear_91_3925" x1="16.9941" y1="15.6541" x2="39.5135" y2="40.7647" gradientUnits="userSpaceOnUse">
<stop stop-color="#D7AC4C"/>
<stop offset="0.1816" stop-color="#FFFFB0"/>
<stop offset="0.3268" stop-color="#F4D174"/>
<stop offset="0.3659" stop-color="#FBED99"/>
<stop offset="0.3939" stop-color="#FAEC97"/>
<stop offset="0.433" stop-color="#DEB04D"/>
<stop offset="0.5275" stop-color="#DFB24F"/>
<stop offset="0.5615" stop-color="#E2B756"/>
<stop offset="0.5858" stop-color="#E7C161"/>
<stop offset="0.6053" stop-color="#EECF72"/>
<stop offset="0.6207" stop-color="#F6DF86"/>
<stop offset="0.7529" stop-color="#F2D87E"/>
<stop offset="0.7672" stop-color="#F1D77D"/>
<stop offset="0.7716" stop-color="#EBCD71"/>
<stop offset="0.7804" stop-color="#E2BE60"/>
<stop offset="0.7913" stop-color="#DCB455"/>
<stop offset="0.8066" stop-color="#D8AE4E"/>
<stop offset="0.8492" stop-color="#D7AC4C"/>
<stop offset="1" stop-color="#966424"/>
</linearGradient>
<linearGradient id="paint25_linear_91_3925" x1="20.5152" y1="12.3702" x2="59.978" y2="56.3759" gradientUnits="userSpaceOnUse">
<stop stop-color="#D7AC4C"/>
<stop offset="0.1816" stop-color="#FFFFB0"/>
<stop offset="0.3268" stop-color="#F4D174"/>
<stop offset="0.3659" stop-color="#FBED99"/>
<stop offset="0.3939" stop-color="#FAEC97"/>
<stop offset="0.433" stop-color="#DEB04D"/>
<stop offset="0.5275" stop-color="#DFB24F"/>
<stop offset="0.5615" stop-color="#E2B756"/>
<stop offset="0.5858" stop-color="#E7C161"/>
<stop offset="0.6053" stop-color="#EECF72"/>
<stop offset="0.6207" stop-color="#F6DF86"/>
<stop offset="0.7529" stop-color="#F2D87E"/>
<stop offset="0.7672" stop-color="#F1D77D"/>
<stop offset="0.7716" stop-color="#EBCD71"/>
<stop offset="0.7804" stop-color="#E2BE60"/>
<stop offset="0.7913" stop-color="#DCB455"/>
<stop offset="0.8066" stop-color="#D8AE4E"/>
<stop offset="0.8492" stop-color="#D7AC4C"/>
<stop offset="1" stop-color="#966424"/>
</linearGradient>
</defs>
</svg>
