<svg width="96" height="145" viewBox="0 0 96 145" fill="none" xmlns="http://www.w3.org/2000/svg">
<path d="M85.9941 70.1262C84.2314 63.1479 76.1569 55.7692 72.8589 42.499C72.8589 42.499 73.0295 34.2623 75.1902 25.1677C62.9648 29.9724 58.5864 43.5286 58.5864 43.5286C58.5864 43.5286 60.0079 27.9704 55.857 16.8166C51.6491 5.66272 45.2805 1.88757 42.4374 0C42.4374 0 45.3374 7.83629 40.561 16.8738C35.5002 26.4832 23.559 39.5247 21.114 51.0789C18.6689 62.6331 21.0571 69.2682 22.0238 73.1578C22.9904 77.1045 24.6963 81.5661 24.6963 81.5661C24.6963 81.5661 14.063 77.3333 12.0728 55.5976C6.32969 68.925 7.23949 82.1381 11.2199 90.8323C15.2003 99.5266 18.9532 105.533 27.9943 110.223C37.0355 114.97 49.0335 110.738 48.2374 101.872C47.4982 94.3215 40.4472 87.4576 36.9786 80.2505C33.4531 72.8718 24.5257 49.4201 47.1001 30.9448C47.1001 30.9448 41.4139 45.931 43.6315 54.6252C45.4511 61.6607 48.408 64.5207 52.2746 69.497C57.3923 76.0177 76.4981 87.7436 67.3432 105.247C66.206 99.7554 61.4295 87.0572 51.1374 83.6252C54.2648 88.8304 58.5864 95.6371 58.8138 101.986C59.4393 110.509 54.208 113.369 51.5354 116C58.757 115.028 73.5412 110.795 81.2745 100.499C89.0078 90.3176 88.8373 81.2801 85.9941 70.1262ZM74.7922 90.432C74.7922 90.432 75.8726 86.0276 73.9393 81.1085C72.0059 76.1893 68.7079 73.1578 65.9785 69.5542C63.2491 65.9507 62.1119 62.5187 62.055 55.9408C61.9981 49.3629 66.7177 43.8718 66.7177 43.8718C66.7177 43.8718 66.604 44.1578 68.651 52.6805C70.6981 61.2604 78.8295 66.5227 79.2844 77.3905C79.7961 88.3728 74.7922 90.432 74.7922 90.432Z" fill="url(#paint0_linear_4_5074)"/>
<path d="M86.7907 70.6982C84.175 59.0868 77.8064 57.3708 74.4515 44.1006C74.4515 44.1006 72.4045 36.8363 74.5084 27.6844C66.6613 31.1736 60.179 42.8994 60.179 42.8994C60.179 42.8994 61.6006 29.572 57.3928 18.4181C53.2418 7.26428 46.93 3.43194 44.0869 1.60156C44.0869 1.60156 46.8732 11.211 41.3006 19.7909C35.7281 28.3708 25.2086 41.1262 22.7066 52.7376C20.2615 64.2919 22.6497 70.927 23.6164 74.8165C24.5831 78.7633 26.2889 83.2248 26.2889 83.2248C26.2889 83.2248 14.9733 77.9625 12.5851 59.8303C8.2635 70.0118 8.88898 83.7968 12.8125 92.4911C16.7929 101.185 20.5458 107.191 29.587 111.882C38.6281 116.629 50.6261 112.396 49.83 103.531C49.0908 95.9802 42.0399 89.1163 38.5712 81.9092C35.0458 74.5305 24.7536 52.2801 47.3281 33.8047C47.3281 33.8047 43.1771 47.9329 45.281 56.284C46.93 62.8619 49.4889 66.6943 53.9241 71.1558C58.4163 75.6745 77.977 90.6035 68.7653 106.448C67.628 100.957 63.079 88.6588 52.7869 85.284C55.9143 90.4891 60.2359 97.2958 60.4633 103.645C60.6908 109.994 58.1888 112.682 55.5163 115.371C65.0123 113.254 74.9633 108.507 80.877 101.128C86.7907 93.6351 89.8613 84.3116 86.7907 70.6982ZM76.4417 92.0335C76.4417 92.0335 77.5221 87.6292 75.5888 82.71C73.6555 77.7909 70.3574 74.7593 67.628 71.1558C64.8986 67.5522 63.7614 64.1203 63.7045 57.5424C63.6476 50.9645 68.3672 45.4734 68.3672 45.4734C68.3672 45.4734 68.2535 45.7593 70.3005 54.282C72.3476 62.8619 80.479 68.1242 80.9339 78.9921C81.4456 89.9171 76.4417 92.0335 76.4417 92.0335Z" fill="url(#paint1_linear_4_5074)"/>
<rect x="0.5" y="49.5" width="95" height="95" rx="47.5" fill="#333333"/>
<path d="M40.5151 104.5H33.7876C33.972 108.105 35.5251 111.504 38.1301 114.002C39.1784 113.157 40.3302 112.449 41.5576 111.895C40.9009 109.484 40.5506 106.999 40.5151 104.5V104.5Z" fill="#707070"/>
<path d="M35.25 97.2026C35.2511 97.3169 35.2254 97.43 35.175 97.5326C34.3423 99.2414 33.8652 101.101 33.7725 103H40.515C40.5471 100.083 41.0225 97.1871 41.925 94.4126C37.575 95.0501 35.25 96.2726 35.25 97.0001V97.2026Z" fill="#707070"/>
<path d="M39.2852 115C40.7728 116.155 42.4761 117.002 44.2952 117.49C43.2942 116.249 42.5222 114.839 42.0152 113.328C41.0449 113.78 40.1291 114.341 39.2852 115V115Z" fill="#707070"/>
<path d="M42.9526 111.348C46.2228 110.217 49.7775 110.217 53.0476 111.348C53.6384 109.112 53.9533 106.812 53.9851 104.5H42.0151C42.047 106.812 42.3618 109.112 42.9526 111.348V111.348Z" fill="#707070"/>
<path d="M60.75 90.25C60.75 89.23 56.25 87.25 48 87.25C39.75 87.25 35.25 89.23 35.25 90.25V94.885C37.7175 93.3175 42.87 92.5 48 92.5C53.13 92.5 58.2825 93.3175 60.75 94.885V90.25Z" fill="url(#paint2_linear_4_5074)"/>
<path d="M52.3951 94.2097C50.9346 94.0653 49.4677 93.9952 48.0001 93.9997C46.5325 93.9952 45.0656 94.0653 43.6051 94.2097C42.5782 97.0277 42.0404 100.001 42.0151 103H53.9851C53.9599 100.001 53.4221 97.0277 52.3951 94.2097V94.2097Z" fill="#707070"/>
<path d="M48.0001 112C46.4351 112.005 44.8816 112.268 43.4026 112.78C44.5726 116.065 46.3201 118 48.0001 118C49.6801 118 51.4276 116.065 52.5976 112.78C51.1186 112.268 49.5651 112.005 48.0001 112V112Z" fill="#707070"/>
<path d="M54.4426 111.895C55.67 112.449 56.8218 113.157 57.8701 114.002C60.4751 111.504 62.0283 108.105 62.2126 104.5H55.4851C55.4496 106.999 55.0994 109.484 54.4426 111.895V111.895Z" fill="#707070"/>
<path d="M51.7051 117.49C53.5241 117.002 55.2274 116.155 56.7151 115C55.8712 114.341 54.9553 113.78 53.9851 113.328C53.4781 114.839 52.706 116.249 51.7051 117.49Z" fill="#707070"/>
<path d="M60.7502 97.2026V97.0001C60.7502 96.2726 58.4252 95.0501 54.0752 94.4126C54.9777 97.1871 55.4531 100.083 55.4852 103H62.2277C62.135 101.101 61.6579 99.2414 60.8252 97.5326C60.7748 97.43 60.7491 97.3169 60.7502 97.2026V97.2026Z" fill="#707070"/>
<path d="M69.4148 103.079L68.2501 100.75V89.7579L68.4826 89.5674L48.0001 76.1499L27.5176 89.5674L33.7501 94.6674V90.2499C33.7501 87.2949 40.9201 85.7499 48.0001 85.7499C55.0801 85.7499 62.2501 87.2949 62.2501 90.2499V94.6674L66.7501 90.9849V100.75L65.5853 103.079C65.471 103.308 65.4171 103.562 65.4287 103.818C65.4402 104.073 65.5168 104.321 65.6512 104.539C65.7857 104.756 65.9734 104.936 66.1967 105.06C66.42 105.185 66.6714 105.25 66.9271 105.25H68.0731C68.3287 105.25 68.5801 105.185 68.8034 105.06C69.0267 104.936 69.2145 104.756 69.3489 104.539C69.4833 104.321 69.56 104.073 69.5715 103.818C69.583 103.562 69.5291 103.308 69.4148 103.079Z" fill="url(#paint3_linear_4_5074)"/>
<rect x="0.5" y="49.5" width="95" height="95" rx="47.5" stroke="url(#paint4_linear_4_5074)"/>
<defs>
<linearGradient id="paint0_linear_4_5074" x1="30.5785" y1="49.0777" x2="79.7472" y2="94.2878" gradientUnits="userSpaceOnUse">
<stop stop-color="#FFC737"/>
<stop offset="1" stop-color="#F17C34"/>
</linearGradient>
<linearGradient id="paint1_linear_4_5074" x1="85.4396" y1="94.139" x2="26.147" y2="49.3201" gradientUnits="userSpaceOnUse">
<stop stop-color="#DE5E2F"/>
<stop offset="0.5915" stop-color="#E77F30"/>
<stop offset="0.8434" stop-color="#F8AC2D"/>
</linearGradient>
<linearGradient id="paint2_linear_4_5074" x1="48" y1="87.25" x2="48" y2="94.885" gradientUnits="userSpaceOnUse">
<stop stop-color="#DE5E2F"/>
<stop offset="1" stop-color="#F8AC2D"/>
</linearGradient>
<linearGradient id="paint3_linear_4_5074" x1="48.5453" y1="76.1499" x2="48.5453" y2="105.25" gradientUnits="userSpaceOnUse">
<stop stop-color="#DE5E2F"/>
<stop offset="1" stop-color="#F8AC2D"/>
</linearGradient>
<linearGradient id="paint4_linear_4_5074" x1="48" y1="49" x2="48" y2="145" gradientUnits="userSpaceOnUse">
<stop stop-color="#F8AC2D"/>
<stop offset="1" stop-color="#DE5E2F" stop-opacity="0"/>
</linearGradient>
</defs>
</svg>
