<svg width="96" height="145" viewBox="0 0 96 145" fill="none" xmlns="http://www.w3.org/2000/svg">
<path d="M85.9941 70.1262C84.2314 63.1479 76.1569 55.7692 72.8589 42.499C72.8589 42.499 73.0295 34.2623 75.1902 25.1677C62.9648 29.9724 58.5864 43.5286 58.5864 43.5286C58.5864 43.5286 60.0079 27.9704 55.857 16.8166C51.6491 5.66272 45.2805 1.88757 42.4374 0C42.4374 0 45.3374 7.83629 40.561 16.8738C35.5002 26.4832 23.559 39.5247 21.114 51.0789C18.6689 62.6331 21.0571 69.2682 22.0238 73.1578C22.9904 77.1045 24.6963 81.5661 24.6963 81.5661C24.6963 81.5661 14.063 77.3333 12.0728 55.5976C6.32969 68.925 7.23949 82.1381 11.2199 90.8323C15.2003 99.5266 18.9532 105.533 27.9943 110.223C37.0355 114.97 49.0335 110.738 48.2374 101.872C47.4982 94.3215 40.4472 87.4576 36.9786 80.2505C33.4531 72.8718 24.5257 49.4201 47.1001 30.9448C47.1001 30.9448 41.4139 45.931 43.6315 54.6252C45.4511 61.6607 48.408 64.5207 52.2746 69.497C57.3923 76.0177 76.4981 87.7436 67.3432 105.247C66.206 99.7554 61.4295 87.0572 51.1374 83.6252C54.2648 88.8304 58.5864 95.6371 58.8138 101.986C59.4393 110.509 54.208 113.369 51.5354 116C58.757 115.028 73.5412 110.795 81.2745 100.499C89.0078 90.3176 88.8373 81.2801 85.9941 70.1262ZM74.7922 90.432C74.7922 90.432 75.8726 86.0276 73.9393 81.1085C72.0059 76.1893 68.7079 73.1578 65.9785 69.5542C63.2491 65.9507 62.1119 62.5187 62.055 55.9408C61.9981 49.3629 66.7177 43.8718 66.7177 43.8718C66.7177 43.8718 66.604 44.1578 68.651 52.6805C70.6981 61.2604 78.8295 66.5227 79.2844 77.3905C79.7961 88.3728 74.7922 90.432 74.7922 90.432Z" fill="url(#paint0_linear_4_5092)"/>
<path d="M86.7907 70.6982C84.175 59.0868 77.8064 57.3708 74.4515 44.1006C74.4515 44.1006 72.4045 36.8363 74.5084 27.6844C66.6613 31.1736 60.179 42.8994 60.179 42.8994C60.179 42.8994 61.6006 29.572 57.3928 18.4181C53.2418 7.26428 46.93 3.43194 44.0869 1.60156C44.0869 1.60156 46.8732 11.211 41.3006 19.7909C35.7281 28.3708 25.2086 41.1262 22.7066 52.7376C20.2615 64.2919 22.6497 70.927 23.6164 74.8165C24.5831 78.7633 26.2889 83.2248 26.2889 83.2248C26.2889 83.2248 14.9733 77.9625 12.5851 59.8303C8.2635 70.0118 8.88898 83.7968 12.8125 92.4911C16.7929 101.185 20.5458 107.191 29.587 111.882C38.6281 116.629 50.6261 112.396 49.83 103.531C49.0908 95.9802 42.0399 89.1163 38.5712 81.9092C35.0458 74.5305 24.7536 52.2801 47.3281 33.8047C47.3281 33.8047 43.1771 47.9329 45.281 56.284C46.93 62.8619 49.4889 66.6943 53.9241 71.1558C58.4163 75.6745 77.977 90.6035 68.7653 106.448C67.628 100.957 63.079 88.6588 52.7869 85.284C55.9143 90.4891 60.2359 97.2958 60.4633 103.645C60.6908 109.994 58.1888 112.682 55.5163 115.371C65.0123 113.254 74.9633 108.507 80.877 101.128C86.7907 93.6351 89.8613 84.3116 86.7907 70.6982ZM76.4417 92.0335C76.4417 92.0335 77.5221 87.6292 75.5888 82.71C73.6555 77.7909 70.3574 74.7593 67.628 71.1558C64.8986 67.5522 63.7614 64.1203 63.7045 57.5424C63.6476 50.9645 68.3672 45.4734 68.3672 45.4734C68.3672 45.4734 68.2535 45.7593 70.3005 54.282C72.3476 62.8619 80.479 68.1242 80.9339 78.9921C81.4456 89.9171 76.4417 92.0335 76.4417 92.0335Z" fill="url(#paint1_linear_4_5092)"/>
<rect x="0.5" y="49.5" width="95" height="95" rx="47.5" fill="#333333"/>
<g clip-path="url(#clip0_4_5092)">
<path d="M64.8741 101.219C67.2039 101.219 69.0927 99.3306 69.0927 97.0008C69.0927 94.6709 67.2039 92.7822 64.8741 92.7822C62.5442 92.7822 60.6555 94.6709 60.6555 97.0008C60.6555 99.3306 62.5442 101.219 64.8741 101.219Z" fill="url(#paint2_linear_4_5092)"/>
<path d="M31.1256 101.219C33.4554 101.219 35.3441 99.3306 35.3441 97.0008C35.3441 94.6709 33.4554 92.7822 31.1256 92.7822C28.7957 92.7822 26.907 94.6709 26.907 97.0008C26.907 99.3306 28.7957 101.219 31.1256 101.219Z" fill="url(#paint3_linear_4_5092)"/>
<path d="M47.9998 118.094C50.3297 118.094 52.2184 116.205 52.2184 113.875C52.2184 111.545 50.3297 109.657 47.9998 109.657C45.67 109.657 43.7812 111.545 43.7812 113.875C43.7812 116.205 45.67 118.094 47.9998 118.094Z" fill="url(#paint4_linear_4_5092)"/>
<path d="M47.9998 84.3453C50.3297 84.3453 52.2184 82.4566 52.2184 80.1268C52.2184 77.7969 50.3297 75.9082 47.9998 75.9082C45.67 75.9082 43.7812 77.7969 43.7812 80.1268C43.7812 82.4566 45.67 84.3453 47.9998 84.3453Z" fill="url(#paint5_linear_4_5092)"/>
<path d="M38.8746 76.9504C38.3967 75.2792 38.1235 74.1006 38.1139 74.0677C37.9285 73.3247 37.1801 72.8633 36.4413 73.0364C35.697 73.2039 35.2218 73.9358 35.3715 74.6842C35.6535 76.0834 36.3047 78.2052 36.2229 77.9206C37.6374 82.854 40.3223 87.335 43.9512 90.964L47.9998 95.0126L52.0484 90.964C55.6773 87.335 58.3622 82.854 59.7765 77.9206C59.8583 77.6352 60.342 76.1028 60.628 74.6842C60.7777 73.9358 60.3025 73.2039 59.5583 73.0364C58.8112 72.8647 58.0711 73.3247 57.8857 74.0677C57.876 74.1006 57.6041 75.2765 57.1276 76.9422C55.9069 80.7365 53.0862 87.1577 47.9998 87.1577C42.916 87.1576 40.0982 80.7446 38.8746 76.9504V76.9504Z" fill="#707070"/>
<path d="M49.9883 97.0009L54.0369 101.05C57.6658 104.678 62.1469 107.363 67.0802 108.778C67.3657 108.859 68.8981 109.343 70.3166 109.629C71.065 109.788 71.797 109.305 71.9645 108.559C72.132 107.814 71.6747 107.071 70.9332 106.887C70.9002 106.877 69.8181 106.605 68.1524 106.129C64.3581 104.908 57.8432 102.087 57.8432 97.0009C57.8432 91.9171 64.3499 89.0993 68.1442 87.8758C69.8154 87.3978 70.9002 87.1246 70.9332 87.115C71.6747 86.9296 72.132 86.188 71.9645 85.4424C71.797 84.6967 71.065 84.2134 70.3166 84.3727C68.9175 84.6546 66.8894 85.3056 67.174 85.2241C62.2406 86.6385 57.6659 89.3233 54.0369 92.9523L49.9883 97.0009Z" fill="#707070"/>
<path d="M24.0353 108.559C24.2028 109.305 24.9348 109.788 25.6832 109.629C27.0823 109.347 29.2042 108.696 28.9195 108.778C33.8529 107.363 38.3339 104.678 41.9629 101.05L46.0115 97.0009L41.9629 92.9523C38.334 89.3234 33.8529 86.6385 28.9195 85.2241C28.6341 85.1422 27.1017 84.6587 25.6832 84.3727C24.9348 84.2134 24.2028 84.6967 24.0353 85.4424C23.8678 86.188 24.3251 86.931 25.0666 87.115C25.0996 87.1247 26.2754 87.3965 27.9411 87.873C31.7354 89.0938 38.1566 91.9144 38.1566 97.0009C38.1566 102.085 31.7436 104.902 27.9494 106.126C26.2782 106.604 25.0996 106.877 25.0666 106.887C24.3251 107.072 23.8678 107.814 24.0353 108.559V108.559Z" fill="#707070"/>
<path d="M57.1249 117.051C57.6028 118.723 57.8761 119.901 57.8857 119.934C58.0697 120.677 58.8085 121.127 59.5583 120.965C60.3025 120.798 60.7777 120.066 60.628 119.318C60.5937 119.147 59.7826 116.102 59.7765 116.081C58.3622 111.148 55.6773 106.667 52.0484 103.038L47.9998 98.9893L43.9512 103.038C40.3223 106.667 37.6374 111.148 36.2229 116.081C36.2169 116.102 35.4059 119.147 35.3715 119.318C35.2218 120.066 35.697 120.798 36.4413 120.965C37.1847 121.132 37.9282 120.679 38.1139 119.934C38.1235 119.901 38.3954 118.725 38.8719 117.06C40.0927 113.265 42.9133 106.844 47.9998 106.844C53.0834 106.844 55.9013 113.257 57.1249 117.051V117.051Z" fill="#707070"/>
</g>
<rect x="0.5" y="49.5" width="95" height="95" rx="47.5" stroke="url(#paint6_linear_4_5092)"/>
<defs>
<linearGradient id="paint0_linear_4_5092" x1="30.5785" y1="49.0777" x2="79.7472" y2="94.2878" gradientUnits="userSpaceOnUse">
<stop stop-color="#FFC737"/>
<stop offset="1" stop-color="#F17C34"/>
</linearGradient>
<linearGradient id="paint1_linear_4_5092" x1="85.4396" y1="94.139" x2="26.147" y2="49.3201" gradientUnits="userSpaceOnUse">
<stop stop-color="#DE5E2F"/>
<stop offset="0.5915" stop-color="#E77F30"/>
<stop offset="0.8434" stop-color="#F8AC2D"/>
</linearGradient>
<linearGradient id="paint2_linear_4_5092" x1="64.8741" y1="92.7822" x2="64.8741" y2="101.219" gradientUnits="userSpaceOnUse">
<stop stop-color="#DE5E2F"/>
<stop offset="1" stop-color="#F8AC2D"/>
</linearGradient>
<linearGradient id="paint3_linear_4_5092" x1="31.1256" y1="92.7822" x2="31.1256" y2="101.219" gradientUnits="userSpaceOnUse">
<stop stop-color="#DE5E2F"/>
<stop offset="1" stop-color="#F8AC2D"/>
</linearGradient>
<linearGradient id="paint4_linear_4_5092" x1="47.9998" y1="109.657" x2="47.9998" y2="118.094" gradientUnits="userSpaceOnUse">
<stop stop-color="#DE5E2F"/>
<stop offset="1" stop-color="#F8AC2D"/>
</linearGradient>
<linearGradient id="paint5_linear_4_5092" x1="47.9998" y1="75.9082" x2="47.9998" y2="84.3453" gradientUnits="userSpaceOnUse">
<stop stop-color="#DE5E2F"/>
<stop offset="1" stop-color="#F8AC2D"/>
</linearGradient>
<linearGradient id="paint6_linear_4_5092" x1="48" y1="49" x2="48" y2="145" gradientUnits="userSpaceOnUse">
<stop stop-color="#F8AC2D"/>
<stop offset="1" stop-color="#DE5E2F" stop-opacity="0"/>
</linearGradient>
<clipPath id="clip0_4_5092">
<rect width="48" height="48" fill="white" transform="translate(24 73)"/>
</clipPath>
</defs>
</svg>
