<svg width="96" height="145" viewBox="0 0 96 145" fill="none" xmlns="http://www.w3.org/2000/svg">
<path d="M85.9941 70.1262C84.2314 63.1479 76.1569 55.7692 72.8589 42.499C72.8589 42.499 73.0295 34.2623 75.1902 25.1677C62.9648 29.9724 58.5864 43.5286 58.5864 43.5286C58.5864 43.5286 60.0079 27.9704 55.857 16.8166C51.6491 5.66272 45.2805 1.88757 42.4374 0C42.4374 0 45.3374 7.83629 40.561 16.8738C35.5002 26.4832 23.559 39.5247 21.114 51.0789C18.6689 62.6331 21.0571 69.2682 22.0238 73.1578C22.9904 77.1045 24.6963 81.5661 24.6963 81.5661C24.6963 81.5661 14.063 77.3333 12.0728 55.5976C6.32969 68.925 7.23949 82.1381 11.2199 90.8323C15.2003 99.5266 18.9532 105.533 27.9943 110.223C37.0355 114.97 49.0335 110.738 48.2374 101.872C47.4982 94.3215 40.4472 87.4576 36.9786 80.2505C33.4531 72.8718 24.5257 49.4201 47.1001 30.9448C47.1001 30.9448 41.4139 45.931 43.6315 54.6252C45.4511 61.6607 48.408 64.5207 52.2746 69.497C57.3923 76.0177 76.4981 87.7436 67.3432 105.247C66.206 99.7554 61.4295 87.0572 51.1374 83.6252C54.2648 88.8304 58.5864 95.6371 58.8138 101.986C59.4393 110.509 54.208 113.369 51.5354 116C58.757 115.028 73.5412 110.795 81.2745 100.499C89.0078 90.3176 88.8373 81.2801 85.9941 70.1262ZM74.7922 90.432C74.7922 90.432 75.8726 86.0276 73.9393 81.1085C72.0059 76.1893 68.7079 73.1578 65.9785 69.5542C63.2491 65.9507 62.1119 62.5187 62.055 55.9408C61.9981 49.3629 66.7177 43.8718 66.7177 43.8718C66.7177 43.8718 66.604 44.1578 68.651 52.6805C70.6981 61.2604 78.8295 66.5227 79.2844 77.3905C79.7961 88.3728 74.7922 90.432 74.7922 90.432Z" fill="url(#paint0_linear_4_5107)"/>
<path d="M86.7907 70.6982C84.175 59.0868 77.8064 57.3708 74.4515 44.1006C74.4515 44.1006 72.4045 36.8363 74.5084 27.6844C66.6613 31.1736 60.179 42.8994 60.179 42.8994C60.179 42.8994 61.6006 29.572 57.3928 18.4181C53.2418 7.26428 46.93 3.43194 44.0869 1.60156C44.0869 1.60156 46.8732 11.211 41.3006 19.7909C35.7281 28.3708 25.2086 41.1262 22.7066 52.7376C20.2615 64.2919 22.6497 70.927 23.6164 74.8165C24.5831 78.7633 26.2889 83.2248 26.2889 83.2248C26.2889 83.2248 14.9733 77.9625 12.5851 59.8303C8.2635 70.0118 8.88898 83.7968 12.8125 92.4911C16.7929 101.185 20.5458 107.191 29.587 111.882C38.6281 116.629 50.6261 112.396 49.83 103.531C49.0908 95.9802 42.0399 89.1163 38.5712 81.9092C35.0458 74.5305 24.7536 52.2801 47.3281 33.8047C47.3281 33.8047 43.1771 47.9329 45.281 56.284C46.93 62.8619 49.4889 66.6943 53.9241 71.1558C58.4163 75.6745 77.977 90.6035 68.7653 106.448C67.628 100.957 63.079 88.6588 52.7869 85.284C55.9143 90.4891 60.2359 97.2958 60.4633 103.645C60.6908 109.994 58.1888 112.682 55.5163 115.371C65.0123 113.254 74.9633 108.507 80.877 101.128C86.7907 93.6351 89.8613 84.3116 86.7907 70.6982ZM76.4417 92.0335C76.4417 92.0335 77.5221 87.6292 75.5888 82.71C73.6555 77.7909 70.3574 74.7593 67.628 71.1558C64.8986 67.5522 63.7614 64.1203 63.7045 57.5424C63.6476 50.9645 68.3672 45.4734 68.3672 45.4734C68.3672 45.4734 68.2535 45.7593 70.3005 54.282C72.3476 62.8619 80.479 68.1242 80.9339 78.9921C81.4456 89.9171 76.4417 92.0335 76.4417 92.0335Z" fill="url(#paint1_linear_4_5107)"/>
<rect x="0.5" y="49.5" width="95" height="95" rx="47.5" fill="#333333"/>
<g clip-path="url(#clip0_4_5107)">
<path d="M39.5625 81.5313H40.9687V84.4375C40.9687 85.2148 41.5977 85.8438 42.375 85.8438H48C48.7773 85.8438 49.4062 85.2148 49.4062 84.4375V81.5313H50.8125C51.381 81.5313 51.8946 81.1894 52.1116 80.6633C52.3299 80.1374 52.2091 79.5331 51.8067 79.1307L46.1817 73.412C45.6324 72.8627 44.7425 72.8627 44.1932 73.412L38.5682 79.1307C38.1658 79.5331 38.045 80.1373 38.2633 80.6633C38.4803 81.1894 38.994 81.5313 39.5625 81.5313V81.5313Z" fill="url(#paint2_linear_4_5107)"/>
<path d="M57.8438 98.5C51.6305 98.5 46.5938 103.537 46.5938 109.75C46.5938 115.963 51.6305 121 57.8438 121C64.057 121 69.0938 115.963 69.0938 109.75C69.0938 103.537 64.057 98.5 57.8438 98.5ZM60.2002 114.811C59.8956 114.963 59.5762 115.083 59.2495 115.174V115.562C59.2495 116.339 58.6199 116.969 57.8433 116.969C57.0667 116.969 56.437 116.339 56.437 115.562V115.218C55.8517 115.07 55.3057 114.823 54.8433 114.476C54.222 114.01 54.096 113.128 54.562 112.507C55.0281 111.886 55.9095 111.76 56.5308 112.226C57.0933 112.648 58.1752 112.679 58.9423 112.295C59.2507 112.141 59.4171 111.956 59.4171 111.859C59.4171 111.691 59.4171 111.665 59.2299 111.565C58.863 111.369 58.2143 111.249 57.5868 111.133C56.7491 110.977 55.883 110.816 55.1324 110.416C54.0364 109.831 53.457 108.871 53.457 107.641C53.457 106.408 54.1958 105.332 55.4841 104.688C55.7894 104.536 56.1095 104.415 56.437 104.324V103.937C56.437 103.161 57.0667 102.531 57.8433 102.531C58.6199 102.531 59.2495 103.161 59.2495 103.937V104.282C59.835 104.429 60.3808 104.677 60.8433 105.024C61.4647 105.49 61.5906 106.371 61.1245 106.993C60.6585 107.614 59.7772 107.74 59.1558 107.274C58.5924 106.851 57.5096 106.82 56.7418 107.204C56.4317 107.359 56.2695 107.541 56.2695 107.64C56.2695 107.809 56.2695 107.835 56.4566 107.935C56.8236 108.13 57.4724 108.251 58.0998 108.367C58.9374 108.523 59.8036 108.683 60.5542 109.084C61.6502 109.669 62.2296 110.629 62.2296 111.859C62.2297 113.09 61.4899 114.166 60.2002 114.811V114.811Z" fill="url(#paint3_linear_4_5107)"/>
<path d="M33.9375 92.875H59.25C60.0266 92.875 60.6562 92.2454 60.6562 91.4688V90.0625C60.6562 89.2859 60.0266 88.6562 59.25 88.6562H33.9375C33.1609 88.6562 32.5312 89.2859 32.5312 90.0625V91.4688C32.5312 92.2454 33.1609 92.875 33.9375 92.875Z" fill="#707070"/>
<path d="M29.7188 118.188V119.594C29.7188 120.37 30.3484 121 31.125 121H49.4933C47.9677 119.864 46.6998 118.431 45.7374 116.781H31.125C30.3484 116.781 29.7188 117.411 29.7188 118.188V118.188Z" fill="#707070"/>
<path d="M29.7188 104.125V105.531C29.7188 106.308 30.3484 106.938 31.125 106.938H44.0655C44.3752 105.418 44.9796 104.018 45.7374 102.719H31.125C30.3484 102.719 29.7188 103.348 29.7188 104.125Z" fill="#707070"/>
<path d="M28.3125 113.969H44.4993C44.0737 112.628 43.7812 111.229 43.7812 109.75H28.3125C27.5359 109.75 26.9062 110.38 26.9062 111.156V112.562C26.9062 113.339 27.5359 113.969 28.3125 113.969Z" fill="#707070"/>
<path d="M28.3125 99.9062H47.8265C50.3794 97.3085 53.9227 95.6875 57.8438 95.6875H28.3125C27.5359 95.6875 26.9062 96.3171 26.9062 97.0938V98.5C26.9062 99.2766 27.5359 99.9062 28.3125 99.9062Z" fill="#707070"/>
</g>
<rect x="0.5" y="49.5" width="95" height="95" rx="47.5" stroke="url(#paint4_linear_4_5107)"/>
<defs>
<linearGradient id="paint0_linear_4_5107" x1="30.5785" y1="49.0777" x2="79.7472" y2="94.2878" gradientUnits="userSpaceOnUse">
<stop stop-color="#FFC737"/>
<stop offset="1" stop-color="#F17C34"/>
</linearGradient>
<linearGradient id="paint1_linear_4_5107" x1="85.4396" y1="94.139" x2="26.147" y2="49.3201" gradientUnits="userSpaceOnUse">
<stop stop-color="#DE5E2F"/>
<stop offset="0.5915" stop-color="#E77F30"/>
<stop offset="0.8434" stop-color="#F8AC2D"/>
</linearGradient>
<linearGradient id="paint2_linear_4_5107" x1="45.1874" y1="73" x2="45.1874" y2="85.8438" gradientUnits="userSpaceOnUse">
<stop stop-color="#DE5E2F"/>
<stop offset="1" stop-color="#F8AC2D"/>
</linearGradient>
<linearGradient id="paint3_linear_4_5107" x1="57.8438" y1="98.5" x2="57.8438" y2="121" gradientUnits="userSpaceOnUse">
<stop stop-color="#DE5E2F"/>
<stop offset="1" stop-color="#F8AC2D"/>
</linearGradient>
<linearGradient id="paint4_linear_4_5107" x1="48" y1="49" x2="48" y2="145" gradientUnits="userSpaceOnUse">
<stop stop-color="#F8AC2D"/>
<stop offset="1" stop-color="#DE5E2F" stop-opacity="0"/>
</linearGradient>
<clipPath id="clip0_4_5107">
<rect width="48" height="48" fill="white" transform="translate(24 73)"/>
</clipPath>
</defs>
</svg>
