<svg width="96" height="145" viewBox="0 0 96 145" fill="none" xmlns="http://www.w3.org/2000/svg">
<path d="M85.9941 70.1262C84.2314 63.1479 76.1569 55.7692 72.8589 42.499C72.8589 42.499 73.0295 34.2623 75.1902 25.1677C62.9648 29.9724 58.5864 43.5286 58.5864 43.5286C58.5864 43.5286 60.0079 27.9704 55.857 16.8166C51.6491 5.66272 45.2805 1.88757 42.4374 0C42.4374 0 45.3374 7.83629 40.561 16.8738C35.5002 26.4832 23.559 39.5247 21.114 51.0789C18.6689 62.6331 21.0571 69.2682 22.0238 73.1578C22.9904 77.1045 24.6963 81.5661 24.6963 81.5661C24.6963 81.5661 14.063 77.3333 12.0728 55.5976C6.32969 68.925 7.23949 82.1381 11.2199 90.8323C15.2003 99.5266 18.9532 105.533 27.9943 110.223C37.0355 114.97 49.0335 110.738 48.2374 101.872C47.4982 94.3215 40.4472 87.4576 36.9786 80.2505C33.4531 72.8718 24.5257 49.4201 47.1001 30.9448C47.1001 30.9448 41.4139 45.931 43.6315 54.6252C45.4511 61.6607 48.408 64.5207 52.2746 69.497C57.3923 76.0177 76.4981 87.7436 67.3432 105.247C66.206 99.7554 61.4295 87.0572 51.1374 83.6252C54.2648 88.8304 58.5864 95.6371 58.8138 101.986C59.4393 110.509 54.208 113.369 51.5354 116C58.757 115.028 73.5412 110.795 81.2745 100.499C89.0078 90.3176 88.8373 81.2801 85.9941 70.1262ZM74.7922 90.432C74.7922 90.432 75.8726 86.0276 73.9393 81.1085C72.0059 76.1893 68.7079 73.1578 65.9785 69.5542C63.2491 65.9507 62.1119 62.5187 62.055 55.9408C61.9981 49.3629 66.7177 43.8718 66.7177 43.8718C66.7177 43.8718 66.604 44.1578 68.651 52.6805C70.6981 61.2604 78.8295 66.5227 79.2844 77.3905C79.7961 88.3728 74.7922 90.432 74.7922 90.432Z" fill="url(#paint0_linear_4_5121)"/>
<path d="M86.7907 70.6982C84.175 59.0868 77.8064 57.3708 74.4515 44.1006C74.4515 44.1006 72.4045 36.8363 74.5084 27.6844C66.6613 31.1736 60.179 42.8994 60.179 42.8994C60.179 42.8994 61.6006 29.572 57.3928 18.4181C53.2418 7.26428 46.93 3.43194 44.0869 1.60156C44.0869 1.60156 46.8732 11.211 41.3006 19.7909C35.7281 28.3708 25.2086 41.1262 22.7066 52.7376C20.2615 64.2919 22.6497 70.927 23.6164 74.8165C24.5831 78.7633 26.2889 83.2248 26.2889 83.2248C26.2889 83.2248 14.9733 77.9625 12.5851 59.8303C8.2635 70.0118 8.88898 83.7968 12.8125 92.4911C16.7929 101.185 20.5458 107.191 29.587 111.882C38.6281 116.629 50.6261 112.396 49.83 103.531C49.0908 95.9802 42.0399 89.1163 38.5712 81.9092C35.0458 74.5305 24.7536 52.2801 47.3281 33.8047C47.3281 33.8047 43.1771 47.9329 45.281 56.284C46.93 62.8619 49.4889 66.6943 53.9241 71.1558C58.4163 75.6745 77.977 90.6035 68.7653 106.448C67.628 100.957 63.079 88.6588 52.7869 85.284C55.9143 90.4891 60.2359 97.2958 60.4633 103.645C60.6908 109.994 58.1888 112.682 55.5163 115.371C65.0123 113.254 74.9633 108.507 80.877 101.128C86.7907 93.6351 89.8613 84.3116 86.7907 70.6982ZM76.4417 92.0335C76.4417 92.0335 77.5221 87.6292 75.5888 82.71C73.6555 77.7909 70.3574 74.7593 67.628 71.1558C64.8986 67.5522 63.7614 64.1203 63.7045 57.5424C63.6476 50.9645 68.3672 45.4734 68.3672 45.4734C68.3672 45.4734 68.2535 45.7593 70.3005 54.282C72.3476 62.8619 80.479 68.1242 80.9339 78.9921C81.4456 89.9171 76.4417 92.0335 76.4417 92.0335Z" fill="url(#paint1_linear_4_5121)"/>
<rect x="0.5" y="49.5" width="95" height="95" rx="47.5" fill="#333333"/>
<path d="M64.4324 110.719C63.4656 107.842 59.6127 106.041 56.8656 104.834C55.7895 104.362 52.8101 103.563 52.452 102.208C52.3239 101.719 52.3412 101.259 52.4463 100.818C52.2807 100.85 52.1127 100.868 51.9389 100.868H50.149C48.72 100.868 47.5589 99.7058 47.5589 98.2778C47.5589 96.8508 48.7205 95.6906 50.149 95.6906H51.9389C52.5303 95.6906 53.0909 95.8908 53.5431 96.2479C54.206 96.1596 54.8453 96.018 55.4415 95.8322C56.2244 94.1921 56.8349 92.2308 56.9717 90.5426C57.5559 83.3196 53.1279 79.0937 46.7789 79.8242C42.1628 80.3556 39.4052 83.7977 39.1071 88.229C38.8056 92.7458 40.4804 96.0818 42.2592 98.5289C43.0383 99.5988 43.8567 100.287 43.7309 101.576C43.585 103.1 41.9549 103.525 40.789 103.994C39.4076 104.549 37.9196 105.39 37.2168 105.78C34.7962 107.117 32.1394 108.726 31.5423 110.929C30.2199 115.809 34.6858 117.288 38.3727 117.97C41.5368 118.554 45.1047 118.6 48.0394 118.6C53.3477 118.6 62.893 118.387 64.4324 114.397C64.8701 113.265 64.6824 111.461 64.4324 110.719V110.719Z" fill="#707070"/>
<path d="M53.0717 97.5485C52.8288 97.1785 52.4136 96.9327 51.9399 96.9327H50.1499C49.4031 96.9327 48.8007 97.5361 48.8007 98.2791C48.8007 99.025 49.4031 99.6293 50.1499 99.6293H51.9399C52.4626 99.6293 52.9061 99.3313 53.1298 98.9002C55.6253 98.7039 57.7959 97.9417 59.3194 96.8161C59.6693 97.0417 60.0831 97.1737 60.5295 97.1737H60.6418C61.8859 97.1737 62.892 96.1666 62.892 94.921V90.4244C62.892 89.5287 62.3669 88.7559 61.6095 88.3969C61.2792 81.1762 55.3018 75.3999 48 75.3999C40.6983 75.3999 34.7199 81.1762 34.3911 88.3969C33.6322 88.7564 33.1075 89.5287 33.1075 90.4244V94.921C33.1075 96.1666 34.1146 97.1737 35.3559 97.1737H35.4696C36.7119 97.1737 37.7194 96.1666 37.7194 94.921V90.4244C37.7194 89.5417 37.2091 88.7804 36.4675 88.4122C36.7887 82.3282 41.8373 77.4788 48 77.4788C54.1603 77.4788 59.2114 82.3282 59.5311 88.4122C58.7904 88.7809 58.2807 89.5417 58.2807 90.4244V94.921C58.2807 95.2196 58.3387 95.4975 58.441 95.7572C57.1296 96.6956 55.2207 97.3642 53.0717 97.5485V97.5485Z" fill="url(#paint2_linear_4_5121)"/>
<rect x="0.5" y="49.5" width="95" height="95" rx="47.5" stroke="url(#paint3_linear_4_5121)"/>
<defs>
<linearGradient id="paint0_linear_4_5121" x1="30.5785" y1="49.0777" x2="79.7472" y2="94.2878" gradientUnits="userSpaceOnUse">
<stop stop-color="#FFC737"/>
<stop offset="1" stop-color="#F17C34"/>
</linearGradient>
<linearGradient id="paint1_linear_4_5121" x1="85.4396" y1="94.139" x2="26.147" y2="49.3201" gradientUnits="userSpaceOnUse">
<stop stop-color="#DE5E2F"/>
<stop offset="0.5915" stop-color="#E77F30"/>
<stop offset="0.8434" stop-color="#F8AC2D"/>
</linearGradient>
<linearGradient id="paint2_linear_4_5121" x1="47.9998" y1="75.3999" x2="47.9998" y2="99.6293" gradientUnits="userSpaceOnUse">
<stop stop-color="#DE5E2F"/>
<stop offset="1" stop-color="#F8AC2D"/>
</linearGradient>
<linearGradient id="paint3_linear_4_5121" x1="48" y1="49" x2="48" y2="145" gradientUnits="userSpaceOnUse">
<stop stop-color="#F8AC2D"/>
<stop offset="1" stop-color="#DE5E2F" stop-opacity="0"/>
</linearGradient>
</defs>
</svg>
