<svg width="200" height="32" viewBox="0 0 200 32" fill="none" xmlns="http://www.w3.org/2000/svg">
<g clip-path="url(#clip0_1_1445)">
<path d="M72.7543 19.3356C72.2688 17.4115 70.0446 15.377 69.1362 11.7181C69.1362 11.7181 69.1832 9.44702 69.7784 6.93938C66.4108 8.26417 65.2048 12.002 65.2048 12.002C65.2048 12.002 65.5963 7.71217 64.453 4.63677C63.2939 1.56136 61.5396 0.520454 60.7565 0C60.7565 0 61.5553 2.16067 60.2396 4.65254C58.8456 7.30212 55.5564 10.898 54.8829 14.0838C54.2094 17.2696 54.8672 19.0991 55.1335 20.1715C55.3998 21.2597 55.8697 22.4899 55.8697 22.4899C55.8697 22.4899 52.9407 21.3228 52.3925 15.3297C50.8105 19.0044 51.0611 22.6476 52.1576 25.0449C53.254 27.4421 54.2877 29.0981 56.7781 30.3913C59.2685 31.7004 62.5734 30.5333 62.3541 28.0887C62.1505 26.0069 60.2083 24.1143 59.2529 22.1272C58.2818 20.0927 55.8227 13.6264 62.0409 8.53228C62.0409 8.53228 60.4746 12.6644 61.0854 15.0616C61.5866 17.0015 62.4011 17.79 63.4662 19.1622C64.8759 20.9601 70.1386 24.1932 67.6169 29.0192C67.3036 27.5052 65.9879 24.0039 63.1529 23.0577C64.0144 24.4929 65.2048 26.3696 65.2674 28.1203C65.4397 30.4702 63.9987 31.2588 63.2626 31.9842C65.2518 31.7161 69.3241 30.549 71.4543 27.7102C73.5844 24.9029 73.5375 22.411 72.7543 19.3356ZM69.6687 24.9345C69.6687 24.9345 69.9663 23.7201 69.4338 22.3637C68.9012 21.0074 67.9928 20.1715 67.241 19.1779C66.4891 18.1843 66.1759 17.2381 66.1602 15.4244C66.1445 13.6106 67.4446 12.0966 67.4446 12.0966C67.4446 12.0966 67.4132 12.1755 67.9771 14.5254C68.541 16.8911 70.7808 18.342 70.9061 21.3386C71.047 24.3667 69.6687 24.9345 69.6687 24.9345Z" fill="url(#paint0_linear_1_1445)"/>
<path d="M72.9738 19.4932C72.2533 16.2916 70.4991 15.8184 69.575 12.1595C69.575 12.1595 69.0111 10.1565 69.5906 7.63313C67.4291 8.59518 65.6436 11.8283 65.6436 11.8283C65.6436 11.8283 66.0351 8.15358 64.8761 5.07817C63.7327 2.00277 61.9941 0.946088 61.2109 0.441406C61.2109 0.441406 61.9784 3.09099 60.4435 5.45669C58.9085 7.82238 56.0109 11.3394 55.3217 14.541C54.6482 17.7268 55.306 19.5562 55.5723 20.6287C55.8386 21.7169 56.3084 22.9471 56.3084 22.9471C56.3084 22.9471 53.1915 21.4961 52.5337 16.4966C51.3433 19.3039 51.5156 23.1048 52.5963 25.502C53.6927 27.8993 54.7265 29.5553 57.2169 30.8485C59.7073 32.1575 63.0122 30.9904 62.7929 28.5459C62.5893 26.4641 60.6471 24.5715 59.6916 22.5843C58.7205 20.5498 55.8855 14.4148 62.1037 9.32066C62.1037 9.32066 60.9603 13.2162 61.5399 15.5188C61.9941 17.3325 62.6989 18.3892 63.9206 19.6193C65.158 20.8653 70.5461 24.9816 68.0087 29.3502C67.6954 27.8362 66.4424 24.4454 63.6074 23.5148C64.4688 24.95 65.6592 26.8268 65.7219 28.5774C65.7845 30.3281 65.0953 31.0693 64.3592 31.8106C66.9749 31.227 69.7159 29.918 71.3449 27.8835C72.9738 25.8175 73.8196 23.2467 72.9738 19.4932ZM70.1232 25.3759C70.1232 25.3759 70.4208 24.1615 69.8882 22.8051C69.3557 21.4488 68.4472 20.6129 67.6954 19.6193C66.9436 18.6257 66.6303 17.6795 66.6147 15.8658C66.599 14.0521 67.899 12.538 67.899 12.538C67.899 12.538 67.8677 12.6169 68.4316 14.9668C68.9954 17.3325 71.2352 18.7834 71.3605 21.78C71.5015 24.7923 70.1232 25.3759 70.1232 25.3759Z" fill="url(#paint1_linear_1_1445)"/>
<path d="M82.6689 9.5415C83.2485 9.5415 83.8123 9.5415 84.3919 9.5415C87.2738 13.0112 90.1715 16.4809 93.0535 19.9506C95.9354 16.4809 98.8331 13.0112 101.699 9.5415C102.263 9.5415 102.827 9.5415 103.391 9.5415C103.391 16.8752 103.391 24.1931 103.391 31.5267C101.84 31.5267 100.29 31.5267 98.7391 31.5267C98.7391 27.5839 98.7391 23.6253 98.7391 19.6825C96.9379 21.922 95.2306 24.2404 93.3824 26.4326C92.9752 27.0004 92.4426 26.1645 92.192 25.8806C90.5787 23.8145 88.9498 21.7485 87.3365 19.6825C87.3365 23.6253 87.3365 27.5839 87.3365 31.5267C85.7859 31.5267 84.2352 31.5267 82.6846 31.5267C82.669 24.1931 82.6689 16.8594 82.6689 9.5415Z" fill="white"/>
<path d="M14.7701 11.7811C13.3918 10.3617 11.4026 9.66777 9.44475 9.652C6.2965 9.62046 3.14825 9.63623 0 9.652C0 16.9383 0 24.2247 0 31.511C1.55063 31.511 3.10126 31.511 4.65189 31.511C4.65189 29.4292 4.65189 27.3474 4.65189 25.2656C6.37481 25.2498 8.09774 25.2971 9.82066 25.2498C11.8882 25.171 13.94 24.272 15.2714 22.6633C17.8088 19.5879 17.5425 14.6042 14.7701 11.7811ZM10.1966 21.1493C8.33268 21.4332 6.43747 21.2124 4.57358 21.2755C4.57358 18.7678 4.57358 16.276 4.57358 13.7683C6.48445 13.8156 8.42666 13.5791 10.3062 13.9103C13.4075 14.9354 13.2978 20.203 10.1966 21.1493Z" fill="white"/>
<path d="M43.3707 30.202C41.8671 27.9941 40.3948 25.7703 38.9068 23.5781C42.055 22.0483 43.5117 18.1054 42.4153 14.825C41.6165 11.8758 38.7502 9.79395 35.7429 9.69932C32.4223 9.62047 29.1018 9.68355 25.7812 9.66778C25.7812 16.9541 25.7812 24.2405 25.7812 31.5268C27.3319 31.5268 28.8825 31.5268 30.4331 31.5268C30.4331 29.1138 30.4331 26.685 30.4331 24.272C31.7332 24.272 33.0175 24.272 34.3175 24.272C35.8055 26.685 37.3092 29.1138 38.7971 31.5268C40.4887 31.5268 42.1803 31.5426 43.8719 31.5111C43.7623 31.0379 43.6527 30.5805 43.3707 30.202ZM36.0405 20.2819C34.1766 20.5973 32.2657 20.3607 30.3705 20.4238C30.3705 18.2001 30.3705 15.9921 30.3705 13.7683C32.3284 13.8787 34.3332 13.516 36.2598 13.9891C39.0164 14.9196 38.8598 19.5406 36.0405 20.2819Z" fill="white"/>
<path d="M180.249 9.74676C181.941 9.71522 183.648 9.73099 185.339 9.73099C187.109 12.6171 188.707 15.5822 190.164 18.626C191.62 15.5822 193.218 12.6014 194.972 9.73099C196.648 9.73099 198.324 9.71522 200 9.74676C199.922 10.5984 199.389 11.2924 198.982 12.0021C196.899 15.4244 194.847 18.8784 192.779 22.3007C192.388 22.8054 192.497 23.452 192.482 24.0513C192.497 26.5432 192.497 29.0193 192.482 31.5112C190.931 31.5112 189.38 31.5112 187.83 31.5112C187.83 28.8931 187.83 26.2593 187.83 23.6413C187.877 23.1208 187.752 22.6477 187.47 22.2061C185.245 18.5472 183.053 14.8724 180.813 11.2293C180.515 10.7719 180.327 10.283 180.249 9.74676Z" fill="white"/>
<path d="M159.731 9.65186C164.179 9.65186 168.611 9.65186 173.06 9.65186C173.06 11.024 173.06 12.3961 173.06 13.7524C170.178 13.7524 167.311 13.7524 164.445 13.7524C164.429 15.2191 164.429 16.6701 164.445 18.1368C167.139 18.1368 169.818 18.1368 172.512 18.1368C172.512 19.4932 172.512 20.8495 172.512 22.2216C169.818 22.2216 167.124 22.2216 164.429 22.2216C164.429 23.8934 164.429 25.5809 164.429 27.2526C167.39 27.2526 170.35 27.2526 173.31 27.2526C173.31 28.6721 173.31 30.0915 173.31 31.4951C168.784 31.4951 164.257 31.4951 159.731 31.4951C159.731 24.2246 159.731 16.9382 159.731 9.65186Z" fill="white"/>
<path d="M135.187 9.57324C140.544 9.57324 145.916 9.57324 151.273 9.57324C151.273 10.9138 151.273 12.2701 151.273 13.6265C149.346 13.6265 147.42 13.6265 145.493 13.6265C145.493 19.588 145.493 25.5496 145.493 31.5269C143.989 31.5269 142.486 31.5269 140.982 31.5269C140.982 25.5654 140.982 19.6038 140.982 13.6265C139.04 13.6265 137.113 13.6265 135.171 13.6265C135.187 12.2701 135.187 10.9138 135.187 9.57324Z" fill="white"/>
<path d="M113.87 9.66797C118.318 9.66797 122.75 9.66797 127.199 9.66797C127.199 11.0401 127.199 12.4122 127.199 13.7843C124.317 13.7843 121.45 13.7843 118.568 13.7843C118.568 15.251 118.568 16.702 118.568 18.1687C121.262 18.1687 123.956 18.1687 126.65 18.1687C126.65 19.525 126.65 20.8971 126.65 22.2535C123.956 22.2535 121.278 22.2535 118.584 22.2535C118.584 23.9252 118.584 25.6128 118.584 27.2845C121.544 27.2845 124.505 27.2845 127.449 27.2845C127.449 28.7039 127.449 30.1234 127.449 31.527C122.923 31.527 118.396 31.527 113.87 31.527C113.87 24.2249 113.87 16.9543 113.87 9.66797Z" fill="white"/>
</g>
<defs>
<linearGradient id="paint0_linear_1_1445" x1="57.4899" y1="13.532" x2="71.0459" y2="25.9842" gradientUnits="userSpaceOnUse">
<stop stop-color="#FFC737"/>
<stop offset="1" stop-color="#F17C34"/>
</linearGradient>
<linearGradient id="paint1_linear_1_1445" x1="72.6017" y1="25.9564" x2="56.2576" y2="13.6143" gradientUnits="userSpaceOnUse">
<stop stop-color="#DE5E2F"/>
<stop offset="0.5915" stop-color="#E77F30"/>
<stop offset="0.8434" stop-color="#F8AC2D"/>
</linearGradient>
<clipPath id="clip0_1_1445">
<rect width="200" height="32" fill="white"/>
</clipPath>
</defs>
</svg>
