<svg width="96" height="145" viewBox="0 0 96 145" fill="none" xmlns="http://www.w3.org/2000/svg">
<path d="M85.9941 70.1262C84.2314 63.1479 76.1569 55.7692 72.8589 42.499C72.8589 42.499 73.0295 34.2623 75.1902 25.1677C62.9648 29.9724 58.5864 43.5286 58.5864 43.5286C58.5864 43.5286 60.0079 27.9704 55.857 16.8166C51.6491 5.66272 45.2805 1.88757 42.4374 0C42.4374 0 45.3374 7.83629 40.561 16.8738C35.5002 26.4832 23.559 39.5247 21.114 51.0789C18.6689 62.6331 21.0571 69.2682 22.0238 73.1578C22.9904 77.1045 24.6963 81.5661 24.6963 81.5661C24.6963 81.5661 14.063 77.3333 12.0728 55.5976C6.32969 68.925 7.23949 82.1381 11.2199 90.8323C15.2003 99.5266 18.9532 105.533 27.9943 110.223C37.0355 114.97 49.0335 110.738 48.2374 101.872C47.4982 94.3215 40.4472 87.4576 36.9786 80.2505C33.4531 72.8718 24.5257 49.4201 47.1001 30.9448C47.1001 30.9448 41.4139 45.931 43.6315 54.6252C45.4511 61.6607 48.408 64.5207 52.2746 69.497C57.3923 76.0177 76.4981 87.7436 67.3432 105.247C66.206 99.7554 61.4295 87.0572 51.1374 83.6252C54.2648 88.8304 58.5864 95.6371 58.8138 101.986C59.4393 110.509 54.208 113.369 51.5354 116C58.757 115.028 73.5412 110.795 81.2745 100.499C89.0078 90.3176 88.8373 81.2801 85.9941 70.1262ZM74.7922 90.432C74.7922 90.432 75.8726 86.0276 73.9393 81.1085C72.0059 76.1893 68.7079 73.1578 65.9785 69.5542C63.2491 65.9507 62.1119 62.5187 62.055 55.9408C61.9981 49.3629 66.7177 43.8718 66.7177 43.8718C66.7177 43.8718 66.604 44.1578 68.651 52.6805C70.6981 61.2604 78.8295 66.5227 79.2844 77.3905C79.7961 88.3728 74.7922 90.432 74.7922 90.432Z" fill="url(#paint0_linear_6_6632)"/>
<path d="M86.7907 70.6983C84.175 59.0869 77.8064 57.3709 74.4515 44.1007C74.4515 44.1007 72.4045 36.8364 74.5084 27.6845C66.6613 31.1737 60.179 42.8995 60.179 42.8995C60.179 42.8995 61.6006 29.5721 57.3928 18.4183C53.2418 7.26441 46.93 3.43206 44.0869 1.60168C44.0869 1.60168 46.8732 11.2112 41.3006 19.791C35.7281 28.3709 25.2086 41.1263 22.7066 52.7378C20.2615 64.292 22.6497 70.9271 23.6164 74.8167C24.5831 78.7634 26.2889 83.2249 26.2889 83.2249C26.2889 83.2249 14.9733 77.9626 12.5851 59.8305C8.2635 70.0119 8.88898 83.7969 12.8125 92.4912C16.7929 101.185 20.5458 107.191 29.587 111.882C38.6281 116.629 50.6261 112.397 49.83 103.531C49.0908 95.9804 42.0399 89.1165 38.5712 81.9094C35.0458 74.5307 24.7536 52.2802 47.3281 33.8048C47.3281 33.8048 43.1771 47.933 45.281 56.2841C46.93 62.862 49.4889 66.6944 53.9241 71.1559C58.4163 75.6747 77.977 90.6036 68.7653 106.448C67.628 100.957 63.079 88.6589 52.7869 85.2841C55.9143 90.4892 60.2359 97.2959 60.4633 103.645C60.6908 109.994 58.1888 112.683 55.5163 115.371C65.0123 113.255 74.9633 108.507 80.877 101.128C86.7907 93.6352 89.8613 84.3117 86.7907 70.6983ZM76.4417 92.0336C76.4417 92.0336 77.5221 87.6293 75.5888 82.7102C73.6555 77.791 70.3574 74.7595 67.628 71.1559C64.8986 67.5524 63.7614 64.1204 63.7045 57.5425C63.6476 50.9646 68.3672 45.4735 68.3672 45.4735C68.3672 45.4735 68.2535 45.7595 70.3005 54.2822C72.3476 62.862 80.479 68.1244 80.9339 78.9922C81.4456 89.9173 76.4417 92.0336 76.4417 92.0336Z" fill="url(#paint1_linear_6_6632)"/>
<rect x="0.5" y="49.5" width="95" height="95" rx="47.5" fill="#333333"/>
<path d="M40.515 104.5H33.7875C33.9719 108.105 35.5251 111.504 38.13 114.002C39.1783 113.157 40.3301 112.449 41.5575 111.895C40.9008 109.484 40.5506 106.999 40.515 104.5V104.5Z" fill="#707070"/>
<path d="M35.25 97.2025C35.2511 97.3168 35.2255 97.4298 35.175 97.5325C34.3424 99.2413 33.8652 101.101 33.7725 103H40.515C40.5471 100.083 41.0226 97.187 41.925 94.4125C37.575 95.05 35.25 96.2725 35.25 97V97.2025Z" fill="#707070"/>
<path d="M39.285 115C40.7727 116.155 42.476 117.002 44.295 117.49C43.2941 116.249 42.522 114.839 42.015 113.328C41.0448 113.78 40.129 114.341 39.285 115V115Z" fill="#707070"/>
<path d="M42.9525 111.348C46.2226 110.217 49.7774 110.217 53.0475 111.348C53.6383 109.112 53.9532 106.812 53.985 104.5H42.015C42.0469 106.812 42.3617 109.112 42.9525 111.348V111.348Z" fill="#707070"/>
<path d="M60.75 90.25C60.75 89.23 56.25 87.25 48 87.25C39.75 87.25 35.25 89.23 35.25 90.25V94.885C37.7175 93.3175 42.87 92.5 48 92.5C53.13 92.5 58.2825 93.3175 60.75 94.885V90.25Z" fill="url(#paint2_linear_6_6632)"/>
<path d="M52.395 94.2101C50.9345 94.0656 49.4676 93.9955 48 94.0001C46.5324 93.9955 45.0655 94.0656 43.605 94.2101C42.578 97.0281 42.0403 100.001 42.015 103H53.985C53.9597 100.001 53.422 97.0281 52.395 94.2101V94.2101Z" fill="#707070"/>
<path d="M48 112C46.435 112.005 44.8815 112.268 43.4025 112.78C44.5725 116.065 46.32 118 48 118C49.68 118 51.4275 116.065 52.5975 112.78C51.1185 112.268 49.5651 112.005 48 112V112Z" fill="#707070"/>
<path d="M54.4425 111.895C55.6699 112.449 56.8217 113.157 57.87 114.002C60.475 111.504 62.0281 108.105 62.2125 104.5H55.485C55.4495 106.999 55.0992 109.484 54.4425 111.895V111.895Z" fill="#707070"/>
<path d="M51.705 117.49C53.5241 117.002 55.2273 116.155 56.715 115C55.8711 114.341 54.9553 113.78 53.985 113.328C53.478 114.839 52.706 116.249 51.705 117.49Z" fill="#707070"/>
<path d="M60.75 97.2025V97C60.75 96.2725 58.425 95.05 54.075 94.4125C54.9775 97.187 55.4529 100.083 55.485 103H62.2275C62.1348 101.101 61.6577 99.2413 60.825 97.5325C60.7746 97.4298 60.7489 97.3168 60.75 97.2025V97.2025Z" fill="#707070"/>
<path d="M69.4148 103.08L68.25 100.75V89.758L68.4825 89.5675L48 76.15L27.5175 89.5675L33.75 94.6675V90.25C33.75 87.295 40.92 85.75 48 85.75C55.08 85.75 62.25 87.295 62.25 90.25V94.6675L66.75 90.985V100.75L65.5853 103.08C65.471 103.308 65.4171 103.562 65.4286 103.818C65.4401 104.073 65.5167 104.321 65.6512 104.539C65.7856 104.756 65.9734 104.936 66.1967 105.06C66.42 105.185 66.6714 105.25 66.927 105.25H68.073C68.3287 105.25 68.5801 105.185 68.8034 105.06C69.0267 104.936 69.2144 104.756 69.3489 104.539C69.4833 104.321 69.5599 104.073 69.5714 103.818C69.583 103.562 69.529 103.308 69.4148 103.08Z" fill="url(#paint3_linear_6_6632)"/>
<rect x="0.5" y="49.5" width="95" height="95" rx="47.5" stroke="url(#paint4_linear_6_6632)"/>
<defs>
<linearGradient id="paint0_linear_6_6632" x1="30.5785" y1="49.0777" x2="79.7472" y2="94.2878" gradientUnits="userSpaceOnUse">
<stop stop-color="#FFC737"/>
<stop offset="1" stop-color="#F17C34"/>
</linearGradient>
<linearGradient id="paint1_linear_6_6632" x1="85.4396" y1="94.1391" x2="26.147" y2="49.3203" gradientUnits="userSpaceOnUse">
<stop stop-color="#DE5E2F"/>
<stop offset="0.5915" stop-color="#E77F30"/>
<stop offset="0.8434" stop-color="#F8AC2D"/>
</linearGradient>
<linearGradient id="paint2_linear_6_6632" x1="48" y1="87.25" x2="48" y2="94.885" gradientUnits="userSpaceOnUse">
<stop stop-color="#DE5E2F"/>
<stop offset="1" stop-color="#F8AC2D"/>
</linearGradient>
<linearGradient id="paint3_linear_6_6632" x1="48.5452" y1="76.15" x2="48.5452" y2="105.25" gradientUnits="userSpaceOnUse">
<stop stop-color="#DE5E2F"/>
<stop offset="1" stop-color="#F8AC2D"/>
</linearGradient>
<linearGradient id="paint4_linear_6_6632" x1="48" y1="49" x2="48" y2="145" gradientUnits="userSpaceOnUse">
<stop stop-color="#F8AC2D"/>
<stop offset="1" stop-color="#DE5E2F" stop-opacity="0"/>
</linearGradient>
</defs>
</svg>
