<svg width="96" height="145" viewBox="0 0 96 145" fill="none" xmlns="http://www.w3.org/2000/svg">
<path d="M85.9941 70.1262C84.2314 63.1479 76.1569 55.7692 72.8589 42.499C72.8589 42.499 73.0295 34.2623 75.1902 25.1677C62.9648 29.9724 58.5864 43.5286 58.5864 43.5286C58.5864 43.5286 60.0079 27.9704 55.857 16.8166C51.6491 5.66272 45.2805 1.88757 42.4374 0C42.4374 0 45.3374 7.83629 40.561 16.8738C35.5002 26.4832 23.559 39.5247 21.114 51.0789C18.6689 62.6331 21.0571 69.2682 22.0238 73.1578C22.9904 77.1045 24.6963 81.5661 24.6963 81.5661C24.6963 81.5661 14.063 77.3333 12.0728 55.5976C6.32969 68.925 7.23949 82.1381 11.2199 90.8323C15.2003 99.5266 18.9532 105.533 27.9943 110.223C37.0355 114.97 49.0335 110.738 48.2374 101.872C47.4982 94.3215 40.4472 87.4576 36.9786 80.2505C33.4531 72.8718 24.5257 49.4201 47.1001 30.9448C47.1001 30.9448 41.4139 45.931 43.6315 54.6252C45.4511 61.6607 48.408 64.5207 52.2746 69.497C57.3923 76.0177 76.4981 87.7436 67.3432 105.247C66.206 99.7554 61.4295 87.0572 51.1374 83.6252C54.2648 88.8304 58.5864 95.6371 58.8138 101.986C59.4393 110.509 54.208 113.369 51.5354 116C58.757 115.028 73.5412 110.795 81.2745 100.499C89.0078 90.3176 88.8373 81.2801 85.9941 70.1262ZM74.7922 90.432C74.7922 90.432 75.8726 86.0276 73.9393 81.1085C72.0059 76.1893 68.7079 73.1578 65.9785 69.5542C63.2491 65.9507 62.1119 62.5187 62.055 55.9408C61.9981 49.3629 66.7177 43.8718 66.7177 43.8718C66.7177 43.8718 66.604 44.1578 68.651 52.6805C70.6981 61.2604 78.8295 66.5227 79.2844 77.3905C79.7961 88.3728 74.7922 90.432 74.7922 90.432Z" fill="url(#paint0_linear_6_6650)"/>
<path d="M86.7907 70.6983C84.175 59.0869 77.8064 57.3709 74.4515 44.1007C74.4515 44.1007 72.4045 36.8364 74.5084 27.6845C66.6613 31.1737 60.179 42.8995 60.179 42.8995C60.179 42.8995 61.6006 29.5721 57.3928 18.4183C53.2418 7.26441 46.93 3.43206 44.0869 1.60168C44.0869 1.60168 46.8732 11.2112 41.3006 19.791C35.7281 28.3709 25.2086 41.1263 22.7066 52.7378C20.2615 64.292 22.6497 70.9271 23.6164 74.8167C24.5831 78.7634 26.2889 83.2249 26.2889 83.2249C26.2889 83.2249 14.9733 77.9626 12.5851 59.8305C8.2635 70.0119 8.88898 83.7969 12.8125 92.4912C16.7929 101.185 20.5458 107.191 29.587 111.882C38.6281 116.629 50.6261 112.397 49.83 103.531C49.0908 95.9804 42.0399 89.1165 38.5712 81.9094C35.0458 74.5307 24.7536 52.2802 47.3281 33.8048C47.3281 33.8048 43.1771 47.933 45.281 56.2841C46.93 62.862 49.4889 66.6944 53.9241 71.1559C58.4163 75.6747 77.977 90.6036 68.7653 106.448C67.628 100.957 63.079 88.6589 52.7869 85.2841C55.9143 90.4892 60.2359 97.2959 60.4633 103.645C60.6908 109.994 58.1888 112.683 55.5163 115.371C65.0123 113.255 74.9633 108.507 80.877 101.128C86.7907 93.6352 89.8613 84.3117 86.7907 70.6983ZM76.4417 92.0336C76.4417 92.0336 77.5221 87.6293 75.5888 82.7102C73.6555 77.791 70.3574 74.7595 67.628 71.1559C64.8986 67.5524 63.7614 64.1204 63.7045 57.5425C63.6476 50.9646 68.3672 45.4735 68.3672 45.4735C68.3672 45.4735 68.2535 45.7595 70.3005 54.2822C72.3476 62.862 80.479 68.1244 80.9339 78.9922C81.4456 89.9173 76.4417 92.0336 76.4417 92.0336Z" fill="url(#paint1_linear_6_6650)"/>
<rect x="0.5" y="49.5" width="95" height="95" rx="47.5" fill="#333333"/>
<g clip-path="url(#clip0_6_6650)">
<path d="M51.0779 107.575C51.631 107.022 52.2685 106.619 52.9529 106.365C51.4435 104.35 51.6873 101.284 53.5154 99.5218L53.5622 99.4749C55.1184 97.9187 57.4153 97.5344 59.3277 98.3219C59.5715 97.4875 60.0308 96.7188 60.6589 96.0907L60.7058 96.0438C62.6745 93.9907 66.2275 93.9907 68.2056 96.0438L68.3369 96.175L68.6087 95.9032C73.1274 91.3939 73.1274 84.0628 68.6275 79.5536C64.1182 75.0443 56.7872 75.0443 52.2873 79.5536L49.5967 82.2441L54.706 87.2128C56.984 89.3221 57.0121 93.222 54.7716 95.3688C52.6435 97.5906 48.8092 97.5906 46.6812 95.3688L44.9093 93.6157C44.8531 93.5595 44.7593 93.5595 44.7125 93.6157L33.7627 104.556C33.069 105.222 33.069 106.431 33.7627 107.097C34.4658 107.8 35.6096 107.8 36.3033 107.097C36.322 107.078 39.4626 103.937 39.4626 103.937C40.0813 103.319 41.0938 103.319 41.7125 103.937C42.3313 104.556 42.3313 105.569 41.7125 106.187L38.7314 109.168C37.9345 109.928 37.9345 111.306 38.7314 112.065C39.4907 112.862 40.8688 112.862 41.6282 112.065L44.6 109.093C45.2187 108.475 46.2312 108.475 46.8499 109.093C47.4686 109.712 47.4686 110.725 46.8499 111.343L43.8969 114.296C43.0812 115.093 43.0719 116.406 43.8781 117.212C44.6375 118.009 46.0155 118.009 46.7749 117.212L50.1029 113.884C48.9873 111.887 49.3623 109.206 51.0123 107.603L51.0779 107.575Z" fill="#707070"/>
<path d="M27.1909 79.9192C22.9442 84.1659 22.9348 91.0751 27.1722 95.3313L32.9845 100.825L42.4531 91.3564C43.6905 90.0627 45.9217 90.0627 47.1592 91.3564L48.9216 93.1188C49.8685 94.1032 51.5653 94.1032 52.5028 93.1188C52.9903 92.6313 53.2528 91.9939 53.2434 91.3095C53.234 90.6251 52.9622 89.9877 52.4747 89.5096L42.6312 79.9379C38.3844 75.6724 31.4471 75.663 27.1909 79.9192V79.9192Z" fill="url(#paint2_linear_6_6650)"/>
<path d="M63.5462 109.553L63.5931 109.506C64.4087 108.718 64.4181 107.303 63.5931 106.515L60.6682 103.59L58.8119 101.734C57.987 100.909 56.6464 100.909 55.8214 101.734L55.7745 101.781C54.9589 102.569 54.9495 103.984 55.7745 104.772L60.5557 109.553C61.3806 110.378 62.7212 110.378 63.5462 109.553Z" fill="url(#paint3_linear_6_6650)"/>
<path d="M68.8431 104.256L68.89 104.209C69.7149 103.384 69.7149 102.044 68.89 101.219L65.965 98.2937C65.1776 97.4781 63.762 97.4687 62.9745 98.2937L62.9276 98.3406C62.112 99.128 62.112 100.544 62.9276 101.331L65.8525 104.256C66.6775 105.081 68.0181 105.081 68.8431 104.256Z" fill="url(#paint4_linear_6_6650)"/>
<path d="M55.184 114.765C56.009 115.59 57.3495 115.59 58.1745 114.765L58.2214 114.718C59.0464 113.893 59.0464 112.553 58.2214 111.728L56.3277 109.834C55.5027 109.009 54.1621 109.009 53.3371 109.834L53.2903 109.881C52.4747 110.668 52.4653 112.084 53.2903 112.871L55.184 114.765Z" fill="url(#paint5_linear_6_6650)"/>
</g>
<rect x="0.5" y="49.5" width="95" height="95" rx="47.5" stroke="url(#paint6_linear_6_6650)"/>
<defs>
<linearGradient id="paint0_linear_6_6650" x1="30.5785" y1="49.0777" x2="79.7472" y2="94.2878" gradientUnits="userSpaceOnUse">
<stop stop-color="#FFC737"/>
<stop offset="1" stop-color="#F17C34"/>
</linearGradient>
<linearGradient id="paint1_linear_6_6650" x1="85.4396" y1="94.1391" x2="26.147" y2="49.3203" gradientUnits="userSpaceOnUse">
<stop stop-color="#DE5E2F"/>
<stop offset="0.5915" stop-color="#E77F30"/>
<stop offset="0.8434" stop-color="#F8AC2D"/>
</linearGradient>
<linearGradient id="paint2_linear_6_6650" x1="38.6218" y1="76.7329" x2="38.6218" y2="100.825" gradientUnits="userSpaceOnUse">
<stop stop-color="#F8AC2D"/>
<stop offset="1" stop-color="#DE5E2F"/>
</linearGradient>
<linearGradient id="paint3_linear_6_6650" x1="59.6838" y1="101.115" x2="59.6838" y2="110.171" gradientUnits="userSpaceOnUse">
<stop stop-color="#F8AC2D"/>
<stop offset="1" stop-color="#DE5E2F"/>
</linearGradient>
<linearGradient id="paint4_linear_6_6650" x1="65.9123" y1="97.6785" x2="65.9123" y2="104.875" gradientUnits="userSpaceOnUse">
<stop stop-color="#F8AC2D"/>
<stop offset="1" stop-color="#DE5E2F"/>
</linearGradient>
<linearGradient id="paint5_linear_6_6650" x1="55.7576" y1="109.215" x2="55.7576" y2="115.384" gradientUnits="userSpaceOnUse">
<stop stop-color="#F8AC2D"/>
<stop offset="1" stop-color="#DE5E2F"/>
</linearGradient>
<linearGradient id="paint6_linear_6_6650" x1="48" y1="49" x2="48" y2="145" gradientUnits="userSpaceOnUse">
<stop stop-color="#F8AC2D"/>
<stop offset="1" stop-color="#DE5E2F" stop-opacity="0"/>
</linearGradient>
<clipPath id="clip0_6_6650">
<rect width="48" height="48" fill="white" transform="translate(24 73)"/>
</clipPath>
</defs>
</svg>
