<svg width="96" height="145" viewBox="0 0 96 145" fill="none" xmlns="http://www.w3.org/2000/svg">
<path d="M85.9941 70.1262C84.2314 63.1479 76.1569 55.7692 72.8589 42.499C72.8589 42.499 73.0295 34.2623 75.1902 25.1677C62.9648 29.9724 58.5864 43.5286 58.5864 43.5286C58.5864 43.5286 60.0079 27.9704 55.857 16.8166C51.6491 5.66272 45.2805 1.88757 42.4374 0C42.4374 0 45.3374 7.83629 40.561 16.8738C35.5002 26.4832 23.559 39.5247 21.114 51.0789C18.6689 62.6331 21.0571 69.2682 22.0238 73.1578C22.9904 77.1045 24.6963 81.5661 24.6963 81.5661C24.6963 81.5661 14.063 77.3333 12.0728 55.5976C6.32969 68.925 7.23949 82.1381 11.2199 90.8323C15.2003 99.5266 18.9532 105.533 27.9943 110.223C37.0355 114.97 49.0335 110.738 48.2374 101.872C47.4982 94.3215 40.4472 87.4576 36.9786 80.2505C33.4531 72.8718 24.5257 49.4201 47.1001 30.9448C47.1001 30.9448 41.4139 45.931 43.6315 54.6252C45.4511 61.6607 48.408 64.5207 52.2746 69.497C57.3923 76.0177 76.4981 87.7436 67.3432 105.247C66.206 99.7554 61.4295 87.0572 51.1374 83.6252C54.2648 88.8304 58.5864 95.6371 58.8138 101.986C59.4393 110.509 54.208 113.369 51.5354 116C58.757 115.028 73.5412 110.795 81.2745 100.499C89.0078 90.3176 88.8373 81.2801 85.9941 70.1262ZM74.7922 90.432C74.7922 90.432 75.8726 86.0276 73.9393 81.1085C72.0059 76.1893 68.7079 73.1578 65.9785 69.5542C63.2491 65.9507 62.1119 62.5187 62.055 55.9408C61.9981 49.3629 66.7177 43.8718 66.7177 43.8718C66.7177 43.8718 66.604 44.1578 68.651 52.6805C70.6981 61.2604 78.8295 66.5227 79.2844 77.3905C79.7961 88.3728 74.7922 90.432 74.7922 90.432Z" fill="url(#paint0_linear_6_6662)"/>
<path d="M86.7907 70.6983C84.175 59.0869 77.8064 57.3709 74.4515 44.1007C74.4515 44.1007 72.4045 36.8364 74.5084 27.6845C66.6613 31.1737 60.179 42.8995 60.179 42.8995C60.179 42.8995 61.6006 29.5721 57.3928 18.4183C53.2418 7.26441 46.93 3.43206 44.0869 1.60168C44.0869 1.60168 46.8732 11.2112 41.3006 19.791C35.7281 28.3709 25.2086 41.1263 22.7066 52.7378C20.2615 64.292 22.6497 70.9271 23.6164 74.8167C24.5831 78.7634 26.2889 83.2249 26.2889 83.2249C26.2889 83.2249 14.9733 77.9626 12.5851 59.8305C8.2635 70.0119 8.88898 83.7969 12.8125 92.4912C16.7929 101.185 20.5458 107.191 29.587 111.882C38.6281 116.629 50.6261 112.397 49.83 103.531C49.0908 95.9804 42.0399 89.1165 38.5712 81.9094C35.0458 74.5307 24.7536 52.2802 47.3281 33.8048C47.3281 33.8048 43.1771 47.933 45.281 56.2841C46.93 62.862 49.4889 66.6944 53.9241 71.1559C58.4163 75.6747 77.977 90.6036 68.7653 106.448C67.628 100.957 63.079 88.6589 52.7869 85.2841C55.9143 90.4892 60.2359 97.2959 60.4633 103.645C60.6908 109.994 58.1888 112.683 55.5163 115.371C65.0123 113.255 74.9633 108.507 80.877 101.128C86.7907 93.6352 89.8613 84.3117 86.7907 70.6983ZM76.4417 92.0336C76.4417 92.0336 77.5221 87.6293 75.5888 82.7102C73.6555 77.791 70.3574 74.7595 67.628 71.1559C64.8986 67.5524 63.7614 64.1204 63.7045 57.5425C63.6476 50.9646 68.3672 45.4735 68.3672 45.4735C68.3672 45.4735 68.2535 45.7595 70.3005 54.2822C72.3476 62.862 80.479 68.1244 80.9339 78.9922C81.4456 89.9173 76.4417 92.0336 76.4417 92.0336Z" fill="url(#paint1_linear_6_6662)"/>
<rect x="0.5" y="49.5" width="95" height="95" rx="47.5" fill="#333333"/>
<path d="M34.0591 94.157C34.1565 93.1788 34.3544 92.2299 34.6419 91.3204C34.4123 91.3392 34.1803 91.3493 33.946 91.3493C31.3039 91.3493 28.9418 90.129 27.3926 88.2229C25.7043 89.7314 24.5379 91.8119 24.2007 94.157H34.0591Z" fill="url(#paint2_linear_6_6662)"/>
<path d="M39.3377 84.5152C39.3988 84.3107 39.4482 84.1011 39.4858 83.8876C39.1262 82.9063 38.9298 81.8469 38.9298 80.7425C38.9298 80.6003 38.9336 80.459 38.94 80.3184C38.0014 78.515 36.1159 77.2798 33.9462 77.2798C30.8434 77.2798 28.3191 79.8041 28.3191 82.9068C28.3191 86.0096 30.8434 88.5339 33.9462 88.5339C34.7235 88.5339 35.4645 88.3754 36.1387 88.0891C36.9956 86.7235 38.0795 85.5143 39.3377 84.5152V84.5152Z" fill="url(#paint3_linear_6_6662)"/>
<path d="M62.2101 91.3494C61.9867 91.3494 61.7655 91.3405 61.5464 91.3234C61.8335 92.232 62.0311 93.18 62.1283 94.1571H71.9554C71.6181 91.812 70.4517 89.7315 68.7634 88.2229C67.2142 90.1291 64.8522 91.3494 62.2101 91.3494Z" fill="url(#paint4_linear_6_6662)"/>
<path d="M56.6804 83.9433C56.7146 84.1263 56.7577 84.3062 56.8092 84.4825C58.09 85.4919 59.1915 86.7185 60.0594 88.1058C60.7224 88.3811 61.4486 88.5339 62.2102 88.5339C65.3128 88.5339 67.8371 86.0096 67.8371 82.9068C67.8371 79.8041 65.3128 77.2798 62.2102 77.2798C60.0628 77.2798 58.1933 78.4893 57.2451 80.2623C57.2533 80.4213 57.2576 80.5814 57.2576 80.7425C57.2576 81.8679 57.0533 82.9464 56.6804 83.9433V83.9433Z" fill="url(#paint5_linear_6_6662)"/>
<path d="M59.2953 94.1571C58.9179 91.1364 57.3427 88.4826 55.0612 86.688C53.3791 88.6564 50.8798 89.9065 48.0937 89.9065C45.3077 89.9065 42.8083 88.6564 41.1262 86.6881C38.8447 88.4827 37.2695 91.1365 36.8921 94.1571H59.2953V94.1571Z" fill="url(#paint6_linear_6_6662)"/>
<path d="M65.995 96.9725C65.8751 100.409 65.3177 103.779 64.3583 106.882H69.2156C70.8461 103.828 71.7972 100.441 72 96.9725H65.995Z" fill="#707070"/>
<path d="M31.6417 106.882C30.6823 103.779 30.125 100.409 30.0051 96.9725H24C24.2029 100.441 25.1539 103.828 26.7843 106.882H31.6417Z" fill="#707070"/>
<path d="M28.5511 109.697C30.7991 112.782 33.7344 115.259 37.0725 116.966C35.3163 114.974 33.8136 112.506 32.6522 109.697H28.5511Z" fill="#707070"/>
<path d="M63.3476 109.697C62.1863 112.506 60.6836 114.974 58.9276 116.966C62.2656 115.259 65.2009 112.782 67.4488 109.697H63.3476Z" fill="#707070"/>
<path d="M32.8201 96.9725C32.9497 100.44 33.5583 103.823 34.6008 106.882H40.882C40.5057 103.792 40.2873 100.418 40.2404 96.9725H32.8201Z" fill="#707070"/>
<path d="M43.4779 118.054C42.5895 115.959 41.8362 113.088 41.2814 109.697H35.725C37.7206 113.998 40.5552 117.121 43.7288 118.616C43.6439 118.435 43.5602 118.248 43.4779 118.054Z" fill="#707070"/>
<path d="M60.2748 109.697H54.7185C54.1637 113.088 53.4104 115.959 52.522 118.054C52.4397 118.248 52.3561 118.435 52.2711 118.616C55.4446 117.121 58.2793 113.998 60.2748 109.697V109.697Z" fill="#707070"/>
<path d="M55.7596 96.9725C55.7127 100.419 55.4942 103.792 55.1179 106.882H61.3991C62.4415 103.822 63.0503 100.44 63.1799 96.9725H55.7596Z" fill="#707070"/>
<path d="M49.93 116.954C50.6944 115.152 51.3558 112.665 51.8641 109.697H44.136C44.6443 112.665 45.3056 115.152 46.07 116.954C46.9925 119.13 47.776 119.606 48.0001 119.606C48.224 119.606 49.0074 119.13 49.93 116.954Z" fill="#707070"/>
<path d="M43.7189 106.882H52.281C52.6697 103.812 52.8962 100.433 52.9446 96.9725H43.0553C43.1037 100.433 43.3302 103.812 43.7189 106.882Z" fill="#707070"/>
<path d="M48.0937 87.091C51.5999 87.091 54.4422 84.2487 54.4422 80.7425C54.4422 77.2363 51.5999 74.394 48.0937 74.394C44.5875 74.394 41.7452 77.2363 41.7452 80.7425C41.7452 84.2487 44.5875 87.091 48.0937 87.091Z" fill="url(#paint7_linear_6_6662)"/>
<rect x="0.5" y="49.5" width="95" height="95" rx="47.5" stroke="url(#paint8_linear_6_6662)"/>
<defs>
<linearGradient id="paint0_linear_6_6662" x1="30.5785" y1="49.0777" x2="79.7472" y2="94.2878" gradientUnits="userSpaceOnUse">
<stop stop-color="#FFC737"/>
<stop offset="1" stop-color="#F17C34"/>
</linearGradient>
<linearGradient id="paint1_linear_6_6662" x1="85.4396" y1="94.1391" x2="26.147" y2="49.3203" gradientUnits="userSpaceOnUse">
<stop stop-color="#DE5E2F"/>
<stop offset="0.5915" stop-color="#E77F30"/>
<stop offset="0.8434" stop-color="#F8AC2D"/>
</linearGradient>
<linearGradient id="paint2_linear_6_6662" x1="29.4213" y1="88.2229" x2="29.4213" y2="94.157" gradientUnits="userSpaceOnUse">
<stop stop-color="#F8AC2D"/>
<stop offset="1" stop-color="#DE5E2F"/>
</linearGradient>
<linearGradient id="paint3_linear_6_6662" x1="33.9025" y1="77.2798" x2="33.9025" y2="88.5339" gradientUnits="userSpaceOnUse">
<stop stop-color="#F8AC2D"/>
<stop offset="1" stop-color="#DE5E2F"/>
</linearGradient>
<linearGradient id="paint4_linear_6_6662" x1="66.7509" y1="88.2229" x2="66.7509" y2="94.1571" gradientUnits="userSpaceOnUse">
<stop stop-color="#F8AC2D"/>
<stop offset="1" stop-color="#DE5E2F"/>
</linearGradient>
<linearGradient id="paint5_linear_6_6662" x1="62.2588" y1="77.2798" x2="62.2588" y2="88.5339" gradientUnits="userSpaceOnUse">
<stop stop-color="#F8AC2D"/>
<stop offset="1" stop-color="#DE5E2F"/>
</linearGradient>
<linearGradient id="paint6_linear_6_6662" x1="48.0937" y1="86.688" x2="48.0937" y2="94.1571" gradientUnits="userSpaceOnUse">
<stop stop-color="#F8AC2D"/>
<stop offset="1" stop-color="#DE5E2F"/>
</linearGradient>
<linearGradient id="paint7_linear_6_6662" x1="48.0937" y1="74.394" x2="48.0937" y2="87.091" gradientUnits="userSpaceOnUse">
<stop stop-color="#F8AC2D"/>
<stop offset="1" stop-color="#DE5E2F"/>
</linearGradient>
<linearGradient id="paint8_linear_6_6662" x1="48" y1="49" x2="48" y2="145" gradientUnits="userSpaceOnUse">
<stop stop-color="#F8AC2D"/>
<stop offset="1" stop-color="#DE5E2F" stop-opacity="0"/>
</linearGradient>
</defs>
</svg>
