<svg width="96" height="145" viewBox="0 0 96 145" fill="none" xmlns="http://www.w3.org/2000/svg">
<path d="M85.9941 70.1262C84.2314 63.1479 76.1569 55.7692 72.8589 42.499C72.8589 42.499 73.0295 34.2623 75.1902 25.1677C62.9648 29.9724 58.5864 43.5286 58.5864 43.5286C58.5864 43.5286 60.0079 27.9704 55.857 16.8166C51.6491 5.66272 45.2805 1.88757 42.4374 0C42.4374 0 45.3374 7.83629 40.561 16.8738C35.5002 26.4832 23.559 39.5247 21.114 51.0789C18.6689 62.6331 21.0571 69.2682 22.0238 73.1578C22.9904 77.1045 24.6963 81.5661 24.6963 81.5661C24.6963 81.5661 14.063 77.3333 12.0728 55.5976C6.32969 68.925 7.23949 82.1381 11.2199 90.8323C15.2003 99.5266 18.9532 105.533 27.9943 110.223C37.0355 114.97 49.0335 110.738 48.2374 101.872C47.4982 94.3215 40.4472 87.4576 36.9786 80.2505C33.4531 72.8718 24.5257 49.4201 47.1001 30.9448C47.1001 30.9448 41.4139 45.931 43.6315 54.6252C45.4511 61.6607 48.408 64.5207 52.2746 69.497C57.3923 76.0177 76.4981 87.7436 67.3432 105.247C66.206 99.7554 61.4295 87.0572 51.1374 83.6252C54.2648 88.8304 58.5864 95.6371 58.8138 101.986C59.4393 110.509 54.208 113.369 51.5354 116C58.757 115.028 73.5412 110.795 81.2745 100.499C89.0078 90.3176 88.8373 81.2801 85.9941 70.1262ZM74.7922 90.432C74.7922 90.432 75.8726 86.0276 73.9393 81.1085C72.0059 76.1893 68.7079 73.1578 65.9785 69.5542C63.2491 65.9507 62.1119 62.5187 62.055 55.9408C61.9981 49.3629 66.7177 43.8718 66.7177 43.8718C66.7177 43.8718 66.604 44.1578 68.651 52.6805C70.6981 61.2604 78.8295 66.5227 79.2844 77.3905C79.7961 88.3728 74.7922 90.432 74.7922 90.432Z" fill="url(#paint0_linear_6_6684)"/>
<path d="M86.7907 70.6983C84.175 59.0869 77.8064 57.3709 74.4515 44.1007C74.4515 44.1007 72.4045 36.8364 74.5084 27.6845C66.6613 31.1737 60.179 42.8995 60.179 42.8995C60.179 42.8995 61.6006 29.5721 57.3928 18.4183C53.2418 7.26441 46.93 3.43206 44.0869 1.60168C44.0869 1.60168 46.8732 11.2112 41.3006 19.791C35.7281 28.3709 25.2086 41.1263 22.7066 52.7378C20.2615 64.292 22.6497 70.9271 23.6164 74.8167C24.5831 78.7634 26.2889 83.2249 26.2889 83.2249C26.2889 83.2249 14.9733 77.9626 12.5851 59.8305C8.2635 70.0119 8.88898 83.7969 12.8125 92.4912C16.7929 101.185 20.5458 107.191 29.587 111.882C38.6281 116.629 50.6261 112.397 49.83 103.531C49.0908 95.9804 42.0399 89.1165 38.5712 81.9094C35.0458 74.5307 24.7536 52.2802 47.3281 33.8048C47.3281 33.8048 43.1771 47.933 45.281 56.2841C46.93 62.862 49.4889 66.6944 53.9241 71.1559C58.4163 75.6747 77.977 90.6036 68.7653 106.448C67.628 100.957 63.079 88.6589 52.7869 85.2841C55.9143 90.4892 60.2359 97.2959 60.4633 103.645C60.6908 109.994 58.1888 112.683 55.5163 115.371C65.0123 113.255 74.9633 108.507 80.877 101.128C86.7907 93.6352 89.8613 84.3117 86.7907 70.6983ZM76.4417 92.0336C76.4417 92.0336 77.5221 87.6293 75.5888 82.7102C73.6555 77.791 70.3574 74.7595 67.628 71.1559C64.8986 67.5524 63.7614 64.1204 63.7045 57.5425C63.6476 50.9646 68.3672 45.4735 68.3672 45.4735C68.3672 45.4735 68.2535 45.7595 70.3005 54.2822C72.3476 62.862 80.479 68.1244 80.9339 78.9922C81.4456 89.9173 76.4417 92.0336 76.4417 92.0336Z" fill="url(#paint1_linear_6_6684)"/>
<rect x="0.5" y="49.5" width="95" height="95" rx="47.5" fill="#333333"/>
<g clip-path="url(#clip0_6_6684)">
<path d="M54.3647 88.2349L51.1679 87.1543H44.8322L41.666 88.2274C37.6029 89.4236 34.7869 93.7078 34.7869 98.6533V113.276C34.7531 114.675 34.3148 116.034 33.525 117.19C33.3424 117.477 33.2203 117.799 33.166 118.135C33.1118 118.471 33.1266 118.814 33.2096 119.144C33.3127 119.568 33.5283 119.956 33.8335 120.267C34.1387 120.578 34.5223 120.801 34.9438 120.913C35.3232 121.015 35.7216 121.028 36.1066 120.948C36.4916 120.869 36.8526 120.7 37.1603 120.455C37.5917 120.107 38.091 119.852 38.6265 119.707C39.162 119.562 39.7219 119.53 40.2703 119.613C42.8285 120 45.4129 120.187 48.0001 120.174C50.5875 120.187 53.1721 120 55.7306 119.613C55.93 119.582 56.1316 119.567 56.3334 119.567C57.2456 119.57 58.1297 119.883 58.8398 120.455C59.1475 120.7 59.5085 120.869 59.8935 120.948C60.2785 121.028 60.6769 121.016 61.0563 120.913C61.4778 120.801 61.8614 120.578 62.1666 120.267C62.4718 119.956 62.6874 119.568 62.7906 119.144C62.8735 118.814 62.8884 118.471 62.8343 118.135C62.7802 117.799 62.6583 117.478 62.4759 117.191C61.6856 116.035 61.2471 114.675 61.2132 113.276V98.6533C61.2132 93.7078 58.3972 89.4236 54.3647 88.2349ZM52.955 107.792C52.9528 108.961 52.5372 110.092 51.7817 110.985C51.0261 111.877 49.9792 112.474 48.8259 112.67V113.57C48.8259 113.789 48.7389 113.999 48.584 114.154C48.4291 114.308 48.2191 114.395 48.0001 114.395C47.781 114.395 47.571 114.308 47.4161 114.154C47.2612 113.999 47.1742 113.789 47.1742 113.57V112.67C46.0209 112.474 44.974 111.877 44.2184 110.985C43.4629 110.092 43.0473 108.961 43.0451 107.792C43.0451 107.573 43.1321 107.363 43.287 107.208C43.4419 107.053 43.6519 106.966 43.8709 106.966C44.09 106.966 44.3 107.053 44.4549 107.208C44.6098 107.363 44.6968 107.573 44.6968 107.792C44.6995 108.521 44.9441 109.23 45.3923 109.806C45.8406 110.382 46.4672 110.794 47.1742 110.976V104.415C46.0201 104.221 44.9722 103.625 44.2164 102.732C43.4606 101.838 43.0459 100.706 43.0459 99.5366C43.0459 98.3668 43.4606 97.2348 44.2164 96.3417C44.9722 95.4485 46.0201 94.852 47.1742 94.658V93.7582C47.1742 93.5393 47.2612 93.3293 47.4161 93.1745C47.571 93.0197 47.781 92.9327 48.0001 92.9327C48.2191 92.9327 48.4291 93.0197 48.584 93.1745C48.7389 93.3293 48.8259 93.5393 48.8259 93.7582V94.658C49.9792 94.8538 51.0261 95.4509 51.7817 96.3436C52.5372 97.2363 52.9528 98.3673 52.955 99.5366C52.955 99.7556 52.868 99.9655 52.7131 100.12C52.5582 100.275 52.3482 100.362 52.1292 100.362C51.9102 100.362 51.7001 100.275 51.5452 100.12C51.3904 99.9655 51.3034 99.7556 51.3034 99.5366C51.3006 98.8067 51.056 98.0983 50.6078 97.5221C50.1595 96.9459 49.5329 96.5344 48.8259 96.3519V102.913C49.9792 103.109 51.0261 103.706 51.7817 104.598C52.5372 105.491 52.9528 106.622 52.955 107.792Z" fill="#707070"/>
<path d="M44.6852 99.5577C44.688 100.283 44.936 100.986 45.3903 101.559C45.8446 102.131 46.4798 102.54 47.1964 102.721V96.394C46.4798 96.5753 45.8446 96.9841 45.3903 97.5565C44.936 98.1289 44.688 98.8326 44.6852 99.5577Z" fill="#707070"/>
<path d="M48.8036 110.957C49.5217 110.778 50.1584 110.37 50.6132 109.797C51.0679 109.224 51.3148 108.519 51.3148 107.793C51.3148 107.067 51.0679 106.363 50.6132 105.79C50.1584 105.217 49.5217 104.809 48.8036 104.63V110.957Z" fill="#707070"/>
<path d="M71.9212 73.6248C71.3735 74.3592 70.7915 75.0663 70.1838 75.7365C67.6898 78.5537 64.6283 80.8119 61.2 82.363C59.2469 83.1536 57.426 84.2376 55.8 85.5777C57.4287 86.2474 58.8884 87.2699 60.0742 88.5717C61.2599 89.8735 62.1421 91.422 62.6572 93.1058C65.9872 92.1553 67.8223 89.9202 68.3795 88.0725C67.2024 88.8871 65.9337 89.5608 64.5995 90.0796C64.4997 90.1197 64.3933 90.1403 64.2858 90.1405C64.0865 90.1404 63.8934 90.071 63.7398 89.944C63.5861 89.8171 63.4816 89.6406 63.444 89.4449C63.4065 89.2492 63.4383 89.0465 63.5341 88.8717C63.6298 88.697 63.7835 88.561 63.9686 88.4873C65.7628 87.831 67.4032 86.8135 68.7883 85.498V85.498C69.6058 84.7476 70.1275 83.7295 70.2592 82.6278C68.5719 84.0516 66.627 85.1386 64.53 85.8296C64.4506 85.8525 64.3684 85.864 64.2858 85.8639C64.0799 85.8642 63.8808 85.7903 63.7248 85.6558C63.5689 85.5214 63.4666 85.3353 63.4367 85.1316C63.4067 84.9279 63.4511 84.7203 63.5617 84.5466C63.6722 84.3729 63.8417 84.2449 64.0389 84.1859C66.4459 83.3965 68.6081 81.9986 70.3158 80.1278V80.1278C71.4009 78.8644 71.9983 77.2545 72 75.5891C72 74.9009 71.9735 74.2427 71.9212 73.6248Z" fill="url(#paint2_linear_6_6684)"/>
<path d="M25.6817 80.1261C27.3894 81.9969 29.5516 83.3948 31.9586 84.1841C32.157 84.242 32.3278 84.3696 32.4396 84.5435C32.5514 84.7173 32.5966 84.9257 32.5668 85.1302C32.5371 85.3347 32.4344 85.5216 32.2778 85.6565C32.1211 85.7913 31.921 85.8649 31.7143 85.8639C31.631 85.8637 31.5482 85.8515 31.4683 85.8279C29.3713 85.1368 27.4265 84.0499 25.7391 82.6261C25.8708 83.7278 26.3926 84.7459 27.21 85.4962V85.4962C28.5951 86.8118 30.2355 87.8292 32.0297 88.4855C32.2158 88.5585 32.3706 88.6942 32.4672 88.8692C32.5639 89.0442 32.5963 89.2475 32.5588 89.4439C32.5214 89.6402 32.4165 89.8173 32.2623 89.9446C32.1081 90.0718 31.9142 90.1411 31.7143 90.1405C31.6056 90.1408 31.4979 90.1201 31.3971 90.0796C30.0629 89.5608 28.7942 88.8871 27.6171 88.0725C28.1743 89.9211 30.0094 92.1553 33.3403 93.1058C33.858 91.4223 34.7419 89.8743 35.9286 88.5727C37.1154 87.2711 38.5755 86.2483 40.2043 85.5777C38.5752 84.2365 36.7507 83.1522 34.794 82.3621C31.3677 80.8103 28.308 78.5522 25.8154 75.7356C25.2077 75.0654 24.6257 74.3575 24.0789 73.6248C24.0257 74.2435 24 74.9009 24 75.5891C24.0016 77.2533 24.5981 78.8621 25.6817 80.1253V80.1261Z" fill="url(#paint3_linear_6_6684)"/>
<path d="M50.4609 74.3961L50.8123 73.5219C50.8354 73.4643 50.844 73.4018 50.8374 73.3401C50.8308 73.2783 50.8092 73.2191 50.7745 73.1677C50.7397 73.1162 50.6929 73.074 50.6381 73.0448C50.5833 73.0155 50.5222 73.0002 50.4601 73H45.5401C45.4779 73 45.4166 73.0152 45.3617 73.0444C45.3068 73.0735 45.2599 73.1157 45.2251 73.1673C45.1903 73.2188 45.1687 73.2781 45.1622 73.34C45.1557 73.4018 45.1645 73.4643 45.1878 73.5219L45.5383 74.3944L46.2241 76.1084C46.2659 76.213 46.2866 76.3247 46.2852 76.4373C46.2838 76.5499 46.2602 76.6611 46.2158 76.7646C46.1714 76.868 46.107 76.9617 46.0264 77.0403C45.9457 77.1189 45.8504 77.1808 45.7458 77.2226C45.6451 77.2636 45.5374 77.2849 45.4286 77.2851C45.2572 77.2852 45.0897 77.2338 44.9478 77.1378C44.8058 77.0417 44.6959 76.9052 44.6323 76.746L44.1626 75.5711H43.2343C43.1696 75.5713 43.106 75.5881 43.0495 75.6199C42.993 75.6516 42.9456 75.6972 42.9117 75.7524C42.8778 75.8076 42.8585 75.8705 42.8558 75.9352C42.853 75.9999 42.8667 76.0642 42.8958 76.1221L45.1098 80.7132H50.8903L53.0992 76.1324L53.1043 76.1221C53.1334 76.0642 53.1471 75.9999 53.1444 75.9352C53.1416 75.8705 53.1223 75.8076 53.0884 75.7524C53.0545 75.6972 53.0071 75.6516 52.9506 75.6199C52.8942 75.5881 52.8305 75.5713 52.7658 75.5711H51.8375L51.3678 76.746C51.3042 76.9052 51.1943 77.0417 51.0524 77.1378C50.9104 77.2338 50.7429 77.2852 50.5715 77.2851C50.4626 77.2855 50.3546 77.2649 50.2535 77.2243C50.1489 77.1825 50.0535 77.1206 49.9729 77.042C49.8922 76.9635 49.8279 76.8698 49.7835 76.7663C49.739 76.6628 49.7154 76.5516 49.714 76.439C49.7126 76.3265 49.7334 76.2147 49.7752 76.1101L50.4609 74.3961Z" fill="#707070"/>
<path d="M51.4286 84.1413C51.656 84.1413 51.874 84.051 52.0347 83.8903C52.1955 83.7296 52.2858 83.5116 52.2858 83.2843C52.2858 83.057 52.1955 82.839 52.0347 82.6783C51.874 82.5175 51.656 82.4272 51.4286 82.4272H44.5715C44.3442 82.4272 44.1262 82.5175 43.9654 82.6783C43.8047 82.839 43.7144 83.057 43.7144 83.2843C43.7144 83.5116 43.8047 83.7296 43.9654 83.8903C44.1262 84.051 44.3442 84.1413 44.5715 84.1413H51.4286Z" fill="#707070"/>
</g>
<rect x="0.5" y="49.5" width="95" height="95" rx="47.5" stroke="url(#paint4_linear_6_6684)"/>
<defs>
<linearGradient id="paint0_linear_6_6684" x1="30.5785" y1="49.0777" x2="79.7472" y2="94.2878" gradientUnits="userSpaceOnUse">
<stop stop-color="#FFC737"/>
<stop offset="1" stop-color="#F17C34"/>
</linearGradient>
<linearGradient id="paint1_linear_6_6684" x1="85.4396" y1="94.1391" x2="26.147" y2="49.3203" gradientUnits="userSpaceOnUse">
<stop stop-color="#DE5E2F"/>
<stop offset="0.5915" stop-color="#E77F30"/>
<stop offset="0.8434" stop-color="#F8AC2D"/>
</linearGradient>
<linearGradient id="paint2_linear_6_6684" x1="63.9" y1="73.6248" x2="63.9" y2="93.1058" gradientUnits="userSpaceOnUse">
<stop stop-color="#F8AC2D"/>
<stop offset="1" stop-color="#DE5E2F"/>
</linearGradient>
<linearGradient id="paint3_linear_6_6684" x1="32.1021" y1="73.6248" x2="32.1021" y2="93.1058" gradientUnits="userSpaceOnUse">
<stop stop-color="#F8AC2D"/>
<stop offset="1" stop-color="#DE5E2F"/>
</linearGradient>
<linearGradient id="paint4_linear_6_6684" x1="48" y1="49" x2="48" y2="145" gradientUnits="userSpaceOnUse">
<stop stop-color="#F8AC2D"/>
<stop offset="1" stop-color="#DE5E2F" stop-opacity="0"/>
</linearGradient>
<clipPath id="clip0_6_6684">
<rect width="48" height="48" fill="white" transform="translate(24 73)"/>
</clipPath>
</defs>
</svg>
