<svg width="96" height="145" viewBox="0 0 96 145" fill="none" xmlns="http://www.w3.org/2000/svg">
<path d="M85.9941 70.1262C84.2314 63.1479 76.1569 55.7692 72.8589 42.499C72.8589 42.499 73.0295 34.2623 75.1902 25.1677C62.9648 29.9724 58.5864 43.5286 58.5864 43.5286C58.5864 43.5286 60.0079 27.9704 55.857 16.8166C51.6491 5.66272 45.2805 1.88757 42.4374 0C42.4374 0 45.3374 7.83629 40.561 16.8738C35.5002 26.4832 23.559 39.5247 21.114 51.0789C18.6689 62.6331 21.0571 69.2682 22.0238 73.1578C22.9904 77.1045 24.6963 81.5661 24.6963 81.5661C24.6963 81.5661 14.063 77.3333 12.0728 55.5976C6.32969 68.925 7.23949 82.1381 11.2199 90.8323C15.2003 99.5266 18.9532 105.533 27.9943 110.223C37.0355 114.97 49.0335 110.738 48.2374 101.872C47.4982 94.3215 40.4472 87.4576 36.9786 80.2505C33.4531 72.8718 24.5257 49.4201 47.1001 30.9448C47.1001 30.9448 41.4139 45.931 43.6315 54.6252C45.4511 61.6607 48.408 64.5207 52.2746 69.497C57.3923 76.0177 76.4981 87.7436 67.3432 105.247C66.206 99.7554 61.4295 87.0572 51.1374 83.6252C54.2648 88.8304 58.5864 95.6371 58.8138 101.986C59.4393 110.509 54.208 113.369 51.5354 116C58.757 115.028 73.5412 110.795 81.2745 100.499C89.0078 90.3176 88.8373 81.2801 85.9941 70.1262ZM74.7922 90.432C74.7922 90.432 75.8726 86.0276 73.9393 81.1085C72.0059 76.1893 68.7079 73.1578 65.9785 69.5542C63.2491 65.9507 62.1119 62.5187 62.055 55.9408C61.9981 49.3629 66.7177 43.8718 66.7177 43.8718C66.7177 43.8718 66.604 44.1578 68.651 52.6805C70.6981 61.2604 78.8295 66.5227 79.2844 77.3905C79.7961 88.3728 74.7922 90.432 74.7922 90.432Z" fill="url(#paint0_linear_6_6697)"/>
<path d="M86.7907 70.6983C84.175 59.0869 77.8064 57.3709 74.4515 44.1007C74.4515 44.1007 72.4045 36.8364 74.5084 27.6845C66.6613 31.1737 60.179 42.8995 60.179 42.8995C60.179 42.8995 61.6006 29.5721 57.3928 18.4183C53.2418 7.26441 46.93 3.43206 44.0869 1.60168C44.0869 1.60168 46.8732 11.2112 41.3006 19.791C35.7281 28.3709 25.2086 41.1263 22.7066 52.7378C20.2615 64.292 22.6497 70.9271 23.6164 74.8167C24.5831 78.7634 26.2889 83.2249 26.2889 83.2249C26.2889 83.2249 14.9733 77.9626 12.5851 59.8305C8.2635 70.0119 8.88898 83.7969 12.8125 92.4912C16.7929 101.185 20.5458 107.191 29.587 111.882C38.6281 116.629 50.6261 112.397 49.83 103.531C49.0908 95.9804 42.0399 89.1165 38.5712 81.9094C35.0458 74.5307 24.7536 52.2802 47.3281 33.8048C47.3281 33.8048 43.1771 47.933 45.281 56.2841C46.93 62.862 49.4889 66.6944 53.9241 71.1559C58.4163 75.6747 77.977 90.6036 68.7653 106.448C67.628 100.957 63.079 88.6589 52.7869 85.2841C55.9143 90.4892 60.2359 97.2959 60.4633 103.645C60.6908 109.994 58.1888 112.683 55.5163 115.371C65.0123 113.255 74.9633 108.507 80.877 101.128C86.7907 93.6352 89.8613 84.3117 86.7907 70.6983ZM76.4417 92.0336C76.4417 92.0336 77.5221 87.6293 75.5888 82.7102C73.6555 77.791 70.3574 74.7595 67.628 71.1559C64.8986 67.5524 63.7614 64.1204 63.7045 57.5425C63.6476 50.9646 68.3672 45.4735 68.3672 45.4735C68.3672 45.4735 68.2535 45.7595 70.3005 54.2822C72.3476 62.862 80.479 68.1244 80.9339 78.9922C81.4456 89.9173 76.4417 92.0336 76.4417 92.0336Z" fill="url(#paint1_linear_6_6697)"/>
<rect x="0.5" y="49.5" width="95" height="95" rx="47.5" fill="#333333"/>
<g clip-path="url(#clip0_6_6697)">
<path d="M32 115.094V116.969C32 119.294 33.8938 121.188 36.2188 121.188H57.5938C59.9187 121.188 61.8125 119.294 61.8125 116.969V115.094H32Z" fill="url(#paint2_linear_6_6697)"/>
<path d="M62.1203 84.9625L61.5859 84.4281C59.3547 82.1968 55.7172 82.1968 53.4859 84.4281C51.2547 86.6593 51.2547 90.2968 53.4859 92.5281L61.1266 100.169C61.6797 100.722 62.5703 100.722 63.1141 100.169C63.2922 99.9906 70.3609 92.9218 70.7547 92.5281C73.314 89.9687 72.8922 85.6562 69.8172 83.6687C68.1109 82.5625 65.9734 82.4781 64.2203 83.3218C63.1984 83.8093 62.7203 84.3625 62.1203 84.9625Z" fill="url(#paint3_linear_6_6697)"/>
<path d="M57.2281 79.9375C58.8781 79.9375 60.4531 80.3969 61.8125 81.2687V77.2188C61.8125 74.8938 59.9187 73 57.5938 73H48.3125V77.5C48.3125 78.2781 47.6844 78.9062 46.9062 78.9062C46.1281 78.9062 45.5 78.2781 45.5 77.5V73H36.2188C33.8938 73 32 74.8938 32 77.2188V112.094H61.8125V103.394C60.6875 103.394 59.6281 102.953 58.8313 102.156L51.1906 94.5156C49.5781 92.9031 48.6875 90.7563 48.6875 88.4781C48.6875 86.1906 49.5781 84.0531 51.1906 82.4406C52.8031 80.8281 54.9406 79.9375 57.2281 79.9375ZM39.4062 94.0938H42.4062C43.1844 94.0938 43.8125 94.7219 43.8125 95.5C43.8125 96.2781 43.1844 96.9062 42.4062 96.9062H39.4062C38.6281 96.9062 38 96.2781 38 95.5C38 94.7219 38.6281 94.0938 39.4062 94.0938ZM43.9062 102.906H39.4062C38.6281 102.906 38 102.278 38 101.5C38 100.722 38.6281 100.094 39.4062 100.094H43.9062C44.6844 100.094 45.3125 100.722 45.3125 101.5C45.3125 102.278 44.6844 102.906 43.9062 102.906ZM49.9062 106.094H54.4062C55.1844 106.094 55.8125 106.722 55.8125 107.5C55.8125 108.278 55.1844 108.906 54.4062 108.906H49.9062C49.1281 108.906 48.5 108.278 48.5 107.5C48.5 106.722 49.1281 106.094 49.9062 106.094Z" fill="#707070"/>
</g>
<rect x="0.5" y="49.5" width="95" height="95" rx="47.5" stroke="url(#paint4_linear_6_6697)"/>
<defs>
<linearGradient id="paint0_linear_6_6697" x1="30.5785" y1="49.0777" x2="79.7472" y2="94.2878" gradientUnits="userSpaceOnUse">
<stop stop-color="#FFC737"/>
<stop offset="1" stop-color="#F17C34"/>
</linearGradient>
<linearGradient id="paint1_linear_6_6697" x1="85.4396" y1="94.1391" x2="26.147" y2="49.3203" gradientUnits="userSpaceOnUse">
<stop stop-color="#DE5E2F"/>
<stop offset="0.5915" stop-color="#E77F30"/>
<stop offset="0.8434" stop-color="#F8AC2D"/>
</linearGradient>
<linearGradient id="paint2_linear_6_6697" x1="46.9062" y1="115.094" x2="46.9062" y2="121.188" gradientUnits="userSpaceOnUse">
<stop stop-color="#F8AC2D"/>
<stop offset="1" stop-color="#DE5E2F"/>
</linearGradient>
<linearGradient id="paint3_linear_6_6697" x1="62.121" y1="82.7546" x2="62.121" y2="100.584" gradientUnits="userSpaceOnUse">
<stop stop-color="#F8AC2D"/>
<stop offset="1" stop-color="#DE5E2F"/>
</linearGradient>
<linearGradient id="paint4_linear_6_6697" x1="48" y1="49" x2="48" y2="145" gradientUnits="userSpaceOnUse">
<stop stop-color="#F8AC2D"/>
<stop offset="1" stop-color="#DE5E2F" stop-opacity="0"/>
</linearGradient>
<clipPath id="clip0_6_6697">
<rect width="48" height="48" fill="white" transform="translate(24 73)"/>
</clipPath>
</defs>
</svg>
