<svg width="96" height="145" viewBox="0 0 96 145" fill="none" xmlns="http://www.w3.org/2000/svg">
<path d="M85.9941 70.1262C84.2314 63.1479 76.1569 55.7692 72.8589 42.499C72.8589 42.499 73.0295 34.2623 75.1902 25.1677C62.9648 29.9724 58.5864 43.5286 58.5864 43.5286C58.5864 43.5286 60.0079 27.9704 55.857 16.8166C51.6491 5.66272 45.2805 1.88757 42.4374 0C42.4374 0 45.3374 7.83629 40.561 16.8738C35.5002 26.4832 23.559 39.5247 21.114 51.0789C18.6689 62.6331 21.0571 69.2682 22.0238 73.1578C22.9904 77.1045 24.6963 81.5661 24.6963 81.5661C24.6963 81.5661 14.063 77.3333 12.0728 55.5976C6.32969 68.925 7.23949 82.1381 11.2199 90.8323C15.2003 99.5266 18.9532 105.533 27.9943 110.223C37.0355 114.97 49.0335 110.738 48.2374 101.872C47.4982 94.3215 40.4472 87.4576 36.9786 80.2505C33.4531 72.8718 24.5257 49.4201 47.1001 30.9448C47.1001 30.9448 41.4139 45.931 43.6315 54.6252C45.4511 61.6607 48.408 64.5207 52.2746 69.497C57.3923 76.0177 76.4981 87.7436 67.3432 105.247C66.206 99.7554 61.4295 87.0572 51.1374 83.6252C54.2648 88.8304 58.5864 95.6371 58.8138 101.986C59.4393 110.509 54.208 113.369 51.5354 116C58.757 115.028 73.5412 110.795 81.2745 100.499C89.0078 90.3176 88.8373 81.2801 85.9941 70.1262ZM74.7922 90.432C74.7922 90.432 75.8726 86.0276 73.9393 81.1085C72.0059 76.1893 68.7079 73.1578 65.9785 69.5542C63.2491 65.9507 62.1119 62.5187 62.055 55.9408C61.9981 49.3629 66.7177 43.8718 66.7177 43.8718C66.7177 43.8718 66.604 44.1578 68.651 52.6805C70.6981 61.2604 78.8295 66.5227 79.2844 77.3905C79.7961 88.3728 74.7922 90.432 74.7922 90.432Z" fill="url(#paint0_linear_6_6707)"/>
<path d="M86.7907 70.6983C84.175 59.0869 77.8064 57.3709 74.4515 44.1007C74.4515 44.1007 72.4045 36.8364 74.5084 27.6845C66.6613 31.1737 60.179 42.8995 60.179 42.8995C60.179 42.8995 61.6006 29.5721 57.3928 18.4183C53.2418 7.26441 46.93 3.43206 44.0869 1.60168C44.0869 1.60168 46.8732 11.2112 41.3006 19.791C35.7281 28.3709 25.2086 41.1263 22.7066 52.7378C20.2615 64.292 22.6497 70.9271 23.6164 74.8167C24.5831 78.7634 26.2889 83.2249 26.2889 83.2249C26.2889 83.2249 14.9733 77.9626 12.5851 59.8305C8.2635 70.0119 8.88898 83.7969 12.8125 92.4912C16.7929 101.185 20.5458 107.191 29.587 111.882C38.6281 116.629 50.6261 112.397 49.83 103.531C49.0908 95.9804 42.0399 89.1165 38.5712 81.9094C35.0458 74.5307 24.7536 52.2802 47.3281 33.8048C47.3281 33.8048 43.1771 47.933 45.281 56.2841C46.93 62.862 49.4889 66.6944 53.9241 71.1559C58.4163 75.6747 77.977 90.6036 68.7653 106.448C67.628 100.957 63.079 88.6589 52.7869 85.2841C55.9143 90.4892 60.2359 97.2959 60.4633 103.645C60.6908 109.994 58.1888 112.683 55.5163 115.371C65.0123 113.255 74.9633 108.507 80.877 101.128C86.7907 93.6352 89.8613 84.3117 86.7907 70.6983ZM76.4417 92.0336C76.4417 92.0336 77.5221 87.6293 75.5888 82.7102C73.6555 77.791 70.3574 74.7595 67.628 71.1559C64.8986 67.5524 63.7614 64.1204 63.7045 57.5425C63.6476 50.9646 68.3672 45.4735 68.3672 45.4735C68.3672 45.4735 68.2535 45.7595 70.3005 54.2822C72.3476 62.862 80.479 68.1244 80.9339 78.9922C81.4456 89.9173 76.4417 92.0336 76.4417 92.0336Z" fill="url(#paint1_linear_6_6707)"/>
<rect x="0.5" y="49.5" width="95" height="95" rx="47.5" fill="#333333"/>
<g clip-path="url(#clip0_6_6707)">
<path d="M50.775 108.374L50.5918 108.275C50.1604 108.023 49.8095 107.654 49.5799 107.211C49.3504 106.768 49.2515 106.27 49.2948 105.773C49.2948 105.506 49.2948 105.239 49.2948 104.972C49.2781 104.476 49.4014 103.986 49.6507 103.558C49.9 103.129 50.2652 102.779 50.7045 102.547L50.8878 102.455C51.0461 102.378 51.1694 102.244 51.2333 102.08C51.2973 101.916 51.2972 101.734 51.2332 101.57L50.0913 98.5758C50.029 98.4106 49.9068 98.2748 49.7488 98.1954C49.5907 98.1159 49.4086 98.0987 49.2384 98.147L49.1044 98.1962C48.6175 98.3224 48.1046 98.3081 47.6254 98.1551C47.1462 98.0021 46.7205 97.7165 46.3977 97.3317C46.2215 97.1279 46.0382 96.9311 45.8479 96.7483C45.4824 96.4077 45.2219 95.9702 45.097 95.4872C44.9722 95.0041 44.9881 94.4956 45.143 94.0213L45.2064 93.8245C45.2644 93.6589 45.2583 93.4777 45.1891 93.3165C45.12 93.1552 44.9929 93.0256 44.8328 92.9529L41.9146 91.6456C41.7535 91.5745 41.5716 91.566 41.4046 91.622C41.2376 91.6779 41.0977 91.7942 41.0124 91.9479L40.9207 92.1165C40.6664 92.5501 40.293 92.9022 39.8447 93.1314C39.3964 93.3605 38.8917 93.4571 38.3902 93.4098C38.1153 93.4098 37.8545 93.4098 37.5796 93.4098C37.0766 93.4224 36.5804 93.2923 36.1487 93.0348C35.7169 92.7772 35.3674 92.4027 35.1407 91.9549L35.049 91.7792C34.9735 91.6188 34.8401 91.4928 34.6754 91.4263C34.5107 91.3599 34.327 91.3579 34.1609 91.4207L31.1581 92.5734C30.9924 92.6355 30.8562 92.7574 30.7766 92.9149C30.6969 93.0725 30.6796 93.2542 30.7281 93.4238L30.7845 93.6066C30.9106 94.0888 30.8975 94.5967 30.7466 95.0718C30.5957 95.5468 30.3131 95.9697 29.9316 96.2915C29.7272 96.4672 29.5298 96.657 29.3465 96.8467C29.0011 97.2123 28.5587 97.4724 28.0707 97.5969C27.5828 97.7213 27.0694 97.7049 26.5904 97.5496L26.4071 97.4934C26.2412 97.4405 26.0616 97.4507 25.9028 97.5221C25.744 97.5935 25.6173 97.7209 25.5472 97.8799L24.2079 100.783C24.1276 100.946 24.1136 101.133 24.1687 101.306C24.2239 101.479 24.344 101.624 24.504 101.71L24.6872 101.816C25.114 102.064 25.4621 102.427 25.6915 102.863C25.9209 103.3 26.0223 103.792 25.9842 104.283V105.091C26.0022 105.588 25.8795 106.079 25.6302 106.509C25.3808 106.939 25.0149 107.291 24.5744 107.523L24.3912 107.614C24.2345 107.692 24.1125 107.825 24.0486 107.987C23.9848 108.15 23.9838 108.33 24.0458 108.493L25.1877 111.494C25.2513 111.658 25.3741 111.792 25.532 111.87C25.6898 111.948 25.8713 111.965 26.0406 111.916L26.2309 111.867C26.7179 111.74 27.2308 111.755 27.71 111.908C28.1891 112.061 28.6149 112.346 28.9377 112.731C29.1139 112.928 29.2972 113.125 29.4875 113.315C29.8524 113.654 30.1126 114.09 30.2374 114.572C30.3623 115.054 30.3467 115.561 30.1924 116.035L30.1289 116.231C30.0709 116.397 30.0771 116.578 30.1462 116.739C30.2154 116.901 30.3424 117.03 30.5025 117.103L33.4489 118.417C33.6108 118.488 33.7934 118.495 33.9605 118.438C34.1276 118.381 34.2671 118.263 34.3512 118.108L34.4428 117.946C34.6965 117.515 35.0674 117.164 35.5127 116.934C35.958 116.704 36.4595 116.604 36.9593 116.646H37.7628C38.2649 116.634 38.7602 116.763 39.1917 117.019C39.6233 117.275 39.9734 117.648 40.2017 118.094L40.2934 118.277C40.3529 118.391 40.443 118.487 40.5536 118.554C40.6643 118.621 40.7913 118.656 40.9207 118.656C41.0048 118.657 41.0884 118.643 41.1674 118.614L44.1773 117.468C44.3429 117.406 44.4791 117.284 44.5588 117.127C44.6384 116.969 44.6557 116.788 44.6073 116.618L44.4945 116.47C44.3686 115.986 44.3825 115.477 44.5347 115.001C44.6868 114.524 44.971 114.101 45.3545 113.778C45.5589 113.603 45.7562 113.42 45.9395 113.23C46.2849 112.865 46.7273 112.605 47.2153 112.48C47.7033 112.356 48.2166 112.372 48.6956 112.527L48.8859 112.591C49.051 112.644 49.23 112.635 49.3887 112.565C49.5473 112.495 49.6745 112.369 49.7459 112.211L51.0781 109.273C51.1495 109.113 51.1579 108.931 51.1018 108.765C51.0457 108.598 50.9291 108.459 50.775 108.374V108.374ZM43.0847 107.467C42.6832 108.36 42.0668 109.142 41.2902 109.741C40.5135 110.34 39.6006 110.739 38.6323 110.903C37.6641 111.066 36.6703 110.989 35.7391 110.678C34.808 110.366 33.9682 109.831 33.2941 109.119C32.6201 108.407 32.1326 107.54 31.875 106.595C31.6173 105.65 31.5973 104.656 31.8169 103.702C32.0365 102.747 32.4888 101.862 33.1337 101.123C33.7787 100.385 34.5963 99.8164 35.5143 99.4684C36.6176 99.0501 37.8205 98.9673 38.971 99.2304C40.1215 99.4936 41.168 100.091 41.9782 100.947C42.7884 101.803 43.3259 102.879 43.5228 104.04C43.7198 105.2 43.5673 106.393 43.0847 107.467V107.467Z" fill="url(#paint2_linear_6_6707)"/>
<path d="M44.0151 85.8699L43.8949 85.93C43.7266 86.0117 43.5949 86.1532 43.5254 86.3268C43.4559 86.5005 43.4538 86.6938 43.5193 86.869L44.3155 88.9422C44.3818 89.1171 44.5109 89.261 44.6776 89.3457C44.8443 89.4304 45.0366 89.45 45.2169 89.4004L45.3446 89.3629C45.6319 89.2883 45.9344 89.2975 46.2166 89.3893C46.4988 89.4812 46.7488 89.6518 46.9371 89.8812C47.0648 90.0239 47.2 90.1591 47.3353 90.2943C47.5544 90.492 47.7105 90.75 47.784 91.0358C47.8574 91.3217 47.8451 91.6229 47.7484 91.9018L47.7033 92.037C47.642 92.2149 47.6497 92.4093 47.7248 92.5817C47.7999 92.7542 47.937 92.8922 48.109 92.9685L50.1371 93.8699C50.3053 93.9485 50.4966 93.962 50.6741 93.9079C50.8517 93.8538 51.0029 93.7359 51.0986 93.577L51.1587 93.4643C51.3123 93.2096 51.535 93.0039 51.801 92.8709C52.067 92.7379 52.3652 92.6832 52.6611 92.7131H53.2395C53.5343 92.7093 53.8244 92.7882 54.0766 92.9409C54.3289 93.0936 54.5333 93.314 54.6667 93.577L54.7268 93.7047C54.7903 93.8271 54.8862 93.9298 55.0041 94.0013C55.1221 94.0729 55.2574 94.1106 55.3954 94.1103C55.4873 94.11 55.5787 94.0948 55.6658 94.0652L57.7315 93.269C57.9064 93.2027 58.0503 93.0736 58.135 92.9069C58.2197 92.7402 58.2393 92.5479 58.1897 92.3676L58.1522 92.2323C58.0774 91.947 58.0857 91.6461 58.1762 91.3653C58.2667 91.0845 58.4356 90.8354 58.663 90.6474C58.8105 90.5226 58.9509 90.3897 59.0836 90.2492C59.2853 90.0309 59.5451 89.8747 59.8325 89.7989C60.1199 89.723 60.423 89.7307 60.7062 89.8211L60.8414 89.8586C61.0173 89.9157 61.208 89.9058 61.3771 89.831C61.5462 89.7561 61.6818 89.6216 61.7578 89.453L62.6667 87.4323C62.7434 87.2616 62.7535 87.0683 62.6952 86.8905C62.6368 86.7126 62.5142 86.563 62.3512 86.4708L62.231 86.4032C61.9764 86.2497 61.7706 86.0269 61.6377 85.761C61.5047 85.495 61.45 85.1967 61.4799 84.9009C61.4799 84.7056 61.4799 84.5178 61.4799 84.33C61.4693 84.0346 61.5428 83.7423 61.6917 83.4871C61.8406 83.2318 62.0589 83.024 62.3212 82.8877L62.4489 82.8276C62.6158 82.7447 62.7459 82.6026 62.8139 82.4291C62.882 82.2556 62.883 82.063 62.817 81.8887L62.0357 79.8229C61.9694 79.6448 61.8379 79.4984 61.6678 79.4133C61.4977 79.3283 61.3017 79.3109 61.1193 79.3647L60.9841 79.4023C60.6969 79.4769 60.3943 79.4677 60.1121 79.3758C59.8299 79.284 59.5799 79.1133 59.3916 78.884C59.2639 78.7413 59.1362 78.606 59.001 78.4708C58.7845 78.2712 58.6298 78.0136 58.5552 77.7287C58.4807 77.4438 58.4894 77.1434 58.5803 76.8633L58.6254 76.7356C58.6894 76.5577 58.6839 76.3623 58.6101 76.1882C58.5363 76.0142 58.3996 75.8743 58.2273 75.7966L56.1991 74.8952C56.0266 74.817 55.8309 74.8068 55.6513 74.8667C55.4716 74.9266 55.3211 75.0522 55.2301 75.2182L55.1775 75.3309C55.0253 75.5868 54.8028 75.7937 54.5365 75.9268C54.2702 76.06 53.9712 76.1139 53.6752 76.0821C53.4827 76.0672 53.2893 76.0672 53.0968 76.0821C52.8 76.0903 52.507 76.0142 52.2517 75.8627C51.9964 75.7111 51.7893 75.4903 51.6545 75.2258L51.5944 75.0981C51.5102 74.9325 51.3676 74.804 51.1942 74.7374C51.0208 74.6708 50.8288 74.6709 50.6554 74.7375L48.6123 75.5488C48.4388 75.6164 48.2966 75.7461 48.2133 75.9127C48.13 76.0792 48.1116 76.2708 48.1616 76.4502V76.5854C48.2327 76.8709 48.2226 77.1707 48.1323 77.4508C48.0421 77.7309 47.8753 77.9801 47.6508 78.1704C47.5016 78.2933 47.3611 78.4263 47.2301 78.5685C47.0259 78.7829 46.7649 78.9349 46.4777 79.0067C46.1904 79.0785 45.8886 79.0672 45.6076 78.9741H45.4723C45.3101 78.9212 45.1347 78.9251 44.9749 78.9851C44.8152 79.0452 44.6806 79.1579 44.5935 79.3046L43.6846 81.3253C43.6006 81.4976 43.5858 81.6956 43.643 81.8785C43.7003 82.0614 43.8253 82.2156 43.9925 82.3093L44.1202 82.3769C44.3768 82.5285 44.5841 82.7508 44.7174 83.0173C44.8507 83.2838 44.9041 83.5831 44.8714 83.8793V84.4577C44.8748 84.7496 44.7964 85.0366 44.6451 85.2862C44.4937 85.5358 44.2755 85.738 44.0151 85.8699V85.8699ZM49.1831 82.5873C49.5061 81.8687 50.0169 81.2506 50.6617 80.798C51.3065 80.3455 52.0614 80.0752 52.8469 80.0157C53.6325 79.9563 54.4195 80.1098 55.1251 80.4601C55.8307 80.8104 56.4287 81.3446 56.8562 82.0063C57.2836 82.668 57.5247 83.4328 57.5539 84.22C57.5832 85.0072 57.3995 85.7878 57.0223 86.4794C56.6452 87.171 56.0884 87.748 55.4108 88.1498C54.7331 88.5515 53.9597 88.7629 53.1719 88.7619C52.5457 88.7643 51.926 88.6337 51.354 88.3788C50.2952 87.9015 49.469 87.0237 49.0564 85.938C48.6438 84.8523 48.6786 83.6473 49.1531 82.5873H49.1831Z" fill="#707070"/>
<path d="M71.4855 111.605L71.3653 111.537C71.1107 111.384 70.9049 111.161 70.7719 110.895C70.6389 110.629 70.5842 110.331 70.6141 110.035C70.6141 109.847 70.6141 109.652 70.6141 109.464C70.6045 109.169 70.6783 108.877 70.8272 108.622C70.976 108.367 71.1937 108.159 71.4554 108.022L71.5831 107.962C71.7501 107.879 71.8802 107.737 71.9482 107.563C72.0162 107.39 72.0173 107.197 71.9512 107.023L71.1625 104.95C71.0962 104.775 70.9671 104.631 70.8004 104.546C70.6337 104.461 70.4414 104.442 70.2611 104.491H70.1259C69.8386 104.565 69.5363 104.555 69.2543 104.464C68.9723 104.372 68.7223 104.202 68.5334 103.973C68.4057 103.83 68.278 103.695 68.1428 103.56C67.9263 103.36 67.7716 103.103 67.697 102.818C67.6224 102.533 67.6312 102.233 67.7221 101.952L67.7747 101.817C67.836 101.639 67.8283 101.445 67.7532 101.273C67.6781 101.1 67.541 100.962 67.3691 100.886L65.3409 99.9844C65.1684 99.9062 64.9727 99.896 64.793 99.9559C64.6133 100.016 64.4629 100.141 64.3719 100.307L64.3193 100.42C64.1671 100.676 63.9446 100.883 63.6783 101.016C63.4119 101.149 63.113 101.203 62.8169 101.171C62.6216 101.171 62.4564 101.171 62.2385 101.171C61.9479 101.177 61.6613 101.103 61.4106 100.955C61.1599 100.808 60.9551 100.594 60.8188 100.337L60.7587 100.21C60.6745 100.044 60.5319 99.9157 60.3585 99.8491C60.1851 99.7825 59.9931 99.7826 59.8197 99.8492L57.7465 100.645C57.573 100.713 57.4308 100.843 57.3476 101.009C57.2643 101.176 57.2458 101.367 57.2958 101.547L57.3334 101.682C57.4063 101.968 57.3971 102.268 57.3067 102.548C57.2163 102.829 57.0485 103.078 56.8226 103.267C56.6752 103.392 56.5348 103.525 56.4019 103.665C56.1977 103.88 55.9367 104.032 55.6495 104.103C55.3622 104.175 55.0605 104.164 54.7794 104.071H54.6442C54.4683 104.014 54.2775 104.024 54.1084 104.098C53.9393 104.173 53.8038 104.308 53.7277 104.476L52.8564 106.49C52.7791 106.659 52.7678 106.852 52.8247 107.03C52.8817 107.208 53.0027 107.358 53.1643 107.451L53.292 107.519C53.5486 107.67 53.756 107.893 53.8892 108.159C54.0225 108.426 54.0759 108.725 54.0432 109.021V109.599C54.053 109.896 53.9785 110.188 53.8282 110.444C53.6779 110.699 53.4581 110.907 53.1944 111.042L53.0742 111.102C52.9059 111.183 52.7742 111.325 52.7047 111.499C52.6353 111.672 52.6331 111.866 52.6986 112.041L53.4949 114.114C53.5611 114.289 53.6902 114.433 53.8569 114.517C54.0236 114.602 54.2159 114.622 54.3963 114.572L54.5315 114.535C54.8187 114.461 55.121 114.471 55.403 114.562C55.685 114.654 55.9351 114.824 56.124 115.053C56.2442 115.196 56.3794 115.331 56.5146 115.466C56.7337 115.664 56.8898 115.922 56.9633 116.208C57.0368 116.494 57.0244 116.795 56.9277 117.074L56.8827 117.201C56.8192 117.38 56.8257 117.576 56.901 117.751C56.9762 117.925 57.1146 118.064 57.2883 118.14L59.3165 119.042C59.4881 119.118 59.682 119.127 59.86 119.067C60.0379 119.007 60.187 118.883 60.278 118.719L60.3381 118.606C60.4923 118.352 60.7151 118.147 60.9809 118.014C61.2467 117.881 61.5447 117.826 61.8404 117.855H62.4188C62.7154 117.848 63.0081 117.924 63.2632 118.075C63.5183 118.227 63.7255 118.447 63.8611 118.711L63.9212 118.839C63.9846 118.961 64.0806 119.064 64.1985 119.136C64.3164 119.207 64.4518 119.245 64.5897 119.245C64.6817 119.244 64.773 119.229 64.8601 119.199L66.8658 118.366C67.0406 118.299 67.1845 118.17 67.2693 118.004C67.354 117.837 67.3735 117.645 67.324 117.464V117.329C67.2492 117.044 67.2575 116.743 67.348 116.462C67.4385 116.181 67.6074 115.932 67.8348 115.744L68.2554 115.346C68.4591 115.131 68.7201 114.978 69.0075 114.906C69.295 114.835 69.597 114.846 69.878 114.94L70.0132 114.978C70.1786 115.026 70.3554 115.015 70.5141 114.948C70.6727 114.881 70.8035 114.762 70.8845 114.61L71.7935 112.589C71.8774 112.417 71.8922 112.219 71.835 112.036C71.7777 111.853 71.6527 111.699 71.4855 111.605V111.605ZM66.3024 111.32C65.9563 112.09 65.3949 112.743 64.6859 113.202C63.9769 113.66 63.1505 113.904 62.3061 113.904C61.69 113.902 61.0811 113.771 60.5183 113.521C59.7276 113.166 59.0596 112.586 58.599 111.852C58.1384 111.118 57.9058 110.264 57.9307 109.398C57.9556 108.532 58.2368 107.693 58.7388 106.986C59.2408 106.28 59.941 105.739 60.7507 105.431C61.5605 105.123 62.4435 105.062 63.288 105.255C64.1325 105.449 64.9005 105.889 65.4948 106.52C66.0891 107.15 66.4831 107.943 66.6269 108.797C66.7706 109.652 66.6577 110.529 66.3024 111.32V111.32Z" fill="#707070"/>
</g>
<rect x="0.5" y="49.5" width="95" height="95" rx="47.5" stroke="url(#paint3_linear_6_6707)"/>
<defs>
<linearGradient id="paint0_linear_6_6707" x1="30.5785" y1="49.0777" x2="79.7472" y2="94.2878" gradientUnits="userSpaceOnUse">
<stop stop-color="#FFC737"/>
<stop offset="1" stop-color="#F17C34"/>
</linearGradient>
<linearGradient id="paint1_linear_6_6707" x1="85.4396" y1="94.1391" x2="26.147" y2="49.3203" gradientUnits="userSpaceOnUse">
<stop stop-color="#DE5E2F"/>
<stop offset="0.5915" stop-color="#E77F30"/>
<stop offset="0.8434" stop-color="#F8AC2D"/>
</linearGradient>
<linearGradient id="paint2_linear_6_6707" x1="37.6406" y1="91.375" x2="37.6406" y2="118.656" gradientUnits="userSpaceOnUse">
<stop stop-color="#F8AC2D"/>
<stop offset="1" stop-color="#DE5E2F"/>
</linearGradient>
<linearGradient id="paint3_linear_6_6707" x1="48" y1="49" x2="48" y2="145" gradientUnits="userSpaceOnUse">
<stop stop-color="#F8AC2D"/>
<stop offset="1" stop-color="#DE5E2F" stop-opacity="0"/>
</linearGradient>
<clipPath id="clip0_6_6707">
<rect width="48" height="48" fill="white" transform="translate(24 73)"/>
</clipPath>
</defs>
</svg>
